<svg xmlns="http://www.w3.org/2000/svg" viewBox="0 0 183.95 85.99"><defs><style>.cls-1{isolation:isolate;}.cls-2{fill:#d9d9d9;}.cls-3{fill:#f3f3f3;}.cls-4{fill:#eae9e9;}.cls-24,.cls-5{fill:#fff;}.cls-10,.cls-11,.cls-12,.cls-5,.cls-6,.cls-7,.cls-9{fill-rule:evenodd;}.cls-6{fill:#f8f4f2;}.cls-7{fill:#e8e1de;}.cls-8{fill:#f7a900;}.cls-9{fill:#f49d00;}.cls-10{fill:#f18a00;}.cls-11{fill:#fcc200;}.cls-12{fill:#fbf7cc;}.cls-13{fill:#d64141;}.cls-14{opacity:0.3;}.cls-15{fill:#8f4b33;}.cls-16{fill:#ea6060;}.cls-17{fill:#332f33;opacity:0.15;mix-blend-mode:multiply;}.cls-18{fill:#4e140f;}.cls-19{fill:#dba266;}.cls-20{fill:#a03f3d;}.cls-21{fill:#cc6155;}.cls-22{fill:#e2bf8e;}.cls-23{fill:#eadfc7;}.cls-25{fill:#2b3f1f;}.cls-26{fill:#698a46;stroke:#698a46;}.cls-26,.cls-27{stroke-miterlimit:10;stroke-width:1.45px;}.cls-27{fill:#74b250;stroke:#74b250;}.cls-28{fill:#c1ea86;}</style></defs><g class="cls-1"><g id="Layer_1" data-name="Layer 1"><path class="cls-2" d="M184,48.89c0,19.72-40.34,35.71-90.09,35.71S3.77,68.61,3.77,48.89,44.11,13.18,93.86,13.18,184,29.17,184,48.89Z"/><ellipse class="cls-3" cx="93.86" cy="47.1" rx="90.09" ry="35.71"/><path class="cls-4" d="M155.3,43.42c0,13.45-27.5,24.35-61.44,24.35S32.42,56.87,32.42,43.42,59.93,19.06,93.86,19.06,155.3,30,155.3,43.42Z"/><path class="cls-3" d="M153.17,43.86C153.17,56.63,126.62,67,93.86,67s-59.3-10.34-59.3-23.11,26.55-23.1,59.3-23.1S153.17,31.1,153.17,43.86Z"/><path class="cls-5" d="M113.23,51.82c-4-2.45-17.06-4.06-16.92-8.23a7.23,7.23,0,0,1,.07-.79,21,21,0,0,1,1.34-4.2c1.12-2.84,2.21-5.62.29-7.5a4,4,0,0,0-.61-.47c-.06-.05-.14-.09-.21-.14l-.61-.34L96.32,30q-.45-.21-1-.42L95,29.49c-.28-.1-.57-.21-.89-.31L93.67,29l-.91-.26-.48-.14L91,28.29l.13,0c-15.21-3.68-48.27-4.78-47-1,.5,1.52,4.86,3.38,3.47,4.33S30.46,33.2,17.8,35.43h0l-1.74.32-.6.13-1.15.23-.67.15-1.05.24-.63.15-1.14.3-.44.12c-.5.14-1,.28-1.46.43l-.39.14-1,.34-.47.18-.81.33-.43.19-.77.39-.31.16a10,10,0,0,0-.93.58l-.14.1q-.34.26-.63.51l-.21.22a5.34,5.34,0,0,0-.39.44l-.17.24a3.77,3.77,0,0,0-.26.48c0,.08-.07.15-.1.22a3.16,3.16,0,0,0-.16.74c-.12,1.93,1,3.73,2.73,5.28a17.06,17.06,0,0,0,2.2,1.69A24,24,0,0,0,14,53a23.78,23.78,0,0,0,3.16.37c2.2.16,4.94.26,7.3.36,2.76.12,4.39.81,5.48,1.78a.27.27,0,0,0,.08.07c1.42,1.33,1.88,3.14,2.72,4.78.09.17.18.34.28.51s.26.42.41.62c1,1.3,2.44,2.33,5.32,2.68q1,.1,2.13.12c1.58,0,3.72.09,6.1.24,1.35.08,2.79.18,4.24.3l2.17.19c4.35.39,8.55.89,11,1.38a13.82,13.82,0,0,1,1.44.37c.34.13.55.24.6.36a.17.17,0,0,1,0,.12A2.53,2.53,0,0,0,66,68a.53.53,0,0,0,0,.28c.18.31.87.53,2.69.54h.53l1.2,0,.78,0c.73,0,1.56-.1,2.5-.18l2.07-.18,2.39-.24c4.28-.45,8.25-1,11.86-1.6,1.44-.24,2.83-.5,4.15-.76l1.93-.4c1.89-.41,3.64-.84,5.22-1.27a45.56,45.56,0,0,0,6.55-2.27,17.27,17.27,0,0,0,2.86-1.63,14.87,14.87,0,0,0,1.59-1.29c.24-.22.47-.45.68-.68a9.54,9.54,0,0,0,1.07-1.41,7.88,7.88,0,0,0,.37-.7,4.06,4.06,0,0,0,.37-1.38A3,3,0,0,0,113.23,51.82Z"/><path class="cls-6" d="M40.91,64.27c7.21,0,26.21,1.75,25.49,3s-1.86,2.34,11.82.9,24.26-3.83,29.71-6.3,9.3-7.55,5.3-10-17.06-4.06-16.92-8.23,4.77-9.48,1.7-12.48l-.3-.27h0a3.32,3.32,0,0,0-.36-.26h0l-.41-.24,0,0-.44-.23-.06,0-.47-.21-.1,0c-.15-.07-.31-.14-.48-.2l-.13-.05-.49-.18-.18-.06-.48-.17-.25-.08-.46-.14L93,28.83l-.41-.12-.39-.11-.4-.1-.49-.12L91,28.29c1.37.36,6.4,1.9,6.27,5.49-.16,4.16-9,8.07-9.51,11.51s9.51,4.07,16.78,6,5.2,8.88-10.55,12.87S70.8,67.7,69.48,67.26s5-1.83,1.84-2.19-17.66-.48-22.06-1.6S35,62.91,34.72,59.55s1.44-7-6.39-8.23-15.11-2.4-20.14-5-3.76-8,9.62-10.95l-.82.15-.24,0-.72.13-.18,0L15,36l-.16,0-.74.15-.16,0-.81.18-.14,0-.71.17-.18,0-.76.2-.11,0-.7.19-.14,0-.71.21-.11,0-.66.21-.13,0-.67.22,0,0L7.41,38l-.1,0-.59.23-.07,0c-.21.08-.4.17-.6.26l-.07,0-.55.26,0,0c-.19.09-.36.18-.53.28l-.07,0-.46.27,0,0-.45.3,0,0-.39.3,0,0L3,40.47l0,0-.31.33,0,0c-.1.11-.19.22-.28.34h0a2.25,2.25,0,0,0-.22.35l0,0A2.43,2.43,0,0,0,2,42H2c0,.13-.08.25-.11.38v0a2.63,2.63,0,0,0-.06.39C1.46,47.9,10.21,52.16,14,53a95.51,95.51,0,0,0,10.46.73C35.78,54.21,28.33,64.21,40.91,64.27Z"/><path class="cls-7" d="M5.38,38.89C3.22,40,1.87,41.24,1.78,42.75,1.46,47.9,10.21,52.16,14,53a95.51,95.51,0,0,0,10.46.73c11.29.5,3.84,10.5,16.42,10.56H42c-10.65-1.7-9.48-6.75-9.42-8.06s-.26-2-2.88-2.76-10-.78-16-1.57S3.11,46.53,2.58,43.56,5.28,38.94,5.38,38.89Z"/><path class="cls-7" d="M40.91,64.27c.62,0,1.32,0,2.09,0-2-.09-3.38-.14-3.76-.12C39.75,64.24,40.31,64.27,40.91,64.27Zm6.87.29c8.39.55,19.17,1.75,18.62,2.67-.73,1.2-1.86,2.34,11.82.9s24.26-3.83,29.71-6.3,9.3-7.55,5.3-10-17.06-4.06-16.92-8.23,4.77-9.48,1.7-12.48a3.28,3.28,0,0,0-.48-.4c.5.39,1.71,1.7.54,4.63-1.44,3.6-5.18,6.55-5.24,8.91s3,2.56,4.19,2.89,15,3.19,15.94,6.62-2.23,6.36-5.9,7.87-18.3,4.78-24.43,5.57-14.88,2.33-15.08.88.92-1.31-.65-2C65.89,65.7,55.55,65,47.78,64.56Z"/><ellipse class="cls-8" cx="65.77" cy="45.37" rx="17.26" ry="10.31"/><path class="cls-9" d="M69.83,35.35c7.57,1.09,13.2,5.16,13.2,10,0,5.69-7.73,10.31-17.26,10.31S48.51,51.06,48.51,45.37c0-3.66,3.19-6.87,8-8.7C38.9,44.1,61.4,57.21,75.68,49.13,82.62,45.19,79.88,37.43,69.83,35.35Z"/><path class="cls-10" d="M81.05,40.57a7.26,7.26,0,0,1,2,4.8c0,5.69-7.73,10.31-17.26,10.31S48.51,51.06,48.51,45.37a6.32,6.32,0,0,1,.29-1.89c0,.11-.61,7.78,10.81,10.48S86.42,50.91,81.05,40.57Z"/><path class="cls-11" d="M62.33,36.22s-8.66,1.57-10.07,5.51,3.44,6.56,9.75,7,2.24-4.8,5.91-5.84C80.23,39.45,70.39,35.28,62.33,36.22Z"/><path class="cls-12" d="M60,37.28S56,38.34,55.18,39.64s1.06,1.55,2.24.91a40.21,40.21,0,0,1,4-2.07C62.27,38.22,63.75,36.54,60,37.28Z"/><path class="cls-12" d="M61.83,39.12c-.84.56-2,1-1.44,1.55C61.75,42.08,66.43,36.51,61.83,39.12Z"/><path class="cls-13" d="M130.31,19.84S123,31.68,104.54,37.64,77.35,41.53,76,53.76s12.39,11.6,19.83,9.62,31.6-8.4,47-25.45c0,0,8.65-8.51-.08-17.51C142.69,20.42,135.18,14.2,130.31,19.84Z"/><g class="cls-14"><path class="cls-15" d="M102.5,61.48l0-.18a1.88,1.88,0,0,0,0-.2c-.06-.41-.16-1-.31-1.68-.07-.34-.15-.71-.25-1.1s-.2-.8-.32-1.22-.25-.85-.39-1.28-.31-.88-.47-1.31-.35-.86-.53-1.28-.39-.82-.6-1.2-.4-.76-.62-1.09-.42-.65-.63-.93l-.58-.73a5.43,5.43,0,0,0-.49-.53l-.44-.45.36.51a5,5,0,0,1,.4.59l.46.8c.15.3.3.64.46,1s.28.74.44,1.13.25.81.38,1.23.22.86.32,1.29.19.87.25,1.31.14.85.18,1.27.1.81.13,1.19,0,.74.07,1.07c0,.67,0,1.22,0,1.6,0,.18,0,.33,0,.43s0,.45,0,.45Z"/><path class="cls-15" d="M111.14,58.47a1.23,1.23,0,0,0,0-.18c0-.13,0,.1,0-.11-.07-.42-.17-1-.35-1.69-.08-.35-.19-.71-.3-1.1s-.26-.78-.4-1.2-.32-.83-.52-1.24l-.28-.63c-.1-.21-.22-.41-.32-.62-.21-.41-.45-.81-.69-1.2a12.42,12.42,0,0,0-.74-1.1,11,11,0,0,0-.76-1l-.36-.44-.37-.39c-.24-.24-.44-.48-.64-.66l-.54-.48-.46-.41.39.48c.13.15.28.33.45.55s.34.47.53.74l.3.43c.09.15.18.32.28.48a11.51,11.51,0,0,1,.58,1.05c.18.37.38.75.54,1.15s.33.81.46,1.23c.07.21.15.41.21.62s.12.42.17.62c.13.41.2.83.3,1.23s.14.78.19,1.15.1.72.12,1c.06.64.07,1.17.07,1.54,0,.18,0,.32,0,.4s0,.55,0,.55Z"/><path class="cls-15" d="M120.4,54.37s0-.07,0-.18a1.11,1.11,0,0,1,0-.13c-.12-.37-.29-.9-.53-1.52-.11-.31-.25-.65-.4-1s-.31-.71-.48-1.08-.36-.76-.56-1.14-.41-.76-.64-1.13-.45-.75-.69-1.11c-.12-.18-.24-.35-.35-.53l-.37-.5-.36-.48-.36-.44c-.24-.29-.46-.56-.69-.79l-.6-.65-.49-.46c-.28-.25-.43-.4-.43-.4l.36.47c.11.14.25.32.4.53s.31.46.49.72.35.56.53.87c.09.16.19.32.28.49l.27.51L116,47c.08.18.17.37.25.56.18.37.33.76.48,1.15s.29.79.43,1.18.24.77.35,1.15.21.73.28,1.08.16.68.22,1c.12.61.2,1.12.25,1.47,0,.17,0,.31,0,.39s0,.47,0,.47Z"/><path class="cls-15" d="M130.37,48.57l-.08-.16c0-.11,0,.05,0-.13-.17-.34-.42-.82-.75-1.37a20.88,20.88,0,0,0-1.2-1.82c-.24-.31-.48-.64-.75-1l-.41-.48-.42-.46c-.28-.32-.59-.61-.88-.89s-.61-.54-.91-.8-.6-.47-.88-.69l-.41-.3-.41-.27-.71-.45-.57-.31-.49-.27.44.35.5.4c.19.16.39.36.61.56l.35.32c.12.11.23.24.35.36s.49.51.73.81.49.57.72.9.47.63.68,1l.32.5.3.51c.2.33.37.67.54,1,.33.66.6,1.29.81,1.83s.35,1,.44,1.33c0,.16.08.28.09.35s.09.44.09.44Z"/><path class="cls-15" d="M137.9,42.75a.43.43,0,0,1-.09-.11l-.15-.18c-.22-.26-.53-.62-.92-1s-.85-.88-1.35-1.37-1.07-1-1.65-1.45-1.17-.92-1.74-1.32c-.28-.2-.56-.38-.83-.56s-.51-.33-.75-.47c-.48-.29-.88-.51-1.16-.65l-.45-.24.39.32c.25.19.61.48,1,.85.2.18.42.38.64.6s.46.44.69.69c.47.49,1,1,1.41,1.58s.89,1.12,1.29,1.66.73,1.06,1,1.51.5.83.65,1.1l.16.3.12.25Z"/></g><path class="cls-16" d="M128.18,25.85S117.36,38.14,92.81,42.06c0,0-13,2.11-11.79,5.71s27.59-4.62,36.21-8.74S136.47,18.26,128.18,25.85Z"/><path class="cls-17" d="M76.07,57.3c1.47,8.53,13.13,7.85,19.76,6.08,7.43-2,31.6-8.4,47-25.46a14.69,14.69,0,0,0,3.28-5.53,0,0,0,0,0,0,0,10.36,10.36,0,0,0,.37-1.53.51.51,0,0,0,0-.13.77.77,0,0,0,0-.15c0-.36.08-.67.1-.88v-.11s0-.07,0-.09v-.09a11.58,11.58,0,0,0-3-8,13.6,13.6,0,0,1,.5,2.22,15.24,15.24,0,0,1-2.21,10c-7.34,4.09-21.18,8.2-27.86,8.63-9,.57-14.33,7.6-14.34,12.64,0,4.83-3.48,5.56-3.77,5.62h0a56,56,0,0,1-13.87,0A9.9,9.9,0,0,1,76.07,57.3Z"/><path class="cls-13" d="M157.18,21.93s-7.32,11.84-25.78,17.81-27.18,3.89-28.56,16.11,12.4,11.61,19.83,9.62,31.6-8.39,47-25.45c0,0,8.65-8.5-.07-17.51C169.56,22.51,162,16.29,157.18,21.93Z"/><g class="cls-14"><path class="cls-15" d="M129.36,63.57s0-.07,0-.18l0-.2c-.06-.41-.16-1-.3-1.67-.08-.35-.15-.72-.25-1.11s-.2-.8-.33-1.22-.25-.85-.39-1.28-.31-.87-.47-1.31-.35-.86-.53-1.28-.38-.82-.59-1.2-.41-.75-.63-1.09-.42-.65-.62-.92l-.59-.74c-.17-.22-.36-.38-.49-.53l-.44-.45s.14.18.37.51c.11.16.26.35.4.59s.28.51.45.8.3.64.46,1,.29.74.44,1.13.25.82.38,1.23.22.86.32,1.29.19.87.25,1.31.14.86.19,1.27.09.81.12,1.19,0,.74.08,1.07c0,.67,0,1.22,0,1.6v.43c0,.1,0,.45,0,.45Z"/><path class="cls-15" d="M138,60.56s0-.06,0-.17,0,.09,0-.12c-.07-.42-.17-1-.34-1.69-.08-.34-.19-.71-.31-1.1s-.26-.78-.4-1.19-.31-.84-.51-1.25l-.29-.63c-.1-.21-.21-.41-.32-.62-.2-.41-.45-.81-.68-1.19s-.5-.75-.74-1.11-.52-.67-.76-1c-.13-.15-.24-.3-.37-.44l-.36-.38c-.24-.25-.45-.48-.65-.67s-.39-.34-.53-.48l-.47-.41.4.48c.12.15.27.34.45.55s.33.47.52.74l.3.43c.1.15.19.32.28.48a11.51,11.51,0,0,1,.58,1,12.39,12.39,0,0,1,.54,1.16,12.75,12.75,0,0,1,.46,1.22c.07.21.15.41.21.62l.18.63c.12.4.19.82.29,1.22s.15.78.2,1.15.09.72.12,1c.06.64.07,1.17.07,1.54,0,.18,0,.32,0,.4s0,.56,0,.56Z"/><path class="cls-15" d="M147.27,56.46l-.05-.17c0-.12,0,.05,0-.13-.12-.38-.29-.91-.53-1.53-.11-.31-.25-.64-.39-1s-.32-.71-.48-1.09-.37-.75-.57-1.13-.41-.77-.64-1.14-.44-.75-.69-1.11l-.35-.53-.37-.5-.35-.48-.37-.44a9.25,9.25,0,0,0-.68-.79l-.6-.64-.5-.47-.43-.4.36.47.41.53q.21.33.48.72c.18.26.36.56.54.88l.28.48c.08.17.17.34.26.52l.27.53.26.56c.17.38.33.76.48,1.16s.28.78.42,1.17.24.78.35,1.15.21.74.29,1.09.15.67.21,1c.13.61.2,1.12.25,1.47,0,.18,0,.31,0,.39s0,.47,0,.47Z"/><path class="cls-15" d="M157.23,50.66l-.07-.16c0-.11,0,0-.06-.12-.17-.35-.41-.83-.74-1.38s-.74-1.17-1.21-1.81c-.24-.32-.48-.65-.75-1l-.4-.48-.43-.46c-.28-.31-.58-.6-.88-.89s-.61-.54-.9-.8-.6-.47-.89-.69-.27-.21-.41-.3l-.41-.27c-.26-.16-.49-.32-.71-.44l-.57-.31-.49-.27.44.35.5.39c.19.16.39.36.62.56l.34.32c.12.11.23.24.35.36s.5.51.73.81.5.58.72.9.47.63.68,1l.32.5.3.51c.2.33.37.68.54,1a18,18,0,0,1,.81,1.84c.21.54.35,1,.44,1.32.05.16.08.28.1.35s.08.44.08.44Z"/><path class="cls-15" d="M164.76,44.85l-.09-.11-.15-.19c-.22-.26-.52-.62-.91-1s-.85-.88-1.36-1.37-1.07-1-1.65-1.45-1.17-.92-1.74-1.32c-.27-.2-.56-.38-.82-.56l-.76-.47c-.47-.29-.88-.5-1.16-.65l-.45-.24.4.32c.25.2.6.48,1,.85.21.18.42.38.64.6s.47.44.7.69c.47.49,1,1,1.4,1.58s.9,1.12,1.29,1.66.73,1.06,1,1.51.5.83.65,1.1l.16.3c0,.07.12.25.12.25Z"/></g><path class="cls-16" d="M155,27.94s-10.81,12.29-35.36,16.21c0,0-13,2.11-11.79,5.72s27.59-4.63,36.2-8.74S163.34,20.36,155,27.94Z"/><path class="cls-17" d="M108.83,62.54a57,57,0,0,0,34-6.41,61.4,61.4,0,0,0,13-8.76c2.51-2.29,5.6-3.82,8.12-6.1,4.49-4,7.77-9.32,6.94-15.61a13.25,13.25,0,0,0-.5-2.21c7.29,8.64-.77,16.57-.77,16.57-15.36,17.06-39.53,23.47-47,25.45-6.63,1.77-18.29,2.45-19.76-6.08A9.9,9.9,0,0,0,108.83,62.54Z"/><path class="cls-18" d="M113.85,28.06c1.39.28-.95,1.47-.8.39.39-2.82,1.55-3.87.79-6.52a30.45,30.45,0,0,1-.87-5.61c-.13-1.5.06-3,0-4.48-.05-.76-.36-2-1.53-1.88a3.88,3.88,0,0,0-1.46.84c-1.32.23-2.67.34-4,.5a41.45,41.45,0,0,0-5.3,1.19c-3,.77-6.41,1.52-9.51.93C86.2,12.48,82.63,7.1,77,8.64a41.45,41.45,0,0,0-3.93,1.52,31.82,31.82,0,0,1-5.19,1.6c-3.29.63-6.85-1.13-9.8-2A12.42,12.42,0,0,0,54,9.05a9.81,9.81,0,0,0-4.29,1.26c-1.25.65-2.39,1.42-3.7,2a13.51,13.51,0,0,1-5.28.95c-3.64,0-7-1.45-10.51-2-3.11-.5-6.76-.48-9.59,1a13.67,13.67,0,0,0-1.38.55c-.61.28-.35,1.68-.3,2.1.13,1.23.57,2.42.75,3.65.34,2.34.38,4.74.58,7.09.12,1.54.3,3.07.49,4.6a10.54,10.54,0,0,0,.68,3.38,2.35,2.35,0,0,0,2.43,1.45c.93,0,1.68-1,2.42-1.39a4.49,4.49,0,0,1,2.19-.14,8,8,0,0,0,2.39-.23h0a14.94,14.94,0,0,0,2.68.06c3.28-.27,6.34-1.79,9.45-2.63a16.35,16.35,0,0,1,5.06-.59,18.11,18.11,0,0,1,5.19,1.27,28.82,28.82,0,0,0,9.57,2.09,20,20,0,0,0,8.49-2.11c1.32-.59,2.63-1.18,4-1.66a9.34,9.34,0,0,1,5.49.05c3.05.79,5.84,2.07,9,2.7a36.89,36.89,0,0,0,9.63.42,56,56,0,0,0,6.46-.87l1.89-.35c.84,0,1.94-1.36,2.79-1.37S112.89,27.86,113.85,28.06Z"/><path class="cls-19" d="M118.87,30.81c1.52.38,2.38-.79,2.52-2.16.36-3.59-1-7.29-1.92-10.69a46.5,46.5,0,0,1-1.07-7.16c-.18-1.91,0-3.81-.15-5.71-.07-1-.44-2.58-1.7-2.41-.57.08-1.13.7-1.55,1-1.44.28-2.89.4-4.34.58A38.52,38.52,0,0,0,105,5.76c-3.23.94-6.89,1.85-10.26,1.06C89.36,5.56,85.37-1.35,79.34.54a38.59,38.59,0,0,0-4.21,1.88,30.09,30.09,0,0,1-5.58,2C66,5.16,62.11,2.86,58.91,1.66a12.1,12.1,0,0,0-4.48-.9A9.13,9.13,0,0,0,49.81,2.3c-1.34.81-2.55,1.78-4,2.49a12.38,12.38,0,0,1-5.69,1.14C36.24,5.87,32.57,4,28.76,3.22c-3.38-.69-7.33-.7-10.34,1.17a14.23,14.23,0,0,0-1.49.68c-.64.35-.33,2.13-.27,2.67.17,1.58.67,3.1.89,4.67.43,3,.54,6,.8,9,.17,2,.41,3.92.64,5.87a16.59,16.59,0,0,0,.82,4.32,2.65,2.65,0,0,0,2.66,1.88c1-.06,1.79-1.25,2.58-1.74a4.14,4.14,0,0,1,2.37-.15A7.74,7.74,0,0,0,30,31.37l.05,0a13.2,13.2,0,0,0,2.89.12c3.54-.3,6.82-2.2,10.16-3.23a15.34,15.34,0,0,1,5.46-.69,17.53,17.53,0,0,1,5.64,1.7c3.39,1.45,6.67,2.68,10.4,2.79,3.32.09,6.24-1.09,9.13-2.59C75.14,28.72,76.54,28,78,27.4a8.64,8.64,0,0,1,5.93.13c3.32,1,6.37,2.72,9.77,3.56a34.12,34.12,0,0,0,10.43.67,52.84,52.84,0,0,0,7-1l2-.42c.92,0,1.82,0,2.73,0A11.66,11.66,0,0,1,118.87,30.81Z"/><path class="cls-20" d="M96.76,30a34.34,34.34,0,0,1-10.08-3c-2.91-1.22-6.33-2.36-9.45-1.14S71.31,29,68.1,30c-3.59,1.11-7.67.41-11.08-1s-6.53-3.11-10.28-3.09c-3.5,0-6.68,1.52-9.85,2.82a13.83,13.83,0,0,1-7.5,1.3,13.37,13.37,0,0,0-4.23-.34,3.76,3.76,0,0,0-2.61,1.19,3.49,3.49,0,0,1-1,.76,5.52,5.52,0,0,1-.38-.77c-1.23-3.07-1.37-6.5-1.57-9.76-.15-2.63-.05-5.27-.17-7.9A15.58,15.58,0,0,0,19,10.5a23.61,23.61,0,0,1-.48-4l.17-.13a13.66,13.66,0,0,1,2-1.46,7.71,7.71,0,0,1,1.65-.67,17.83,17.83,0,0,1,6.78.13C32.46,5,35.57,6.47,39,7a14.3,14.3,0,0,0,9.23-1.79,31.15,31.15,0,0,1,4.13-2.25,8.61,8.61,0,0,1,5.84,0c3.25,1,6.24,2.59,9.7,2.61,3.18,0,6.57-1.65,9.39-3,1.67-.79,3.31-1.53,5.19-1.12a11.69,11.69,0,0,1,4.35,2.36c2.36,1.78,4.47,3.7,7.32,4.66,3.36,1.12,7.28.47,10.6-.47,2-.57,3.86-1.5,5.86-2,.65-.17,1.29-.35,1.93-.55,1-.24,2-.37,2.94-.67.45-.14.81-.57,1.25-.76a9.62,9.62,0,0,1-.24,1.94,24.82,24.82,0,0,0,.09,5.17,50.6,50.6,0,0,0,1.92,9.62,22.69,22.69,0,0,1,1,7.08c0,.47-.19,1.46-.87,1.29a5.66,5.66,0,0,0-1.73-.25,13.17,13.17,0,0,0-1.54.16,48.78,48.78,0,0,0-7.16.71A50.27,50.27,0,0,1,96.76,30Z"/><path class="cls-21" d="M118.56,29c.68.17.85-.82.87-1.29a22.69,22.69,0,0,0-1-7.08q-.21-.69-.39-1.38c-1.11.17-2.22.41-3.33.68A60.91,60.91,0,0,1,104.81,22a28.86,28.86,0,0,1-9.69-1.1c-1.49-.41-2.94-.89-4.39-1.42a33,33,0,0,0-5.06-1.76c-3.11-.59-5.89.59-8.82,1.45a18.29,18.29,0,0,1-4.21.85,5.38,5.38,0,0,1-2.32-.28c-2.94-1.28.28-5.15,1.55-6.4,2.4-2.34,6.2-4.85,9.71-3.77,2.79.86,4.72,3.18,7.2,4.59a12.25,12.25,0,0,0,5,1.43,30.37,30.37,0,0,0,5.8.08c5.88-.55,11.34-2.9,17-4.26,0-.13,0-.26,0-.4a24.82,24.82,0,0,1-.09-5.17,9.62,9.62,0,0,0,.24-1.94c-.44.19-.8.62-1.25.76-1,.3-2,.43-2.94.67-.64.2-1.28.38-1.93.55-2,.55-3.86,1.48-5.86,2.05-3.32.94-7.24,1.59-10.6.47-2.85-1-5-2.88-7.32-4.66a11.69,11.69,0,0,0-4.35-2.36c-1.88-.41-3.52.33-5.19,1.12-2.82,1.33-6.21,3-9.39,3-3.46,0-6.45-1.66-9.7-2.61a8.61,8.61,0,0,0-5.84,0,31.15,31.15,0,0,0-4.13,2.25A14.3,14.3,0,0,1,39,7c-3.38-.51-6.49-2-9.84-2.61a17.83,17.83,0,0,0-6.78-.13,7.71,7.71,0,0,0-1.65.67,13.66,13.66,0,0,0-2,1.46l-.17.13A22.37,22.37,0,0,0,19,10.32a40.77,40.77,0,0,1,4.94-.16,8.86,8.86,0,0,1,2.56.32,24.61,24.61,0,0,1,3.72,1.73c2.25,1.17,4.79,2.43,7.41,2.26a23.73,23.73,0,0,0,4.34-.82c3.21-.81,7.08-4,10.26-4.88s8.5.42,11.47,2.2c1.16.69,2.29,2.12,1.16,3.28s-3.67.52-5,.42c-6-.43-11.08,3.9-17,4.08a35.75,35.75,0,0,1-8.85-1.15A37.66,37.66,0,0,0,25,16.3a14.24,14.24,0,0,0-5.52,1.25c0,.54,0,1.08,0,1.61.54,0,1.08,0,1.61,0,1.89.13,3.79.4,5.65.7A50.93,50.93,0,0,1,32.91,21c.71.2,2.84.77,2.22,1.93a3,3,0,0,1-1.6,1.2,6.32,6.32,0,0,1-2.56.24,41.14,41.14,0,0,1-6.75-1.51,24.68,24.68,0,0,0-3.16-.67,7.26,7.26,0,0,0-1.4-.07,28.24,28.24,0,0,0,1.51,8.77,5.52,5.52,0,0,0,.38.77,3.49,3.49,0,0,0,1-.76,3.76,3.76,0,0,1,2.61-1.19,13.37,13.37,0,0,1,4.23.34,13.83,13.83,0,0,0,7.5-1.3c3.17-1.3,6.35-2.8,9.85-2.82,3.75,0,6.9,1.71,10.28,3.09s7.49,2.1,11.08,1c3.21-1,6-2.95,9.13-4.18s6.54-.08,9.45,1.14a34.34,34.34,0,0,0,10.08,3,50.27,50.27,0,0,0,11.37-.3,48.78,48.78,0,0,1,7.16-.71,13.17,13.17,0,0,1,1.54-.16A5.66,5.66,0,0,1,118.56,29ZM59.5,23a15.27,15.27,0,0,1-4-.56A4.42,4.42,0,0,1,53,21a2,2,0,0,1,.27-2.32c1-1.39,2.91-1.66,4.54-1.75a15.16,15.16,0,0,1,6.38.78,4,4,0,0,1,1.89,1.5,1.93,1.93,0,0,1,.55,1.27,1.79,1.79,0,0,1-1,1.45A11.89,11.89,0,0,1,59.5,23Z"/><path class="cls-22" d="M18.88,8a18,18,0,0,1,1.88-.51,20.23,20.23,0,0,1,8.66.06,16.47,16.47,0,0,1,4,1.43c1.28.68,2.33,1.85,3.78,2.17,3.19.73,6.53-.33,9.41-1.69,2.69-1.27,5.41-2.94,8.48-2.86S60.66,8,63.37,9a10.51,10.51,0,0,0,4.35.81,14.51,14.51,0,0,0,4.86-1.4c2.87-1.28,5.81-2.83,9-2,2.87.76,5,2.9,7.59,4.28,3.37,1.81,7.14,1.69,10.83,1.51a66.15,66.15,0,0,0,16.34-3.08,19.28,19.28,0,0,1,.06-3.31,9.62,9.62,0,0,0,.24-1.94c-.44.19-.8.62-1.25.76-1,.3-2,.43-2.94.67-.64.2-1.28.38-1.93.55-2,.55-3.86,1.48-5.86,2.05-3.32.94-7.24,1.59-10.6.47-2.85-1-5-2.88-7.32-4.66a11.69,11.69,0,0,0-4.35-2.36c-1.88-.41-3.52.33-5.19,1.12-2.82,1.33-6.21,3-9.39,3-3.46,0-6.45-1.66-9.7-2.61a8.61,8.61,0,0,0-5.84,0,31.15,31.15,0,0,0-4.13,2.25A14.3,14.3,0,0,1,39,7c-3.38-.51-6.49-2-9.84-2.61a17.83,17.83,0,0,0-6.78-.13,7.71,7.71,0,0,0-1.65.67,13.66,13.66,0,0,0-2,1.46l-.17.13c0,.54.06,1.07.11,1.6Z"/><path class="cls-23" d="M21.65,5.82a19.61,19.61,0,0,1,8.48.57,34.72,34.72,0,0,1,4.21,1.42,17.51,17.51,0,0,0,4.78,1.51c3.28.37,6.35-.81,9.22-2.28S54,3.64,57.26,3.79c3,.14,5.75,1.57,8.59,2.3,3.15.8,6.06-.09,9-1.25,2.49-1,5.3-2.14,8-1.61,2.4.45,4.3,2.12,6.13,3.63,2.18,1.79,4.42,3.45,7.33,3.62a25.13,25.13,0,0,0,5.54-.45c1.76-.31,3.53-.61,5.29-.93a45.9,45.9,0,0,0,9.2-2.3c0-.31,0-.62.08-.93a9.62,9.62,0,0,0,.24-1.94c-.44.19-.8.62-1.25.76-1,.3-2,.43-2.94.67-.64.2-1.28.38-1.93.55-2,.55-3.86,1.48-5.86,2.05-3.32.94-7.24,1.59-10.6.47-2.85-1-5-2.88-7.32-4.66a11.69,11.69,0,0,0-4.35-2.36c-1.88-.41-3.52.33-5.19,1.12-2.82,1.33-6.21,3-9.39,3-3.46,0-6.45-1.66-9.7-2.61a8.61,8.61,0,0,0-5.84,0,31.15,31.15,0,0,0-4.13,2.25A14.3,14.3,0,0,1,39,7c-3.38-.51-6.49-2-9.84-2.61a17.83,17.83,0,0,0-6.78-.13,7.71,7.71,0,0,0-1.65.67,13.66,13.66,0,0,0-2,1.46l-.17.13c0,.09,0,.18,0,.28A12.48,12.48,0,0,1,21.65,5.82Z"/><path class="cls-22" d="M118.56,29c.68.17.85-.82.87-1.29a19.25,19.25,0,0,0-.3-4.1,31.54,31.54,0,0,1-5.28,1,63,63,0,0,1-12,.13,42.13,42.13,0,0,1-9-1.75c-3.24-1-6.62-2.31-10-2.44-6-.23-10.48,4-16,5.33a14.08,14.08,0,0,1-8.27-.55c-2.86-1-5.49-2.62-8.37-3.58A12.41,12.41,0,0,0,45.54,21a9.05,9.05,0,0,0-3.84,1.21c-2.22,1.24-4.21,3-6.67,3.79a11.58,11.58,0,0,1-5.58.07c-2.14-.39-4.25-.87-6.4-1.18a28.27,28.27,0,0,0-3.21-.3,22.12,22.12,0,0,0,1.33,6.31,5.52,5.52,0,0,0,.38.77,3.49,3.49,0,0,0,1-.76,3.76,3.76,0,0,1,2.61-1.19,13.37,13.37,0,0,1,4.23.34,13.83,13.83,0,0,0,7.5-1.3c3.17-1.3,6.35-2.8,9.85-2.82,3.75,0,6.9,1.71,10.28,3.09s7.49,2.1,11.08,1c3.21-1,6-2.95,9.13-4.18s6.54-.08,9.45,1.14a34.34,34.34,0,0,0,10.08,3,50.27,50.27,0,0,0,11.37-.3,48.78,48.78,0,0,1,7.16-.71,13.17,13.17,0,0,1,1.54-.16A5.66,5.66,0,0,1,118.56,29Z"/><path class="cls-23" d="M118.56,29c.68.17.85-.82.87-1.29s0-.91,0-1.38A46.63,46.63,0,0,1,114,27c-3.36.24-6.72.45-10.08.66-3.19.2-6.52.36-9.62-.56-2.81-.83-5.4-2.24-8.14-3.25a13.48,13.48,0,0,0-9.07-.48c-2.87.93-5.43,2.57-8.21,3.74a12.64,12.64,0,0,1-8.53.87c-3.28-.94-6.14-2.94-9.38-4a10.44,10.44,0,0,0-5.3-.58,14.23,14.23,0,0,0-4.45,1.89c-2.82,1.65-5.67,3.57-9,3.68a27,27,0,0,1-5.8-.89,25.91,25.91,0,0,0-6.18-.56,17.84,17.84,0,0,0,.94,3.36,5.52,5.52,0,0,0,.38.77,3.49,3.49,0,0,0,1-.76,3.76,3.76,0,0,1,2.61-1.19,13.37,13.37,0,0,1,4.23.34,13.83,13.83,0,0,0,7.5-1.3c3.17-1.3,6.35-2.8,9.85-2.82,3.75,0,6.9,1.71,10.28,3.09s7.49,2.1,11.08,1c3.21-1,6-2.95,9.13-4.18s6.54-.08,9.45,1.14a34.34,34.34,0,0,0,10.08,3,50.27,50.27,0,0,0,11.37-.3,48.78,48.78,0,0,1,7.16-.71,13.17,13.17,0,0,1,1.54-.16A5.66,5.66,0,0,1,118.56,29Z"/><path class="cls-24" d="M95.62,12.38a43.83,43.83,0,0,1-7.47-3.82c-2.24-1.31-4.73-2.8-7.3-3.28-2.4-.45-4.41.6-6.49,1.63a20.14,20.14,0,0,1-3.28,1.38c-1.19.36-2.39.29-3.59.53-.82.16-.24,1.21.24,1.42,2.1,1,4.35.28,6.44-.44a17.06,17.06,0,0,1,7-1.15,10.44,10.44,0,0,1,3.3,1.22c1.21.57,2.4,1.16,3.64,1.69a19.31,19.31,0,0,0,7.63,1.62C96.35,13.17,96,12.5,95.62,12.38Z"/><path class="cls-24" d="M60,9.77c.52-.53-.11-1.46-.54-1.8a4.37,4.37,0,0,0-1.41-.75A2.63,2.63,0,0,0,57,7c-.3,0-.6-.07-.91-.09-1-.06-1.28.8-.88,1.6a3.19,3.19,0,0,0,2,1.71,3.06,3.06,0,0,0,.4.07A2.18,2.18,0,0,0,60,9.77Z"/><path class="cls-25" d="M96.38,32c-.71,2.06-1.5,4-2.13,6-.74,2.38-2.11,3.69-4.7,5-1.16.58-2.28,1.21-3.44,1.84-.67.36-3.23,1.08-3.36,1.81a.42.42,0,0,0-.17.21c1.45.28,4.31-1.36,5.69-2l4.22-2.14c5.3-2.75,11.21,2.45,16,3.4,1.39.27,4,.84,1.34-1.16a16.92,16.92,0,0,0-3.32-1.33c-1.52-.64-8.43-1.55-7.72-3.19.33-.76,3.52-1.08,4.48-.95a8.64,8.64,0,0,1,4.47,1.74c2,1.5,3.54,2.81,6,3.69.9.33,3.77.35,4.14-.23.23-.36-2.63-2-3.41-2.43-2.13-1.22-4.65-1.87-6.92-2.91-.86-.4-5.83-1.5-1.83-2.32a13.4,13.4,0,0,1,3.06-.64c4.65.35,13.08,7.72,13.77,6.32,1-2-11.06-7.16-11.19-7.6-.39-1.29,2.69-.84,3.46-.74a35.29,35.29,0,0,0,5.45.14c2.34,0,5.06-.43,7-1.8,4-2.85-1.44-3.24-4.11-2.51-2.06.56-10.42,3.56-12.56,3-.72-.2.06-1.24.93-2.32.39-.48,7.06-7.72,5.24-7.61-3.54.8-6.51,8.77-9.66,11.15-.63.47-4.36,2.57-5,1.62-.52-.79,2-3.13,2.52-3.74.92-1.15,3.54-5.36,3.54-6.28,0-2.41-4.49,3.39-4.93,4.22a36.4,36.4,0,0,1-3.85,6.39c-.34.42-1.78,2.52-2.62,1.84s.07-2.87.44-3.39c.87-1.24,2.08-4.72,1.86-6.44C98.76,26.33,96.72,31,96.38,32Z"/><path class="cls-26" d="M96.36,30.73c-.72,2.06-1.51,4-2.14,6-.74,2.38-2.11,3.7-4.7,5-1.16.58-2.27,1.21-3.44,1.84-.67.36-3.23,1.08-3.36,1.81a.42.42,0,0,0-.17.21c1.45.29,4.31-1.36,5.69-2l4.22-2.14c5.31-2.74,11.21,2.45,16,3.4,1.39.27,4,.85,1.34-1.16a16.92,16.92,0,0,0-3.32-1.33c-1.52-.64-8.43-1.55-7.72-3.19.33-.76,3.52-1.08,4.48-1A8.64,8.64,0,0,1,107.71,40c2,1.5,3.54,2.81,6,3.69.9.33,3.77.35,4.14-.22.23-.37-2.63-2-3.41-2.44-2.13-1.22-4.65-1.86-6.92-2.91-.85-.4-5.83-1.5-1.83-2.32a14,14,0,0,1,3.06-.64c4.65.35,13.08,7.72,13.77,6.33,1-2-11.06-7.17-11.19-7.61-.39-1.29,2.69-.84,3.46-.74a34.08,34.08,0,0,0,5.45.14c2.34,0,5.06-.43,7-1.8,4-2.85-1.44-3.23-4.1-2.51-2.07.56-10.43,3.56-12.57,3-.72-.2.06-1.24.93-2.32.39-.48,7.06-7.72,5.24-7.61-3.54.8-6.51,8.77-9.66,11.15-.63.47-4.36,2.57-5,1.62-.52-.79,2-3.13,2.52-3.74.92-1.15,3.54-5.36,3.54-6.28,0-2.4-4.49,3.39-4.93,4.22a36.4,36.4,0,0,1-3.85,6.39c-.34.42-1.78,2.52-2.62,1.85s.07-2.87.44-3.4c.87-1.24,2.08-4.72,1.86-6.44C98.73,25.07,96.69,29.76,96.36,30.73Z"/><path class="cls-25" d="M82.18,34.8c.45,1.92.74,3.74,1.26,5.64.6,2.19,0,3.69-1.72,5.55-.79.83-1.49,1.69-2.25,2.55-.44.51-3.41,2-2.24,2.74,2,1.42,3.33-2.43,4.29-3.37l2.83-3c3.52-3.87,11.94-1.35,17-2,1.46-.19,2.53-.84.64-1.36a20.71,20.71,0,0,0-3.87-.1c-1.78-.08-8.81,1.26-9-.32-.1-.72,2.74-2,3.72-2.13a11.42,11.42,0,0,1,5.17.09,34.56,34.56,0,0,0,8.08,1.1c1,0,2.58,0,2.14-1.14-.33-.84-2.32-1-3.3-1.13-2.67-.36-5.41-.14-8.12-.33-1-.07-6.33.52-3-1.37a12.09,12.09,0,0,1,2.54-1.44c4.59-1.11,6.35,1,9.8,1.23,1.2.08,7.51,1.15,6.66-.14-1.11-1.69-14.35-2.6-14.71-2.92-1.08-1,2.67-2.1,3.45-2.25,2-.37,8.16-3.53,9.61-5.05,3.6-3.77-1.65-1.55-4.41-.45a29,29,0,0,0-7.45,4.51c-.77.66-4.33,4.27-3.39-.34.1-.52,2.61-7.07,1.46-7.79-3.92,2.26-2,9.13-3.72,12.05-.34.57-2.72,3.43-3.83,2.83-.92-.49.22-3.2.35-3.85.25-1.22.43-5.5-.06-6.26-1.31-2-2.41,4.16-2.37,5a25.23,25.23,0,0,1-.17,6.44c-.09.45-.31,2.62-1.48,2.32s-1.49-2.4-1.43-2.94a10.45,10.45,0,0,0-1.74-5.89C81.35,29.4,82,33.9,82.18,34.8Z"/><path class="cls-27" d="M81.4,33.71c.45,1.92.74,3.74,1.27,5.64.6,2.19,0,3.69-1.73,5.55-.78.83-1.49,1.69-2.25,2.55-.44.51-3.41,2-2.24,2.74,2,1.42,3.34-2.43,4.3-3.37l2.82-3c3.53-3.87,11.94-1.35,17-2,1.46-.19,2.54-.84.64-1.36a20.6,20.6,0,0,0-3.86-.1c-1.79-.08-8.81,1.26-9-.32-.1-.72,2.74-2,3.72-2.13a11.47,11.47,0,0,1,5.18.09,34.55,34.55,0,0,0,8.07,1.1c1,0,2.58,0,2.15-1.14-.33-.84-2.32-1-3.3-1.13-2.67-.36-5.42-.14-8.13-.33-1-.07-6.33.52-3-1.37a12.35,12.35,0,0,1,2.54-1.44c4.59-1.11,6.35,1,9.81,1.23,1.19.08,7.51,1.15,6.66-.14-1.12-1.69-14.35-2.6-14.72-2.92-1.07-1,2.67-2.1,3.46-2.25,2-.37,8.15-3.53,9.6-5.05,3.6-3.77-1.64-1.55-4.4-.45a28.8,28.8,0,0,0-7.45,4.51c-.78.66-4.34,4.27-3.4-.34.11-.52,2.62-7.07,1.46-7.79-3.92,2.26-2,9.13-3.72,12.05-.33.57-2.72,3.43-3.82,2.83-.93-.49.22-3.2.35-3.85.24-1.22.43-5.5-.07-6.26-1.3-2-2.41,4.16-2.37,5a24.35,24.35,0,0,1-.17,6.44c-.09.45-.31,2.62-1.47,2.32s-1.49-2.4-1.43-2.94a10.54,10.54,0,0,0-1.75-5.89C80.57,28.31,81.19,32.81,81.4,33.71Z"/><path class="cls-28" d="M77.66,50.19c.51-.23,1-1.28,1.36-1.66s.63-1.17,1.12-1.68l3.06-3.23c2.13-2.24,4.53-4.31,6.84-6.43s4.41-4,6.8-5.78a84.85,84.85,0,0,1,7.76-5.15,38.22,38.22,0,0,1,5.4-2.89c.15-.06,1.31-.58,1.26-.67a6.39,6.39,0,0,0-1.43.42A47.76,47.76,0,0,0,102,27.35a75,75,0,0,0-7.48,5.31C92.2,34.57,90,36.58,87.84,38.6c-1.14,1.07-2.33,2.1-3.45,3.18s-2.08,2.14-3.1,3.22c-.69.73-1.39,1.44-2.08,2.16s-1.8,1.61-2.35,2.22C76.65,49.61,77.66,50.19,77.66,50.19Z"/><path class="cls-28" d="M83.12,43.5c.48-.12.53-.71.6-1,.11-.57.14-1.14.21-1.72a13.18,13.18,0,0,0-1.84-6.83c-.17-.22.59,1.69.73,2.23a14.45,14.45,0,0,1,.62,4.26c0,.46-.08.94-.14,1.4q0,.38-.12.75c0,.11-.38,1-.06.94Z"/><path class="cls-28" d="M85.46,41.23a18.43,18.43,0,0,0,2.58.14c.33,0,3.71-.21,3.37-.21-.82,0-5-.24-5.79-.34-.32,0-.49.37-.16.41Z"/><path class="cls-28" d="M89.74,37.6a20.31,20.31,0,0,1,2-.26c.33,0,3.17-.5,2.83-.47-.72.07-4.25.17-5,.32-.33.07-.22.48.1.41Z"/><path class="cls-28" d="M88.18,38.91a7.61,7.61,0,0,0-.38-5.36c-.13-.25,0,.8,0,1.3a7.78,7.78,0,0,1-.13,3.95c-.12.27.38.37.49.11Z"/><path class="cls-28" d="M93.5,34.08a17.22,17.22,0,0,0,.9-5.69c0-.27-.37,1.16-.35,1.43A10.13,10.13,0,0,1,93,34c-.11.27.39.37.49.11Z"/><path class="cls-28" d="M95,32.94c.89.07,1.8-.18,2.68,0a11,11,0,0,0,2,.13,9.53,9.53,0,0,0-1.83-.39c-.93-.16-1.89,0-2.82-.13a.22.22,0,1,0,0,.43Z"/></g></g></svg>