<svg xmlns="http://www.w3.org/2000/svg" viewBox="0 0 180.72 81.39"><defs><style>.cls-1{isolation:isolate;}.cls-2{fill:#d9d9d9;}.cls-3{fill:#f3f3f3;}.cls-4{fill:#eae9e9;}.cls-5{fill:#995d24;}.cls-6{fill:#84491c;}.cls-7{fill:#e1924a;}.cls-8{fill:#d6a150;}.cls-9{fill:#cba669;}.cls-10{fill:#f5c97e;}.cls-11{fill:#e1b257;}.cls-12{fill:#4e140f;}.cls-13{fill:#dba266;}.cls-14{fill:#a03f3d;}.cls-15{fill:#cc6155;}.cls-16{fill:#e2bf8e;}.cls-17{fill:#eadfc7;}.cls-18{fill:#fff;}.cls-19{fill:#d64141;}.cls-20{opacity:0.3;}.cls-21{fill:#8f4b33;}.cls-22{fill:#ea6060;}.cls-23{fill:#332f33;opacity:0.15;mix-blend-mode:multiply;}.cls-24{fill:#2b3f1f;}.cls-25{fill:#698a46;stroke:#698a46;}.cls-25,.cls-26{stroke-miterlimit:10;stroke-width:1.5px;}.cls-26{fill:#74b250;stroke:#74b250;}.cls-27{fill:#c1ea86;}</style></defs><g class="cls-1"><g id="Layer_1" data-name="Layer 1"><path class="cls-2" d="M180.18,44.06c0,19.72-40.34,35.71-90.09,35.71S0,63.78,0,44.06,40.33,8.35,90.09,8.35,180.18,24.33,180.18,44.06Z"/><ellipse class="cls-3" cx="90.09" cy="42.26" rx="90.09" ry="35.71"/><path class="cls-4" d="M151.53,38.58C151.53,52,124,62.94,90.09,62.94S28.65,52,28.65,38.58s27.5-24.35,61.44-24.35S151.53,25.13,151.53,38.58Z"/><path class="cls-3" d="M149.39,39c0,12.76-26.55,23.11-59.3,23.11S30.78,51.79,30.78,39,57.33,15.92,90.09,15.92,149.39,26.27,149.39,39Z"/><path class="cls-5" d="M104,14c4.1,0,33.6,3.64,47.2,9.73,4.37,2,2.14,10.48,1.35,12.06-2.27,4.55-59.06,23-58.72,25.35S95,70.32,86.22,74.38c-8.26,3.82-26.08,6-49-11C26.56,55.45,19.63,32.84,30.9,27.2c9.5-4.75,17.82,6.47,22.57,4.77S96.2,14,104,14Z"/><path class="cls-6" d="M87.37,66.68c-.91-.71-2.39-.3-3.13-1.24-.89-1.12,0-2.06-1.25-3-2.43-1.87-5.23-1.47-8-1.62A12.74,12.74,0,0,1,66,56.72a47.37,47.37,0,0,0-11.51-8.93c-2.8-1.51-5.73-2.81-8.66-4-2.16-.9-4.58-1.52-6.71-2.52-3.43-1.61-4.25-6.08-6.28-8.94-1.36-1.9-2.51-3.1-4-3.69C20.31,35.8,27,56.08,37,63.51c22.91,17,40.73,14.82,49,11a19.93,19.93,0,0,0,1.85-1c0-.12,0-.25,0-.38C87.67,71.4,88.91,67.89,87.37,66.68Z"/><path class="cls-7" d="M101.14,5.1C107.28,5.1,154.39,20,152,24.78c-2.27,4.55-61.38,25.09-61,27.47s4.41,7.8-4.4,11.87c-8.27,3.81-30.19,6.1-50.2-11.53-9.06-8-14.33-21.84-3-27.47,9.49-4.75,12.55-.34,17.29-2S93.34,5.1,101.14,5.1Z"/><path class="cls-8" d="M100.24,6.85c5.71,0,49.69,13.25,47.49,17.64C145.61,28.69,88,48.82,88.33,51s4.73,7.54-3.46,11.31C77.19,65.85,58.23,68,39.65,51.7c-8.42-7.38-15-20-4.53-25.25,8.82-4.39,13.35-.45,17.76-2S93,6.85,100.24,6.85Z"/><path class="cls-5" d="M127.07,38.53c-2.87,1-5.3,2.77-8.15,3.75-3.27,1.14-6.82,1.7-10,2.93-2.76,1.08-5.32,2.25-8.09,3.42-1.81.77-7,3.1-7.89,2.94l-.21.69c-.43.83.72,4,1.74,4.63,2,1.33,3-.25,4.47-1.52,3.68-3.21,7.69-4.57,12.48-6.33s9.62-3.8,14.46-5.24C130,42.58,133.47,36.35,127.07,38.53Z"/><path class="cls-9" d="M40.85,31.87a19.52,19.52,0,0,0,3.57-.48c.85-.17.49-1.46-.36-1.29a18.22,18.22,0,0,1-3.21.43.67.67,0,0,0,0,1.34Z"/><path class="cls-9" d="M38.82,37.3a12.84,12.84,0,0,0,.48,2.89.67.67,0,0,0,1.29-.35,11.54,11.54,0,0,1-.43-2.54.67.67,0,0,0-1.34,0Z"/><path class="cls-9" d="M41.8,47.22l4.07.68c.85.14,1.21-1.15.36-1.3l-4.07-.67c-.85-.15-1.21,1.15-.36,1.29Z"/><path class="cls-9" d="M54.64,49.73a.67.67,0,0,0,0-1.34.67.67,0,0,0,0,1.34Z"/><path class="cls-9" d="M54.64,49.73a12.69,12.69,0,0,0,2.89-.25c.85-.19.49-1.49-.35-1.29a11.37,11.37,0,0,1-2.54.2.67.67,0,0,0,0,1.34Z"/><path class="cls-9" d="M60.12,57.39a19.37,19.37,0,0,0,3.57.25.67.67,0,0,0,0-1.34,17.36,17.36,0,0,1-3.22-.2c-.84-.16-1.2,1.14-.35,1.29Z"/><path class="cls-9" d="M74.89,57.09a9.27,9.27,0,0,0,1.2-2,.67.67,0,0,0-.47-.83.68.68,0,0,0-.82.47,8,8,0,0,1-1.06,1.65c-.49.72.67,1.39,1.15.68Z"/><path class="cls-9" d="M65.27,45.89a11.74,11.74,0,0,0,4-.71c.8-.3.46-1.6-.35-1.29a10.48,10.48,0,0,1-3.67.65.68.68,0,0,0,0,1.35Z"/><path class="cls-9" d="M53.74,38.42a6.4,6.4,0,0,0,2-.25c.82-.26.47-1.55-.36-1.29a5.28,5.28,0,0,1-1.63.2.67.67,0,0,0,0,1.34Z"/><path class="cls-9" d="M54.42,28.7a.67.67,0,0,0,0-1.34.67.67,0,0,0,0,1.34Z"/><path class="cls-9" d="M54.64,28.7h3.85a.67.67,0,0,0,0-1.34H54.64a.67.67,0,0,0,0,1.34Z"/><path class="cls-9" d="M69.24,33.57l1.36-2c.48-.72-.68-1.39-1.16-.67l-1.36,2c-.48.72.68,1.4,1.16.68Z"/><path class="cls-9" d="M66.13,23.25c1.34-.43,2.73-.7,4.07-1.13.82-.26.47-1.56-.36-1.29-1.34.43-2.73.69-4.07,1.13-.82.26-.47,1.56.36,1.29Z"/><path class="cls-9" d="M80,22.4l1.13,1.13a.66.66,0,0,0,.94,0,.68.68,0,0,0,0-1l-1.13-1.13a.66.66,0,0,0-.94,0,.68.68,0,0,0,0,.95Z"/><path class="cls-9" d="M83.68,53.92a3.47,3.47,0,0,1,.59,1.92.67.67,0,0,0,1.34,0,4.73,4.73,0,0,0-.77-2.6c-.46-.72-1.63-.05-1.16.68Z"/><path class="cls-9" d="M99.3,37.88a11.74,11.74,0,0,1,2.78-.84c.85-.17.49-1.46-.36-1.29a13,13,0,0,0-3.1,1c-.78.38-.09,1.54.68,1.16Z"/><path class="cls-9" d="M98.46,30c1.2-.47,2.4-.94,3.62-1.35.82-.28.47-1.57-.36-1.3-1.22.42-2.42.88-3.61,1.36-.8.32-.45,1.62.35,1.29Z"/><path class="cls-9" d="M90.1,16.92a14.48,14.48,0,0,0,3.32-1.2c.78-.38.1-1.54-.68-1.16a13.24,13.24,0,0,1-3,1.07c-.85.18-.49,1.47.36,1.29Z"/><path class="cls-9" d="M96.88,10.81a6.42,6.42,0,0,1,3.26.68c.81.32,1.15-1,.36-1.29a7.33,7.33,0,0,0-4-.68c-.85.17-.49,1.46.36,1.29Z"/><path class="cls-9" d="M108.57,15a9.06,9.06,0,0,0,3.73,1,.67.67,0,0,0,0-1.34,7.58,7.58,0,0,1-3-.82c-.78-.37-1.46.78-.68,1.16Z"/><path class="cls-9" d="M100.54,21.24a.67.67,0,0,0,0-1.34.67.67,0,0,0,0,1.34Z"/><path class="cls-9" d="M100.88,21.15a13.46,13.46,0,0,1,2.56-.84.67.67,0,0,0-.36-1.29,13.86,13.86,0,0,0-2.87,1c-.78.37-.1,1.53.67,1.16Z"/><path class="cls-9" d="M113.16,30l3.62-.67c.85-.17.49-1.47-.36-1.3-1.2.24-2.41.44-3.62.68-.85.17-.49,1.46.36,1.29Z"/><path class="cls-9" d="M112.71,36.37a14.07,14.07,0,0,0,2.65-1c.77-.38.09-1.54-.68-1.16a11.38,11.38,0,0,1-2.33.84.67.67,0,0,0,.36,1.3Z"/><path class="cls-9" d="M118.31,23.17c.51-.77,1.07-1.5,1.58-2.26s-.68-1.39-1.16-.68-1.07,1.5-1.58,2.26.68,1.39,1.16.68Z"/><path class="cls-9" d="M128.54,26a23.71,23.71,0,0,1,5.24-.65.67.67,0,0,0,0-1.34,25.18,25.18,0,0,0-5.6.7c-.84.2-.49,1.5.36,1.29Z"/><path class="cls-10" d="M50.17,52.87a18.39,18.39,0,0,1,3.16.91c.81.31,1.16-1,.36-1.3a19.13,19.13,0,0,0-3.17-.9c-.84-.17-1.2,1.12-.35,1.29Z"/><path class="cls-10" d="M61.31,52.35a11.15,11.15,0,0,1,3.23-1.29c.85-.18.49-1.47-.35-1.29a12.17,12.17,0,0,0-3.56,1.42.67.67,0,0,0,.68,1.16Z"/><path class="cls-10" d="M59,41.85a9.16,9.16,0,0,1,3-2.39c.77-.39.09-1.55-.68-1.16A10.08,10.08,0,0,0,58,40.9c-.54.66.4,1.62,1,1Z"/><path class="cls-10" d="M45.48,40.82A9.32,9.32,0,0,0,48.13,42a.67.67,0,0,0,.36-1.3,8,8,0,0,1-2.33-1.06c-.72-.47-1.4.69-.68,1.16Z"/><path class="cls-10" d="M47.36,35.91a17.29,17.29,0,0,0,2-.74.68.68,0,0,0,.24-.92.69.69,0,0,0-.92-.24,15.48,15.48,0,0,1-1.65.61c-.81.27-.46,1.57.36,1.29Z"/><path class="cls-10" d="M63,28.9c1-.26,1.93-.68,2.94-.9.85-.18.49-1.48-.36-1.29-1,.21-1.94.64-2.94.9A.67.67,0,0,0,63,28.9Z"/><path class="cls-10" d="M74.43,42.86a5.22,5.22,0,0,0,3.91.74c.85-.15.49-1.44-.36-1.29a3.87,3.87,0,0,1-2.87-.61c-.71-.5-1.38.66-.68,1.16Z"/><path class="cls-10" d="M74.09,62.39a24.05,24.05,0,0,0,3.79-.25c.86-.13.49-1.42-.35-1.29a22,22,0,0,1-3.44.2.67.67,0,0,0,0,1.34Z"/><path class="cls-10" d="M80.77,51.43a5.43,5.43,0,0,1,1-1.22.67.67,0,0,0-1-1,6.88,6.88,0,0,0-1.24,1.5.67.67,0,0,0,.25.91.66.66,0,0,0,.91-.24Z"/><path class="cls-10" d="M89.46,44.53a.67.67,0,0,0,0-1.34.67.67,0,0,0,0,1.34Z"/><path class="cls-10" d="M89.64,44.51c1.51-.22,3-.47,4.53-.68.85-.13.48-1.42-.36-1.3l-4.52.68c-.86.12-.49,1.42.35,1.3Z"/><path class="cls-10" d="M90.82,32.77H92.4a.67.67,0,0,0,0-1.34H90.82a.67.67,0,0,0,0,1.34Z"/><path class="cls-10" d="M75.85,31.39a13,13,0,0,0,3.1-1c.78-.38.1-1.54-.68-1.16a11.6,11.6,0,0,1-2.78.84c-.84.17-.48,1.46.36,1.29Z"/><path class="cls-10" d="M87.77,23.63l2.71-1.35c.78-.39.1-1.55-.68-1.16l-2.71,1.36c-.77.38-.09,1.54.68,1.15Z"/><path class="cls-10" d="M77.82,18.43a19.6,19.6,0,0,1,2.71-1.8c.77-.4.09-1.56-.67-1.16a18.36,18.36,0,0,0-2.72,1.81c-.68.51,0,1.67.68,1.15Z"/><path class="cls-10" d="M86,14.82a4.34,4.34,0,0,0,1.92.31.67.67,0,0,0,0-1.34,3,3,0,0,1-1.24-.13A.67.67,0,0,0,86,14.82Z"/><path class="cls-10" d="M91.5,11.74a4.43,4.43,0,0,1,1.4.2c.83.27,1.18-1,.36-1.29a5.81,5.81,0,0,0-1.76-.25.67.67,0,0,0,0,1.34Z"/><path class="cls-10" d="M100.54,16.49c.54,0,1,.21,1.59.23a.68.68,0,0,0,0-1.35c-.54,0-1-.21-1.59-.22a.67.67,0,0,0,0,1.34Z"/><path class="cls-10" d="M97.61,25.08a8.27,8.27,0,0,0,2.43-.25c.83-.25.48-1.55-.35-1.29a6.94,6.94,0,0,1-2.08.2.67.67,0,0,0,0,1.34Z"/><path class="cls-10" d="M108.23,25.31a.67.67,0,0,0,0-1.34.67.67,0,0,0,0,1.34Z"/><path class="cls-10" d="M108.57,25.22a7.26,7.26,0,0,1,2.1-1.29.67.67,0,0,0-.35-1.3,8.5,8.5,0,0,0-2.43,1.43c-.71.48,0,1.65.68,1.16Z"/><path class="cls-10" d="M105.63,33.36l2.72-2c.68-.51,0-1.68-.68-1.16l-2.72,2c-.68.51,0,1.68.68,1.16Z"/><path class="cls-10" d="M105,40.14a8,8,0,0,1,1.65-.84c.82-.27.47-1.57-.35-1.29a8.4,8.4,0,0,0-2,1c-.72.48,0,1.64.67,1.16Z"/><path class="cls-10" d="M121.35,31a30.93,30.93,0,0,0,4.7-.47c.85-.14.49-1.44-.36-1.3a27.51,27.51,0,0,1-4.34.43.67.67,0,0,0,0,1.34Z"/><path class="cls-10" d="M133.33,28.25a.67.67,0,0,0,0-1.34.67.67,0,0,0,0,1.34Z"/><path class="cls-10" d="M133.81,28.05a8.42,8.42,0,0,1,2.12-1.48c.77-.39.09-1.54-.68-1.15a9.47,9.47,0,0,0-2.39,1.68c-.62.61.33,1.56.95.95Z"/><path class="cls-10" d="M123.27,22.73a5.76,5.76,0,0,0,1.49-1c.62-.6-.33-1.55-1-.95a4.52,4.52,0,0,1-1.22.8.67.67,0,1,0,.68,1.16Z"/><path class="cls-10" d="M134.35,21.37a13.73,13.73,0,0,0,2.65,1.2.67.67,0,0,0,.35-1.29A13.13,13.13,0,0,1,135,20.22c-.77-.4-1.45.76-.68,1.15Z"/><path class="cls-10" d="M115.69,14.91a11,11,0,0,1,2.54.43.67.67,0,0,0,.36-1.3,12.45,12.45,0,0,0-2.9-.47.67.67,0,0,0,0,1.34Z"/><path class="cls-10" d="M114.45,19.11l1.36-.68a.67.67,0,1,0-.68-1.15l-1.36.67a.69.69,0,0,0-.24.92.68.68,0,0,0,.92.24Z"/><path class="cls-10" d="M104,10.36a19.64,19.64,0,0,0,3.57.48.67.67,0,0,0,0-1.34,18.34,18.34,0,0,1-3.21-.43c-.84-.17-1.2,1.12-.36,1.29Z"/><path class="cls-11" d="M121.57,15.37c-3.71-1.32-7.34-2.19-11.08-3.67-4-1.6-6.85-3.06-11.3-2.89-3.28.13-7.47.88-10.35,2.54-3.59,2.08-6.7,4.83-10.68,6.22-3.48,1.21-7.6,1.59-10.63,3.9l-2,.23C65.4,24.65,51.39,22.88,54,30c1.33,3.64,8.62,2.66,11.53,2.27a32.25,32.25,0,0,0,13.07-4.2,39.59,39.59,0,0,1,26.05-5.72c7.3,1.06,17.29,7.17,23,0C131,18.06,125,16.58,121.57,15.37Z"/><path class="cls-12" d="M114.21,50.92c1.37.28-.93,1.45-.79.39.39-2.79,1.54-3.83.78-6.45a30.54,30.54,0,0,1-.85-5.54c-.13-1.48.06-3,0-4.43,0-.74-.36-2-1.52-1.85a3.81,3.81,0,0,0-1.43.83c-1.32.23-2.65.33-4,.49a40,40,0,0,0-5.23,1.18c-3,.76-6.34,1.5-9.4.92-4.85-.93-8.38-6.24-13.92-4.72A40.33,40.33,0,0,0,74,33.23a30.16,30.16,0,0,1-5.13,1.58c-3.25.63-6.77-1.11-9.68-2a12.68,12.68,0,0,0-4.08-.66,9.71,9.71,0,0,0-4.24,1.24c-1.24.65-2.37,1.41-3.66,2a13.34,13.34,0,0,1-5.21.94c-3.59,0-6.91-1.44-10.38-2-3.08-.49-6.69-.47-9.48,1a12,12,0,0,0-1.36.54c-.6.27-.34,1.65-.3,2.07.13,1.22.56,2.4.74,3.61.34,2.3.38,4.68.57,7,.13,1.52.31,3,.49,4.55a10.67,10.67,0,0,0,.67,3.34,2.35,2.35,0,0,0,2.4,1.43c.92-.05,1.66-1,2.39-1.37a4.53,4.53,0,0,1,2.17-.15,8.15,8.15,0,0,0,2.36-.22l0,0a13.71,13.71,0,0,0,2.65.07c3.23-.27,6.26-1.77,9.34-2.6a16.18,16.18,0,0,1,5-.59,18.45,18.45,0,0,1,5.13,1.26,28.86,28.86,0,0,0,9.46,2.07,19.84,19.84,0,0,0,8.38-2.09c1.3-.58,2.59-1.17,4-1.64a9.19,9.19,0,0,1,5.42,0c3,.78,5.77,2.05,8.86,2.67a36.92,36.92,0,0,0,9.52.42,57,57,0,0,0,6.39-.86l1.86-.35c.83,0,1.92-1.35,2.75-1.36C112,53.13,113.27,50.73,114.21,50.92Z"/><path class="cls-13" d="M119.18,53.64c1.49.37,2.35-.78,2.48-2.14.35-3.54-1-7.2-1.89-10.55a45.65,45.65,0,0,1-1.06-7.08c-.18-1.89,0-3.77-.15-5.64-.07-.95-.43-2.55-1.68-2.38-.56.07-1.11.69-1.53,1-1.42.28-2.86.4-4.29.58a36.29,36.29,0,0,0-5.63,1.43c-3.2.93-6.82,1.83-10.14,1-5.27-1.24-9.21-8.06-15.17-6.19A38.48,38.48,0,0,0,76,25.59a28.67,28.67,0,0,1-5.51,1.95C67,28.3,63.1,26,59.94,24.84A11.87,11.87,0,0,0,55.51,24,9.08,9.08,0,0,0,51,25.47c-1.32.81-2.52,1.76-3.9,2.46a12.23,12.23,0,0,1-5.62,1.13c-3.89-.06-7.51-1.92-11.27-2.68-3.35-.68-7.24-.69-10.23,1.16a12.7,12.7,0,0,0-1.46.67c-.64.34-.33,2.1-.27,2.64.17,1.55.66,3.06.88,4.61.42,2.94.53,6,.79,8.93.17,1.94.4,3.87.63,5.8a16.71,16.71,0,0,0,.81,4.27,2.61,2.61,0,0,0,2.63,1.86c1-.06,1.77-1.24,2.55-1.72a4,4,0,0,1,2.34-.15,7.59,7.59,0,0,0,2.55-.26l0,0a13,13,0,0,0,2.87.12c3.49-.3,6.73-2.18,10-3.19a15,15,0,0,1,5.4-.68,17.6,17.6,0,0,1,5.56,1.67c3.36,1.43,6.59,2.66,10.28,2.76,3.28.1,6.17-1.07,9-2.55a45.55,45.55,0,0,1,4.23-2,8.53,8.53,0,0,1,5.87.13c3.27,1,6.29,2.69,9.64,3.52a34,34,0,0,0,10.31.66,53.32,53.32,0,0,0,6.88-1l2-.42c.9,0,1.79,0,2.69,0A11.43,11.43,0,0,1,119.18,53.64Z"/><path class="cls-14" d="M97.33,52.79a33.77,33.77,0,0,1-10-3c-2.88-1.2-6.27-2.33-9.34-1.12s-5.85,3.16-9,4.13c-3.55,1.09-7.58.4-10.95-1s-6.45-3.08-10.16-3c-3.45,0-6.6,1.5-9.72,2.78a13.7,13.7,0,0,1-7.41,1.29,13.39,13.39,0,0,0-4.19-.34A3.75,3.75,0,0,0,24,53.72a3.37,3.37,0,0,1-1,.75,5.49,5.49,0,0,1-.37-.77c-1.22-3-1.36-6.42-1.55-9.63-.16-2.61-.06-5.21-.17-7.81a15.4,15.4,0,0,0-.44-2.69A22.07,22.07,0,0,1,20,29.62l.16-.13a13.82,13.82,0,0,1,2-1.43,7.26,7.26,0,0,1,1.63-.67,17.76,17.76,0,0,1,6.69.12c3.31.63,6.39,2.09,9.73,2.58a14.16,14.16,0,0,0,9.12-1.76,32.29,32.29,0,0,1,4.08-2.23,8.59,8.59,0,0,1,5.77,0c3.21.94,6.16,2.57,9.58,2.59,3.14,0,6.49-1.63,9.28-2.95,1.64-.78,3.27-1.51,5.12-1.11a11.62,11.62,0,0,1,4.31,2.34c2.32,1.75,4.41,3.65,7.23,4.59,3.31,1.12,7.19.48,10.46-.46,2-.56,3.82-1.48,5.8-2,.64-.17,1.27-.35,1.9-.54,1-.24,1.95-.37,2.91-.67.44-.14.79-.56,1.23-.75a9.42,9.42,0,0,1-.24,1.92,24.26,24.26,0,0,0,.1,5.11,50.24,50.24,0,0,0,1.88,9.5,22.17,22.17,0,0,1,1,7c0,.47-.19,1.44-.87,1.28a5.78,5.78,0,0,0-1.7-.25,13.23,13.23,0,0,0-1.53.16,50.69,50.69,0,0,0-7.07.7A49.64,49.64,0,0,1,97.33,52.79Z"/><path class="cls-15" d="M118.86,51.88c.68.16.85-.81.87-1.28a22.17,22.17,0,0,0-1-7c-.13-.45-.26-.91-.38-1.36-1.1.17-2.19.4-3.28.67a60.94,60.94,0,0,1-9.8,2,28.46,28.46,0,0,1-9.58-1.08c-1.47-.41-2.91-.89-4.33-1.41a33.27,33.27,0,0,0-5-1.74c-3.07-.58-5.83.58-8.72,1.44a17.36,17.36,0,0,1-4.15.83,5.27,5.27,0,0,1-2.3-.27c-2.9-1.26.27-5.09,1.54-6.32,2.36-2.31,6.12-4.79,9.58-3.73,2.76.85,4.67,3.15,7.12,4.54a12.27,12.27,0,0,0,4.89,1.41,29.66,29.66,0,0,0,5.73.08c5.81-.54,11.21-2.87,16.84-4.21,0-.13,0-.26,0-.39a24.26,24.26,0,0,1-.1-5.11,9.42,9.42,0,0,0,.24-1.92c-.44.19-.79.61-1.23.75-1,.3-1.94.43-2.91.67-.63.19-1.26.37-1.9.54-2,.54-3.82,1.46-5.8,2-3.27.94-7.15,1.58-10.46.46-2.82-.94-4.91-2.84-7.23-4.59a11.62,11.62,0,0,0-4.31-2.34c-1.85-.4-3.48.33-5.12,1.11-2.79,1.32-6.14,3-9.28,2.95-3.42,0-6.37-1.65-9.58-2.59a8.59,8.59,0,0,0-5.77,0,32.29,32.29,0,0,0-4.08,2.23,14.16,14.16,0,0,1-9.12,1.76c-3.34-.49-6.42-1.95-9.73-2.58a17.76,17.76,0,0,0-6.69-.12,7.26,7.26,0,0,0-1.63.67,13.82,13.82,0,0,0-2,1.43l-.16.13a21.79,21.79,0,0,0,.44,3.77,42,42,0,0,1,4.88-.16,9.39,9.39,0,0,1,2.53.32,24.08,24.08,0,0,1,3.68,1.71c2.22,1.16,4.73,2.4,7.32,2.24a23.37,23.37,0,0,0,4.29-.82c3.17-.8,7-3.92,10.13-4.81s8.4.41,11.33,2.17c1.15.68,2.27,2.09,1.15,3.23s-3.63.52-5,.42c-5.9-.42-11,3.85-16.84,4a35.26,35.26,0,0,1-8.73-1.13,36.38,36.38,0,0,0-8.78-1.28A14.11,14.11,0,0,0,21,40.54c0,.53,0,1.06,0,1.59.53,0,1.07,0,1.6,0,1.86.13,3.74.39,5.58.69a51.23,51.23,0,0,1,6,1.07c.7.21,2.81.77,2.2,1.92A3,3,0,0,1,34.86,47a6.14,6.14,0,0,1-2.52.23,39.3,39.3,0,0,1-6.68-1.49,23.37,23.37,0,0,0-3.12-.66,6.36,6.36,0,0,0-1.38-.06,27.83,27.83,0,0,0,1.5,8.65,5.49,5.49,0,0,0,.37.77,3.37,3.37,0,0,0,1-.75,3.75,3.75,0,0,1,2.58-1.18,13.39,13.39,0,0,1,4.19.34,13.7,13.7,0,0,0,7.41-1.29c3.12-1.28,6.27-2.76,9.72-2.78,3.71,0,6.82,1.69,10.16,3s7.4,2.07,10.95,1c3.17-1,5.94-2.91,9-4.13s6.46-.08,9.34,1.12a33.77,33.77,0,0,0,10,3,49.64,49.64,0,0,0,11.23-.3,50.69,50.69,0,0,1,7.07-.7,13.23,13.23,0,0,1,1.53-.16A5.78,5.78,0,0,1,118.86,51.88ZM60.52,46a15.36,15.36,0,0,1-4-.55A4.37,4.37,0,0,1,54.07,44a1.94,1.94,0,0,1,.27-2.29c1-1.37,2.87-1.64,4.49-1.74a15.31,15.31,0,0,1,6.3.77A4,4,0,0,1,67,42.19a2,2,0,0,1,.54,1.25,1.75,1.75,0,0,1-1,1.43A11.62,11.62,0,0,1,60.52,46Z"/><path class="cls-16" d="M20.39,31.12a17,17,0,0,1,1.86-.5,19.93,19.93,0,0,1,8.56.06,16.78,16.78,0,0,1,4,1.41c1.26.67,2.3,1.83,3.73,2.15,3.15.71,6.45-.33,9.3-1.68,2.65-1.25,5.34-2.9,8.38-2.82s5.45,1.39,8.13,2.38a10.46,10.46,0,0,0,4.3.8,14.21,14.21,0,0,0,4.81-1.38c2.83-1.27,5.73-2.8,8.92-1.95,2.84.75,5,2.87,7.5,4.23,3.33,1.78,7,1.67,10.7,1.49a65.16,65.16,0,0,0,16.15-3,19.84,19.84,0,0,1,0-3.27,9.42,9.42,0,0,0,.24-1.92c-.44.19-.79.61-1.23.75-1,.3-1.94.43-2.91.67-.63.19-1.26.37-1.9.54-2,.54-3.82,1.46-5.8,2-3.27.94-7.15,1.58-10.46.46-2.82-.94-4.91-2.84-7.23-4.59a11.62,11.62,0,0,0-4.31-2.34c-1.85-.4-3.48.33-5.12,1.11-2.79,1.32-6.14,3-9.28,2.95-3.42,0-6.37-1.65-9.58-2.59a8.59,8.59,0,0,0-5.77,0,32.29,32.29,0,0,0-4.08,2.23,14.16,14.16,0,0,1-9.12,1.76c-3.34-.49-6.42-1.95-9.73-2.58a17.76,17.76,0,0,0-6.69-.12,7.26,7.26,0,0,0-1.63.67,13.82,13.82,0,0,0-2,1.43l-.16.13c0,.54,0,1.06.11,1.58Z"/><path class="cls-17" d="M23.13,29a19.63,19.63,0,0,1,8.38.56,35.51,35.51,0,0,1,4.15,1.4,17.27,17.27,0,0,0,4.73,1.5c3.24.36,6.27-.8,9.11-2.25s5.55-3.37,8.81-3.22c2.92.14,5.68,1.56,8.49,2.28,3.11.79,6-.1,8.87-1.24,2.46-1,5.23-2.11,7.94-1.59,2.37.45,4.25,2.1,6.06,3.59,2.15,1.76,4.36,3.4,7.24,3.57a24,24,0,0,0,5.47-.44l5.22-.92a45.57,45.57,0,0,0,9.1-2.27c0-.31,0-.61.07-.92a9.42,9.42,0,0,0,.24-1.92c-.44.19-.79.61-1.23.75-1,.3-1.94.43-2.91.67-.63.19-1.26.37-1.9.54-2,.54-3.82,1.46-5.8,2-3.27.94-7.15,1.58-10.46.46-2.82-.94-4.91-2.84-7.23-4.59a11.62,11.62,0,0,0-4.31-2.34c-1.85-.4-3.48.33-5.12,1.11-2.79,1.32-6.14,3-9.28,2.95-3.42,0-6.37-1.65-9.58-2.59a8.59,8.59,0,0,0-5.77,0,32.29,32.29,0,0,0-4.08,2.23,14.16,14.16,0,0,1-9.12,1.76c-3.34-.49-6.42-1.95-9.73-2.58a17.76,17.76,0,0,0-6.69-.12,7.26,7.26,0,0,0-1.63.67,13.82,13.82,0,0,0-2,1.43l-.16.13c0,.09,0,.18,0,.28A12.59,12.59,0,0,1,23.13,29Z"/><path class="cls-16" d="M118.86,51.88c.68.16.85-.81.87-1.28a18.84,18.84,0,0,0-.3-4.05,29.88,29.88,0,0,1-5.22,1,62.25,62.25,0,0,1-11.9.13A41.22,41.22,0,0,1,93.45,46c-3.21-1-6.54-2.28-9.92-2.41-5.88-.23-10.35,4-15.83,5.27a14.08,14.08,0,0,1-8.17-.54c-2.82-1-5.42-2.59-8.26-3.54a12.38,12.38,0,0,0-4.53-.81,8.92,8.92,0,0,0-3.8,1.2c-2.2,1.23-4.16,3-6.59,3.74a11.21,11.21,0,0,1-5.52.07c-2.11-.38-4.2-.86-6.32-1.16a25.36,25.36,0,0,0-3.17-.29,21.85,21.85,0,0,0,1.32,6.22,5.49,5.49,0,0,0,.37.77,3.37,3.37,0,0,0,1-.75,3.75,3.75,0,0,1,2.58-1.18,13.39,13.39,0,0,1,4.19.34,13.7,13.7,0,0,0,7.41-1.29c3.12-1.28,6.27-2.76,9.72-2.78,3.71,0,6.82,1.69,10.16,3s7.4,2.07,10.95,1c3.17-1,5.94-2.91,9-4.13s6.46-.08,9.34,1.12a33.77,33.77,0,0,0,10,3,49.64,49.64,0,0,0,11.23-.3,50.69,50.69,0,0,1,7.07-.7,13.23,13.23,0,0,1,1.53-.16A5.78,5.78,0,0,1,118.86,51.88Z"/><path class="cls-17" d="M118.86,51.88c.68.16.85-.81.87-1.28s0-.89,0-1.36a45.59,45.59,0,0,1-5.33.64c-3.31.24-6.64.44-10,.66-3.15.19-6.43.35-9.5-.56-2.78-.81-5.33-2.21-8-3.21a13.34,13.34,0,0,0-9-.48c-2.84.93-5.37,2.54-8.11,3.7a12.53,12.53,0,0,1-8.43.86c-3.24-.93-6.07-2.9-9.26-4a10.34,10.34,0,0,0-5.25-.57,14.17,14.17,0,0,0-4.39,1.86c-2.79,1.63-5.6,3.53-8.94,3.64a26.49,26.49,0,0,1-5.73-.88,26.34,26.34,0,0,0-6.1-.56,17.22,17.22,0,0,0,.93,3.32,5.49,5.49,0,0,0,.37.77,3.37,3.37,0,0,0,1-.75,3.75,3.75,0,0,1,2.58-1.18,13.39,13.39,0,0,1,4.19.34,13.7,13.7,0,0,0,7.41-1.29c3.12-1.28,6.27-2.76,9.72-2.78,3.71,0,6.82,1.69,10.16,3s7.4,2.07,10.95,1c3.17-1,5.94-2.91,9-4.13s6.46-.08,9.34,1.12a33.77,33.77,0,0,0,10,3,49.64,49.64,0,0,0,11.23-.3,50.69,50.69,0,0,1,7.07-.7,13.23,13.23,0,0,1,1.53-.16A5.78,5.78,0,0,1,118.86,51.88Z"/><path class="cls-18" d="M96.21,35.43a43.2,43.2,0,0,1-7.39-3.77c-2.21-1.3-4.67-2.77-7.21-3.25-2.37-.44-4.36.6-6.4,1.62A20.49,20.49,0,0,1,72,31.39a35.53,35.53,0,0,1-3.54.52c-.82.16-.24,1.2.23,1.41,2.08,1,4.3.27,6.36-.44A16.65,16.65,0,0,1,82,31.75,10.09,10.09,0,0,1,85.21,33c1.2.57,2.37,1.15,3.59,1.67a19,19,0,0,0,7.54,1.6C96.93,36.21,96.55,35.55,96.21,35.43Z"/><path class="cls-18" d="M61,32.86c.51-.53-.11-1.45-.54-1.79a4.67,4.67,0,0,0-1.39-.74,2.72,2.72,0,0,0-1-.24,6.53,6.53,0,0,0-.9-.09c-1-.06-1.26.78-.86,1.58a3.17,3.17,0,0,0,2,1.69,1.84,1.84,0,0,0,.4.06A2.17,2.17,0,0,0,61,32.86Z"/><path class="cls-19" d="M90.89,4.08s-7.32,11.84-25.78,17.8S37.93,25.77,36.56,38,49,49.6,56.38,47.62s31.6-8.4,47-25.46c0,0,8.65-8.5-.07-17.5C103.27,4.66,95.75-1.56,90.89,4.08Z"/><g class="cls-20"><path class="cls-21" d="M63.07,45.72s0-.07,0-.18,0,0,0-.2c-.07-.41-.17-1-.31-1.68-.08-.34-.15-.71-.25-1.1s-.2-.8-.33-1.22-.25-.85-.39-1.28-.31-.88-.47-1.31-.35-.86-.53-1.28-.38-.82-.59-1.21-.41-.75-.63-1.08-.42-.65-.62-.93l-.59-.73a5.43,5.43,0,0,0-.49-.53l-.44-.45s.14.18.37.51a6.54,6.54,0,0,1,.4.59l.45.8c.16.3.3.64.46,1s.29.74.44,1.13.25.81.39,1.23.21.86.31,1.29.19.87.25,1.31.14.85.19,1.27.09.81.12,1.19.05.74.08,1.07c0,.67,0,1.22,0,1.6v.43c0,.1,0,.45,0,.45Z"/><path class="cls-21" d="M71.72,42.71s0-.06,0-.18,0,.1,0-.11c-.06-.42-.17-1-.34-1.69-.08-.35-.19-.71-.31-1.1s-.25-.79-.4-1.2-.31-.83-.51-1.24l-.29-.63c-.1-.21-.21-.41-.32-.62-.2-.41-.45-.81-.68-1.2s-.5-.75-.74-1.1-.52-.67-.76-1c-.13-.15-.24-.3-.37-.44s-.25-.26-.36-.39-.45-.48-.65-.66l-.53-.48L65,30.28l.4.48.45.54c.17.22.33.48.52.75l.3.43c.1.15.19.32.28.48a11.51,11.51,0,0,1,.58,1c.18.37.39.75.54,1.15s.33.81.47,1.23c.07.21.14.41.2.62l.18.62c.12.41.2.83.29,1.23s.15.78.2,1.15.09.72.12,1c.06.64.07,1.17.07,1.54,0,.18,0,.32,0,.4s0,.55,0,.55Z"/><path class="cls-21" d="M81,38.61l0-.18a.93.93,0,0,0,0-.13c-.12-.37-.29-.9-.53-1.52-.11-.31-.25-.65-.39-1s-.32-.71-.48-1.08-.37-.76-.57-1.14-.41-.76-.64-1.14-.44-.74-.69-1.1c-.11-.18-.23-.35-.35-.53l-.37-.5-.35-.48-.37-.44a9.25,9.25,0,0,0-.68-.79l-.6-.65c-.2-.17-.36-.33-.5-.46l-.43-.4.36.47.41.53.48.72c.18.26.36.56.54.87l.28.49.26.51.27.54c.09.18.17.37.26.56.17.37.33.76.48,1.15s.28.79.42,1.18.24.77.35,1.15.21.73.29,1.08.15.68.21,1c.13.61.2,1.12.25,1.47,0,.17,0,.31,0,.39s0,.47,0,.47Z"/><path class="cls-21" d="M90.94,32.81l-.07-.16-.06-.13c-.17-.34-.41-.82-.74-1.37s-.74-1.17-1.21-1.82c-.24-.31-.48-.64-.75-.95l-.4-.48-.43-.46a12.34,12.34,0,0,0-.88-.89c-.29-.29-.61-.54-.9-.8s-.6-.47-.89-.69l-.41-.31-.41-.26L83.08,24l-.57-.31L82,23.46l.44.35.5.4c.19.16.39.36.62.56l.34.32c.12.11.23.24.35.36s.5.51.73.81a10.91,10.91,0,0,1,.72.9c.23.31.47.63.68,1l.33.5c.09.17.19.34.29.51.2.33.37.67.54,1A18.93,18.93,0,0,1,88.37,32c.21.55.35,1,.44,1.33,0,.16.08.28.1.35s.08.44.08.44Z"/><path class="cls-21" d="M98.47,27l-.09-.11-.15-.18c-.21-.26-.52-.62-.91-1s-.85-.88-1.36-1.37-1.07-1-1.65-1.45-1.17-.92-1.73-1.32c-.28-.2-.57-.38-.83-.56L91,20.5c-.47-.29-.88-.51-1.16-.65l-.44-.24.39.32c.25.19.6.48,1,.85.21.18.42.38.64.6s.47.44.7.69c.47.49.95,1,1.4,1.58s.9,1.12,1.29,1.66.73,1.06,1,1.51.5.83.65,1.1l.16.3c0,.07.12.25.12.25Z"/></g><path class="cls-22" d="M88.76,10.09S77.94,22.38,53.39,26.3c0,0-13,2.11-11.79,5.71s27.59-4.62,36.2-8.74S97.05,2.5,88.76,10.09Z"/><path class="cls-23" d="M36.64,41.54c1.48,8.53,13.14,7.85,19.76,6.08,7.44-2,31.61-8.4,47-25.46a14.69,14.69,0,0,0,3.28-5.53v0a11.8,11.8,0,0,0,.37-1.53.69.69,0,0,1,0-.13.77.77,0,0,1,0-.15c0-.36.07-.67.09-.88a.37.37,0,0,1,0-.11v-.09a.62.62,0,0,0,0-.09,11.6,11.6,0,0,0-3.05-8,11.8,11.8,0,0,1,.5,2.22,15.24,15.24,0,0,1-2.2,10c-7.34,4.09-21.19,8.2-27.86,8.63-9,.57-14.34,7.6-14.34,12.64,0,4.83-3.49,5.56-3.77,5.62h0a55.58,55.58,0,0,1-13.88,0A9.86,9.86,0,0,1,36.64,41.54Z"/><path class="cls-19" d="M117.75,6.17S110.43,18,92,24,64.79,27.87,63.42,40.09,75.81,51.7,83.24,49.71s31.61-8.39,47-25.45c0,0,8.64-8.5-.08-17.51C130.13,6.75,122.62.53,117.75,6.17Z"/><g class="cls-20"><path class="cls-21" d="M89.93,47.81s0-.07,0-.18a1.88,1.88,0,0,0,0-.2c-.06-.41-.17-1-.31-1.67-.08-.35-.15-.72-.25-1.11s-.2-.8-.32-1.22-.26-.85-.4-1.28-.31-.87-.46-1.31-.35-.86-.54-1.28-.38-.82-.59-1.2-.4-.76-.63-1.09-.41-.65-.62-.92l-.58-.74a6.72,6.72,0,0,0-.5-.53l-.43-.45.36.51a5.94,5.94,0,0,1,.4.59l.45.8c.16.3.3.64.47,1s.28.74.43,1.13.26.82.39,1.23.22.86.32,1.29.18.87.25,1.31.13.85.18,1.27.09.81.12,1.19.06.74.08,1.07c0,.67,0,1.22,0,1.6V48c0,.1,0,.45,0,.45Z"/><path class="cls-21" d="M98.58,44.8s0-.06,0-.17,0,.09,0-.12c-.06-.42-.17-1-.34-1.69-.08-.34-.19-.71-.3-1.1s-.26-.78-.41-1.19-.31-.84-.51-1.25c-.09-.21-.19-.42-.29-.63s-.21-.41-.32-.62a12.63,12.63,0,0,0-.68-1.19c-.22-.4-.5-.75-.74-1.11s-.51-.67-.76-1l-.36-.44-.37-.38c-.24-.25-.44-.48-.65-.67l-.53-.48-.46-.41.39.48.45.55c.17.21.33.47.53.74l.29.43c.1.15.19.32.29.48.19.33.4.67.58,1.05a12.35,12.35,0,0,1,.53,1.16,12.81,12.81,0,0,1,.47,1.22l.21.62c0,.21.11.42.17.63.13.4.2.82.29,1.22s.15.78.2,1.15.1.72.12,1c.06.64.07,1.17.07,1.54,0,.18,0,.32,0,.4s0,.56,0,.56Z"/><path class="cls-21" d="M107.84,40.7l0-.17a.63.63,0,0,0,0-.14c-.11-.37-.29-.9-.52-1.52-.12-.31-.25-.64-.4-1s-.32-.71-.48-1.09-.36-.75-.57-1.13-.4-.77-.63-1.14-.45-.75-.69-1.11l-.36-.53-.36-.5-.36-.48-.36-.44c-.24-.29-.46-.56-.69-.79l-.6-.64-.5-.47-.43-.4.36.47.41.53c.15.21.31.46.49.72s.35.56.53.88c.09.15.19.31.28.48l.27.52.27.53c.08.19.16.37.25.56.17.37.33.76.48,1.16s.29.78.42,1.17.24.78.36,1.15.2.74.28,1.09.16.67.21,1c.13.61.21,1.12.25,1.47,0,.18,0,.31,0,.39s0,.47,0,.47Z"/><path class="cls-21" d="M117.8,34.9l-.07-.16c0-.11,0,0-.06-.12-.17-.35-.41-.83-.74-1.38s-.74-1.17-1.2-1.81c-.25-.32-.48-.65-.76-1l-.4-.48-.43-.46c-.28-.31-.58-.6-.88-.89s-.61-.54-.9-.8-.6-.47-.88-.69l-.42-.3-.4-.27c-.27-.16-.5-.32-.72-.44l-.56-.31-.5-.27.44.35.51.39c.19.16.39.36.61.56l.35.32.35.36c.23.26.49.51.72.81s.5.58.72.9.48.63.69,1l.32.5c.1.17.2.34.29.51.21.33.37.68.55,1,.32.66.6,1.29.8,1.84s.35,1,.45,1.32l.09.35c0,.09.08.44.08.44Z"/><path class="cls-21" d="M125.33,29.09l-.09-.11a1.36,1.36,0,0,0-.14-.19c-.22-.26-.53-.62-.92-1s-.85-.88-1.36-1.37-1.06-1-1.64-1.45S120,24,119.44,23.62c-.28-.2-.57-.38-.83-.56l-.76-.47c-.47-.29-.87-.5-1.16-.65l-.44-.24.39.32c.25.2.6.48,1,.85.21.18.43.38.65.6s.46.44.69.69c.47.49,1,1,1.41,1.58s.89,1.12,1.28,1.66.74,1.06,1,1.51.5.83.64,1.1l.17.3.11.25Z"/></g><path class="cls-22" d="M115.62,12.18S104.8,24.47,80.25,28.39c0,0-13,2.11-11.79,5.71s27.59-4.62,36.21-8.73S123.91,4.6,115.62,12.18Z"/><path class="cls-23" d="M69.4,46.78a57,57,0,0,0,34-6.41,61.47,61.47,0,0,0,13-8.76c2.51-2.29,5.59-3.83,8.11-6.1,4.49-4,7.77-9.32,6.94-15.61a11.52,11.52,0,0,0-.5-2.21c7.29,8.64-.76,16.57-.76,16.57-15.36,17.06-39.53,23.47-47,25.45C76.62,51.48,65,52.16,63.48,43.63A9.93,9.93,0,0,0,69.4,46.78Z"/><path class="cls-24" d="M125.35,35.44c-.79,2.12-1.65,4.08-2.36,6.2-.82,2.45-2.27,3.78-5,5.06-1.21.58-2.38,1.21-3.6,1.83-.7.35-3.37,1-3.52,1.79a.44.44,0,0,0-.18.21c1.49.33,4.5-1.3,5.94-1.93l4.41-2.11c5.57-2.72,11.56,2.81,16.49,3.9,1.43.32,4.11,1,1.42-1.16a17.42,17.42,0,0,0-3.41-1.46c-1.56-.7-8.69-1.81-7.91-3.49.36-.78,3.67-1,4.66-.88a9,9,0,0,1,4.58,1.91c2.08,1.6,3.6,3,6.12,4,.93.36,3.9.45,4.29-.13.25-.38-2.67-2.13-3.47-2.61-2.17-1.31-4.77-2-7.09-3.18-.88-.43-6-1.69-1.83-2.45a14,14,0,0,1,3.17-.58c4.81.47,13.36,8.31,14.11,6.88,1.07-2.06-11.27-7.69-11.4-8.14-.38-1.35,2.8-.81,3.6-.69a36.38,36.38,0,0,0,5.64.28c2.42,0,5.25-.32,7.26-1.69,4.17-2.86-1.41-3.39-4.19-2.7C150.94,34.8,142.2,37.7,140,37c-.73-.23.1-1.28,1-2.38.41-.49,7.49-7.82,5.61-7.75-3.69.73-6.95,8.92-10.28,11.3-.66.48-4.57,2.56-5.19,1.56-.52-.83,2.18-3.19,2.7-3.81,1-1.17,3.79-5.46,3.82-6.41.06-2.49-4.74,3.39-5.21,4.25a38.1,38.1,0,0,1-4.14,6.52c-.37.43-1.9,2.56-2.76,1.84s.15-3,.54-3.5c.93-1.27,2.27-4.83,2.08-6.63C128,29.64,125.72,34.45,125.35,35.44Z"/><path class="cls-25" d="M125.35,34.14c-.79,2.12-1.65,4.08-2.36,6.2-.82,2.45-2.27,3.77-5,5.06-1.21.58-2.38,1.2-3.6,1.82-.7.36-3.37,1.05-3.52,1.8a.37.37,0,0,0-.18.21c1.49.33,4.5-1.31,5.94-1.93l4.41-2.11c5.57-2.72,11.56,2.8,16.49,3.9,1.43.32,4.11,1,1.42-1.16a18.07,18.07,0,0,0-3.41-1.47c-1.56-.7-8.69-1.8-7.91-3.48.36-.78,3.67-1,4.66-.88A8.92,8.92,0,0,1,136.88,44c2.08,1.6,3.6,3,6.12,4,.93.36,3.9.45,4.29-.14.25-.37-2.67-2.12-3.47-2.6-2.17-1.31-4.77-2-7.09-3.18-.88-.44-6-1.69-1.83-2.45a14,14,0,0,1,3.17-.58c4.81.47,13.36,8.31,14.11,6.88,1.07-2.07-11.27-7.69-11.4-8.14-.38-1.36,2.8-.81,3.6-.69a36.38,36.38,0,0,0,5.64.28c2.42,0,5.25-.32,7.26-1.7,4.17-2.85-1.41-3.38-4.19-2.7-2.15.53-10.89,3.44-13.09,2.76-.73-.22.1-1.28,1-2.37.41-.5,7.49-7.83,5.61-7.75-3.69.73-6.95,8.91-10.28,11.3-.66.47-4.57,2.56-5.19,1.56-.52-.83,2.18-3.19,2.7-3.81,1-1.17,3.79-5.47,3.82-6.42.06-2.49-4.74,3.4-5.21,4.25A37.72,37.72,0,0,1,128.34,39c-.37.43-1.9,2.57-2.76,1.85s.15-3,.54-3.5c.93-1.27,2.27-4.84,2.08-6.63C128,28.33,125.72,33.14,125.35,34.14Z"/><path class="cls-24" d="M110.57,38c.42,2,.68,3.89,1.17,5.87.58,2.28-.07,3.82-1.92,5.7-.83.84-1.58,1.71-2.39,2.59-.46.51-3.57,2-2.38,2.78,2.08,1.52,3.51-2.43,4.53-3.38l3-3.08c3.75-3.92,12.4-1.1,17.63-1.66,1.52-.16,2.65-.81.7-1.39a21.11,21.11,0,0,0-4-.21c-1.85-.11-9.15,1.09-9.34-.54-.09-.76,2.88-2,3.9-2.12a11.93,11.93,0,0,1,5.35.22,35.91,35.91,0,0,0,8.33,1.33c1.07,0,2.68,0,2.26-1.12-.33-.88-2.38-1.09-3.39-1.25-2.76-.45-5.61-.28-8.41-.54-1.06-.1-6.56.38-3.06-1.49a12.15,12.15,0,0,1,2.66-1.43c4.78-1,6.55,1.2,10.13,1.51,1.23.11,7.74,1.37,6.89,0-1.11-1.77-14.79-3-15.16-3.38-1.09-1,2.82-2.1,3.63-2.24,2.05-.34,8.53-3.46,10.07-5,3.82-3.82-1.67-1.65-4.55-.57a29.79,29.79,0,0,0-7.82,4.48c-.82.66-4.59,4.32-3.51-.43.12-.54,2.88-7.26,1.7-8-4.11,2.25-2.32,9.41-4.14,12.39-.36.59-2.9,3.49-4,2.84-1-.54.3-3.31.45-4,.29-1.26.58-5.68.09-6.48-1.3-2.09-2.6,4.24-2.58,5.1a25.18,25.18,0,0,1-.33,6.66c-.1.47-.38,2.7-1.58,2.36S113,41,113.05,40.45a11,11,0,0,0-1.66-6.14C109.85,32.4,110.38,37.07,110.57,38Z"/><path class="cls-26" d="M109.8,36.86c.41,2,.67,3.89,1.17,5.87.57,2.28-.08,3.82-1.92,5.7-.83.85-1.59,1.71-2.39,2.59-.47.51-3.58,2-2.39,2.78,2.08,1.53,3.52-2.43,4.53-3.38l3-3.07c3.74-3.92,12.39-1.11,17.63-1.67,1.51-.16,2.64-.81.69-1.39a20.32,20.32,0,0,0-4-.2c-1.84-.12-9.15,1.09-9.34-.55-.09-.75,2.88-1.95,3.9-2.12a11.92,11.92,0,0,1,5.35.22A35.39,35.39,0,0,0,134.37,43c1.06,0,2.67,0,2.25-1.12-.32-.88-2.38-1.09-3.39-1.25-2.76-.44-5.6-.28-8.4-.54-1.07-.09-6.57.39-3.07-1.49a12.64,12.64,0,0,1,2.67-1.43c4.78-1,6.55,1.21,10.12,1.51,1.23.11,7.75,1.37,6.9,0-1.12-1.78-14.8-3.05-15.17-3.39-1.09-1,2.82-2.1,3.63-2.24,2.06-.33,8.54-3.45,10.07-5,3.82-3.82-1.67-1.65-4.55-.57A29.79,29.79,0,0,0,127.61,32c-.82.66-4.59,4.32-3.51-.43.12-.53,2.88-7.26,1.7-8-4.11,2.25-2.32,9.4-4.14,12.38-.36.59-2.9,3.49-4,2.85-.94-.54.31-3.31.46-4,.28-1.26.58-5.68.08-6.47-1.3-2.1-2.59,4.24-2.57,5.09a25.59,25.59,0,0,1-.34,6.66c-.1.47-.38,2.71-1.58,2.36s-1.48-2.51-1.41-3.07a10.91,10.91,0,0,0-1.66-6.14C109.07,31.25,109.6,35.92,109.8,36.86Z"/><path class="cls-27" d="M105.52,53.83c.53-.22,1.09-1.3,1.45-1.68s.68-1.2,1.2-1.71c1.09-1.09,2.16-2.18,3.24-3.27,2.27-2.27,4.8-4.36,7.24-6.5s4.67-4,7.19-5.82A85.62,85.62,0,0,1,134,29.71a39.54,39.54,0,0,1,5.66-2.87,5.68,5.68,0,0,0,1.33-.65,6.29,6.29,0,0,0-1.5.39,50.25,50.25,0,0,0-8.2,4.2,76.91,76.91,0,0,0-7.87,5.32c-2.46,1.91-4.77,3.94-7.07,6-1.21,1.08-2.46,2.12-3.64,3.21s-2.21,2.17-3.3,3.26c-.72.73-1.47,1.45-2.2,2.18s-1.9,1.63-2.49,2.25C104.49,53.21,105.52,53.83,105.52,53.83Z"/><path class="cls-27" d="M111.34,47c.49-.12.57-.73.64-1.06a17.55,17.55,0,0,0,.26-1.77,13.52,13.52,0,0,0-1.74-7.11c-.17-.24.58,1.76.7,2.32a14.8,14.8,0,0,1,.54,4.42c0,.48-.1,1-.17,1.45,0,.26-.09.52-.14.78s-.43,1-.09,1Z"/><path class="cls-27" d="M113.82,44.74a16.75,16.75,0,0,0,2.66.21c.34,0,3.84-.13,3.5-.13-.85,0-5.16-.37-6-.5-.33,0-.51.37-.17.42Z"/><path class="cls-27" d="M118.34,41.09c.7-.13,1.41-.16,2.12-.22.34,0,3.29-.45,2.94-.42-.75.06-4.41.07-5.16.21-.34.07-.24.5.1.43Z"/><path class="cls-27" d="M116.69,42.4a8,8,0,0,0-.26-5.56c-.13-.25-.05.84,0,1.36a8.08,8.08,0,0,1-.24,4.08c-.12.27.38.39.51.12Z"/><path class="cls-27" d="M122.31,37.53a18.11,18.11,0,0,0,1.08-5.86c0-.28-.42,1.18-.4,1.47a10.4,10.4,0,0,1-1.19,4.27c-.11.28.4.4.51.12Z"/><path class="cls-27" d="M123.93,36.39c.92.1,1.88-.14,2.78,0a12.16,12.16,0,0,0,2.07.18,9.74,9.74,0,0,0-1.89-.45c-1-.18-2-.09-2.92-.2-.34,0-.38.4,0,.44Z"/></g></g></svg>