<svg id="Layer_1" data-name="Layer 1" xmlns="http://www.w3.org/2000/svg" viewBox="0 0 93.26 48.09"><defs><style>.cls-1{fill:#4e140f;}.cls-2{fill:#dba266;}.cls-3{fill:#a03f3d;}.cls-4{fill:#cc6155;}.cls-5{fill:#e2bf8e;}.cls-6{fill:#eadfc7;}.cls-7{fill:#fff;}</style></defs><path class="cls-1" d="M84.35,33.28c1.15.23-.78,1.21-.66.32.33-2.33,1.29-3.19.65-5.39a24.91,24.91,0,0,1-.71-4.63c-.11-1.24.05-2.47,0-3.7,0-.62-.3-1.67-1.27-1.55a3.28,3.28,0,0,0-1.2.69c-1.1.2-2.21.29-3.32.42a34.24,34.24,0,0,0-4.38,1c-2.48.64-5.29,1.26-7.85.77-4.06-.77-7-5.22-11.64-3.94-1.13.31-2.16.83-3.24,1.24a26.33,26.33,0,0,1-4.29,1.33c-2.71.52-5.66-.93-8.09-1.69a10.55,10.55,0,0,0-3.41-.55,8.22,8.22,0,0,0-3.55,1c-1,.54-2,1.17-3.05,1.65a11.31,11.31,0,0,1-4.36.78c-3,0-5.77-1.2-8.67-1.67C12.7,19,9.69,19,7.36,20.23c-.39.13-.77.28-1.15.45S5.93,22.06,6,22.41c.11,1,.47,2,.61,3,.29,1.92.33,3.91.48,5.85.11,1.27.26,2.53.41,3.8A8.88,8.88,0,0,0,8,37.87a2,2,0,0,0,2,1.2c.77,0,1.39-.83,2-1.15a3.67,3.67,0,0,1,1.81-.12,6.56,6.56,0,0,0,2-.19h0a10.92,10.92,0,0,0,2.22,0c2.7-.22,5.23-1.47,7.8-2.17A14,14,0,0,1,30.05,35a14.77,14.77,0,0,1,4.28,1.06,24.13,24.13,0,0,0,7.91,1.72,16.29,16.29,0,0,0,7-1.75c1.08-.48,2.16-1,3.3-1.36a7.69,7.69,0,0,1,4.53,0c2.52.65,4.82,1.71,7.41,2.23a30.61,30.61,0,0,0,8,.35,48.22,48.22,0,0,0,5.34-.72l1.55-.29c.7,0,1.61-1.13,2.3-1.14S83.56,33.12,84.35,33.28Z"/><path class="cls-2" d="M88.5,35.55c1.25.31,2-.65,2.08-1.79.29-3-.85-6-1.58-8.82A38,38,0,0,1,88.11,19c-.15-1.58,0-3.15-.12-4.72-.06-.79-.36-2.13-1.41-2-.46.07-.93.58-1.28.87-1.18.23-2.39.33-3.58.48A31.85,31.85,0,0,0,77,14.86c-2.67.78-5.7,1.53-8.47.88-4.41-1-7.7-6.74-12.68-5.18a31.79,31.79,0,0,0-3.48,1.55,24.26,24.26,0,0,1-4.61,1.62c-2.92.64-6.14-1.26-8.78-2.25a10.06,10.06,0,0,0-3.7-.75A7.61,7.61,0,0,0,31.47,12c-1.1.67-2.1,1.47-3.26,2.05a10.09,10.09,0,0,1-4.69.94c-3.25,0-6.28-1.6-9.42-2.24-2.8-.56-6.06-.57-8.55,1a10.24,10.24,0,0,0-1.22.56c-.54.28-.28,1.76-.23,2.2.15,1.3.55,2.56.74,3.86.35,2.45.44,5,.66,7.46.14,1.62.33,3.23.53,4.85a13.35,13.35,0,0,0,.67,3.56,2.2,2.2,0,0,0,2.2,1.56c.83,0,1.48-1,2.13-1.44a3.52,3.52,0,0,1,2-.13A6.14,6.14,0,0,0,15.12,36h0a11.16,11.16,0,0,0,2.39.09c2.92-.25,5.62-1.81,8.39-2.66a12.47,12.47,0,0,1,4.5-.57,14.68,14.68,0,0,1,4.66,1.4,23.19,23.19,0,0,0,8.59,2.3,15.24,15.24,0,0,0,7.54-2.13,38.26,38.26,0,0,1,3.54-1.69,7.09,7.09,0,0,1,4.89.1c2.74.87,5.26,2.25,8.07,2.94a28.28,28.28,0,0,0,8.61.56,44.53,44.53,0,0,0,5.75-.85l1.68-.35,2.25,0A9.85,9.85,0,0,1,88.5,35.55Z"/><path class="cls-3" d="M70.24,34.84a28.38,28.38,0,0,1-8.32-2.47c-2.41-1-5.23-1.95-7.8-.94s-4.89,2.64-7.54,3.45a14,14,0,0,1-9.15-.81c-2.79-1.15-5.39-2.58-8.49-2.56-2.89,0-5.52,1.26-8.13,2.33a11.46,11.46,0,0,1-6.19,1.07,10.85,10.85,0,0,0-3.5-.27,3.08,3.08,0,0,0-2.16,1,3,3,0,0,1-.82.63,4.33,4.33,0,0,1-.31-.65,25.51,25.51,0,0,1-1.3-8c-.13-2.18,0-4.35-.14-6.53A13.23,13.23,0,0,0,6,18.78a19.43,19.43,0,0,1-.4-3.31l.14-.11a11.33,11.33,0,0,1,1.65-1.19,6,6,0,0,1,1.36-.56,14.7,14.7,0,0,1,5.6.11c2.77.52,5.33,1.73,8.13,2.15a11.8,11.8,0,0,0,7.62-1.48,27.43,27.43,0,0,1,3.41-1.86,7.18,7.18,0,0,1,4.82,0c2.68.79,5.15,2.15,8,2.16,2.63,0,5.43-1.36,7.76-2.46a6.55,6.55,0,0,1,4.28-.93,9.61,9.61,0,0,1,3.59,2c2,1.47,3.69,3.06,6,3.85,2.77.92,6,.39,8.75-.39,1.65-.47,3.18-1.24,4.84-1.69l1.59-.45c.81-.2,1.63-.31,2.43-.56.37-.12.67-.47,1-.62a7.86,7.86,0,0,1-.2,1.6,20.34,20.34,0,0,0,.08,4.27,41.36,41.36,0,0,0,1.58,7.94A18.69,18.69,0,0,1,89,33c0,.39-.16,1.21-.72,1.07a5,5,0,0,0-1.43-.21,11,11,0,0,0-1.27.14,40.11,40.11,0,0,0-5.91.58A41.54,41.54,0,0,1,70.24,34.84Z"/><path class="cls-4" d="M88.24,34.08c.56.14.7-.68.72-1.07a18.69,18.69,0,0,0-.81-5.84c-.11-.38-.22-.76-.32-1.14-.92.14-1.83.34-2.75.56a50.71,50.71,0,0,1-8.19,1.71,23.86,23.86,0,0,1-8-.91c-1.22-.34-2.42-.74-3.61-1.17a28.77,28.77,0,0,0-4.18-1.46c-2.57-.48-4.87.49-7.29,1.2a14.74,14.74,0,0,1-3.47.7,4.31,4.31,0,0,1-1.92-.23c-2.43-1.05.23-4.25,1.28-5.28,2-1.93,5.12-4,8-3.11,2.3.7,3.9,2.62,5.94,3.79A10.27,10.27,0,0,0,67.74,23a24.73,24.73,0,0,0,4.79.06c4.86-.45,9.37-2.4,14.08-3.52,0-.11,0-.21,0-.32A20.34,20.34,0,0,1,86.49,15a7.86,7.86,0,0,0,.2-1.6c-.36.15-.66.5-1,.62-.8.25-1.62.36-2.43.56L81.64,15c-1.66.45-3.19,1.22-4.84,1.69-2.74.78-6,1.31-8.75.39-2.36-.79-4.1-2.38-6-3.85a9.61,9.61,0,0,0-3.59-2,6.55,6.55,0,0,0-4.28.93c-2.33,1.1-5.13,2.48-7.76,2.46-2.86,0-5.33-1.37-8-2.16a7.18,7.18,0,0,0-4.82,0,27.43,27.43,0,0,0-3.41,1.86,11.8,11.8,0,0,1-7.62,1.48c-2.8-.42-5.36-1.63-8.13-2.15a14.7,14.7,0,0,0-5.6-.11,6,6,0,0,0-1.36.56,11.33,11.33,0,0,0-1.65,1.19l-.14.11A18.66,18.66,0,0,0,6,18.63a34.85,34.85,0,0,1,4.08-.14,7.88,7.88,0,0,1,2.11.27,21,21,0,0,1,3.08,1.43c1.86,1,3.95,2,6.11,1.87A19,19,0,0,0,25,21.38c2.65-.67,5.84-3.28,8.47-4s7,.35,9.47,1.82c1,.57,1.89,1.75,1,2.7s-3,.43-4.14.35c-4.93-.35-9.16,3.22-14.08,3.37a29.54,29.54,0,0,1-7.3-.95A30.92,30.92,0,0,0,11,23.57a11.87,11.87,0,0,0-4.56,1c0,.45,0,.89,0,1.33A11.82,11.82,0,0,1,7.8,26c1.56.1,3.13.32,4.67.57a41.41,41.41,0,0,1,5,.9c.59.17,2.35.64,1.83,1.6A2.48,2.48,0,0,1,18,30a5.19,5.19,0,0,1-2.11.19A33.53,33.53,0,0,1,10.34,29a19.57,19.57,0,0,0-2.61-.56,5.51,5.51,0,0,0-1.15-.05A23.22,23.22,0,0,0,7.83,35.6a4.33,4.33,0,0,0,.31.65A3,3,0,0,0,9,35.62a3.08,3.08,0,0,1,2.16-1,10.85,10.85,0,0,1,3.5.27,11.46,11.46,0,0,0,6.19-1.07c2.61-1.07,5.24-2.31,8.13-2.33,3.1,0,5.7,1.41,8.49,2.56a14,14,0,0,0,9.15.81c2.65-.81,5-2.43,7.54-3.45s5.39-.07,7.8.94a28.38,28.38,0,0,0,8.32,2.47,41.54,41.54,0,0,0,9.39-.25A40.11,40.11,0,0,1,85.54,34a11,11,0,0,1,1.27-.14A5,5,0,0,1,88.24,34.08Zm-48.76-5a12.58,12.58,0,0,1-3.34-.46,3.56,3.56,0,0,1-2-1.2,1.62,1.62,0,0,1,.22-1.92c.86-1.14,2.4-1.37,3.75-1.45a12.75,12.75,0,0,1,5.27.65A3.28,3.28,0,0,1,44.89,26,1.61,1.61,0,0,1,45.34,27a1.47,1.47,0,0,1-.84,1.19A9.62,9.62,0,0,1,39.48,29.12Z"/><path class="cls-5" d="M5.93,16.73a14.38,14.38,0,0,1,1.56-.42,16.74,16.74,0,0,1,7.15.05A14.28,14.28,0,0,1,18,17.54c1.05.56,1.92,1.52,3.12,1.8,2.63.59,5.39-.28,7.77-1.41,2.22-1,4.46-2.42,7-2.36s4.56,1.17,6.8,2a8.87,8.87,0,0,0,3.59.66,11.81,11.81,0,0,0,4-1.15c2.37-1.06,4.79-2.34,7.46-1.63,2.37.62,4.15,2.4,6.27,3.53,2.78,1.5,5.89,1.4,8.94,1.25a54.65,54.65,0,0,0,13.5-2.54,15.56,15.56,0,0,1,0-2.73,7.86,7.86,0,0,0,.2-1.6c-.36.15-.66.5-1,.62-.8.25-1.62.36-2.43.56L81.64,15c-1.66.45-3.19,1.22-4.84,1.69-2.74.78-6,1.31-8.75.39-2.36-.79-4.1-2.38-6-3.85a9.61,9.61,0,0,0-3.59-2,6.55,6.55,0,0,0-4.28.93c-2.33,1.1-5.13,2.48-7.76,2.46-2.86,0-5.33-1.37-8-2.16a7.18,7.18,0,0,0-4.82,0,27.43,27.43,0,0,0-3.41,1.86,11.8,11.8,0,0,1-7.62,1.48c-2.8-.42-5.36-1.63-8.13-2.15a14.7,14.7,0,0,0-5.6-.11,6,6,0,0,0-1.36.56,11.33,11.33,0,0,0-1.65,1.19l-.14.11c0,.45,0,.89.09,1.33Z"/><path class="cls-6" d="M8.23,14.91a16.42,16.42,0,0,1,7,.47,30.15,30.15,0,0,1,3.47,1.18,15.27,15.27,0,0,0,3.95,1.25,13.45,13.45,0,0,0,7.61-1.89c2.32-1.18,4.64-2.81,7.36-2.68,2.45.11,4.75,1.3,7.1,1.9,2.6.66,5-.08,7.41-1,2.06-.81,4.38-1.76,6.64-1.33,2,.38,3.55,1.76,5.07,3,1.79,1.48,3.64,2.85,6,3a20.06,20.06,0,0,0,4.57-.37c1.45-.25,2.91-.5,4.37-.77a38.07,38.07,0,0,0,7.6-1.89c0-.26,0-.52.06-.77a7.86,7.86,0,0,0,.2-1.6c-.36.15-.66.5-1,.62-.8.25-1.62.36-2.43.56L81.64,15c-1.66.45-3.19,1.22-4.84,1.69-2.74.78-6,1.31-8.75.39-2.36-.79-4.1-2.38-6-3.85a9.61,9.61,0,0,0-3.59-2,6.55,6.55,0,0,0-4.28.93c-2.33,1.1-5.13,2.48-7.76,2.46-2.86,0-5.33-1.37-8-2.16a7.18,7.18,0,0,0-4.82,0,27.43,27.43,0,0,0-3.41,1.86,11.8,11.8,0,0,1-7.62,1.48c-2.8-.42-5.36-1.63-8.13-2.15a14.7,14.7,0,0,0-5.6-.11,6,6,0,0,0-1.36.56,11.33,11.33,0,0,0-1.65,1.19l-.14.11c0,.08,0,.16,0,.24A10.82,10.82,0,0,1,8.23,14.91Z"/><path class="cls-5" d="M88.24,34.08c.56.14.7-.68.72-1.07a16.36,16.36,0,0,0-.24-3.38,26.11,26.11,0,0,1-4.37.83,51.68,51.68,0,0,1-9.95.11A34.62,34.62,0,0,1,67,29.12c-2.68-.82-5.47-1.91-8.3-2-4.91-.19-8.65,3.3-13.22,4.4a11.63,11.63,0,0,1-6.83-.45c-2.36-.85-4.53-2.16-6.91-3A10.24,10.24,0,0,0,28,27.43a7.42,7.42,0,0,0-3.17,1c-1.84,1-3.48,2.5-5.51,3.13a9.59,9.59,0,0,1-4.61.06c-1.76-.32-3.51-.72-5.28-1a23.71,23.71,0,0,0-2.65-.24,18.27,18.27,0,0,0,1.1,5.2,4.33,4.33,0,0,0,.31.65A3,3,0,0,0,9,35.62a3.08,3.08,0,0,1,2.16-1,10.85,10.85,0,0,1,3.5.27,11.46,11.46,0,0,0,6.19-1.07c2.61-1.07,5.24-2.31,8.13-2.33,3.1,0,5.7,1.41,8.49,2.56a14,14,0,0,0,9.15.81c2.65-.81,5-2.43,7.54-3.45s5.39-.07,7.8.94a28.38,28.38,0,0,0,8.32,2.47,41.54,41.54,0,0,0,9.39-.25A40.11,40.11,0,0,1,85.54,34a11,11,0,0,1,1.27-.14A5,5,0,0,1,88.24,34.08Z"/><path class="cls-6" d="M88.24,34.08c.56.14.7-.68.72-1.07a10.65,10.65,0,0,0,0-1.13,39.14,39.14,0,0,1-4.45.53c-2.77.2-5.55.37-8.32.55a23.34,23.34,0,0,1-8-.46c-2.32-.69-4.45-1.86-6.72-2.69a11.13,11.13,0,0,0-7.48-.4c-2.38.78-4.49,2.12-6.78,3.09a10.48,10.48,0,0,1-7,.72c-2.71-.78-5.07-2.43-7.74-3.31a8.64,8.64,0,0,0-4.38-.48A11.84,11.84,0,0,0,24.41,31c-2.33,1.36-4.68,2.95-7.47,3a21.62,21.62,0,0,1-4.79-.74,21.77,21.77,0,0,0-5.1-.46,14.6,14.6,0,0,0,.78,2.77,4.33,4.33,0,0,0,.31.65A3,3,0,0,0,9,35.62a3.08,3.08,0,0,1,2.16-1,10.85,10.85,0,0,1,3.5.27,11.46,11.46,0,0,0,6.19-1.07c2.61-1.07,5.24-2.31,8.13-2.33,3.1,0,5.7,1.41,8.49,2.56a14,14,0,0,0,9.15.81c2.65-.81,5-2.43,7.54-3.45s5.39-.07,7.8.94a28.38,28.38,0,0,0,8.32,2.47,41.54,41.54,0,0,0,9.39-.25A40.11,40.11,0,0,1,85.54,34a11,11,0,0,1,1.27-.14A5,5,0,0,1,88.24,34.08Z"/><path class="cls-7" d="M69.3,20.33a35.86,35.86,0,0,1-6.17-3.15,20,20,0,0,0-6-2.72c-2-.37-3.65.5-5.36,1.36A16.86,16.86,0,0,1,49,17a30,30,0,0,1-3,.44c-.68.14-.19,1,.2,1.18,1.74.79,3.59.23,5.32-.37a14.22,14.22,0,0,1,5.8-.95,8.36,8.36,0,0,1,2.72,1c1,.47,2,1,3,1.39A15.77,15.77,0,0,0,69.41,21C69.91,21,69.59,20.43,69.3,20.33Z"/><path class="cls-7" d="M39.89,18.18c.43-.44-.09-1.21-.44-1.49a3.89,3.89,0,0,0-1.17-.62,2.16,2.16,0,0,0-.83-.2,6.31,6.31,0,0,0-.76-.08c-.83,0-1,.66-.72,1.32a2.62,2.62,0,0,0,1.68,1.41,1.91,1.91,0,0,0,.33.06A1.8,1.8,0,0,0,39.89,18.18Z"/></svg>