<svg xmlns="http://www.w3.org/2000/svg" viewBox="0 0 93.26 48.09"><defs><style>.cls-1{isolation:isolate;}.cls-2{fill:#995d24;}.cls-3{fill:#84491c;}.cls-4{fill:#e1924a;}.cls-5{fill:#d6a150;}.cls-6{fill:#cba669;}.cls-7{fill:#f5c97e;}.cls-8{fill:#994f88;}.cls-9{fill:#c977b9;}.cls-10{fill:#753760;}.cls-11{fill:#d1a063;opacity:0.55;mix-blend-mode:multiply;}</style></defs><g class="cls-1"><g id="Layer_1" data-name="Layer 1"><path class="cls-2" d="M55.51,7.36c2.52,0,20.65,2.23,29,6,2.69,1.2,1.32,6.44.84,7.41-1.4,2.8-36.3,14.12-36.1,15.58S50,42,44.58,44.47c-5.08,2.35-16,3.71-30.11-6.76C7.91,32.83,3.65,18.93,10.58,15.47c5.83-2.92,11,4,13.87,2.93S50.71,7.36,55.51,7.36Z"/><path class="cls-3" d="M45.28,39.73c-.55-.43-1.46-.18-1.92-.76s0-1.26-.77-1.85c-1.49-1.15-3.21-.91-4.91-1a7.78,7.78,0,0,1-5.55-2.51,29.15,29.15,0,0,0-7.08-5.49c-1.72-.92-3.52-1.72-5.32-2.47-1.33-.56-2.82-.94-4.12-1.55-2.12-1-2.62-3.74-3.87-5.49a5.64,5.64,0,0,0-2.49-2.27C4.07,20.75,8.2,33.22,14.34,37.79c14.08,10.47,25,9.11,30.11,6.76a10.81,10.81,0,0,0,1.13-.6,2,2,0,0,0,0-.23C45.47,42.63,46.23,40.48,45.28,39.73Z"/><path class="cls-4" d="M53.75,1.89C57.52,1.89,86.48,11.06,85,14S47.29,29.41,47.49,30.87s2.71,4.79-2.71,7.29c-5.07,2.35-18.55,3.75-30.85-7.09-5.57-4.9-8.8-13.42-1.87-16.88,5.83-2.92,7.71-.21,10.63-1.25S49,1.89,53.75,1.89Z"/><path class="cls-5" d="M53.2,3c3.5,0,30.54,8.15,29.18,10.84s-36.7,15-36.5,16.31,2.9,4.64-2.13,7C39,39.23,27.38,40.55,16,30.53,10.78,26,6.73,18.21,13.17,15c5.42-2.7,8.2-.28,10.91-1.24S48.74,3,53.2,3Z"/><path class="cls-2" d="M69.68,22.43c-1.76.6-3.25,1.7-5,2.31-2,.7-4.2,1-6.14,1.8-1.7.67-3.28,1.38-5,2.1-1.11.47-4.3,1.9-4.85,1.81l-.13.42a3.72,3.72,0,0,0,1.08,2.85c1.26.81,1.85-.16,2.74-.93,2.26-2,4.73-2.81,7.67-3.9S66,26.56,69,25.67C71.47,24.92,73.62,21.09,69.68,22.43Z"/><path class="cls-6" d="M16.69,18.34a12.63,12.63,0,0,0,2.2-.29c.52-.11.3-.9-.22-.8a11.07,11.07,0,0,1-2,.26.42.42,0,0,0,0,.83Z"/><path class="cls-6" d="M15.44,21.68a8.39,8.39,0,0,0,.3,1.78.41.41,0,0,0,.79-.22,7,7,0,0,1-.26-1.56.42.42,0,0,0-.83,0Z"/><path class="cls-6" d="M17.28,27.77l2.5.42c.52.09.74-.71.22-.79L17.5,27c-.52-.09-.75.71-.22.79Z"/><path class="cls-6" d="M25.17,29.32a.42.42,0,0,0,0-.83.42.42,0,0,0,0,.83Z"/><path class="cls-6" d="M25.17,29.32A7.61,7.61,0,0,0,27,29.16c.51-.12.29-.91-.22-.79a6.84,6.84,0,0,1-1.56.12.42.42,0,0,0,0,.83Z"/><path class="cls-6" d="M28.53,34a12.46,12.46,0,0,0,2.2.15.41.41,0,0,0,0-.82,11,11,0,0,1-2-.13c-.52-.09-.74.7-.22.8Z"/><path class="cls-6" d="M37.62,33.84a5.34,5.34,0,0,0,.73-1.21.41.41,0,0,0-.29-.51.42.42,0,0,0-.5.29,4.51,4.51,0,0,1-.66,1c-.3.44.42.86.72.42Z"/><path class="cls-6" d="M31.7,27a7.13,7.13,0,0,0,2.47-.43c.5-.18.28-1-.22-.79a6.58,6.58,0,0,1-2.25.4.41.41,0,0,0,0,.82Z"/><path class="cls-6" d="M24.61,22.37a3.86,3.86,0,0,0,1.22-.16c.51-.16.29-.95-.21-.79a3.14,3.14,0,0,1-1,.12.42.42,0,0,0,0,.83Z"/><path class="cls-6" d="M25,16.39a.41.41,0,0,0,0-.82.41.41,0,0,0,0,.82Z"/><path class="cls-6" d="M25.17,16.39h2.36a.41.41,0,0,0,0-.82H25.17a.41.41,0,0,0,0,.82Z"/><path class="cls-6" d="M34.14,19.38,35,18.13c.29-.44-.42-.85-.72-.41L33.43,19c-.3.44.42.85.71.41Z"/><path class="cls-6" d="M32.23,13c.82-.26,1.67-.43,2.5-.69.5-.17.29-1-.22-.8-.82.27-1.68.43-2.5.7-.51.16-.29,1,.22.79Z"/><path class="cls-6" d="M40.72,12.52l.7.69a.41.41,0,1,0,.58-.58l-.7-.69a.41.41,0,0,0-.58.58Z"/><path class="cls-6" d="M43,31.89a2.16,2.16,0,0,1,.36,1.18.41.41,0,0,0,.82,0,2.82,2.82,0,0,0-.47-1.59c-.29-.45-1,0-.71.41Z"/><path class="cls-6" d="M52.62,22a7.18,7.18,0,0,1,1.71-.51c.52-.11.3-.9-.22-.8a8.48,8.48,0,0,0-1.91.6c-.48.23-.06.95.42.71Z"/><path class="cls-6" d="M52.1,17.21c.74-.29,1.47-.58,2.23-.83.5-.17.28-1-.22-.8-.75.26-1.49.54-2.23.84-.48.19-.27,1,.22.79Z"/><path class="cls-6" d="M47,9.15a8.31,8.31,0,0,0,2-.74c.48-.23.06-.94-.41-.71a8.16,8.16,0,0,1-1.85.66c-.52.11-.3.9.22.79Z"/><path class="cls-6" d="M51.13,5.4a3.79,3.79,0,0,1,2,.42c.5.19.71-.61.22-.8a4.48,4.48,0,0,0-2.44-.42c-.52.11-.3.9.22.8Z"/><path class="cls-6" d="M58.32,8a5.54,5.54,0,0,0,2.29.61.42.42,0,0,0,0-.83,4.6,4.6,0,0,1-1.88-.49c-.47-.24-.89.48-.41.71Z"/><path class="cls-6" d="M53.38,11.81a.42.42,0,0,0,0-.83.42.42,0,0,0,0,.83Z"/><path class="cls-6" d="M53.59,11.75a7.79,7.79,0,0,1,1.57-.51.42.42,0,0,0-.22-.8,8.59,8.59,0,0,0-1.77.6c-.47.23-.06.94.42.71Z"/><path class="cls-6" d="M61.14,17.21c.74-.14,1.48-.27,2.22-.42.52-.1.3-.89-.22-.79-.74.15-1.48.27-2.22.42-.53.1-.3.89.22.79Z"/><path class="cls-6" d="M60.86,21.1a8.49,8.49,0,0,0,1.62-.59c.48-.24.06-1-.41-.72a7.19,7.19,0,0,1-1.43.52.41.41,0,0,0,.22.79Z"/><path class="cls-6" d="M64.3,13c.32-.47.66-.92,1-1.39s-.41-.85-.71-.41-.66.92-1,1.39.42.85.71.41Z"/><path class="cls-6" d="M70.59,14.71a14,14,0,0,1,3.22-.4.42.42,0,0,0,0-.83,15.36,15.36,0,0,0-3.44.43c-.52.13-.3.92.22.8Z"/><path class="cls-7" d="M22.42,31.25a11.91,11.91,0,0,1,1.94.55c.5.2.71-.6.22-.79a11.94,11.94,0,0,0-1.94-.56c-.52-.1-.74.69-.22.8Z"/><path class="cls-7" d="M29.27,30.93a6.42,6.42,0,0,1,2-.79c.52-.11.3-.91-.21-.8a7.56,7.56,0,0,0-2.19.88.41.41,0,0,0,.42.71Z"/><path class="cls-7" d="M27.82,24.47A5.45,5.45,0,0,1,29.69,23c.47-.24,0-1-.42-.71a6.06,6.06,0,0,0-2,1.59c-.33.41.25,1,.58.58Z"/><path class="cls-7" d="M19.54,23.84a5.72,5.72,0,0,0,1.63.74.42.42,0,0,0,.22-.8A4.63,4.63,0,0,1,20,23.13c-.45-.29-.86.42-.42.71Z"/><path class="cls-7" d="M20.69,20.83a12.56,12.56,0,0,0,1.21-.46.42.42,0,0,0,.15-.57.43.43,0,0,0-.56-.15,7.85,7.85,0,0,1-1,.38c-.5.17-.28,1,.22.8Z"/><path class="cls-7" d="M30.28,16.52c.61-.17,1.19-.43,1.81-.56s.3-.91-.22-.79-1.2.39-1.81.55a.42.42,0,0,0,.22.8Z"/><path class="cls-7" d="M37.33,25.09a3.17,3.17,0,0,0,2.4.46c.53-.09.3-.89-.22-.79a2.37,2.37,0,0,1-1.76-.38c-.44-.31-.85.41-.42.71Z"/><path class="cls-7" d="M37.12,37.1A15,15,0,0,0,39.45,37c.53-.09.31-.88-.21-.8a13.72,13.72,0,0,1-2.12.13.41.41,0,0,0,0,.82Z"/><path class="cls-7" d="M41.23,30.36a3.22,3.22,0,0,1,.63-.75c.38-.37-.21-1-.58-.58a3.92,3.92,0,0,0-.76.92.41.41,0,1,0,.71.41Z"/><path class="cls-7" d="M46.57,26.12a.41.41,0,0,0,0-.82.41.41,0,0,0,0,.82Z"/><path class="cls-7" d="M46.68,26.11c.93-.14,1.85-.29,2.78-.42.53-.08.3-.87-.22-.8-.93.14-1.85.29-2.78.42-.52.08-.3.87.22.8Z"/><path class="cls-7" d="M47.41,18.89h1a.41.41,0,0,0,0-.82h-1a.41.41,0,0,0,0,.82Z"/><path class="cls-7" d="M38.2,18.05a8.48,8.48,0,0,0,1.91-.6c.48-.23.06-.94-.42-.71a7.18,7.18,0,0,1-1.71.51c-.52.11-.3.9.22.8Z"/><path class="cls-7" d="M45.53,13.28l1.67-.84c.47-.23,0-.94-.42-.71l-1.67.84c-.47.23,0,.95.42.71Z"/><path class="cls-7" d="M39.41,10.08A13.08,13.08,0,0,1,41.08,9c.47-.24.06-1-.41-.71A11.81,11.81,0,0,0,39,9.37c-.42.31,0,1,.41.71Z"/><path class="cls-7" d="M44.42,7.86a2.64,2.64,0,0,0,1.18.19.41.41,0,0,0,0-.82,2,2,0,0,1-.77-.08.41.41,0,1,0-.41.71Z"/><path class="cls-7" d="M47.82,6a2.82,2.82,0,0,1,.87.12c.5.17.72-.63.22-.79a3.39,3.39,0,0,0-1.09-.16.42.42,0,0,0,0,.83Z"/><path class="cls-7" d="M53.38,8.89c.33,0,.65.13,1,.14a.42.42,0,0,0,0-.83c-.32,0-.64-.13-1-.14a.42.42,0,0,0,0,.83Z"/><path class="cls-7" d="M51.58,14.17A5,5,0,0,0,53.07,14c.51-.15.3-.95-.21-.79a4.25,4.25,0,0,1-1.28.12.42.42,0,0,0,0,.83Z"/><path class="cls-7" d="M58.11,14.31a.42.42,0,0,0,0-.83.42.42,0,0,0,0,.83Z"/><path class="cls-7" d="M58.32,14.25a4.62,4.62,0,0,1,1.29-.79.42.42,0,0,0-.22-.8,5.33,5.33,0,0,0-1.49.88c-.44.3,0,1,.42.71Z"/><path class="cls-7" d="M56.51,19.25,58.18,18c.42-.31,0-1-.42-.71l-1.67,1.25c-.42.32,0,1,.42.71Z"/><path class="cls-7" d="M56.09,23.42a4.23,4.23,0,0,1,1-.51c.5-.17.28-1-.22-.8a5.25,5.25,0,0,0-1.21.6c-.45.29,0,1,.41.71Z"/><path class="cls-7" d="M66.17,17.78a18.74,18.74,0,0,0,2.89-.29c.52-.09.3-.88-.22-.8a17.14,17.14,0,0,1-2.67.27.41.41,0,0,0,0,.82Z"/><path class="cls-7" d="M73.53,16.11a.41.41,0,0,0,0-.82.41.41,0,0,0,0,.82Z"/><path class="cls-7" d="M73.83,16a4.88,4.88,0,0,1,1.3-.9c.48-.25.06-1-.41-.72a5.9,5.9,0,0,0-1.48,1c-.38.37.21,1,.59.58Z"/><path class="cls-7" d="M67.35,12.72a3.54,3.54,0,0,0,.92-.62c.38-.37-.21-.95-.59-.58a2.94,2.94,0,0,1-.75.49.41.41,0,1,0,.42.71Z"/><path class="cls-7" d="M74.16,11.89a8.86,8.86,0,0,0,1.63.74.42.42,0,0,0,.22-.8,7.38,7.38,0,0,1-1.43-.65c-.48-.24-.89.47-.42.71Z"/><path class="cls-7" d="M62.69,7.91a6.8,6.8,0,0,1,1.56.27.42.42,0,0,0,.22-.8,8.17,8.17,0,0,0-1.78-.29.41.41,0,0,0,0,.82Z"/><path class="cls-7" d="M61.93,10.5l.83-.42a.41.41,0,1,0-.41-.71l-.84.42a.42.42,0,0,0-.15.56.43.43,0,0,0,.57.15Z"/><path class="cls-7" d="M55.5,5.12a11.53,11.53,0,0,0,2.19.29.41.41,0,0,0,0-.82,10,10,0,0,1-2-.27c-.52-.1-.75.7-.22.8Z"/><path class="cls-8" d="M74.79,12.61C71.36,8.82,63.71,6.13,54.52,5.26A57,57,0,0,0,38.94,6c-4.56.88-10,2.81-10,5.17,0,1.31,2,2.5,4.41,3.34C36.86,15.76,41,16.59,44.6,17.8c2.25.76,4.36,1.59,6.4,2.45a27.83,27.83,0,0,0,5.11,1.91c3,.69,7.33,1,9.68-.29,1.57-.86,1.56-1.9,1.74-2.94a1.41,1.41,0,0,1,1-1.32,22.8,22.8,0,0,1,2.68-.67,8.05,8.05,0,0,0,3.91-1.65C76,14.43,75.56,13.46,74.79,12.61Z"/><path class="cls-9" d="M47.61,14c-1-.27-2.09-.49-3.14-.73h-.08c1.67.66,3.47,1.26,5.33,1.82,1.6.48,3.25.93,4.93,1.36-1.06-.4-2.1-.82-3.18-1.21A39.83,39.83,0,0,0,47.61,14Z"/><path class="cls-9" d="M52,13c-.53-.16-1.06-.32-1.62-.47-1.07-.28-2.18-.54-3.27-.8l-1.44-.37a51.27,51.27,0,0,0,5.66,1.95q2.82.81,5.87,1.45a33.32,33.32,0,0,0-3.34-1.2Z"/><path class="cls-9" d="M57.35,11a7,7,0,0,0-1.47-.81,20.72,20.72,0,0,0-2-.76c-.65-.22-1.32-.43-2-.61l-1.68-.41A46.78,46.78,0,0,0,57.35,11Z"/><path class="cls-9" d="M44.27,16.32c1.08.29,2.17.57,3.25.87s2,.57,2.93.87c1.77.56,3.54,1.14,5.46,1.6l-.2-.13a27.54,27.54,0,0,0-5-2.17,59.55,59.55,0,0,0-6.3-1.65c-1.27-.26-2.53-.53-3.76-.83s-2.09-.56-3.13-.84-1.79-.5-2.66-.77c1,.46,2.2.87,3.39,1.26C40.17,15.17,42.21,15.76,44.27,16.32Z"/><path class="cls-10" d="M74.79,12.61C71.36,8.82,63.71,6.13,54.52,5.26A57,57,0,0,0,38.94,6c-4.56.88-10,2.81-10,5.17,0,1.31,2,2.5,4.41,3.34C36.86,15.76,41,16.59,44.6,17.8c2.25.76,4.36,1.59,6.4,2.45a27.83,27.83,0,0,0,5.11,1.91c3,.69,7.33,1,9.68-.29,1.57-.86,1.56-1.9,1.74-2.94a1.41,1.41,0,0,1,1-1.32,22.8,22.8,0,0,1,2.68-.67,8.05,8.05,0,0,0,3.91-1.65C76,14.43,75.56,13.46,74.79,12.61ZM66.94,16c0,.22-.37.39-.82.5a10.23,10.23,0,0,1-2.39.21,23.65,23.65,0,0,1-3.18-.27,58.91,58.91,0,0,1-6.13-1.34c-.42-.11-.86-.22-1.26-.34L52,14.37l-2.64-.8c-.75-.23-1.5-.46-2.24-.71,1.24.51,2.53,1,3.87,1.46,1.62.57,3.3,1.09,5,1.59l2.7.77a17.65,17.65,0,0,1,1.9.62,7.87,7.87,0,0,1,3,1.8,1.11,1.11,0,0,1,.32,1,1.84,1.84,0,0,1-1,1,5.57,5.57,0,0,1-1.77.58,7.35,7.35,0,0,1-1.82.06,14.62,14.62,0,0,1-3.72-.87c-1.2-.42-2.28-.9-3.38-1.36a22.42,22.42,0,0,0-2.15-.8c-.73-.22-1.49-.42-2.24-.62l-2.91-.79-3.28-.91c-1.13-.33-2.25-.66-3.34-1s-2.12-.7-3.12-1.08a28.07,28.07,0,0,1-2.63-1.14A9,9,0,0,1,30.71,12,1.89,1.89,0,0,1,30,10.81a1.33,1.33,0,0,1,.61-1.13,4.16,4.16,0,0,1,.66-.42,2.13,2.13,0,0,1,.59-.5,3.5,3.5,0,0,1,2-.4,4.54,4.54,0,0,1,1.45.35,5.3,5.3,0,0,1,1.21.72,1.67,1.67,0,0,1-.18-.62c0-.42.32-.88,1.35-1a5.41,5.41,0,0,1,1.66.09,15.39,15.39,0,0,1,1.76.49L42.69,9c.32.12.65.24,1,.35-.64-.63-1.87-1.18-2-1.88,0,0,.11-.07.19,0a27,27,0,0,1,3.79,1.44c-.4-.36-.89-.69-1.27-1s-.64-.69-.4-1a1.15,1.15,0,0,1,.65-.39,3.73,3.73,0,0,1,1.13-.09,14.73,14.73,0,0,1,2.57.37,42.88,42.88,0,0,1,4.55,1.26A34.34,34.34,0,0,1,57.51,9.8a6.54,6.54,0,0,1,2.67,2s-.07.08-.17.07a19.65,19.65,0,0,1-2.94-.56A43.34,43.34,0,0,1,52,9.5c-1.12-.45-2.22-.91-3.38-1.34l.12.05c1.75.82,3.51,1.63,5.37,2.4a61.89,61.89,0,0,0,6,2.16c.66.2,1.33.38,2,.59s1.06.35,1.56.54a12.08,12.08,0,0,1,2.88,1.4C66.76,15.5,67,15.74,66.94,16Z"/><path class="cls-11" d="M61.93,9.07a23.94,23.94,0,0,0-3.51-1l-1-.2.57.2,3.05,1.08c1.91.68,3.67,1.44,5.51,2.16l-1.84-1A30.49,30.49,0,0,0,61.93,9.07Z"/><path class="cls-11" d="M60.74,7.53a21.23,21.23,0,0,0-4.65-.87c2.11.41,4,1,6,1.48A9.36,9.36,0,0,0,60.74,7.53Z"/><path class="cls-11" d="M74.79,12.61C72.07,9.61,66.71,7.3,60,6l1,.27c.84.24,1.65.5,2.46.77s1.58.52,2.34.79,1.49.57,2.17.87,1.08.53,1.59.8a19.49,19.49,0,0,1,2.88,1.79c.75.59,1.41,1.24,1.41,1.91,0,0-.08.06-.17,0l-.39-.06c-.72-.15-1.36-.36-2-.53-.34-.08-.69-.16-1.06-.21a1.93,1.93,0,0,0-.76,0,.39.39,0,0,0-.31.39c0,.14.15.27.27.39.35.34.8.67,1.13,1s.51.6,0,.82a4.05,4.05,0,0,1-2,0c-.93-.16-1.79-.38-2.63-.61l-2-.56c.37.15.75.3,1.11.46a17.21,17.21,0,0,1,1.88.65c.8.34,1.56.76,1.75,1.24a.35.35,0,0,1-.14.49,2.4,2.4,0,0,1-.79.2c-.68.08-1.63.17-1.85.51s.14.57.28.84c0,.09.09.21,0,.3a1.61,1.61,0,0,1-.75.08,5.32,5.32,0,0,1-1.2-.23c-.46-.13-.88-.28-1.29-.43l-1.25-.47c-.31-.12-.64-.22-1-.32.28.11.55.23.81.35a20.72,20.72,0,0,1,3.4,1.57c.63.39,1.16.83,1.27,1.31s-.27,1-1.12,1.29a11.5,11.5,0,0,1-3.3.59,24,24,0,0,1-3.89-.12A26.46,26.46,0,0,1,55,21.86c.35.11.72.21,1.12.3,3,.69,7.33,1,9.68-.29,1.57-.86,1.56-1.9,1.74-2.94a1.41,1.41,0,0,1,1-1.32,22.8,22.8,0,0,1,2.68-.67,8.05,8.05,0,0,0,3.91-1.65C76,14.43,75.56,13.46,74.79,12.61Z"/><path class="cls-8" d="M56.8,20c-3.43-3.8-11.08-6.48-20.27-7.36A57,57,0,0,0,21,13.38c-4.56.87-10,2.8-10,5.16,0,1.32,2,2.51,4.41,3.35,3.51,1.23,7.69,2.06,11.25,3.27,2.25.76,4.36,1.59,6.4,2.46a28,28,0,0,0,5.1,1.91c3,.68,7.34,1,9.69-.29,1.57-.86,1.56-1.9,1.74-2.94a1.4,1.4,0,0,1,1-1.32,21.24,21.24,0,0,1,2.67-.67,8,8,0,0,0,3.91-1.66C58,21.79,57.57,20.82,56.8,20Z"/><path class="cls-9" d="M29.62,21.36c-1-.26-2.09-.48-3.14-.72l-.08,0c1.67.66,3.47,1.26,5.32,1.83q2.4.72,4.94,1.35c-1.07-.4-2.1-.81-3.18-1.21S31,21.72,29.62,21.36Z"/><path class="cls-9" d="M34,20.41c-.53-.17-1.07-.33-1.62-.47-1.07-.29-2.18-.54-3.27-.81l-1.44-.37a51.25,51.25,0,0,0,5.66,2c1.88.54,3.84,1,5.86,1.44A32.27,32.27,0,0,0,35.85,21Z"/><path class="cls-9" d="M39.36,18.34a7.47,7.47,0,0,0-1.47-.82c-.63-.27-1.31-.52-2-.76s-1.32-.42-2-.61l-1.68-.41A46.77,46.77,0,0,0,39.36,18.34Z"/><path class="cls-9" d="M26.28,23.69l3.25.86c1,.27,2,.57,2.93.88C34.23,26,36,26.56,37.92,27l-.21-.12a27.82,27.82,0,0,0-5-2.18,59.58,59.58,0,0,0-6.3-1.64c-1.27-.27-2.53-.53-3.76-.83s-2.09-.56-3.13-.85-1.79-.5-2.66-.77c1,.46,2.2.88,3.38,1.27C22.18,22.54,24.22,23.12,26.28,23.69Z"/><path class="cls-10" d="M56.8,20c-3.43-3.8-11.08-6.48-20.27-7.36A57,57,0,0,0,21,13.38c-4.56.87-10,2.8-10,5.16,0,1.32,2,2.51,4.41,3.35,3.51,1.23,7.69,2.06,11.25,3.27,2.25.76,4.36,1.59,6.4,2.46a28,28,0,0,0,5.1,1.91c3,.68,7.34,1,9.69-.29,1.57-.86,1.56-1.9,1.74-2.94a1.4,1.4,0,0,1,1-1.32,21.24,21.24,0,0,1,2.67-.67,8,8,0,0,0,3.91-1.66C58,21.79,57.57,20.82,56.8,20ZM49,23.33c-.05.22-.38.4-.82.5a9.72,9.72,0,0,1-2.39.21,23.51,23.51,0,0,1-3.18-.27,54.17,54.17,0,0,1-6.13-1.34c-.42-.11-.86-.21-1.26-.34L34,21.74l-2.64-.8-2.24-.71c1.24.51,2.53,1,3.87,1.46,1.62.56,3.3,1.09,5,1.59l2.7.76c.68.19,1.31.4,1.9.63a7.87,7.87,0,0,1,3,1.79,1.1,1.1,0,0,1,.31,1,1.8,1.8,0,0,1-1,1,5.93,5.93,0,0,1-1.77.59,8.47,8.47,0,0,1-1.82.06,15,15,0,0,1-3.72-.87c-1.2-.42-2.28-.9-3.38-1.37a21.69,21.69,0,0,0-2.16-.79c-.72-.22-1.48-.43-2.23-.63l-2.91-.78-3.28-.92c-1.13-.32-2.25-.66-3.34-1s-2.12-.7-3.12-1.08a24.74,24.74,0,0,1-2.63-1.14,8.58,8.58,0,0,1-1.83-1.15A1.91,1.91,0,0,1,12,18.18a1.32,1.32,0,0,1,.61-1.13,4.16,4.16,0,0,1,.66-.42,2.13,2.13,0,0,1,.59-.5,3.42,3.42,0,0,1,2-.41,4.81,4.81,0,0,1,1.45.36,5.29,5.29,0,0,1,1.21.71,1.57,1.57,0,0,1-.18-.62c0-.41.32-.87,1.34-1a5.78,5.78,0,0,1,1.67.1,12.16,12.16,0,0,1,1.76.49c.56.19,1.1.4,1.64.6.32.12.65.25,1,.35-.65-.63-1.87-1.17-2-1.87,0-.05.12-.07.2-.05a28.28,28.28,0,0,1,3.79,1.43c-.4-.35-.89-.69-1.27-1s-.64-.69-.41-1a1.28,1.28,0,0,1,.66-.38,3.72,3.72,0,0,1,1.13-.1,14.71,14.71,0,0,1,2.57.38,42.9,42.9,0,0,1,4.55,1.25,35.7,35.7,0,0,1,4.63,1.86,6.52,6.52,0,0,1,2.66,2s-.06.07-.16.06a18.47,18.47,0,0,1-2.94-.56A42.36,42.36,0,0,1,34,16.86c-1.11-.45-2.21-.91-3.37-1.34l.12.05c1.75.82,3.51,1.64,5.37,2.41s3.87,1.51,6,2.16c.65.2,1.33.38,2,.58s1.06.36,1.56.55a12.08,12.08,0,0,1,2.88,1.4C48.77,22.87,49,23.1,49,23.33Z"/><path class="cls-11" d="M43.94,16.44a24.28,24.28,0,0,0-3.51-1l-1-.2.57.2,3,1.09c1.92.68,3.68,1.43,5.52,2.15l-1.84-1A28,28,0,0,0,43.94,16.44Z"/><path class="cls-11" d="M42.75,14.9A20.77,20.77,0,0,0,38.1,14c2.11.4,4,1,6,1.48A7.65,7.65,0,0,0,42.75,14.9Z"/><path class="cls-11" d="M56.8,20C54.08,17,48.72,14.67,42,13.4l1,.28c.84.24,1.65.5,2.45.76s1.59.52,2.35.8,1.49.56,2.17.87,1.08.52,1.59.79a19.51,19.51,0,0,1,2.88,1.8c.75.58,1.41,1.24,1.41,1.91,0,0-.09.06-.17.05l-.39-.07c-.72-.14-1.36-.36-2.06-.53a8.15,8.15,0,0,0-1-.2,1.75,1.75,0,0,0-.76,0,.39.39,0,0,0-.31.39c0,.13.15.27.27.39.35.34.8.66,1.13,1s.51.6,0,.83a4.05,4.05,0,0,1-2,0c-.93-.16-1.79-.38-2.63-.61l-2-.56c.38.14.76.29,1.12.45a19.62,19.62,0,0,1,1.88.65c.8.34,1.56.76,1.75,1.25a.35.35,0,0,1-.14.49,2.18,2.18,0,0,1-.79.19c-.68.09-1.64.17-1.85.51s.14.57.27.84c0,.1.1.22,0,.3a1.45,1.45,0,0,1-.74.08,6.2,6.2,0,0,1-1.21-.22c-.45-.13-.87-.28-1.28-.43L43.58,25c-.31-.11-.64-.21-1-.31.28.11.55.22.81.34a21.11,21.11,0,0,1,3.4,1.57,2.61,2.61,0,0,1,1.27,1.32c.11.48-.27,1-1.12,1.29a11.93,11.93,0,0,1-3.3.58,24,24,0,0,1-3.89-.11c-1-.11-1.89-.26-2.78-.44q.53.16,1.11.3c3,.68,7.34,1,9.69-.29,1.57-.86,1.56-1.9,1.74-2.94a1.4,1.4,0,0,1,1-1.32,21.24,21.24,0,0,1,2.67-.67,8,8,0,0,0,3.91-1.66C58,21.79,57.57,20.82,56.8,20Z"/></g></g></svg>