<svg xmlns="http://www.w3.org/2000/svg" viewBox="0 0 48 60.55"><defs><style>.cls-1{isolation:isolate;}.cls-2{fill:#221f20;opacity:0.3;}.cls-10,.cls-2,.cls-6,.cls-7{mix-blend-mode:multiply;}.cls-3{fill:none;}.cls-4{fill:#77583a;}.cls-5{fill:#753760;}.cls-6{fill:#d1a063;opacity:0.55;}.cls-12,.cls-7{fill:#c28655;}.cls-10,.cls-8,.cls-9{fill:#818386;}.cls-12,.cls-9{mix-blend-mode:screen;}.cls-11{fill:#6b6c6f;}.cls-13{fill:#994f88;}</style></defs><g class="cls-1"><g id="Layer_1" data-name="Layer 1"><path class="cls-2" d="M43.79,52.42c0,3.76-8.7,6.8-19.42,6.8s-19.43-3-19.43-6.8,8.7-6.8,19.43-6.8S43.79,48.66,43.79,52.42Z"/><path class="cls-3" d="M6.31,21v-1.3C6.29,20.5,6.31,21,6.31,21Z"/><path class="cls-4" d="M42.42,38.8V17.16c0-4-2.46-3.85-2.46-3.85H9.37c-2.53,0-3,4.22-3.06,6.42V38.8s-.59,7.94.57,12.08c0,0,0,0,0,.08,0,3.3,7.83,6,17.5,6s17.49-2.68,17.49-6a.31.31,0,0,0,0-.08C43,46.75,42.42,38.8,42.42,38.8Z"/><path class="cls-5" d="M41.66,37.73V17c0-3.79-2.35-3.69-2.35-3.69H10c-2.43,0-2.86,4-2.93,6.15V37.73s-.56,7.62.55,11.58c0,0,0,.06,0,.08,0,3.16,7.51,5.72,16.77,5.72s16.76-2.56,16.76-5.72a.31.31,0,0,0,0-.08C42.23,45.36,41.66,37.73,41.66,37.73Z"/><path class="cls-6" d="M41.66,37.73V17c0-3.79-2.35-3.69-2.35-3.69H10c-1.43,0-2.17,1.41-2.55,3a3.46,3.46,0,0,1,1.28-.18,8.54,8.54,0,0,1,1.59.28c.62.13,1.24.29,1.86.47,1.19.33,2.38.69,3.58,1a26.94,26.94,0,0,0,4.11.7,49.79,49.79,0,0,0,8.1.13,46.79,46.79,0,0,0,8.23-1.35.11.11,0,0,1,.12.16,3.16,3.16,0,0,1-.59.77,7.55,7.55,0,0,1-1.95,1.3,21,21,0,0,1-2.55,1c-1.42.49-2.89.84-4.27,1.43A19.9,19.9,0,0,0,23.27,24c-.77.54-2.09,1.64-1.19,2.64a5.09,5.09,0,0,0,2.13,1.15,19.62,19.62,0,0,0,2.26.56,5.58,5.58,0,0,1,1.74.58,2.83,2.83,0,0,1,1.17,1.45,10.15,10.15,0,0,1,.47,3.15c.07,1.38.08,2.76.07,4.14,0,2.79-.09,5.58,0,8.37s-.16,5.87-.25,8.8c6.67-.76,11.49-2.91,11.49-5.44a.31.31,0,0,0,0-.08C42.23,45.36,41.66,37.73,41.66,37.73Z"/><path class="cls-7" d="M41.66,37.73V17c0-3.79-2.35-3.69-2.35-3.69H15.62a3,3,0,0,0,.8,1.34,10,10,0,0,0,4.23,2.24,20.9,20.9,0,0,0,4.7.91,9.29,9.29,0,0,0,1.18,0l2.62-.13,2.62-.13c.74,0,1.47-.06,2.2-.16a12.89,12.89,0,0,1,3.66-.3,2.43,2.43,0,0,1,1.87,1.3,6.47,6.47,0,0,1,.65,2.49,21,21,0,0,1,0,3.07c-.11,1.94.57,23.71-1.32,26.48-.36.52-.08,1.27-.11,1.91,1.51-.86,2.38-1.87,2.38-2.94a.31.31,0,0,0,0-.08C42.23,45.36,41.66,37.73,41.66,37.73Z"/><path class="cls-8" d="M40.32,7.8c-3.24-1.86-9.17-3.11-15.95-3.11S11.65,5.94,8.41,7.8H5.79V11c0,3.5,8.32,6.34,18.58,6.34S42.94,14.54,42.94,11V7.8Z"/><path class="cls-9" d="M11.94,6.34c-.73.23-1.44.47-2.06.73V15a21.34,21.34,0,0,0,2.06.74Z"/><path class="cls-10" d="M40.32,7.8a26,26,0,0,0-9-2.64V16.92C38.13,16,42.94,13.7,42.94,11V7.8Z"/><path class="cls-11" d="M42.94,7.8c0,3.5-8.32,6.34-18.57,6.34S5.79,11.3,5.79,7.8s8.32-6.35,18.58-6.35S42.94,4.29,42.94,7.8Z"/><path class="cls-12" d="M9.27,16.35s-1.64.55-1.68,5.56,0,24.38,0,24.38S7.34,49.66,9.27,51v-29s-.07-3.6,2.67-4.53Z"/><path class="cls-6" d="M15.53,52.57a4,4,0,0,1-2.47-3.91,3.78,3.78,0,0,1,3.16-3.34,3.1,3.1,0,0,1-.4-3,4.61,4.61,0,0,1,2.1-2.3,4.27,4.27,0,0,1,4.76.19,4.5,4.5,0,0,1,7.57,1.59,2.67,2.67,0,0,1,2.14-.59A3.91,3.91,0,0,1,32.25,49,4.14,4.14,0,0,1,25,52.26a.68.68,0,0,0-1-.31,4.31,4.31,0,0,1-2.31,0c-.82-.22-1.18-.61-2-.23C18.32,52.45,17.24,53.23,15.53,52.57Z"/><path class="cls-13" d="M16.16,53.49a3.75,3.75,0,0,1-1.3-3.84,2.2,2.2,0,0,1,1.24-1.56,15.62,15.62,0,0,1,1.57-.22c1-.25,1.62-1.25,2.59-1.56a2.57,2.57,0,0,1,2.66,1,5,5,0,0,1,1,2.8,3.53,3.53,0,0,1-.06,1.17C23.12,54,18.18,55.06,16.16,53.49Z"/><path class="cls-13" d="M33.2,43.31a3.14,3.14,0,0,0-1.6.9c-.37.36-.86,3.4-.13,4.15a4,4,0,0,0,2.83,1.12,3,3,0,0,0,2.15-.75,3.06,3.06,0,0,0,.73-2.41,2.14,2.14,0,0,0-.79-1.69c-.51-.33-1.08-.46-1.56-.8A1.9,1.9,0,0,0,33.2,43.31Z"/><path class="cls-13" d="M24.37,48.68a4,4,0,0,0,4.62.13,5.23,5.23,0,0,0,2.21-4.22,3.63,3.63,0,0,0-.79-2.52A2,2,0,0,0,28,41.58a6.47,6.47,0,0,0-1.16,1.23c-1.06,1.12-2.75.57-3.39,2.12A3.37,3.37,0,0,0,24.37,48.68Z"/></g></g></svg>