<svg width="596" height="52" viewBox="0 0 596 52" fill="none" xmlns="http://www.w3.org/2000/svg">
<path d="M213.88 37.67C213.67 37.6235 213.455 37.5967 213.24 37.59C211.24 37.59 211.24 37.59 211.3 39.68C211.37 43.12 209.3 45.51 205.73 45.94C203.823 46.1748 201.902 46.285 199.98 46.27C196.38 46.27 192.76 46.27 189.19 45.92C187.551 45.8773 185.911 45.9408 184.28 46.11C181.28 46.18 178.28 46.31 175.28 46.11C173.76 46.01 172.28 45.21 170.78 44.84C170.117 44.7072 169.432 44.7312 168.78 44.91C167.28 45.31 165.78 46.21 164.34 46.21C159.17 46.21 154 45.88 148.82 45.86C144.98 45.86 141.14 46.27 137.3 46.24C134.67 46.24 132.04 45.75 129.41 45.49C129.123 45.4349 128.827 45.4349 128.54 45.49C124.13 46.81 119.62 46.49 115.18 45.93C113.469 45.7349 111.741 45.7349 110.03 45.93C107.477 46.1566 104.913 46.2534 102.35 46.22C96.87 46.22 91.35 46.28 85.91 46.22C84.3905 46.1105 82.8781 45.9168 81.38 45.64C81.0066 45.5699 80.6234 45.5699 80.25 45.64C75.71 47 71.25 47.22 66.87 45.01C66.2184 44.8095 65.5216 44.8095 64.87 45.01C63.19 45.34 61.54 46.09 59.87 46.12C55.19 46.2 50.5 46.12 45.87 45.85C44.68 45.79 43.55 44.93 42.37 44.49C41.9249 44.2564 41.4131 44.1823 40.92 44.28C37.48 45.94 33.79 46.15 30.08 46.18C23.5733 46.24 17.0567 46.24 10.53 46.18C8.35 46.18 6.17 45.92 4.53 44.28C3.95391 43.7622 3.48898 43.1329 3.16339 42.4301C2.83781 41.7273 2.65836 40.9657 2.63592 40.1914C2.61347 39.4172 2.74851 38.6465 3.03284 37.926C3.31717 37.2055 3.74487 36.5503 4.29 36C6.52 33.85 7.08 31.25 7.86 28.61C9.23 23.94 10.53 19.25 11.86 14.61C11.996 14.0507 11.9683 13.464 11.78 12.92C11.3534 11.9139 11.1849 10.8172 11.2898 9.72947C11.3946 8.64173 11.7696 7.59742 12.3806 6.69139C12.9915 5.78536 13.8192 5.04631 14.7883 4.54137C15.7574 4.03643 16.8374 3.78159 17.93 3.8C24.4 3.7 30.87 3.71 37.33 3.8C41.4963 3.73873 45.5496 5.15594 48.77 7.8C48.96 7.72 49.1 7.7 49.13 7.64C50.81 4.64 53.47 3.74 56.72 3.78C61.85 3.84 66.99 3.78 72.12 3.78C77.02 3.78 81.64 4.70001 85.47 8.05C85.71 8.21315 85.9605 8.36014 86.22 8.49C86.5904 7.37719 87.2476 6.38171 88.1254 5.60395C89.0033 4.82619 90.0707 4.29364 91.22 4.06C91.802 3.9051 92.3986 3.81126 93 3.78C100.75 3.78 108.5 3.69 116.25 3.78C122.25 3.85 125.6 8.29 124.25 14.13C124.203 14.4237 124.237 14.7247 124.35 15C127.18 9.64 130.51 4.74 137 3.56C143 2.47 148.81 2.95001 153.86 7.32C154.2 6.96 154.58 6.61001 154.86 6.21001C155.461 5.4611 156.222 4.85664 157.087 4.44124C157.952 4.02585 158.9 3.81012 159.86 3.81C164.35 3.72 168.86 3.75 173.34 3.81C174.281 3.77611 175.219 3.94219 176.091 4.29728C176.963 4.65238 177.75 5.18841 178.4 5.87C179 6.52 179.4 6.5 180.15 5.99C184.49 2.81 188.43 2.69 193.02 5.47C193.219 5.5569 193.435 5.59669 193.652 5.58628C193.869 5.57587 194.08 5.51555 194.27 5.41C195.794 4.29722 197.644 3.72053 199.53 3.77H221.6C225.67 3.77 229.42 5.36 230.68 10.89C234.25 5.94001 238.68 3.14001 244.78 3.13001C250.62 3.13001 255.86 4.29001 259.51 9.51C260.45 8.7 261.29 7.88 262.22 7.2C265.851 4.3885 270.439 3.11382 275 3.65001C277.24 3.93001 279.44 4.49001 281.67 4.84001C282.339 4.96015 283.028 4.90503 283.67 4.68C286.75 3.4 289.75 3.16 292.74 4.95C292.969 5.05642 293.218 5.11157 293.47 5.11157C293.722 5.11157 293.971 5.05642 294.2 4.95C296.059 4.02447 298.126 3.59721 300.2 3.71C309.28 3.71 318.37 3.91001 327.45 3.65001C333.45 3.48001 337.45 7.65 335.65 13.59C334.909 16.3771 333.831 19.0636 332.44 21.59C330.54 24.71 326.04 25.72 322.71 24.11C321.23 23.41 320.9 23.8 320.54 25.19C319.7 28.47 318.65 31.7 317.77 34.98C317.596 35.6854 317.634 36.4263 317.88 37.11C318.25 38.0029 318.413 38.9677 318.359 39.9326C318.304 40.8975 318.033 41.8377 317.565 42.6833C317.097 43.5288 316.445 44.2581 315.656 44.8167C314.867 45.3754 313.963 45.749 313.01 45.91C310.713 46.2087 308.395 46.3224 306.08 46.25C303.17 46.25 300.26 46.25 297.36 46.02C296.116 46.0006 294.914 45.5674 293.943 44.7888C292.972 44.0101 292.289 42.9304 292 41.72C291.25 39.02 292.19 36.72 294.2 34.78C294.903 34.1411 295.448 33.3466 295.79 32.46C296.6 30.01 297.21 27.46 297.97 24.77C297.461 24.8066 296.949 24.8066 296.44 24.77C295.035 24.6486 293.645 24.3907 292.29 24C291.23 23.62 290.52 23.6 289.81 24.59C292.2 29.81 291.34 34.78 288.3 39.51C286 43.1 282.38 44.81 278.47 45.82C274.45 46.9848 270.165 46.8589 266.22 45.46C265.319 45.0286 264.327 44.8224 263.329 44.859C262.331 44.8955 261.357 45.1739 260.49 45.67C258.56 46.67 256.36 46.31 254.26 45.81C253.597 45.7057 252.923 45.7057 252.26 45.81C251.77 45.81 251.26 46.11 250.81 46.11C245.54 46.11 240.26 46.2 235 45.94C233.628 45.87 232.252 45.87 230.88 45.94C226.8 46.165 222.71 46.165 218.63 45.94C216.07 45.78 213.98 43.09 213.83 40.5C213.84 39.56 213.88 38.64 213.88 37.67ZM39.88 25.16C41.3 24.51 42.69 24 44 23.27C48 20.92 49.58 14.34 45 11.05C43.4805 9.87673 41.6679 9.14339 39.76 8.93001C32.76 8.62001 25.76 8.68 18.76 8.61C18.4229 8.62418 18.088 8.67107 17.76 8.75C16.25 9.06 15.76 9.95 16.53 11.32C16.8319 11.8797 17.012 12.4969 17.0586 13.1311C17.1051 13.7653 17.017 14.4022 16.8 15C14.9333 21.42 13.12 27.85 11.36 34.29C10.9 35.94 10.36 37.48 8.68 38.34C8.47081 38.4726 8.29054 38.6461 8.15 38.85C7.9305 39.0373 7.77328 39.287 7.69926 39.5659C7.62525 39.8448 7.63796 40.1397 7.7357 40.4112C7.83343 40.6826 8.01156 40.9179 8.24636 41.0856C8.48116 41.2534 8.76148 41.3456 9.05 41.35C9.49059 41.4103 9.93576 41.4304 10.38 41.41C16.98 41.41 23.59 41.41 30.2 41.41C32.0709 41.3954 33.9374 41.2248 35.78 40.9C37.3532 40.7071 38.855 40.1312 40.1539 39.2229C41.4528 38.3146 42.509 37.1015 43.23 35.69C45.1 31.97 44.45 28.24 41.55 26.16C41.0114 25.7975 40.4539 25.4637 39.88 25.16ZM76.43 25.08L78.43 24.43C83.43 22.82 85.83 17.13 83.2 12.93C82.3824 11.6812 81.2669 10.6554 79.9542 9.9449C78.6415 9.23442 77.1727 8.8616 75.68 8.86C69.33 8.61 63 8.65 56.71 8.58C56.2158 8.58324 55.7233 8.63685 55.24 8.74C53.72 9.02 53.14 9.97 53.88 11.28C54.2039 11.9148 54.39 12.6109 54.4262 13.3226C54.4624 14.0343 54.3478 14.7456 54.09 15.41C52.81 20 51.61 24.52 50.17 29C49.05 32.51 49.17 36.6 45.49 39C44.65 39.56 44.98 40.58 45.9 41C46.484 41.2504 47.1147 41.3732 47.75 41.36C50.96 41.36 54.16 41.36 57.37 41.36C58.651 41.4136 59.9342 41.3768 61.21 41.25C61.5349 41.1957 61.8446 41.0732 62.1187 40.8905C62.3927 40.7078 62.625 40.469 62.8 40.19C62.8368 39.8949 62.8034 39.5954 62.7027 39.3156C62.6019 39.0358 62.4365 38.7838 62.22 38.58C60.78 37.35 60.77 35.9 61.22 34.28C61.67 32.66 62.11 31.28 62.53 29.75C63.21 27.28 63.53 27.07 65.99 27.52C67.65 27.82 68.25 28.69 67.91 30.34C67.57 31.99 67.16 33.71 66.91 35.4C66.6784 36.4967 66.8363 37.6398 67.3564 38.6327C67.8766 39.6255 68.7265 40.4061 69.76 40.84C71.1376 41.5207 72.6534 41.8748 74.19 41.8748C75.7266 41.8748 77.2424 41.5207 78.62 40.84C79.9732 40.1089 81.1452 39.0838 82.05 37.84C82.81 36.84 82.34 35.78 81.28 35.7C79.57 35.57 79.37 34.64 79.66 33.28C79.79 32.66 79.94 32.03 80.08 31.41C80.8 28.13 79.71 26.13 76.43 25.08ZM170.28 20.8L169.88 20.52C171.2 17.52 170.67 13.81 173.93 11.59C174.234 11.3759 174.483 11.0932 174.656 10.7648C174.83 10.4363 174.924 10.0715 174.93 9.7C174.8 9.21 173.76 8.7 173.09 8.7C171.37 8.57664 169.644 8.54326 167.92 8.60001C165.3 8.60001 162.69 8.6 160.08 8.79C158.44 8.9 157.9 9.95001 158.66 11.35C158.969 11.9663 159.147 12.6397 159.183 13.3281C159.219 14.0164 159.113 14.7048 158.87 15.35C157.06 21.68 155.25 28.01 153.5 34.35C153.171 35.9489 152.267 37.3718 150.96 38.35C150.39 38.76 150.2 39.7 149.83 40.35C150.51 40.8094 151.265 41.1477 152.06 41.35C155.06 41.46 157.98 41.4 160.94 41.4C162.17 41.4 163.41 41.4 164.64 41.33C166.23 41.19 167.02 40.04 166.27 38.81C165.908 38.2265 165.686 37.5676 165.62 36.8844C165.554 36.2011 165.647 35.5118 165.89 34.87C166.34 33.42 166.63 31.87 167.13 30.48C167.505 29.8372 167.969 29.2512 168.51 28.74C168.77 29.37 168.88 29.58 168.95 29.81C169.82 32.57 170.64 35.35 171.57 38.1C171.792 38.9715 172.286 39.7497 172.98 40.3216C173.674 40.8934 174.532 41.2291 175.43 41.28C178.34 41.41 181.25 41.41 184.16 41.28C184.53 41.2448 184.888 41.1268 185.206 40.9346C185.525 40.7425 185.796 40.4812 186 40.17C186.23 39.71 185.78 38.83 185.47 38.17C184.52 36.36 183.31 34.67 182.54 32.79C181.42 30.02 180.62 27.11 179.64 24.28C178.32 20.51 178.3 20.51 181.4 17.98C181.478 17.9184 181.551 17.8516 181.62 17.78C182.18 17.22 182.62 17.24 183.26 17.78C183.954 18.4184 184.818 18.8429 185.747 19.0025C186.677 19.1621 187.633 19.0502 188.5 18.68C189.571 18.2282 190.472 17.4511 191.077 16.4587C191.682 15.4663 191.959 14.3088 191.87 13.15C191.913 12.0804 191.578 11.0299 190.923 10.183C190.268 9.33619 189.336 8.74734 188.29 8.52001C187.35 8.29797 186.369 8.32313 185.442 8.59301C184.515 8.86289 183.674 9.3683 183 10.06C179.16 13.3 175.37 16.6 171.55 19.87C171.11 20.2 170.69 20.49 170.28 20.8ZM98.35 36.45C98.3181 36.1542 98.3181 35.8558 98.35 35.56C99.09 32.86 99.82 30.15 100.64 27.47C100.76 27.05 101.28 26.47 101.64 26.47C102.385 26.5191 103.109 26.7344 103.76 27.1C104.08 27.27 104.2 27.83 104.4 28.23C104.97 29.34 105.66 30.23 107.1 30.11C108.54 29.99 109.1 28.98 109.49 27.82C110.15 25.71 110.77 23.58 111.33 21.44C111.78 19.7 110.7 18.53 108.97 19.06C107.907 19.5287 106.901 20.1158 105.97 20.81C105.258 21.304 104.485 21.704 103.67 22C102.67 22.28 102.2 21.77 102.53 20.68C102.86 19.59 103.18 18.52 103.45 17.42C104.45 13.51 104.45 13.51 108.39 13.52C108.79 13.52 109.18 13.52 109.57 13.52C110.73 13.42 111.28 14.06 111.57 15.07C111.86 16.08 112.21 17.23 112.57 18.29C112.776 18.8266 113.158 19.2767 113.655 19.5659C114.151 19.8551 114.732 19.9659 115.3 19.88C115.869 19.9446 116.442 19.8079 116.921 19.4937C117.4 19.1795 117.753 18.7077 117.92 18.16C118.44 16.52 119.02 14.89 119.38 13.16C120.03 10.16 119.11 8.97 116.03 8.61C115.442 8.54849 114.851 8.52177 114.26 8.53H95.18C94.3435 8.52156 93.5076 8.5784 92.68 8.7C91 9 90.49 10 91.33 11.45C91.6217 11.9316 91.8042 12.4713 91.8647 13.0311C91.9252 13.591 91.8621 14.1572 91.68 14.69C90 20.5 88.44 26.35 86.68 32.14C86.02 34.34 85.91 36.84 83.56 38.28C82.97 38.65 82.76 39.61 82.37 40.28C83.11 40.65 83.84 41.28 84.59 41.34C88.23 41.46 91.89 41.4 95.54 41.4H108.27C109.19 41.4813 110.108 41.2362 110.865 40.7078C111.622 40.1793 112.169 39.4013 112.41 38.51C112.99 36.63 113.59 34.76 114.08 32.85C114.195 32.4921 114.212 32.1101 114.131 31.7431C114.05 31.3762 113.872 31.0375 113.617 30.7617C113.361 30.4859 113.037 30.283 112.678 30.1738C112.318 30.0645 111.936 30.0529 111.57 30.14C110.524 30.3512 109.54 30.7955 108.69 31.44C107.771 32.1699 106.965 33.0327 106.3 34C104.28 36.83 101.46 36.82 98.35 36.45ZM272.57 41.54L272.65 41.97C275.021 41.5908 277.361 41.0359 279.65 40.31C285.35 38.05 287.92 31.53 285.26 26.6C284.05 24.34 281.98 22.98 279.91 21.6C277.902 20.3604 275.975 18.9943 274.14 17.51C273.853 17.1406 273.651 16.7127 273.547 16.2566C273.443 15.8005 273.441 15.3272 273.54 14.87C273.75 13.87 274.79 13.48 275.89 13.51C276.729 13.5615 277.549 13.7778 278.304 14.1468C279.059 14.5157 279.734 15.0299 280.29 15.66C281.56 16.9 282.67 18.3 283.98 19.49C285.75 21.08 287.73 20.57 288.5 18.34C289.27 16.11 289.92 13.84 290.58 11.58C291.16 9.58 289.94 8.15 287.94 8.58C286.832 8.77853 285.785 9.23027 284.88 9.9C284.449 10.312 283.89 10.5652 283.296 10.6178C282.702 10.6705 282.107 10.5197 281.61 10.19C279.536 9.07561 277.244 8.42674 274.893 8.28858C272.543 8.15042 270.19 8.52629 268 9.39001C262.6 11.54 259.87 17.78 262.11 22.74C263.29 25.34 265.52 26.89 267.79 28.4C269.605 29.5014 271.345 30.7207 273 32.05C273.307 32.4005 273.525 32.8196 273.637 33.272C273.748 33.7245 273.749 34.197 273.64 34.65C273.387 35.0405 273.054 35.3726 272.662 35.6243C272.271 35.876 271.83 36.0416 271.37 36.11C270.359 36.2435 269.331 36.0979 268.397 35.689C267.462 35.2801 266.658 34.6234 266.07 33.79C264.97 32.46 263.97 31.04 262.77 29.79C260.77 27.71 258.32 28.28 257.37 30.99C256.58 33.26 255.9 35.58 255.12 37.86C254.77 38.86 254.43 40.08 255.47 40.67C256.377 41.1952 257.452 41.3493 258.47 41.1C259.751 40.5354 260.94 39.7839 262 38.87C262.212 38.6368 262.508 38.4974 262.823 38.4824C263.138 38.4674 263.447 38.578 263.68 38.79C266.248 40.6842 269.381 41.6534 272.57 41.54ZM239.57 31.54C238.57 34.1 238.73 36.78 236.24 38.3C235.46 38.78 234.62 39.52 235.16 40.44C235.416 40.7444 235.734 40.991 236.093 41.1634C236.451 41.3358 236.842 41.4301 237.24 41.44C240.74 41.54 244.24 41.49 247.75 41.44C248.588 41.4769 249.428 41.4435 250.26 41.34C251.52 41.12 252.26 40 251.62 39.11C250.27 37.29 250.94 35.58 251.45 33.78C252.99 28.44 254.55 23.11 255.98 17.78C256.529 16.0828 256.401 14.2389 255.622 12.6341C254.843 11.0294 253.473 9.78808 251.8 9.17C246.11 6.87 238 7 234.08 15C231.82 19.65 229.54 24.28 227.31 29C225.53 32.72 224.13 36.72 219.7 38.27C219.675 38.2737 219.652 38.2828 219.631 38.2966C219.61 38.3105 219.593 38.3287 219.58 38.35C219.3 38.94 218.69 39.65 218.84 40.1C218.982 40.4172 219.198 40.696 219.469 40.9134C219.74 41.1307 220.059 41.2804 220.4 41.35C223.46 41.47 226.52 41.48 229.58 41.35C230.98 41.35 231.5 40.1 230.85 38.9C230.38 37.7427 230.235 36.4791 230.431 35.2456C230.627 34.012 231.155 32.8552 231.96 31.9C232.124 31.724 232.342 31.6079 232.58 31.57C234.79 31.5 237 31.51 239.54 31.51L239.57 31.54ZM135.51 31.54C134.56 34.09 134.63 36.74 132.2 38.32C131.61 38.71 131.37 39.63 130.97 40.32C131.71 40.69 132.43 41.32 133.18 41.39C136.33 41.51 139.49 41.45 142.65 41.45C143.73 41.45 144.83 41.45 145.9 41.39C147.6 41.22 148.22 40.02 147.32 38.62C146.987 38.0652 146.785 37.4417 146.73 36.797C146.674 36.1523 146.767 35.5035 147 34.9C148.57 29.41 150.18 23.9 151.74 18.46C152.91 14.31 151.52 10.78 147.81 9.18001C142.6 6.92001 134.03 6.81 130.15 14.75C127.56 20.05 124.91 25.33 122.43 30.68C120.97 33.83 119.43 36.78 115.88 38.05C115.75 38.1 115.57 38.18 115.52 38.29C115.23 38.92 114.69 39.62 114.8 40.18C114.935 40.4761 115.141 40.7348 115.399 40.9334C115.657 41.1321 115.959 41.2648 116.28 41.32C119.28 41.42 122.39 41.45 125.45 41.32C126.96 41.26 127.45 40.07 126.72 38.81C125.72 37.11 126.4 33.03 127.92 31.75C128.068 31.6202 128.254 31.5428 128.45 31.53C130.73 31.51 133 31.52 135.48 31.52L135.51 31.54ZM208.51 23.54L208 23C208.8 20.12 209.59 17.24 210.43 14.38C210.491 14.2269 210.588 14.0911 210.714 13.9847C210.839 13.8783 210.989 13.8046 211.15 13.77C212.86 13.77 214.7 13.51 216.25 14.04C217.01 14.31 217.25 16.04 217.73 17.17C217.81 17.3492 217.88 17.5329 217.94 17.72C218.102 18.4007 218.511 18.9972 219.087 19.3942C219.663 19.7913 220.366 19.9608 221.06 19.87C221.78 19.9486 222.505 19.7583 223.093 19.3357C223.682 18.913 224.094 18.2878 224.25 17.58C224.73 16.03 225.16 14.46 225.56 12.89C226.16 10.54 225.15 8.82 222.72 8.78C214.83 8.63 206.95 8.7 199.06 8.69C198.964 8.67959 198.866 8.67959 198.77 8.69C197.07 8.99 196.77 9.83001 197.34 11.43C197.775 12.5006 197.896 13.673 197.69 14.81C196.07 20.92 194.31 27 192.55 33C191.96 35 191.68 37.16 189.55 38.4C189.259 38.618 189.028 38.9073 188.881 39.2401C188.734 39.5728 188.675 39.9378 188.71 40.3C188.912 40.6106 189.186 40.8687 189.507 41.053C189.829 41.2372 190.19 41.3425 190.56 41.36C195.1 41.4467 199.637 41.4467 204.17 41.36C204.567 41.3359 204.954 41.2217 205.3 41.0259C205.647 40.8301 205.944 40.5579 206.17 40.23C206.39 39.81 205.84 38.79 205.38 38.23C204.94 37.8389 204.625 37.3269 204.474 36.7579C204.322 36.1889 204.342 35.5879 204.53 35.03C205.1 33.31 205.48 31.52 206.05 29.8C206.139 29.5057 206.285 29.2321 206.481 28.9951C206.677 28.7581 206.918 28.5626 207.19 28.42C207.403 28.3515 207.627 28.3257 207.85 28.3439C208.072 28.3621 208.289 28.4241 208.488 28.5263C208.687 28.6284 208.864 28.7688 209.008 28.9393C209.152 29.1098 209.262 29.3072 209.33 29.52C209.631 30.1965 210.018 30.8316 210.48 31.41C211.96 33.25 214.22 33.06 215.04 30.86C216.052 28.1453 216.881 25.3658 217.52 22.54C218.04 20.3 216.32 19.01 214.22 19.99C213.179 20.6288 212.177 21.3301 211.22 22.09C210.322 22.6088 209.398 23.0794 208.45 23.5L208.51 23.54ZM306.15 13.77C306.07 14.21 306.05 14.46 305.99 14.68C304.29 20.74 302.587 26.8 300.88 32.86C300.3 34.93 299.99 37.1 297.88 38.38C297.33 38.71 297.14 39.63 296.78 40.28C297.52 40.66 298.24 41.36 298.99 41.38C302.93 41.49 306.88 41.38 310.83 41.38C311.078 41.3833 311.325 41.3666 311.57 41.33C313.4 41.05 313.84 40.01 313.2 38.33C312.774 37.2567 312.666 36.083 312.89 34.95C314.64 28.4 316.53 21.88 318.44 15.37C318.63 14.73 319.16 13.87 319.7 13.72C320.189 13.6187 320.699 13.7042 321.128 13.9596C321.557 14.215 321.875 14.6218 322.02 15.1C322.47 16.1 322.94 17.17 323.44 18.18C323.726 18.7047 324.151 19.1405 324.668 19.4394C325.186 19.7384 325.775 19.8889 326.373 19.8744C326.97 19.8599 327.552 19.6811 328.054 19.3574C328.557 19.0338 328.96 18.578 329.22 18.04C329.811 16.5304 330.325 14.9917 330.76 13.43C331.85 9.37001 331.23 8.58 327.03 8.57C318.403 8.57 309.77 8.57 301.13 8.57C300.046 8.52134 298.96 8.61549 297.9 8.85001C297.007 9.04305 296.222 9.57317 295.71 10.33C294.806 12.6015 294.087 14.9425 293.56 17.33C293.468 17.646 293.459 17.9802 293.534 18.3007C293.609 18.6211 293.764 18.917 293.986 19.16C294.208 19.4029 294.489 19.5848 294.801 19.6881C295.113 19.7914 295.447 19.8127 295.77 19.75C297.014 19.6066 298.201 19.1489 299.22 18.42C300.336 17.4502 301.342 16.3603 302.22 15.17C302.694 14.6267 303.296 14.2104 303.972 13.959C304.648 13.7075 305.376 13.6288 306.09 13.73L306.15 13.77ZM190.15 23.77C189.04 23.83 188.22 23.89 187.4 23.92C184.79 24.01 184.77 24.01 185.6 26.54C186.15 28.22 186.77 29.88 187.36 31.54H187.91C188.55 29 189.28 26.47 190.06 23.74L190.15 23.77ZM120.45 23.53C118.77 24.05 117.33 24.44 115.94 24.97C115.7 25.06 115.45 25.97 115.58 26.08C116.38 26.8 117.29 27.41 118.28 28.15L120.45 23.53ZM223.96 24.73L223.46 24.27C222.96 24.66 222.19 24.95 222.01 25.46C221.32 27.41 220.82 29.46 220.25 31.46L220.63 31.61L223.96 24.73Z" fill="#E86434"/>
<path d="M548.57 25.1C550.13 26.49 551.1 27.31 552.03 28.16C552.96 29.01 553.09 28.16 553.36 27.6C555.04 24.15 556.61 20.6 558.42 17.26C559.938 14.184 561.711 11.2404 563.72 8.46C565.013 6.82563 566.656 5.50263 568.529 4.58873C570.402 3.67484 572.456 3.1934 574.54 3.18C578.64 2.98 582.63 3.28 586.25 5.45C591.13 8.38 592.81 13.45 591.6 18.74C590.32 24.29 588.54 29.74 587.03 35.22C586.876 35.8145 586.904 36.4415 587.11 37.02C588.68 41.28 586.39 45.66 581.87 45.97C576.56 46.2583 571.237 46.2316 565.93 45.89C564.52 45.82 563.19 45.89 561.8 45.89C557.775 46.17 553.735 46.17 549.71 45.89C548.165 45.5849 546.575 45.5849 545.03 45.89C543.632 46.1983 542.2 46.326 540.77 46.27C534.45 46.27 528.14 46.27 521.82 46.27C516.7 46.27 516.7 46.27 512.65 43.35C512.01 43.85 511.38 44.4 510.65 44.85C505.57 48.18 499.13 46.49 496 41C495.09 39.43 494.26 37.83 493.18 36.33C493.415 37.0795 493.612 37.8405 493.77 38.61C493.952 39.5323 493.929 40.4836 493.702 41.3958C493.474 42.3081 493.048 43.159 492.454 43.8877C491.86 44.6165 491.113 45.2051 490.265 45.6117C489.417 46.0183 488.49 46.2329 487.55 46.24C484.25 46.31 480.96 46.03 477.66 45.95C476.78 45.95 475.9 46.14 475.01 46.14C470.14 46.14 465.25 46.26 460.38 45.97C458.567 45.8716 456.75 45.8883 454.94 46.02C451.16 46.28 447.24 46.57 443.61 45.8C441.536 45.3796 439.387 45.5282 437.39 46.23C433.03 47.53 428.31 45.23 425.82 40.87C424.99 39.41 424.2 37.93 423.3 36.28C423.614 37.7185 423.765 39.1877 423.75 40.66C423.609 42.0814 422.973 43.408 421.953 44.4079C420.933 45.4078 419.594 46.0174 418.17 46.13C415.026 46.405 411.864 46.405 408.72 46.13C406.25 45.94 405.56 45.2 403.91 42.89C400.967 44.1238 397.963 45.2085 394.91 46.14C388.53 47.76 382.37 47.14 376.78 43.37C375.939 42.7709 375.174 42.0725 374.5 41.29C373.81 40.54 373.3 40.49 372.56 41.29C371.194 42.7445 369.551 43.9106 367.727 44.7196C365.903 45.5285 363.935 45.9639 361.94 46C353.71 46.24 345.46 46.3 337.22 46.28C335.648 46.2559 334.105 45.8546 332.72 45.11C331.946 44.6691 331.286 44.0545 330.79 43.3147C330.294 42.5748 329.977 41.73 329.864 40.8467C329.75 39.9634 329.844 39.0659 330.136 38.2248C330.429 37.3837 330.913 36.6221 331.55 36C333.78 33.78 334.38 31.17 335.17 28.48C336.52 23.86 337.79 19.21 339.05 14.56C339.22 14.0198 339.22 13.4402 339.05 12.9C338.626 11.8817 338.464 10.7731 338.58 9.67609C338.695 8.57904 339.084 7.52854 339.711 6.62092C340.338 5.71329 341.183 4.97758 342.168 4.48123C343.153 3.98487 344.247 3.74376 345.35 3.78C351.67 3.72 357.99 3.66 364.35 3.78C369.7 3.87 374.59 5.39 378 10C378.67 10.9 379.14 10.19 379.55 9.8C381.956 7.52376 384.805 5.7673 387.92 4.64C392.617 2.89687 397.707 2.49522 402.62 3.48C406.186 4.09429 409.456 5.84877 411.94 8.48C413.41 4.54 416.47 3.66 420.08 3.73C422.08 3.73 424.08 3.73 426.15 3.73C427.637 3.68952 429.108 4.04279 430.415 4.75401C431.721 5.46524 432.817 6.50915 433.59 7.78C433.87 8.19 434.22 8.56 434.65 9.08C435.85 5.08 438.65 3.79 442.21 3.74C444.53 3.74 446.85 3.68 449.21 3.79C452.71 3.94 454.61 5.79 454.95 9.32C455 9.81 455.03 10.32 455.1 11.2C455.64 10.57 455.98 10.2 456.27 9.82C457.678 7.78341 459.552 6.11338 461.737 4.94951C463.923 3.78564 466.354 3.16175 468.83 3.13C473.53 2.98 477.97 3.57 481.83 6.64C482.046 6.7131 482.277 6.72941 482.501 6.68739C482.726 6.64536 482.935 6.54639 483.11 6.4C483.873 5.52192 484.824 4.82622 485.892 4.36414C486.96 3.90206 488.117 3.68536 489.28 3.73H496.39C497.855 3.69774 499.303 4.05011 500.589 4.75197C501.875 5.45383 502.955 6.48065 503.72 7.73C503.99 8.13 504.32 8.51 504.78 9.1C506.27 4.6 509.54 3.59 513.48 3.74C516.48 3.85 519.48 3.29 522.4 4.54C522.684 4.58832 522.976 4.56774 523.25 4.48C525.152 4.137 527.072 3.90328 529 3.78C536.253 3.7 543.507 3.7 550.76 3.78C552.531 3.73585 554.265 4.29607 555.675 5.36844C557.086 6.44081 558.089 7.96142 558.52 9.68C558.9 11.0192 558.931 12.4331 558.61 13.7877C558.29 15.1423 557.629 16.3926 556.69 17.42C554.69 19.72 552.49 21.85 550.33 24.01C549.787 24.4392 549.196 24.8049 548.57 25.1ZM367.05 25.19C368.463 24.6284 369.845 23.9908 371.19 23.28C375.71 20.6 376.42 14.28 372.4 11.17C370.825 9.90893 368.918 9.13094 366.91 8.93C360.02 8.59 353.11 8.67 346.21 8.6C345.816 8.6099 345.424 8.66016 345.04 8.75C343.54 9.05 343.04 9.96 343.78 11.32C344.075 11.828 344.259 12.3925 344.321 12.9766C344.383 13.5607 344.322 14.1514 344.14 14.71C342.24 21.27 340.387 27.8433 338.58 34.43C338.444 35.2247 338.144 35.9825 337.7 36.6555C337.256 37.3285 336.677 37.9021 336 38.34C335.715 38.5352 335.473 38.7871 335.29 39.08C335.124 39.2509 335.008 39.4641 334.955 39.6963C334.902 39.9286 334.914 40.1709 334.989 40.397C335.064 40.623 335.2 40.8239 335.382 40.9779C335.564 41.1319 335.785 41.2329 336.02 41.27C336.451 41.3822 336.895 41.4294 337.34 41.41C344.69 41.41 352.04 41.52 359.34 41.31C361.751 41.2246 364.126 40.6887 366.34 39.73C369.83 38.24 371.39 35.2 371.54 31.46C371.64 28.33 369.9 26.45 367.05 25.19ZM388.66 42C392.209 42.1883 395.739 41.3776 398.85 39.66C407.23 34.93 410.79 27.44 410.68 18.08C410.709 16.1866 410.155 14.3301 409.092 12.7628C408.029 11.1955 406.51 9.99343 404.74 9.32C397.63 6.17 387.66 8.32 382.24 14.09C378.501 18.1355 376.18 23.2886 375.63 28.77C375.06 33.47 376.21 37.62 380.63 40.2C383.079 41.5565 385.866 42.1812 388.66 42ZM531.15 36.51C531.72 35.89 532.08 35.45 532.48 35.06C538.76 28.7867 545.037 22.5233 551.31 16.27C551.955 15.6569 552.544 14.9876 553.07 14.27C554.88 11.6 553.77 9.14 550.59 8.7C549.953 8.62184 549.312 8.58843 548.67 8.6C543.78 8.6 538.9 8.6 534.02 8.6C531.55 8.6 529.09 8.68 526.63 8.77C525.855 8.77395 525.104 9.03405 524.492 9.50977C523.881 9.98549 523.444 10.6501 523.25 11.4C522.69 13.03 522.17 14.67 521.73 16.33C521 19.13 522.28 20.44 525.1 19.72C525.852 19.478 526.537 19.0636 527.1 18.51C528.087 17.6182 528.994 16.641 529.81 15.59C531.81 12.94 534.51 13.54 537.6 13.59L534.32 17.08C528.88 22.8067 523.44 28.53 518 34.25C517.563 34.717 517.153 35.2078 516.77 35.72C516.321 36.2195 516.025 36.8381 515.918 37.5015C515.812 38.1649 515.899 38.845 516.17 39.46C516.46 40.0675 516.926 40.5737 517.507 40.9126C518.089 41.2515 518.759 41.4074 519.43 41.36C522.29 41.42 525.16 41.36 528.02 41.42C532.75 41.42 537.49 41.42 542.23 41.42C544.45 41.42 546.04 40.57 546.69 38.34C547.18 36.64 547.69 34.96 548.16 33.25C548.74 30.98 547.45 29.77 545.16 30.25C543.1 30.65 541.92 32.19 540.88 33.67C538.42 37.14 535 36.72 531.15 36.46V36.51ZM437.42 25.91C436.95 25.08 436.7 24.67 436.49 24.25C434.29 19.91 432.07 15.58 429.9 11.25C429.545 10.4316 428.946 9.7423 428.186 9.27543C427.426 8.80855 426.541 8.58672 425.65 8.64C423.65 8.64 421.65 8.64 419.58 8.64C416.83 8.64 416.17 9.64 417.38 12.16C417.625 12.6627 417.766 13.2099 417.794 13.7686C417.821 14.3272 417.735 14.8857 417.54 15.41C416.21 19.94 415.1 24.54 413.64 29.02C412.51 32.52 412.64 36.6 408.96 39.02C407.85 39.75 408.52 41.36 409.96 41.42C412.375 41.545 414.795 41.545 417.21 41.42C418.85 41.32 419.26 40.14 418.5 38.69C417.994 37.928 417.745 37.0238 417.79 36.11C418.98 31.42 420.35 26.77 421.79 21.7C422.21 22.47 422.46 22.87 422.66 23.29C425.06 28.29 427.41 33.23 429.88 38.15C430.418 39.202 431.191 40.1157 432.14 40.82C435.14 42.94 438.99 41.45 440.14 37.59C441.98 31.59 443.57 25.48 445.34 19.44C446.2 16.49 446.39 13.23 449.46 11.26C450.68 10.48 450.09 8.9 448.55 8.81C446.142 8.65499 443.728 8.65499 441.32 8.81C439.58 8.93 439.32 9.94 440.03 11.5C440.529 12.4771 440.728 13.5802 440.6 14.67C440.16 16.98 439.38 19.23 438.73 21.49C438.32 22.78 437.92 24.11 437.42 25.86V25.91ZM491.89 21.64C492.46 22.77 492.89 23.53 493.23 24.31C495.5 29 497.73 33.72 500.07 38.37C500.394 39.15 500.903 39.8395 501.553 40.3795C502.203 40.9195 502.974 41.2937 503.8 41.47C507.09 42.09 509.32 40.72 510.34 37.25C512.12 31.17 513.77 25.04 515.54 18.95C516.34 16.18 516.46 13.04 519.46 11.33C519.688 11.1126 519.858 10.8407 519.952 10.5398C520.047 10.2389 520.063 9.91896 520 9.61C519.869 9.36256 519.679 9.15109 519.447 8.99416C519.215 8.83724 518.948 8.73966 518.67 8.71C516.26 8.64 513.84 8.6 511.43 8.71C509.73 8.82 509.21 10.01 510.21 11.37C510.581 11.9225 510.815 12.5551 510.893 13.2158C510.971 13.8764 510.891 14.5462 510.66 15.17C510.4 16.17 510.06 17.25 509.76 18.29L507.54 25.82C506.98 24.82 506.62 24.17 506.29 23.53C504.23 19.44 502.14 15.38 500.13 11.26C499.75 10.3713 499.098 9.62563 498.268 9.12986C497.438 8.6341 496.473 8.41362 495.51 8.5C493.59 8.5 491.66 8.5 489.74 8.5C486.99 8.5 486.36 9.5 487.52 12.03C487.758 12.4888 487.902 12.991 487.941 13.5065C487.981 14.022 487.916 14.5402 487.75 15.03C486.24 20.16 484.92 25.36 483.36 30.49C482.45 33.49 482.36 36.91 479.18 38.8C478.82 39.01 478.66 40.01 478.83 40.5C478.979 40.7373 479.182 40.9367 479.421 41.0825C479.661 41.2283 479.931 41.3164 480.21 41.34C482.48 41.42 484.75 41.44 487.02 41.34C488.92 41.26 489.51 40.03 488.45 38.46C488.101 37.9838 487.877 37.4276 487.798 36.8424C487.719 36.2571 487.789 35.6615 488 35.11C488.48 33.67 488.83 32.18 489.25 30.71C490.07 27.81 490.92 24.9 491.89 21.59V21.64ZM463.84 31.5C463.833 32.8095 463.55 34.1028 463.009 35.2953C462.468 36.4878 461.681 37.5526 460.7 38.42C460.161 38.9348 459.827 39.6277 459.76 40.37C459.76 40.67 460.66 41.37 461.16 41.37C465.65 41.44 470.16 41.47 474.63 41.37C476.26 41.37 476.63 40.15 476.05 38.64C475.607 37.6885 475.464 36.6247 475.64 35.59C477.07 30.18 478.64 24.79 480.23 19.43C481.68 14.59 480.42 10.7 476.35 9.12C470.54 6.86 462.55 7.12 458.69 15.12C456.1 20.48 453.42 25.79 450.93 31.19C449.57 34.14 448.03 36.79 444.8 37.99C444.562 38.0614 444.353 38.2046 444.2 38.4C443.89 38.97 443.35 39.66 443.47 40.16C443.594 40.4624 443.79 40.73 444.041 40.9391C444.292 41.1483 444.59 41.2928 444.91 41.36C448.02 41.47 451.13 41.49 454.23 41.36C455.62 41.36 456.12 40.09 455.47 38.88C455.012 37.718 454.877 36.4538 455.08 35.2214C455.282 33.989 455.814 32.8344 456.62 31.88C456.792 31.7067 457.018 31.5973 457.26 31.57C459.42 31.49 461.58 31.5 463.84 31.5ZM570.39 31.5C569.47 34.08 569.55 36.72 567.09 38.3C566.51 38.67 566.3 39.62 565.93 40.3C566.6 40.7652 567.349 41.1041 568.14 41.3C570.55 41.44 572.98 41.36 575.4 41.36C577.17 41.36 578.95 41.36 580.72 41.3C582.49 41.24 582.95 40.07 582.25 38.43C581.816 37.4182 581.707 36.2962 581.94 35.22C583.41 29.71 585.05 24.22 586.63 18.77C587.9 14.33 586.55 10.68 582.72 9.09C577.34 6.91 568.91 6.85 565 15C562.44 20.32 559.75 25.58 557.29 30.94C555.87 34.02 554.29 36.8 550.89 38.08C550.698 38.1354 550.528 38.2469 550.4 38.4C550.11 38.98 549.58 39.67 549.71 40.17C549.838 40.4711 550.038 40.7362 550.293 40.9419C550.548 41.1477 550.849 41.2878 551.17 41.35C554.27 41.46 557.39 41.49 560.49 41.35C561.9 41.3 562.4 40.08 561.72 38.89C560.72 37.13 561.34 33.19 562.85 31.89C562.987 31.7432 563.171 31.648 563.37 31.62L570.39 31.5ZM453.08 15.08C452.165 15.4725 451.425 16.187 451.001 17.0882C450.577 17.9894 450.499 19.0147 450.78 19.97C451.4 18.72 451.98 17.55 452.55 16.38C452.72 16 452.84 15.68 453.08 15.08ZM520.71 24.08C519.13 23.63 518.99 23.8 519.03 25.89L520.71 24.08Z" fill="#E86434"/>
<path d="M39.88 25.16C40.4539 25.4637 41.0114 25.7975 41.55 26.16C44.45 28.24 45.1 31.97 43.23 35.69C42.509 37.1015 41.4528 38.3146 40.1539 39.2229C38.855 40.1312 37.3532 40.7071 35.78 40.9C33.9374 41.2248 32.0709 41.3954 30.2 41.41C23.59 41.47 16.98 41.41 10.38 41.41C9.93577 41.4304 9.4906 41.4103 9.05001 41.35C8.76149 41.3456 8.48117 41.2534 8.24637 41.0856C8.01157 40.9179 7.83344 40.6826 7.7357 40.4111C7.63797 40.1397 7.62526 39.8448 7.69927 39.5659C7.77329 39.287 7.93051 39.0373 8.15 38.85C8.29055 38.6461 8.47081 38.4726 8.68001 38.34C10.32 37.48 10.9 35.94 11.36 34.29C13.12 27.8633 14.9333 21.4333 16.8 15C17.014 14.4009 17.0987 13.7632 17.0488 13.129C16.9988 12.4947 16.8152 11.8782 16.51 11.32C15.76 9.95 16.23 9.06 17.74 8.75C18.068 8.67107 18.4029 8.62418 18.74 8.61C25.74 8.68 32.74 8.61 39.74 8.93C41.6549 9.13982 43.4748 9.87335 45 11.05C49.53 14.34 48 20.92 44 23.27C42.69 24 41.3 24.51 39.88 25.16ZM23.23 36.6C26.32 37.11 28.35 36.6 29.48 35.08C30.0927 34.3106 30.5476 33.4278 30.8187 32.4824C31.0899 31.5369 31.1718 30.5472 31.06 29.57C30.9653 29.1374 30.7727 28.7321 30.4971 28.3855C30.2215 28.0388 29.8702 27.7598 29.47 27.57C27.07 26.7 25.91 27.37 25.18 29.74C24.45 32.11 23.9 34.26 23.23 36.6ZM27.37 22C32.23 22.65 34.12 20.47 34.69 16.16C34.94 14.28 34.33 13.54 32.69 13.16C30.48 12.72 29.99 12.96 29.39 14.98C28.66 17.33 28.05 19.63 27.37 22Z" fill="white"/>
<path d="M76.43 25.08C79.71 26.13 80.8 28.13 80.07 31.45C79.93 32.07 79.78 32.7 79.65 33.32C79.36 34.68 79.56 35.61 81.27 35.74C82.33 35.82 82.8 36.91 82.04 37.88C81.1352 39.1238 79.9632 40.1489 78.61 40.88C77.2324 41.5607 75.7166 41.9148 74.18 41.9148C72.6434 41.9148 71.1276 41.5607 69.75 40.88C68.7165 40.4461 67.8666 39.6655 67.3464 38.6727C66.8263 37.6798 66.6684 36.5367 66.9 35.44C67.19 33.75 67.6 32.07 67.9 30.38C68.2 28.69 67.64 27.86 65.98 27.56C63.51 27.11 63.2 27.32 62.52 29.79C62.1 31.3 61.66 32.79 61.21 34.32C60.76 35.85 60.74 37.39 62.21 38.62C62.4265 38.8238 62.5919 39.0758 62.6927 39.3556C62.7934 39.6353 62.8268 39.9349 62.79 40.23C62.615 40.509 62.3827 40.7478 62.1087 40.9305C61.8346 41.1132 61.5249 41.2357 61.2 41.29C59.9242 41.4168 58.641 41.4536 57.36 41.4C54.15 41.4 50.95 41.4 47.74 41.4C47.1052 41.3991 46.4779 41.2628 45.9 41C44.98 40.54 44.65 39.52 45.49 39C49.14 36.61 49.05 32.52 50.17 29C51.61 24.51 52.81 19.94 54.09 15.4C54.3478 14.7356 54.4624 14.0243 54.4262 13.3126C54.39 12.6008 54.2039 11.9048 53.88 11.27C53.14 10 53.72 9 55.24 8.74C55.7233 8.63685 56.2158 8.58324 56.71 8.58C63.02 8.65 69.33 8.58 75.64 8.86C77.1327 8.8616 78.6015 9.23442 79.9142 9.9449C81.2269 10.6554 82.3424 11.6812 83.16 12.93C85.79 17.13 83.37 22.82 78.39 24.43L76.43 25.08ZM66.38 22.36C67.1845 22.3119 67.9682 22.0854 68.6742 21.6968C69.3803 21.3083 69.991 20.7674 70.4621 20.1135C70.9331 19.4595 71.2527 18.709 71.3976 17.9162C71.5426 17.1234 71.5092 16.3083 71.3 15.53C70.8 13.87 69.3 14.04 68.02 13.94C66.74 13.84 66.51 14.54 66.3 15.5C65.92 17.22 65.49 18.93 65.06 20.65C64.63 22.37 64.7 22.42 66.38 22.36Z" fill="white"/>
<path d="M170.28 20.8C170.69 20.49 171.11 20.2 171.5 19.87C175.32 16.6 179.11 13.3 182.95 10.06C183.634 9.37556 184.483 8.88029 185.416 8.62262C186.348 8.36496 187.332 8.35372 188.27 8.59C189.316 8.81733 190.248 9.40619 190.903 10.253C191.558 11.0998 191.893 12.1504 191.85 13.22C191.939 14.3788 191.662 15.5363 191.057 16.5287C190.452 17.5211 189.551 18.2982 188.48 18.75C187.613 19.1202 186.657 19.2321 185.727 19.0725C184.798 18.9128 183.934 18.4884 183.24 17.85C182.62 17.29 182.16 17.27 181.6 17.85C181.531 17.9216 181.458 17.9884 181.38 18.05C178.28 20.58 178.3 20.58 179.62 24.35C180.62 27.18 181.4 30.09 182.52 32.86C183.29 34.74 184.52 36.43 185.45 38.24C185.76 38.85 186.21 39.73 185.98 40.24C185.782 40.5574 185.514 40.8257 185.197 41.0248C184.88 41.224 184.522 41.3488 184.15 41.39C181.24 41.5 178.33 41.5 175.42 41.39C174.522 41.3391 173.664 41.0034 172.97 40.4316C172.276 39.8597 171.782 39.0815 171.56 38.21C170.63 35.46 169.81 32.68 168.94 29.92C168.87 29.69 168.76 29.48 168.5 28.85C167.959 29.3612 167.495 29.9471 167.12 30.59C166.62 32.02 166.33 33.53 165.88 34.98C165.637 35.6218 165.544 36.3111 165.61 36.9944C165.676 37.6776 165.898 38.3365 166.26 38.92C167.01 40.15 166.26 41.3 164.63 41.44C163.4 41.55 162.16 41.5 160.93 41.51C157.93 41.51 155.01 41.57 152.05 41.46C151.255 41.2577 150.5 40.9194 149.82 40.46C150.19 39.76 150.38 38.82 150.95 38.46C152.257 37.4818 153.161 36.0589 153.49 34.46C155.24 28.11 157.05 21.78 158.86 15.46C159.103 14.8148 159.209 14.1264 159.173 13.4381C159.137 12.7497 158.959 12.0762 158.65 11.46C157.89 10.06 158.43 9.01 160.07 8.9C162.68 8.72 165.29 8.74 167.91 8.71C169.634 8.65325 171.36 8.68663 173.08 8.81C173.75 8.87 174.79 9.36 174.92 9.81C174.914 10.1815 174.82 10.5463 174.646 10.8748C174.473 11.2032 174.224 11.4859 173.92 11.7C170.66 13.92 171.19 17.65 169.87 20.63L170.28 20.8Z" fill="white"/>
<path d="M98.35 36.45C101.46 36.82 104.28 36.83 106.35 34.01C107.023 33.037 107.839 32.1707 108.77 31.44C109.62 30.7955 110.604 30.3512 111.65 30.14C112.016 30.0529 112.398 30.0645 112.758 30.1738C113.117 30.283 113.441 30.4859 113.697 30.7617C113.952 31.0375 114.13 31.3762 114.211 31.7431C114.292 32.1101 114.275 32.4921 114.16 32.85C113.67 34.76 113.07 36.63 112.49 38.51C112.249 39.4013 111.702 40.1793 110.945 40.7078C110.188 41.2362 109.27 41.4813 108.35 41.4H95.62C91.97 41.4 88.31 41.46 84.67 41.34C83.92 41.34 83.19 40.65 82.45 40.28C82.84 39.59 83.05 38.63 83.64 38.28C85.99 36.84 86.1 34.34 86.76 32.14C88.49 26.35 90.05 20.5 91.76 14.69C91.9421 14.1572 92.0052 13.591 91.9447 13.0311C91.8842 12.4713 91.7017 11.9316 91.41 11.45C90.49 10 91 9 92.68 8.73C93.5076 8.60839 94.3435 8.55155 95.18 8.56H114.28C114.871 8.55177 115.462 8.57848 116.05 8.64C119.13 9 120.05 10.19 119.4 13.19C119.04 14.87 118.46 16.5 117.94 18.19C117.773 18.7377 117.42 19.2095 116.941 19.5237C116.462 19.8379 115.889 19.9746 115.32 19.91C114.752 19.9959 114.171 19.8851 113.675 19.5959C113.178 19.3067 112.796 18.8566 112.59 18.32C112.21 17.26 111.89 16.18 111.59 15.1C111.29 14.02 110.74 13.45 109.59 13.55C109.2 13.55 108.81 13.55 108.41 13.55C104.41 13.55 104.41 13.55 103.47 17.45C103.2 18.55 102.88 19.63 102.55 20.71C102.22 21.79 102.67 22.31 103.69 22.03C104.505 21.734 105.278 21.334 105.99 20.84C106.92 20.1138 107.93 19.4964 109 19C110.73 18.47 111.81 19.64 111.36 21.38C110.8 23.52 110.18 25.65 109.52 27.76C109.16 28.92 108.52 29.93 107.13 30.05C105.74 30.17 105 29.28 104.43 28.17C104.23 27.77 104.11 27.17 103.79 27.04C103.139 26.6744 102.415 26.4591 101.67 26.41C101.34 26.41 100.82 27.01 100.67 27.41C99.85 30.09 99.12 32.8 98.38 35.5C98.3336 35.8145 98.3236 36.1332 98.35 36.45Z" fill="white"/>
<path d="M272.57 41.54C269.385 41.6511 266.255 40.682 263.69 38.79C263.457 38.578 263.148 38.4674 262.833 38.4824C262.518 38.4974 262.222 38.6368 262.01 38.87C260.936 39.7952 259.729 40.5537 258.43 41.12C257.412 41.3693 256.337 41.2152 255.43 40.69C254.43 40.1 254.73 38.91 255.08 37.88C255.86 35.6 256.54 33.28 257.33 31.01C258.28 28.3 260.73 27.73 262.73 29.81C263.93 31.04 264.93 32.46 266.03 33.81C266.618 34.6434 267.422 35.3001 268.356 35.709C269.291 36.1179 270.319 36.2635 271.33 36.13C271.79 36.0616 272.231 35.896 272.622 35.6443C273.014 35.3926 273.347 35.0605 273.6 34.67C273.709 34.217 273.708 33.7445 273.597 33.292C273.485 32.8396 273.267 32.4205 272.96 32.07C271.318 30.7421 269.591 29.5229 267.79 28.42C265.52 26.91 263.29 25.36 262.11 22.76C259.87 17.76 262.6 11.56 268 9.40999C270.186 8.54627 272.534 8.16864 274.881 8.30334C277.228 8.43803 279.517 9.08181 281.59 10.19C282.087 10.5197 282.682 10.6705 283.276 10.6178C283.87 10.5651 284.429 10.312 284.86 9.89999C285.765 9.23026 286.812 8.77852 287.92 8.57999C289.92 8.18999 291.14 9.64999 290.56 11.58C289.9 13.84 289.26 16.12 288.48 18.34C287.7 20.56 285.73 21.08 283.96 19.49C282.65 18.3 281.54 16.9 280.27 15.66C279.714 15.0299 279.039 14.5157 278.284 14.1468C277.529 13.7778 276.709 13.5614 275.87 13.51C274.77 13.51 273.73 13.86 273.52 14.87C273.421 15.3271 273.423 15.8005 273.527 16.2566C273.631 16.7127 273.833 17.1405 274.12 17.51C275.955 18.9943 277.882 20.3604 279.89 21.6C281.96 22.96 284.03 24.32 285.24 26.6C287.9 31.53 285.33 38.05 279.63 40.31C277.341 41.0359 275.001 41.5908 272.63 41.97L272.57 41.54Z" fill="white"/>
<path d="M239.54 31.51C236.99 31.51 234.79 31.51 232.54 31.51C232.302 31.5479 232.084 31.664 231.92 31.84C231.115 32.7952 230.587 33.952 230.391 35.1855C230.195 36.4191 230.34 37.6827 230.81 38.84C231.46 40.04 230.94 41.24 229.54 41.29C226.48 41.41 223.42 41.4 220.36 41.29C220.019 41.2204 219.7 41.0707 219.429 40.8534C219.158 40.636 218.942 40.3572 218.8 40.04C218.65 39.59 219.26 38.88 219.54 38.29C219.553 38.2687 219.57 38.2505 219.591 38.2366C219.612 38.2228 219.635 38.2137 219.66 38.21C224.09 36.66 225.49 32.66 227.27 28.94C229.5 24.27 231.78 19.64 234.04 14.99C237.95 6.99 246.04 6.85 251.73 9.08C253.425 9.68041 254.818 10.9176 255.616 12.5288C256.413 14.1401 256.551 15.9987 256 17.71C254.57 23.08 253 28.41 251.47 33.71C250.96 35.51 250.29 37.22 251.64 39.04C252.3 39.93 251.54 41.04 250.28 41.27C249.448 41.3735 248.608 41.4069 247.77 41.37C244.27 41.37 240.77 41.43 237.26 41.37C236.862 41.3601 236.471 41.2658 236.113 41.0934C235.754 40.921 235.436 40.6744 235.18 40.37C234.64 39.45 235.48 38.71 236.26 38.23C238.7 36.75 238.57 34.07 239.54 31.51ZM234.31 26.34C236.67 26.34 238.61 26.34 240.56 26.34C240.694 26.3202 240.822 26.2691 240.933 26.191C241.045 26.1129 241.136 26.0098 241.2 25.89C242.1 22.89 243.07 20 243.77 17C244.14 15.4 242.93 14.47 241.33 15C240.573 15.1886 239.907 15.6384 239.45 16.27C237.71 19.44 236.12 22.73 234.31 26.34Z" fill="white"/>
<path d="M135.48 31.52C132.97 31.52 130.73 31.52 128.48 31.52C128.284 31.5328 128.098 31.6102 127.95 31.74C126.43 33.02 125.74 37.1 126.75 38.8C127.49 40.06 126.99 41.25 125.48 41.31C122.42 41.44 119.36 41.41 116.31 41.31C115.989 41.2548 115.687 41.1221 115.429 40.9234C115.171 40.7248 114.965 40.4661 114.83 40.17C114.72 39.61 115.26 38.91 115.55 38.28C115.55 38.17 115.78 38.09 115.91 38.04C119.43 36.77 121 33.82 122.46 30.67C124.94 25.32 127.59 20.04 130.18 14.74C134.06 6.8 142.63 6.91 147.84 9.17C151.55 10.77 152.94 14.3 151.77 18.45C150.21 23.93 148.6 29.45 147.03 34.89C146.792 35.4849 146.692 36.1258 146.737 36.7648C146.782 37.4038 146.971 38.0243 147.29 38.58C148.19 39.98 147.57 41.18 145.87 41.35C144.8 41.45 143.7 41.35 142.62 41.41C139.46 41.41 136.3 41.47 133.15 41.35C132.4 41.35 131.68 40.65 130.94 40.28C131.34 39.6 131.58 38.68 132.17 38.28C134.6 36.72 134.53 34.07 135.48 31.52ZM130.31 26.35C132.59 26.35 134.45 26.35 136.31 26.35C136.533 26.2967 136.74 26.1908 136.914 26.0412C137.088 25.8916 137.224 25.7026 137.31 25.49C138.14 22.87 138.95 20.24 139.58 17.56C139.75 16.85 139.48 15.49 139.02 15.28C138.117 15.0319 137.158 15.0739 136.28 15.4C135.741 15.6579 135.317 16.107 135.09 16.66C133.51 19.73 132 22.87 130.31 26.35Z" fill="white"/>
<path d="M208.45 23.5C209.387 23.0883 210.301 22.6276 211.19 22.12C212.147 21.3601 213.149 20.6588 214.19 20.02C216.29 19.02 218.01 20.33 217.49 22.57C216.847 25.396 216.015 28.1756 215 30.89C214.18 33.09 211.92 33.28 210.44 31.44C209.978 30.8616 209.591 30.2265 209.29 29.55C209.222 29.3372 209.112 29.1398 208.968 28.9693C208.824 28.7988 208.647 28.6584 208.448 28.5563C208.249 28.4541 208.032 28.3921 207.81 28.3739C207.587 28.3557 207.363 28.3815 207.15 28.45C206.876 28.5916 206.633 28.7866 206.435 29.0236C206.238 29.2607 206.09 29.5348 206 29.83C205.43 31.55 205.05 33.34 204.48 35.06C204.292 35.618 204.272 36.2189 204.424 36.7879C204.575 37.3569 204.89 37.8689 205.33 38.26C205.79 38.77 206.33 39.79 206.12 40.26C205.894 40.5879 205.597 40.8601 205.25 41.0559C204.904 41.2517 204.517 41.3659 204.12 41.39C199.587 41.49 195.05 41.49 190.51 41.39C190.14 41.3725 189.779 41.2672 189.457 41.083C189.136 40.8987 188.862 40.6406 188.66 40.33C188.625 39.9678 188.684 39.6028 188.831 39.2701C188.978 38.9373 189.209 38.648 189.5 38.43C191.61 37.19 191.89 35.03 192.5 33.03C194.26 27.03 196.02 20.96 197.63 14.88C197.836 13.743 197.715 12.5706 197.28 11.5C196.7 9.90001 197.01 9.06001 198.71 8.76001C198.806 8.74959 198.904 8.74959 199 8.76001C206.89 8.76001 214.77 8.70001 222.66 8.85001C225.09 8.85001 226.1 10.61 225.5 12.96C225.1 14.53 224.67 16.1 224.19 17.65C224.034 18.3578 223.622 18.983 223.033 19.4057C222.445 19.8283 221.72 20.0186 221 19.94C220.306 20.0308 219.603 19.8613 219.027 19.4642C218.451 19.0672 218.042 18.4707 217.88 17.79C217.82 17.6029 217.75 17.4192 217.67 17.24C217.19 16.15 216.95 14.38 216.19 14.11C214.64 13.58 212.8 13.84 211.09 13.84C210.929 13.8746 210.779 13.9483 210.654 14.0547C210.528 14.1611 210.431 14.2969 210.37 14.45C209.53 17.31 208.74 20.19 207.94 23.07L208.45 23.5Z" fill="white"/>
<path d="M306.09 13.73C305.354 13.6081 304.599 13.6785 303.898 13.9343C303.197 14.1901 302.574 14.6227 302.09 15.19C301.212 16.3803 300.206 17.4702 299.09 18.44C298.071 19.1689 296.884 19.6266 295.64 19.77C295.317 19.8327 294.983 19.8114 294.671 19.7081C294.359 19.6048 294.078 19.4229 293.856 19.18C293.634 18.937 293.479 18.6411 293.404 18.3207C293.329 18.0002 293.338 17.666 293.43 17.35C293.956 14.9625 294.675 12.6215 295.58 10.35C296.092 9.59316 296.877 9.06305 297.77 8.87C298.828 8.62541 299.914 8.52118 301 8.56C309.627 8.56 318.26 8.56 326.9 8.56C331.1 8.56 331.72 9.36 330.63 13.42C330.207 14.9709 329.706 16.4995 329.13 18C328.87 18.538 328.467 18.9938 327.964 19.3174C327.462 19.641 326.88 19.8199 326.283 19.8344C325.685 19.8489 325.096 19.6984 324.578 19.3994C324.061 19.1005 323.636 18.6647 323.35 18.14C322.85 17.14 322.35 16.14 321.93 15.06C321.785 14.5818 321.467 14.175 321.038 13.9196C320.609 13.6642 320.099 13.5787 319.61 13.68C319.07 13.83 318.54 14.68 318.35 15.33C316.44 21.84 314.55 28.33 312.8 34.91C312.576 36.043 312.683 37.2167 313.11 38.29C313.75 39.99 313.31 41.03 311.48 41.29C311.235 41.3266 310.988 41.3433 310.74 41.34C306.79 41.34 302.84 41.41 298.9 41.34C298.15 41.34 297.43 40.62 296.69 40.24C297.05 39.59 297.24 38.67 297.79 38.34C299.93 37.06 300.24 34.89 300.79 32.82C302.49 26.76 304.193 20.7 305.9 14.64C306 14.42 306 14.17 306.09 13.73Z" fill="white"/>
<path d="M190.06 23.74C189.28 26.47 188.55 28.99 187.82 31.51H187.27C186.68 29.84 186.06 28.18 185.51 26.51C184.68 23.98 184.7 23.98 187.31 23.89C188.13 23.86 189 23.8 190.06 23.74Z" fill="white"/>
<path d="M120.36 23.5L118.19 28.12C117.19 27.38 116.29 26.77 115.49 26.05C115.36 25.93 115.61 25.05 115.85 24.94C117.24 24.41 118.68 24 120.36 23.5Z" fill="white"/>
<path d="M223.87 24.7L220.54 31.55L220.16 31.4C220.73 29.4 221.23 27.4 221.92 25.4C222.1 24.89 222.92 24.6 223.37 24.21L223.87 24.7Z" fill="white"/>
<path d="M367.05 25.19C369.9 26.45 371.64 28.33 371.52 31.46C371.37 35.2 369.81 38.24 366.32 39.73C364.106 40.6887 361.731 41.2246 359.32 41.31C351.98 41.52 344.63 41.41 337.32 41.41C336.875 41.4294 336.431 41.3823 336 41.27C335.765 41.2329 335.544 41.1319 335.362 40.9779C335.18 40.8239 335.044 40.623 334.969 40.397C334.894 40.171 334.882 39.9286 334.935 39.6963C334.988 39.4641 335.104 39.2509 335.27 39.08C335.453 38.7871 335.695 38.5352 335.98 38.34C336.666 37.9072 337.255 37.3358 337.708 36.6626C338.161 35.9893 338.468 35.2289 338.61 34.43C340.41 27.8433 342.263 21.27 344.17 14.71C344.352 14.1514 344.413 13.5607 344.351 12.9766C344.289 12.3925 344.105 11.828 343.81 11.32C343.09 9.96001 343.57 9.05001 345.07 8.75001C345.454 8.66017 345.846 8.60991 346.24 8.60001C353.14 8.67001 360.05 8.60001 366.94 8.93001C368.948 9.13095 370.855 9.90893 372.43 11.17C376.43 14.32 375.74 20.6 371.22 23.28C369.866 23.9918 368.474 24.6294 367.05 25.19ZM350.47 36.72C353.04 36.86 355.47 37.15 356.78 34.95C357.635 33.3725 358.175 31.6437 358.37 29.86C358.351 29.4253 358.221 29.0028 357.992 28.6332C357.762 28.2636 357.441 27.9594 357.06 27.75C355.783 27.541 354.483 27.5175 353.2 27.68C353.11 27.68 353 27.89 352.96 28.02C352.15 30.83 351.35 33.64 350.47 36.72ZM354.64 22C360.17 22.91 361.88 19.34 361.98 15.24C361.903 14.8523 361.731 14.4896 361.48 14.1843C361.228 13.879 360.906 13.6405 360.54 13.49C359.452 13.2915 358.341 13.2443 357.24 13.35C357.16 13.35 357.06 13.58 357.02 13.71C356.23 16.44 355.45 19.16 354.64 22Z" fill="white"/>
<path d="M388.66 42C385.876 42.1754 383.1 41.5509 380.66 40.2C376.24 37.62 375.09 33.47 375.66 28.77C376.183 23.2606 378.494 18.0735 382.24 14C387.66 8.19 397.63 6.08 404.74 9.23C406.511 9.90401 408.032 11.1076 409.095 12.6769C410.158 14.2462 410.711 16.1049 410.68 18C410.79 27.36 407.23 34.85 398.85 39.58C395.747 41.3254 392.216 42.1639 388.66 42ZM387.07 34C387.5 35.27 387.07 36.65 388.61 37.27C389.326 37.4694 390.088 37.4354 390.784 37.1728C391.48 36.9103 392.074 36.433 392.48 35.81C392.936 35.2917 393.307 34.7044 393.58 34.07C394.99 30.07 396.47 26.13 397.66 22.07C398.248 19.8889 398.583 17.6476 398.66 15.39C398.8 13.11 396.87 12.1 394.95 13.39C394.01 14.0709 393.246 14.9655 392.72 16C391.743 17.8726 390.94 19.8308 390.32 21.85C389.13 25.88 388.14 29.94 387.07 34Z" fill="white"/>
<path d="M531.15 36.46C534.98 36.72 538.42 37.14 540.88 33.63C541.88 32.15 543.1 30.63 545.16 30.21C547.47 29.76 548.76 30.97 548.16 33.21C547.72 34.92 547.16 36.6 546.69 38.3C546.04 40.53 544.45 41.39 542.23 41.38C537.49 41.38 532.75 41.38 528.02 41.38C525.16 41.38 522.29 41.38 519.43 41.32C518.759 41.3674 518.089 41.2115 517.507 40.8726C516.926 40.5337 516.46 40.0275 516.17 39.42C515.899 38.805 515.812 38.125 515.918 37.4615C516.025 36.7981 516.321 36.1795 516.77 35.68C517.154 35.1815 517.564 34.7041 518 34.25C523.42 28.5233 528.843 22.8033 534.27 17.09L537.55 13.6C534.46 13.5 531.75 12.9 529.76 15.6C528.944 16.651 528.037 17.6282 527.05 18.52C526.487 19.0736 525.802 19.488 525.05 19.73C522.23 20.45 520.95 19.14 521.68 16.34C522.12 14.68 522.68 13.04 523.2 11.41C523.394 10.6601 523.831 9.99549 524.442 9.51978C525.054 9.04406 525.805 8.78396 526.58 8.78001C529.04 8.69001 531.5 8.62001 533.97 8.61001C538.85 8.61001 543.73 8.61001 548.62 8.61001C549.262 8.59843 549.903 8.63185 550.54 8.71001C553.72 9.15001 554.83 11.61 553.02 14.28C552.494 14.9976 551.905 15.6669 551.26 16.28C544.993 22.5533 538.717 28.8167 532.43 35.07C532.08 35.4 531.72 35.84 531.15 36.46Z" fill="white"/>
<path d="M437.42 25.86C437.92 24.11 438.32 22.78 438.7 21.44C439.35 19.18 440.13 16.93 440.57 14.62C440.698 13.5302 440.499 12.4271 440 11.45C439.27 9.89 439.55 8.88 441.29 8.76C443.698 8.60498 446.112 8.60498 448.52 8.76C450.06 8.85 450.65 10.43 449.43 11.21C446.36 13.21 446.17 16.44 445.31 19.39C443.54 25.39 441.95 31.52 440.11 37.54C438.93 41.4 435.11 42.89 432.11 40.77C431.161 40.0657 430.388 39.152 429.85 38.1C427.38 33.18 425.03 28.2 422.63 23.24C422.43 22.82 422.18 22.42 421.76 21.65C420.34 26.72 418.97 31.37 417.76 36.06C417.715 36.9738 417.964 37.878 418.47 38.64C419.23 40.09 418.82 41.27 417.18 41.37C414.765 41.495 412.345 41.495 409.93 41.37C408.53 41.31 407.86 39.7 408.93 38.97C412.59 36.54 412.48 32.46 413.61 28.97C415.07 24.49 416.18 19.89 417.51 15.36C417.705 14.8357 417.791 14.2772 417.764 13.7186C417.736 13.1599 417.595 12.6127 417.35 12.11C416.14 9.64 416.8 8.64 419.55 8.59C421.55 8.59 423.55 8.59 425.62 8.59C426.511 8.53672 427.396 8.75855 428.156 9.22542C428.916 9.6923 429.515 10.3816 429.87 11.2C432.04 15.56 434.26 19.89 436.46 24.2C436.7 24.62 437 25 437.42 25.86Z" fill="white"/>
<path d="M491.89 21.59C490.89 24.9 490.07 27.81 489.22 30.73C488.8 32.2 488.45 33.73 487.97 35.13C487.759 35.6815 487.689 36.2771 487.768 36.8624C487.847 37.4476 488.071 38.0038 488.42 38.48C489.48 40.05 488.89 41.28 486.99 41.36C484.72 41.46 482.45 41.44 480.18 41.36C479.901 41.3364 479.631 41.2483 479.391 41.1025C479.152 40.9567 478.949 40.7573 478.8 40.52C478.63 40.03 478.8 39.03 479.15 38.82C482.36 36.93 482.42 33.48 483.33 30.51C484.89 25.38 486.21 20.18 487.72 15.05C487.886 14.5602 487.951 14.042 487.911 13.5265C487.872 13.011 487.728 12.5088 487.49 12.05C486.33 9.56 486.96 8.57 489.71 8.52C491.63 8.52 493.56 8.52 495.48 8.52C496.443 8.43362 497.408 8.6541 498.238 9.14987C499.068 9.64563 499.72 10.3913 500.1 11.28C502.1 15.4 504.2 19.46 506.26 23.55C506.59 24.19 506.95 24.81 507.51 25.84L509.73 18.31C510.03 17.31 510.37 16.24 510.63 15.19C510.861 14.5662 510.941 13.8964 510.863 13.2358C510.785 12.5751 510.551 11.9425 510.18 11.39C509.18 10.03 509.7 8.84 511.4 8.73C513.81 8.57 516.23 8.61 518.64 8.73C518.918 8.75966 519.185 8.85724 519.417 9.01417C519.649 9.17109 519.839 9.38256 519.97 9.63C520.028 9.92885 520.012 10.2374 519.923 10.5286C519.834 10.8197 519.675 11.0846 519.46 11.3C516.46 13.01 516.34 16.15 515.54 18.92C513.77 25.01 512.12 31.14 510.34 37.22C509.34 40.69 507.09 42.06 503.8 41.44C502.974 41.2637 502.203 40.8895 501.553 40.3495C500.903 39.8095 500.394 39.12 500.07 38.34C497.73 33.69 495.5 28.97 493.23 24.28C492.86 23.48 492.46 22.72 491.89 21.59Z" fill="white"/>
<path d="M463.84 31.5C461.58 31.5 459.42 31.5 457.26 31.5C457.018 31.5274 456.792 31.6367 456.62 31.81C455.814 32.7644 455.282 33.9191 455.08 35.1514C454.877 36.3838 455.012 37.648 455.47 38.81C456.12 40.02 455.62 41.24 454.23 41.29C451.13 41.4 448.02 41.38 444.91 41.29C444.59 41.2228 444.292 41.0783 444.041 40.8692C443.79 40.66 443.594 40.3924 443.47 40.09C443.35 39.59 443.89 38.9 444.2 38.33C444.353 38.1346 444.562 37.9914 444.8 37.92C448.03 36.72 449.57 34.07 450.93 31.12C453.42 25.72 456.1 20.41 458.69 15.05C462.55 7.05001 470.54 6.81001 476.35 9.05001C480.42 10.63 481.68 14.52 480.23 19.36C478.62 24.72 477.07 30.11 475.64 35.52C475.464 36.5547 475.607 37.6185 476.05 38.57C476.66 40.08 476.26 41.26 474.63 41.3C470.14 41.41 465.63 41.38 461.16 41.3C460.66 41.3 459.73 40.63 459.76 40.3C459.827 39.5577 460.161 38.8649 460.7 38.35C461.672 37.4905 462.454 36.437 462.995 35.2573C463.536 34.0775 463.824 32.7977 463.84 31.5ZM459 26.32C461.33 26.32 463.33 26.32 465.33 26.32C465.52 26.32 465.82 25.99 465.89 25.75C466.76 22.94 467.72 20.14 468.4 17.27C468.85 15.36 467.49 14.34 465.65 15.09C464.917 15.3667 464.296 15.8761 463.88 16.54C462.23 19.63 460.72 22.82 459 26.32Z" fill="white"/>
<path d="M570.39 31.53H563.39C563.191 31.558 563.007 31.6532 562.87 31.8C561.36 33.14 560.73 37.08 561.74 38.8C562.42 39.99 561.92 41.21 560.51 41.26C557.41 41.39 554.29 41.36 551.19 41.26C550.869 41.1978 550.568 41.0577 550.313 40.8519C550.058 40.6462 549.858 40.3811 549.73 40.08C549.6 39.58 550.13 38.89 550.42 38.31C550.548 38.1569 550.718 38.0454 550.91 37.99C554.29 36.71 555.91 33.93 557.31 30.85C559.77 25.49 562.46 20.23 565.02 14.91C568.92 6.81 577.35 6.91 582.73 9.11C586.56 10.7 587.91 14.35 586.64 18.79C585.06 24.27 583.42 29.73 581.95 35.24C581.717 36.3162 581.826 37.4382 582.26 38.45C582.96 40.09 582.54 41.2 580.73 41.32C578.92 41.44 577.18 41.32 575.41 41.38C572.99 41.38 570.56 41.46 568.15 41.32C567.359 41.1241 566.61 40.7852 565.94 40.32C566.31 39.64 566.52 38.69 567.1 38.32C569.55 36.75 569.47 34.11 570.39 31.53ZM565.39 26.35C567.62 26.35 569.39 26.35 571.24 26.3C571.469 26.2296 571.678 26.1072 571.852 25.9424C572.025 25.7775 572.158 25.5748 572.24 25.35C573.06 22.84 573.8 20.29 574.55 17.75C574.84 16.75 575.01 15.75 573.95 15.12C573.473 14.8482 572.92 14.743 572.376 14.8208C571.833 14.8987 571.331 15.1552 570.95 15.55C570.434 16.0026 570.012 16.5533 569.71 17.17C568.86 18.78 568.09 20.42 567.31 22.06C566.69 23.37 566.1 24.7 565.35 26.35H565.39Z" fill="white"/>
<path d="M453.08 15.08C452.84 15.68 452.72 16.08 452.55 16.38C451.98 17.55 451.4 18.72 450.78 19.97C450.499 19.0147 450.577 17.9894 451.001 17.0882C451.425 16.187 452.165 15.4725 453.08 15.08Z" fill="white"/>
<path d="M520.71 24.12L519 25.93C519 23.84 519.13 23.67 520.71 24.12Z" fill="white"/>
<path d="M23.23 36.6C23.9 34.26 24.5 32 25.18 29.77C25.86 27.54 27.07 26.77 29.47 27.6C29.8701 27.7898 30.2215 28.0688 30.4971 28.4155C30.7727 28.7621 30.9653 29.1674 31.06 29.6C31.1718 30.5772 31.0899 31.5669 30.8187 32.5124C30.5476 33.4578 30.0927 34.3406 29.48 35.11C28.35 36.61 26.32 37.11 23.23 36.6Z" fill="#E86434"/>
<path d="M27.37 22C28.05 19.6 28.66 17.3 29.37 15C29.97 13 30.46 12.74 32.67 13.18C34.36 13.52 34.97 14.26 34.67 16.18C34.12 20.5 32.23 22.68 27.37 22Z" fill="#E86434"/>
<path d="M66.38 22.36C64.7 22.42 64.64 22.36 65.06 20.65C65.48 18.94 65.92 17.22 66.3 15.5C66.51 14.5 66.83 13.85 68.02 13.94C69.21 14.03 70.8 13.87 71.3 15.53C71.5092 16.3083 71.5426 17.1234 71.3976 17.9162C71.2527 18.709 70.9331 19.4595 70.4621 20.1135C69.991 20.7674 69.3803 21.3083 68.6743 21.6968C67.9682 22.0854 67.1845 22.3119 66.38 22.36Z" fill="#E86434"/>
<path d="M234.31 26.34C236.12 22.73 237.71 19.44 239.45 16.23C239.914 15.6134 240.579 15.1783 241.33 15C242.93 14.49 244.14 15.42 243.77 17C243.07 20 242.1 22.93 241.2 25.89C241.136 26.0098 241.045 26.1129 240.933 26.191C240.822 26.2691 240.694 26.3202 240.56 26.34C238.61 26.35 236.67 26.34 234.31 26.34Z" fill="#E86434"/>
<path d="M130.31 26.35C132 22.87 133.51 19.73 135.08 16.62C135.307 16.067 135.731 15.6179 136.27 15.36C137.148 15.0339 138.107 14.9919 139.01 15.24C139.47 15.45 139.74 16.81 139.57 17.52C138.94 20.2 138.13 22.83 137.3 25.45C137.214 25.6626 137.078 25.8516 136.904 26.0012C136.73 26.1508 136.523 26.2567 136.3 26.31C134.45 26.39 132.59 26.35 130.31 26.35Z" fill="#E86434"/>
<path d="M350.47 36.72C351.35 33.64 352.15 30.83 352.96 28.02C352.96 27.89 353.11 27.68 353.2 27.68C354.483 27.5175 355.783 27.541 357.06 27.75C357.441 27.9594 357.762 28.2636 357.992 28.6332C358.221 29.0028 358.351 29.4253 358.37 29.86C358.181 31.6608 357.641 33.4072 356.78 35C355.44 37.15 353 36.86 350.47 36.72Z" fill="#E86434"/>
<path d="M354.64 22C355.45 19.16 356.23 16.44 357.02 13.71C357.02 13.58 357.16 13.35 357.24 13.35C358.341 13.2443 359.452 13.2914 360.54 13.49C360.909 13.6378 361.236 13.8752 361.491 14.1806C361.746 14.4861 361.921 14.8502 362 15.24C361.88 19.34 360.17 22.91 354.64 22Z" fill="#E86434"/>
<path d="M387.07 34C388.14 30 389.13 25.91 390.32 21.91C390.94 19.8908 391.743 17.9326 392.72 16.06C393.253 15.0019 394.036 14.089 395 13.4C396.92 12.09 398.85 13.1 398.71 15.4C398.633 17.6576 398.298 19.8989 397.71 22.08C396.52 26.08 395.04 30.08 393.63 34.08C393.357 34.7144 392.986 35.3017 392.53 35.82C392.124 36.443 391.53 36.9203 390.834 37.1828C390.138 37.4454 389.377 37.4794 388.66 37.28C387.08 36.62 387.5 35.24 387.07 34Z" fill="#E86434"/>
<path d="M459 26.32C460.73 22.82 462.24 19.63 463.88 16.51C464.296 15.8461 464.917 15.3367 465.65 15.06C467.49 14.31 468.85 15.33 468.4 17.24C467.72 20.11 466.76 22.91 465.89 25.72C465.82 25.96 465.52 26.29 465.33 26.29C463.32 26.33 461.32 26.32 459 26.32Z" fill="#E86434"/>
<path d="M565.35 26.35C566.1 24.7 566.69 23.35 567.35 22.06C568.13 20.42 568.9 18.78 569.75 17.17C570.055 16.5524 570.48 16.0017 571 15.55C571.381 15.1552 571.883 14.8987 572.426 14.8208C572.97 14.7429 573.523 14.8482 574 15.12C575.06 15.76 574.89 16.77 574.6 17.75C573.85 20.29 573.11 22.84 572.29 25.35C572.208 25.5748 572.075 25.7775 571.901 25.9424C571.728 26.1072 571.519 26.2296 571.29 26.3C569.39 26.4 567.58 26.35 565.35 26.35Z" fill="#E86434"/>
</svg>
