<svg xmlns="http://www.w3.org/2000/svg" viewBox="0 0 93.26 48.09" width="10em"><defs><style>.cls-1{isolation:isolate;}.cls-2{fill:#995d24;}.cls-3{fill:#84491c;}.cls-4{fill:#e1924a;}.cls-5{fill:#d6a150;}.cls-6{fill:#cba669;}.cls-7{fill:#f5c97e;}.cls-8{fill:#e1b257;}.cls-9{fill:#f6ca6a;}.cls-10{mix-blend-mode:screen;}.cls-11{fill:#d1a063;opacity:0.55;mix-blend-mode:multiply;}</style></defs><g class="cls-1"><g id="Layer_1" data-name="Layer 1"><path class="cls-2" d="M55.54,7c2.52,0,20.65,2.24,29,6,2.68,1.2,1.32,6.44.83,7.41-1.4,2.8-36.3,14.12-36.09,15.58s.74,5.64-4.68,8.14c-5.07,2.34-16,3.71-30.11-6.76C7.94,32.44,3.68,18.54,10.61,15.08c5.84-2.92,11,4,13.87,2.93S50.75,7,55.54,7Z"/><path class="cls-3" d="M45.32,39.34c-.56-.43-1.47-.18-1.93-.76s0-1.26-.76-1.86c-1.5-1.14-3.22-.9-4.91-1a7.85,7.85,0,0,1-5.56-2.51,29.29,29.29,0,0,0-7.07-5.49c-1.72-.92-3.53-1.72-5.32-2.47-1.33-.56-2.82-.94-4.13-1.55-2.11-1-2.61-3.74-3.86-5.5A5.66,5.66,0,0,0,9.29,16C4.1,20.36,8.23,32.83,14.37,37.4c14.08,10.47,25,9.1,30.11,6.76a11,11,0,0,0,1.14-.6,1.79,1.79,0,0,1,0-.24C45.5,42.24,46.27,40.09,45.32,39.34Z"/><path class="cls-4" d="M53.78,1.5c3.78,0,32.73,9.17,31.27,12.09S47.32,29,47.53,30.47s2.71,4.8-2.71,7.3C39.74,40.11,26.27,41.52,14,30.68,8.4,25.77,5.16,17.26,12.09,13.8c5.84-2.92,7.71-.21,10.63-1.25S49,1.5,53.78,1.5Z"/><path class="cls-5" d="M53.23,2.57c3.51,0,30.54,8.14,29.19,10.84s-36.7,15-36.51,16.31,2.91,4.64-2.13,7C39.06,38.83,27.41,40.16,16,30.14,10.81,25.6,6.77,17.82,13.2,14.62c5.43-2.7,8.21-.28,10.92-1.24S48.78,2.57,53.23,2.57Z"/><path class="cls-2" d="M69.72,22c-1.77.6-3.26,1.7-5,2.31-2,.7-4.19,1-6.14,1.8-1.7.66-3.27,1.38-5,2.1-1.12.47-4.3,1.9-4.85,1.8l-.13.43a3.71,3.71,0,0,0,1.07,2.85c1.26.81,1.85-.16,2.74-.93,2.27-2,4.73-2.81,7.68-3.9S66,26.17,69,25.28C71.5,24.53,73.65,20.7,69.72,22Z"/><path class="cls-6" d="M16.73,18a11.65,11.65,0,0,0,2.19-.3c.52-.1.3-.89-.22-.79a10.85,10.85,0,0,1-2,.26.42.42,0,0,0,0,.83Z"/><path class="cls-6" d="M15.48,21.29a8.18,8.18,0,0,0,.29,1.77.41.41,0,0,0,.8-.21,7,7,0,0,1-.27-1.56.41.41,0,0,0-.82,0Z"/><path class="cls-6" d="M17.31,27.38l2.5.42c.52.09.75-.71.22-.8l-2.5-.41c-.52-.09-.74.71-.22.79Z"/><path class="cls-6" d="M25.2,28.93a.42.42,0,0,0,0-.83.42.42,0,0,0,0,.83Z"/><path class="cls-6" d="M25.2,28.93A7.57,7.57,0,0,0,27,28.77c.52-.12.3-.91-.22-.79a6.76,6.76,0,0,1-1.56.12.42.42,0,0,0,0,.83Z"/><path class="cls-6" d="M28.57,33.64a12.41,12.41,0,0,0,2.19.15.41.41,0,0,0,0-.82,10.81,10.81,0,0,1-2-.13c-.52-.09-.74.7-.22.8Z"/><path class="cls-6" d="M37.65,33.45a5.77,5.77,0,0,0,.74-1.21.41.41,0,0,0-.8-.22,4.7,4.7,0,0,1-.65,1c-.3.44.41.85.71.42Z"/><path class="cls-6" d="M31.74,26.56a7.18,7.18,0,0,0,2.47-.43c.49-.19.28-1-.22-.79a6.67,6.67,0,0,1-2.25.4.41.41,0,0,0,0,.82Z"/><path class="cls-6" d="M24.65,22a3.9,3.9,0,0,0,1.22-.16c.5-.16.29-.95-.22-.79a3.08,3.08,0,0,1-1,.12.42.42,0,0,0,0,.83Z"/><path class="cls-6" d="M25.06,16a.41.41,0,0,0,0-.82.41.41,0,0,0,0,.82Z"/><path class="cls-6" d="M25.2,16h2.37a.41.41,0,0,0,0-.82H25.2a.41.41,0,0,0,0,.82Z"/><path class="cls-6" d="M34.18,19,35,17.74c.3-.44-.42-.85-.71-.41l-.84,1.25c-.29.44.42.85.72.41Z"/><path class="cls-6" d="M32.26,12.65c.83-.26,1.68-.43,2.5-.69.51-.17.29-1-.22-.8-.82.27-1.67.43-2.5.7-.5.16-.29,1,.22.79Z"/><path class="cls-6" d="M40.76,12.13l.69.69a.41.41,0,1,0,.58-.58l-.69-.7a.43.43,0,0,0-.58,0,.42.42,0,0,0,0,.59Z"/><path class="cls-6" d="M43.05,31.5a2.08,2.08,0,0,1,.36,1.18.42.42,0,0,0,.83,0,3,3,0,0,0-.47-1.59c-.29-.45-1,0-.72.41Z"/><path class="cls-6" d="M52.65,21.64a7.18,7.18,0,0,1,1.71-.51c.52-.11.3-.9-.22-.8a8.24,8.24,0,0,0-1.9.6c-.48.23-.06.94.41.71Z"/><path class="cls-6" d="M52.14,16.82c.73-.29,1.47-.58,2.22-.83.5-.17.29-1-.22-.8-.75.25-1.49.54-2.22.84-.49.19-.28,1,.22.79Z"/><path class="cls-6" d="M47,8.76A8.66,8.66,0,0,0,49,8c.48-.23.06-.94-.42-.71A7.53,7.53,0,0,1,46.77,8c-.52.12-.29.91.22.8Z"/><path class="cls-6" d="M51.16,5a3.91,3.91,0,0,1,2,.41c.49.2.71-.6.22-.79a4.53,4.53,0,0,0-2.45-.42c-.52.11-.3.9.22.8Z"/><path class="cls-6" d="M58.35,7.61a5.74,5.74,0,0,0,2.29.61.42.42,0,0,0,0-.83,4.38,4.38,0,0,1-1.87-.5c-.48-.23-.9.48-.42.72Z"/><path class="cls-6" d="M53.42,11.41a.41.41,0,0,0,0-.82.41.41,0,0,0,0,.82Z"/><path class="cls-6" d="M53.62,11.36a8.76,8.76,0,0,1,1.57-.52c.52-.12.3-.92-.22-.79a8.5,8.5,0,0,0-1.76.6c-.48.23-.06.94.41.71Z"/><path class="cls-6" d="M61.17,16.82c.74-.15,1.48-.27,2.22-.42.53-.1.3-.89-.22-.79L61,16c-.52.1-.3.89.22.79Z"/><path class="cls-6" d="M60.89,20.71a7.77,7.77,0,0,0,1.63-.6c.48-.23.06-.94-.42-.71a7.19,7.19,0,0,1-1.43.52.41.41,0,0,0,.22.79Z"/><path class="cls-6" d="M64.33,12.6c.32-.47.66-.92,1-1.39s-.42-.85-.71-.42-.66.92-1,1.39.42.86.71.42Z"/><path class="cls-6" d="M70.62,14.32a14,14,0,0,1,3.23-.4.42.42,0,0,0,0-.83,15.37,15.37,0,0,0-3.45.43c-.52.13-.3.92.22.8Z"/><path class="cls-7" d="M22.45,30.86a11.74,11.74,0,0,1,1.95.55c.49.2.71-.6.22-.79a11.77,11.77,0,0,0-1.95-.56c-.52-.1-.74.69-.22.8Z"/><path class="cls-7" d="M29.3,30.54a6.57,6.57,0,0,1,2-.79c.52-.12.3-.91-.22-.8a7.4,7.4,0,0,0-2.18.88.41.41,0,0,0,.41.71Z"/><path class="cls-7" d="M27.86,24.08a5.51,5.51,0,0,1,1.86-1.46c.47-.24.06-1-.42-.72a6.19,6.19,0,0,0-2,1.6c-.33.41.25,1,.59.58Z"/><path class="cls-7" d="M19.58,23.45a5.66,5.66,0,0,0,1.62.74.42.42,0,0,0,.22-.8A5.13,5.13,0,0,1,20,22.74c-.45-.29-.86.42-.41.71Z"/><path class="cls-7" d="M20.73,20.43A10.33,10.33,0,0,0,21.94,20a.42.42,0,0,0,.14-.57.43.43,0,0,0-.56-.15,7.22,7.22,0,0,1-1,.38c-.5.17-.29,1,.22.79Z"/><path class="cls-7" d="M30.32,16.13c.61-.17,1.18-.43,1.8-.56s.3-.91-.22-.8-1.19.4-1.8.56a.42.42,0,0,0,.22.8Z"/><path class="cls-7" d="M37.36,24.7a3.25,3.25,0,0,0,2.41.46c.52-.09.3-.89-.22-.8A2.36,2.36,0,0,1,37.78,24c-.44-.31-.85.41-.42.71Z"/><path class="cls-7" d="M37.16,36.71a15.2,15.2,0,0,0,2.33-.15c.52-.09.3-.88-.22-.8a13.58,13.58,0,0,1-2.11.12.42.42,0,0,0,0,.83Z"/><path class="cls-7" d="M41.26,30a3.49,3.49,0,0,1,.63-.75.41.41,0,0,0-.58-.58,4,4,0,0,0-.76.92.42.42,0,0,0,.15.56.41.41,0,0,0,.56-.15Z"/><path class="cls-7" d="M46.61,25.73a.41.41,0,0,0,0-.82.41.41,0,0,0,0,.82Z"/><path class="cls-7" d="M46.72,25.72c.92-.14,1.85-.29,2.78-.42.52-.08.3-.87-.22-.8l-2.78.42c-.53.08-.3.87.22.8Z"/><path class="cls-7" d="M47.44,18.5h1a.41.41,0,0,0,0-.82h-1a.41.41,0,0,0,0,.82Z"/><path class="cls-7" d="M38.24,17.65a7.77,7.77,0,0,0,1.9-.59c.48-.24.06-.95-.41-.72a6.89,6.89,0,0,1-1.71.52c-.52.1-.3.9.22.79Z"/><path class="cls-7" d="M45.56,12.89l1.67-.84c.48-.23.06-1-.41-.71l-1.67.84c-.48.23-.06.94.41.71Z"/><path class="cls-7" d="M39.45,9.69a11.81,11.81,0,0,1,1.67-1.11c.47-.24.05-1-.42-.71A11.53,11.53,0,0,0,39,9c-.42.31,0,1,.42.71Z"/><path class="cls-7" d="M44.45,7.47a2.64,2.64,0,0,0,1.18.19.41.41,0,0,0,0-.82,1.94,1.94,0,0,1-.76-.08.41.41,0,1,0-.42.71Z"/><path class="cls-7" d="M47.86,5.58a2.79,2.79,0,0,1,.86.12c.51.16.72-.63.22-.79a3.29,3.29,0,0,0-1.08-.16.42.42,0,0,0,0,.83Z"/><path class="cls-7" d="M53.42,8.5c.32,0,.64.13,1,.14a.42.42,0,0,0,0-.83c-.33,0-.64-.13-1-.14a.42.42,0,0,0,0,.83Z"/><path class="cls-7" d="M51.61,13.78a5,5,0,0,0,1.5-.16.41.41,0,0,0-.22-.79,4.25,4.25,0,0,1-1.28.12.42.42,0,0,0,0,.83Z"/><path class="cls-7" d="M58.14,13.92a.42.42,0,0,0,0-.83.42.42,0,0,0,0,.83Z"/><path class="cls-7" d="M58.35,13.86a4.76,4.76,0,0,1,1.29-.79.42.42,0,0,0-.22-.8,5.23,5.23,0,0,0-1.49.88c-.43.3,0,1,.42.71Z"/><path class="cls-7" d="M56.54,18.86l1.67-1.25c.42-.31,0-1-.42-.71l-1.66,1.25c-.42.32,0,1,.41.71Z"/><path class="cls-7" d="M56.13,23a4.17,4.17,0,0,1,1-.51c.5-.17.29-1-.22-.8a5.46,5.46,0,0,0-1.21.6c-.44.29,0,1,.42.71Z"/><path class="cls-7" d="M66.2,17.39a18.74,18.74,0,0,0,2.89-.29c.53-.09.3-.88-.22-.8a17,17,0,0,1-2.67.27.41.41,0,0,0,0,.82Z"/><path class="cls-7" d="M73.57,15.72a.41.41,0,0,0,0-.82.41.41,0,0,0,0,.82Z"/><path class="cls-7" d="M73.86,15.6a5.21,5.21,0,0,1,1.31-.91c.47-.24,0-.95-.42-.71a5.85,5.85,0,0,0-1.47,1,.41.41,0,0,0,.58.58Z"/><path class="cls-7" d="M67.38,12.33a3.63,3.63,0,0,0,.92-.62c.38-.37-.2-1-.58-.58a3.13,3.13,0,0,1-.75.49.41.41,0,1,0,.41.71Z"/><path class="cls-7" d="M74.19,11.5a8.47,8.47,0,0,0,1.63.73.41.41,0,0,0,.22-.79,8.37,8.37,0,0,1-1.43-.65c-.47-.24-.89.47-.42.71Z"/><path class="cls-7" d="M62.73,7.52a7,7,0,0,1,1.56.27.42.42,0,0,0,.22-.8,8.37,8.37,0,0,0-1.78-.29.41.41,0,0,0,0,.82Z"/><path class="cls-7" d="M62,10.11l.84-.42A.41.41,0,1,0,62.38,9l-.83.42a.41.41,0,0,0-.15.56.42.42,0,0,0,.56.15Z"/><path class="cls-7" d="M55.53,4.73A12.52,12.52,0,0,0,57.72,5a.41.41,0,0,0,0-.82,10.86,10.86,0,0,1-2-.27c-.52-.1-.74.7-.22.8Z"/><path class="cls-8" d="M66.34,7.81C64.06,7,61.83,6.46,59.53,5.55c-2.47-1-4.21-1.88-7-1.77a14.77,14.77,0,0,0-6.36,1.56c-2.2,1.27-4.12,3-6.56,3.82-2.14.74-4.67,1-6.53,2.4l-1.26.14c-.06,1.81-8.66.72-7,5.11.82,2.23,5.3,1.63,7.08,1.39a19.84,19.84,0,0,0,8-2.58,24.31,24.31,0,0,1,16-3.51c4.49.64,10.63,4.4,14.11,0C72.15,9.46,68.45,8.55,66.34,7.81Z"/><path class="cls-9" d="M75.37,11.4c-3.56-4-11.18-6.58-20.21-7.1A50,50,0,0,0,40,5.88C35.57,7.06,30.31,9.45,30.47,12c.09,1.45,2.11,2.66,4.49,3.46,3.49,1.19,7.62,1.9,11.16,3.06,2.24.73,4.35,1.54,6.38,2.39a25.18,25.18,0,0,0,5.1,1.85c3,.61,7.22.76,9.45-.78,1.48-1,1.42-2.17,1.55-3.32a1.53,1.53,0,0,1,.94-1.5,19.5,19.5,0,0,1,2.58-.87,7.5,7.5,0,0,0,3.74-2C76.61,13.34,76.16,12.3,75.37,11.4Z"/><g class="cls-10"><path class="cls-9" d="M48.87,14.24c-1-.24-2.07-.44-3.11-.65h-.08c1.67.64,3.46,1.22,5.3,1.75,1.59.45,3.23.87,4.9,1.25L52.71,15.4A39.39,39.39,0,0,0,48.87,14.24Z"/><path class="cls-9" d="M53.09,13c-.53-.15-1.06-.3-1.61-.43-1.06-.26-2.16-.49-3.23-.73l-1.44-.34a46,46,0,0,0,5.64,1.88q2.8.75,5.81,1.31a30.86,30.86,0,0,0-3.33-1.16Z"/><path class="cls-9" d="M58.23,10.44a6.89,6.89,0,0,0-1.48-.82c-.63-.27-1.31-.52-2-.74s-1.32-.41-2-.57l-1.66-.37A42.67,42.67,0,0,0,58.23,10.44Z"/><path class="cls-9" d="M45.73,17l3.21.8c1,.25,2,.53,2.91.82,1.77.53,3.52,1.07,5.43,1.49l-.21-.13a26.14,26.14,0,0,0-5-2.15,52.77,52.77,0,0,0-6.24-1.5c-1.25-.23-2.51-.46-3.72-.73S40,15,39,14.77s-1.78-.47-2.64-.72a33.24,33.24,0,0,0,3.37,1.23C41.65,15.89,43.68,16.43,45.73,17Z"/></g><path class="cls-11" d="M75.37,11.4c-3.56-4-11.18-6.58-20.21-7.1A50,50,0,0,0,40,5.88C35.57,7.06,30.31,9.45,30.47,12c.09,1.45,2.11,2.66,4.49,3.46,3.49,1.19,7.62,1.9,11.16,3.06,2.24.73,4.35,1.54,6.38,2.39a25.18,25.18,0,0,0,5.1,1.85c3,.61,7.22.76,9.45-.78,1.48-1,1.42-2.17,1.55-3.32a1.53,1.53,0,0,1,.94-1.5,19.5,19.5,0,0,1,2.58-.87,7.5,7.5,0,0,0,3.74-2C76.61,13.34,76.16,12.3,75.37,11.4Zm-7.51,4.07c0,.25-.34.45-.77.59a9.09,9.09,0,0,1-2.33.35,20,20,0,0,1-3.11-.15,50.2,50.2,0,0,1-6.07-1.17c-.42-.11-.85-.2-1.25-.32l-1.19-.33-2.62-.75c-.75-.22-1.5-.44-2.23-.67,1.24.5,2.53,1,3.86,1.42,1.61.54,3.28,1,5,1.5l2.68.71a18.26,18.26,0,0,1,1.89.59,7.66,7.66,0,0,1,3,1.83,1.31,1.31,0,0,1,.36,1.09,1.85,1.85,0,0,1-.9,1.11,5.13,5.13,0,0,1-1.7.73,6.91,6.91,0,0,1-1.77.15A12.76,12.76,0,0,1,57,21.37c-1.19-.4-2.27-.87-3.37-1.33a20,20,0,0,0-2.15-.77c-.72-.21-1.47-.39-2.21-.58L46.4,18c-1.09-.28-2.18-.56-3.25-.85s-2.24-.62-3.32-.95-2.11-.67-3.11-1A24.46,24.46,0,0,1,34.09,14a8.65,8.65,0,0,1-1.85-1.18,2.17,2.17,0,0,1-.8-1.24A1.53,1.53,0,0,1,32,10.31a3.81,3.81,0,0,1,.61-.48,2.19,2.19,0,0,1,.56-.58,3,3,0,0,1,1.91-.54A4.07,4.07,0,0,1,36.51,9a4.91,4.91,0,0,1,1.22.72,1.87,1.87,0,0,1-.21-.67c0-.45.27-1,1.26-1.16a5,5,0,0,1,1.64,0,11.91,11.91,0,0,1,1.74.46c.56.18,1.1.38,1.64.58a9.57,9.57,0,0,0,1,.33c-.66-.66-1.88-1.2-2.07-2,0,0,.11-.08.19-.06a26,26,0,0,1,3.77,1.39c-.41-.37-.91-.71-1.29-1.09s-.67-.72-.45-1.1A1.16,1.16,0,0,1,45.56,6a3.48,3.48,0,0,1,1.1-.16,13.69,13.69,0,0,1,2.53.29A40.64,40.64,0,0,1,53.7,7.32a30.67,30.67,0,0,1,4.62,1.83,6.41,6.41,0,0,1,2.71,2c0,.05-.05.09-.15.09A18.41,18.41,0,0,1,58,10.79a37.79,37.79,0,0,1-5.08-1.71c-1.12-.44-2.21-.89-3.37-1.31l.12.05c1.75.82,3.51,1.63,5.37,2.39a61,61,0,0,0,6,2.08c.64.18,1.31.35,1.94.55s1.06.34,1.56.52a11.27,11.27,0,0,1,2.89,1.4C67.67,15,67.9,15.21,67.86,15.47Z"/><path class="cls-11" d="M62.61,8.14a21,21,0,0,0-3.48-1c-.32-.07-.65-.12-1-.17l.56.19,3,1c1.9.66,3.67,1.4,5.5,2.11-.62-.33-1.22-.66-1.85-1A26.81,26.81,0,0,0,62.61,8.14Z"/><path class="cls-11" d="M61.36,6.5a18.44,18.44,0,0,0-4.59-.74c2.09.35,3.94.93,6,1.34A7.34,7.34,0,0,0,61.36,6.5Z"/><path class="cls-11" d="M75.37,11.4C72.55,8.23,67.19,6,60.6,4.89l1,.26c.83.22,1.64.47,2.44.72s1.58.49,2.34.76,1.49.54,2.17.85,1.08.52,1.59.8A19.33,19.33,0,0,1,73,10.11a3.27,3.27,0,0,1,1.48,2s-.08.07-.16.06l-.39,0c-.71-.13-1.35-.33-2-.48a8,8,0,0,0-1-.18,1.66,1.66,0,0,0-.74.07.43.43,0,0,0-.28.45.76.76,0,0,0,.28.41c.36.36.82.7,1.16,1.06s.53.64.08.91a3.53,3.53,0,0,1-2,.12A25,25,0,0,1,66.75,14l-2-.51c.37.14.75.29,1.11.45a15.76,15.76,0,0,1,1.87.62A3.23,3.23,0,0,1,69.5,15.8a.41.41,0,0,1-.1.55,2,2,0,0,1-.77.25c-.66.13-1.59.26-1.78.65s.17.62.32.91c0,.1.1.23,0,.33a1.28,1.28,0,0,1-.73.12,4.78,4.78,0,0,1-1.18-.18c-.45-.12-.87-.27-1.28-.42l-1.25-.46c-.31-.11-.63-.2-1-.29.28.1.55.22.81.34A19.13,19.13,0,0,1,66,19.15a2.74,2.74,0,0,1,1.31,1.39c.14.53-.21,1.08-1,1.47a10.36,10.36,0,0,1-3.2.8,20.23,20.23,0,0,1-3.81.06,23.85,23.85,0,0,1-2.74-.34q.52.15,1.11.27c3,.61,7.22.76,9.45-.78,1.48-1,1.42-2.17,1.55-3.32a1.53,1.53,0,0,1,.94-1.5,19.5,19.5,0,0,1,2.58-.87,7.5,7.5,0,0,0,3.74-2C76.61,13.34,76.16,12.3,75.37,11.4Z"/><path class="cls-9" d="M56.84,19.58c-3.44-3.79-11.09-6.47-20.28-7.35A57,57,0,0,0,21,13c-4.56.87-10,2.8-10,5.16,0,1.32,2,2.51,4.42,3.35,3.5,1.23,7.68,2.06,11.25,3.27,2.24.76,4.36,1.59,6.39,2.46a27.39,27.39,0,0,0,5.11,1.9c3,.69,7.34,1,9.68-.28,1.57-.86,1.56-1.9,1.75-3a1.39,1.39,0,0,1,1-1.32,21.88,21.88,0,0,1,2.68-.66,8,8,0,0,0,3.91-1.66C58,21.4,57.61,20.43,56.84,19.58Z"/><g class="cls-10"><path class="cls-9" d="M29.66,21c-1-.26-2.1-.48-3.15-.72l-.07,0c1.67.66,3.46,1.26,5.32,1.82,1.6.49,3.25.94,4.93,1.36L33.52,22.2C32.3,21.75,31,21.33,29.66,21Z"/><path class="cls-9" d="M34,20c-.54-.16-1.07-.32-1.63-.47-1.07-.28-2.17-.53-3.26-.8l-1.45-.37a50.73,50.73,0,0,0,5.67,2c1.87.54,3.84,1,5.86,1.44a33.34,33.34,0,0,0-3.34-1.19Z"/><path class="cls-9" d="M39.39,17.94a8,8,0,0,0-1.47-.81c-.62-.27-1.31-.52-2-.76s-1.32-.43-2-.61l-1.69-.41A46.12,46.12,0,0,0,39.39,17.94Z"/><path class="cls-9" d="M26.32,23.3l3.24.86c1,.27,2,.57,2.93.88,1.77.56,3.54,1.13,5.47,1.59l-.21-.12a28.25,28.25,0,0,0-5-2.18,59,59,0,0,0-6.3-1.64c-1.26-.27-2.53-.53-3.76-.83-1.07-.26-2.09-.56-3.12-.85s-1.8-.5-2.66-.77c1,.46,2.2.88,3.38,1.27C22.21,22.15,24.26,22.73,26.32,23.3Z"/></g><path class="cls-11" d="M56.84,19.58c-3.44-3.79-11.09-6.47-20.28-7.35A57,57,0,0,0,21,13c-4.56.87-10,2.8-10,5.16,0,1.32,2,2.51,4.42,3.35,3.5,1.23,7.68,2.06,11.25,3.27,2.24.76,4.36,1.59,6.39,2.46a27.39,27.39,0,0,0,5.11,1.9c3,.69,7.34,1,9.68-.28,1.57-.86,1.56-1.9,1.75-3a1.39,1.39,0,0,1,1-1.32,21.88,21.88,0,0,1,2.68-.66,8,8,0,0,0,3.91-1.66C58,21.4,57.61,20.43,56.84,19.58ZM49,22.94c0,.22-.37.39-.81.5a10.37,10.37,0,0,1-2.4.21,23.36,23.36,0,0,1-3.17-.27A54.84,54.84,0,0,1,36.46,22c-.42-.11-.85-.21-1.26-.34L34,21.34l-2.65-.79-2.24-.71c1.24.51,2.54,1,3.87,1.46,1.62.56,3.3,1.09,5,1.59.89.26,1.8.51,2.71.76a16.1,16.1,0,0,1,1.89.63,7.71,7.71,0,0,1,3,1.79,1.13,1.13,0,0,1,.32,1,1.82,1.82,0,0,1-1,1,5.83,5.83,0,0,1-1.77.59,7.8,7.8,0,0,1-1.81.05,14.6,14.6,0,0,1-3.73-.87c-1.19-.42-2.28-.89-3.38-1.36a19.26,19.26,0,0,0-2.15-.79c-.73-.22-1.48-.43-2.23-.63L27,24.24c-1.1-.29-2.2-.6-3.28-.91s-2.25-.66-3.34-1-2.13-.7-3.13-1.08a25.66,25.66,0,0,1-2.63-1.14A8.84,8.84,0,0,1,12.75,19,1.93,1.93,0,0,1,12,17.78a1.33,1.33,0,0,1,.62-1.13,4.29,4.29,0,0,1,.65-.41,2.18,2.18,0,0,1,.6-.5,3.36,3.36,0,0,1,2-.41,4.53,4.53,0,0,1,1.46.36,5.36,5.36,0,0,1,1.21.71,1.44,1.44,0,0,1-.19-.62c0-.41.32-.87,1.35-1a5.78,5.78,0,0,1,1.67.1,12,12,0,0,1,1.75.49c.57.19,1.1.4,1.65.6.32.12.64.25,1,.35-.64-.63-1.86-1.17-2-1.88,0,0,.12-.06.2,0a27.62,27.62,0,0,1,3.78,1.43c-.4-.35-.89-.69-1.26-1.05s-.65-.68-.41-1a1.24,1.24,0,0,1,.65-.38,3.78,3.78,0,0,1,1.13-.1,14.71,14.71,0,0,1,2.57.38,42.45,42.45,0,0,1,4.56,1.25,35.54,35.54,0,0,1,4.62,1.86,6.63,6.63,0,0,1,2.67,2c0,.05-.06.08-.16.07a19.79,19.79,0,0,1-3-.56A42.19,42.19,0,0,1,34,16.47c-1.12-.45-2.21-.91-3.37-1.34l.11,0c1.75.82,3.51,1.64,5.37,2.41s3.87,1.51,6,2.16c.65.19,1.32.37,2,.58s1.06.36,1.57.55a11.89,11.89,0,0,1,2.88,1.4C48.81,22.48,49,22.71,49,22.94Z"/><path class="cls-11" d="M44,16.05a23,23,0,0,0-3.5-1l-1-.2.57.2,3,1.08c1.92.69,3.68,1.44,5.51,2.16-.61-.32-1.21-.65-1.84-1A25.07,25.07,0,0,0,44,16.05Z"/><path class="cls-11" d="M42.78,14.5a21.14,21.14,0,0,0-4.65-.86c2.12.4,4,1,6,1.48A8.05,8.05,0,0,0,42.78,14.5Z"/><path class="cls-11" d="M56.84,19.58c-2.72-3-8.09-5.3-14.76-6.57l1,.28c.84.24,1.65.5,2.46.76s1.58.52,2.34.8,1.5.56,2.18.87,1.08.52,1.59.79a20.62,20.62,0,0,1,2.88,1.8c.74.58,1.4,1.23,1.4,1.9,0,0-.08.07-.16.06l-.4-.07c-.72-.15-1.36-.36-2.05-.53a8.15,8.15,0,0,0-1-.2,1.92,1.92,0,0,0-.76,0,.42.42,0,0,0-.32.4c0,.13.15.27.28.39.35.34.8.66,1.12,1s.52.6,0,.83a4.06,4.06,0,0,1-2,0c-.93-.15-1.8-.38-2.64-.6l-2-.56q.57.21,1.11.45a18.71,18.71,0,0,1,1.88.65c.8.34,1.56.76,1.75,1.25a.35.35,0,0,1-.14.49,2.08,2.08,0,0,1-.79.19c-.68.09-1.63.17-1.85.51s.14.57.28.84c0,.1.09.21,0,.3a1.49,1.49,0,0,1-.75.08,6.1,6.1,0,0,1-1.2-.22c-.45-.13-.88-.28-1.29-.43l-1.25-.48-1-.31.8.34a20.72,20.72,0,0,1,3.4,1.57,2.61,2.61,0,0,1,1.27,1.32c.12.48-.27,1-1.11,1.29a12,12,0,0,1-3.31.58,23.87,23.87,0,0,1-3.88-.11c-1-.11-1.89-.26-2.79-.44.36.1.73.2,1.12.29,3,.69,7.34,1,9.68-.28,1.57-.86,1.56-1.9,1.75-3a1.39,1.39,0,0,1,1-1.32,21.88,21.88,0,0,1,2.68-.66,8,8,0,0,0,3.91-1.66C58,21.4,57.61,20.43,56.84,19.58Z"/></g></g></svg>