<svg xmlns="http://www.w3.org/2000/svg" viewBox="0 0 48 60.55"><defs><style>.cls-1{isolation:isolate;}.cls-2{fill:#221f20;opacity:0.3;}.cls-10,.cls-2,.cls-6,.cls-7{mix-blend-mode:multiply;}.cls-3{fill:none;}.cls-4{fill:#77583a;}.cls-5{fill:#f6ca6a;}.cls-6{fill:#d1a063;opacity:0.55;}.cls-12,.cls-7{fill:#c28655;}.cls-10,.cls-8,.cls-9{fill:#818386;}.cls-12,.cls-9{mix-blend-mode:screen;}.cls-11{fill:#6b6c6f;}</style></defs><g class="cls-1"><g id="Layer_1" data-name="Layer 1"><path class="cls-2" d="M43.79,52.45c0,3.77-8.73,6.82-19.5,6.82S4.78,56.22,4.78,52.45s8.74-6.83,19.51-6.83S43.79,48.68,43.79,52.45Z"/><path class="cls-3" d="M6.16,20.93V19.62C6.14,20.4,6.16,20.93,6.16,20.93Z"/><path class="cls-4" d="M42.41,38.77V17.05c0-4-2.46-3.87-2.46-3.87H9.23c-2.54,0-3,4.23-3.07,6.44V38.77s-.59,8,.58,12.13c0,0,0,.05,0,.08,0,3.32,7.87,6,17.57,6s17.56-2.68,17.56-6c0,0,0,0,0-.08C43,46.76,42.41,38.77,42.41,38.77Z"/><path class="cls-5" d="M41.66,37.7V16.89c0-3.81-2.36-3.71-2.36-3.71H9.86c-2.44,0-2.88,4.06-2.94,6.17V37.7s-.57,7.65.55,11.62c0,0,0,.06,0,.09,0,3.17,7.53,5.74,16.83,5.74s16.83-2.57,16.83-5.74a.29.29,0,0,0,0-.09C42.22,45.36,41.66,37.7,41.66,37.7Z"/><path class="cls-6" d="M41.66,37.7V16.89c0-3.81-2.36-3.71-2.36-3.71H9.86c-1.44,0-2.18,1.41-2.56,3A3.24,3.24,0,0,1,8.58,16a8.79,8.79,0,0,1,1.6.28c.62.14,1.24.3,1.86.47,1.2.33,2.39.7,3.6,1a27.28,27.28,0,0,0,4.12.7,50.28,50.28,0,0,0,8.14.13,46.21,46.21,0,0,0,8.26-1.35.11.11,0,0,1,.12.16,3.36,3.36,0,0,1-.59.77,7.35,7.35,0,0,1-2,1.3,23.72,23.72,0,0,1-2.56,1.05c-1.42.49-2.9.85-4.28,1.43a20.41,20.41,0,0,0-3.7,1.95c-.78.55-2.1,1.65-1.19,2.66a5,5,0,0,0,2.14,1.15,19.13,19.13,0,0,0,2.26.56,5.65,5.65,0,0,1,1.75.59,2.86,2.86,0,0,1,1.18,1.45,10.22,10.22,0,0,1,.46,3.17c.07,1.38.09,2.77.08,4.15,0,2.8-.09,5.6,0,8.41s-.15,5.88-.25,8.82c6.7-.76,11.54-2.91,11.54-5.46a.31.31,0,0,0,0-.08C42.22,45.36,41.66,37.7,41.66,37.7Z"/><path class="cls-7" d="M41.66,37.7V16.89c0-3.81-2.36-3.71-2.36-3.71H15.51a3.06,3.06,0,0,0,.8,1.35,9.92,9.92,0,0,0,4.25,2.24,20.54,20.54,0,0,0,4.72.92,11.61,11.61,0,0,0,1.18,0l2.63-.13,2.63-.13c.74,0,1.48-.06,2.21-.17A12.6,12.6,0,0,1,37.6,17a2.43,2.43,0,0,1,1.88,1.3,6.53,6.53,0,0,1,.66,2.5,19.79,19.79,0,0,1,0,3.08c-.11,1.95.58,23.81-1.32,26.59-.36.52-.08,1.27-.11,1.91,1.51-.86,2.39-1.87,2.39-3a.31.31,0,0,0,0-.08C42.22,45.36,41.66,37.7,41.66,37.7Z"/><path class="cls-8" d="M40.3,7.65c-3.24-1.87-9.2-3.12-16-3.12s-12.77,1.25-16,3.12H5.64V10.9c0,3.51,8.35,6.37,18.65,6.37s18.65-2.86,18.65-6.37V7.65Z"/><path class="cls-9" d="M11.82,6.19a20.68,20.68,0,0,0-2.07.73v8c.62.26,1.33.51,2.07.74Z"/><path class="cls-10" d="M40.3,7.65a26.25,26.25,0,0,0-9-2.66V16.8c6.84-.94,11.68-3.23,11.68-5.9V7.65Z"/><path class="cls-11" d="M42.94,7.65c0,3.51-8.36,6.36-18.65,6.36S5.64,11.16,5.64,7.65,14,1.27,24.29,1.27,42.94,4.13,42.94,7.65Z"/><path class="cls-12" d="M9.13,16.23s-1.65.55-1.69,5.58,0,24.48,0,24.48S7.2,49.67,9.13,51V21.82s-.07-3.62,2.69-4.55Z"/></g></g></svg>