<svg id="Layer_1" data-name="Layer 1" xmlns="http://www.w3.org/2000/svg" viewBox="0 0 48 60.55"><defs><style>.cls-1{fill:#e0f0f5;}.cls-2{fill:#cfe7ee;}.cls-3{fill:#ebf3f9;}.cls-4{fill:#ddedf3;}.cls-5{fill:#a6cfe1;}.cls-6{fill:#bbd7e0;}.cls-7{fill:#e0eff5;}.cls-8{fill:#e2eef5;}.cls-9{fill:#a8cedf;}.cls-10{fill:#9ccbe8;}.cls-11{fill:#b6dded;}.cls-12{fill:#bddee8;}.cls-13{fill:#5a453c;}.cls-14{fill:#abd4ea;}.cls-15{fill:#9bcbe8;}.cls-16{fill:#4a383c;}.cls-17{fill:#bddee9;}.cls-18{fill:#a1cfe8;}.cls-19{fill:#6b4a43;}</style></defs><path class="cls-1" d="M6.63,29.93a1.59,1.59,0,0,1-.15-.74c0-1.18-.14-2.36-.18-3.53s-.1-2.1-.15-3.15C6.1,21.25,6.07,20,6,18.71c-.06-1,0-1.92-.07-2.88-.11-1.17,0-2.33-.06-3.5,0-.6-.12-1.19-.08-1.79a1.94,1.94,0,0,1,.33-1.2,2.63,2.63,0,0,1,.8-.54,14.47,14.47,0,0,1,3.23-1c1.31-.28,2.65-.39,4-.6.66-.1,1.33-.13,2-.17,1.59-.1,3.18-.19,4.77-.26,1.85-.09,3.69-.07,5.54,0,1,0,2,.06,3.06.14,1.24.09,2.47.2,3.71.3,1.43.11,2.84.34,4.26.56a17.48,17.48,0,0,1,2.92.78c.29.1.57.25.86.35a1.38,1.38,0,0,1,1,1.42c0,2-.08,4-.09,6,0,1.24-.09,2.49-.15,3.73s-.06,2.35-.15,3.53-.1,2.17-.17,3.26-.13,2.21-.27,3.32c-.08.65-.09,1.31-.17,2-.14,1-.25,2.07-.41,3.11s-.34,2-.53,3-.45,2.12-.73,3.17-.58,2.12-.92,3.17c-.41,1.26-.92,2.48-1.45,3.69A13.86,13.86,0,0,1,36,50.48a3.2,3.2,0,0,1-1.31,1,12.4,12.4,0,0,1-3.74,1.25c-1,.16-2,.28-3,.38-1.66.16-3.32.13-5,.14A31.88,31.88,0,0,1,18.76,53a24.3,24.3,0,0,1-3.69-.72,7.06,7.06,0,0,1-2.83-1.48,1.54,1.54,0,0,1-.35-.51c-.39-.84-.94-1.61-1.29-2.48a.94.94,0,0,1-.07-.37l.06,0a.24.24,0,0,1,.11.06c.42.86.88,1.7,1.33,2.54a3.21,3.21,0,0,0,1,1.08,5.82,5.82,0,0,0,1.33.7,21.15,21.15,0,0,0,4.51,1,49.57,49.57,0,0,0,7.31.22,23.44,23.44,0,0,0,6.65-1,7.85,7.85,0,0,0,2.67-1.4,4.38,4.38,0,0,0,1-1.48c.59-1.24,1.14-2.51,1.61-3.81A48,48,0,0,0,40,38.52c.31-1.52.59-3,.77-4.57,0-.16.06-.31.09-.46a16.19,16.19,0,0,0,.28-2.31c0-.81.15-1.62.22-2.43,0-.27,0-.54,0-.81,0-.05,0-.09,0-.14a22.34,22.34,0,0,0,.13-2.45,1.43,1.43,0,0,1,0-.29,9.2,9.2,0,0,0,.1-1.66c0-1,.14-1.91.11-2.87a1.49,1.49,0,0,1,0-.21.81.81,0,0,0,0-.31c0-1.08.09-2.15.08-3.23,0-1.73.12-3.45.09-5.18a8.07,8.07,0,0,0,0-1.39,1.24,1.24,0,0,0-.61-1,6.3,6.3,0,0,0-1.81-.7C38.68,8.39,37.83,8.11,37,8c-1.75-.28-3.5-.48-5.26-.65-1.61-.15-3.22-.15-4.83-.27C26.1,7,25.31,7,24.53,7S22.82,7,22,7c-1.65,0-3.3.12-4.94.23a52.4,52.4,0,0,0-6.73.82,27.26,27.26,0,0,0-2.82.76A2.76,2.76,0,0,0,7,9c-1,.59-1,.84-1,2,0,.87,0,1.75,0,2.62a9.87,9.87,0,0,0,0,1.63.68.68,0,0,1,0,.14c0,1.43.13,2.86.09,4.3a1,1,0,0,0,0,.38.58.58,0,0,1,0,.14c0,.95.05,1.89.09,2.84.07,1.54.16,3.07.26,4.61l0,.14c0,.55.06,1.09.09,1.64a.78.78,0,0,1-.06.45Z"/><path class="cls-1" d="M9.44,44.53a15.74,15.74,0,0,1-1-3.05c-.26-1-.47-1.95-.67-2.94-.28-1.36-.52-2.73-.7-4.11-.11-.93-.25-1.86-.35-2.8a9.65,9.65,0,0,1-.1-1.7h0a.09.09,0,0,1,.11,0,.35.35,0,0,1,.06.17,3.67,3.67,0,0,0,0,.66.27.27,0,0,1,0,.12,31.18,31.18,0,0,0,.38,3.19c0,.22,0,.44,0,.66a.56.56,0,0,1,0,.12,4.55,4.55,0,0,0,.13.89.21.21,0,0,1,0,.12c.18,1.14.38,2.28.66,3.41l0,.11a6.35,6.35,0,0,0,.22,1l0,.12a27.78,27.78,0,0,0,1,3.57c.05.15.13.28.05.44Z"/><path class="cls-1" d="M9.44,44.53h0c.13,0,.16.07.19.15.27.82.59,1.61.91,2.4,0,.11.09.23,0,.33h0"/><path class="cls-2" d="M6,15.26c-.13-.12-.08-.27-.08-.41V11.5c0-.4,0-.79,0-1.19a1.35,1.35,0,0,1,.63-1.13,4.73,4.73,0,0,1,1.38-.61,20.19,20.19,0,0,1,3.16-.76c1.08-.19,2.17-.31,3.26-.45,1.51-.18,3-.27,4.55-.36,1.14-.06,2.28-.12,3.43-.1,1.41,0,2.83,0,4.25,0s2.62.08,3.92.16c1.71.12,3.42.32,5.12.55a32.35,32.35,0,0,1,3.75.76,9.28,9.28,0,0,1,2,.72,1.17,1.17,0,0,1,.72,1.06c0,1.51.06,3,0,4.51,0,1,0,2-.07,3-.07.82-.06,1.64-.07,2.45,0,.08,0,.16-.07.21a.58.58,0,0,1-.12-.47c0-1.81.05-3.61.14-5.41,0-.57,0-1.14,0-1.71s0-1.15,0-1.72c0-.28-.06-.27-.31-.2A.9.9,0,0,0,40.86,12a2.73,2.73,0,0,1,0,.7c0,.16-.06.32-.28.29a.15.15,0,0,1-.1-.15,3,3,0,0,0,.08-1.11c0-.27-.12-.38-.39-.27a5.51,5.51,0,0,1-1.5.39,5,5,0,0,1,1.22.43c.12.07.33.15.09.32a3.35,3.35,0,0,1-.92-.32,4.38,4.38,0,0,0-2.56-.05c-1.11.21-2.23.34-3.35.44-1.52.14-3,.28-4.58.33-.59,0-1.19,0-1.78.06a26.18,26.18,0,0,1-3.43.06c-1.17-.05-2.34,0-3.5-.08s-2.46-.1-3.69-.22c-1.94-.18-3.89-.4-5.81-.76a4.82,4.82,0,0,0-1.91.38.93.93,0,0,1-.37.1.25.25,0,0,1-.11,0c0-.26.23-.28.39-.35s.59-.17.94-.33a13.57,13.57,0,0,1-1.61-.39c-.13-.05-.23,0-.23.13a1.89,1.89,0,0,0,.14,1.17.23.23,0,0,1-.12.2c-.29.11-.35-.09-.38-.29a3.94,3.94,0,0,1,0-1,1.05,1.05,0,0,0-.8-.94c-.1,0-.14,0-.16.12s0,.21,0,.31c0,1.19,0,2.38,0,3.58C6.12,14.9,6.16,15.1,6,15.26Z"/><path class="cls-2" d="M8.35,40.39c.23.82.46,1.63.7,2.44A36.09,36.09,0,0,0,10.54,47l.07.38h-.07l-1.1-2.88c-.15-.53-.3-1.06-.47-1.59-.23-.73-.43-1.46-.6-2.2C8.35,40.63,8.36,40.51,8.35,40.39Z"/><path class="cls-2" d="M6.16,20.18a.21.21,0,0,1,.08.21c0,.81.06,1.62.09,2.44,0,1.51.15,3,.22,4.53,0,.13,0,.26,0,.39-.11-.11-.07-.24-.07-.37,0-1.22-.14-2.42-.18-3.64S6.16,21.37,6.16,20.18Z"/><path class="cls-2" d="M40.9,33.52c.13-1.27.26-2.55.37-3.83a13.55,13.55,0,0,1,.1-1.42c0-.13,0-.27.08-.37,0,.93-.15,1.85-.21,2.77,0,.71-.15,1.41-.18,2.11A1.86,1.86,0,0,1,40.9,33.52Z"/><path class="cls-2" d="M41.6,25.09c0-1.12.09-2.24.1-3.36a3.1,3.1,0,0,1,.14-1.24c-.06,1.46-.11,2.93-.16,4.39A.24.24,0,0,1,41.6,25.09Z"/><path class="cls-2" d="M6,15.34c.09.07.08.18.07.28,0,1.5.14,3,.08,4.48a.26.26,0,0,1-.07-.25C6.13,18.34,6,16.84,6,15.34Z"/><path class="cls-2" d="M41.45,27.82c-.06-.76.09-1.52.07-2.28a.24.24,0,0,1,.08-.21c.06.76-.11,1.52-.08,2.28A.21.21,0,0,1,41.45,27.82Z"/><path class="cls-2" d="M6.55,27.75a7.18,7.18,0,0,1,.16,1.6v.58H6.63C6.67,29.2,6.5,28.48,6.55,27.75Z"/><path class="cls-2" d="M6.79,30.79a5.15,5.15,0,0,1,.2,1.4,19.81,19.81,0,0,1,.27,2.66,6.6,6.6,0,0,1-.21-1.32A21,21,0,0,1,6.79,30.79Z"/><path class="cls-2" d="M7.41,35.79a7.69,7.69,0,0,1,.35,1.65c.15.64.24,1.29.36,1.94A12.53,12.53,0,0,1,7.58,37,4.32,4.32,0,0,1,7.41,35.79Z"/><path class="cls-2" d="M8.12,39.38a2.2,2.2,0,0,1,.23,1A2.37,2.37,0,0,1,8.12,39.38Z"/><path class="cls-2" d="M7.26,34.85a2.47,2.47,0,0,1,.15.94A2,2,0,0,1,7.26,34.85Z"/><path class="cls-2" d="M6.71,30.09c.15.22,0,.47.08.7C6.63,30.57,6.74,30.32,6.71,30.09Z"/><path class="cls-3" d="M35.12,11.28h-.31a.2.2,0,0,1-.13,0c-1.1-.05-2.18-.25-3.28-.3-.54,0-1.08-.1-1.62-.1s-1.23-.1-1.85-.11a1.64,1.64,0,0,0-.54,0c-2.32,0-4.63,0-6.94,0-1.52,0-3.05.09-4.57.28-.8.09-1.6.1-2.4.24-.15,0-.29-.12-.45,0H13c-.42.25-.84,0-1.25,0-.87-.15-1.76-.25-2.62-.48a4.66,4.66,0,0,1-1.45-.52c-.33-.23-.33-.46,0-.72A3.57,3.57,0,0,1,9,9a19.72,19.72,0,0,1,3.66-.62c1.25-.12,2.5-.25,3.75-.35,3.54-.29,7.09-.25,10.63-.25,1.21,0,2.41,0,3.62.13s2.71.1,4.06.3,2.52.23,3.76.54a9.87,9.87,0,0,1,1.75.63c.19.09.39.14.41.41s-.14.39-.36.49a9.71,9.71,0,0,1-3.12.89c-.45.07-.9.08-1.35.18A1.39,1.39,0,0,1,35.12,11.28Z"/><path class="cls-4" d="M35.12,11.28a11.52,11.52,0,0,0,5.17-1.08.32.32,0,0,0,.22-.32.34.34,0,0,0-.24-.36,11.58,11.58,0,0,0-3.8-1c-1.29-.11-2.57-.3-3.85-.45h-.39c-1.59,0-3.18-.13-4.77-.18-2-.07-4-.06-6,0-1.27,0-2.54,0-3.8.16-1.58.16-3.18.12-4.75.43-.56.11-1.15.08-1.73.18a20,20,0,0,0-3.23.78c-.22.08-.48.25-.45.52s.31.4.56.48a26,26,0,0,0,3.51.73,6.77,6.77,0,0,0,1.42.14c-.1.2-.24.24-.48.2-1-.19-2-.33-2.93-.52a6.89,6.89,0,0,1-1.83-.6c-.56-.29-.54-.73,0-1a11.17,11.17,0,0,1,2.6-.73c1.08-.2,2.18-.25,3.27-.4,1.32-.19,2.65-.23,4-.32,3.58-.24,7.17-.15,10.75-.12a29,29,0,0,1,2.94.12c1.44.17,2.89.17,4.32.38a21.29,21.29,0,0,1,3.62.64,7.6,7.6,0,0,1,1.28.55c.3.16.23.69-.11.86a9.86,9.86,0,0,1-3.33.94l-1.19.15A1,1,0,0,1,35.12,11.28Z"/><path class="cls-5" d="M10.3,11.91c1,.17,2.09.33,3.14.47s2.26.23,3.39.37c.47.06,1,0,1.43.07.93.08,1.87.09,2.8.09,1.51,0,3,.14,4.52.08s2.8-.07,4.19-.16c1.71-.12,3.4-.29,5.1-.47A22,22,0,0,0,37.28,12a4,4,0,0,1,2.4.42l.36.14a.24.24,0,0,1,.22.09c.06.11,0,.17-.09.19-.57-.14-1.09-.42-1.65-.58a2.32,2.32,0,0,0-1.11,0,33.29,33.29,0,0,1-4.21.58c-1.17.1-2.35.25-3.53.3-.71,0-1.42.1-2.14.1-2.35,0-4.7,0-7,0-1.73,0-3.45-.19-5.17-.33-1.42-.12-2.82-.31-4.21-.53a1.77,1.77,0,0,1-.78-.23A.13.13,0,0,1,10.3,11.91Z"/><path class="cls-6" d="M34.73,11.28h.08c0,.12.31,0,.24.23s-.2.07-.32.08l-3.9.31c-.62,0-1.24,0-1.86.06-2.59.15-5.19.13-7.79.08-1.25,0-2.5-.1-3.76-.15s-2.6-.2-3.9-.3a2.09,2.09,0,0,1-.34-.08c-.26-.08,0-.15,0-.23a1.54,1.54,0,0,1,.48,0,.27.27,0,0,1,.08.07.15.15,0,0,1,0,.09c1.31.08,2.6.22,3.91.26s2.38.09,3.57.16c1.36.09,2.72.07,4.08,0,1.79,0,3.58-.11,5.36-.21,1.13-.07,2.26-.12,3.38-.23,0,0,.1.05.14,0a.12.12,0,0,1-.07-.12A1.13,1.13,0,0,1,34.73,11.28Z"/><path class="cls-7" d="M40.2,12.61c-.07,0-.13,0-.16-.08A2.18,2.18,0,0,0,38.92,12a1.06,1.06,0,0,1-.48-.23,7.09,7.09,0,0,0,1.91-.52c.11-.05.21,0,.24.1a3.21,3.21,0,0,1,0,1.38s-.07,0-.1,0S40.31,12.64,40.2,12.61Z"/><path class="cls-8" d="M7.57,12.68c-.13,0-.23,0-.23-.18,0-.36,0-.73,0-1.09,0-.15.12-.25.27-.17a8,8,0,0,0,1.59.43c.1,0,.21,0,.27.15-.47.28-1.08.25-1.51.63,0,.09-.1.13-.17.18a.57.57,0,0,1-.13.08A.09.09,0,0,1,7.57,12.68Z"/><path class="cls-4" d="M13.73,11.28H13a4.25,4.25,0,0,1,1.36-.22c1.15-.06,2.29-.19,3.43-.27,3.23-.22,6.45-.1,9.68-.13.15,0,.31-.06.44.07-.25.2-.54.09-.82.11h-.5c-1.89,0-3.77,0-5.65,0-1.28,0-2.56.11-3.84.19-1.11.07-2.21.23-3.32.24Z"/><path class="cls-9" d="M10.3,11.91v.15a12.55,12.55,0,0,0-2.1.58.31.31,0,0,1-.19,0c-.1-.08,0-.14,0-.19A6.29,6.29,0,0,1,10.3,11.91Z"/><path class="cls-10" d="M7.57,12.68h.08a.13.13,0,0,1,.1.12c-.06.16-.14.29-.34.2l.08-.16Z"/><path class="cls-11" d="M40.2,12.61c.13,0,.2.11.31.15v.16h0c-.13,0-.19-.05-.22-.16Z"/><path class="cls-12" d="M8,12.45,8,12.6l0,0a.16.16,0,0,1-.2,0L8,12.45Z"/><path class="cls-13" d="M40.28,12.76l.22.16V13a1.12,1.12,0,0,1,.14.4.28.28,0,0,1,0,.13.36.36,0,0,1-.26.27,6.25,6.25,0,0,1-1.51.51.79.79,0,0,0-.34.1c-1.11.61-2.37.47-3.56.71-.73.15-1.48.12-2.2.3a2.75,2.75,0,0,1-.81,0c-.81,0-1.6.21-2.41.11a6.27,6.27,0,0,0-1.12.15,60.38,60.38,0,0,1-6.86,0c-1.84-.09-3.68-.16-5.52-.27a5.35,5.35,0,0,0-1.13-.05,1.23,1.23,0,0,1-.55-.18c-.15,0-.3-.08-.45-.09-1-.09-2-.31-2.95-.43a9.69,9.69,0,0,0-1.41-.17,5.16,5.16,0,0,1-2.19-1,.45.45,0,0,1,0-.57h0a.38.38,0,0,0,.32-.24c0-.13.16-.09.23-.16H8a15.81,15.81,0,0,1,1.78-.53.89.89,0,0,1,.56,0c1.07.18,2.14.38,3.21.52.71.1,1.44.11,2.16.19,1.4.15,2.81.17,4.22.3h.35c2.29,0,4.58,0,6.87,0a41.2,41.2,0,0,0,4.57-.27c.76-.1,1.54-.13,2.31-.19s1.31-.18,2-.26,1.29-.25,1.94-.34a2.53,2.53,0,0,1,1.16.27C39.46,12.42,39.87,12.6,40.28,12.76Z"/><path class="cls-11" d="M39,37c-.17.29,0,.63-.16.92a1.3,1.3,0,0,1-.08.17c-.24-.38-.05-.77,0-1.13.25-1.55.53-3.09.73-4.65s.41-3,.53-4.47c.09-1.09.22-2.19.29-3.29.09-1.59.12-3.18.23-4.77.08-1.23,0-2.46,0-3.7a16.88,16.88,0,0,1,.1-2.36c0-.21-.13-.41,0-.61.3,0,.25.27.24.45-.13,1.51-.06,3-.08,4.52v2a2.81,2.81,0,0,1-.11,1c-.14.39,0,.79,0,1.19-.11,1.16-.07,2.34-.26,3.49a16.84,16.84,0,0,0-.19,2.55c0,1.5-.47,2.94-.54,4.42a17.33,17.33,0,0,0-.28,2.87,1.25,1.25,0,0,1-.26.72A1.3,1.3,0,0,0,39,37Z"/><path class="cls-14" d="M40.66,13.07a4.78,4.78,0,0,1,0,1.51c0,.81,0,1.63,0,2.45,0,1.33-.06,2.65-.09,4s-.1,2.9-.25,4.34c-.11,1.08-.24,2.16-.33,3.24s-.31,2.43-.44,3.65c-.16,1.55-.46,3.09-.72,4.63a6.77,6.77,0,0,0-.13,1.19c-.26.85-.33,1.74-.55,2.59a23.25,23.25,0,0,1-1.41,4.45A13.26,13.26,0,0,1,36,46.32a.19.19,0,0,1,0-.1,1.68,1.68,0,0,1,.34-.77,4.14,4.14,0,0,0,.53-1.1,9.06,9.06,0,0,0,.52-1.6,42.59,42.59,0,0,0,1.25-5.7c.18-1.46.46-2.9.68-4.35.38-2.5.57-5,.83-7.52.15-1.42.2-2.84.25-4.27.08-2.24.16-4.47.13-6.7,0-.3.24-.53.13-.82h0a.31.31,0,0,1,0-.32Z"/><path class="cls-15" d="M40.59,13.07v.32c-.13-.11-.06-.26-.08-.39Z"/><path class="cls-2" d="M26.61,10.73h1.33c1.6.06,3.19.16,4.78.3a14.15,14.15,0,0,0,1.84.18c.06,0,.12,0,.17.07h-.62a.36.36,0,0,1-.33.09c-1-.13-2-.19-3-.24S29.05,11,28.2,11a11.44,11.44,0,0,1-1.55-.13A.11.11,0,0,1,26.61,10.73Z"/><path class="cls-16" d="M26.61,10.81c1.35,0,2.69.08,4,.17,1.16.07,2.31.2,3.47.3.16.16.38,0,.66.17-.45.06-.8.11-1.16.14-1.59.13-3.17.2-4.77.26-.58,0-1.16,0-1.74.06C26,12,24.89,12,23.79,12c-1.33,0-2.67-.06-4-.09-1.1,0-2.2-.09-3.3-.16l-2.86-.23a.84.84,0,0,1-.23-.07c.11-.12.23,0,.33-.07a.31.31,0,0,0,.19,0c2.28,0,4.56.23,6.84.29,1.43,0,2.86,0,4.29,0h3.12c.21,0,.41,0,.42-.31s-.22-.23-.38-.27a.68.68,0,0,0-.2,0c-2.08,0-4.16-.16-6.23-.07-1.37.07-2.73.11-4.09.2s-2.43.19-3.65.17a.48.48,0,0,1-.31,0v-.07h0c.7-.08,1.41-.13,2.11-.2,1.1-.12,2.2-.13,3.29-.21.73,0,1.45-.08,2.18-.09,1.65,0,3.3,0,4.95,0C26.39,10.77,26.51,10.74,26.61,10.81Z"/><path class="cls-9" d="M8,12.6l-.23.16-.08-.08.07-.08Z"/><path class="cls-6" d="M26.61,10.81c-1.7,0-3.4,0-5.1,0-1.28,0-2.56.08-3.84.16s-2.62.2-3.93.3a1.66,1.66,0,0,1,.82-.14c1.33-.08,2.66-.19,4-.28,2.69-.17,5.38-.1,8.06-.13Z"/><path class="cls-13" d="M9.52,14.48a1.19,1.19,0,0,0-.16.67c0,1.7,0,3.41,0,5.11,0,1.42.1,2.84.28,4.25a11.56,11.56,0,0,1,.07,1.55c0,.85.19,1.66.25,2.49a15.85,15.85,0,0,1,0,2.84c-.05.36-.46.36-.71.48a1.52,1.52,0,0,0-.48.23c-.07.07-.13.19-.25.13s-.09-.17-.12-.27c-.14-.63-.05-1.29-.14-1.93a29.27,29.27,0,0,0-.44-3.1,9.19,9.19,0,0,1-.1-1.39c-.1-1.06-.07-2.13-.18-3.18-.27-2.5-.21-5-.23-7.5a11.55,11.55,0,0,0,.08-1.32A11,11,0,0,0,9.52,14.48Z"/><path class="cls-13" d="M14.36,15.1a6,6,0,0,0-.08,1.41c0,.63-.16,1.25-.23,1.87v.23c-.11.18,0,.38-.08.55v.16a2,2,0,0,0,0,.65c0,1.76-.17,3.51-.22,5.27,0,.71,0,1.43,0,2.14a.35.35,0,0,0,.37.4,3.64,3.64,0,0,1,.8.15c.1,0,.2.08.22.2a.24.24,0,0,1-.17.27,3.24,3.24,0,0,1-.79.28c-.27.07-.42-.15-.63-.23a1.7,1.7,0,0,1-.2-.86c0-1.45.08-2.9.13-4.35,0-1.11.13-2.21.2-3.31s.16-2.22.3-3.33a3.45,3.45,0,0,0,0-1.5L14,15Z"/><path class="cls-17" d="M42.06,10.85a.3.3,0,0,0-.12-.31.13.13,0,0,0-.2,0,1.11,1.11,0,0,1-.68.34.41.41,0,0,0-.32.49c0,.42,0,.83,0,1.25,0,.17,0,.28-.24.27l0,.05,0,.06a.37.37,0,0,0,.12.13l.1.07a1.24,1.24,0,0,1,.05.76,7.52,7.52,0,0,0-.06,1.16c0,1.33,0,2.65,0,4,0,1.05-.16,2.08-.17,3.13a5.22,5.22,0,0,0-.07.88,12,12,0,0,1-.2,2.74c-.09.87-.11,1.73-.16,2.6,0,.54-.07,1.09-.15,1.62a24,24,0,0,0-.41,3,17.71,17.71,0,0,0-.26,1.92A2.12,2.12,0,0,1,39,36.28a1.42,1.42,0,0,0-.17.64.19.19,0,0,1,0,.08c-.1.07-.08.21-.08.31a1.4,1.4,0,0,1-.15.67,10.78,10.78,0,0,0-.34,1.47,22.16,22.16,0,0,1-.62,2.68,12.1,12.1,0,0,1-1.76,4.15,5.19,5.19,0,0,0-.37.45,4.41,4.41,0,0,1-1.6,1.34,13.49,13.49,0,0,1-4.6,1.48c-1.79.24-3.58.41-5.39.48A20.62,20.62,0,0,1,21.22,50a24.21,24.21,0,0,1-3.79-.65,9.61,9.61,0,0,1-5.07-2.93,6.69,6.69,0,0,1-1.23-1.83c-.29-.73-.55-1.45-.79-2.2a34.35,34.35,0,0,1-1-4c-.3-1.54-.52-3.09-.7-4.65-.15-1.31-.37-2.62-.48-3.94-.06-.6-.12-1.21-.22-1.81,0-.11,0-.28-.12-.32h0a3.09,3.09,0,0,0,0-1c0-1.23-.18-2.45-.26-3.68s-.12-2.74-.2-4.12,0-2.6,0-3.9a16.93,16.93,0,0,1,.11-1.74A.75.75,0,0,1,7.48,13a.28.28,0,0,0,0-.2c-.24.08-.31-.06-.31-.25a4,4,0,0,1,.05-1,.39.39,0,0,0-.13-.49A2.61,2.61,0,0,0,6,10.48v4.86c.1.93,0,1.88.11,2.82.07.64,0,1.29,0,1.94v.08c.09,1.22.13,2.44.18,3.66,0,.74.07,1.48.12,2.21a16.28,16.28,0,0,0,.09,1.7h0a.73.73,0,0,1,0,.41c0,.59.08,1.18.12,1.77v.16c.11.22,0,.47.08.7h0a7.91,7.91,0,0,1,.11.95c.08,1,.29,2.07.36,3.11h0c.06.31.08.63.15.94h0c.24,1.19.4,2.4.71,3.59h0c.1.33.15.67.23,1h0c.16.61.26,1.23.46,1.82s.42,1.35.64,2,.46,1.33.7,2a2.39,2.39,0,0,0,.35.74v0a.88.88,0,0,0,.11.39,25.57,25.57,0,0,0,1.2,2.4,4.24,4.24,0,0,0,2.66,2.1,21.61,21.61,0,0,0,4.34,1h0c.9.07,1.8.22,2.7.22,1.86,0,3.71.06,5.57-.05a25.62,25.62,0,0,0,5.23-.79,9.07,9.07,0,0,0,2.47-1,2.85,2.85,0,0,0,1-.74A10.28,10.28,0,0,0,36.67,49c.25-.57.48-1.14.74-1.71a41.15,41.15,0,0,0,2.23-6.73c.27-1.08.47-2.17.69-3.26.25-1.25.43-2.52.57-3.79.08-.39.07-.79.13-1.18.17-1.08.19-2.17.3-3.25,0-.4.06-.79.12-1.19v-.08a1.16,1.16,0,0,0,0-.49c0-.67.09-1.34.12-2v-.24a.18.18,0,0,0,0-.11c0-1,.1-1.91.09-2.87a14.69,14.69,0,0,1,.11-1.62v-.16c0-1,0-1.94,0-2.91,0-1.6.12-3.19.11-4.79A7.08,7.08,0,0,1,42.06,10.85ZM26.75,51.1l.18-.12A.22.22,0,0,1,26.75,51.1Z"/><path class="cls-13" d="M11.08,37.42a2.94,2.94,0,0,0,.09,1.81c0,.12.11.22,0,.33a.12.12,0,0,1-.17,0c-.1-.1-.23-.15-.22-.34a.71.71,0,0,0-.74-.78c-.45,0-.74-.06-.77-.56a10.71,10.71,0,0,1-.32-2,2.28,2.28,0,0,1,.12-1.6.56.56,0,0,0-.23-.78.37.37,0,0,1-.19-.36c0-.19.14-.34.34-.18A6.53,6.53,0,0,1,10.34,34a1.25,1.25,0,0,1,.23.71,11.77,11.77,0,0,0,.34,1.54A4,4,0,0,1,11.08,37.42Z"/><path class="cls-18" d="M13.5,36.25c-.12-.1-.07-.24-.07-.36,0-2,0-4.09,0-6.14,0-.12,0-.26.07-.36Z"/><path class="cls-13" d="M33.64,48.12a.58.58,0,0,0,.19,0,5.81,5.81,0,0,0,1.84-1.61c-.05,0-.12,0-.14.05A16.92,16.92,0,0,1,33.64,48.12Z"/><path class="cls-13" d="M11.63,39.69c-.24-.22-.33-.7-.16-.86C11.48,39.12,11.68,39.38,11.63,39.69Z"/><path class="cls-18" d="M13.42,41.87a3.35,3.35,0,0,1,.08-1.09C13.46,41.14,13.59,41.52,13.42,41.87Z"/><path class="cls-13" d="M9.83,40.55c.25.14.24.38.24.62A1.82,1.82,0,0,1,9.83,40.55Z"/><path class="cls-13" d="M11.32,38.52s0,.13-.06.06-.12-.23.06-.3Z"/><path class="cls-16" d="M13.73,11.35c.94,0,1.86-.13,2.79-.22.54-.05,1.08,0,1.62-.07.94,0,1.87-.06,2.8-.12,1.17-.06,2.34-.07,3.51,0s2.46.07,3.69.07a.61.61,0,0,1,.27,0c.13.07.44-.06.37.26s-.07.55-.45.55H28c-2.21,0-4.42,0-6.63,0-1.52,0-3-.13-4.55-.16-1,0-1.95-.27-2.94-.23-.05,0-.11,0-.17-.07Z"/><path class="cls-13" d="M40.58,14.05c0-.22.21-.44,0-.66,0,.12,0,.26-.14.28a6.46,6.46,0,0,0-.9.35,9.48,9.48,0,0,0-1.87.6,2,2,0,0,1-1,.18,13.27,13.27,0,0,0-2.17.27,12,12,0,0,1-2.06.23,21.57,21.57,0,0,1-3.11.12.25.25,0,0,0-.12,0,7.15,7.15,0,0,1-2.11.22c-1.62,0-3.25,0-4.87,0a13.09,13.09,0,0,1-1.78-.11c-1.31-.18-2.63-.06-3.94-.17a6.4,6.4,0,0,1-2.21-.28.51.51,0,0,0-.18.44c0,.31,0,.62,0,.92a1.85,1.85,0,0,1,0,.23A5.82,5.82,0,0,0,14.05,18c0,.12-.05.24-.08.36a2.3,2.3,0,0,0,0,.26,1.51,1.51,0,0,1,0,.56,1.62,1.62,0,0,0,0,.2c0,.45.09.89.05,1.32-.05.58-.08,1.17-.12,1.75s.08.61.59.65.48.06.48.52c0,1,0,2.05,0,3.08a4.45,4.45,0,0,0,.08.81.56.56,0,0,0,.4.48c.11,0,.25.05.23.21s-.15.16-.26.2c-.42.16-.45.22-.26.63a.65.65,0,0,1,0,.56,2.63,2.63,0,0,0-.16,1.11V46.34c0,.16,0,.31,0,.47,0,.37.16.53.53.55s.49.19.49.54a.6.6,0,0,0,.49.62,1.6,1.6,0,0,1,.47.19c.68.44.86.43,1.49-.1.32-.27.94-.15.95.2a.74.74,0,0,0,.39.72,6,6,0,0,1-1-.12c-.31-.09-.59-.24-.91-.3a9.77,9.77,0,0,1-2.4-.78c-.13-.06-.25-.14-.37-.2a9.51,9.51,0,0,1-1.59-.91,7.52,7.52,0,0,1-1.05-1.13c.05-.14-.06-.21-.12-.31a8.87,8.87,0,0,1-.94-1.41,5.38,5.38,0,0,0-.5-1.09,3.89,3.89,0,0,0-.33-1,3.23,3.23,0,0,0-.34-1l0-.08a.27.27,0,0,0,0-.12c-.07-.22-.16-.45-.23-.68s-.15-.57-.19-.87a13.8,13.8,0,0,1-.33-1.7c-.25-.89-.23-1.82-.4-2.73a1.24,1.24,0,0,1,.15-.75.81.81,0,0,0-.15-1,.49.49,0,0,1-.14-.18.18.18,0,0,1,0-.19c.08-.09.15,0,.2,0l.55.38c.47.36.94.71.88,1.41a1.09,1.09,0,0,0,.07.3A15.5,15.5,0,0,1,11,37.42a8.26,8.26,0,0,1,.2.86,1.57,1.57,0,0,0,0,.23c0,.13.09.26.12.4a2.79,2.79,0,0,1,.16.86,13.87,13.87,0,0,0,.77,2.77,1.56,1.56,0,0,0,.43.69c.33.3.54.27.72-.13a2.43,2.43,0,0,0,.17-.6A21.34,21.34,0,0,0,13.77,40c0-1.35,0-2.7,0-4-.08-1.86,0-3.72,0-5.58a1.45,1.45,0,0,1,.17-.67,2,2,0,0,0,.29-1c-.22-.12-.4-.4-.71-.22a2.71,2.71,0,0,0-.06.94c0,2.27,0,4.55,0,6.82,0,1.5,0,3,0,4.49a3.88,3.88,0,0,1,0,1.13c0,.15-.05.31-.09.46s.05.51-.19.54-.28-.29-.37-.48a25,25,0,0,1-1.17-4.48C11.3,37,11.2,36,11,35.06c-.23-1.21-.42-2.43-.54-3.66-.14-1.55-.28-3.1-.41-4.65-.2-2.32-.36-4.64-.43-7a38.47,38.47,0,0,1,.06-4.68c0-.41.07-.45.48-.38.76.12,1.51.26,2.27.37a3.88,3.88,0,0,0,1.4.08c.06,0,.12-.07.11-.15-1.36-.13-2.7-.41-4.05-.59-.14,0-.28-.09-.4,0-.31.17-.28.48-.28.76,0,2.44-.07,4.89.15,7.33.16,1.73.18,3.47.37,5.2a14,14,0,0,1,.12,3.1c-.08.62-.05.65-.67.89s-.71.26-.74-.52a30.2,30.2,0,0,0-.31-3.3c-.05-.37-.19-.73-.21-1.11-.08-1.32-.19-2.64-.26-4-.05-1.07-.15-2.15-.18-3.23-.06-1.82-.09-3.63,0-5.45a.85.85,0,0,0-.11-.64c-.13-.18,0-.36,0-.54-.14.06-.15.18-.15.32,0,.47-.06.94-.06,1.4,0,1.57-.06,3.14,0,4.71s.12,3.13.24,4.69c.07,1,.17,1.93.24,2.9a1.13,1.13,0,0,1-.07.65c.16,0,.14.14.15.26.09,1.07.24,2.13.34,3.2.11,1.29.35,2.58.52,3.87a46.57,46.57,0,0,0,.95,5.25c.21.9.49,1.79.78,2.68a9.7,9.7,0,0,0,1,2.33,8.73,8.73,0,0,0,2.27,2.46,10.84,10.84,0,0,0,2.62,1.35,15.61,15.61,0,0,0,2.16.58,21.13,21.13,0,0,0,3.87.49,41.44,41.44,0,0,0,5.46-.29c1.06-.13,2.1-.26,3.14-.48a12.43,12.43,0,0,0,3.18-1.24A5.48,5.48,0,0,0,36,46.32v-.08a4.25,4.25,0,0,1,.48-.92,1.8,1.8,0,0,0,.38-.87,3.31,3.31,0,0,0,.48-1.29,25.58,25.58,0,0,0,.75-2.69c.23-1.16.51-2.31.64-3.5.08-.83.27-1.65.39-2.48s.25-1.94.4-2.91c.13-.82.26-1.63.32-2.46,0-.65.07-1.31.16-2,.16-1.13.22-2.26.37-3.39s.09-2.38.14-3.57c.06-1.55.15-3.11.1-4.67C40.57,15,40.6,14.55,40.58,14.05Z"/><path class="cls-13" d="M12.41,46.09A7.7,7.7,0,0,1,11,43.76a1.36,1.36,0,0,1-.12-.48.73.73,0,0,1,1.18.45.59.59,0,0,0,.35.45c.24.08.27.23.26.44v1.14C12.64,45.93,12.62,46.07,12.41,46.09Z"/><path class="cls-13" d="M19.5,48.65c0-.12-.08-.22-.19-.27a1,1,0,0,0-1.13.36.31.31,0,0,1-.28.16,1,1,0,0,1-.89-.28.64.64,0,0,0-.29-.19c-.63-.13-.64-.13-.64-.77,0-.31-.1-.41-.41-.41-.59,0-.61,0-.61-.62V30.41a1.4,1.4,0,0,1,.17-.78.53.53,0,0,0,0-.59c-.24-.42-.24-.42.22-.52.18,0,.36-.11.34-.35s-.17-.33-.4-.3-.28-.11-.29-.28a7.16,7.16,0,0,1-.09-.92c0-1,0-2,0-3,0-.64,0-.66-.63-.64-.37,0-.5-.11-.46-.47a22.77,22.77,0,0,0,.08-3.2c0,.05-.08.11-.07.17,0,1.18-.2,2.34-.23,3.51,0,1.5-.14,3-.1,4.5,0,.28.12.39.39.41a4.83,4.83,0,0,1,.84.11c.08,0,.24,0,.22.15a.22.22,0,0,1-.22.19c-.31-.05-.47.18-.67.32a2.67,2.67,0,0,0-.09.26c-.08.43-.46.76-.46,1.21,0,2.15,0,4.31.06,6.46A48.11,48.11,0,0,1,13.57,42a3,3,0,0,1-.28,1.2c-.1.19-.21.24-.35.1a2.09,2.09,0,0,1-.58-.88,17.23,17.23,0,0,1-.73-2.71c-.07-.29-.29-.54-.16-.86l-.15-.31c-.1-.08-.06-.16,0-.24a2.9,2.9,0,0,0-.24-.86.84.84,0,0,0-.21.75c0,.41.14.8.21,1.24-.18-.1-.13-.25-.17-.37a.85.85,0,0,0-.68-.67c-.38,0-.76,0-.91-.48h0a17.18,17.18,0,0,0,.54,2.66,1.52,1.52,0,0,1,.24.62v.08c.1.25.17.51.27.76a4.24,4.24,0,0,0,.51,1.29H11c.56-.11.78,0,1,.52a1,1,0,0,0,.35.44c.09.06.2.12.2.23a3.18,3.18,0,0,1-.12,1.59,3.21,3.21,0,0,0,1.11,1.25A11.3,11.3,0,0,0,16.76,49c.77.22,1.54.44,2.32.62a1.6,1.6,0,0,0,1.06,0C19.68,49.44,19.39,49.19,19.5,48.65Z"/><path class="cls-13" d="M14,27c-.06,0-.1,0-.1.09s0,.12.12.11.08-.05.08-.11A.1.1,0,0,0,14,27Z"/><path class="cls-19" d="M13.89,15.1A9.09,9.09,0,0,1,12,14.9l-2-.34c-.16,0-.39-.07-.38.23s-.07.62-.07.93c0,1.54,0,3.09,0,4.63s.13,3.18.26,4.77c.06.82.13,1.65.18,2.47.07,1.28.22,2.55.37,3.82s.29,2.38.51,3.56c.26,1.43.43,2.88.8,4.3a18.82,18.82,0,0,0,.62,2.43c.15.36.26.74.41,1.09.07.16.18.36.4.31s.21-.24.22-.42.06-.54.08-.81,0-.73.08-1.09V36.25a.39.39,0,0,1,0-.26V29.65a.39.39,0,0,1,0-.26v-.94c0-.3-.06-.59-.07-.89-.06-1.28,0-2.57.09-3.85,0-.6,0-1.19.07-1.79.1-1.17.22-2.34.29-3.51,0-.71.17-1.41.22-2.12C14.12,15.89,14.31,15.44,13.89,15.1Z"/></svg>