<svg id="Layer_1" data-name="Layer 1" xmlns="http://www.w3.org/2000/svg" viewBox="0 0 87.42 90.11"><defs><style>.cls-1{fill:#fcb35b;}.cls-2{fill:#ada9c4;}.cls-3{fill:#fca397;}.cls-4{fill:#6c6b7c;}.cls-5{fill:#fff;}.cls-6{fill:#46467f;}.cls-7{fill:#7772d3;}</style></defs><path class="cls-1" d="M6.39,73.74a3.59,3.59,0,0,0,.32.35c.14.16.29.32.44.46A47.85,47.85,0,0,0,41.34,89.24a50.11,50.11,0,0,0,6.16-.33h0a47.8,47.8,0,0,0,14-4c-.27-17.39,0-32.6,0-32.89-.16-.36-8.19-2.5-18.91-2.93C25.84,48.45,11.52,57.85,6.39,73.74Z"/><path class="cls-1" d="M47.5,88.91h0a47.8,47.8,0,0,0,14-4l1.09-.5a48,48,0,0,0,17.86-15C71.4,56.7,63.87,52.94,61.61,52.05a5.7,5.7,0,0,0-.7-.25Z"/><path class="cls-2" d="M37.07,22.18s-15-5.2-16.84,10.23S41.9,54.23,45.37,40.77,37.07,22.18,37.07,22.18Z"/><path class="cls-2" d="M61.14,31a14.84,14.84,0,0,0,3.39-11.74c-.65-4.91-2.77-6.56-2.77-6.56s3.53-6.55-6.33-6.48S39.61,10.9,39.61,10.9,35.18,8.53,33,13.71s-.45,13-.45,13Z"/><path class="cls-3" d="M39.24,38.35l-.11,12s2.14,3.47,9.18,4.11c5.23.47,6.92-2.21,6.92-2.21L54.05,41.75l-12.68-2.9Z"/><path d="M39.26,37.62a4.1,4.1,0,0,0,.34,1.17c2.64,6,12.09,8.62,15.12,8.91l-.67-6Z"/><path class="cls-3" d="M57,14.35s6.18,15.14,3.62,23.5S50.4,44.7,45.85,43a15.21,15.21,0,0,1-6.61-4.6,6.47,6.47,0,0,1-7.09-2.71c-2.77-4.06-.9-8.59,1.58-9.58s5.34.85,5.34.85l-2.18-4.41S47,.62,57,14.35Z"/><path class="cls-2" d="M39.07,26.92s6.39,1.52,11.11-5.5,4.41-10,4.41-10L58.8,19S60,13.91,58,10.57s-4.1-2.74-4.1-2.74L39.61,10.9,35.48,22.15Z"/><path d="M55.84,33.46a.57.57,0,0,1-.18,0,.55.55,0,0,1-.35-.72c.92-2.68-1-5.7-1.05-5.73a.56.56,0,0,1,.16-.78.58.58,0,0,1,.79.16c.09.14,2.27,3.51,1.16,6.72A.57.57,0,0,1,55.84,33.46Z"/><path d="M38.23,34a.57.57,0,0,1-.43-.19l-3.93-4.44a.56.56,0,0,1,.84-.74l3.94,4.43a.57.57,0,0,1,0,.8A.54.54,0,0,1,38.23,34Z"/><path d="M34,32.72a.57.57,0,0,1-.56-.49.58.58,0,0,1,.5-.63l2.83-.34a.56.56,0,0,1,.62.49.56.56,0,0,1-.49.63L34,32.72Z"/><path class="cls-4" d="M59.14,21.29H59l-2.64-.55a.57.57,0,0,1-.44-.67.56.56,0,0,1,.67-.44l2.65.55a.57.57,0,0,1,.43.67A.56.56,0,0,1,59.14,21.29Z"/><path class="cls-4" d="M48,22.66a.56.56,0,0,1-.51-.33.55.55,0,0,1,.28-.74l3.54-1.65a.56.56,0,1,1,.48,1l-3.55,1.65A.49.49,0,0,1,48,22.66Z"/><path d="M58.93,27.44a.56.56,0,0,1-.54-.42l-.74-2.73a.55.55,0,0,1,.12-.52l.86-1a.57.57,0,1,1,.85.75l-.66.76.66,2.44a.57.57,0,0,1-.4.69Z"/><path d="M51.34,27.91a.58.58,0,0,1-.55-.42l-.73-2.73a.54.54,0,0,1,.13-.53l1.19-1.3a.55.55,0,0,1,.79,0,.56.56,0,0,1,0,.79l-1,1.07.65,2.44a.55.55,0,0,1-.39.69Z"/><path class="cls-5" d="M49.67,55.17c-4.34,0-8.77-2.45-9.05-2.6a.56.56,0,0,1-.21-.77.57.57,0,0,1,.77-.22c.09.05,9.45,5.24,13.62.35a.57.57,0,0,1,.8-.07.58.58,0,0,1,.06.8A7.53,7.53,0,0,1,49.67,55.17Z"/><path class="cls-6" d="M61.17,33H61c-2.5-.12-4.43-2.52-4.29-5.35a4.89,4.89,0,0,1,4.79-4.91,4.28,4.28,0,0,1,3.16,1.69,5.61,5.61,0,0,1-.35,7.19A4.25,4.25,0,0,1,61.17,33Zm.1-9.13a3.78,3.78,0,0,0-3.46,3.84A3.75,3.75,0,0,0,61,31.89a3.17,3.17,0,0,0,2.44-1,4.49,4.49,0,0,0,.27-5.71,3.13,3.13,0,0,0-2.33-1.26Z"/><path class="cls-6" d="M49.85,33.24H49.6a5.15,5.15,0,0,1-4.89-5.38,5.09,5.09,0,0,1,1.68-3.55A5.16,5.16,0,0,1,50.09,23a5.13,5.13,0,0,1-.24,10.26Zm0-9.14a4,4,0,1,0,2.7,7,4,4,0,0,0-2.51-7Z"/><path class="cls-6" d="M56.94,27.92a.65.65,0,0,1-.34-.11,3,3,0,0,0-2.12,0,.56.56,0,1,1-.32-1.08c.21-.06,2.07-.58,3.12.22a.56.56,0,0,1,.11.79A.58.58,0,0,1,56.94,27.92Z"/><path class="cls-6" d="M45.28,28.45a.56.56,0,0,1-.46-.23c-1.18-1.62-6.37-1.89-8.29-1.86a.56.56,0,0,1-.57-.55.57.57,0,0,1,.55-.58c.76,0,7.5-.06,9.22,2.33a.56.56,0,0,1-.12.79A.58.58,0,0,1,45.28,28.45Z"/><path d="M54.2,37.4a4.9,4.9,0,0,1-3-1.33.56.56,0,1,1,.78-.81s1.6,1.51,3,.84a.56.56,0,0,1,.75.27.57.57,0,0,1-.27.75A3,3,0,0,1,54.2,37.4Z"/><path class="cls-7" d="M52.62,87.26c7-1.67,13.18-5.55,18.9-9.43-2.43-20.62-15.92-26-15.92-26-8.1,7-16.47-1.47-16.47-1.47v2a67.19,67.19,0,0,1-.74,10.12L34,87.64S46.15,88.81,52.62,87.26Z"/></svg>