<svg id="Layer_1" data-name="Layer 1" xmlns="http://www.w3.org/2000/svg" viewBox="0 0 87.42 90.11"><defs><style>.cls-1{fill:#fcb35b;}.cls-2{fill:#7772d3;}.cls-3{fill:#ada9c4;}.cls-4{fill:#fca397;}.cls-5{fill:#6c6b7c;}.cls-6{fill:#46467f;}.cls-7,.cls-8{fill:none;stroke-linecap:round;stroke-linejoin:round;stroke-width:1.13px;}.cls-7{stroke:#000;}.cls-8{stroke:#932f2d;}</style></defs><path class="cls-1" d="M6.39,73.74a3.59,3.59,0,0,0,.32.35c.14.16.29.32.44.46A47.85,47.85,0,0,0,41.34,89.24a50.11,50.11,0,0,0,6.16-.33h0a47.8,47.8,0,0,0,14-4c-.27-17.39,0-32.6,0-32.89-.16-.36-8.19-2.5-18.91-2.93C25.84,48.45,11.52,57.85,6.39,73.74Z"/><path class="cls-1" d="M47.5,88.91h0a47.8,47.8,0,0,0,14-4l1.09-.5a48,48,0,0,0,17.86-15C71.4,56.7,63.87,52.94,61.61,52.05a5.7,5.7,0,0,0-.7-.25Z"/><path class="cls-2" d="M52.62,87.26c7-1.67,13.18-5.55,18.9-9.43-2.43-20.62-15.92-26-15.92-26-8.1,7-16.47-1.47-16.47-1.47v2a67.19,67.19,0,0,1-.74,10.12L34,87.64S46.15,88.81,52.62,87.26Z"/><path class="cls-3" d="M37.11,22.21S22.11,17,20.23,32.46,42,54.33,45.42,40.84,37.11,22.21,37.11,22.21Z"/><path class="cls-3" d="M61.22,31a14.91,14.91,0,0,0,3.41-11.77c-.66-4.92-2.78-6.58-2.78-6.58s3.54-6.56-6.34-6.49-15.86,4.72-15.86,4.72S35.22,8.54,33,13.73s-.44,13-.44,13Z"/><path class="cls-4" d="M39.28,38.42l-.11,12.06s2.15,3.49,9.2,4.12c5.25.48,6.93-2.21,6.93-2.21L54.13,41.83,41.41,38.91Z"/><path d="M39.31,37.69a3.43,3.43,0,0,0,.34,1.16c2.64,6,12.11,8.64,15.14,8.94l-.66-6Z"/><path class="cls-4" d="M57.06,14.37s6.19,15.17,3.62,23.55S50.46,44.78,45.9,43a15.17,15.17,0,0,1-6.62-4.61,6.49,6.49,0,0,1-7.11-2.72c-2.77-4.06-.89-8.6,1.59-9.6s5.35.85,5.35.85l-2.18-4.41S47.09.61,57.06,14.37Z"/><path class="cls-3" d="M39.11,27s6.41,1.53,11.14-5.5,4.41-10,4.41-10L58.88,19s1.17-5.11-.77-8.46S54,7.83,54,7.83L39.65,10.91,35.52,22.19Z"/><path d="M55.91,33.52l-.18,0a.57.57,0,0,1-.35-.72c.92-2.69-1-5.71-1-5.74a.57.57,0,0,1,.16-.79.56.56,0,0,1,.78.17c.09.14,2.28,3.51,1.17,6.73A.57.57,0,0,1,55.91,33.52Z"/><path d="M38.27,34.07a.56.56,0,0,1-.43-.19L33.9,29.43a.55.55,0,0,1,.05-.79.57.57,0,0,1,.8,0l3.94,4.45a.57.57,0,0,1,0,.8A.54.54,0,0,1,38.27,34.07Z"/><path d="M34,32.78a.57.57,0,0,1-.56-.5.58.58,0,0,1,.5-.63l2.83-.34a.57.57,0,0,1,.63.5.56.56,0,0,1-.49.63l-2.84.34Z"/><path class="cls-5" d="M59.42,20.09l-.09.08-2.22,1.55a.55.55,0,0,1-.78-.14.56.56,0,0,1,.13-.79l2.22-1.55a.57.57,0,0,1,.74.85Z"/><path class="cls-5" d="M46.28,19.56a.57.57,0,0,1,.84-.72l3.12,2.38a.57.57,0,0,1-.69.9l-3.12-2.38A.52.52,0,0,1,46.28,19.56Z"/><path class="cls-6" d="M49.91,33.3h-.25a5.15,5.15,0,0,1-4.89-5.39,5.15,5.15,0,0,1,10.28.49,5.15,5.15,0,0,1-5.14,4.9Zm0-9.16a4,4,0,0,0-.19,8,4,4,0,0,0,4.21-3.82,4,4,0,0,0-3.82-4.2Z"/><path class="cls-6" d="M57,28a.54.54,0,0,1-.34-.12,3,3,0,0,0-2.12,0,.58.58,0,0,1-.71-.38.59.59,0,0,1,.38-.71c.21-.06,2.07-.58,3.13.22A.57.57,0,0,1,57,28Z"/><path class="cls-6" d="M45.33,28.5a.58.58,0,0,1-.46-.23c-1.18-1.63-6.38-1.9-8.31-1.86a.57.57,0,0,1-.57-.56.57.57,0,0,1,.55-.58c.77,0,7.52-.06,9.25,2.33a.56.56,0,0,1-.13.79A.51.51,0,0,1,45.33,28.5Z"/><line class="cls-7" x1="48.34" y1="25.95" x2="51.07" y2="26.51"/><line class="cls-7" x1="57.37" y1="26.49" x2="60.11" y2="25.97"/><path class="cls-6" d="M61.26,33.08h-.2c-2.51-.12-4.44-2.53-4.3-5.36s2.29-5,4.79-4.92a4.28,4.28,0,0,1,3.17,1.69,5.62,5.62,0,0,1-.34,7.21A4.32,4.32,0,0,1,61.26,33.08Zm.1-9.16a3.79,3.79,0,0,0-3.47,3.85C57.78,30,59.23,31.86,61.11,32a3.22,3.22,0,0,0,2.45-1,4.49,4.49,0,0,0,.28-5.72,3.16,3.16,0,0,0-2.34-1.26Z"/><path class="cls-7" d="M51.07,36.49s5.29-1.05,7.67.32"/><polyline class="cls-8" points="41.59 18.75 41.59 20.09 40.11 20.09"/><polyline class="cls-8" points="43.61 18.27 43.61 20.16 44.99 20.16"/><polyline class="cls-8" points="39.99 22.09 41.7 22.09 41.7 23.7"/><polyline class="cls-8" points="43.61 23.78 43.61 22 44.99 22"/></svg>