<svg id="Layer_1" data-name="Layer 1" xmlns="http://www.w3.org/2000/svg" viewBox="0 0 87.42 90.11"><defs><style>.cls-1{fill:#b36040;}.cls-2{fill:#ada9c4;}.cls-3{fill:#f27e64;}.cls-4{fill:#6c6b7c;}.cls-5{fill:#fcb35b;}</style></defs><path class="cls-1" d="M6.39,73.74a3.59,3.59,0,0,0,.32.35c.14.16.29.32.44.46A47.85,47.85,0,0,0,41.34,89.24a50.11,50.11,0,0,0,6.16-.33h0a47.8,47.8,0,0,0,14-4c-.27-17.39,0-32.6,0-32.89-.16-.36-8.19-2.5-18.91-2.93C25.84,48.45,11.52,57.85,6.39,73.74Z"/><path class="cls-1" d="M47.5,88.91h0a47.8,47.8,0,0,0,14-4l1.09-.5a48,48,0,0,0,17.86-15C71.4,56.7,63.87,52.94,61.61,52.05a5.7,5.7,0,0,0-.7-.25Z"/><path class="cls-2" d="M29.75,9.69s-5.66,6.4-2.55,13.46,6.45-12.82,6.45-12.82Z"/><path class="cls-3" d="M48.79,38.46,49,51.16s-2.23,3.69-9.65,4.42c-5.52.54-7.49-.68-7.49-.68l.66-6.44.66-6.29L46.54,39Z"/><path d="M46.54,39c0,.35,2.05,1.44,1.85,1.91-2.73,6.4-12.92,9.61-16.11,10l.9-8.68Z"/><path class="cls-3" d="M32.16,10.32a12,12,0,0,0-3.68,5.5c-1.66,4.91-5,16.35-2.82,23.37,2.86,9.11,11.08,7.41,16,5.47a16.36,16.36,0,0,0,7.09-5.08,6.9,6.9,0,0,0,7.62-3c2.94-4.46.87-9.4-1.81-10.46s-5.75,1-5.75,1l2.3-4.83S41.82,2.46,32.16,10.32Z"/><path d="M49.45,33.26a.54.54,0,0,1-.43-.21.53.53,0,0,1,.11-.75l4.64-3.46a.54.54,0,0,1,.64.86l-4.64,3.46A.55.55,0,0,1,49.45,33.26Z"/><path d="M54.66,33.1h-.12l-3.79-.91a.53.53,0,0,1-.39-.64.54.54,0,0,1,.64-.4l3.79.91a.54.54,0,0,1,.39.64A.52.52,0,0,1,54.66,33.1Z"/><path d="M28.43,25.12h-.14a.54.54,0,0,1-.38-.65l.74-2.93a.54.54,0,0,1,1,.27l-.75,2.92A.53.53,0,0,1,28.43,25.12Z"/><path d="M36.47,25.55a.3.3,0,0,1-.13,0,.53.53,0,0,1-.39-.65L36.7,22a.53.53,0,1,1,1,.26L37,25.15A.53.53,0,0,1,36.47,25.55Z"/><path class="cls-4" d="M28,18.74a.54.54,0,0,1-.05-1.07l2.41-.26a.53.53,0,1,1,.11,1.06L28,18.73Z"/><path class="cls-4" d="M38.89,20.67a.51.51,0,0,1-.2,0l-3.28-1.37a.53.53,0,0,1-.28-.7.54.54,0,0,1,.7-.29l3.27,1.37a.54.54,0,0,1-.21,1Z"/><path class="cls-2" d="M48.77,27.08s-1.31,5.29-2.33,4.65-2-8.27-1.2-11.68,1.3-5.13,1.3-5.13S32.67,13.69,29,10.39,33.08,5,41,6.46s11,4.47,11,4.47,5-.74,6.8,2.28-2.36,14.5-2.36,14.5S55.19,24.83,48.77,27.08Z"/><path class="cls-2" d="M22.31,32.54s3.88-4.29,5.85-3.65,2.69,3.53,2.69,3.53,2.34-3.24,4.93-2.33S43.9,31.34,44,32.24s-1.55,1.22-1.55,1.22S29.38,35,22.31,32.54Z"/><path class="cls-2" d="M48.77,27.08s-.23,8.58-.06,12.5S38,49.64,30.4,46.26,24.93,33,24.93,33l6.72.62A12.82,12.82,0,0,1,35,32.37a8.57,8.57,0,0,1,4.11.59Z"/><path d="M32.71,35.56a.53.53,0,0,1-.06-1.06,4.32,4.32,0,0,0,3.14-1.93.52.52,0,0,1,.71-.24.53.53,0,0,1,.24.72c-1.09,2.19-3.86,2.5-4,2.51Z"/><path d="M30.61,31.47a.51.51,0,0,1-.47-.29c-1.88-3.75.82-7.69.94-7.86a.53.53,0,0,1,.87.61s-2.45,3.6-.86,6.77a.54.54,0,0,1-.24.72A.49.49,0,0,1,30.61,31.47Z"/><path class="cls-5" d="M35.88,56.16A29.89,29.89,0,0,1,29,55.37a.54.54,0,0,1,.27-1c.13,0,13.2,3.32,19.73-4.42a.54.54,0,1,1,.82.69C46.05,55.11,40.36,56.16,35.88,56.16Z"/></svg>