<svg id="Layer_1" data-name="Layer 1" xmlns="http://www.w3.org/2000/svg" viewBox="0 0 87.42 90.11"><defs><style>.cls-1{fill:#507849;}.cls-2{fill:#e56445;}.cls-3{fill:#fca397;}.cls-4{fill:#fff;}</style></defs><path class="cls-1" d="M6.42,74.1c.1.13.2.24.31.36l.45.46A48.28,48.28,0,0,0,41.65,89.81a50.82,50.82,0,0,0,6.21-.33h.06a48.24,48.24,0,0,0,14.17-4c-.24-17.55.08-32.9.08-33.19-.16-.37-8.26-2.54-19.07-3C26.09,48.62,11.62,58.08,6.42,74.1Z"/><path class="cls-1" d="M47.86,89.48h.06a48.24,48.24,0,0,0,14.17-4l1.1-.51a48.33,48.33,0,0,0,18-15.1C72,57,64.45,53.22,62.17,52.32a5.09,5.09,0,0,0-.7-.26Z"/><path class="cls-2" d="M42.12,20.85s-11.18.43-11.71-10.3c-.57-11.43,10-12.42,14.45-7.76s3.56,9.35,3.56,9.35,3.16-2.79,6.53.7c2.48,2.57,1.15,6.71,1.15,6.71s5.77-.17,5.18,4.86A11.21,11.21,0,0,1,57.07,32Z"/><path class="cls-3" d="M52.16,40.69,50.88,52.56s-2.51,3.18-9.51,3c-5.22-.14-6.91-1.5-6.91-1.5l1.37-5.93,1.34-5.79L50,40.93Z"/><path d="M50,40.93A4,4,0,0,1,49.54,42c-3.3,5.64-10.7,6.14-13.71,6.09l1.34-5.79Z"/><path class="cls-3" d="M37.43,15S29.6,29.21,31.17,37.74s9.26,7.92,13.95,6.73a15.05,15.05,0,0,0,7-3.78,6.42,6.42,0,0,0,7.3-1.85c3.19-3.68,1.86-8.36-.46-9.62s-5.36.22-5.36.22l2.65-4.09S48.82,2.61,37.43,15Z"/><path d="M53.44,35.94a.5.5,0,0,1-.45-.26.52.52,0,0,1,.19-.71l4.74-2.69a.52.52,0,0,1,.52.91L53.7,35.88A.5.5,0,0,1,53.44,35.94Z"/><path d="M57.28,36.39a.53.53,0,0,1-.24-.06l-2.39-1.27a.52.52,0,0,1,.49-.92l2.39,1.28a.51.51,0,0,1,.21.7A.48.48,0,0,1,57.28,36.39Z"/><path d="M35.29,20.58a.52.52,0,0,1-.28-.95,3.37,3.37,0,0,1,3.79,0,.52.52,0,1,1-.62.84,2.33,2.33,0,0,0-2.6,0A.52.52,0,0,1,35.29,20.58Z"/><path d="M36.76,34.12a.52.52,0,0,1-.51-.42,9.9,9.9,0,0,1,2.07-8.23.53.53,0,0,1,.74,0,.52.52,0,0,1,0,.74,9,9,0,0,0-1.81,7.33.51.51,0,0,1-.41.6Z"/><path d="M35.22,27.59a.53.53,0,0,1-.52-.54l.15-2.84a.49.49,0,0,1,.55-.49.52.52,0,0,1,.49.55l-.15,2.83A.51.51,0,0,1,35.22,27.59Z"/><path d="M43,28.41a.51.51,0,0,1-.51-.54L42.64,25a.49.49,0,0,1,.55-.49.52.52,0,0,1,.49.55l-.15,2.83A.5.5,0,0,1,43,28.41Z"/><path class="cls-2" d="M35.82,18.22a5,5,0,0,1,4.51-1.95,6.46,6.46,0,0,1,4.47,2.57S43,23.69,46.7,26.77s6.94,2.67,6.94,2.67l3-.72,2.6-4-7.46-10L41.49,7.72l-6.12,4.46Z"/><path d="M39.2,37.19a3.88,3.88,0,0,1-.79-.07.51.51,0,0,1-.4-.61.52.52,0,0,1,.61-.41,3.52,3.52,0,0,0,3.6-1.54.51.51,0,0,1,.71-.18.52.52,0,0,1,.17.72A4.35,4.35,0,0,1,39.2,37.19Z"/><path class="cls-4" d="M32.05,31.84a5.22,5.22,0,1,1,5.11-5.16A5.14,5.14,0,0,1,32.05,31.84Zm.09-9.39a4.18,4.18,0,1,0,4,4.22A4.1,4.1,0,0,0,32.14,22.45Z"/><path class="cls-4" d="M44.06,33.12A5.22,5.22,0,1,1,49.33,28,5.22,5.22,0,0,1,44.06,33.12Zm.09-9.39a4.18,4.18,0,1,0,4.14,4.21A4.17,4.17,0,0,0,44.15,23.73Z"/><path class="cls-4" d="M39.92,27.84l-3.71-.34a.52.52,0,0,1-.47-.56.52.52,0,0,1,.57-.47L40,26.8a.52.52,0,0,1,0,1Z"/><path class="cls-4" d="M56.67,29.24a.56.56,0,0,1-.38-.17c-2.23-2.43-7.2,0-7.25,0a.53.53,0,0,1-.7-.24.51.51,0,0,1,.23-.69c.23-.12,5.72-2.81,8.48.18a.52.52,0,0,1,0,.74A.56.56,0,0,1,56.67,29.24Z"/><path class="cls-4" d="M41.22,55.66A21.35,21.35,0,0,1,32,53.45a.52.52,0,0,1-.2-.71.53.53,0,0,1,.71-.2c.1.06,9.94,5.4,19.18-1.25a.54.54,0,0,1,.73.12.53.53,0,0,1-.12.73A18.28,18.28,0,0,1,41.22,55.66Z"/><path d="M46.75,22.38a.53.53,0,0,1-.44-.25A2.69,2.69,0,0,0,43,20.82a.52.52,0,0,1-.4-1,3.74,3.74,0,0,1,4.59,1.73.52.52,0,0,1-.17.72A.53.53,0,0,1,46.75,22.38Z"/></svg>