<svg id="Layer_1" data-name="Layer 1" xmlns="http://www.w3.org/2000/svg" viewBox="0 0 87.42 90.11"><defs><style>.cls-1{fill:#507849;}.cls-2{fill:#e56445;}.cls-3{fill:#fca397;}.cls-4{fill:#fff;}.cls-5,.cls-6{fill:none;stroke-linecap:round;stroke-linejoin:round;stroke-width:1.03px;}.cls-5{stroke:#681410;}.cls-6{stroke:#211815;}</style></defs><path class="cls-1" d="M6.39,73.74a3.59,3.59,0,0,0,.32.35c.14.16.29.32.44.46A47.85,47.85,0,0,0,41.34,89.24a50.11,50.11,0,0,0,6.16-.33h0a47.8,47.8,0,0,0,14-4c-.27-17.39,0-32.6,0-32.89-.16-.36-8.19-2.5-18.91-2.93C25.84,48.45,11.52,57.85,6.39,73.74Z"/><path class="cls-1" d="M47.5,88.91h0a47.8,47.8,0,0,0,14-4l1.09-.5a48,48,0,0,0,17.86-15C71.4,56.7,63.87,52.94,61.61,52.05a5.7,5.7,0,0,0-.7-.25Z"/><path class="cls-2" d="M41.69,20.9s-11.09.44-11.63-10.19C29.48-.61,40-1.61,44.36,3s3.55,9.25,3.55,9.25,3.12-2.77,6.48.69c2.46,2.54,1.15,6.64,1.15,6.64s5.71-.17,5.14,4.81a11.15,11.15,0,0,1-4.16,7.5Z"/><path class="cls-3" d="M51.66,40.55,50.42,52.31s-2.48,3.16-9.42,3c-5.17-.12-6.85-1.47-6.85-1.47l1.34-5.89,1.32-5.73,12.72-1.42Z"/><path d="M49.53,40.79a4.12,4.12,0,0,1-.46,1.1c-3.26,5.59-10.59,6.1-13.58,6l1.32-5.73Z"/><path class="cls-3" d="M37,15.11s-7.73,14.1-6.16,22.55,9.19,7.83,13.83,6.65a15,15,0,0,0,7-3.76A6.37,6.37,0,0,0,58.9,38.7c3.16-3.65,1.83-8.29-.47-9.54s-5.32.24-5.32.24l2.62-4.07S48.28,2.81,37,15.11Z"/><path d="M52.92,35.84a.52.52,0,0,1-.44-.26.51.51,0,0,1,.19-.7l4.69-2.68a.53.53,0,0,1,.71.2.51.51,0,0,1-.2.7l-4.69,2.67A.48.48,0,0,1,52.92,35.84Z"/><path d="M56.73,36.28a.53.53,0,0,1-.24-.06L54.13,35a.52.52,0,0,1-.21-.7.51.51,0,0,1,.69-.21L57,35.31a.52.52,0,0,1-.25,1Z"/><path d="M36.39,34.06a.5.5,0,0,1-.5-.42,9.75,9.75,0,0,1,2-8.15.5.5,0,0,1,.72,0,.51.51,0,0,1,0,.72,9,9,0,0,0-1.78,7.27.51.51,0,0,1-.41.6Z"/><path class="cls-2" d="M35.43,18.3a5,5,0,0,1,4.47-1.94,6.36,6.36,0,0,1,4.43,2.54s-1.81,4.81,1.9,7.86,6.88,2.64,6.88,2.64l3-.73,2.57-4-7.42-9.91L41,7.89,35,12.32Z"/><path d="M41.68,34.34a3.38,3.38,0,0,1,.77.14.51.51,0,0,1,.35.63.53.53,0,0,1-.64.36,3.47,3.47,0,0,0-3.67,1.24.51.51,0,0,1-.72.12.52.52,0,0,1-.12-.72A4.35,4.35,0,0,1,41.68,34.34Z"/><path class="cls-4" d="M31.72,31.81a5.17,5.17,0,1,1,5.06-5.13A5.1,5.1,0,0,1,31.72,31.81Zm.07-9.31a4.14,4.14,0,1,0,4,4.17A4.08,4.08,0,0,0,31.79,22.5Z"/><path class="cls-4" d="M43.63,33.06a5.17,5.17,0,1,1,5.21-5.13A5.18,5.18,0,0,1,43.63,33.06Zm.07-9.31a4.14,4.14,0,1,0,4.11,4.17A4.14,4.14,0,0,0,43.7,23.75Z"/><path class="cls-4" d="M39.52,27.83l-3.68-.33a.5.5,0,0,1-.47-.56.53.53,0,0,1,.56-.46l3.64.32a.52.52,0,0,1,0,1Z"/><path class="cls-4" d="M56.11,29.18a.5.5,0,0,1-.37-.16c-2.22-2.4-7.14,0-7.19.05a.51.51,0,0,1-.69-.23.51.51,0,0,1,.23-.69c.23-.12,5.66-2.8,8.41.17a.52.52,0,0,1,0,.73A.49.49,0,0,1,56.11,29.18Z"/><path class="cls-4" d="M40.86,55.4a21.37,21.37,0,0,1-9.15-2.17.53.53,0,0,1-.2-.7.51.51,0,0,1,.7-.2c.1.05,9.87,5.33,19-1.28a.52.52,0,0,1,.72.12.51.51,0,0,1-.11.72A18.19,18.19,0,0,1,40.86,55.4Z"/><polyline class="cls-5" points="46.66 18.04 46.65 19.26 45.3 19.25"/><polyline class="cls-5" points="48.5 17.61 48.49 19.33 49.74 19.34"/><polyline class="cls-5" points="45.18 21.06 46.74 21.07 46.73 22.55"/><polyline class="cls-5" points="48.47 22.63 48.48 21.02 49.73 21.02"/><line class="cls-6" x1="34.91" y1="21.5" x2="36.5" y2="23.05"/><line class="cls-6" x1="42.83" y1="21.08" x2="41.4" y2="22.79"/><line class="cls-6" x1="33.31" y1="25.94" x2="34.87" y2="25.96"/><line class="cls-6" x1="41.38" y1="26.01" x2="42.94" y2="26.02"/></svg>