<svg id="Layer_1" data-name="Layer 1" xmlns="http://www.w3.org/2000/svg" viewBox="0 0 93.26 86.09"><defs><style>.cls-1{fill:#f8f1e7;}.cls-1,.cls-2,.cls-3,.cls-4,.cls-5,.cls-6{fill-rule:evenodd;}.cls-2{fill:#f3ece5;}.cls-3{fill:#eee8d7;}.cls-4{fill:#fcf8f4;}.cls-5{fill:#fff;}.cls-6{fill:#f1e9cc;}</style></defs><path class="cls-1" d="M45.91,9.07c14.25,0,25.8,30.22,25.8,44.47a25.8,25.8,0,0,1-51.6,0C20.11,39.29,31.66,9.07,45.91,9.07Z"/><path class="cls-2" d="M58.42,16.78c7.93,9.93,13.29,27.05,13.29,36.76a25.8,25.8,0,0,1-51.6,0c0-10.47,6.23-29.56,15.19-38.95,0,0-12.67,18.74-12.41,35.84S43.9,72,55.31,64.82,71.64,43.8,58.42,16.78Z"/><path class="cls-3" d="M63.41,24.53l0,0c.19.36.74,1.47,1.55,3.11,4.17,9,6.72,19.16,6.72,25.85a25.8,25.8,0,0,1-51.34,3.69C23.83,74.87,48.31,85.17,62.7,68.32,76.61,52,64.25,26.22,63.41,24.53Z"/><path class="cls-4" d="M30.41,56.91c-2.46-1-6.34-7.24-3.37-20.09S39.14,11.23,46.1,11.4s15.82,16,14.26,31.25S41.43,31.5,30.41,56.91Z"/><path class="cls-5" d="M33.78,23.46s4.48-9.72,9.14-9.46-1.68,6.29-4.15,9.72S31,29.88,33.78,23.46Z"/><path class="cls-5" d="M31.51,29.62c-.84,0-4.34,4.8-2.39,6.48S35.34,28.33,31.51,29.62Z"/><path class="cls-6" d="M51.35,62.91c.13-.29.32-.68.55-.39s.59.29.29.55-.22.59-.52.55S50.86,62.91,51.35,62.91Z"/><path class="cls-6" d="M52.84,61.13c1.07-.39,1.1-.59,1.3-.07s1.13,1.11,1.13.49.26-1.13-.13-1.49-.09-1-1-.58S52.49,60.84,52.84,61.13Z"/><path class="cls-6" d="M53.81,62.81c-.06.43.2,1,.43.72s.71-.55.51-.81S53.39,62.3,53.81,62.81Z"/><path class="cls-6" d="M56.89,60.09c.39.65.88,1.23.36,1.2s-.62.16-.81-.29-.36-.71-.16-.75S56.89,60.09,56.89,60.09Z"/><path class="cls-6" d="M57.77,59.31c.45.17,1.42-.26,1.1-.68s-.36-.81-.78-.68S57.06,59.05,57.77,59.31Z"/><path class="cls-6" d="M55.69,58.67c-.35-.3-.52-1-.06-1.11s.65-.45.84,0,.29.72,0,.94S55.89,59.12,55.69,58.67Z"/><path class="cls-6" d="M61.11,57.24c.68.06,1-.26.74-.49a2.15,2.15,0,0,0-1-.45c-.42-.07-.61-.65-.71,0S60.72,58.08,61.11,57.24Z"/><path class="cls-6" d="M57.93,55.29c-.29.3-.62.75-.36,1a1.47,1.47,0,0,0,.78.36s.55-.23.46-.59S58.55,55.13,57.93,55.29Z"/><path class="cls-6" d="M60.94,53.67c.3-.35.85-.52,1-.13s.62,1,.16,1S60.52,54.26,60.94,53.67Z"/><path class="cls-6" d="M60.72,50.79c-.33.23-.81.39-.46.58s.68.78.94.36.59-.62.36-.84S60.91,50.43,60.72,50.79Z"/><path class="cls-6" d="M62.92,48.81c0,.62.65,1,.88.45s.58-.38.32-.74-.1-.88-.55-.65S62.73,48.42,62.92,48.81Z"/></svg>