<?xml version="1.0" encoding="utf-8"?>
<!-- Generator: Adobe Illustrator 24.1.3, SVG Export Plug-In . SVG Version: 6.00 Build 0)  -->
<svg version="1.1" id="Layer_1" xmlns="http://www.w3.org/2000/svg" xmlns:xlink="http://www.w3.org/1999/xlink" x="0px" y="0px"
	 viewBox="0 0 209.1 124.4" style="enable-background:new 0 0 209.1 124.4;" xml:space="preserve">
<style type="text/css">
	.st0{fill-rule:evenodd;clip-rule:evenodd;fill:#F2DBC2;}
	.st1{fill-rule:evenodd;clip-rule:evenodd;fill:url(#SVGID_1_);}
	.st2{fill-rule:evenodd;clip-rule:evenodd;fill:url(#SVGID_2_);}
	.st3{opacity:0.2;fill-rule:evenodd;clip-rule:evenodd;fill:url(#SVGID_3_);}
	.st4{fill-rule:evenodd;clip-rule:evenodd;fill:url(#SVGID_4_);}
	.st5{opacity:0.5;fill-rule:evenodd;clip-rule:evenodd;fill:url(#SVGID_5_);}
	.st6{fill-rule:evenodd;clip-rule:evenodd;fill:url(#SVGID_6_);}
	.st7{fill-rule:evenodd;clip-rule:evenodd;fill:url(#SVGID_7_);}
	.st8{fill-rule:evenodd;clip-rule:evenodd;fill:url(#SVGID_8_);}
	.st9{opacity:0.2;fill-rule:evenodd;clip-rule:evenodd;fill:#8C2A45;}
	.st10{fill-rule:evenodd;clip-rule:evenodd;fill:url(#SVGID_9_);}
	.st11{fill-rule:evenodd;clip-rule:evenodd;fill:url(#SVGID_10_);}
	.st12{fill-rule:evenodd;clip-rule:evenodd;fill:url(#SVGID_11_);}
	.st13{fill-rule:evenodd;clip-rule:evenodd;fill:url(#SVGID_12_);}
	.st14{fill-rule:evenodd;clip-rule:evenodd;fill:url(#SVGID_13_);}
	.st15{fill-rule:evenodd;clip-rule:evenodd;fill:url(#SVGID_14_);}
	.st16{fill-rule:evenodd;clip-rule:evenodd;fill:url(#SVGID_15_);}
	.st17{opacity:0.5;fill-rule:evenodd;clip-rule:evenodd;fill:url(#SVGID_16_);}
	.st18{fill-rule:evenodd;clip-rule:evenodd;fill:url(#SVGID_17_);}
	.st19{fill-rule:evenodd;clip-rule:evenodd;fill:url(#SVGID_18_);}
	.st20{fill-rule:evenodd;clip-rule:evenodd;fill:url(#SVGID_19_);}
	.st21{fill-rule:evenodd;clip-rule:evenodd;fill:url(#SVGID_20_);}
	.st22{fill-rule:evenodd;clip-rule:evenodd;fill:url(#SVGID_21_);}
	.st23{fill-rule:evenodd;clip-rule:evenodd;fill:url(#SVGID_22_);}
	.st24{fill-rule:evenodd;clip-rule:evenodd;fill:url(#SVGID_23_);}
	.st25{fill-rule:evenodd;clip-rule:evenodd;fill:url(#SVGID_24_);}
	.st26{fill-rule:evenodd;clip-rule:evenodd;fill:url(#SVGID_25_);}
	.st27{fill-rule:evenodd;clip-rule:evenodd;fill:url(#SVGID_26_);}
	.st28{fill:#2C282D;}
	.st29{fill:#E6E8E2;}
	.st30{fill:#B3B7A5;}
	.st31{fill:#DFECF4;}
	.st32{fill:#EDDDD6;}
	.st33{fill:#E56445;}
	.st34{fill:#5F8457;}
	.st35{fill:#7772D3;}
	.st36{fill:#7C6053;}
	.st37{fill:#F27E64;}
	.st38{fill:#FFB255;}
	.st39{fill:#FCB35B;}
	.st40{fill:#FCA397;}
	.st41{fill:#FFFFFF;}
	.st42{fill:#507849;}
	.st43{fill:#46467F;}
	.st44{fill:#9393E5;}
	.st45{fill:#F7734F;}
	.st46{fill:#5C5CC6;}
	.st47{fill:#F49282;}
	.st48{fill:none;stroke:#40595E;stroke-width:3;stroke-miterlimit:10;}
	.st49{fill:#424242;}
	.st50{fill:#737373;}
	.st51{fill:#5A5A5A;}
	.st52{fill:#C6AE72;}
	.st53{fill:#A69360;}
	.st54{fill:none;stroke:#4B5355;stroke-width:1.8639;stroke-miterlimit:10;}
	.st55{fill-rule:evenodd;clip-rule:evenodd;fill:#F8F1E7;}
	.st56{fill-rule:evenodd;clip-rule:evenodd;fill:#F3ECE5;}
	.st57{fill-rule:evenodd;clip-rule:evenodd;fill:#EEE8D7;}
	.st58{fill-rule:evenodd;clip-rule:evenodd;fill:#FCF8F4;}
	.st59{fill-rule:evenodd;clip-rule:evenodd;fill:#FFFFFF;}
	.st60{fill-rule:evenodd;clip-rule:evenodd;fill:#F1E9CC;}
	.st61{fill-rule:evenodd;clip-rule:evenodd;fill:#F8F4F2;}
	.st62{fill-rule:evenodd;clip-rule:evenodd;fill:#E8E1DE;}
	.st63{fill-rule:evenodd;clip-rule:evenodd;fill:#F7A900;}
	.st64{fill-rule:evenodd;clip-rule:evenodd;fill:#F49D00;}
	.st65{fill-rule:evenodd;clip-rule:evenodd;fill:#F18A00;}
	.st66{fill-rule:evenodd;clip-rule:evenodd;fill:#FCC200;}
	.st67{fill-rule:evenodd;clip-rule:evenodd;fill:#FBF7CC;}
	.st68{fill:#CFE7ED;}
	.st69{fill:#E7EFF5;}
	.st70{fill:#BDDEE8;}
	.st71{fill:#EBF4F8;}
	.st72{fill:#BDDEE7;}
	.st73{fill:#E6F0F7;}
	.st74{fill:#EBF3FB;}
	.st75{fill:#E2F0F9;}
	.st76{fill:#EFF4FB;}
	.st77{fill:#DCCAA4;}
	.st78{fill:#F0DFBD;}
	.st79{fill:#E8CDA9;}
	.st80{fill:#F2D6CD;}
	.st81{fill:#998E8F;}
	.st82{fill:#F9EBD3;}
	.st83{fill:#292220;}
	.st84{fill:#A33030;}
	.st85{fill:#7B231D;}
	.st86{fill:#452222;}
	.st87{fill:#81707E;}
	.st88{fill:#FAEDDC;}
	.st89{fill:#1F0706;}
	.st90{fill:#472721;}
	.st91{fill:#D64141;}
	.st92{fill:#27090A;}
	.st93{fill:#FCF6F2;}
	.st94{fill:#100D0B;}
	.st95{fill:#64462F;}
	.st96{fill:#1D0706;}
	.st97{fill:#4F474E;}
	.st98{fill:#6B6558;}
	.st99{fill:#7F1514;}
	.st100{fill:#73290C;}
	.st101{opacity:0.15;fill:#332F33;}
	.st102{fill:#EF615E;}
	.st103{fill:#BD793B;stroke:#AC6B40;stroke-width:1.8818;stroke-miterlimit:10;}
	.st104{opacity:0.57;fill:#BD793B;stroke:#E0AD4A;stroke-width:1.8818;stroke-miterlimit:10;}
	.st105{fill:#E7E2D5;}
	.st106{opacity:0.44;fill:#E3DCD6;}
	.st107{opacity:0.58;}
	.st108{opacity:0.67;}
	.st109{fill:#E0C8AE;}
	.st110{opacity:0.15;fill:#322F33;enable-background:new    ;}
	.st111{fill:#E6C2A9;}
	.st112{opacity:0.3;}
	.st113{fill:#854E38;}
	.st114{fill:#F0D1BF;}
	.st115{opacity:0.5;}
	.st116{fill:url(#SVGID_27_);}
	.st117{fill:#717373;}
	.st118{fill:#9DB9C4;}
	.st119{fill:#2E3133;}
	.st120{fill:#6C8341;}
	.st121{fill:#8EA8B2;}
	.st122{fill:#EDF2F4;}
	.st123{fill:#C4DAE3;}
	.st124{fill:#D3E79E;}
	.st125{fill:#4A4C4A;}
	.st126{fill:#BDE267;}
	.st127{fill:#484A4E;}
	.st128{fill:#494A4D;}
	.st129{fill:#2D3033;}
	.st130{fill:#686A6F;}
	.st131{fill:#859C55;}
	.st132{fill:#7C9250;}
	.st133{fill:#D1B041;}
	.st134{fill:#CEB341;}
	.st135{fill:#829954;}
	.st136{fill:#CBF273;}
	.st137{fill:#BDE268;}
	.st138{fill:#69522B;}
	.st139{fill:#474A4E;}
	.st140{fill:#2E3333;}
	.st141{fill:#2E3234;}
	.st142{fill:#303134;}
	.st143{fill:#F1B43F;}
	.st144{fill:#EA9636;}
	.st145{fill:#EC9636;}
	.st146{fill:#66696C;}
	.st147{fill:#161D0C;}
	.st148{fill:#98623D;}
	.st149{fill:#462301;}
	.st150{fill:#88542A;}
	.st151{fill:#7A4322;}
	.st152{fill:#985320;}
	.st153{fill:#AF7F45;}
	.st154{fill:#A46226;}
	.st155{fill:#A1A954;}
	.st156{fill:#EDC982;}
	.st157{fill:#EAC177;}
	.st158{fill:#995D24;}
	.st159{fill:#9F682E;}
	.st160{fill:#EDC37F;}
	.st161{fill:#EDC47C;}
	.st162{fill:#ECC47E;}
	.st163{fill:#EEC57D;}
	.st164{fill:#EDC47B;}
	.st165{fill:#EDC27A;}
	.st166{fill:#EBC378;}
	.st167{fill:#E3B36F;}
	.st168{fill:#E1B576;}
	.st169{fill:#E0B36F;}
	.st170{fill:#E3B67A;}
	.st171{fill:#E1B677;}
	.st172{fill:#E5B878;}
	.st173{fill:#C59340;}
	.st174{fill:#84491C;}
	.st175{fill:#8D5520;}
	.st176{fill:#BB843C;}
	.st177{fill:#E1B257;}
	.st178{fill:#A46D29;}
	.st179{fill:#D6A150;}
	.st180{fill:#ECC27D;}
	.st181{fill:#EEC680;}
	.st182{fill:#EBC37A;}
	.st183{fill:#F1C987;}
	.st184{fill:none;}
	.st185{clip-path:url(#SVGID_29_);}
	.st186{clip-path:url(#SVGID_31_);}
	.st187{clip-path:url(#SVGID_33_);}
	.st188{fill:#E1924A;}
	.st189{fill:#B67B3A;}
	.st190{fill:#EFD6A6;}
	.st191{fill:#E2E1E1;}
	.st192{fill:#F3F3F3;}
	.st193{fill:#EAE9E9;}
	.st194{fill:#8F4B33;}
	.st195{fill:#EA6060;}
	.st196{fill:url(#SVGID_34_);}
	.st197{fill:#D9D9D9;}
	.st198{fill:#CBA669;}
	.st199{fill:#F5C97E;}
	.st200{fill:#C18647;}
	.st201{fill:#B3935E;}
	.st202{opacity:0.81;fill:#D0A774;}
	.st203{opacity:0.3;fill:#221F20;}
	.st204{fill:#77583A;}
	.st205{fill:#F6CA6A;}
	.st206{opacity:0.55;fill:#D1A063;}
	.st207{fill:#C28655;}
	.st208{fill:#818386;}
	.st209{fill:#6B6C6F;}
	.st210{fill:#753760;}
	.st211{fill:#D9E0E8;}
	.st212{fill:#E5A85E;}
	.st213{fill:#FCF5CF;}
	.st214{fill:#CD4731;}
	.st215{opacity:0.42;fill:#443430;}
	.st216{fill:#5A453C;}
	.st217{fill:#3D2922;}
	.st218{opacity:0.55;fill:#FFFFFF;}
	.st219{fill:#994F88;}
	.st220{fill:#C977B9;}
	.st221{fill:none;stroke:#681410;stroke-width:1.0295;stroke-linecap:round;stroke-linejoin:round;stroke-miterlimit:10;}
	.st222{fill:none;stroke:#211815;stroke-width:1.0295;stroke-linecap:round;stroke-linejoin:round;stroke-miterlimit:10;}
	.st223{fill:#9C9E8F;}
	.st224{fill:#683F31;}
	.st225{fill:#8D5440;}
	.st226{opacity:0.15;fill:#191407;}
	.st227{fill:#8E561D;}
	.st228{opacity:0.51;fill-rule:evenodd;clip-rule:evenodd;fill:#FFFFFF;}
	.st229{fill-rule:evenodd;clip-rule:evenodd;fill:#EFE4D6;}
	.st230{opacity:0.43;fill-rule:evenodd;clip-rule:evenodd;fill:#A8621A;}
	.st231{fill-rule:evenodd;clip-rule:evenodd;fill:#B6927A;}
	.st232{fill-rule:evenodd;clip-rule:evenodd;fill:#BF662C;}
	.st233{fill-rule:evenodd;clip-rule:evenodd;fill:#CF962E;}
	.st234{fill:#987450;}
	.st235{fill:#9B7654;}
	.st236{fill:#B36040;}
	.st237{fill:#ADA9C4;}
	.st238{fill:#6C6B7C;}
	.st239{fill:none;stroke:#681410;stroke-width:1.1696;stroke-linecap:round;stroke-linejoin:round;stroke-miterlimit:10;}
	.st240{fill:none;stroke:#000000;stroke-width:1.1311;stroke-linecap:round;stroke-linejoin:round;stroke-miterlimit:10;}
	.st241{fill:none;stroke:#932F2D;stroke-width:1.1311;stroke-linecap:round;stroke-linejoin:round;stroke-miterlimit:10;}
	.st242{fill-rule:evenodd;clip-rule:evenodd;fill:#3A1015;}
	.st243{fill-rule:evenodd;clip-rule:evenodd;fill:url(#SVGID_35_);}
	.st244{fill-rule:evenodd;clip-rule:evenodd;fill:url(#SVGID_36_);}
	.st245{fill-rule:evenodd;clip-rule:evenodd;fill:url(#SVGID_37_);}
	.st246{fill-rule:evenodd;clip-rule:evenodd;fill:#FFFFED;}
	.st247{opacity:0.4;fill-rule:evenodd;clip-rule:evenodd;fill:#8C2A45;}
	.st248{fill:#A6675A;}
	.st249{fill:#BF7B71;}
	.st250{fill:#D19080;}
	.st251{fill:#854B42;}
	.st252{fill:#3D2B0D;}
	.st253{fill:#1F402D;}
	.st254{opacity:0.12;fill:#21D472;}
	.st255{fill:#246C40;}
	.st256{fill:#539E6D;}
	.st257{opacity:0.15;fill:#21D472;}
	.st258{opacity:0.69;}
	.st259{opacity:9.000000e-02;fill:#21D472;}
	.st260{opacity:0.31;}
	.st261{fill:#2B573C;}
	.st262{opacity:0.14;fill:#21D472;}
	.st263{opacity:0.63;}
	.st264{fill-rule:evenodd;clip-rule:evenodd;fill:url(#SVGID_38_);}
	.st265{fill-rule:evenodd;clip-rule:evenodd;fill:url(#SVGID_39_);}
	.st266{fill-rule:evenodd;clip-rule:evenodd;fill:url(#SVGID_40_);}
	.st267{fill-rule:evenodd;clip-rule:evenodd;fill:#F7D2A3;}
	.st268{fill-rule:evenodd;clip-rule:evenodd;fill:url(#SVGID_41_);}
	.st269{fill-rule:evenodd;clip-rule:evenodd;fill:url(#SVGID_42_);}
	.st270{fill-rule:evenodd;clip-rule:evenodd;fill:url(#SVGID_43_);}
	.st271{opacity:0.5;fill-rule:evenodd;clip-rule:evenodd;fill:url(#SVGID_44_);}
	.st272{fill-rule:evenodd;clip-rule:evenodd;fill:url(#SVGID_45_);}
	.st273{fill-rule:evenodd;clip-rule:evenodd;fill:url(#SVGID_46_);}
	.st274{fill-rule:evenodd;clip-rule:evenodd;fill:url(#SVGID_47_);}
	.st275{fill-rule:evenodd;clip-rule:evenodd;fill:url(#SVGID_48_);}
	.st276{fill-rule:evenodd;clip-rule:evenodd;fill:url(#SVGID_49_);}
	.st277{fill-rule:evenodd;clip-rule:evenodd;fill:url(#SVGID_50_);}
	.st278{fill-rule:evenodd;clip-rule:evenodd;fill:url(#SVGID_51_);}
	.st279{fill-rule:evenodd;clip-rule:evenodd;fill:url(#SVGID_52_);}
	.st280{opacity:0.5;fill-rule:evenodd;clip-rule:evenodd;fill:url(#SVGID_53_);}
	.st281{fill-rule:evenodd;clip-rule:evenodd;fill:url(#SVGID_54_);}
	.st282{fill-rule:evenodd;clip-rule:evenodd;fill:url(#SVGID_55_);}
	.st283{fill-rule:evenodd;clip-rule:evenodd;fill:url(#SVGID_56_);}
	.st284{opacity:0.5;fill-rule:evenodd;clip-rule:evenodd;fill:url(#SVGID_57_);}
	.st285{opacity:0.5;fill-rule:evenodd;clip-rule:evenodd;fill:url(#SVGID_58_);}
	.st286{fill:#704921;}
	.st287{opacity:0.4;fill:#513014;}
	.st288{fill:#A84B0C;}
	.st289{opacity:0.5;fill:#513014;}
	.st290{fill:#513014;}
	.st291{fill:url(#SVGID_59_);}
	.st292{fill:#6E6C6A;}
	.st293{fill:#939393;}
	.st294{opacity:0.26;fill:#FFFFFF;}
	.st295{opacity:0.21;fill:#272624;}
	.st296{fill:#A6A6A6;}
	.st297{fill:#555554;}
	.st298{fill:#33604A;}
	.st299{fill:#3B6843;}
	.st300{fill:#3C6944;}
	.st301{opacity:0.27;fill:#173627;}
	.st302{fill:#3B805F;}
	.st303{fill:#89B277;}
	.st304{fill:#85AD77;}
	.st305{fill:#E0F0F5;}
	.st306{fill:#CFE7EE;}
	.st307{fill:#EBF3F9;}
	.st308{fill:#DDEDF3;}
	.st309{fill:#A6CFE1;}
	.st310{fill:#BBD7E0;}
	.st311{fill:#E0EFF5;}
	.st312{fill:#E2EEF5;}
	.st313{fill:#A8CEDF;}
	.st314{fill:#9CCBE8;}
	.st315{fill:#B6DDED;}
	.st316{fill:#ABD4EA;}
	.st317{fill:#9BCBE8;}
	.st318{fill:#4A383C;}
	.st319{fill:#BDDEE9;}
	.st320{fill:#A1CFE8;}
	.st321{fill:#6B4A43;}
	.st322{fill:#E7F3F5;}
	.st323{fill:#E7F5F7;}
	.st324{fill:#CFE7EC;}
	.st325{fill:#BDDDEA;}
	.st326{fill:#BEDDE8;}
	.st327{fill:#C7E1E6;}
	.st328{fill:#BCDEE8;}
	.st329{fill:#BEDEE6;}
	.st330{fill:#BDDFE9;}
	.st331{fill:#DDEEF2;}
	.st332{fill:#DFF2F9;}
	.st333{fill:#B7DDEE;}
	.st334{fill:#BADDE7;}
	.st335{fill:#95C6DD;}
	.st336{fill:#A1C8DA;}
	.st337{fill:#BADAED;}
	.st338{fill:#B8DFEF;}
	.st339{fill:#97C6DE;}
	.st340{fill:#B9D8E8;}
	.st341{fill:#A0CFEB;}
	.st342{fill:#99C8E2;}
	.st343{fill:#9BC8E1;}
</style>
<g>
	<path class="st286" d="M203.1,91.9c3,4.1,2.2,7.6-2.1,7.6H9.1c-4.3,0-6.1-3.5-4.2-7.6l20.5-66.3c0.8-1.8,3.6-3.2,6.3-3.2h127.2
		c2.7,0,5.8,1.4,7.2,3.2L203.1,91.9z"/>
	<path class="st287" d="M203.1,91.9l-37.1-66.3c-1.3-1.8-4.5-3.2-7.2-3.2H31.6c-2.7,0-5.5,1.4-6.3,3.2L4.9,91.9
		C3,96,4.8,99.5,9.1,99.5H201C205.3,99.5,206.2,96,203.1,91.9z M198.8,97.8H11.3c-4.1,0-6-3.4-4.1-7.3l20-64.1
		c0.8-1.7,3.6-3.1,6.1-3.1h124.4c2.6,0,5.7,1.4,7,3.1l36.2,64.1C203.8,94.5,203,97.8,198.8,97.8z"/>
	<path class="st288" d="M194.4,86.8c2.6,3.4,1.6,6.4-2.3,6.4H17.8c-3.9,0-5.7-2.9-4.1-6.4L30,28.6c0.7-1.6,3.3-2.9,5.8-2.9h120
		c2.5,0,5.5,1.3,6.6,2.9L194.4,86.8z"/>
	<path class="st289" d="M13.7,89L30,30.8c0.7-1.6,3.3-2.9,5.8-2.9h120c2.5,0,5.5,1.3,6.6,2.9l32,58.2c0.6,0.8,1,1.6,1.3,2.4
		c0.4-1.2,0.1-2.8-1.3-4.5l-32-58.2c-1.2-1.6-4.1-2.9-6.6-2.9h-120c-2.5,0-5.1,1.3-5.8,2.9L13.7,86.8c-0.5,1.2-0.7,2.4-0.4,3.4
		C13.4,89.8,13.5,89.4,13.7,89z"/>
	<g>
		<g>
			<path class="st290" d="M15.1,94.1c0,0,2.8,0.1,7.7,0.2c2.4,0,5.4,0.1,8.8,0.2c3.4,0,7.2,0,11.4-0.1c8.4,0,18.2,0,28.6,0
				c10.5,0.1,21.6,0.1,32.8,0.2c11.2-0.1,22.3-0.1,32.8-0.2c10.5,0,20.3,0,28.6,0c4.2,0,8,0,11.4,0.1c3.4,0,6.4-0.1,8.8-0.2
				c4.9-0.1,7.7-0.2,7.7-0.2s-2.8,0.2-7.7,0.4c-2.4,0.1-5.4,0.3-8.8,0.5c-3.4,0.1-7.3,0.2-11.4,0.3c-8.4,0.1-18.2,0.3-28.6,0.5
				c-10.5,0.1-21.7,0.2-32.8,0.4c-11.2-0.1-22.4-0.3-32.8-0.4c-10.5-0.2-20.3-0.3-28.7-0.5c-4.2-0.1-8-0.2-11.4-0.2
				c-3.4-0.2-6.4-0.3-8.8-0.5C17.9,94.3,15.1,94.1,15.1,94.1z"/>
		</g>
	</g>
	<g>
		<g>
			<path class="st290" d="M29.3,26.5c0,0-0.3,1-0.9,2.9c-0.5,1.8-1.3,4.4-2.3,7.6c-1,3.1-2,6.8-3.3,10.7c-1.2,3.9-2.6,8.1-3.9,12.2
				c-1.4,4.2-2.6,8.3-3.7,12.2c-1.2,3.9-2.3,7.6-3.1,10.7c-0.8,3.2-1.5,5.8-1.9,7.7c-0.4,1.9-0.6,2.9-0.6,2.9s0-1.1,0.3-3
				c0.2-1.9,0.7-4.6,1.3-7.8c0.3-1.6,0.7-3.3,1.2-5.2c0.4-1.8,0.9-3.8,1.4-5.7c1.1-4,2.3-8.2,3.6-12.3c1.2-4.2,2.7-8.3,4-12.2
				c1.3-3.9,2.6-7.5,3.7-10.6c1.1-3.1,2.1-5.6,2.9-7.4C28.8,27.5,29.3,26.5,29.3,26.5z"/>
		</g>
	</g>
	<g>
		<g>
			<path class="st290" d="M198.3,89c0,0-0.4-1-1.2-2.7c-0.8-1.7-2-4.1-3.5-7c-1.5-2.9-3.4-6.2-5.4-9.6c-2-3.5-4.2-7.2-6.5-10.9
				c-2.2-3.7-4.5-7.4-6.6-10.9c-2.1-3.5-3.9-6.8-5.5-9.6c-1.6-2.8-2.9-5.2-3.7-6.9c-0.9-1.7-1.3-2.7-1.3-2.7s0.6,0.9,1.6,2.5
				c1,1.6,2.5,3.9,4.2,6.6c1.7,2.8,3.8,5.9,6,9.4c2.1,3.5,4.5,7.1,6.7,10.8c2.2,3.7,4.4,7.5,6.4,11c1,1.8,1.9,3.6,2.7,5.2
				c0.9,1.7,1.6,3.2,2.3,4.7c1.4,3,2.3,5.5,3,7.3C198.1,87.9,198.3,89,198.3,89z"/>
		</g>
	</g>
</g>
</svg>
