<svg id="Layer_1" data-name="Layer 1" xmlns="http://www.w3.org/2000/svg" viewBox="0 0 78.96 122.87"><defs><style>.cls-1{fill:#6e6c6a;}.cls-2{fill:#939393;}.cls-3{fill:#fff;opacity:0.26;}.cls-4{fill:#272624;opacity:0.21;}.cls-5{fill:#a6a6a6;}.cls-6{fill:#555554;}.cls-7{fill:#3d2b0d;}.cls-8{fill:#33604a;}.cls-9{fill:#3b6843;}.cls-10{fill:#3c6944;}.cls-11{fill:#173627;opacity:0.27;}.cls-12{fill:#3b805f;}.cls-13{fill:#89b277;}.cls-14{fill:#85ad77;}</style></defs><path class="cls-1" d="M59.09,76.65a104.52,104.52,0,0,1-2.43,18c-1.6,7.24-4.26,15.53-8.65,22.61a7.9,7.9,0,0,1-2,2.17,6.9,6.9,0,0,1-1.25.75,24.07,24.07,0,0,1-4.68,1.63,30.34,30.34,0,0,1-7.15.83h0a27.67,27.67,0,0,1-11.84-2.46,7.74,7.74,0,0,1-3.26-2.92c-4.5-7.25-7.19-15.77-8.78-23.13A104.89,104.89,0,0,1,6.69,76.65,15,15,0,0,0,13.52,80,62.67,62.67,0,0,0,28,81.45c2.82,0,4.76-.12,4.88-.13h0a83.5,83.5,0,0,0,15.21-.53c1-.14,1.93-.31,2.87-.51C54.34,79.57,57.34,78.43,59.09,76.65Z"/><path class="cls-2" d="M56.92,94.44c-1.61,7.24-4.26,15.53-8.66,22.61A7.73,7.73,0,0,1,45,120a24,24,0,0,1-4.69,1.63,29.76,29.76,0,0,1-7.15.83h0A27.77,27.77,0,0,1,21.3,120,7.73,7.73,0,0,1,18,117.05c-4.5-7.25-7.18-15.77-8.77-23.13,4.4,2,12,4.2,24.69,4.2C45.53,98.12,52.65,96.32,56.92,94.44Z"/><path class="cls-3" d="M45.11,110.67c3.24-10.86,3.17-24.72,3-29.88,1-.14,1.93-.31,2.87-.51A64.22,64.22,0,0,1,45.11,110.67Z"/><path class="cls-4" d="M46.24,119.22A7.1,7.1,0,0,1,45,120a25.1,25.1,0,0,1-4.68,1.62,29.91,29.91,0,0,1-7.16.83h0A28,28,0,0,1,21.3,120,7.76,7.76,0,0,1,18,117.05c-4.49-7.25-7.18-15.77-8.77-23.13A103.51,103.51,0,0,1,7,76.39a14.79,14.79,0,0,0,6.83,3.34c1.61,9.9,4.43,23.31,9,33C26.51,120.78,36,122.1,46.24,119.22Z"/><path class="cls-5" d="M6.69,76.39c0,7.93,52.4,7.54,52.4,0S6.69,68.46,6.69,76.39Z"/><path class="cls-6" d="M56.53,76.1c0,.5-.47,1-1.31,1.35-6.78,3.25-38,3.39-44.7,0-.82-.41-1.27-.87-1.27-1.39C9.25,70.85,56.53,71.1,56.53,76.1Z"/><path class="cls-7" d="M55.22,77.45c-6.78,3.25-38,3.39-44.7,0C13.49,73,51.94,73.2,55.22,77.45Z"/><path class="cls-8" d="M30.71,70.59a39.88,39.88,0,0,0-3.59-8.92c-2.87-5.52-6-7.51-10.71-9.8s-12-1.48-14.24,1.18c0,0,5.49,3.22,9.19,5.49S25.94,65.81,30.71,70.59Z"/><path class="cls-9" d="M29.07,51.17c1.67-.18,2-9.48-2.07-16.63S15.18,21.8,9.57,27.1s5.25,16.41,9.55,19.39S27.69,51.31,29.07,51.17Z"/><path class="cls-10" d="M7.54,19.24s.12-4.51,5.37-4.45,9.55,6.3,9.55,6.3A30.8,30.8,0,0,0,7.54,19.24Z"/><path class="cls-8" d="M38.1,66.09S38.28,49.2,58,48.16C58,48.16,44.07,53.82,38.1,66.09Z"/><path class="cls-8" d="M37.11,29.12c-1.38-.16-4.68-7.78-1.52-15.9C39.29,3.71,51.14.85,55.44,4.79s3.31,12.84-4.21,19C44.64,29.21,39.82,29.42,37.11,29.12Z"/><path class="cls-11" d="M47.41,7.72c-1.22,1-2.15,2.26-3.47,3.07-.7.44-1.5.71-2.18,1.19-1.53,1.09-2.21,3-2.79,4.78l-1.44,4.4a3.19,3.19,0,0,0-.23,1.22,3.13,3.13,0,0,0,.53,1.36c.42.73,1,1.54,1.82,1.56s1.27-.57,1.8-1.05A9,9,0,0,1,44,22.63a25.45,25.45,0,0,0,3.46-1.38c2.68-1.64,3.29-5.18,4.85-7.91.45-.79,1-1.52,1.36-2.35a3.57,3.57,0,0,0,.23-2.64C53.06,6.05,49,6.53,47.41,7.72Z"/><path class="cls-12" d="M32.69,78.2c-.36-1.71-.59-3.36-.79-5s-.34-3.36-.45-5.05c-.22-3.36-.29-6.74-.25-10.11s.14-6.73.48-10.1c.12-1.69.44-3.36.71-5,.16-.83.37-1.65.55-2.47l.28-1.24.35-1.22A71.06,71.06,0,0,1,41.79,19.5a62.08,62.08,0,0,1,6-8.11,39.9,39.9,0,0,1,7.5-6.77.2.2,0,0,1,.28,0,.21.21,0,0,1,0,.29,39.31,39.31,0,0,0-7.34,6.78,63.07,63.07,0,0,0-5.89,8.09A70.34,70.34,0,0,0,34.4,38.16C32.54,44.59,32.3,51.31,32.28,58c0,3.34.11,6.69.36,10,.13,1.66.29,3.33.5,5s.47,3.31.82,4.89v0a.65.65,0,1,1-1.27.28Z"/><path class="cls-12" d="M32.31,75.46a26.52,26.52,0,0,1,1.57-3.74,35.48,35.48,0,0,1,2-3.48,32,32,0,0,1,5.26-6.06,29.79,29.79,0,0,1,6.64-4.48,31.73,31.73,0,0,1,7.58-2.53.27.27,0,0,1,.32.22.28.28,0,0,1-.21.32,31.41,31.41,0,0,0-7.37,2.62,29,29,0,0,0-6.38,4.49,31,31,0,0,0-5,6,32.37,32.37,0,0,0-1.9,3.4,25.31,25.31,0,0,0-1.43,3.59v0a.58.58,0,0,1-.73.4.6.6,0,0,1-.4-.74Z"/><path class="cls-13" d="M32.59,73.61S22.1,56.27,2.17,53.05"/><path class="cls-12" d="M10.42,27.38a41.81,41.81,0,0,1,7.76,6.32,50.53,50.53,0,0,1,6.3,7.76,51.58,51.58,0,0,1,4.71,8.83A49,49,0,0,1,30.93,55a24.61,24.61,0,0,1,.69,2.41l.64,2.43a.54.54,0,0,1-.39.65.52.52,0,0,1-.65-.38h0v-.05l-.59-2.39c-.21-.79-.36-1.6-.64-2.37-.53-1.56-1-3.14-1.65-4.64a50.63,50.63,0,0,0-4.53-8.74,50.07,50.07,0,0,0-6.1-7.74,42,42,0,0,0-7.54-6.31h0a.28.28,0,1,1,.29-.47Z"/><path class="cls-12" d="M15.41,19a28.32,28.32,0,0,1,6.94,4.86,31.28,31.28,0,0,1,5.36,6.55,18.64,18.64,0,0,1,1,1.85,16.91,16.91,0,0,1,.94,1.91l.82,2c.24.66.43,1.34.65,2a16.17,16.17,0,0,1,.55,2l.44,2.08.11.52.06.53.12,1.05.23,2.11a.39.39,0,0,1-.34.43.38.38,0,0,1-.42-.34h0v0l-.21-2.07-.11-1-.06-.52-.1-.51a33.06,33.06,0,0,0-1-4.05c-.21-.66-.39-1.33-.62-2l-.79-1.93a18.88,18.88,0,0,0-.9-1.87,17.86,17.86,0,0,0-1-1.81,30,30,0,0,0-5.21-6.46,27.65,27.65,0,0,0-6.74-4.79h0a.27.27,0,0,1-.13-.37A.28.28,0,0,1,15.41,19Z"/><path class="cls-9" d="M78.93,32.28a5.16,5.16,0,0,0-.56,0,13.11,13.11,0,0,0-7.44,2.3c-4.54,2.87-7.81,5.38-15.49,7.76a74.59,74.59,0,0,1-9.85,2.43h0a16.47,16.47,0,0,1-5.32.27c-1-.24-1.66-8.58,5.27-13.4S71.25,25.1,78.93,32.28Z"/><path class="cls-12" d="M31.39,66.46a36.06,36.06,0,0,1,1.36-8.17,37.51,37.51,0,0,1,3.09-7.64A31.31,31.31,0,0,1,47,38.76l1.74-1.08c.59-.35,1.2-.65,1.8-1,1.19-.69,2.46-1.21,3.69-1.8A49.57,49.57,0,0,1,62,32.33a39,39,0,0,1,8.11-1.07,31.17,31.17,0,0,1,4.1.17,16.75,16.75,0,0,1,4,.84.13.13,0,0,1,.09.17.16.16,0,0,1-.18.09h0a17,17,0,0,0-4-.78,34.18,34.18,0,0,0-4-.12,39.39,39.39,0,0,0-8,1.16,50.59,50.59,0,0,0-7.66,2.64c-1.21.6-2.45,1.13-3.62,1.82-.58.34-1.18.65-1.76,1l-1.71,1.08A30.53,30.53,0,0,0,36.63,51.07a35.7,35.7,0,0,0-2.92,7.49,34.45,34.45,0,0,0-1.22,7.9v0a.55.55,0,0,1-1.1,0Z"/><path class="cls-14" d="M78.37,32.24a13.11,13.11,0,0,0-7.44,2.3c-4.54,2.87-7.81,5.38-15.49,7.76a74.59,74.59,0,0,1-9.85,2.43c2.16-.42,4.64-3.12,7.07-5.19C56.67,36.14,64.55,31.11,78.37,32.24Z"/><path class="cls-14" d="M30.9,38.4c1.4.12,5.26-.78,3.36-8S23.3,17.89,7.54,19.24c0,0,8.23-.81,12.41,6S28,38.16,30.9,38.4Z"/><path class="cls-13" d="M38.1,66.09s9.25-8.83,22-11.45,17-3,16.81-2.7-7.32-5.65-18.3-3.88S42,55,38.1,66.09Z"/><path class="cls-11" d="M14.55,35.3c.89,1.61,2.64,2.57,3.63,4.12s1.18,3.62,2.49,4.93a5.93,5.93,0,0,0,3.66,1.43,1.17,1.17,0,0,0,.74-.09,1.22,1.22,0,0,0,.45-.86c.78-4.36-1.22-8.71-3.52-12.48-1.18-1.94-3.43-4.47-6-4C12.93,28.94,13.46,33.3,14.55,35.3Z"/><path class="cls-7" d="M28.58,78.71a8.2,8.2,0,0,1,9.52-.27S32.16,79.92,28.58,78.71Z"/></svg>