<svg id="Layer_1" data-name="Layer 1" xmlns="http://www.w3.org/2000/svg" viewBox="0 0 108.69 163.04"><defs><style>.cls-1{fill:#a6675a;}.cls-2{fill:#bf7b71;}.cls-3{fill:#d19080;}.cls-4{fill:#854b42;}.cls-5{fill:#3d2b0d;}.cls-6{fill:#1f402d;}.cls-11,.cls-13,.cls-16,.cls-7{fill:#21d472;}.cls-7{opacity:0.12;}.cls-8{fill:#246c40;}.cls-9{opacity:0.5;}.cls-10{fill:#539e6d;}.cls-11{opacity:0.15;}.cls-12{opacity:0.69;}.cls-13{opacity:0.09;}.cls-14{opacity:0.31;}.cls-15{fill:#2b573c;}.cls-16{opacity:0.14;}.cls-17{opacity:0.63;}</style></defs><path class="cls-1" d="M86.37,118.28a181.83,181.83,0,0,1-12.75,37.31,4.48,4.48,0,0,1-1.8,1.91c-3.78,2.15-7.72,2.5-11.44,3.15l-1.74.3-.59.09,0-.08.28-.71c2-4.85,12.27-30.42,13.76-34.07.1-.26.17-.41.18-.44C72.49,125.33,86.37,118.28,86.37,118.28Z"/><path class="cls-1" d="M58.64,161h-.56l-1.19,0c-3-.09-9.18-.6-13.36-3a4.58,4.58,0,0,1-1.8-1.9A167.91,167.91,0,0,1,29,119.76s16,6.06,16.16,6.47,11.33,29.14,13.22,34Z"/><path class="cls-2" d="M73.34,126.18l-13,34.47c-.74.14-1.34.24-1.74.3l-.59.09,0-.08-1.19,0-13-34.7h1.21l27,0Z"/><path class="cls-3" d="M45,126.23c-1.94,0-6.83-1.46-7.79-1.75-5.42-1.65-8.25-2.61-8.25-4.72,0-1.36,1.36-2.42,7.67-5.84,6.1-3.31,7.81-3.31,8.37-3.31l2.58,0c3.77-.08,10.79-.23,16.39-.23,6.12,0,7.76.17,8.56.35a43.58,43.58,0,0,1,7,2.54c4.45,2,6.8,3.32,6.8,5.06,0,1.19-1.42,2.21-6.65,5.13-3.35,1.87-5.84,2.82-7.41,2.82Z"/><path class="cls-4" d="M82.64,117.52c0,.18-.28.5-.76.91-2.07,1.76-7.74,5.06-9.57,5.06H45c-1.6,0-8.7-2.11-11.38-3.41-.64-.31-1-.58-1-.76,0-.93,10.26-7,12.4-7,1.57,0,24-.69,26.91,0S82.64,116.56,82.64,117.52Z"/><path class="cls-5" d="M81.88,118.43c-2.07,1.76-7.74,5.06-9.57,5.06H45c-1.6,0-8.7-2.11-11.38-3.41,2.6-2,9.71-6,11.45-6,1.57,0,24-.69,26.9,0A42.5,42.5,0,0,1,81.88,118.43Z"/><path class="cls-6" d="M58.13,119.32s.46.38-2,0c0,0,.76-17.35,0-34.17s-2.27-32-3.48-41.53-5-34.4-5-34.4h.91S53.44,35.74,56,57.11,58.74,117.88,58.13,119.32Z"/><path class="cls-6" d="M21.17,37.52s4-3.06,12.4,5.87S51.3,64.88,55.84,78.73l.57,3.59S51.57,68.52,39.7,52.85C32.63,43.53,27,37.64,21.7,38.17Z"/><path class="cls-6" d="M56.41,65.05s2.75-7.88,7.27-17.77,9.22-17,11.9-17.56v-1.2S73.4,27.68,67.87,37A160.19,160.19,0,0,0,56.41,60.77Z"/><path class="cls-6" d="M56.69,72.83S59.24,58.27,66,53.36a24.89,24.89,0,0,1,20.69-3.87l.38-.56a22.94,22.94,0,0,0-15.19,0C61.33,52.49,57.79,61.21,56.41,70.05Z"/><path class="cls-7" d="M95.6,50.21a.5.5,0,0,0-.11-.1,13.78,13.78,0,0,1,2.39,1.41,1.38,1.38,0,0,1,.56.7A1.08,1.08,0,0,1,98,53.27a5.43,5.43,0,0,0-.84-.82,3.75,3.75,0,0,1-1-1.21A4,4,0,0,0,95.6,50.21Z"/><path class="cls-8" d="M105.76,66c-.73-5.4-1.55-8.1-1.88-8.43a7.8,7.8,0,0,0-4.17-1.22c-1.71.08.5-2.3,3.11-1,0,0-3.19-6.62-7.85-9.4s-10.79-.51-8.67,3.42a11.45,11.45,0,0,0-10.14,3.45c-4.26,4.66-2.78,13.19.65,14.24s4.5-2.38,5.4-4.1A8.64,8.64,0,0,1,88.76,59c2.61,0,2.69,0-.66,2.21s-5.16,5.48-5.23,7.61,6.38.41,10.88,1.59a6.51,6.51,0,0,1,2.86-3.38c2.29-1.4,4-1.14,2,0A5.26,5.26,0,0,0,96,71.55c.16.82,7.61.09,10.47,5.4A83.59,83.59,0,0,0,105.76,66ZM94.68,49.74a1.46,1.46,0,0,1,.8.36h0a.5.5,0,0,1,.11.1,4,4,0,0,1,.47,1,3.75,3.75,0,0,0,1,1.21,5.43,5.43,0,0,1,.84.82c.08.11.15.24.22.36a1.32,1.32,0,0,1-.15,1.5,1,1,0,0,1-1.29.08l-.09-.08A9.15,9.15,0,0,1,95.9,54a5.59,5.59,0,0,0-1.11-.88A3.56,3.56,0,0,1,93.44,51c-.18-.91.52-1.31,1.23-1.22Zm-5.09,7.62-1.52-.66a5.6,5.6,0,0,0-2.16-.6c-.61,0-1.22.2-1.82.25h0a2.82,2.82,0,0,1-.71,0,1.26,1.26,0,0,1-.74-.4,1.05,1.05,0,0,1-.19-.75,1.8,1.8,0,0,1,1-1.37,3.71,3.71,0,0,1,1.71-.37,3.51,3.51,0,0,1,1.79.32,6.86,6.86,0,0,1,.93.7,4.17,4.17,0,0,0,1.67.67h0a5,5,0,0,1,2,.67,1,1,0,0,1-.61,1.92A3.25,3.25,0,0,1,89.59,57.36Zm9.84,7.24a.92.92,0,0,1-1,.29,1.35,1.35,0,0,1-.52-.39l-.84-.82,0,0a8.21,8.21,0,0,1-2.17-2.86c-.46-1.3.12-2.24,1.37-1.16a23,23,0,0,1,3,3.34,3.25,3.25,0,0,1,.36.55,1.21,1.21,0,0,1,.05.68A.92.92,0,0,1,99.43,64.6Z"/><path class="cls-7" d="M104,70c-1,1.2-3,.77-4.44.25-.26-.67.51-1.24,1-1.8,1.07-1.25.45-3.3-.9-4.22a1.21,1.21,0,0,0-.05-.68,3.25,3.25,0,0,0-.36-.55,23,23,0,0,0-3-3.34c-1.25-1.08-1.83-.14-1.37,1.16A8.21,8.21,0,0,0,97,63.65l0,0a5.6,5.6,0,0,0-3.15,1.65c-1,1-2.07,2.34-3.35,1.87a2.08,2.08,0,0,1-.92-2.66A9.3,9.3,0,0,1,91.42,62a10.77,10.77,0,0,0,2.15-4.71A1.87,1.87,0,0,0,93.49,56c-.33-.63-1.18-.75-1.89-.79s-1.36-.08-2-.09h0l-5.44,1.21h0l-.18.12c-1.16.83-2.5,2.14-3.72,1.42a1.8,1.8,0,0,1-.61-2.15,3.41,3.41,0,0,1,1.66-1.69c2.47-1.31,5.73-1,7.78-2.9a19.21,19.21,0,0,1,1.86-1.86c.81-.53,2.34-.18,3.8.44-.71-.09-1.41.31-1.23,1.22a3.56,3.56,0,0,0,1.35,2.13A5.59,5.59,0,0,1,95.9,54a9.15,9.15,0,0,0,.74,1.16,3.11,3.11,0,0,0,1.46,2.41c1.14.72,2.55,1,3.67,1.71,2.43,1.63,2.75,5,2.82,8A4,4,0,0,1,104,70Z"/><g class="cls-9"><path class="cls-10" d="M86.3,49.38a23.73,23.73,0,0,1,7.53,4.41,35.77,35.77,0,0,1,5.93,6.48A42.32,42.32,0,0,1,102,64a34.13,34.13,0,0,1,1.88,4,21.21,21.21,0,0,1,.77,2.06l.7,2.07c.38,1.41.71,2.83,1,4.25-.48-1.38-.88-2.78-1.36-4.14l-.79-2a19.61,19.61,0,0,0-.84-2,46.91,46.91,0,0,0-4.23-7.55,38.2,38.2,0,0,0-5.71-6.47A27.93,27.93,0,0,0,86.3,49.38Z"/></g><path class="cls-6" d="M73.26,29.72s1-5.94,5.72-6.73,8.58,3.29,9.6,4.48c0,0-2,1.61-1.27,2.63s1.78-1.1,3.23-.76A73.55,73.55,0,0,1,97.42,47.6S90.13,28.56,73.26,29.72Z"/><path class="cls-8" d="M73.26,29.72S77.54,29.08,84,33,95.21,41.91,97.42,47.6c0,0-2.29-6.11-4.93-9.51a83.77,83.77,0,0,0-7.64-8.75C81.28,25.68,77.56,25.6,73.26,29.72Z"/><path class="cls-8" d="M39.84,31.39c-5.73-3.46-11.61-1.86-14,1.2s-2.67,4.27-4.67,4.93c-1.66.56.66-4.67-4.13-7.8S4.11,29.77,2.37,37c0,0,2.14-3,5.07-2.51S8.37,36.3,6.11,37s-4.94,3-4.94,8.66,1.07,6.29,1.07,6.29.4-5.6,5.47-7.6,5.33,1.07,2.53,1.87S3.44,50.86,4.11,55c0,0,1.59,2.39,5.07,6.67a22.79,22.79,0,0,1,4.39,8.79,21.88,21.88,0,0,1,5.87-5.19c3.73-2.27,8.25-5.6,9.26-7.2s.33-5.82-2.2-8.58-5.6-4.23-4-5.69,4.88.93,6.63,4.66S30.51,56.59,30.9,57s5.74-.93,8.81-4.13,3.19-7.74,2.39-9.21-3.2-4.39-5.86-4.93-2.13-2.42.4-1.75a17.08,17.08,0,0,1,6.74,4.42C44.77,42.86,45.57,34.85,39.84,31.39ZM19.21,60.27a1.54,1.54,0,0,1-1.52.16,2.33,2.33,0,0,1-.93-1.92,28.24,28.24,0,0,1,.06-5.28A11.41,11.41,0,0,1,18.09,48a1.83,1.83,0,0,1,1.37-1c.71,0,1.24.79,1,2.09a16.27,16.27,0,0,0-.33,3.74v.12c.11,2,.76,4.17,0,6.09A2.71,2.71,0,0,1,19.21,60.27Zm-6.41-18a4.27,4.27,0,0,1-1.39-.49,13.3,13.3,0,0,1-1.58-1c-.42-.3-.85-.71-.81-1.21s.53-.82,1-1c1.18-.59,5.77-2.5,6.38-.31a2.24,2.24,0,0,1,0,1,4.06,4.06,0,0,1-1.22,2.2A3,3,0,0,1,12.8,42.32Z"/><path class="cls-11" d="M35.26,41.6c-1.18-1.89-2.62-4-4.82-4.33-3-.49-6.77,2.41-9.47,1.52s-2.36-4.63-6.16-4.49A7,7,0,0,0,9.87,37,6.59,6.59,0,0,1,8,38.9c-.69.37-1.58.43-2.06,1-.76.94.16,2.42,1.31,2.75a9.28,9.28,0,0,0,3.59-.14c1.2-.13,2.62.11,3.19,1.17a3,3,0,0,1-.6,3.09,19.59,19.59,0,0,0-2.07,2.59c-1.25,2.42.21,5.3,1.63,7.62l1.6,2.6A4.55,4.55,0,0,0,15.64,61c1.21,1,3.11.51,4.21-.57a9.37,9.37,0,0,0,2-4.12A2.14,2.14,0,0,0,22,54.81c-.21-.51-.77-.76-1.19-1.11a3.38,3.38,0,0,1-.68-.78c.11,2,.76,4.17,0,6.09a2.71,2.71,0,0,1-.92,1.26,1.54,1.54,0,0,1-1.52.16,2.33,2.33,0,0,1-.93-1.92,28.24,28.24,0,0,1,.06-5.28A11.41,11.41,0,0,1,18.09,48a1.83,1.83,0,0,1,1.37-1,8,8,0,0,1,1.81-4.28c1.68-1.91,5-2.52,6.77-.71a7.45,7.45,0,0,1,1.37,2.35c.81,1.85,1.6,3.71,2.41,5.57.23.54.58,1.16,1.16,1.2A1.65,1.65,0,0,0,34,50.62a7.45,7.45,0,0,0,2.83-3.45C37.39,45.25,36.3,43.3,35.26,41.6Zm-18.9-2.26a4.06,4.06,0,0,1-1.22,2.2,3,3,0,0,1-2.34.78,4.27,4.27,0,0,1-1.39-.49,13.3,13.3,0,0,1-1.58-1c-.42-.3-.85-.71-.81-1.21s.53-.82,1-1c1.18-.59,5.77-2.5,6.38-.31A2.24,2.24,0,0,1,16.36,39.34Z"/><g class="cls-12"><path class="cls-10" d="M20.51,37a9.31,9.31,0,0,0-2.43,3.6c-.3.68-.49,1.36-.73,2.08a12.58,12.58,0,0,1-.92,2,37.32,37.32,0,0,0-2.11,3.85,11.53,11.53,0,0,0-.82,4.19c0,2.91.32,5.87.45,8.82a33.56,33.56,0,0,1-.38,8.84,24,24,0,0,0,.15-4.4c-.05-1.47-.16-2.94-.29-4.41-.24-2.94-.54-5.86-.61-8.86a11.88,11.88,0,0,1,.93-4.43A30.29,30.29,0,0,1,16,44.49a11,11,0,0,0,1-1.94,22.23,22.23,0,0,1,.82-2.07A9,9,0,0,1,20.51,37Z"/></g><path class="cls-6" d="M63.76,14.25c-4.24-3-5.74-1.66-6.07-3.5s3.07-1,6.33.18a20.25,20.25,0,0,1,5.73,3.32C68.26,8.35,65.26.27,57.19.36s-9.51,6.82-9.51,6.82c-4.85-5.41-11.3-4.83-16-.83s-2.32,11.48-2.32,11.48c.9-3.49,2.9-5.16,4.57-5.49s2.33,1.41-.41,3.08a9.58,9.58,0,0,0-3.75,4.74A20.48,20.48,0,0,0,33,29.82C36.22,35.14,44.29,39,44.29,39s.58-3.33,1.92-4.41,1.91-.26.91,1.75a7.33,7.33,0,0,0-.91,3.41,20.24,20.24,0,0,0,3.83,3c2.32,1.42,5.23,2.92,5.23,2.92a15.37,15.37,0,0,1,3.45-5.75,13.48,13.48,0,0,0,3.21-4.66c-.58-5-3.91-9.07-5.82-10.82s-.59-3.57,2.61-.32a28,28,0,0,1,5.12,8.15C67.84,25.66,69,21,69,20.58S68,17.25,63.76,14.25Zm-21.63,4a17.44,17.44,0,0,0-.42,6c.26,1.5-.91,3.08-2.25.84s-.49-5.92.67-8.33,2.33-3.16,3.08-2.58S42.62,15.84,42.13,18.25ZM47.8,29.17a1.75,1.75,0,0,1-3.32.41A3,3,0,0,1,44,28.32a7.29,7.29,0,0,1,0-1.55c.08-1.09.66-3.29,2.22-2.88,1.32.33,1.68,2.15,1.74,3.4a3.39,3.39,0,0,1,0,.44A5.3,5.3,0,0,1,47.8,29.17Zm8.81,2.5a7.76,7.76,0,0,1-.77,4.64,1.15,1.15,0,0,1-.58.64.61.61,0,0,1-.51-.05,1.09,1.09,0,0,1-.53-.64,3.38,3.38,0,0,1,0-1.38,32.13,32.13,0,0,0-.06-3.8,1.38,1.38,0,0,1,.4-1.12c.8-.58,1.37,0,1.71.7h0A4,4,0,0,1,56.61,31.67Zm-.49-12.88c-.34.19-.75-.14-.93-.49h0c-.51-1-.06-2.32-.47-3.4a7.69,7.69,0,0,0-1.17-1.7A5.21,5.21,0,0,1,52.66,11a2.41,2.41,0,0,1,.21-1.59,1.45,1.45,0,0,1,2.48.14,3.86,3.86,0,0,1,.29,1.25q.42,3.52.76,7.05c0,.12,0,.26,0,.38A.7.7,0,0,1,56.12,18.79ZM65,23.59a2.94,2.94,0,0,1-.92,1.23,1.64,1.64,0,0,1-1.48.26,2.13,2.13,0,0,1-1.17-1.49,13.57,13.57,0,0,0-.52-1.92,7.35,7.35,0,0,0-.51-.85,3.42,3.42,0,0,1-.46-.89A2.53,2.53,0,0,1,61.23,17l.12-.05c1.36-.46,2.83,1.27,3.4,2.33A5,5,0,0,1,65,23.59Z"/><path class="cls-13" d="M61.23,17a2.34,2.34,0,0,0-.24-.31c-.73-.84-1.71-1.43-2.51-2.21C56.08,12.17,56,8.85,57,5.9c-3.41-2.87-4.26,1.39-6.42,3-1.07.77-2.54.5-3.82.19-1.48-.37-3-.73-4.46-1.08a4.5,4.5,0,0,0-3.07,0c-1.69.86-1.58,3.43-.53,5a3.88,3.88,0,0,1,1,1.93c0,1.34-1.51,2.05-2.37,3.06a4.55,4.55,0,0,0-.81,3.79A13.52,13.52,0,0,0,38,25.45a7,7,0,0,0,2.25,2.92A3.63,3.63,0,0,0,44,28.32a7.29,7.29,0,0,1,0-1.55c.08-1.09.66-3.29,2.22-2.88,1.32.33,1.68,2.15,1.74,3.4a1.3,1.3,0,0,1,.16.31,7.08,7.08,0,0,1,.29,2.2,12.08,12.08,0,0,0,3.32,7.57,1.82,1.82,0,0,0,.68.49,1.49,1.49,0,0,0,.91-.06,3.66,3.66,0,0,0,1.47-.9,1.09,1.09,0,0,1-.53-.64,3.38,3.38,0,0,1,0-1.38,32.13,32.13,0,0,0-.06-3.8,1.38,1.38,0,0,1,.4-1.12c.8-.58,1.37,0,1.71.7-.1-.6-.23-1.2-.37-1.79a58.8,58.8,0,0,0-1.76-6.05c-.39-1.12-.82-2.36-.32-3.43a2.06,2.06,0,0,1,1.35-1.09h0c-.51-1-.06-2.32-.47-3.4a7.69,7.69,0,0,0-1.17-1.7A5.21,5.21,0,0,1,52.66,11a2.41,2.41,0,0,1,.21-1.59,1.45,1.45,0,0,1,2.48.14,3.86,3.86,0,0,1,.29,1.25q.42,3.52.76,7.05c0,.12,0,.26,0,.38a2,2,0,0,1,1.2.73c.31.4.47.89.79,1.28a2,2,0,0,0,2,.58,3.42,3.42,0,0,1-.46-.89A2.53,2.53,0,0,1,61.23,17Zm-19.1,1.22a17.44,17.44,0,0,0-.42,6c.26,1.5-.91,3.08-2.25.84s-.49-5.92.67-8.33,2.33-3.16,3.08-2.58S42.62,15.84,42.13,18.25Z"/><g class="cls-14"><path class="cls-10" d="M47.68,7.18c.55,3.23,1,6.46,1.51,9.7.25,1.61.42,3.24.69,4.85s.59,3.2.93,4.8c.65,3.19,1.44,6.37,2.21,9.54s1.59,6.35,2.25,9.55c-.94-3.13-1.89-6.26-2.76-9.42s-1.66-6.33-2.37-9.53c-.32-1.61-.63-3.22-.87-4.85s-.43-3.24-.6-4.87C48.3,13.69,48,10.44,47.68,7.18Z"/></g><path class="cls-15" d="M70,75.38c-.4-.5-.9-1.51-4-1.72s-2-1.42-.42-1.31a7.34,7.34,0,0,1,4.36,1.21s.51-3.45-3.34-6.49-7.19-2.55-9.72-1.13S54.19,69,53.05,69.1c-1.3.11-1.58-5-8.66-5.18s-9,7.31-8.61,7.72,2.73-2.44,5.57-1.73,3,1.9.31,1.76-5.28.68-5.93,4,2.59,10.55,5.93,14.2a8.7,8.7,0,0,1,4-1.66c2.44-.37,2.44.13.2,1.15a9,9,0,0,0-3.13,2.12s2.7,2.54,5,4.67a21.43,21.43,0,0,1,3.91,5.48A22.89,22.89,0,0,1,57,96.47c3-1.92,6.09-4,6.49-5.17s-.09-4.26-2.13-6.49-1.52-2.63-.9-2.94,3.24,2,4,4.46a13,13,0,0,1,.81,3.56,16.08,16.08,0,0,0,4.16-6.19C70.75,80,70.45,75.89,70,75.38Zm-8.37-5.11a1.52,1.52,0,0,1,.21.85,5.43,5.43,0,0,1-.15,1.33A4,4,0,0,0,61.54,74l0,.1c.18.66.79,1.18.9,1.86a1.87,1.87,0,0,1-1.18,1.88,4.68,4.68,0,0,1-2.35.23c-.35,0-.76-.12-.89-.45a1,1,0,0,1,0-.51,4.17,4.17,0,0,0-.23-3c-.16-.24-.37-.44-.51-.7a1.9,1.9,0,0,1-.17-1A2.77,2.77,0,0,1,58,70.85C59,69.76,60.76,69,61.67,70.27ZM50.19,93.47a.62.62,0,0,1-.78.1.84.84,0,0,1-.24-.7c0-.65-.06-1.42,0-2.18a5,5,0,0,1,.76-2.75,1.78,1.78,0,0,1,.62-.57c.86-.42,1.48.8,1.11,2l-1.05,3.36A2,2,0,0,1,50.19,93.47ZM47,83.36a1.29,1.29,0,0,1-1.57-.63,3.62,3.62,0,0,1-.35-1.79c0-.1,0-.21,0-.31,0-1.11-.06-2.2-.09-3.32s.55-3,2-2.39.52,2.25.57,3.26a4.39,4.39,0,0,0,.19.93,6.48,6.48,0,0,1,.17,2.15,5.73,5.73,0,0,1-.18,1A1.66,1.66,0,0,1,47,83.36Zm13.1,5.56A4.73,4.73,0,0,1,60.07,91a5.18,5.18,0,0,1-2.25,2.34L56,94.6c-.19.13-.39.26-.6.38a2.51,2.51,0,0,1-.89.33,1.29,1.29,0,0,1-1.39-.69,1.5,1.5,0,0,1,.4-1.43,7.09,7.09,0,0,0,1-1.22,4.3,4.3,0,0,0,0-2.7c-.34-1.76,0-4.92,2.43-4.81,1.42.06,2.29,1.3,2.78,2.62A8.93,8.93,0,0,1,60.14,88.92Z"/><path class="cls-16" d="M63.05,77.85a2.38,2.38,0,0,1-.38.93c-.86,1.09-2.68.08-4,.59s-1.5,2.34-1,3.64,1.51,2.39,1.9,3.74c0,.11.06.22.08.33-.49-1.32-1.36-2.56-2.78-2.62-2.48-.11-2.77,3.05-2.43,4.81a4.3,4.3,0,0,1,0,2.7,7.09,7.09,0,0,1-1,1.22,1.5,1.5,0,0,0-.4,1.43,1.29,1.29,0,0,0,1.39.69,2.51,2.51,0,0,0,.89-.33,3.12,3.12,0,0,1-1.72,1.35A4.18,4.18,0,0,1,50.85,96c-1.45-.66-2.8-2.08-2.52-3.65a3.76,3.76,0,0,1,.81-1.62c0,.76,0,1.53,0,2.18a.84.84,0,0,0,.24.7.62.62,0,0,0,.78-.1,2,2,0,0,0,.39-.78l1.05-3.36c.37-1.16-.25-2.38-1.11-2a1.41,1.41,0,0,0-.54-.82c-.7-.51-1.95-.44-2.12-1.28-.09-.49.29-.91.52-1.35a2.43,2.43,0,0,0-.44-2.66,6.48,6.48,0,0,0-.17-2.15,4.39,4.39,0,0,1-.19-.93c0-1,.81-2.69-.57-3.26s-2,1.38-2,2.39.06,2.21.09,3.32a3.27,3.27,0,0,1-.88.11c-1.71-.09-2.54-2.41-1.82-4s2.37-2.44,3.92-3.17c1-.45,2.09-1.49,1.43-2.31-.12-.16-.31-.27-.44-.42-.73-.85.53-2.16,1.64-2,1.4.18,2.39,1.41,3.73,1.79s2.23-.06,3.48-.16a2.93,2.93,0,0,1,1.79.35,2.77,2.77,0,0,0-.83,1.55,1.9,1.9,0,0,0,.17,1c.14.26.35.46.51.7a4.17,4.17,0,0,1,.23,3,1,1,0,0,0,0,.51c.13.33.54.41.89.45a4.68,4.68,0,0,0,2.35-.23A1.87,1.87,0,0,0,62.47,76c-.11-.68-.72-1.2-.9-1.86a3.19,3.19,0,0,1,.75.2C63.5,74.87,63.37,76.57,63.05,77.85Z"/><g class="cls-17"><path class="cls-10" d="M53.05,69.1a26.25,26.25,0,0,0-.34,4.05,39.24,39.24,0,0,0,.11,4.06c.22,2.71.47,5.43.49,8.17A33.14,33.14,0,0,1,53,89.49l-.59,4c-.38,2.68-.51,5.4-.82,8.11,0-2.72,0-5.45.29-8.17.1-1.37.35-2.72.51-4.06a31.93,31.93,0,0,0,.23-4c.05-2.7-.22-5.41-.32-8.14A27.82,27.82,0,0,1,53.05,69.1Z"/></g></svg>