<svg xmlns="http://www.w3.org/2000/svg" viewBox="0 0 184.15 78.84"><defs><style>.cls-1{isolation:isolate;}.cls-2{fill:#d9d9d9;}.cls-3{fill:#f3f3f3;}.cls-4{fill:#eae9e9;}.cls-5{fill:#fff;}.cls-10,.cls-11,.cls-12,.cls-5,.cls-6,.cls-7,.cls-9{fill-rule:evenodd;}.cls-6{fill:#f8f4f2;}.cls-7{fill:#e8e1de;}.cls-8{fill:#f7a900;}.cls-9{fill:#f49d00;}.cls-10{fill:#f18a00;}.cls-11{fill:#fcc200;}.cls-12{fill:#fbf7cc;}.cls-13{fill:#d64141;}.cls-14{opacity:0.3;}.cls-15{fill:#8f4b33;}.cls-16{fill:#ea6060;}.cls-17{fill:#332f33;opacity:0.15;mix-blend-mode:multiply;}</style></defs><g class="cls-1"><g id="Layer_1" data-name="Layer 1"><path class="cls-2" d="M184.15,39.39c0,19.72-40.33,35.71-90.09,35.71S4,59.11,4,39.39,44.31,3.68,94.06,3.68,184.15,19.67,184.15,39.39Z"/><ellipse class="cls-3" cx="94.06" cy="37.59" rx="90.09" ry="35.71"/><path class="cls-4" d="M155.5,33.91c0,13.46-27.5,24.36-61.44,24.36S32.62,47.37,32.62,33.91,60.13,9.56,94.06,9.56,155.5,20.46,155.5,33.91Z"/><path class="cls-3" d="M153.37,34.36c0,12.76-26.55,23.11-59.31,23.11s-59.3-10.35-59.3-23.11,26.55-23.11,59.3-23.11S153.37,21.6,153.37,34.36Z"/><path class="cls-5" d="M115.44,44.32c-4-2.46-17.07-4.06-16.93-8.23a5.42,5.42,0,0,1,.08-.79,20.13,20.13,0,0,1,1.33-4.2c1.12-2.84,2.21-5.62.29-7.5a3.79,3.79,0,0,0-.6-.47L99.39,23c-.19-.11-.39-.23-.61-.34l-.26-.13c-.3-.14-.63-.29-1-.43l-.29-.1-.89-.31-.49-.16L95,21.25l-.48-.13-1.3-.33.13,0c-15.21-3.67-48.28-4.77-47.06-1,.5,1.52,4.86,3.37,3.48,4.33S32.66,25.69,20,27.92h0l-1.73.32-.61.12-1.15.24-.67.14-1,.25-.63.15-1.14.3-.44.12c-.5.14-1,.28-1.45.43l-.39.13-1,.35-.47.18-.8.33-.44.19-.76.38L7,31.72q-.51.29-.93.57l-.14.11a8,8,0,0,0-.62.51l-.22.21q-.21.23-.39.45l-.17.24a2.77,2.77,0,0,0-.26.48l-.1.22a3.16,3.16,0,0,0-.16.74C3.86,37.18,5,39,6.71,40.53a18,18,0,0,0,2.2,1.68,24.21,24.21,0,0,0,7.32,3.27,26.06,26.06,0,0,0,3.17.37c2.19.16,4.93.25,7.3.36,2.75.12,4.38.81,5.47,1.78a.5.5,0,0,0,.08.07c1.42,1.32,1.88,3.14,2.72,4.77.09.18.19.35.29.51a5.23,5.23,0,0,0,.41.63c.95,1.29,2.43,2.33,5.31,2.67a19.37,19.37,0,0,0,2.14.13c1.57,0,3.71.09,6.09.24,1.36.08,2.79.18,4.24.3l2.18.18c4.34.39,8.54.89,10.94,1.39a13.82,13.82,0,0,1,1.44.37c.35.12.56.24.6.36a.11.11,0,0,1,0,.11,2.69,2.69,0,0,0-.38.76.45.45,0,0,0,0,.28c.17.31.86.53,2.68.54h.54l1.19,0,.78,0c.73,0,1.56-.1,2.5-.18L78,60.87l2.4-.24c4.27-.45,8.24-1,11.85-1.6,1.44-.24,2.83-.5,4.15-.76l1.94-.4q2.84-.61,5.22-1.28a46.56,46.56,0,0,0,6.55-2.26A18.37,18.37,0,0,0,113,52.7a15,15,0,0,0,1.6-1.29c.23-.23.46-.45.67-.69a9.48,9.48,0,0,0,1.07-1.4,5.91,5.91,0,0,0,.37-.7,4.4,4.4,0,0,0,.38-1.38A3,3,0,0,0,115.44,44.32Z"/><path class="cls-6" d="M43.12,56.77c7.2,0,26.2,1.75,25.48,2.95s-1.86,2.34,11.83.91,24.25-3.84,29.71-6.3,9.29-7.55,5.3-10-17.07-4.06-16.93-8.23,4.77-9.49,1.7-12.49c-.09-.09-.19-.17-.3-.26h0c-.11-.08-.23-.17-.36-.25h0l-.41-.25h0l-.44-.23-.06,0-.47-.22-.09,0-.49-.19-.13-.05-.48-.18-.19-.07-.48-.16L96,21.56l-.46-.14-.33-.1-.41-.11-.39-.11L94,21l-.49-.12-.35-.09c1.38.35,6.41,1.9,6.27,5.49-.16,4.16-9,8.07-9.51,11.51s9.51,4.07,16.78,6,5.2,8.88-10.55,12.86S73,60.2,71.68,59.76s4.95-1.84,1.84-2.2S55.86,57.08,51.46,56s-14.22-.56-14.54-3.92,1.44-7-6.39-8.23-15.1-2.4-20.14-5-3.76-8,9.62-10.95l-.81.15-.25,0-.72.14-.18,0-.83.17-.17,0-.74.16-.16,0-.81.18-.14,0-.71.17-.18,0-.75.19-.11,0-.71.19-.14,0-.7.21-.12,0-.66.21L11,30l-.67.22-.05,0-.66.24-.1,0-.59.23-.07,0-.59.25-.08,0-.54.25,0,0-.53.27L7,31.7,6.53,32l0,0L6,32.3l0,0a4,4,0,0,0-.39.29l0,0c-.13.11-.25.21-.36.32l0,0-.32.32,0,0a4.11,4.11,0,0,0-.27.35h0c-.08.11-.15.23-.22.35v0a1.76,1.76,0,0,0-.17.37h0a2.4,2.4,0,0,0-.12.38v0a2.63,2.63,0,0,0-.06.39c-.32,5.15,8.44,9.4,12.25,10.23a95.54,95.54,0,0,0,10.47.73C38,46.71,30.53,56.71,43.12,56.77Z"/><path class="cls-7" d="M7.59,31.39C5.42,32.47,4.08,33.74,4,35.25c-.32,5.15,8.44,9.4,12.25,10.23a95.54,95.54,0,0,0,10.47.73c11.28.5,3.83,10.5,16.42,10.56h1c-10.65-1.7-9.48-6.75-9.41-8.07s-.27-2-2.89-2.75-10-.79-16-1.57S5.32,39,4.78,36.06,7.49,31.44,7.59,31.39Z"/><path class="cls-7" d="M43.12,56.77c.61,0,1.31,0,2.08,0-2-.09-3.38-.14-3.76-.12C42,56.74,42.51,56.76,43.12,56.77Zm6.87.29c8.39.54,19.16,1.75,18.61,2.66-.73,1.21-1.86,2.34,11.83.91s24.26-3.84,29.71-6.3,9.29-7.55,5.3-10-17.07-4.06-16.93-8.23,4.77-9.49,1.7-12.49a3.89,3.89,0,0,0-.47-.39c.5.39,1.71,1.7.54,4.62-1.45,3.61-5.18,6.56-5.25,8.92s3,2.56,4.2,2.89,15,3.19,15.93,6.62-2.23,6.36-5.9,7.86S91,58.91,84.84,59.7,70,62,69.76,60.58s.91-1.31-.66-2C68.09,58.2,57.76,57.49,50,57.06Z"/><ellipse class="cls-8" cx="67.97" cy="37.87" rx="17.26" ry="10.31"/><path class="cls-9" d="M72,27.85c7.57,1.09,13.2,5.16,13.2,10,0,5.69-7.73,10.3-17.26,10.3s-17.26-4.61-17.26-10.3c0-3.66,3.19-6.88,8-8.71-17.6,7.43,4.89,20.55,19.17,12.46C84.82,37.69,82.08,29.93,72,27.85Z"/><path class="cls-10" d="M83.25,33.07a7.19,7.19,0,0,1,2,4.8c0,5.69-7.73,10.3-17.26,10.3s-17.26-4.61-17.26-10.3A6.32,6.32,0,0,1,51,36c0,.11-.61,7.78,10.82,10.48S88.62,43.41,83.25,33.07Z"/><path class="cls-11" d="M64.53,28.72s-8.66,1.56-10.07,5.51,3.44,6.55,9.75,7,2.24-4.79,5.92-5.83C82.43,32,72.59,27.78,64.53,28.72Z"/><path class="cls-12" d="M62.17,29.78s-4,1-4.79,2.35,1.06,1.56,2.24.92a39.5,39.5,0,0,1,4-2.08C64.47,30.72,66,29,62.17,29.78Z"/><path class="cls-12" d="M64,31.61c-.84.56-2,1-1.44,1.56C64,34.58,68.63,29,64,31.61Z"/><path class="cls-13" d="M130.51,10.34s-7.31,11.83-25.77,17.8S77.55,32,76.18,44.26,88.57,55.86,96,53.88s31.6-8.4,47-25.46c0,0,8.65-8.5-.08-17.5C142.89,10.92,135.38,4.69,130.51,10.34Z"/><g class="cls-14"><path class="cls-15" d="M102.7,52s0-.06,0-.17,0,0,0-.2c-.06-.42-.16-1-.3-1.68-.08-.34-.15-.71-.26-1.1s-.19-.8-.32-1.22-.25-.85-.39-1.29-.31-.87-.47-1.31-.35-.86-.53-1.28-.39-.82-.6-1.2-.4-.75-.62-1.08-.42-.65-.63-.93l-.58-.74c-.17-.22-.36-.38-.49-.53L97,38.79l.36.51c.11.17.27.35.4.59l.46.8c.15.3.3.64.46,1s.28.74.44,1.13.25.81.38,1.23.22.85.32,1.29.19.87.25,1.3.14.86.18,1.27.1.82.13,1.2,0,.74.08,1.07c0,.66,0,1.21,0,1.59,0,.19,0,.34,0,.44s0,.44,0,.44Z"/><path class="cls-15" d="M111.35,49s0-.06,0-.17,0,.09,0-.11c-.07-.42-.17-1-.35-1.69-.08-.35-.19-.72-.3-1.1s-.26-.79-.4-1.2-.32-.83-.52-1.25c-.09-.2-.19-.41-.28-.62s-.21-.42-.32-.62c-.21-.42-.45-.81-.69-1.2a12.42,12.42,0,0,0-.74-1.1,11.43,11.43,0,0,0-.75-1l-.37-.44-.37-.39c-.23-.24-.44-.48-.64-.67L105,37l-.46-.41.4.47c.12.16.27.34.44.55s.34.48.53.75l.3.43.28.48a11.3,11.3,0,0,1,.58,1c.18.38.38.75.54,1.16s.33.8.46,1.22c.07.21.15.42.21.62s.12.42.17.63c.13.41.2.83.3,1.22s.14.79.2,1.16.09.71.11,1c.06.65.07,1.18.07,1.54,0,.19,0,.33,0,.41s0,.55,0,.55Z"/><path class="cls-15" d="M120.6,44.86s0-.07,0-.17a1.11,1.11,0,0,1,0-.13c-.12-.38-.29-.91-.53-1.53-.11-.31-.25-.64-.4-1s-.31-.71-.48-1.09-.36-.75-.56-1.13-.41-.77-.64-1.14-.45-.75-.69-1.1c-.12-.18-.23-.36-.35-.53l-.37-.5-.35-.48-.37-.45c-.23-.28-.46-.56-.68-.79l-.61-.64-.49-.46-.43-.4.36.46.41.53.48.73c.18.26.35.55.54.87l.27.48.27.52.27.53c.09.19.17.38.25.57a11.61,11.61,0,0,1,.48,1.15c.16.39.29.79.43,1.17s.24.78.35,1.15.21.74.28,1.09.16.67.22,1c.12.61.2,1.11.25,1.46,0,.18,0,.31,0,.4s0,.46,0,.46Z"/><path class="cls-15" d="M130.57,39.07l-.08-.17c0-.11,0,.05-.05-.12-.17-.34-.42-.83-.75-1.38a20.83,20.83,0,0,0-1.2-1.81c-.24-.31-.48-.64-.75-1l-.41-.48-.42-.46c-.28-.31-.59-.6-.88-.88s-.61-.55-.9-.8-.61-.48-.89-.69l-.41-.31-.41-.26c-.26-.17-.49-.33-.71-.45l-.57-.31-.49-.27.44.35.5.4c.19.15.39.35.61.55l.35.32.35.37c.24.25.5.51.73.8s.49.58.72.9.47.64.68,1l.32.49.3.51c.2.33.37.68.54,1,.33.67.6,1.29.81,1.84s.35,1,.44,1.32a2.3,2.3,0,0,1,.09.36c0,.08.09.43.09.43Z"/><path class="cls-15" d="M138.1,33.25l-.09-.11-.15-.18c-.22-.26-.53-.62-.92-1s-.84-.88-1.35-1.36-1.07-1-1.65-1.45-1.17-.92-1.74-1.32c-.28-.21-.56-.39-.83-.56a8.22,8.22,0,0,0-.75-.47c-.47-.29-.88-.51-1.16-.66l-.45-.23.39.31c.25.2.61.49,1,.86a8.65,8.65,0,0,1,.64.6c.22.21.46.44.69.69.47.48,1,1,1.41,1.57s.89,1.13,1.29,1.67.73,1.06,1,1.51.5.83.65,1.09l.16.3c0,.07.12.25.12.25Z"/></g><path class="cls-16" d="M128.38,16.34S117.57,28.64,93,32.55c0,0-13,2.12-11.8,5.72s27.6-4.62,36.21-8.74S136.68,8.76,128.38,16.34Z"/><path class="cls-17" d="M76.27,47.79C77.74,56.33,89.4,55.64,96,53.88c7.43-2,31.6-8.4,47-25.46a14.69,14.69,0,0,0,3.28-5.53l0,0a14.25,14.25,0,0,0,.37-1.53s0-.09,0-.13l0-.15c0-.36.07-.67.09-.89v-.1a.38.38,0,0,0,0-.1v-.08a11.58,11.58,0,0,0-3-8,13.72,13.72,0,0,1,.5,2.21,15.18,15.18,0,0,1-2.21,10c-7.34,4.1-21.18,8.21-27.86,8.63-9,.58-14.33,7.61-14.33,12.65,0,4.83-3.49,5.56-3.78,5.61h0a55.58,55.58,0,0,1-13.88,0A9.9,9.9,0,0,1,76.27,47.79Z"/><path class="cls-13" d="M157.38,12.43s-7.32,11.84-25.78,17.8-27.18,3.89-28.55,16.12S115.44,58,122.87,56s31.6-8.4,47-25.46c0,0,8.65-8.5-.07-17.5C169.76,13,162.24,6.78,157.38,12.43Z"/><g class="cls-14"><path class="cls-15" d="M129.56,54.07s0-.07,0-.18,0,0,0-.2c-.07-.41-.17-1-.31-1.68-.08-.34-.15-.71-.25-1.1s-.2-.8-.33-1.22-.25-.85-.39-1.29-.31-.87-.46-1.3-.36-.87-.54-1.28-.38-.83-.59-1.21-.41-.75-.63-1.08-.42-.65-.62-.93l-.59-.74c-.17-.22-.36-.38-.49-.53l-.44-.44s.14.18.37.51a6.54,6.54,0,0,1,.4.59l.45.8c.16.3.3.63.46,1s.29.74.44,1.13.25.81.39,1.23.21.86.32,1.29.18.87.24,1.3.14.86.19,1.28.09.81.12,1.19,0,.74.08,1.07c0,.66,0,1.22,0,1.6v.43c0,.1,0,.45,0,.45Z"/><path class="cls-15" d="M138.21,51.06s0-.06,0-.18,0,.1,0-.11c-.06-.42-.17-1-.34-1.69-.08-.35-.19-.71-.31-1.1s-.25-.79-.4-1.2-.31-.83-.51-1.24l-.29-.63c-.1-.21-.21-.41-.32-.62-.2-.41-.45-.81-.68-1.2s-.5-.75-.74-1.1-.52-.67-.76-1l-.36-.44-.37-.39c-.24-.24-.45-.48-.65-.66l-.53-.48-.47-.41s.15.17.4.48l.45.54c.17.22.33.48.53.75l.29.43c.1.15.19.31.29.48.18.33.4.67.57,1a12.19,12.19,0,0,1,.54,1.15,13,13,0,0,1,.47,1.23c.07.2.14.41.2.62l.18.62c.12.41.2.83.29,1.22s.15.79.2,1.16.09.71.12,1c.06.64.07,1.17.07,1.53,0,.19,0,.33,0,.41s0,.55,0,.55Z"/><path class="cls-15" d="M147.47,47l-.05-.18a.93.93,0,0,0,0-.13c-.12-.38-.29-.91-.53-1.52-.11-.32-.25-.65-.39-1s-.32-.71-.48-1.08-.37-.76-.57-1.14-.41-.76-.64-1.14-.44-.75-.69-1.1c-.11-.18-.23-.36-.35-.53s-.24-.34-.37-.5l-.35-.48-.37-.44a9.25,9.25,0,0,0-.68-.79l-.6-.65-.5-.46-.43-.4.36.46.41.54c.14.21.31.45.48.72a10,10,0,0,1,.54.87c.09.16.18.32.28.48s.17.35.26.52l.27.54c.09.18.17.37.26.56.17.37.33.76.48,1.15s.28.79.42,1.17.24.78.36,1.15.2.74.28,1.09.15.68.21,1c.13.61.2,1.11.25,1.47,0,.17,0,.31.05.39s0,.47,0,.47Z"/><path class="cls-15" d="M157.43,41.16l-.07-.17a1.1,1.1,0,0,1-.06-.12c-.17-.34-.41-.82-.74-1.37s-.74-1.18-1.21-1.82c-.24-.31-.48-.64-.75-1l-.4-.47-.43-.47c-.28-.31-.58-.6-.88-.88s-.61-.54-.9-.8-.6-.47-.88-.69-.28-.21-.42-.31l-.41-.26c-.26-.16-.49-.33-.71-.45l-.57-.31-.49-.27.44.35.5.4c.19.16.39.35.62.56l.34.32c.12.11.23.24.35.36s.5.51.73.8.5.58.72.91a11.2,11.2,0,0,1,.68,1l.33.5c.1.17.19.34.29.5.21.33.37.68.54,1a17.91,17.91,0,0,1,.81,1.83c.21.55.35,1,.44,1.32,0,.16.08.29.1.36s.08.44.08.44Z"/><path class="cls-15" d="M165,35.34l-.09-.11-.15-.18c-.21-.26-.52-.62-.91-1s-.85-.89-1.36-1.37-1.07-1-1.65-1.45-1.17-.92-1.73-1.32c-.28-.21-.57-.38-.83-.56s-.52-.33-.76-.47c-.47-.29-.87-.51-1.16-.66l-.44-.23.39.32c.25.19.6.48,1,.85.21.18.42.38.65.6s.46.44.69.69c.47.48.95,1,1.41,1.57s.89,1.13,1.28,1.67.74,1.06,1,1.51.51.83.65,1.09l.16.3.12.26Z"/></g><path class="cls-16" d="M155.25,18.44s-10.82,12.29-35.37,16.21c0,0-13,2.11-11.79,5.71s27.59-4.62,36.2-8.74S163.54,10.85,155.25,18.44Z"/><path class="cls-17" d="M109,53a57,57,0,0,0,34-6.4,62.23,62.23,0,0,0,13.05-8.76c2.5-2.29,5.59-3.83,8.11-6.1,4.49-4,7.77-9.33,6.94-15.62a13.72,13.72,0,0,0-.5-2.21c7.29,8.65-.77,16.57-.77,16.57C154.47,47.57,130.31,54,122.87,56c-6.63,1.77-18.28,2.45-19.76-6.08A9.88,9.88,0,0,0,109,53Z"/></g></g></svg>