<svg xmlns="http://www.w3.org/2000/svg" xmlns:xlink="http://www.w3.org/1999/xlink" viewBox="0 0 93.26 48.09" ><defs><style>.cls-1{isolation:isolate;}.cls-2{fill:#332f33;opacity:0.15;mix-blend-mode:multiply;}.cls-3{fill:#eec1a6;}.cls-4{opacity:0.3;}.cls-5{fill:#8f4b33;}.cls-6{fill:#f7d1bd;}.cls-7{opacity:0.5;mix-blend-mode:color-burn;}.cls-8{fill:url(#鍊踑臇蜸馯鳺艜_60);}</style><linearGradient id="鍊踑臇蜸馯鳺艜_60" x1="9987.57" y1="-622.86" x2="9970.27" y2="-589.28" gradientTransform="matrix(-0.99, 0.13, 0.13, 0.99, 10021.53, -649.06)" gradientUnits="userSpaceOnUse"><stop offset="0" stop-color="#f1d0c0"/><stop offset="1" stop-color="#d696ce"/></linearGradient></defs><g class="cls-1"><g id="Layer_1" data-name="Layer 1"><path class="cls-2" d="M46.58,24.08a5.29,5.29,0,0,0,.09-.8C46.65,23.47,46.62,23.76,46.58,24.08Z"/><path class="cls-3" d="M51.76,3.49S45.1,14.26,28.31,19.69s-24.74,3.54-26,14.66,11.27,10.56,18,8.76S49.12,35.47,63.1,19.94c0,0,7.86-7.73-.07-15.92C63,4,56.19-1.65,51.76,3.49Z"/><g class="cls-4"><path class="cls-5" d="M26.45,41.37s0-.06,0-.16a1.5,1.5,0,0,0,0-.18c0-.37-.15-.9-.28-1.52-.07-.32-.13-.65-.23-1s-.18-.72-.29-1.11-.23-.77-.36-1.17S25,35.43,24.82,35s-.32-.78-.49-1.16-.35-.75-.54-1.1-.37-.68-.57-1-.38-.59-.57-.85l-.53-.67a5.58,5.58,0,0,0-.44-.48l-.4-.41.33.47a6,6,0,0,1,.36.53c.12.22.26.46.42.73s.27.58.41.9.26.67.4,1,.23.74.35,1.12.2.78.29,1.18.17.79.23,1.18.13.78.17,1.16.08.74.11,1.09,0,.67.07,1c0,.61,0,1.11,0,1.45v.4c0,.09,0,.4,0,.4Z"/><path class="cls-5" d="M34.32,38.64s0-.06,0-.16a.87.87,0,0,0,0-.11c-.06-.38-.16-.91-.32-1.53-.07-.32-.17-.65-.27-1s-.24-.72-.37-1.09-.28-.76-.47-1.14c-.08-.19-.17-.38-.26-.57s-.19-.37-.29-.56a10.58,10.58,0,0,0-.62-1.09c-.2-.36-.45-.68-.67-1s-.47-.61-.69-.89c-.12-.13-.22-.27-.33-.4l-.34-.35c-.22-.22-.4-.43-.59-.6l-.48-.44-.42-.37.35.43.41.5c.16.19.31.43.48.68l.27.39c.09.14.17.29.26.44.17.3.37.6.53.95A11.18,11.18,0,0,1,31,31.77a11.55,11.55,0,0,1,.43,1.11c.06.19.13.38.19.57s.1.38.16.57c.11.37.18.75.26,1.11s.14.72.18,1,.09.65.11.94a13.15,13.15,0,0,1,.06,1.4v.37c0,.09,0,.51,0,.51Z"/><path class="cls-5" d="M42.75,34.91l0-.16a.9.9,0,0,0,0-.12c-.11-.35-.27-.83-.48-1.39-.11-.28-.23-.59-.36-.9s-.29-.65-.44-1-.33-.69-.52-1-.37-.7-.58-1-.4-.68-.62-1l-.32-.48L39,27.34l-.32-.44-.33-.4c-.22-.26-.42-.51-.63-.72l-.55-.59-.45-.42-.39-.36.33.42.37.49.44.65c.17.24.32.51.49.8l.25.44.24.47c.09.16.17.32.25.48l.23.51c.16.34.3.7.44,1s.26.72.38,1.07.22.71.33,1.05.18.67.25,1,.15.61.2.89c.11.55.18,1,.22,1.33,0,.16,0,.28.05.36s0,.42,0,.42Z"/><path class="cls-5" d="M51.81,29.63l-.07-.15c0-.1,0,.05-.05-.11-.15-.31-.37-.75-.67-1.25a18.87,18.87,0,0,0-1.1-1.65c-.22-.29-.44-.59-.68-.87l-.37-.44-.39-.42c-.25-.28-.53-.55-.8-.8s-.55-.5-.82-.73-.55-.43-.8-.63l-.38-.28-.37-.24-.65-.41-.52-.28-.45-.24.41.31.45.37c.18.14.36.32.56.5l.32.29c.1.11.21.22.31.34a9.51,9.51,0,0,1,.67.73c.21.26.45.52.65.82s.43.57.62.88l.3.45.27.47c.18.3.33.61.49.91a18.18,18.18,0,0,1,.73,1.67c.19.49.32.91.41,1.2s.07.26.08.32.08.4.08.4Z"/><path class="cls-5" d="M58.66,24.34l-.08-.1-.13-.17c-.2-.23-.48-.56-.84-.94s-.77-.8-1.23-1.24-1-.89-1.5-1.32-1.06-.84-1.58-1.2c-.26-.19-.51-.35-.76-.51s-.47-.31-.68-.43c-.43-.26-.8-.46-1.06-.6l-.4-.21.35.29c.23.18.55.44.92.77.18.17.38.35.58.55s.42.4.63.63c.43.44.87.93,1.28,1.43s.81,1,1.17,1.52.67,1,.92,1.37.46.76.59,1l.15.27.11.23Z"/></g><path class="cls-6" d="M49.82,9S40,20.14,17.64,23.7c0,0-11.83,1.93-10.73,5.21s25.11-4.21,33-8S57.37,2.05,49.82,9Z"/><path class="cls-2" d="M2.4,37.57c1.35,7.77,12,7.14,18,5.54,6.76-1.81,28.75-7.65,42.73-23.17a13.29,13.29,0,0,0,3-5,0,0,0,0,0,0,0,11.76,11.76,0,0,0,.34-1.39.5.5,0,0,1,0-.12s0-.09,0-.14c0-.32.07-.6.09-.8v-.09a.34.34,0,0,0,0-.09v-.08a10.51,10.51,0,0,0-2.77-7.3,11.35,11.35,0,0,1,.46,2,13.86,13.86,0,0,1-2,9.09C55.58,19.7,43,23.43,36.91,23.82c-8.22.53-13,6.92-13,11.51,0,4.39-3.17,5.06-3.44,5.11h0a50.84,50.84,0,0,1-12.63,0A9.06,9.06,0,0,1,2.4,37.57Z"/><path class="cls-3" d="M76.2,5.39s-6.65,10.77-23.45,16.2S28,25.13,26.77,36.25,38,46.81,44.81,45s28.75-7.64,42.73-23.16c0,0,7.87-7.74-.07-15.93C87.47,5.92,80.63.26,76.2,5.39Z"/><g class="cls-4"><path class="cls-5" d="M50.9,43.28l0-.16a1.52,1.52,0,0,0,0-.19c-.05-.37-.15-.89-.27-1.52-.08-.31-.14-.65-.23-1s-.18-.73-.3-1.11-.23-.78-.36-1.17-.28-.8-.42-1.19-.32-.79-.49-1.17-.34-.75-.54-1.09-.36-.69-.56-1-.39-.59-.57-.84-.38-.47-.53-.67-.33-.35-.45-.49l-.4-.4.33.46a6.29,6.29,0,0,1,.36.54c.13.21.27.46.42.73s.27.58.42.89.26.67.39,1,.24.74.36,1.12.2.78.29,1.17.16.79.22,1.19.13.78.17,1.16.08.74.11,1.08.05.67.07,1c0,.6,0,1.1,0,1.45v.39c0,.09,0,.41,0,.41Z"/><path class="cls-5" d="M58.76,40.54a.91.91,0,0,0,0-.16c0-.12,0,.09,0-.1-.06-.38-.16-.92-.31-1.54-.08-.31-.18-.65-.28-1s-.23-.71-.37-1.09-.28-.76-.46-1.13c-.09-.19-.18-.38-.26-.58s-.2-.37-.29-.56c-.19-.37-.41-.73-.63-1.09s-.45-.68-.67-1-.47-.61-.69-.89-.22-.28-.33-.4l-.34-.35c-.21-.23-.4-.44-.59-.61L53,29.61l-.42-.38.36.44.4.49c.16.2.31.44.49.68s.17.26.26.39.17.29.26.44.37.61.53.95.35.68.49,1.06.3.73.42,1.11c.06.19.13.37.19.56s.11.38.16.57c.11.37.18.76.26,1.11s.14.72.18,1,.09.66.11,1a13.56,13.56,0,0,1,.07,1.4c0,.17,0,.29,0,.37s0,.5,0,.5Z"/><path class="cls-5" d="M67.19,36.81l0-.16c0-.1,0,.05,0-.12-.11-.34-.26-.82-.48-1.39l-.36-.9c-.13-.32-.29-.65-.44-1s-.33-.68-.52-1-.36-.7-.57-1-.41-.68-.63-1l-.32-.48c-.11-.16-.23-.31-.34-.46l-.32-.44-.33-.4c-.22-.26-.42-.51-.62-.72s-.39-.41-.55-.58l-.45-.42-.4-.37.33.42.37.49c.14.19.28.42.44.66a7.18,7.18,0,0,1,.49.79l.26.44c.07.15.16.31.24.47l.24.49c.08.17.16.34.23.51.16.34.31.69.44,1.05s.26.71.38,1.06.22.71.33,1.05.18.67.25,1,.15.61.2.89c.11.55.18,1,.23,1.33,0,.16,0,.29,0,.36s0,.43,0,.43Z"/><path class="cls-5" d="M76.25,31.54l-.06-.16c0-.09,0,.05-.06-.11s-.37-.75-.67-1.25-.67-1.07-1.1-1.65c-.22-.28-.43-.59-.68-.87l-.37-.44-.39-.42c-.25-.28-.53-.54-.8-.8s-.55-.5-.82-.73-.55-.43-.8-.63l-.38-.28L69.75,24c-.24-.15-.45-.3-.65-.41l-.51-.29L68.14,23l.4.32.45.36c.18.14.36.32.56.51l.32.29.32.33c.21.23.45.46.66.73s.45.53.65.82.43.58.62.88l.3.46.27.46c.18.3.33.62.49.91a15.8,15.8,0,0,1,.73,1.67c.2.5.32.92.41,1.21a2.91,2.91,0,0,1,.08.32c0,.07.08.4.08.4Z"/><path class="cls-5" d="M83.1,26.24l-.08-.1L82.89,26c-.2-.23-.48-.56-.83-.93s-.78-.81-1.24-1.25-1-.89-1.5-1.32-1.06-.84-1.58-1.2c-.25-.19-.51-.35-.75-.51s-.47-.3-.69-.43c-.43-.26-.8-.46-1.06-.59l-.4-.22.35.29c.23.18.55.44.92.78.19.16.38.34.58.54s.42.4.63.63c.43.44.87.93,1.28,1.44s.82,1,1.17,1.51.67,1,.93,1.38.45.75.59,1l.14.27.11.23Z"/></g><path class="cls-6" d="M74.27,10.86S64.42,22,42.08,25.61c0,0-11.83,1.92-10.72,5.2s25.1-4.21,32.94-7.95S81.81,4,74.27,10.86Z"/><path class="cls-2" d="M32.21,42.34a51.84,51.84,0,0,0,30.91-5.83,55.69,55.69,0,0,0,11.87-8c2.29-2.08,5.09-3.48,7.39-5.55,4.08-3.67,7.07-8.48,6.31-14.21a12.31,12.31,0,0,0-.45-2c6.63,7.87-.7,15.08-.7,15.08-14,15.52-36,21.35-42.73,23.16-6,1.61-16.64,2.23-18-5.54A9,9,0,0,0,32.21,42.34Z"/><path class="cls-2" d="M46.46,24.37A6.9,6.9,0,0,0,46.8,23,11.3,11.3,0,0,1,46.46,24.37Z"/><g class="cls-7"><path class="cls-3" d="M66.49,13.05a1.36,1.36,0,0,0,0-.2,0,0,0,0,0,0,0,.34.34,0,0,0,0-.1,2.58,2.58,0,0,0,0-.29,1.84,1.84,0,0,0,0,.26A3.29,3.29,0,0,0,66.49,13.05Z"/><path class="cls-2" d="M66.49,13.05a1.36,1.36,0,0,0,0-.2,0,0,0,0,0,0,0,.34.34,0,0,0,0-.1,0,0,0,0,0,0,0A3.29,3.29,0,0,0,66.49,13.05Z"/><path class="cls-8" d="M20.36,43.11c1.38-.37,3.38-.9,5.82-1.65l.27-.08h0l.84-.26c2.48,6,12,5.38,17.52,3.9,1.37-.37,3.37-.9,5.81-1.65l.28-.08h0c1.76-.55,3.73-1.2,5.85-2l.17-.06,1.81-.68,0,0c2.08-.81,4.28-1.74,6.52-2.8.62-.29,1.24-.6,1.87-.91l0,0c2.41-1.21,4.87-2.58,7.29-4.11h0l.15-.09,1.47-1,.15-.11a63.74,63.74,0,0,0,5.29-4h0l.16-.13c.41-.34.82-.7,1.23-1.06l.09-.07.08-.08a57.41,57.41,0,0,0,4.44-4.39s7.86-7.74-.07-15.93c0,0-6.84-5.66-11.27-.53,0,0-3,4.93-10.21,9.8a2.81,2.81,0,0,0,.1-.31,6.29,6.29,0,0,0,.34-1.39l0-.26a.5.5,0,0,0,0-.12s0,0,0-.06a3.29,3.29,0,0,1,0-.36,1.84,1.84,0,0,1,0-.26C66.71,9.92,65.91,7,63,4c0,0-6.84-5.67-11.27-.53,0,0-6.66,10.77-23.45,16.2s-24.74,3.54-26,14.66S13.6,44.91,20.36,43.11Z"/><path class="cls-5" d="M76.1,31.64l.15-.1h0Z"/><path class="cls-5" d="M74.48,32.69h0l.15-.1Z"/><path class="cls-5" d="M83,26.32l.09-.08h0Z"/></g></g></g></svg>