<svg xmlns="http://www.w3.org/2000/svg" viewBox="0 0 93.26 48.09"><defs><style>.cls-1{isolation:isolate;}.cls-2{fill:#683f31;}.cls-3{opacity:0.3;}.cls-4{fill:#8f4b33;}.cls-5{fill:#8d5440;}.cls-6{fill:#191407;opacity:0.15;mix-blend-mode:multiply;}</style></defs><g class="cls-1"><g id="Layer_1" data-name="Layer 1"><path class="cls-2" d="M51.38,4.11S44.72,14.89,27.92,20.32,3.19,23.85,1.94,35s11.27,10.56,18,8.75,28.75-7.64,42.73-23.16c0,0,7.87-7.74-.07-15.93C62.64,4.64,55.8-1,51.38,4.11Z"/><g class="cls-3"><path class="cls-4" d="M26.07,42s0-.06,0-.16l0-.18c-.06-.38-.15-.9-.28-1.53-.07-.31-.14-.65-.23-1s-.18-.73-.3-1.11-.23-.78-.35-1.17-.29-.79-.43-1.19L24,34.49c-.19-.37-.35-.74-.54-1.09s-.37-.68-.57-1-.38-.59-.57-.84l-.53-.67c-.16-.2-.33-.35-.45-.48l-.4-.41.33.46c.1.15.24.32.37.54l.41.73c.14.27.27.58.42.89s.26.68.4,1,.23.74.35,1.12.2.78.29,1.17.17.79.22,1.19.13.78.17,1.16.09.74.12,1.08,0,.68.07,1c0,.6,0,1.1,0,1.45v.39c0,.1,0,.41,0,.41Z"/><path class="cls-4" d="M33.93,39.26s0,0,0-.16,0,.09,0-.1c-.06-.38-.15-.91-.31-1.54-.08-.31-.17-.65-.28-1s-.23-.71-.37-1.09-.28-.75-.46-1.13c-.09-.19-.18-.38-.26-.57s-.2-.38-.29-.56c-.19-.38-.41-.74-.63-1.09s-.45-.69-.67-1a11,11,0,0,0-.69-.89l-.33-.4-.34-.35c-.21-.22-.4-.44-.58-.61l-.49-.43L27.78,28l.36.44.41.5c.15.19.3.43.48.68l.27.39.26.43a10.85,10.85,0,0,1,.52,1c.16.34.35.68.49,1s.3.73.42,1.11c.07.19.13.38.19.57s.11.38.16.56c.12.38.18.76.27,1.12s.13.71.18,1.05.08.65.1.94a13.56,13.56,0,0,1,.07,1.4,3.45,3.45,0,0,1,0,.37c0,.09,0,.5,0,.5Z"/><path class="cls-4" d="M42.36,35.53a1.47,1.47,0,0,1,0-.16c0-.1,0,.05,0-.12-.11-.34-.26-.82-.48-1.38-.1-.29-.23-.59-.36-.91s-.29-.64-.44-1-.33-.68-.51-1-.37-.7-.58-1-.41-.69-.63-1L39,28.42,38.63,28l-.33-.43L38,27.12c-.21-.26-.42-.5-.62-.72l-.55-.58-.45-.42L36,25l.32.43.38.48c.13.2.27.42.44.66s.32.51.48.79l.26.44.24.47c.08.16.16.33.25.49s.15.34.23.51c.15.34.3.69.43,1.05s.26.72.39,1.07.22.71.32,1,.19.68.26,1,.14.62.19.89c.12.56.19,1,.23,1.34,0,.16,0,.28,0,.35s0,.43,0,.43Z"/><path class="cls-4" d="M51.42,30.26a1,1,0,0,0-.06-.15.64.64,0,0,0,0-.11c-.16-.32-.38-.76-.68-1.26s-.67-1.06-1.09-1.65c-.23-.28-.44-.58-.69-.87-.12-.14-.24-.29-.37-.43l-.39-.42c-.25-.29-.53-.55-.8-.81s-.55-.49-.82-.73-.54-.43-.8-.62a4.61,4.61,0,0,0-.38-.28l-.37-.24c-.24-.15-.45-.3-.65-.41L43.76,22l-.45-.25.4.32.46.36c.17.14.35.32.56.51l.31.29c.11.1.21.22.32.33s.45.46.66.73.45.53.66.82.42.58.62.89l.29.45.27.46c.18.3.33.62.49.91.3.61.55,1.18.74,1.68s.32.91.4,1.2a2.91,2.91,0,0,1,.08.32c0,.08.08.4.08.4Z"/><path class="cls-4" d="M58.28,25l-.08-.1-.14-.16c-.2-.24-.48-.57-.83-.94S56.45,23,56,22.51s-1-.89-1.5-1.31-1.06-.84-1.58-1.21c-.25-.18-.51-.35-.75-.5s-.47-.31-.69-.44c-.43-.26-.8-.46-1.06-.59l-.4-.21.36.28c.22.18.54.45.91.78.19.16.38.34.59.55s.42.4.62.62c.43.45.87.93,1.29,1.44s.81,1,1.17,1.51.66,1,.92,1.38.45.75.59,1l.14.28a2,2,0,0,1,.11.23Z"/></g><path class="cls-5" d="M49.44,9.58S39.59,20.77,17.26,24.33c0,0-11.84,1.92-10.73,5.2s25.1-4.2,32.94-8S57,2.68,49.44,9.58Z"/><path class="cls-6" d="M2,38.2C3.36,46,14,45.34,20,43.73c6.76-1.8,28.76-7.64,42.73-23.16a13.48,13.48,0,0,0,3-5v0a11.47,11.47,0,0,0,.33-1.4s0-.07,0-.11,0-.09,0-.14c0-.32.07-.61.08-.8s0-.07,0-.1v-.09a.42.42,0,0,0,0-.07,10.55,10.55,0,0,0-2.77-7.31,11.35,11.35,0,0,1,.45,2,13.88,13.88,0,0,1-2,9.1c-6.68,3.72-19.28,7.46-25.35,7.85-8.23.52-13,6.92-13,11.5,0,4.4-3.17,5.07-3.43,5.11h0a50.83,50.83,0,0,1-12.63,0A9,9,0,0,1,2,38.2Z"/><path class="cls-2" d="M75.82,6s-6.66,10.77-23.45,16.2-24.74,3.54-26,14.66,11.28,10.56,18,8.75S73.18,38,87.15,22.47c0,0,7.87-7.73-.07-15.92C87.08,6.55,80.25.88,75.82,6Z"/><g class="cls-3"><path class="cls-4" d="M50.51,43.9s0-.06,0-.16,0,0,0-.18c-.06-.37-.15-.9-.28-1.52-.07-.32-.14-.65-.23-1s-.18-.73-.29-1.11-.23-.77-.36-1.17S49,38,48.88,37.56s-.33-.78-.49-1.16-.35-.75-.54-1.1-.37-.68-.57-1-.38-.59-.57-.85l-.53-.67c-.16-.2-.33-.35-.45-.48l-.4-.41s.13.17.33.47a5.85,5.85,0,0,1,.37.53l.41.73c.14.27.27.58.42.9s.26.67.4,1,.23.74.35,1.12.2.78.29,1.18.17.79.23,1.18.12.78.16,1.16.09.74.12,1.09.05.67.07,1c0,.6,0,1.11,0,1.45,0,.17,0,.31,0,.4s0,.4,0,.4Z"/><path class="cls-4" d="M58.38,41.17s0-.06,0-.16,0,.08,0-.11c-.06-.38-.15-.91-.31-1.53-.07-.32-.17-.65-.28-1s-.23-.72-.36-1.09-.29-.76-.47-1.14l-.26-.57c-.09-.19-.19-.37-.29-.56-.19-.38-.41-.74-.62-1.09s-.46-.68-.68-1a10.49,10.49,0,0,0-.69-.89l-.33-.4-.33-.35c-.22-.22-.41-.43-.59-.6l-.49-.44c-.26-.24-.42-.37-.42-.37l.36.43.41.5c.15.19.3.43.48.68l.27.39c.09.14.17.29.26.44a9.41,9.41,0,0,1,.52,1,11.23,11.23,0,0,1,.49,1c.15.37.31.73.43,1.11.06.19.13.38.19.57l.15.57c.12.37.18.75.27,1.11s.13.72.18,1.05.09.65.11.94c0,.59.06,1.07.06,1.4a3.45,3.45,0,0,1,0,.37c0,.09,0,.51,0,.51Z"/><path class="cls-4" d="M66.8,37.43s0-.06,0-.15,0,0,0-.12c-.1-.35-.26-.83-.48-1.39-.1-.28-.22-.59-.36-.9s-.28-.65-.43-1-.33-.69-.52-1-.37-.7-.58-1-.41-.68-.63-1l-.32-.48-.33-.45-.33-.44-.33-.4a7.68,7.68,0,0,0-.62-.72l-.55-.59-.45-.42-.39-.36.33.42c.1.13.22.3.37.48l.44.66c.16.24.32.51.49.8l.25.44.24.47.25.48c.07.17.15.34.23.51.16.34.3.7.43,1.05s.27.72.39,1.07.22.71.32,1,.19.67.26,1,.14.61.2.89c.11.55.18,1,.22,1.33,0,.16,0,.28,0,.36s0,.42,0,.42Z"/><path class="cls-4" d="M75.87,32.16,75.8,32c0-.1,0,.05,0-.11s-.38-.75-.68-1.25A18.62,18.62,0,0,0,74,29c-.22-.29-.44-.59-.69-.87l-.36-.44-.39-.42c-.26-.28-.53-.55-.8-.81s-.56-.49-.82-.72-.55-.43-.81-.63l-.38-.28-.37-.24-.64-.41-.52-.28-.45-.24.4.31.46.37c.17.14.35.32.56.5l.31.29.32.33c.22.24.45.47.66.74s.45.52.66.82.43.57.62.88l.29.45.27.47a10.11,10.11,0,0,1,.49.91c.3.6.55,1.17.74,1.67s.32.91.4,1.2.07.26.09.32.07.4.07.4Z"/><path class="cls-4" d="M82.72,26.87l-.08-.1-.14-.17c-.19-.23-.48-.56-.83-.94s-.77-.8-1.24-1.24-1-.9-1.49-1.32-1.07-.84-1.58-1.2c-.26-.19-.52-.35-.76-.51s-.47-.31-.69-.43c-.43-.26-.79-.46-1-.6l-.41-.21.36.29c.23.18.55.44.91.77.19.17.39.35.59.55s.42.4.63.63c.42.44.86.93,1.28,1.43s.81,1,1.17,1.51.67,1,.92,1.38.46.76.59,1,.11.21.15.27l.1.23Z"/></g><path class="cls-5" d="M73.88,11.48S64,22.67,41.7,26.23c0,0-11.84,1.93-10.73,5.2s25.11-4.2,32.94-7.95S81.43,4.58,73.88,11.48Z"/><path class="cls-6" d="M31.83,43a51.85,51.85,0,0,0,30.91-5.82,57,57,0,0,0,11.87-8c2.28-2.09,5.09-3.49,7.38-5.55,4.08-3.68,7.07-8.49,6.31-14.21a11.35,11.35,0,0,0-.45-2c6.63,7.86-.7,15.07-.7,15.07-14,15.53-36,21.36-42.73,23.16-6,1.61-16.64,2.24-18-5.53A9,9,0,0,0,31.83,43Z"/></g></g></svg>