<svg xmlns="http://www.w3.org/2000/svg" viewBox="0 0 183.95 76.54"><defs><style>.cls-1{isolation:isolate;}.cls-2{fill:#d9d9d9;}.cls-3{fill:#f3f3f3;}.cls-4{fill:#eae9e9;}.cls-5{fill:#fff;}.cls-10,.cls-11,.cls-12,.cls-5,.cls-6,.cls-7,.cls-9{fill-rule:evenodd;}.cls-6{fill:#f8f4f2;}.cls-7{fill:#e8e1de;}.cls-8{fill:#f7a900;}.cls-9{fill:#f49d00;}.cls-10{fill:#f18a00;}.cls-11{fill:#fcc200;}.cls-12{fill:#fbf7cc;}.cls-13{fill:#d64141;}.cls-14{opacity:0.3;}.cls-15{fill:#8f4b33;}.cls-16{fill:#ea6060;}.cls-17{fill:#332f33;opacity:0.15;mix-blend-mode:multiply;}.cls-18{fill:#2b3f1f;}.cls-19{fill:#698a46;stroke:#698a46;}.cls-19,.cls-20{stroke-miterlimit:10;stroke-width:1.45px;}.cls-20{fill:#74b250;stroke:#74b250;}.cls-21{fill:#c1ea86;}</style></defs><g class="cls-1"><g id="Layer_1" data-name="Layer 1"><path class="cls-2" d="M184,39.43c0,19.73-40.34,35.71-90.09,35.71S3.77,59.16,3.77,39.43,44.11,3.72,93.86,3.72,184,19.71,184,39.43Z"/><ellipse class="cls-3" cx="93.86" cy="37.64" rx="90.09" ry="35.71"/><path class="cls-4" d="M155.3,34c0,13.45-27.5,24.36-61.44,24.36S32.42,47.41,32.42,34,59.93,9.61,93.86,9.61,155.3,20.51,155.3,34Z"/><path class="cls-3" d="M153.17,34.41c0,12.76-26.55,23.11-59.31,23.11s-59.3-10.35-59.3-23.11S61.11,11.3,93.86,11.3,153.17,21.64,153.17,34.41Z"/><path class="cls-5" d="M115.23,44.37c-4-2.46-17.06-4.06-16.92-8.23a7.41,7.41,0,0,1,.07-.8,20.91,20.91,0,0,1,1.34-4.19c1.12-2.84,2.21-5.63.29-7.5a4.5,4.5,0,0,0-.6-.48L99.19,23a7,7,0,0,0-.61-.34l-.26-.13c-.3-.15-.63-.29-1-.43L97,22l-.88-.31-.49-.15-.91-.27-.48-.13c-.42-.12-.85-.23-1.3-.34l.13,0c-15.22-3.68-48.28-4.77-47.06-1,.5,1.51,4.86,3.37,3.48,4.33S32.46,25.74,19.8,28h0l-1.73.32-.61.12c-.39.08-.77.15-1.15.24l-.67.14L14.6,29l-.63.16-1.14.29-.44.12c-.5.14-1,.29-1.45.44l-.4.13-1,.34-.47.18-.8.33-.44.2c-.27.12-.52.25-.77.38l-.31.17a8.2,8.2,0,0,0-.93.57l-.14.11a6.6,6.6,0,0,0-.63.5l-.21.22a5.34,5.34,0,0,0-.39.44l-.17.24a3.77,3.77,0,0,0-.26.48c0,.08-.07.15-.1.23a3.08,3.08,0,0,0-.16.73c-.12,1.93,1,3.74,2.73,5.28a17.06,17.06,0,0,0,2.2,1.69A24.21,24.21,0,0,0,16,45.53a28,28,0,0,0,3.16.37c2.2.16,4.94.25,7.3.36,2.76.12,4.39.81,5.48,1.78l.08.07c1.42,1.32,1.88,3.14,2.72,4.77.09.17.18.34.28.51s.26.42.41.63c1,1.29,2.44,2.32,5.32,2.67a17.27,17.27,0,0,0,2.13.12c1.58,0,3.72.1,6.1.24l4.24.3,2.17.19c4.35.39,8.55.89,11,1.39a11.68,11.68,0,0,1,1.44.37c.35.12.55.24.6.35a.17.17,0,0,1,0,.12,2.53,2.53,0,0,0-.38.75.52.52,0,0,0,0,.28c.18.32.87.53,2.69.55h.53l1.2,0,.78,0,2.5-.17,2.07-.18,2.39-.24c4.28-.45,8.25-1,11.86-1.6,1.44-.25,2.83-.5,4.15-.77.66-.13,1.31-.26,1.94-.4,1.88-.41,3.63-.83,5.21-1.27a45.56,45.56,0,0,0,6.55-2.27,16.59,16.59,0,0,0,2.86-1.63,13.74,13.74,0,0,0,1.59-1.29c.24-.22.47-.45.68-.68a9.48,9.48,0,0,0,1.07-1.4c.14-.24.26-.47.37-.71a4.06,4.06,0,0,0,.37-1.38A3,3,0,0,0,115.23,44.37Z"/><path class="cls-6" d="M42.91,56.81c7.21,0,26.21,1.75,25.49,3s-1.86,2.34,11.82.91,24.26-3.84,29.71-6.31,9.3-7.54,5.3-10-17.06-4.06-16.92-8.23,4.77-9.49,1.7-12.49l-.3-.27h0c-.11-.09-.23-.17-.36-.26h0a4.06,4.06,0,0,0-.41-.25l0,0-.44-.23-.06,0-.47-.22-.1,0-.48-.2-.13-.05-.48-.18-.19-.06c-.15-.06-.32-.11-.48-.16l-.25-.08-.46-.14-.33-.1-.41-.12-.39-.1-.4-.11-.49-.12L93,20.84c1.37.35,6.41,1.9,6.27,5.49-.16,4.15-9,8.07-9.51,11.5s9.51,4.08,16.78,6,5.2,8.88-10.55,12.86S72.8,60.25,71.48,59.81s5-1.84,1.84-2.2S55.66,57.13,51.26,56,37,55.45,36.72,52.1s1.44-7-6.39-8.23-15.11-2.4-20.14-5-3.76-8,9.62-10.94l-.81.14-.25.05L18,28.3l-.18,0L17,28.5l-.17,0-.74.16-.16,0-.81.18-.14,0-.71.16-.18,0-.76.19-.1,0-.71.19-.14,0-.7.2-.12,0-.66.2-.13,0-.67.23,0,0-.66.23-.1,0-.59.23-.07,0-.6.26-.07,0-.55.26,0,0-.53.28-.07,0c-.15.08-.31.17-.46.27l0,0-.45.29,0,0-.39.3,0,0A3.73,3.73,0,0,0,5,33l0,0c-.11.1-.21.21-.31.32l0,0a4,4,0,0,0-.27.34v0a3.26,3.26,0,0,0-.22.34l0,0a3.76,3.76,0,0,0-.16.37H4c0,.12-.08.25-.11.37v0a2.63,2.63,0,0,0-.06.39C3.46,40.44,12.22,44.7,16,45.53a98.1,98.1,0,0,0,10.46.73C37.78,46.76,30.33,56.75,42.91,56.81Z"/><path class="cls-7" d="M7.39,31.44c-2.17,1.08-3.51,2.35-3.61,3.86C3.46,40.44,12.22,44.7,16,45.53a98.1,98.1,0,0,0,10.46.73c11.29.5,3.84,10.49,16.42,10.55l1.05,0c-10.65-1.71-9.48-6.76-9.41-8.07s-.27-2-2.89-2.75-10-.79-16-1.58S5.11,39.07,4.58,36.11,7.28,31.49,7.39,31.44Z"/><path class="cls-7" d="M42.91,56.81c.62,0,1.32,0,2.09,0-2-.09-3.38-.14-3.76-.12C41.75,56.78,42.31,56.81,42.91,56.81Zm6.88.29c8.39.55,19.16,1.76,18.61,2.67-.73,1.21-1.86,2.34,11.82.91s24.26-3.84,29.71-6.31,9.3-7.54,5.3-10-17.06-4.06-16.92-8.23,4.77-9.49,1.7-12.49a3.89,3.89,0,0,0-.47-.39c.5.39,1.7,1.7.53,4.62-1.44,3.61-5.17,6.56-5.24,8.92s3,2.55,4.2,2.88,15,3.2,15.93,6.62-2.23,6.36-5.9,7.87S90.76,59,84.63,59.74s-14.88,2.33-15.07.89.91-1.31-.66-2C67.89,58.24,57.55,57.53,49.79,57.1Z"/><ellipse class="cls-8" cx="67.77" cy="37.91" rx="17.26" ry="10.31"/><path class="cls-9" d="M71.83,27.89C79.4,29,85,33.05,85,37.91c0,5.69-7.73,10.31-17.26,10.31S50.51,43.6,50.51,37.91c0-3.66,3.19-6.87,8-8.7C40.9,36.64,63.4,49.75,77.68,41.67,84.62,37.74,81.88,30,71.83,27.89Z"/><path class="cls-10" d="M83.05,33.12a7.24,7.24,0,0,1,2,4.79c0,5.69-7.73,10.31-17.26,10.31S50.51,43.6,50.51,37.91A6.42,6.42,0,0,1,50.8,36c0,.11-.61,7.79,10.81,10.48S88.42,43.46,83.05,33.12Z"/><path class="cls-11" d="M64.33,28.76s-8.66,1.57-10.07,5.52,3.44,6.55,9.75,7,2.24-4.8,5.91-5.83C82.23,32,72.39,27.83,64.33,28.76Z"/><path class="cls-12" d="M62,29.82S58,30.88,57.18,32.18s1.06,1.56,2.24.92a38.48,38.48,0,0,1,4-2.08C64.27,30.76,65.75,29.08,62,29.82Z"/><path class="cls-12" d="M63.83,31.66c-.84.56-2,1-1.44,1.56C63.75,34.62,68.43,29.06,63.83,31.66Z"/><path class="cls-13" d="M130.31,10.38S123,22.22,104.54,28.19,77.35,32.08,76,44.3s12.39,11.61,19.83,9.62,31.6-8.39,47-25.45c0,0,8.65-8.5-.08-17.51C142.69,11,135.18,4.74,130.31,10.38Z"/><g class="cls-14"><path class="cls-15" d="M102.5,52l0-.18a1.88,1.88,0,0,0,0-.2c-.06-.41-.16-1-.31-1.67-.07-.35-.15-.72-.25-1.11s-.2-.8-.32-1.22-.25-.85-.39-1.28-.31-.87-.47-1.31-.35-.86-.53-1.28-.39-.82-.6-1.2-.4-.75-.62-1.09-.42-.65-.63-.92l-.58-.74c-.17-.22-.36-.38-.49-.53l-.44-.45.36.51c.11.17.27.35.4.59l.46.8c.15.3.3.64.46,1s.28.74.44,1.13.25.82.38,1.23.22.86.32,1.29.19.87.25,1.31.14.86.18,1.27.1.81.13,1.19,0,.74.07,1.07c0,.67,0,1.22,0,1.6,0,.19,0,.33,0,.43s0,.45,0,.45Z"/><path class="cls-15" d="M111.14,49a1.06,1.06,0,0,0,0-.17c0-.13,0,.09,0-.12-.07-.42-.17-1-.35-1.69-.08-.34-.19-.71-.3-1.1s-.26-.78-.4-1.19-.32-.84-.52-1.25l-.28-.63c-.1-.21-.22-.41-.32-.62-.21-.41-.45-.81-.69-1.19a12.59,12.59,0,0,0-.74-1.11,11,11,0,0,0-.76-1l-.36-.44-.37-.38c-.24-.25-.44-.48-.64-.67l-.54-.48-.46-.41.39.48.45.55c.17.21.34.47.53.75s.19.28.3.42.18.32.28.48a11.51,11.51,0,0,1,.58,1.05c.18.37.38.75.54,1.16s.33.8.46,1.22c.07.21.15.41.21.62s.12.42.17.63c.13.41.2.82.3,1.22s.14.78.19,1.15.1.72.12,1c.06.64.07,1.17.07,1.54,0,.18,0,.32,0,.4s0,.56,0,.56Z"/><path class="cls-15" d="M120.4,44.91s0-.07,0-.17,0,0,0-.13c-.12-.38-.29-.91-.53-1.53-.11-.31-.25-.64-.4-1s-.31-.71-.48-1.09-.36-.75-.56-1.13-.41-.77-.64-1.14-.45-.75-.69-1.11c-.12-.17-.24-.35-.35-.53l-.37-.5-.36-.48-.36-.44c-.24-.29-.46-.56-.69-.79l-.6-.64-.49-.47c-.28-.25-.43-.4-.43-.4l.36.47c.11.15.25.32.4.53l.49.72c.18.26.35.56.53.88.09.15.19.31.28.48l.27.52.27.53c.08.19.17.37.25.56.18.38.33.76.48,1.16s.29.78.43,1.17.24.78.35,1.15.21.74.28,1.09.16.67.22,1c.12.61.2,1.12.25,1.47,0,.18,0,.31,0,.39s0,.47,0,.47Z"/><path class="cls-15" d="M130.37,39.11l-.08-.16c0-.11,0,0,0-.12-.17-.35-.42-.83-.75-1.38a20.83,20.83,0,0,0-1.2-1.81c-.24-.32-.48-.65-.75-1l-.41-.48-.42-.46c-.28-.31-.59-.6-.88-.89s-.61-.54-.91-.8-.6-.47-.88-.69l-.41-.3-.41-.26c-.26-.17-.49-.33-.71-.45l-.57-.31-.49-.27.44.35.5.39c.19.16.39.36.61.56l.35.32c.12.11.23.24.35.36s.49.51.73.81.49.58.72.9.47.63.68,1l.32.5.3.51c.2.33.37.68.54,1,.33.66.6,1.29.81,1.84s.35,1,.44,1.32c0,.16.08.28.09.35l.09.44Z"/><path class="cls-15" d="M137.9,33.3l-.09-.11-.15-.19c-.22-.26-.53-.62-.92-1s-.85-.88-1.35-1.37-1.07-1-1.65-1.45-1.17-.92-1.74-1.32c-.28-.2-.56-.38-.83-.55s-.51-.34-.75-.48c-.48-.29-.88-.5-1.16-.65l-.45-.24.39.32c.25.2.61.48,1,.85.2.18.42.38.64.6s.46.44.69.69c.47.49,1,1,1.41,1.58s.89,1.12,1.29,1.66.73,1.06,1,1.51.5.83.65,1.1l.16.3.12.25Z"/></g><path class="cls-16" d="M128.18,16.39S117.36,28.68,92.81,32.6c0,0-13,2.11-11.79,5.72s27.59-4.63,36.21-8.74S136.47,8.81,128.18,16.39Z"/><path class="cls-17" d="M76.07,47.84c1.47,8.53,13.13,7.85,19.76,6.08,7.43-2,31.6-8.4,47-25.45a14.79,14.79,0,0,0,3.28-5.54,0,0,0,0,0,0,0,10.07,10.07,0,0,0,.37-1.53.5.5,0,0,0,0-.12,1,1,0,0,0,0-.16c0-.35.08-.67.1-.88v-.1s0-.08,0-.1v-.09a11.58,11.58,0,0,0-3-8,13.25,13.25,0,0,1,.5,2.21,15.24,15.24,0,0,1-2.21,10c-7.34,4.1-21.18,8.2-27.86,8.63-9,.58-14.33,7.6-14.34,12.64,0,4.84-3.48,5.57-3.77,5.62h0A56,56,0,0,1,82,51,9.9,9.9,0,0,1,76.07,47.84Z"/><path class="cls-13" d="M157.18,12.47s-7.32,11.84-25.78,17.81-27.18,3.89-28.56,16.11S115.24,58,122.67,56s31.6-8.39,47-25.45c0,0,8.65-8.5-.07-17.5C169.56,13.06,162,6.83,157.18,12.47Z"/><g class="cls-14"><path class="cls-15" d="M129.36,54.11s0-.06,0-.17,0,0,0-.21c-.06-.41-.16-1-.3-1.67-.08-.34-.15-.72-.25-1.1s-.2-.8-.33-1.22-.25-.85-.39-1.29-.31-.87-.47-1.31-.35-.86-.53-1.28-.38-.82-.59-1.2-.41-.75-.63-1.08-.42-.65-.62-.93l-.59-.74c-.17-.22-.36-.38-.49-.53l-.44-.45.37.51c.11.17.26.35.4.59s.28.51.45.8.3.64.46,1,.29.74.44,1.12.25.82.38,1.23.22.86.32,1.3.19.87.25,1.3.14.86.19,1.27.09.82.12,1.2,0,.74.08,1.07c0,.66,0,1.21,0,1.59v.43l0,.45Z"/><path class="cls-15" d="M138,51.1s0-.06,0-.17,0,.09,0-.12c-.07-.41-.17-1-.34-1.69-.08-.34-.19-.71-.31-1.09s-.26-.79-.4-1.2-.31-.83-.51-1.25l-.29-.63-.32-.61c-.2-.42-.45-.81-.68-1.2s-.5-.75-.74-1.11-.52-.67-.76-1a5.7,5.7,0,0,0-.37-.44l-.36-.39c-.24-.25-.45-.48-.65-.67l-.53-.47-.47-.42.4.48.45.55c.17.21.33.48.52.75s.2.28.3.43.19.31.28.47c.19.34.41.67.58,1s.39.75.54,1.16a12.75,12.75,0,0,1,.46,1.22c.07.21.15.41.21.62l.18.63c.12.41.19.83.29,1.22s.15.79.2,1.15.09.72.12,1c.06.64.07,1.18.07,1.54,0,.19,0,.32,0,.41s0,.55,0,.55Z"/><path class="cls-15" d="M147.27,47l-.05-.17a.63.63,0,0,0,0-.13c-.12-.38-.29-.91-.53-1.53-.11-.31-.25-.64-.39-1s-.32-.71-.48-1.09-.37-.75-.57-1.13-.41-.77-.64-1.14-.44-.75-.69-1.1c-.12-.18-.23-.36-.35-.53l-.37-.51-.35-.48-.37-.44a9.25,9.25,0,0,0-.68-.79l-.6-.64-.5-.46-.43-.41.36.47.41.53.48.73a9.46,9.46,0,0,1,.54.87c.09.15.18.32.28.48s.17.34.26.52l.27.53c.09.19.17.38.26.56.17.38.33.77.48,1.16s.28.78.42,1.17.24.78.35,1.15.21.74.29,1.09.15.67.21,1c.13.6.2,1.11.25,1.46,0,.18,0,.31,0,.4s0,.46,0,.46Z"/><path class="cls-15" d="M157.23,41.21l-.07-.17c0-.11,0,.05-.06-.12-.17-.35-.41-.83-.74-1.38s-.74-1.17-1.21-1.81c-.24-.31-.48-.65-.75-1l-.4-.48-.43-.46c-.28-.31-.58-.6-.88-.88s-.61-.55-.9-.8a10.7,10.7,0,0,0-.89-.69c-.14-.11-.27-.22-.41-.31l-.41-.26c-.26-.17-.49-.33-.71-.45l-.57-.31-.49-.27.44.35.5.4c.19.15.39.35.62.55l.34.32.35.37a9.52,9.52,0,0,1,.73.8c.24.29.5.58.72.9s.47.64.68,1l.32.5.3.51c.2.33.37.68.54,1a18,18,0,0,1,.81,1.84c.21.54.35,1,.44,1.32.05.16.08.28.1.35s.08.44.08.44Z"/><path class="cls-15" d="M164.76,35.39l-.09-.11-.15-.19c-.22-.25-.52-.61-.91-1s-.85-.88-1.36-1.36-1.07-1-1.65-1.45-1.17-.93-1.74-1.32c-.27-.21-.56-.39-.82-.56s-.52-.34-.76-.48c-.47-.28-.88-.5-1.16-.65l-.45-.24.4.32c.25.2.6.49,1,.86a8.42,8.42,0,0,1,.64.59c.23.22.47.44.7.69.47.49,1,1,1.4,1.58s.9,1.12,1.29,1.66.73,1.07,1,1.52.5.83.65,1.09l.16.3c0,.07.12.25.12.25Z"/></g><path class="cls-16" d="M155,18.48s-10.81,12.29-35.36,16.21c0,0-13,2.12-11.79,5.72s27.59-4.62,36.2-8.74S163.34,10.9,155,18.48Z"/><path class="cls-17" d="M108.83,53.08a57.09,57.09,0,0,0,34-6.4,61.82,61.82,0,0,0,13-8.77c2.51-2.29,5.6-3.82,8.12-6.09,4.49-4,7.77-9.33,6.94-15.62a13.48,13.48,0,0,0-.5-2.21c7.29,8.65-.77,16.57-.77,16.57C154.27,47.62,130.1,54,122.67,56c-6.63,1.77-18.29,2.46-19.76-6.08A9.9,9.9,0,0,0,108.83,53.08Z"/><path class="cls-18" d="M96.38,22.53c-.71,2.06-1.5,4-2.13,6-.74,2.39-2.11,3.7-4.7,5-1.16.58-2.28,1.21-3.44,1.84-.67.36-3.23,1.08-3.36,1.82a.36.36,0,0,0-.17.2c1.45.29,4.31-1.36,5.69-2l4.22-2.15c5.3-2.74,11.21,2.45,16,3.4,1.39.27,4,.85,1.34-1.15a16.94,16.94,0,0,0-3.32-1.34c-1.52-.64-8.43-1.54-7.72-3.19.33-.76,3.52-1.08,4.48-1a8.64,8.64,0,0,1,4.47,1.74c2,1.5,3.54,2.81,6,3.7.9.32,3.77.34,4.14-.23.23-.37-2.63-2-3.41-2.44-2.13-1.22-4.65-1.86-6.92-2.91-.86-.4-5.83-1.5-1.83-2.32a14,14,0,0,1,3.06-.64c4.65.35,13.08,7.72,13.77,6.33,1-2-11.06-7.17-11.19-7.6-.39-1.3,2.69-.85,3.46-.75a34.08,34.08,0,0,0,5.45.14c2.34,0,5.06-.42,7-1.8,4-2.85-1.44-3.23-4.11-2.51-2.06.56-10.42,3.56-12.56,3-.72-.2.06-1.24.93-2.31.39-.49,7.06-7.73,5.24-7.61-3.54.79-6.51,8.76-9.66,11.14-.63.47-4.36,2.57-5,1.62-.52-.79,2-3.13,2.52-3.74.92-1.15,3.54-5.36,3.54-6.28,0-2.4-4.49,3.39-4.93,4.22a36.4,36.4,0,0,1-3.85,6.39c-.34.42-1.78,2.52-2.62,1.85s.07-2.87.44-3.4c.87-1.24,2.08-4.72,1.86-6.44C98.76,16.87,96.72,21.56,96.38,22.53Z"/><path class="cls-19" d="M96.36,21.27c-.72,2.07-1.51,4-2.14,6-.74,2.39-2.11,3.7-4.7,5-1.16.59-2.27,1.22-3.44,1.84-.67.36-3.23,1.09-3.36,1.82a.36.36,0,0,0-.17.2c1.45.29,4.31-1.36,5.69-2L92.46,32c5.31-2.75,11.21,2.44,16,3.39,1.39.27,4,.85,1.34-1.15a16.94,16.94,0,0,0-3.32-1.34c-1.52-.64-8.43-1.54-7.72-3.18.33-.77,3.52-1.09,4.48-1a8.64,8.64,0,0,1,4.47,1.74c2,1.5,3.54,2.82,6,3.7.9.32,3.77.34,4.14-.23.23-.37-2.63-2-3.41-2.44-2.13-1.21-4.65-1.86-6.92-2.91-.85-.4-5.83-1.49-1.83-2.32a13.32,13.32,0,0,1,3.06-.63c4.65.34,13.08,7.71,13.77,6.32,1-2-11.06-7.17-11.19-7.6-.39-1.3,2.69-.85,3.46-.75a34.08,34.08,0,0,0,5.45.14c2.34,0,5.06-.42,7-1.8,4-2.85-1.44-3.23-4.1-2.51-2.07.56-10.43,3.56-12.57,3-.72-.2.06-1.24.93-2.31.39-.49,7.06-7.73,5.24-7.61-3.54.79-6.51,8.76-9.66,11.14-.63.47-4.36,2.57-5,1.62-.52-.79,2-3.13,2.52-3.74.92-1.15,3.54-5.36,3.54-6.28,0-2.4-4.49,3.39-4.93,4.23a36.69,36.69,0,0,1-3.85,6.38c-.34.43-1.78,2.52-2.62,1.85s.07-2.87.44-3.4c.87-1.24,2.08-4.71,1.86-6.44C98.73,15.61,96.69,20.31,96.36,21.27Z"/><path class="cls-18" d="M82.18,25.35c.45,1.92.74,3.73,1.26,5.63.6,2.2,0,3.69-1.72,5.55-.79.83-1.49,1.69-2.25,2.56-.44.5-3.41,2-2.24,2.73,2,1.43,3.33-2.42,4.29-3.36l2.83-3c3.52-3.87,11.94-1.35,17-2,1.46-.19,2.53-.84.64-1.35A19.88,19.88,0,0,0,98.1,32c-1.78-.07-8.81,1.26-9-.31-.1-.73,2.74-2,3.72-2.14a11.42,11.42,0,0,1,5.17.09,34.56,34.56,0,0,0,8.08,1.1c1,0,2.58,0,2.14-1.13-.33-.85-2.32-1-3.3-1.14-2.67-.36-5.41-.14-8.12-.32-1-.07-6.33.51-3-1.37a11.75,11.75,0,0,1,2.54-1.45c4.59-1.11,6.35,1,9.8,1.23,1.2.08,7.51,1.15,6.66-.14-1.11-1.69-14.35-2.6-14.71-2.92-1.08-1,2.67-2.1,3.45-2.25,2-.37,8.16-3.53,9.61-5.05,3.6-3.77-1.65-1.55-4.41-.44a28.65,28.65,0,0,0-7.45,4.5c-.77.66-4.33,4.27-3.39-.33.1-.52,2.61-7.08,1.46-7.8-3.92,2.26-2,9.13-3.72,12-.34.58-2.72,3.43-3.83,2.84-.92-.5.22-3.21.35-3.86.25-1.22.43-5.49-.06-6.25-1.31-2-2.41,4.15-2.37,5a25.22,25.22,0,0,1-.17,6.44c-.09.46-.31,2.62-1.48,2.32s-1.49-2.4-1.43-2.94a10.45,10.45,0,0,0-1.74-5.89C81.35,20,82,24.44,82.18,25.35Z"/><path class="cls-20" d="M81.4,24.26c.45,1.92.74,3.73,1.27,5.63.6,2.2,0,3.69-1.73,5.55-.78.83-1.49,1.69-2.25,2.55-.44.51-3.41,2-2.24,2.74,2,1.43,3.34-2.42,4.3-3.36l2.82-3c3.53-3.87,11.94-1.35,17-2,1.46-.19,2.54-.84.64-1.35a19.78,19.78,0,0,0-3.86-.11c-1.79-.07-8.81,1.26-9-.31-.1-.73,2.74-2,3.72-2.14a11.47,11.47,0,0,1,5.18.09,34.55,34.55,0,0,0,8.07,1.1c1,0,2.58,0,2.15-1.13-.33-.85-2.32-1-3.3-1.14C101.44,27,98.69,27.19,96,27c-1-.07-6.33.51-3-1.37a12,12,0,0,1,2.54-1.45c4.59-1.11,6.35,1,9.81,1.23,1.19.08,7.51,1.15,6.66-.14-1.12-1.69-14.35-2.6-14.72-2.92-1.07-1,2.67-2.1,3.46-2.25,2-.37,8.15-3.53,9.6-5,3.6-3.77-1.64-1.55-4.4-.44a28.49,28.49,0,0,0-7.45,4.5c-.78.66-4.34,4.27-3.4-.33.11-.52,2.62-7.08,1.46-7.8-3.92,2.26-2,9.13-3.72,12-.33.58-2.72,3.43-3.82,2.84-.93-.5.22-3.21.35-3.86.24-1.22.43-5.49-.07-6.25-1.3-2-2.41,4.15-2.37,5a24.34,24.34,0,0,1-.17,6.44c-.09.46-.31,2.62-1.47,2.32s-1.49-2.4-1.43-2.94a10.54,10.54,0,0,0-1.75-5.89C80.57,18.86,81.19,23.35,81.4,24.26Z"/><path class="cls-21" d="M77.66,40.73c.51-.23,1-1.28,1.36-1.65.46-.53.63-1.18,1.12-1.68,1-1.08,2-2.16,3.06-3.23,2.13-2.24,4.53-4.32,6.84-6.44s4.41-3.95,6.8-5.78a84.85,84.85,0,0,1,7.76-5.15,38.22,38.22,0,0,1,5.4-2.89c.15-.06,1.31-.57,1.26-.66a5.84,5.84,0,0,0-1.43.41A47.76,47.76,0,0,0,102,17.89a75.13,75.13,0,0,0-7.48,5.32c-2.33,1.9-4.52,3.92-6.69,5.94-1.14,1.06-2.33,2.09-3.45,3.17s-2.08,2.14-3.1,3.23L79.21,37.7c-.57.61-1.8,1.61-2.35,2.23C76.65,40.16,77.66,40.73,77.66,40.73Z"/><path class="cls-21" d="M83.12,34c.48-.12.53-.71.6-1,.11-.57.14-1.14.21-1.71a13.12,13.12,0,0,0-1.84-6.83c-.17-.23.59,1.68.73,2.23A14.34,14.34,0,0,1,83.44,31c0,.46-.08.94-.14,1.4q0,.38-.12.75c0,.11-.38,1-.06.94Z"/><path class="cls-21" d="M85.46,31.77a15.82,15.82,0,0,0,2.58.14c.33,0,3.71-.21,3.37-.2-.82,0-5-.24-5.79-.35-.32,0-.49.37-.16.41Z"/><path class="cls-21" d="M89.74,28.14a20.28,20.28,0,0,1,2-.25c.33,0,3.17-.51,2.83-.48-.72.08-4.25.17-5,.32-.33.07-.22.48.1.41Z"/><path class="cls-21" d="M88.18,29.45a7.61,7.61,0,0,0-.38-5.36c-.13-.25,0,.8,0,1.3a7.78,7.78,0,0,1-.13,3.95c-.12.27.38.37.49.11Z"/><path class="cls-21" d="M93.5,24.62a17.22,17.22,0,0,0,.9-5.69c0-.27-.37,1.16-.35,1.43a10.22,10.22,0,0,1-1,4.16c-.11.26.39.37.49.1Z"/><path class="cls-21" d="M95,23.48c.89.08,1.8-.18,2.68,0a11.88,11.88,0,0,0,2,.12,10.36,10.36,0,0,0-1.83-.39C97,23,96,23.13,95.07,23.05a.22.22,0,1,0,0,.43Z"/></g></g></svg>