<svg xmlns="http://www.w3.org/2000/svg" viewBox="0 0 184.15 78.84"><defs><style>.cls-1{isolation:isolate;}.cls-2{fill:#d9d9d9;}.cls-3{fill:#f3f3f3;}.cls-4{fill:#eae9e9;}.cls-5{fill:#995d24;}.cls-6{fill:#84491c;}.cls-7{fill:#e1924a;}.cls-8{fill:#d6a150;}.cls-9{fill:#cba669;}.cls-10{fill:#f5c97e;}.cls-11{fill:#e1b257;}.cls-12{fill:#d64141;}.cls-13{opacity:0.3;}.cls-14{fill:#8f4b33;}.cls-15{fill:#ea6060;}.cls-16{fill:#332f33;opacity:0.15;mix-blend-mode:multiply;}</style></defs><g class="cls-1"><g id="Layer_1" data-name="Layer 1"><path class="cls-2" d="M184.15,41.39c0,19.72-40.33,35.71-90.09,35.71S4,61.11,4,41.39,44.31,5.68,94.06,5.68,184.15,21.67,184.15,41.39Z"/><ellipse class="cls-3" cx="94.06" cy="39.59" rx="90.09" ry="35.71"/><path class="cls-4" d="M155.5,35.92c0,13.45-27.5,24.35-61.44,24.35S32.62,49.37,32.62,35.92,60.13,11.56,94.06,11.56,155.5,22.46,155.5,35.92Z"/><path class="cls-3" d="M153.37,36.36c0,12.76-26.55,23.11-59.31,23.11s-59.3-10.35-59.3-23.11,26.55-23.11,59.3-23.11S153.37,23.6,153.37,36.36Z"/><path class="cls-5" d="M108,11.33c4.1,0,33.6,3.64,47.19,9.74,4.37,2,2.15,10.48,1.36,12.06-2.28,4.55-59.06,23-58.73,25.35S99,67.65,90.2,71.72c-8.26,3.81-26.08,6-49-11C30.54,52.78,23.6,30.17,34.87,24.53c9.5-4.74,17.83,6.47,22.57,4.78S100.18,11.33,108,11.33Z"/><path class="cls-6" d="M91.34,64c-.9-.71-2.38-.3-3.13-1.24-.88-1.12,0-2.06-1.24-3-2.44-1.87-5.24-1.47-8-1.62a12.69,12.69,0,0,1-9-4.08,47.56,47.56,0,0,0-11.51-8.93c-2.8-1.51-5.74-2.81-8.66-4-2.16-.9-4.59-1.52-6.71-2.52-3.44-1.61-4.25-6.08-6.29-8.94-1.36-1.9-2.51-3.1-4.05-3.69C24.29,33.13,31,53.42,41,60.84c22.92,17,40.73,14.82,49,11a19.8,19.8,0,0,0,1.85-1l0-.39C91.64,68.73,92.89,65.22,91.34,64Z"/><path class="cls-7" d="M105.11,2.44c6.15,0,53.25,14.92,50.88,19.67-2.28,4.55-61.39,25.1-61.05,27.47s4.41,7.8-4.41,11.87c-8.26,3.82-30.18,6.11-50.2-11.53-9.06-8-14.32-21.84-3-27.47,9.5-4.75,12.55-.34,17.3-2S97.31,2.44,105.11,2.44Z"/><path class="cls-8" d="M104.22,4.18c5.7,0,49.69,13.25,47.48,17.64C149.59,26,92,46.16,92.31,48.35S97,55.9,88.84,59.66C81.17,63.18,62.21,65.34,43.62,49c-8.42-7.38-15-20-4.52-25.26,8.82-4.39,13.34-.45,17.75-2S97,4.18,104.22,4.18Z"/><path class="cls-5" d="M131,35.86c-2.87,1-5.3,2.77-8.14,3.75-3.28,1.14-6.83,1.7-10,2.94-2.76,1.08-5.32,2.24-8.08,3.41-1.82.77-7,3.1-7.9,2.94l-.21.7c-.42.82.72,4,1.75,4.62,2.05,1.33,3-.25,4.46-1.51,3.69-3.21,7.69-4.57,12.48-6.34s9.63-3.8,14.46-5.24C134,39.91,137.44,33.68,131,35.86Z"/><path class="cls-9" d="M44.82,29.2a19.52,19.52,0,0,0,3.57-.48c.85-.17.49-1.46-.35-1.29a18.46,18.46,0,0,1-3.22.43.67.67,0,0,0,0,1.34Z"/><path class="cls-9" d="M42.8,34.63a12.45,12.45,0,0,0,.47,2.9.68.68,0,0,0,1.3-.36,11,11,0,0,1-.43-2.54.67.67,0,0,0-1.34,0Z"/><path class="cls-9" d="M45.78,44.55l4.07.68c.84.14,1.21-1.15.35-1.29l-4.07-.68c-.84-.14-1.21,1.15-.35,1.29Z"/><path class="cls-9" d="M58.62,47.06a.67.67,0,0,0,0-1.34.67.67,0,0,0,0,1.34Z"/><path class="cls-9" d="M58.62,47.06a12.74,12.74,0,0,0,2.89-.25c.84-.19.48-1.49-.36-1.29a11.28,11.28,0,0,1-2.53.2.67.67,0,0,0,0,1.34Z"/><path class="cls-9" d="M64.09,54.73a19.37,19.37,0,0,0,3.57.25.68.68,0,0,0,0-1.35,17.26,17.26,0,0,1-3.21-.2c-.85-.15-1.21,1.14-.36,1.3Z"/><path class="cls-9" d="M78.87,54.42a9,9,0,0,0,1.2-2,.69.69,0,0,0-.47-.83.7.7,0,0,0-.83.47,7.73,7.73,0,0,1-1.06,1.65c-.49.72.68,1.39,1.16.68Z"/><path class="cls-9" d="M69.24,43.22a11.75,11.75,0,0,0,4-.7c.8-.31.45-1.61-.36-1.3a10.64,10.64,0,0,1-3.67.66.67.67,0,0,0,0,1.34Z"/><path class="cls-9" d="M57.71,35.76a6.67,6.67,0,0,0,2-.25c.82-.26.47-1.56-.36-1.3a5,5,0,0,1-1.63.2.68.68,0,0,0,0,1.35Z"/><path class="cls-9" d="M58.39,26a.67.67,0,0,0,0-1.34.67.67,0,0,0,0,1.34Z"/><path class="cls-9" d="M58.62,26h3.84a.67.67,0,0,0,0-1.34H58.62a.67.67,0,0,0,0,1.34Z"/><path class="cls-9" d="M73.22,30.9l1.35-2c.48-.73-.68-1.4-1.16-.68l-1.35,2c-.48.73.68,1.4,1.16.68Z"/><path class="cls-9" d="M70.1,20.58c1.34-.43,2.73-.7,4.07-1.13.82-.26.47-1.56-.35-1.29-1.35.43-2.73.7-4.08,1.13-.82.26-.46,1.56.36,1.29Z"/><path class="cls-9" d="M83.92,19.73l1.13,1.13a.67.67,0,1,0,1-.95l-1.13-1.13a.67.67,0,0,0-1,.95Z"/><path class="cls-9" d="M87.66,51.25a3.48,3.48,0,0,1,.59,1.93.67.67,0,0,0,1.34,0,4.85,4.85,0,0,0-.77-2.6c-.47-.73-1.63-.06-1.16.67Z"/><path class="cls-9" d="M103.28,35.21a11.5,11.5,0,0,1,2.77-.83c.85-.18.49-1.47-.35-1.3a12.84,12.84,0,0,0-3.1,1c-.78.38-.1,1.54.68,1.16Z"/><path class="cls-9" d="M102.44,27.37c1.19-.48,2.39-.95,3.61-1.36.82-.28.47-1.57-.35-1.29-1.22.41-2.42.87-3.62,1.35-.79.32-.45,1.62.36,1.3Z"/><path class="cls-9" d="M94.07,14.25a14.26,14.26,0,0,0,3.33-1.2c.77-.38.09-1.54-.68-1.16a12.85,12.85,0,0,1-3,1.07c-.84.18-.48,1.47.36,1.29Z"/><path class="cls-9" d="M100.85,8.15a6.34,6.34,0,0,1,3.27.67c.8.32,1.15-1,.35-1.29a7.29,7.29,0,0,0-4-.68c-.85.17-.49,1.47.35,1.3Z"/><path class="cls-9" d="M112.55,12.37a9,9,0,0,0,3.73,1,.67.67,0,0,0,0-1.34,7.61,7.61,0,0,1-3.06-.81c-.77-.38-1.45.78-.67,1.15Z"/><path class="cls-9" d="M104.52,18.57a.67.67,0,0,0,0-1.34.67.67,0,0,0,0,1.34Z"/><path class="cls-9" d="M104.86,18.48a13.36,13.36,0,0,1,2.55-.84.67.67,0,0,0-.36-1.29,15.39,15.39,0,0,0-2.87,1c-.78.38-.1,1.53.68,1.16Z"/><path class="cls-9" d="M117.13,27.37c1.21-.24,2.42-.44,3.62-.68.85-.17.49-1.46-.35-1.3-1.21.24-2.42.44-3.62.68-.85.17-.49,1.46.35,1.3Z"/><path class="cls-9" d="M116.68,33.7a14.48,14.48,0,0,0,2.65-1c.78-.39.1-1.54-.68-1.16a11.47,11.47,0,0,1-2.32.83.67.67,0,0,0,.35,1.3Z"/><path class="cls-9" d="M122.28,20.5c.52-.76,1.07-1.5,1.59-2.26s-.68-1.39-1.16-.68-1.07,1.5-1.58,2.26.67,1.39,1.15.68Z"/><path class="cls-9" d="M132.51,23.3a23.23,23.23,0,0,1,5.25-.66.67.67,0,0,0,0-1.34,25.27,25.27,0,0,0-5.61.7c-.84.2-.48,1.5.36,1.3Z"/><path class="cls-10" d="M54.14,50.2a19.16,19.16,0,0,1,3.17.91c.8.32,1.15-1,.36-1.3a19.7,19.7,0,0,0-3.17-.9c-.85-.17-1.21,1.12-.36,1.29Z"/><path class="cls-10" d="M65.29,49.68a10.74,10.74,0,0,1,3.23-1.28c.84-.19.49-1.48-.36-1.3a11.76,11.76,0,0,0-3.55,1.43.67.67,0,0,0,.68,1.15Z"/><path class="cls-10" d="M62.94,39.18a8.81,8.81,0,0,1,3-2.38c.77-.4.09-1.55-.68-1.16A9.92,9.92,0,0,0,62,38.23c-.55.66.4,1.62.95,1Z"/><path class="cls-10" d="M49.46,38.15a9.2,9.2,0,0,0,2.65,1.2.67.67,0,0,0,.35-1.29A8,8,0,0,1,50.14,37c-.73-.47-1.4.69-.68,1.16Z"/><path class="cls-10" d="M51.33,33.25a16.66,16.66,0,0,0,2-.75.67.67,0,0,0,.24-.92.68.68,0,0,0-.91-.24A12.6,12.6,0,0,1,51,32c-.82.27-.47,1.57.35,1.3Z"/><path class="cls-10" d="M66.94,26.24c1-.27,1.93-.69,2.94-.91.84-.18.48-1.47-.36-1.29-1,.21-2,.64-2.94.9a.67.67,0,0,0,.36,1.3Z"/><path class="cls-10" d="M78.4,40.19a5.17,5.17,0,0,0,3.91.74c.85-.15.49-1.44-.35-1.29A3.81,3.81,0,0,1,79.08,39c-.71-.5-1.38.67-.68,1.16Z"/><path class="cls-10" d="M78.06,59.73a26.75,26.75,0,0,0,3.8-.25c.85-.14.49-1.43-.36-1.3a21.92,21.92,0,0,1-3.44.2.68.68,0,0,0,0,1.35Z"/><path class="cls-10" d="M84.75,48.77a5.48,5.48,0,0,1,1-1.23.66.66,0,0,0-.94-.94,6.31,6.31,0,0,0-1.24,1.49.67.67,0,0,0,1.16.68Z"/><path class="cls-10" d="M93.44,41.86a.67.67,0,0,0,0-1.34.67.67,0,0,0,0,1.34Z"/><path class="cls-10" d="M93.62,41.84l4.52-.68c.85-.12.49-1.42-.36-1.29-1.5.21-3,.46-4.52.67-.85.13-.49,1.42.36,1.3Z"/><path class="cls-10" d="M94.8,30.1h1.58a.67.67,0,0,0,0-1.34H94.8a.67.67,0,0,0,0,1.34Z"/><path class="cls-10" d="M79.82,28.72a12.28,12.28,0,0,0,3.1-1c.78-.38.1-1.53-.67-1.16a11.29,11.29,0,0,1-2.78.84c-.85.17-.49,1.46.35,1.29Z"/><path class="cls-10" d="M91.74,21l2.72-1.36c.77-.39.09-1.54-.68-1.16l-2.71,1.36c-.78.39-.1,1.54.67,1.16Z"/><path class="cls-10" d="M81.79,15.77A18.9,18.9,0,0,1,84.51,14c.77-.4.09-1.56-.68-1.16a18.81,18.81,0,0,0-2.71,1.81c-.69.51,0,1.68.67,1.16Z"/><path class="cls-10" d="M89.94,12.15a4.32,4.32,0,0,0,1.92.32.68.68,0,0,0,0-1.35A2.92,2.92,0,0,1,90.61,11a.67.67,0,1,0-.67,1.16Z"/><path class="cls-10" d="M95.47,9.07a4.46,4.46,0,0,1,1.41.21c.83.26,1.18-1,.36-1.3a5.87,5.87,0,0,0-1.77-.25.67.67,0,0,0,0,1.34Z"/><path class="cls-10" d="M104.52,13.82c.53,0,1,.21,1.58.23a.67.67,0,0,0,0-1.34c-.53,0-1-.21-1.58-.23a.67.67,0,0,0,0,1.34Z"/><path class="cls-10" d="M101.58,22.42a8.34,8.34,0,0,0,2.44-.25c.82-.26.47-1.55-.36-1.3a6.91,6.91,0,0,1-2.08.2.68.68,0,0,0,0,1.35Z"/><path class="cls-10" d="M112.21,22.64a.67.67,0,0,0,0-1.34.67.67,0,0,0,0,1.34Z"/><path class="cls-10" d="M112.55,22.55a7.57,7.57,0,0,1,2.1-1.29.67.67,0,0,0-.36-1.29,8.33,8.33,0,0,0-2.42,1.42c-.71.49,0,1.65.68,1.16Z"/><path class="cls-10" d="M109.61,30.69l2.71-2c.68-.52,0-1.68-.68-1.16l-2.71,2c-.68.51,0,1.68.68,1.16Z"/><path class="cls-10" d="M108.93,37.47a7.09,7.09,0,0,1,1.65-.83c.81-.28.46-1.58-.36-1.3a8.63,8.63,0,0,0-2,1c-.72.47,0,1.63.68,1.15Z"/><path class="cls-10" d="M125.32,28.29a30.8,30.8,0,0,0,4.7-.47c.86-.14.49-1.43-.35-1.3a27.63,27.63,0,0,1-4.35.43.67.67,0,0,0,0,1.34Z"/><path class="cls-10" d="M137.31,25.58a.67.67,0,0,0,0-1.34.67.67,0,0,0,0,1.34Z"/><path class="cls-10" d="M137.78,25.38a8.26,8.26,0,0,1,2.13-1.47c.77-.39.09-1.55-.68-1.16a9.56,9.56,0,0,0-2.4,1.69c-.62.6.33,1.55.95.94Z"/><path class="cls-10" d="M127.24,20.06a5.65,5.65,0,0,0,1.5-1c.62-.6-.33-1.55-1-.95a4.68,4.68,0,0,1-1.22.8.67.67,0,0,0,.67,1.16Z"/><path class="cls-10" d="M138.33,18.71A13.6,13.6,0,0,0,141,19.9a.67.67,0,0,0,.36-1.29A12.2,12.2,0,0,1,139,17.55c-.77-.39-1.45.76-.67,1.16Z"/><path class="cls-10" d="M119.67,12.24a11.35,11.35,0,0,1,2.53.43.67.67,0,0,0,.36-1.3,13.41,13.41,0,0,0-2.89-.47.67.67,0,0,0,0,1.34Z"/><path class="cls-10" d="M118.43,16.44l1.35-.67a.67.67,0,0,0-.67-1.16l-1.36.68a.66.66,0,0,0-.24.91.68.68,0,0,0,.92.24Z"/><path class="cls-10" d="M108,7.69a19.52,19.52,0,0,0,3.57.48.67.67,0,0,0,0-1.34,18.22,18.22,0,0,1-3.21-.43c-.85-.17-1.21,1.12-.36,1.29Z"/><path class="cls-11" d="M125.55,12.7c-3.71-1.32-7.35-2.18-11.08-3.67-4-1.6-6.85-3.06-11.31-2.89-3.27.13-7.47.88-10.35,2.55-3.58,2.07-6.7,4.82-10.67,6.21-3.48,1.21-7.6,1.6-10.63,3.91l-2,.22C69.37,22,55.37,20.21,58,27.35,59.32,31,66.61,30,69.52,29.61a32.25,32.25,0,0,0,13.07-4.2,39.59,39.59,0,0,1,26.05-5.71c7.31,1.05,17.29,7.16,23,0C135,15.39,129,13.92,125.55,12.7Z"/><path class="cls-12" d="M93,4.36S85.67,16.24,67.16,22.22s-27.27,3.9-28.65,16.17S50.94,50,58.4,48s31.7-8.43,47.1-25.54c0,0,8.67-8.52-.07-17.55C105.43,5,97.89-1.3,93,4.36Z"/><g class="cls-13"><path class="cls-14" d="M65.11,46.13s0-.07,0-.18l0-.2c-.06-.41-.16-1-.3-1.68-.08-.35-.15-.72-.26-1.11s-.2-.8-.32-1.22-.25-.85-.4-1.29-.31-.87-.46-1.31l-.54-1.29c-.2-.41-.38-.82-.59-1.2s-.41-.76-.63-1.09-.42-.65-.63-.93l-.58-.74a6.72,6.72,0,0,0-.5-.53l-.43-.45.36.51c.11.17.27.35.4.59s.29.51.46.81.29.63.46,1,.28.74.44,1.13.25.82.38,1.24.22.86.32,1.29.19.87.25,1.31.14.86.19,1.28.09.81.12,1.19.06.75.08,1.08c0,.66.05,1.22,0,1.6v.43c0,.1,0,.45,0,.45Z"/><path class="cls-14" d="M73.78,43.11s0-.06,0-.18,0,.1,0-.11c-.07-.42-.17-1-.35-1.69-.08-.35-.19-.72-.3-1.11s-.26-.78-.41-1.2-.31-.83-.51-1.25l-.29-.63c-.1-.21-.21-.41-.32-.62-.21-.41-.45-.81-.69-1.2s-.5-.75-.74-1.11-.52-.67-.76-1c-.13-.15-.24-.3-.37-.44s-.25-.26-.36-.39-.45-.48-.65-.67l-.54-.47L67,30.64l.39.48.45.55c.17.22.34.48.53.75l.3.43c.1.15.19.32.28.48.19.34.41.67.58,1.05s.39.75.54,1.16a13,13,0,0,1,.47,1.23c.07.21.15.41.21.62s.12.42.17.63c.13.41.2.83.3,1.23s.14.78.19,1.15.1.72.12,1A13.75,13.75,0,0,1,71.6,43c0,.18,0,.32,0,.4s0,.56,0,.56Z"/><path class="cls-14" d="M83.07,39l0-.18a.93.93,0,0,0,0-.13c-.11-.38-.29-.91-.53-1.53-.11-.31-.25-.64-.39-1s-.32-.72-.49-1.09-.36-.76-.56-1.14-.41-.77-.64-1.14-.45-.76-.69-1.11l-.36-.53L79,30.65l-.35-.48-.37-.44a9.29,9.29,0,0,0-.69-.79l-.6-.65-.5-.46L76,27.42l.36.47.41.54c.15.21.31.45.49.72s.35.56.53.88a5.5,5.5,0,0,1,.28.48l.27.52q.14.25.27.54c.09.18.17.37.26.56.17.37.33.76.48,1.16s.29.78.42,1.17.24.78.36,1.16.2.74.28,1.09.16.67.22,1c.12.61.2,1.12.25,1.47,0,.17,0,.31,0,.39S81,40,81,40Z"/><path class="cls-14" d="M93.06,33.18,93,33l-.06-.13c-.17-.34-.41-.82-.74-1.37S91.45,30.34,91,29.7c-.24-.32-.48-.65-.76-1l-.4-.48-.43-.46c-.28-.31-.58-.6-.88-.89s-.61-.54-.91-.8-.6-.47-.88-.69l-.42-.31-.41-.26c-.26-.17-.49-.33-.71-.45l-.57-.31-.49-.27.44.35.5.4c.19.15.39.35.62.56l.35.32.35.36c.23.26.49.51.73.81s.49.58.72.9.47.64.68,1l.33.5c.09.17.19.34.29.51.21.33.37.68.55,1,.32.67.6,1.29.8,1.84a13,13,0,0,1,.45,1.33c0,.16.08.28.09.35l.09.44Z"/><path class="cls-14" d="M100.61,27.35l-.08-.11-.15-.19c-.22-.26-.53-.62-.92-1s-.85-.89-1.36-1.37-1.07-1-1.66-1.46-1.17-.92-1.74-1.32c-.28-.21-.56-.39-.83-.56s-.52-.34-.76-.48c-.47-.29-.88-.5-1.16-.65l-.45-.24.4.32c.25.2.6.49,1,.86a8.7,8.7,0,0,1,.65.6c.22.21.46.44.69.69.47.49,1,1,1.41,1.58s.9,1.13,1.29,1.67.74,1.06,1,1.52.5.83.65,1.09l.16.3.12.26Z"/></g><path class="cls-15" d="M90.87,10.39S80,22.72,55.4,26.65c0,0-13,2.12-11.83,5.73s27.68-4.63,36.32-8.76S99.19,2.78,90.87,10.39Z"/><path class="cls-16" d="M38.6,41.93C40.08,50.5,51.77,49.81,58.42,48c7.46-2,31.7-8.43,47.11-25.54A14.87,14.87,0,0,0,108.82,17v0a11.8,11.8,0,0,0,.37-1.53s0-.09,0-.13,0-.1,0-.15c0-.36.07-.67.09-.89a.31.31,0,0,1,0-.1V14a.45.45,0,0,0,0-.08,11.63,11.63,0,0,0-3.06-8.06,12,12,0,0,1,.5,2.22,15.21,15.21,0,0,1-2.21,10c-7.36,4.11-21.25,8.23-27.94,8.66-9.07.58-14.38,7.63-14.38,12.68,0,4.85-3.5,5.58-3.78,5.63h0a55.9,55.9,0,0,1-13.92,0A9.94,9.94,0,0,1,38.6,41.93Z"/><path class="cls-12" d="M120,6.46S112.61,18.34,94.1,24.32s-27.27,3.9-28.64,16.16,12.43,11.64,19.88,9.65S117,41.71,132.45,24.6c0,0,8.67-8.52-.08-17.55C132.37,7.05,124.83.8,120,6.46Z"/><g class="cls-13"><path class="cls-14" d="M92.05,48.23s0-.07,0-.18a1.57,1.57,0,0,0,0-.2c-.06-.41-.17-1-.31-1.68-.08-.35-.15-.72-.25-1.11s-.2-.8-.33-1.22-.25-.86-.39-1.29-.31-.88-.47-1.31-.35-.87-.53-1.29-.39-.82-.6-1.2-.4-.76-.63-1.09-.42-.65-.62-.93L87.28,36a6.91,6.91,0,0,0-.49-.53L86.35,35l.36.51a5.94,5.94,0,0,1,.4.59l.46.8c.16.3.3.64.46,1s.29.74.44,1.13.26.82.39,1.23.22.87.32,1.3.18.87.25,1.31.14.86.18,1.28.09.81.13,1.19.05.74.07,1.08c0,.66,0,1.21,0,1.6,0,.18,0,.33,0,.43s0,.45,0,.45Z"/><path class="cls-14" d="M100.73,45.21s0-.06,0-.18,0,.1,0-.11c-.07-.42-.17-1-.35-1.7-.08-.34-.19-.71-.3-1.1s-.26-.79-.41-1.2-.31-.83-.51-1.25c-.09-.21-.19-.42-.29-.63s-.21-.41-.32-.62c-.2-.41-.45-.81-.68-1.2s-.5-.75-.75-1.11a11,11,0,0,0-.76-1L96,34.69l-.37-.39c-.24-.24-.44-.48-.65-.67l-.53-.47-.47-.42.4.48c.12.15.27.34.45.55s.33.48.53.75l.29.43c.1.15.19.32.29.48a11.51,11.51,0,0,1,.58,1c.18.38.38.75.54,1.16s.33.81.46,1.23c.07.21.15.41.21.62l.18.63c.12.41.2.83.29,1.22s.15.79.2,1.16.09.72.12,1c.06.65.07,1.18.07,1.55,0,.18,0,.32,0,.4s0,.56,0,.56Z"/><path class="cls-14" d="M110,41.1s0-.08,0-.18a1.11,1.11,0,0,1,0-.13c-.12-.38-.29-.91-.53-1.53-.12-.31-.25-.65-.4-1s-.32-.71-.48-1.09-.37-.75-.57-1.13-.41-.77-.64-1.15-.45-.75-.69-1.1l-.35-.53-.37-.51-.36-.48-.37-.44c-.23-.29-.45-.56-.68-.8l-.61-.64-.49-.47c-.28-.25-.43-.4-.43-.4l.36.47.41.53.48.73c.18.26.36.56.54.87l.28.49c.09.17.17.34.27.52s.18.35.27.53l.25.57c.17.37.33.76.48,1.15s.29.79.43,1.18.24.78.35,1.15.21.74.28,1.09.16.68.22,1c.13.6.2,1.11.25,1.47,0,.17,0,.31,0,.39s0,.47,0,.47Z"/><path class="cls-14" d="M120,35.28s0-.07-.08-.16,0,.05-.05-.13c-.17-.34-.42-.83-.75-1.38s-.74-1.17-1.21-1.82c-.24-.31-.48-.64-.75-1l-.41-.48-.42-.46c-.28-.31-.59-.6-.89-.89s-.61-.54-.9-.8a10.7,10.7,0,0,0-.89-.69l-.42-.31-.4-.26c-.27-.17-.5-.33-.72-.45l-.57-.31-.49-.27.44.35.5.4c.2.15.4.35.62.55l.35.32.35.37c.24.26.5.51.73.81s.5.58.72.9.47.64.69,1l.32.49q.15.27.3.51c.2.34.37.68.54,1,.33.66.6,1.29.81,1.84s.35,1,.44,1.33c0,.16.08.28.1.35s.08.44.08.44Z"/><path class="cls-14" d="M127.56,29.45l-.09-.11-.15-.19c-.22-.26-.53-.62-.92-1s-.85-.89-1.36-1.37-1.07-1-1.65-1.46-1.17-.92-1.74-1.32c-.28-.21-.57-.39-.83-.56s-.52-.34-.76-.48c-.48-.29-.88-.5-1.17-.65l-.44-.24.39.32c.25.2.6.49,1,.86.2.17.42.37.64.59s.47.45.7.7c.47.49,1,1,1.41,1.58s.89,1.12,1.29,1.67.73,1.06,1,1.51.5.84.64,1.1l.17.3.11.26Z"/></g><path class="cls-15" d="M117.82,12.49S107,24.82,82.34,28.75c0,0-13,2.12-11.82,5.73s27.67-4.63,36.31-8.76S126.13,4.88,117.82,12.49Z"/><path class="cls-16" d="M71.46,47.19a57.16,57.16,0,0,0,34.07-6.42A61.86,61.86,0,0,0,118.62,32c2.51-2.3,5.61-3.84,8.14-6.12,4.5-4.05,7.79-9.35,7-15.66a11.8,11.8,0,0,0-.5-2.22c7.32,8.68-.76,16.62-.76,16.62C117,41.71,92.8,48.14,85.34,50.13,78.69,51.91,67,52.59,65.52,44A9.94,9.94,0,0,0,71.46,47.19Z"/></g></g></svg>