<svg id="Layer_1" data-name="Layer 1" xmlns="http://www.w3.org/2000/svg" viewBox="0 0 273.83 209.11"><defs><style>.cls-1{fill:#dccaa4;}.cls-2{fill:#f0dfbd;}.cls-3{fill:#e8cda9;}.cls-4{fill:#998e8f;}.cls-5{fill:#f9ebd3;}.cls-6{fill:#292220;}.cls-7{fill:#a33030;}.cls-8{fill:#7b231d;}.cls-9{fill:#452222;}.cls-10{fill:#81707e;}.cls-11{fill:#faeddc;}.cls-12{fill:#1f0706;}.cls-13{fill:#472721;}.cls-14{fill:#d64141;}.cls-15{fill:#27090a;}.cls-16{fill:#fcf6f2;}.cls-17{fill:#100d0b;}.cls-18{fill:#64462f;}.cls-19{fill:#1d0706;}.cls-20{fill:#4f474e;}.cls-21{fill:#6b6558;}.cls-22{fill:#7f1514;}.cls-23{fill:#73290c;}</style></defs><path class="cls-1" d="M273.83,128.72v3.47c-.28,1.67-1.53,2.61-2.77,3.46-2.45,1.69-5,3.2-7.54,4.76-6,3.74-12,7.54-18.06,11.3l-22.23,13.92q-9.06,5.67-18.12,11.36L183.7,190.42l-20.17,12.66a14.41,14.41,0,0,1-6.38,2.27c-.35,0-.77.18-1-.3a34.54,34.54,0,0,1-.56-5c-.32-3.33-.12-6.68-.2-10q-.14-5.64-.37-11.3c-.09-2.06-.2-4.13-.31-6.2a3.84,3.84,0,0,1,.07-1.12.66.66,0,0,1,.63-.5c3.9-.55,7.07-2.71,10.28-4.75,6.09-3.87,12.22-7.68,18.34-11.51l18.4-11.55c7.58-4.76,15.17-9.49,22.75-14.26q10.47-6.59,21-13.15c7-4.38,14-8.78,21-13.11,1.84-1.14,3.71-2.24,4.88-4.18.22-.36.54-.46.75.06a37.2,37.2,0,0,1,.2,3.8c.07,2,.16,4,.25,6,.21,5,.34,10,.48,15,0,1.53,0,3.06,0,4.59A1.5,1.5,0,0,0,273.83,128.72Z"/><path class="cls-2" d="M156.38,205.29a.41.41,0,0,0-.35.18h-3.12a11.1,11.1,0,0,0-1.9-.42,14.08,14.08,0,0,1-3.2-1.28c-2.11-1.17-4.26-2.28-6.42-3.38-4-2-7.94-4-11.89-6.13-1.42-.75-2.86-1.48-4.3-2.21-3.25-1.67-6.54-3.28-9.77-5-2.54-1.34-5.15-2.57-7.69-3.93-2.75-1.47-5.57-2.78-8.31-4.24-1.43-.76-2.88-1.47-4.3-2.22a2.49,2.49,0,0,0-1.15-.32c.12-.46.55-.5.89-.58,3.87-.84,5.16-4,5.31-7.47.32-7.32-2.31-13.62-6.88-19.19a15.2,15.2,0,0,0-5.37-4.29,6.38,6.38,0,0,0-5-.35c-1.71.61-3.42,1.24-5.15,1.8-3.68.88-4.93,3.47-5.31,6.84a23.77,23.77,0,0,0,1.79,11.32c.21.54.64,1.05.4,1.71a3.7,3.7,0,0,1-1.34-.57c-2.8-1.54-5.71-2.88-8.55-4.36-3.47-1.82-7-3.52-10.47-5.34s-6.7-3.37-10-5.08c-1.74-.9-3.5-1.77-5.22-2.7a7.62,7.62,0,0,1-3.11-3,4,4,0,0,1-.45-1.91c0-.93,0-1.85,0-2.78,0-.2,0-.4-.16-.55s0-.39.17-.53c.56-.61,1.16-1.17,1.67-1.82.14-.19.34-.41.64-.22a26.5,26.5,0,0,1,.31,3.77,7,7,0,0,0,3.77,6.13C50.14,151.28,58.1,156,66.47,160a20.22,20.22,0,0,0,3.13,1.25,1.25,1.25,0,0,0,1,.09c-.18-.64-.72-.93-1.2-1.26-2.56-1.79-5.3-3.28-8-4.83-5.33-3-10.79-5.88-15.9-9.32a28.14,28.14,0,0,1-2.6-2,3.45,3.45,0,0,1-1.09-1.83c-.45-1.88-.77-3.79-1.17-5.68-.11-.54-.22-1.08-.36-1.61a6.73,6.73,0,0,1,2.06-2,94.76,94.76,0,0,1,13.63-9.26c.27-.15.53-.38.88-.23a4.47,4.47,0,0,0,1,.68c3.8,1.89,7.56,3.85,11.34,5.77,6.36,3.22,12.7,6.47,19,9.7q8.18,4.16,16.34,8.34,11,5.61,22,11.24c3,1.56,6.08,3.06,9.08,4.68q5.58,2.83,11.11,5.8a13.51,13.51,0,0,0,7.6,1.55c.25,0,.51-.11.73.11-.14,2.17.15,4.32.22,6.48,0,1.28,0,2.59.14,3.87.23,1.9,0,3.81.17,5.69.3,3.43,0,6.87.18,10.29a26.71,26.71,0,0,0,.29,3.68c.12.65.07,1.32.15,2S156.32,204.58,156.38,205.29Z"/><path class="cls-3" d="M155.16,3.64c.21.23.49.16.74.16.69,0,1.38,0,2.07,0,1.84.05,3.68.18,5.52.3l3.09.24c1.37.09,2.74.3,4.11.44s2.73.37,4.09.56c2.59.37,5.15.85,7.71,1.4a112.92,112.92,0,0,1,13.28,3.65,98.36,98.36,0,0,1,9.85,4A78.16,78.16,0,0,1,217,20.82a64.19,64.19,0,0,1,6,4.71,44.48,44.48,0,0,1,7.83,9A32.89,32.89,0,0,1,235.69,47a28.84,28.84,0,0,1,.34,6.88,26.56,26.56,0,0,1-.63,4.34c-.16.73-.25,1.47-.37,2.21a.5.5,0,0,1-.17.38c-.22.12,0,.39-.18.53h0a32.21,32.21,0,0,1-4.9,10,48,48,0,0,1-7.24,8.35,75.53,75.53,0,0,1-13.73,10A111.79,111.79,0,0,1,185,99.81a139.23,139.23,0,0,1-23.31,4.74c-3.49.41-7,.68-10.51.88-4.53.26-9.06.25-13.58.1a133.88,133.88,0,0,1-25.2-3.26A106.62,106.62,0,0,1,91.29,95.2c-8-3.7-15.36-8.37-21.36-14.93a36.82,36.82,0,0,1-8.35-14.22c-.42-1.37-.56-2.8-.85-4.2-.23-.24-.15-.54-.15-.82,0-2.05-.08-4.1,0-6.15a25.87,25.87,0,0,1,1-5.58,39.31,39.31,0,0,1,7.65-14.39,55.78,55.78,0,0,1,5.92-6.18,72.51,72.51,0,0,1,11.41-8.36c2.25-1.35,4.55-2.62,6.9-3.77a115.93,115.93,0,0,1,11.61-4.9,125.33,125.33,0,0,1,13.39-4c3-.72,6.1-1.38,9.2-1.85,1.7-.26,3.39-.61,5.09-.81s3.54-.43,5.31-.59c2.44-.21,4.87-.4,7.31-.54,1.47-.08,2.94-.08,4.4-.14.31,0,.64.1.91-.16Z"/><path class="cls-4" d="M60.73,61.85c.37.33.25.81.33,1.2a34.39,34.39,0,0,0,2.2,6.8,37.28,37.28,0,0,0,5.47,8.68A51.65,51.65,0,0,0,75.29,85a71.63,71.63,0,0,0,16,9.9,100.83,100.83,0,0,0,16.56,5.94c3.11.84,6.24,1.55,9.4,2.16,2.34.45,4.69.83,7.06,1.1,1.8.21,3.59.51,5.39.64L133,105c5.32.47,10.66.33,16,.29,1.64,0,3.27-.13,4.91-.28,1-.09,2.07-.12,3.1-.22,1.43-.13,2.85-.3,4.28-.46s2.85-.35,4.27-.55q2.86-.4,5.7-.93c3.56-.66,7.08-1.47,10.58-2.4,1.09-.28,2.17-.58,3.25-.88a1.43,1.43,0,0,1,.44,1.26c-.07,2.7.29,5.4.19,8.11a2.23,2.23,0,0,1-.19,1.17c-.31.35-.74.29-1.13.28-3-.1-5,1.4-6.57,3.77a10.89,10.89,0,0,1-2.41,3,7.66,7.66,0,0,1-5.64,1.44c-3-.32-5.75-1.45-8.62-2.2a23.28,23.28,0,0,0-4.32-.86,3.75,3.75,0,0,0-3.73,2.14c-.36.6-.7,1.2-1.11,1.76a5.1,5.1,0,0,1-7.13,1.24c-1.33-1-2.59-2-3.83-3.12a3,3,0,0,0-3.65-.47,43,43,0,0,0-3.89,2.43,13.2,13.2,0,0,1-3.12,1.67,2.29,2.29,0,0,1-3-1.22c-.44-.78-.79-1.61-1.29-2.35s-.88-.91-1.65-.22c-2.9,2.59-6.1,2.7-9.5,1.18a24.64,24.64,0,0,1-3.41-1.89,5.35,5.35,0,0,0-1.33-.61,1.88,1.88,0,0,0-2.48.8c-.14.18-.25.39-.5.46a18.68,18.68,0,0,1-3.86-1.17q-2.9-1-5.7-2.23c-.31-.13-.68-.22-.74-.64a5.72,5.72,0,0,0,1.58-2.8A7.65,7.65,0,0,0,97.23,105a19.37,19.37,0,0,0-5-5.21A42.13,42.13,0,0,0,80.67,93.6a6.41,6.41,0,0,0-2.8-.43c-1.82.2-2.94,1.61-3,3.71a7,7,0,0,1-.09,1.72.34.34,0,0,1-.43.21s-.11-.09-.1-.14c.27-1.3-.49-2.2-1.15-3.19a99.9,99.9,0,0,1-5.56-9.42,3.69,3.69,0,0,1-.5-1.52c-.81-1.87-1.65-3.74-2.35-5.66A67.76,67.76,0,0,1,61.24,66,35.22,35.22,0,0,1,60.73,61.85Z"/><path class="cls-5" d="M67,84.54a102.23,102.23,0,0,0,5.23,9.31A27.91,27.91,0,0,0,74,96.49a2.12,2.12,0,0,1,.23,2.24,1.43,1.43,0,0,1-.92.44,143.2,143.2,0,0,0-26.51,9.71c-2.86,1.37-5.66,2.84-8.46,4.33-.35.18-.68.48-1.13.3a1.55,1.55,0,0,1-.9-.45,8.28,8.28,0,0,1-1.77-2c-.19-.41-.34,0-.5,0a16,16,0,0,1,.06-2.5,6.62,6.62,0,0,1,1.7-3.15A8.73,8.73,0,0,1,37.55,104c2.68-1.69,5.31-3.44,8-5.16L58,90.68q4.15-2.7,8.33-5.38C66.66,85.11,67,85,67,84.54Z"/><path class="cls-6" d="M97,113.32c.09.26.34.28.54.37a90.52,90.52,0,0,0,9.67,3.59,2.89,2.89,0,0,1,0,1.86,1.82,1.82,0,0,0,.78,2,17.77,17.77,0,0,0,5.72,2.61,79.44,79.44,0,0,0,14.2,2.53,183.85,183.85,0,0,0,21.25.67c3.08,0,6.16-.28,9.23-.59a2.2,2.2,0,0,1,1,0c.49.34.23.79.14,1.18a53.6,53.6,0,0,1-2.76,8.46c-.26.61-.17.88.46,1a.24.24,0,0,1,.06.25.63.63,0,0,1-.23.16c-.69.17-1.41,0-2.1.14a1.27,1.27,0,0,1-.28.06,21.82,21.82,0,0,0-2.42.14,3.45,3.45,0,0,1-.85.07h-5.88a104.32,104.32,0,0,1-18.76-1.62,87.69,87.69,0,0,1-20.06-5.83,59.62,59.62,0,0,1-14.64-8.78,35.53,35.53,0,0,1-7.88-9,1.09,1.09,0,0,0-1.54-.56c-5,1.77-9.93,3.77-14.77,5.94-.23.12-.46.25-.7.36-2.21.89-4.33,2-6.44,3.09-.14.09-.28.18-.43.26-.88.42-1.73.9-2.58,1.38a1.43,1.43,0,0,1-1,.3A93.37,93.37,0,0,0,40.5,134.6a1.63,1.63,0,0,0-.17.2,8,8,0,0,1-2.61,2.45,21.77,21.77,0,0,0-2.43,2.56,21.07,21.07,0,0,0-1.81,2.08A40.8,40.8,0,0,1,26,149.06a22.55,22.55,0,0,1-9.11,4.18,12.87,12.87,0,0,1-6.9-.45,8.61,8.61,0,0,1-3.32-2.11,6.8,6.8,0,0,1-2.1-5.12c-.18-.4.05-.85-.14-1.25a1.6,1.6,0,0,1,0-.69c.42,0,.41.34.49.57A7.43,7.43,0,0,0,6.82,147,9.54,9.54,0,0,0,12,149.29c3.93.56,7.47-.64,10.82-2.52a33.83,33.83,0,0,0,9.8-8.5A66,66,0,0,1,44.55,126.9c2.4-1.65,4.68-3.46,7.18-5a4.74,4.74,0,0,1,1.23-.62,5.5,5.5,0,0,0,1.74-.75,131,131,0,0,1,14.87-6.78c5.34-2.11,10.79-3.92,16.31-5.52a2,2,0,0,1,2,.29,9.6,9.6,0,0,0,1.49.86.3.3,0,0,1,.05.24c-.32.33-.83.23-1.25.59,1.88,1,3.73,2,5.94,1.77a1.4,1.4,0,0,1,.5,0A24.61,24.61,0,0,1,97,113.32Z"/><path class="cls-7" d="M74.63,166.13c-.46-1.36-1-2.68-1.46-4.07a25.38,25.38,0,0,1-1.1-6.81,13.08,13.08,0,0,1,.85-5.17,5.81,5.81,0,0,1,3.9-3.75,3.28,3.28,0,0,1,.91-.27,9.2,9.2,0,0,1,6.17,2.33A23.43,23.43,0,0,1,90.16,156a29.06,29.06,0,0,1,3.66,11.64c.25,2.95,0,5.84-1.71,8.4a8.15,8.15,0,0,1-1,1.17,7.32,7.32,0,0,1-7.55-.34,19.09,19.09,0,0,1-5.16-4.69A29.26,29.26,0,0,1,75.09,167,2.88,2.88,0,0,0,74.63,166.13Z"/><path class="cls-8" d="M91.09,177.25c-.18-.15,0-.25,0-.35a9.14,9.14,0,0,0,2.38-5.51,16.93,16.93,0,0,0,.13-2.66,26,26,0,0,0-1-5.93,31.28,31.28,0,0,0-3-7.07,26.82,26.82,0,0,0-2.85-4.1,18.48,18.48,0,0,0-4-3.68,9.49,9.49,0,0,0-4.9-1.74.38.38,0,0,1-.29-.15c1.93-.67,3.85-1.38,5.79-2a5.58,5.58,0,0,1,3.56.18A13.35,13.35,0,0,1,92,147.38a30,30,0,0,1,8.37,17.16,16.22,16.22,0,0,1-.44,6.68,8,8,0,0,1-1.27,2.54,5.06,5.06,0,0,1-2.41,1.76c-.75.26-1.5.54-2.26.82Z"/><path class="cls-9" d="M4.46,144.31c.29.39.13.83.14,1.25l-.17-.73Z"/><path class="cls-5" d="M155,171.17a13.46,13.46,0,0,1-9.16-1.88c-.94-.55-1.93-1-2.9-1.53-2.49-1.33-5-2.59-7.52-3.87-.08-.33.13-.49.37-.62a1.45,1.45,0,0,1,1.14.28c3.19,1.69,6.44,3.25,9.58,5,3.66,2.09,7.47,2.09,11.38.95a26.94,26.94,0,0,0,6.55-3.49q12.83-8,25.61-16.06l21.64-13.58,23.41-14.66c7.77-4.88,15.57-9.72,23.34-14.61,3.49-2.2,7-4.35,10.49-6.58a6.58,6.58,0,0,0,2.51-2.79c.31-.67.57-.7,1.17-.23,0,.23,0,.47,0,.71-.2,0-.3.11-.39.28a9.29,9.29,0,0,1-3.42,3.34c-2.94,1.85-5.91,3.67-8.86,5.51l-10.33,6.44c-2.66,1.66-5.3,3.34-8,5l-9.73,6.08-12.51,7.82-7.67,4.83q-5.7,3.57-11.41,7.14c-2.73,1.71-5.45,3.45-8.18,5.16l-10.83,6.77-6.57,4.14c-3.43,2.15-6.87,4.31-10.31,6.45-1.24.78-2.46,1.62-3.76,2.28a16.42,16.42,0,0,1-4.48,1.5A4.39,4.39,0,0,1,155,171.17Z"/><path class="cls-5" d="M272.61,97.54c-.75-.24-.75-.24-1,.41a5.4,5.4,0,0,1-2,2.42c-2.57,1.75-5.24,3.33-7.87,5l-6.22,3.9L247.87,114l-6.28,3.94-9.51,5.95-6,3.76-8.92,5.59-9.72,6.08-6.07,3.81-9.73,6.08-6.71,4.24c-3.16,2-6.34,4-9.5,5.95-1.68,1.05-3.35,2.13-5,3.18-3.2,2-6.37,4-9.6,6a15.25,15.25,0,0,1-5.19,1.79,19.89,19.89,0,0,1-4.22.13,8.54,8.54,0,0,1-3.48-.92c-3.06-1.55-6.06-3.21-9.13-4.75-.74-.38-1.47-.79-2.21-1.17a1.41,1.41,0,0,0-.82-.24,2.08,2.08,0,0,1-1.12-.42c-2.85-1.58-5.79-3-8.69-4.49-6.27-3.2-12.53-6.43-18.81-9.62Q99,144.7,90.78,140.5c-6-3.05-11.93-6.07-17.89-9.12-4.68-2.4-9.38-4.74-14-7.17-.13-.07-.27-.13-.39-.21s-.55-.27-.5-.62.32-.47.59-.58.49-.18.73-.29a1.43,1.43,0,0,0,.94-1l.33-.23a3.83,3.83,0,0,1,1.35.56q8.58,4.44,17.2,8.77c7.19,3.64,14.36,7.31,21.54,11,5.92,3,11.82,6,17.74,9,7,3.56,14,7.14,21,10.67,2.65,1.34,5.21,2.87,7.9,4.12a31.14,31.14,0,0,0,4,1.53,8.93,8.93,0,0,0,5.53-.08,32.1,32.1,0,0,0,7.35-3.65c3.19-2,6.16-4.38,9.28-6.51,4.8-3.27,9.67-6.43,14.51-9.62,3-2,6-3.87,8.93-5.81q12.94-8.43,26-16.79c6.07-3.91,12.15-7.8,18.2-11.72l1.69-1.06a6.36,6.36,0,0,0,2.45-3,1.87,1.87,0,0,0-.12-2.12,2.13,2.13,0,0,0-2.34-.69,19,19,0,0,0-3.76,1.76c-6.19,3.49-12.14,7.37-18.09,11.24-9.11,5.91-18.13,11.93-27.21,17.88s-18,11.83-27.23,17.37a2.43,2.43,0,0,1-1.1.48c-.4-.09-.6-.44-.89-.68-4.27-4.29-8.57-8.57-12.85-12.85-.59-.6-1.2-1.17-1.77-1.79-.3-.31-.86-.56-.64-1.11s.75-.18,1.14-.15a1.33,1.33,0,0,0,1.07-.48,1.23,1.23,0,0,1,.78,0,2.33,2.33,0,0,1,1.56.12c.45.25.8,0,1.12-.29h0a1.53,1.53,0,0,1,1.24.09c.45.27.75.09,1-.26l.05,0,0,0a.53.53,0,0,1,.65,0c.37.28.72.34,1.05-.07.06-.09,0-.06.06-.05.68.09,1.39-.27,1.95-.15a4.46,4.46,0,0,0,1.76-.08c.93-.16,1.88-.16,2.8-.33,2.94-.53,5.9-1,8.79-1.78,1.91-.53,3.86-.94,5.76-1.49.14,0,.29-.06.42-.11,3.32-1.28,6.78-2.2,10-3.72,1.64-.77,3.34-1.41,4.92-2.31A67.31,67.31,0,0,0,207,119.36a12.19,12.19,0,0,1,1.68-1.43c.45-.28.5-.82.57-1.31a1.72,1.72,0,0,1,1-1c1,0,1.41-.75,2-1.39a34.34,34.34,0,0,0,3.38-4.43,7.22,7.22,0,0,1,.42-.65,2.47,2.47,0,0,0,.47-2.26.94.94,0,0,1,.47-.78c.61-.11.86-.51,1.1-1.07a29.83,29.83,0,0,0,1.53-5.31,1.44,1.44,0,0,0-.18-1.23.42.42,0,0,1,0-.25c.42-.36.57-.74.14-1.2a.74.74,0,0,1-.14-.48,3,3,0,0,1,.08-1.16c2.64-2.54,4.3-5.77,6.09-8.89a90.94,90.94,0,0,0,5.11-10.39c.28-.65.71-1.3.29-2,0-.18-.05-.35.18-.42,3.29,1.58,6.52,3.29,9.74,5l.39.19c2.71,1.39,5.43,2.77,8.14,4.17l13.8,7.16c2.19,1.14,4.37,2.31,6.57,3.45A6.93,6.93,0,0,1,272,95.44a1.7,1.7,0,0,1,.49,1.26C272.42,97,272.61,97.25,272.61,97.54Z"/><path class="cls-10" d="M231.15,73.62A.38.38,0,0,0,231,74a2.27,2.27,0,0,1-.36,1.32,98.1,98.1,0,0,1-9.27,17.36,11.16,11.16,0,0,0-1.76,2.64l0,1.35a.13.13,0,0,1-.2,0c-.27-.34,0-.78-.25-1.18A10.86,10.86,0,0,0,217.8,97a66.74,66.74,0,0,1-11.55,9.31c-.27.17-.53.48-.92.23a17.8,17.8,0,0,0-1.05-3.91,5.63,5.63,0,0,0-1.22-1.84c-.24.25-.09.48,0,.68a5.29,5.29,0,0,1-3.13,6.06,21.46,21.46,0,0,0-6.26,4.12,10.19,10.19,0,0,1-1.83,1.44,1.34,1.34,0,0,1-1.8-.22,8.7,8.7,0,0,0-4.05-2.22c-.25-.07-.61,0-.66-.42.28-.22.18-.52.19-.8,0-1.15.09-2.31,0-3.46-.17-1.77-.13-3.55-.16-5.33a7.27,7.27,0,0,0-.18-1c2-.66,4-1.3,6-2a100.62,100.62,0,0,0,21.13-10.19A67.6,67.6,0,0,0,225,77a43.33,43.33,0,0,0,8.72-13.2,18.11,18.11,0,0,1,1-2.46,9.15,9.15,0,0,1-.45,2.44,75.58,75.58,0,0,1-2.91,9.28C231.26,73.24,231.21,73.43,231.15,73.62Z"/><path class="cls-10" d="M234.68,61.34c.07-.17-.13-.44.18-.53C234.8,61,234.91,61.22,234.68,61.34Z"/><path class="cls-11" d="M37.72,137.25a22.39,22.39,0,0,1,2.61-2.45c.45.45.36,1.07.48,1.62.44,1.92.74,3.88,1.22,5.8a3.13,3.13,0,0,0,1.06,1.64,36.12,36.12,0,0,0,3.76,2.74c2.09,1.38,4.27,2.61,6.44,3.86s4.09,2.34,6.15,3.5c1.9,1.07,3.82,2.13,5.72,3.21,1.62.93,3.19,2,4.74,3a6.59,6.59,0,0,1,.81.78c.17.16.33.34.19.6s-.36.18-.59.13a15.15,15.15,0,0,1-3.64-1.34c-2.57-1.24-5.13-2.51-7.66-3.83s-5.06-2.76-7.59-4.12c-3.07-1.66-6.14-3.3-9.29-4.82a7.31,7.31,0,0,1-4.19-5.76A19.83,19.83,0,0,1,37.72,137.25Z"/><path class="cls-5" d="M60.23,121.47a.53.53,0,0,1-.18.86,4.58,4.58,0,0,1-1.24.6c-.29.09-.62.15-.74.51.12.28.4.33.62.44,4.32,2.19,8.66,4.33,13,6.58,3.06,1.61,6.2,3.07,9.25,4.71,2.79,1.5,5.68,2.81,8.47,4.32s5.68,2.81,8.47,4.32,5.47,2.71,8.16,4.17,5.21,2.58,7.77,4c2.36,1.28,4.8,2.38,7.15,3.67s4.55,2.25,6.77,3.47c2,1.09,4.06,2,6.08,3.11.68.36,1.33.78,2,1.17l-.34.52c-2.65-1.35-5.33-2.64-7.93-4.07-2.09-1.15-4.25-2.19-6.37-3.29-5-2.63-10.13-5.1-15.15-7.74-2.61-1.36-5.26-2.63-7.85-4-2.43-1.31-5-2.46-7.39-3.74-3.09-1.62-6.23-3.14-9.32-4.75-2.52-1.32-5.07-2.59-7.61-3.88-3.57-1.82-7.15-3.61-10.71-5.45-1.89-1-3.77-2-5.68-2.92-.31-.15-.66-.27-.66-.7A24.69,24.69,0,0,1,60.23,121.47Z"/><path class="cls-12" d="M205.42,84.75A87,87,0,0,1,196,90.09a97.73,97.73,0,0,1-20.63,7.1,127.28,127.28,0,0,1-16.8,2.73,142.66,142.66,0,0,1-21.78.52A125.11,125.11,0,0,1,118.14,98c-.14,0-.27-.08-.41-.12-3.59-.86-7.17-1.76-10.66-3a57.38,57.38,0,0,1-14.23-7A28.29,28.29,0,0,1,84.27,79,16.79,16.79,0,0,1,82,71c-.17-5,1.78-9.17,4.83-12.92a44.5,44.5,0,0,1,13.82-10.81,97.22,97.22,0,0,1,26.49-9.2,137.26,137.26,0,0,1,15.49-2.24c2.56-.23,5.12-.35,7.68-.42,1.91-.06,3.81-.18,5.71-.13a134.14,134.14,0,0,1,22.27,2.12,90.28,90.28,0,0,1,17.94,5.19A48,48,0,0,1,210.09,51c3.75,3.37,6.62,7.34,7.37,12.49a16.11,16.11,0,0,1-1.39,9.29,28.69,28.69,0,0,1-10,11.54A4.67,4.67,0,0,0,205.42,84.75Z"/><path class="cls-13" d="M205.42,84.75c.2-.57.77-.77,1.19-1.09a38.4,38.4,0,0,0,4.73-4.28,24.44,24.44,0,0,0,5.27-8.63A16.19,16.19,0,0,0,215,57.14a24.23,24.23,0,0,0-4.82-5.84,39,39,0,0,0-6.25-4.58,67.73,67.73,0,0,0-14.61-6.36,92.66,92.66,0,0,0-10.1-2.54c-2.3-.45-4.62-.85-6.95-1.12-1.51-.17-3-.37-4.53-.51s-3.15-.22-4.72-.36-2.89,0-4.31-.16a40.38,40.38,0,0,0-6.22-.11c-1.66.06-3.34,0-5,.16s-3.21.14-4.81.34c-1.87.24-3.76.37-5.63.64-1.62.23-3.23.49-4.85.71-2,.27-4,.7-6,1.11a104.68,104.68,0,0,0-13.68,3.81A78.14,78.14,0,0,0,104,45.86a73.51,73.51,0,0,0-8.84,5,40.65,40.65,0,0,0-7.4,6.45A22,22,0,0,0,83,65.14a14.66,14.66,0,0,0-.82,4.47,17.08,17.08,0,0,0,.77,6A21,21,0,0,0,86.63,82a30.41,30.41,0,0,0,3,3.11,37.89,37.89,0,0,0,5.75,4.24,53.26,53.26,0,0,0,5.89,3.09A73,73,0,0,0,111,96c2.09.61,4.19,1.21,6.33,1.68.16,0,.35,0,.43.22a15.5,15.5,0,0,1-2.79-.56A91.41,91.41,0,0,1,92.75,89.2,56.22,56.22,0,0,1,77.87,78.14,33.8,33.8,0,0,1,70.1,65.39a27.31,27.31,0,0,1,1-19.45,38.57,38.57,0,0,1,7.32-11.17A62.61,62.61,0,0,1,93,23.22a102.28,102.28,0,0,1,28.25-11.08,128.89,128.89,0,0,1,15.58-2.73c3.42-.39,6.84-.63,10.27-.78q6.33-.27,12.64.07,5.79.32,11.54,1.14a112.49,112.49,0,0,1,15,3.15,82.63,82.63,0,0,1,23.38,10.42,47.74,47.74,0,0,1,11.87,10.9,30.69,30.69,0,0,1,5.78,12.46,27.54,27.54,0,0,1-1.68,16.28,39.85,39.85,0,0,1-8.94,13,62.8,62.8,0,0,1-10.84,8.57A2.71,2.71,0,0,1,205.42,84.75Z"/><path class="cls-9" d="M6.69,147.08a6.26,6.26,0,0,1-1.9-2.69c-.11-.26-.11-.57-.35-.77a8.32,8.32,0,0,1,1.83-7.2,35.79,35.79,0,0,1,4.14-4.3,124.87,124.87,0,0,1,15.88-12c3.41-2.22,6.9-4.31,10.45-6.31a4.26,4.26,0,0,0,.5-.32c1.74-.9,3.47-1.82,5.21-2.71a147.61,147.61,0,0,1,26.71-10.73c1.69-.48,3.4-.89,5.1-1.34a.31.31,0,0,0,.38-.16c.49-.38,1.12-.34,1.65-.6a2,2,0,0,0,.43,0c1.75-.65,3.19,0,4.68.92,2.86,1.84,5.82,3.52,8.73,5.29.44.26,1.05.39,1.11,1.06a21.58,21.58,0,0,1-3,1,183,183,0,0,0-19.11,7.17c-4.53,2-8.89,4.29-13.25,6.59a15.76,15.76,0,0,1-2.88,1.5,57.41,57.41,0,0,0-4.84,3.16c-1,.76-2,1.48-3.07,2.22a.71.71,0,0,1-.39.16c-2.84,2-5.51,4.26-8.13,6.56s-4.72,5.14-7.29,7.51a30,30,0,0,1-11.56,7.07,15.52,15.52,0,0,1-7.44.49A9,9,0,0,1,6.69,147.08Z"/><path class="cls-14" d="M185.29,110.2c.54.17,1.1.31,1.63.5a8.23,8.23,0,0,1,3.22,2c.58.6.85.63,1.6.2a10.36,10.36,0,0,0,1.68-1.35,21.94,21.94,0,0,1,5.84-4,3.43,3.43,0,0,1,.55-.25,3.46,3.46,0,0,0,2.11-1.67,5.59,5.59,0,0,0,1.06-3.05,8.64,8.64,0,0,0-.23-1.27c0-.2-.09-.39-.11-.59s0-.3.18-.35a.29.29,0,0,1,.32.08,5.49,5.49,0,0,1,.44.52,10.43,10.43,0,0,1,1.86,5.58,1.2,1.2,0,0,1,.13,1.07,6.33,6.33,0,0,1-3.7,5.1c-3.35,1.41-6.6,3-9.83,4.68a82.89,82.89,0,0,1-11.7,5,94.64,94.64,0,0,1-18.3,4,5.59,5.59,0,0,1-2.54.12,16.11,16.11,0,0,0-2.5.2c-5.23.52-10.47.51-15.72.51-2.53,0-5.07-.09-7.6-.25-2.9-.19-5.8-.43-8.68-.79a80,80,0,0,1-9.85-1.77,26.5,26.5,0,0,1-5.91-2.16,11.61,11.61,0,0,1-1.85-1.26,1.32,1.32,0,0,1-.53-1.21,19,19,0,0,1,.34-2.48.15.15,0,0,0,.06,0c.69-1.48,1.68-1.87,3.35-1.2a12.2,12.2,0,0,1,1.8,1,17.11,17.11,0,0,0,4.29,2,7.5,7.5,0,0,0,7.35-1.57c.15-.13.29-.28.45-.4.77-.61,1.11-.58,1.65.28s.87,1.56,1.29,2.35a3.37,3.37,0,0,0,.75,1,1.76,1.76,0,0,0,1.59.44,9.25,9.25,0,0,0,3.11-1.46c1-.65,2-1.35,3-2a9.68,9.68,0,0,1,2.41-1.14,2.28,2.28,0,0,1,2.13.32c1,.69,1.88,1.52,2.81,2.3.62.52,1.27,1,1.93,1.45a4.73,4.73,0,0,0,6.53-1.15,10.76,10.76,0,0,0,1.1-1.65,6.21,6.21,0,0,1,.54-.89,3.54,3.54,0,0,1,3.08-1.59,18,18,0,0,1,4.73.86c2.14.57,4.23,1.31,6.38,1.83a15.9,15.9,0,0,0,2.81.42,6.85,6.85,0,0,0,6.55-3.23,16.28,16.28,0,0,1,2.26-3,6.83,6.83,0,0,1,4.9-2C184.48,110.18,184.88,110.2,185.29,110.2Z"/><path class="cls-15" d="M76.33,98.05a2.31,2.31,0,0,1-1.69.52,8.33,8.33,0,0,1,.28-3.25A3.39,3.39,0,0,1,78.76,93,15.44,15.44,0,0,1,83,94.27a40.82,40.82,0,0,1,10.25,6A18.71,18.71,0,0,1,97.5,105a8.91,8.91,0,0,1,1.3,3.72,6.12,6.12,0,0,1-.63,3.44A2.48,2.48,0,0,1,97,113.32a5.65,5.65,0,0,1-2.45-1.21,4.26,4.26,0,0,0,1.51-3.84,6.28,6.28,0,0,0-1.29-3.16,19.17,19.17,0,0,0-5.18-4.65,36.94,36.94,0,0,0-8.19-3.86,7,7,0,0,0-1.34-.35c-1.44-.19-2.72,0-3.42,1.51A.6.6,0,0,1,76.33,98.05Z"/><path class="cls-16" d="M165.21,154.54c1.69-.89,3.28-1.92,4.89-2.92q5.58-3.45,11.07-7c2.1-1.37,4.21-2.71,6.3-4.08,4-2.66,8.06-5.34,12.13-8,2.73-1.76,5.41-3.6,8.13-5.38,3.71-2.43,7.4-4.87,11.11-7.29,3.26-2.12,6.51-4.23,9.8-6.3s6.72-4.22,10.2-6.14a19.32,19.32,0,0,1,3.91-1.82,2.46,2.46,0,0,1,2.73,1.16,2.26,2.26,0,0,1,0,1.85,7.52,7.52,0,0,1-3.15,3.56c-1.55.94-3.07,1.93-4.59,2.91-4.14,2.66-8.27,5.34-12.4,8l-7.56,4.84q-5.76,3.72-11.51,7.47c-2.05,1.32-4.12,2.64-6.16,4-3.88,2.53-7.74,5.09-11.64,7.59-1.92,1.22-3.78,2.53-5.7,3.74-2.89,1.84-5.72,3.77-8.56,5.67-2.61,1.74-5.1,3.65-7.67,5.44a46.54,46.54,0,0,1-7,4.14,17,17,0,0,1-5,1.55,8.05,8.05,0,0,1-3.23-.39,30.9,30.9,0,0,1-3.95-1.51c-2.35-1-4.56-2.34-6.83-3.53-2.71-1.42-5.47-2.72-8.17-4.15-3.7-2-7.48-3.74-11.18-5.69-3.12-1.64-6.31-3.13-9.41-4.79-3.31-1.77-6.72-3.33-10-5.1-3.11-1.66-6.31-3.12-9.41-4.79-3.28-1.76-6.67-3.3-9.95-5.06s-6.35-3.15-9.48-4.82-6.6-3.31-9.87-5a15.8,15.8,0,0,1-2.46-1.41c1.94-1,3.93-2,5.93-2.93a1.15,1.15,0,0,1,.65-.17,2.07,2.07,0,0,1,1.36.45c16.41,8.34,32.89,16.54,49.36,24.75,6.41,3.19,12.82,6.36,19.27,9.46,4.81,2.3,9.59,4.66,14.49,6.78a4.38,4.38,0,0,0,3.68,0,78.15,78.15,0,0,0,8.65-4.53A2.47,2.47,0,0,1,165.21,154.54Z"/><path class="cls-5" d="M151.35,137.55a1,1,0,0,1-1.43.66c-.13,0-.24-.16-.37-.19s-.21.08-.28.17a.19.19,0,0,0,0,.3l.48.5,14.08,14.08a3.37,3.37,0,0,1,.69.77c0,.39-.29.47-.52.61a76.8,76.8,0,0,1-9.34,4.89,2.87,2.87,0,0,1-2.35,0c-2.92-1.25-5.79-2.62-8.66-4-3.18-1.49-6.34-3-9.51-4.57-2-1-4.09-2-6.13-3-17.69-8.68-35.27-17.59-52.9-26.37-1.6-.8-3.14-1.72-4.8-2.41a9.86,9.86,0,0,0-1.85-.72,1.06,1.06,0,0,1-.78-.48c1.6-.85,3.29-1.52,5-2.22,3.4-1.43,6.85-2.74,10.34-4,.74-.26.74-.26,1.12.39A37.82,37.82,0,0,0,95,123.52a64.33,64.33,0,0,0,14.49,7.69,93.84,93.84,0,0,0,20,5.16,118.74,118.74,0,0,0,20.81,1.18C150.6,137.54,151,137.55,151.35,137.55Z"/><path class="cls-17" d="M159.5,126.49c2.74-.39,5.48-.72,8.21-1.21a88.07,88.07,0,0,0,18.39-5.36c3.39-1.42,6.63-3.13,9.89-4.79a34.71,34.71,0,0,1,4.57-2.06,9.46,9.46,0,0,0,1.64-.78,6.34,6.34,0,0,0,3.2-5.23c0-.18,0-.35,0-.52A61,61,0,0,0,219.31,95c.27.62,0,1.2.16,1.74s.42,1-.07,1.52h0a6.59,6.59,0,0,1-.29,2.61,31.08,31.08,0,0,1-1.46,4.4,1.88,1.88,0,0,1-.67,1,.94.94,0,0,0-.32.7,11.85,11.85,0,0,1-1.86,3.49,43.71,43.71,0,0,1-3.81,4.81,1.88,1.88,0,0,1-.78.52,3.2,3.2,0,0,0-.84.84c-.41,1-1.37,1.55-2.15,2.21a67.52,67.52,0,0,1-15.95,10,100.23,100.23,0,0,1-21.15,6.76,80.58,80.58,0,0,1-8.44,1.36,20.39,20.39,0,0,1-2.5.21,5.76,5.76,0,0,1-1.9,0c-.36-.1-.74.05-1.15-.11.31-.77.63-1.53.92-2.31A55,55,0,0,0,159.5,126.49Z"/><path class="cls-5" d="M67.68,117.81a27.71,27.71,0,0,1,6.2,2.75c.22.13.46.23.69.35l46.29,23.14c3.64,1.82,7.29,3.59,10.93,5.38,2.12,1,4.23,2.1,6.37,3.09,1.75.81,3.47,1.67,5.22,2.47q2.26,1,4.51,2.15c1.55.76,3.15,1.4,4.73,2.1a2.58,2.58,0,0,0,2.17-.19,71.76,71.76,0,0,0,7.15-3.65c.88-.5,1.76-1,2.58-1.56a1.79,1.79,0,0,1,.69.7c-1.21.71-2.4,1.47-3.63,2.14-1.54.85-3.11,1.63-4.67,2.44a17.8,17.8,0,0,1-2.31.95,3.45,3.45,0,0,1-2.53-.07c-1.81-.76-3.59-1.57-5.36-2.41q-4.29-2-8.57-4.09c-1.12-.54-2.24-1.07-3.35-1.62-4.94-2.43-9.86-4.9-14.81-7.31C105.49,137.51,91.12,130.2,76.71,123q-4.8-2.4-9.57-4.85C67.24,117.91,67.49,117.91,67.68,117.81Z"/><path class="cls-18" d="M76.33,98.05c.59-2,2.13-2.29,3.91-2a16.51,16.51,0,0,1,3.67,1.23,35.73,35.73,0,0,1,6.54,3.49A18.11,18.11,0,0,1,95,105,5.84,5.84,0,0,1,96,110.53a2.53,2.53,0,0,1-1.47,1.58l-.36.15A32.72,32.72,0,0,1,90,110.42c-.31-.17-.73-.25-.7-.74,0-.06,0-.11,0-.17A1.56,1.56,0,0,1,90.4,109c.65-.13.93-.42.81-1.13s0-1.25-.16-1.88a.92.92,0,0,1,.18-.81,19.15,19.15,0,0,0-3-1.94c-2.79-1.7-5.61-3.35-8.39-5.08a2.7,2.7,0,0,0-2-.22,10.58,10.58,0,0,0-1.08.26A.38.38,0,0,1,76.33,98.05Z"/><path class="cls-19" d="M91.23,105.17c.1,1.08.19,2.15.31,3.23,0,.34,0,.54-.38.63-.61.14-1.21.32-1.81.48a1.41,1.41,0,0,1-1-.3,11.11,11.11,0,0,0-1.07-.72,1.05,1.05,0,0,0-.9-.14c-4,1.2-8,2.42-11.89,3.84-2.48.9-5,1.82-7.39,2.84-1.65.68-3.27,1.41-4.91,2.12-2,.9-4.08,1.85-6.08,2.88-.89.46-1.78.94-2.67,1.41-.16.08-.34.26-.52,0,3.94-2.39,8-4.51,12.17-6.51,2.66-1.29,5.38-2.45,8.12-3.58,4.55-1.88,9.16-3.55,13.84-5.07,1.17-.38,2.36-.72,3.54-1.07A3.94,3.94,0,0,1,91.23,105.17Z"/><path class="cls-20" d="M6.69,147.08a2.34,2.34,0,0,1,.88.36,11.33,11.33,0,0,0,6.53,1.18,20.72,20.72,0,0,0,8.67-3,30.81,30.81,0,0,0,4.32-3,53.72,53.72,0,0,0,5.06-4.95,42.35,42.35,0,0,1,3.9-4c1.4-1.2,2.74-2.46,4.19-3.59s2.63-2,4-3a.79.79,0,0,1,.4-.13,13,13,0,0,1-2,1.64c-1.17,1-2.41,2-3.51,3.05-.66.65-1.41,1.19-2,1.87-1.56,1.69-3.07,3.41-4.55,5.17a34.51,34.51,0,0,1-4.08,4.21,44.48,44.48,0,0,1-3.58,2.83,22,22,0,0,1-8.23,3.59,12.48,12.48,0,0,1-3.16.32,11.34,11.34,0,0,1-6.36-2.09A1.53,1.53,0,0,1,6.69,147.08Z"/><path class="cls-5" d="M157.28,137.06a50,50,0,0,0,5.59-.59,109.11,109.11,0,0,0,17.79-3.95,82,82,0,0,0,20.5-9.49,55.48,55.48,0,0,0,7.88-6.21l.33-.27a1.68,1.68,0,0,1-1.28,2c-.13,0-.31.08-.34.22-.2.86-1,1.14-1.58,1.61a52.29,52.29,0,0,1-7.39,5,4.91,4.91,0,0,1-2,1c-.37,0-.46.49-.79.63a29.08,29.08,0,0,1-4.54,2.08.67.67,0,0,0-.25.08A21.61,21.61,0,0,1,187,131a14.93,14.93,0,0,1-3.37,1.21,10,10,0,0,0-2.32.82,16.07,16.07,0,0,1-3.05.86,2.33,2.33,0,0,0-.64.23,9,9,0,0,1-2.51.55c-.69.11-1.3.47-2,.62a38.31,38.31,0,0,1-3.78.76c-1.34.13-2.59.64-3.93.71-.48,0-1-.2-1.45.22,0,0-.21-.06-.31-.1s-.21-.12-.22-.11c-.41.55-1.09.12-1.55.41s-.8.13-1.1-.28c-.34.12-.43.54-.8.61s-.49-.35-.82-.47c-.22.23-.24.66-.69.67a1,1,0,0,1-.79-.43c-.12-.14-.32-.09-.49-.12Z"/><path class="cls-21" d="M89.33,109.68a.91.91,0,0,0,.52.42,25.8,25.8,0,0,0,3.34,1.53,1.45,1.45,0,0,1,1,.63c-2.47.27-4.49-.88-6.69-2.07A4.27,4.27,0,0,1,89.33,109.68Z"/><path class="cls-5" d="M154.81,137.37c-.32.78-.77,1-1.31.45s-.92-.17-1.37-.28A11.44,11.44,0,0,1,154.81,137.37Z"/><path class="cls-5" d="M157.07,137.2c-.14.69-.61,1-1,.56s-.81-.35-1.25-.39A8.63,8.63,0,0,1,157.07,137.2Z"/><path class="cls-22" d="M78.57,168.87a2.22,2.22,0,0,1-.86-.86,28.31,28.31,0,0,1-3.63-8.25,19.45,19.45,0,0,1-.64-4.33,11.31,11.31,0,0,1,.82-5A4.18,4.18,0,0,1,78,147.8a5.35,5.35,0,0,1,2.82.67,7.81,7.81,0,0,1,3.46,3.15,4.5,4.5,0,0,1,.75,2.25,1,1,0,0,1-1.08,1.18c-.61,0-1.21,0-1.82,0a7.8,7.8,0,0,0-2,.2,3.08,3.08,0,0,0-2.47,2.68,9.78,9.78,0,0,0-.19,2.91c.16,1.36.29,2.73.58,4.08s.52,2.46.77,3.7C78.75,168.71,78.71,168.78,78.57,168.87Z"/><path class="cls-5" d="M219.64,95.29a1.17,1.17,0,0,1,.23-1,51,51,0,0,0,5.06-7.72,94.12,94.12,0,0,0,5.95-12.35A1.37,1.37,0,0,1,231,74c.54.31.42.8.26,1.22-.53,1.3-1.06,2.6-1.67,3.87-1,2-1.94,4-3,5.94-.91,1.73-1.89,3.41-2.93,5.06-.65,1-1.3,2-2,3A11,11,0,0,1,220.21,95C220.05,95.1,219.9,95.29,219.64,95.29Z"/><path class="cls-5" d="M210.21,115.71c1.14-1.29,2.31-2.56,3.35-3.95a44.07,44.07,0,0,0,3.1-4.87,2,2,0,0,1-.28,2,42,42,0,0,1-2.54,3.76c-.41.51-.71,1.16-1.36,1.48a.74.74,0,0,0-.31.4A1.73,1.73,0,0,1,210.21,115.71Z"/><path class="cls-5" d="M217,106.19a26.81,26.81,0,0,0,2.34-7.83.44.44,0,0,1,.08-.15,1.29,1.29,0,0,1,.43,1.48,25,25,0,0,1-1.49,5.09,2,2,0,0,0-.13.5C218,106,217.77,106.16,217,106.19Z"/><path class="cls-5" d="M219.4,98.21c0-.51,0-1,.07-1.52l.12,0a.77.77,0,0,0,.2.45C220.31,97.69,220.22,97.94,219.4,98.21Z"/><path class="cls-23" d="M148.76,76.77a33.47,33.47,0,0,1-10.19-1.56A12.45,12.45,0,0,1,133.21,72a4.67,4.67,0,0,1-1.41-3.59,5.4,5.4,0,0,1,1.47-3.16,14.78,14.78,0,0,1,6-3.8,29.19,29.19,0,0,1,6.41-1.65,35.1,35.1,0,0,1,7.24-.37,32.71,32.71,0,0,1,7.28,1.23,14.54,14.54,0,0,1,5.49,2.84c2.41,2.11,2.72,5,.51,7.46a14.71,14.71,0,0,1-5.48,3.54,30.18,30.18,0,0,1-7,1.83,12.85,12.85,0,0,1-2.4.24C150.36,76.56,149.4,76.88,148.76,76.77Z"/><path class="cls-19" d="M30.61,124.92c.47,0,.65.29.42.63a4,4,0,0,1-.71.76c-2.14,1.74-4.35,3.39-6.53,5.07a31.44,31.44,0,0,0-3.4,3,17.05,17.05,0,0,1-5.26,3.86c-.24.1-.51.27-.71,0a.68.68,0,0,1,.05-.8,31.1,31.1,0,0,1,3.67-5.1,25.33,25.33,0,0,1,7.75-5.81A21,21,0,0,1,30.26,125Z"/></svg>