<svg id="Layer_1" data-name="Layer 1" xmlns="http://www.w3.org/2000/svg" viewBox="0 0 184.15 78.84"><defs><style>.cls-1{fill:#d9d9d9;}.cls-2{fill:#f3f3f3;}.cls-3{fill:#eae9e9;}</style></defs><path class="cls-1" d="M184.15,39.39c0,19.72-40.33,35.71-90.09,35.71S4,59.11,4,39.39,44.31,3.68,94.06,3.68,184.15,19.67,184.15,39.39Z"/><ellipse class="cls-2" cx="94.06" cy="37.59" rx="90.09" ry="35.71"/><path class="cls-3" d="M155.5,33.91c0,13.46-27.5,24.36-61.44,24.36S32.62,47.37,32.62,33.91,60.13,9.56,94.06,9.56,155.5,20.46,155.5,33.91Z"/><path class="cls-2" d="M153.37,34.36c0,12.76-26.55,23.11-59.31,23.11s-59.3-10.35-59.3-23.11,26.55-23.11,59.3-23.11S153.37,21.6,153.37,34.36Z"/></svg>