<svg id="Layer_1" data-name="Layer 1" xmlns="http://www.w3.org/2000/svg" xmlns:xlink="http://www.w3.org/1999/xlink" viewBox="0 0 121.48 50.02"><defs><style>.cls-1{fill:none;}.cls-2{fill:#e2e1e1;}.cls-3{fill:#f3f3f3;}.cls-4{fill:#fff;}.cls-5{fill:#c4c3c3;}.cls-6{clip-path:url(#clip-path);}.cls-7{fill:#2b3f1f;}.cls-11,.cls-12,.cls-8{fill:#698a46;stroke:#698a46;}.cls-11,.cls-12,.cls-8,.cls-9{stroke-miterlimit:10;}.cls-8{stroke-width:1.13px;}.cls-9{fill:#74b250;stroke:#74b250;}.cls-11,.cls-9{stroke-width:1.44px;}.cls-10{fill:#c1ea86;}.cls-12{stroke-width:1.21px;}</style><clipPath id="clip-path"><path class="cls-1" d="M114.32,13.92h0V-9H10.94V12.63C4.36,15,.52,17.78.52,20.82c0,8.06,27.08,14.6,60.48,14.6s60.48-6.54,60.48-14.6C121.48,18.33,118.89,16,114.32,13.92Z"/></clipPath></defs><path class="cls-2" d="M61,45.26l-21.93-1,.49,1.57a3.59,3.59,0,0,0,1.2.81A77.1,77.1,0,0,0,61,48.56a77.2,77.2,0,0,0,20.25-1.94,3.55,3.55,0,0,0,1.19-.81l.5-1.57Z"/><path class="cls-3" d="M121,23.38l-.85.39L71.09,27.32l-20.26,0L1.74,23.74l-.85-.39s8.4,19.72,49.24,23.41c3.33.3,7,.63,11,.63,4.27,0,8.27-.47,11.79-.73C112.51,43.79,121,23.38,121,23.38Z"/><path class="cls-4" d="M121.48,21.55c0,8.07-27.07,14.61-60.48,14.61S.52,29.62.52,21.55,27.6,7,61,7,121.48,13.49,121.48,21.55Z"/><path class="cls-4" d="M61,6.69c32.86,0,59.89,6.49,59.89,14.63,0,1.6-1.42,3.25-3.31,4.69,2.54-1.61,3.93-3.36,3.93-5.19,0-8.07-27.07-14.6-60.48-14.6S.52,12.75.52,20.82c0,1.74,1.27,3.41,3.58,5-1.7-1.37-2.94-3-2.94-4.51C1.16,13.13,28.12,6.69,61,6.69Z"/><path class="cls-5" d="M61,26.15c-16.74,0-30.39,3.19-31.1,7.19A220.09,220.09,0,0,0,61,35.42a220.13,220.13,0,0,0,31.11-2.08C91.4,29.34,77.75,26.15,61,26.15Z"/><g class="cls-6"><path class="cls-7" d="M30.48,31c1.49-.82,2.95-1.51,4.4-2.37,1.68-1,3.16-1,5.35-.42,1,.28,2,.5,3,.74.58.15,2.43,1.08,2.89.72a.25.25,0,0,0,.21,0c-.69-.92-3.21-1.48-4.34-1.84l-3.56-1c-4.51-1.2-5.19-7.31-7.46-10.37-.66-.89-1.86-2.59-1.38,0A12.89,12.89,0,0,0,30.76,19c.54,1.17,4.05,5.33,2.78,5.9-.59.27-2.6-1.22-3.09-1.8a6.78,6.78,0,0,1-1.67-3.35,17.33,17.33,0,0,0-1.52-5.29c-.35-.66-2-2.18-2.51-2-.33.09.47,2.53.69,3.2.59,1.82,1.71,3.52,2.46,5.31.29.68,2.59,3.93-.16,2.3A10.1,10.1,0,0,1,25.65,22C23.14,19.31,22.14,10.62,21,11.07c-1.63.64,2.62,9.94,2.47,10.27-.45.95-2-.93-2.39-1.39A26.91,26.91,0,0,0,18,17a9.78,9.78,0,0,0-5-2.62C9.25,14,12.17,17,14.1,18c1.48.76,7.89,3.42,8.81,4.89.31.49-.69.68-1.75.85-.49.07-8.14.75-7,1.64,2.46,1.41,8.36-1.64,11.44-1.36.61.06,3.86.8,3.73,1.68-.12.73-2.83.74-3.43.84-1.13.18-4.86,1.23-5.34,1.76-1.27,1.39,4.37.41,5.07.16a28.12,28.12,0,0,1,5.58-1.67c.42-.07,2.35-.52,2.48.31s-1.55,1.62-2,1.73a10.05,10.05,0,0,0-4.46,2.75C26.13,33.05,29.77,31.41,30.48,31Z"/><path class="cls-8" d="M29.83,31.77c1.5-.82,3-1.51,4.41-2.37,1.68-1,3.16-1,5.34-.41,1,.27,2,.49,3,.74.58.14,2.44,1.07,2.9.72a.32.32,0,0,0,.2,0c-.68-.93-3.2-1.48-4.33-1.84l-3.56-1c-4.51-1.2-5.2-7.31-7.46-10.37-.66-.89-1.86-2.58-1.38,0a12.91,12.91,0,0,0,1.21,2.52c.54,1.17,4.06,5.32,2.79,5.89-.59.27-2.6-1.22-3.09-1.8a6.74,6.74,0,0,1-1.67-3.35,17.61,17.61,0,0,0-1.52-5.29c-.35-.66-2-2.18-2.51-2-.33.09.47,2.53.68,3.2.59,1.82,1.71,3.52,2.47,5.31.29.68,2.59,3.93-.16,2.31A11,11,0,0,1,25,22.7c-2.51-2.65-3.5-11.34-4.63-10.89-1.64.64,2.62,10,2.46,10.27-.45,1-2-.93-2.38-1.39a26,26,0,0,0-3.08-2.94,9.84,9.84,0,0,0-5-2.63c-3.79-.43-.87,2.63,1,3.61,1.49.76,7.9,3.42,8.82,4.89.31.49-.69.69-1.76.85-.48.08-8.14.75-7,1.64,2.47,1.41,8.37-1.64,11.44-1.36.61.06,3.87.81,3.73,1.68s-2.82.74-3.42.84c-1.14.18-4.86,1.24-5.35,1.76-1.26,1.39,4.38.41,5.07.16a28.32,28.32,0,0,1,5.58-1.67c.42-.06,2.35-.52,2.49.31s-1.55,1.62-2,1.73a10,10,0,0,0-4.46,2.75C25.48,33.79,29.13,32.15,29.83,31.77Z"/><path class="cls-7" d="M52.44,35.24c.79-1.79,1.64-3.4,2.35-5.21.83-2.1,2.19-2.93,4.67-3.37,1.11-.19,2.18-.45,3.29-.68.65-.14,3.9.43,3.4-.83-.76-2.35-4.08-.07-5.4.1l-4,.73c-5.09,1-10.25-6-14.63-8.51-1.27-.72-2.51-.85-1.31.69a19.06,19.06,0,0,0,3,2.38c1.37,1.12,7.72,4.25,7,5.62-.35.64-3.33-.08-4.21-.52a11.44,11.44,0,0,1-4-3.15,34.15,34.15,0,0,0-5.73-5.67c-.82-.61-2.07-1.51-2.38-.38-.23.86,1.24,2.17,1.94,2.86,1.9,1.88,4.2,3.33,6.23,5.09.77.67,5.32,3.35,1.56,2.86a11.86,11.86,0,0,1-2.87-.37c-4.3-1.85-4.42-4.58-7-6.8-.9-.77-5.26-5.37-5.35-3.85-.12,2,9.8,10.59,9.9,11.06.28,1.4-3.36.07-4.06-.28C32.9,26.14,26.13,25,24.08,25.3c-5.09.84.38,2.21,3.22,3a28.86,28.86,0,0,0,8.57.87c1-.06,6-.8,2.49,2.28-.39.35-6.28,4-5.79,5.3,4.44.54,7-6,10.11-7.32.6-.26,4.19-1.1,4.71,0,.43.94-2.08,2.4-2.57,2.84-.92.82-3.61,4.09-3.67,5C41,39.61,45.53,35.41,46,34.73a24.23,24.23,0,0,1,4-5c.34-.31,1.8-1.89,2.54-.95s-.24,2.78-.62,3.17a10.4,10.4,0,0,0-2.12,5.7C49.88,40,52.07,36.07,52.44,35.24Z"/><path class="cls-9" d="M52.4,36.56c.79-1.79,1.64-3.4,2.36-5.21.83-2.09,2.18-2.93,4.66-3.36,1.12-.2,2.18-.45,3.3-.69.65-.13,3.9.43,3.4-.83-.77-2.34-4.08-.06-5.4.11l-4,.72c-5.09,1-10.25-6-14.62-8.51-1.27-.72-2.51-.84-1.32.69a20.31,20.31,0,0,0,3,2.39c1.37,1.11,7.71,4.24,7,5.62-.36.63-3.33-.09-4.22-.53a11.1,11.1,0,0,1-4-3.15,34.59,34.59,0,0,0-5.74-5.67c-.82-.6-2.06-1.5-2.37-.38-.24.87,1.24,2.17,1.93,2.86,1.9,1.88,4.2,3.33,6.24,5.09.77.67,5.31,3.36,1.55,2.87a11.41,11.41,0,0,1-2.87-.38c-4.29-1.84-4.42-4.57-7-6.8-.9-.77-5.26-5.37-5.35-3.85-.13,2,9.8,10.6,9.9,11.07.28,1.39-3.36.07-4.07-.28-1.78-.88-8.55-2.06-10.6-1.72-5.09.84.38,2.21,3.22,3a28.22,28.22,0,0,0,8.57.87c1-.06,6-.8,2.48,2.29-.39.34-6.27,4-5.79,5.29,4.45.54,7-6,10.11-7.32.61-.25,4.2-1.09,4.71,0,.44.95-2.07,2.41-2.56,2.85-.93.82-3.61,4.09-3.67,5C41,40.93,45.49,36.73,46,36.06a24.61,24.61,0,0,1,4-5c.34-.3,1.79-1.88,2.54-.95s-.25,2.78-.62,3.17A10.43,10.43,0,0,0,49.72,39C49.85,41.32,52,37.4,52.4,36.56Z"/><path class="cls-10" d="M65.16,25.75c-.53-.12-1.56.41-2,.5-.68.14-1.2.56-1.89.67l-4.34.73c-3,.51-6.15.72-9.24,1-2.91.28-5.84.5-8.82.52a81.46,81.46,0,0,1-9.19-.54,37.54,37.54,0,0,1-6-.92,5.72,5.72,0,0,0-1.39-.23,6.22,6.22,0,0,0,1.38.53,48.26,48.26,0,0,0,8.7,1.3,74.74,74.74,0,0,0,9.08.24c3-.12,5.9-.41,8.82-.72,1.54-.16,3.09-.27,4.62-.46s2.92-.46,4.37-.7c1-.17,1.95-.31,2.93-.48.81-.13,2.38-.2,3.18-.35C65.62,26.81,65.16,25.75,65.16,25.75Z"/><path class="cls-10" d="M56.86,27.8c-.44-.19-.84.24-1.08.46-.43.38-.79.81-1.19,1.23A13,13,0,0,0,52,36c0,.28.53-1.69.75-2.2a14.4,14.4,0,0,1,2-3.74c.3-.35.63-.69.95-1,.17-.18.35-.35.54-.52s.91-.58.6-.7Z"/><path class="cls-10" d="M53.67,28.2a17.2,17.2,0,0,0-2-1.64c-.26-.2-3.06-2-2.79-1.85.66.48,3.8,3.16,4.37,3.72.23.23.61,0,.38-.23Z"/><path class="cls-10" d="M48.12,28.52a17.19,17.19,0,0,1-1.77-1c-.28-.17-2.8-1.48-2.52-1.3.62.37,3.47,2.39,4.13,2.7.3.14.46-.25.16-.39Z"/><path class="cls-10" d="M50.13,28.42a7.62,7.62,0,0,0-2.89,4.47c0,.27.5-.62.76-1.05a7.75,7.75,0,0,1,2.46-3c.25-.14-.08-.52-.33-.38Z"/><path class="cls-10" d="M43.05,29.08A17.31,17.31,0,0,0,39,33c-.15.22,1-.69,1.12-.92a10,10,0,0,1,3.3-2.67c.24-.15-.09-.52-.33-.37Z"/><path class="cls-10" d="M41.16,29.07c-.66-.6-1.54-.94-2.15-1.58a11.14,11.14,0,0,0-1.5-1.28c-.1.05,1.1,1.28,1.21,1.4.64.67,1.47,1.15,2.16,1.78a.21.21,0,1,0,.28-.32Z"/><path class="cls-7" d="M84.44,10.56c2,.89,3.88,1.63,5.79,2.58,2.21,1.1,4.09,1,6.79,0,1.21-.43,2.42-.8,3.66-1.2.72-.24,3-1.58,3.6-1.18a.38.38,0,0,1,.26,0c-.78,1.23-3.92,2.16-5.31,2.72L94.82,15.1c-5.59,1.94-5.89,9.72-8.48,13.79-.75,1.19-2.11,3.44-1.74.18a17,17,0,0,1,1.3-3.29c.58-1.53,4.64-7.1,3-7.71-.77-.28-3.17,1.79-3.73,2.56A8.59,8.59,0,0,0,83.34,25C83,27.51,83,29.48,81.9,31.85c-.38.86-2.32,2.93-3,2.81-.42-.09.36-3.25.57-4.11.58-2.35,1.84-4.61,2.63-6.94.3-.89,2.91-5.21-.41-2.9a12.72,12.72,0,0,0-2.54,1.76C76.25,26,75.78,37.11,74.31,36.66c-2.12-.67,2.4-12.82,2.18-13.21-.66-1.17-2.44,1.35-2.89,2a34.14,34.14,0,0,1-3.62,4c-1.62,1.65-3.76,3.34-6,3.77-4.75.9-1.34-3.24,1-4.66,1.8-1.1,9.66-5.05,10.69-7,.35-.65-.93-.8-2.3-.91-.61-.05-10.35-.21-9-1.43,3-2,10.72,1.31,14.58.67.77-.13,4.82-1.37,4.56-2.47-.21-.91-3.63-.67-4.4-.74-1.45-.12-6.26-1.12-6.92-1.74-1.73-1.64,5.5-.92,6.39-.66a36.05,36.05,0,0,0,7.21,1.59c.54.05,3,.45,3.11-.62s-2.11-1.9-2.73-2c-1.49-.22-4.81-1.72-5.89-3.06C78.76,8.4,83.52,10.14,84.44,10.56Z"/><path class="cls-11" d="M83.56,9.68c2,.89,3.87,1.63,5.79,2.58,2.21,1.1,4.09,1,6.79,0,1.21-.43,2.42-.8,3.66-1.2.72-.24,3-1.58,3.6-1.18a.39.39,0,0,1,.26,0c-.78,1.23-3.92,2.16-5.31,2.72l-4.41,1.56C88.35,16.16,88,23.94,85.46,28c-.75,1.19-2.11,3.44-1.74.18A17,17,0,0,1,85,24.9c.58-1.53,4.64-7.1,3-7.71-.77-.28-3.17,1.79-3.74,2.56a8.58,8.58,0,0,0-1.8,4.39C82.15,26.63,82.07,28.6,81,31c-.38.86-2.33,2.94-3,2.81-.42-.09.36-3.25.57-4.11.58-2.35,1.84-4.61,2.63-6.94.3-.89,2.91-5.21-.41-2.9a12.72,12.72,0,0,0-2.54,1.76c-2.93,3.57-3.39,14.64-4.86,14.19-2.12-.67,2.4-12.82,2.18-13.21-.66-1.17-2.44,1.35-2.89,2a34.14,34.14,0,0,1-3.62,4c-1.62,1.65-3.76,3.34-6,3.77-4.74.9-1.33-3.24,1-4.66,1.81-1.1,9.67-5.05,10.7-7,.34-.65-.93-.8-2.3-.91-.61-.05-10.35-.21-9-1.43,3-2,10.72,1.31,14.58.67.77-.13,4.81-1.37,4.56-2.47-.21-.91-3.63-.67-4.41-.74-1.44-.12-6.25-1.12-6.91-1.74-1.73-1.64,5.49-.91,6.39-.66A35.9,35.9,0,0,0,84.84,15c.53,0,3,.45,3.11-.62s-2.11-1.9-2.74-2c-1.48-.22-4.8-1.72-5.89-3.06C77.88,7.52,82.64,9.26,83.56,9.68Z"/><path class="cls-7" d="M91,33.16C89.45,32,87.92,31,86.39,29.81c-1.75-1.41-3.35-1.46-5.71-.6-1.07.38-2.12.69-3.21,1-.63.2-3.16,2.31-3.36,1-.5-2.42,3.51-2.09,4.74-2.59l3.86-1.38c4.9-1.69,5.9-10.32,8.47-14.65.75-1.25,1.76-2,1.49,0a20.17,20.17,0,0,1-1.42,3.56c-.63,1.65-4.59,7.51-3.25,8.33.62.38,2.85-1.73,3.4-2.55a11.29,11.29,0,0,0,1.94-4.73A34.44,34.44,0,0,1,95.5,9.39c.41-.94,1-2.34,1.87-1.51.64.63,0,2.5-.26,3.44-.71,2.57-2,5-2.88,7.51-.34,1-3,5.56.07,3.26a11.56,11.56,0,0,0,2.31-1.75c2.81-3.73,1.56-6.16,2.72-9.39.4-1.11,1.9-7.27,2.73-6C103.16,6.63,98.81,19,99,19.47c.45,1.35,3-1.61,3.39-2.26,1.11-1.65,6.41-6,8.35-6.75,4.84-1.8.77,2.1-1.31,4.17a28.32,28.32,0,0,1-7,5c-.91.45-5.58,2.27-1,3.22.52.11,7.46.39,7.66,1.73-3.59,2.67-9.09-1.73-12.41-1.34-.65.08-4.19,1.13-4.07,2.37.09,1,3,1.05,3.64,1.19,1.2.25,5.16,1.76,5.66,2.51,1.3,2-4.72.56-5.45.2a24.64,24.64,0,0,0-5.93-2.36c-.44-.1-2.49-.75-2.68.43s1.6,2.29,2.12,2.45a10.43,10.43,0,0,1,4.67,3.89C95.61,36,91.76,33.71,91,33.16Z"/><path class="cls-9" d="M91.71,34.3c-1.57-1.16-3.11-2.14-4.63-3.36-1.76-1.4-3.35-1.46-5.72-.6-1.06.38-2.11.69-3.2,1-.63.21-3.17,2.31-3.36,1-.5-2.42,3.51-2.09,4.74-2.59l3.86-1.38c4.9-1.69,5.9-10.32,8.47-14.65.75-1.25,1.76-2,1.49-.05a19.87,19.87,0,0,1-1.42,3.56c-.63,1.65-4.59,7.51-3.25,8.33.62.38,2.85-1.73,3.39-2.54A11.13,11.13,0,0,0,94,18.29a34.46,34.46,0,0,1,2.17-7.77c.41-.94,1-2.33,1.87-1.51.64.63,0,2.5-.26,3.44-.72,2.58-2,5-2.88,7.52-.34,1-3,5.55.07,3.25a12.26,12.26,0,0,0,2.31-1.74c2.8-3.74,1.56-6.17,2.71-9.4.41-1.11,1.9-7.27,2.74-6,1.1,1.67-3.25,14.06-3.1,14.51C100.1,22,102.6,19,103,18.34c1.11-1.64,6.4-6,8.35-6.75,4.84-1.8.77,2.1-1.32,4.18a28.66,28.66,0,0,1-7,5c-.9.44-5.58,2.26-1,3.21.51.11,7.45.39,7.66,1.73-3.59,2.67-9.1-1.73-12.41-1.34-.66.08-4.19,1.13-4.08,2.37.1,1,3,1.05,3.64,1.19,1.21.26,5.17,1.76,5.66,2.51,1.3,2-4.71.56-5.45.2a24.82,24.82,0,0,0-5.92-2.36c-.44-.1-2.5-.75-2.68.43s1.6,2.29,2.12,2.45a10.48,10.48,0,0,1,4.67,3.89C96.29,37.16,92.45,34.84,91.71,34.3Z"/><path class="cls-10" d="M75.27,31.25c.41-.37,1.56-.43,2-.59.65-.22,1.31-.11,2-.36l4.13-1.51c2.88-1.07,5.7-2.43,8.53-3.7,2.67-1.2,5.32-2.47,7.92-3.92a83.49,83.49,0,0,0,7.71-5,37.15,37.15,0,0,0,4.75-3.78c.11-.11,1-1,1.09-.88s-.82,1-.94,1.14a48.31,48.31,0,0,1-6.9,5.45,75,75,0,0,1-7.76,4.71c-2.64,1.38-5.33,2.58-8,3.76-1.41.62-2.81,1.29-4.23,1.89s-2.76,1-4.15,1.56c-.92.34-1.85.71-2.77,1-.77.29-2.17,1-2.94,1.28C75.4,32.39,75.27,31.25,75.27,31.25Z"/><path class="cls-10" d="M83.49,28.9c.3-.38.85-.2,1.17-.13.56.11,1.09.31,1.64.47a13,13,0,0,1,5.49,4.35c.13.24-1.3-1.2-1.74-1.53a14.09,14.09,0,0,0-3.63-2.23c-.43-.17-.88-.3-1.33-.43l-.73-.19c-.1,0-1.07-.05-.87-.31Z"/><path class="cls-10" d="M86.47,27.67a15,15,0,0,1,.88-2.4c.13-.3,1.64-3.29,1.51-3-.34.75-1.74,4.63-2,5.4-.08.31-.52.3-.43,0Z"/><path class="cls-10" d="M91.44,25.19a19.1,19.1,0,0,0,1-1.75c.16-.29,1.7-2.68,1.54-2.39-.35.63-1.82,3.8-2.24,4.4-.19.27-.52,0-.33-.26Z"/><path class="cls-10" d="M89.64,26.1a7.59,7.59,0,0,1,4.73,2.44c.17.22-.74-.29-1.18-.52a7.68,7.68,0,0,0-3.65-1.43c-.28,0-.18-.49.1-.49Z"/><path class="cls-10" d="M96.11,23.16a17.18,17.18,0,0,1,5.53,1.4c.23.12-1.2-.11-1.44-.24A9.94,9.94,0,0,0,96,23.65c-.29,0-.19-.5.09-.49Z"/><path class="cls-10" d="M97.75,22.21c.28-.84.87-1.57,1.08-2.43a11,11,0,0,1,.67-1.87,9.85,9.85,0,0,1-.36,1.82c-.22.9-.7,1.73-1,2.62a.21.21,0,1,1-.4-.14Z"/><path class="cls-7" d="M59.47,22.61c-.33,1.79-.54,3.5-.93,5.25-.44,2,0,3.54,1.36,5.55.6.9,1.15,1.81,1.73,2.74.34.54,1.9,2.11,1.7,2.69a.34.34,0,0,1,0,.22c-1.16-.39-2.56-2.76-3.3-3.78L57.88,32c-2.71-4.16-9.12-2.82-13-4.1-1.12-.37-3.24-1-.5-1.38a14.67,14.67,0,0,1,3,.39c1.36.16,6.73,2.34,6.89.86.08-.69-2.1-2.23-2.85-2.53a7.23,7.23,0,0,0-3.95-.57,18.56,18.56,0,0,1-5.86.22c-.78-.14-2.87-1.3-2.9-1.86,0-.36,2.72-.37,3.47-.37,2,0,4.13.56,6.2.73.78.06,4.83,1.3,2.27-.94a11,11,0,0,0-2-1.7c-3.51-1.66-12.63.22-12.56-1.07.11-1.87,10.94-.66,11.21-.92.82-.78-1.6-1.71-2.19-2a29.76,29.76,0,0,1-4-2.14,10.42,10.42,0,0,1-4.31-4.16c-1.7-3.69,2.37-1.75,4-.13,1.27,1.25,6.09,6.85,7.89,7.29.6.15.46-.92.27-2.06C48.9,15.1,47,7.12,48.3,8c2.25,2,1.13,9,2.44,12,.26.6,2.1,3.65,2.94,3.22s-.19-3.11-.3-3.75c-.19-1.2-.36-5.33,0-6,1-1.75,1.87,4.29,1.84,5.08a30,30,0,0,0,.18,6.2c.07.44.25,2.55,1.14,2.41s1.12-2.11,1.07-2.64a10.81,10.81,0,0,1,1.29-5.43C60.07,17.54,59.62,21.77,59.47,22.61Z"/><path class="cls-12" d="M60,21.71c-.33,1.79-.54,3.5-.93,5.25-.44,2,0,3.54,1.36,5.55.6.9,1.14,1.81,1.73,2.74.34.54,1.9,2.11,1.69,2.69a.35.35,0,0,1,0,.22c-1.16-.39-2.57-2.76-3.3-3.78L58.42,31.1c-2.72-4.16-9.12-2.82-13-4.09-1.11-.37-3.23-1-.5-1.39a14.58,14.58,0,0,1,3,.39c1.37.16,6.74,2.34,6.9.86.07-.69-2.11-2.23-2.85-2.53A7.25,7.25,0,0,0,48,23.77a18.56,18.56,0,0,1-5.86.22c-.79-.13-2.87-1.3-2.9-1.86,0-.36,2.72-.37,3.46-.37,2,0,4.14.56,6.2.73.79.06,4.84,1.3,2.28-.93a10.73,10.73,0,0,0-2-1.71c-3.51-1.66-12.64.22-12.56-1.07.1-1.87,10.94-.66,11.21-.92.82-.78-1.6-1.71-2.2-1.95a28.56,28.56,0,0,1-4-2.14,10.42,10.42,0,0,1-4.31-4.16c-1.7-3.69,2.36-1.75,4-.13,1.26,1.25,6.09,6.85,7.89,7.29.59.15.46-.92.27-2.06-.08-.51-2-8.49-.68-7.66,2.24,2,1.12,9,2.43,12,.26.6,2.1,3.65,2.94,3.22s-.19-3.11-.29-3.75c-.19-1.2-.37-5.33,0-6,1-1.75,1.86,4.29,1.84,5.08a30.72,30.72,0,0,0,.17,6.2c.08.44.26,2.55,1.15,2.41s1.12-2.11,1.07-2.64a10.71,10.71,0,0,1,1.29-5.43C60.6,16.64,60.16,20.88,60,21.71Z"/><path class="cls-7" d="M74.64,25.52c-1.4,1.35-2.63,2.7-4.09,4-1.68,1.5-2,3.06-1.56,5.54.2,1.11.32,2.2.49,3.33.09.65,1.73,3.51.38,3.48-2.47.08-1.46-3.81-1.75-5.11l-.7-4c-.84-5.12-9.18-7.57-13-10.83-1.11-.95-1.65-2.07.2-1.48a21,21,0,0,1,3.26,2c1.52.91,6.63,5.8,7.66,4.62.48-.55-1.22-3.1-1.93-3.78a11.21,11.21,0,0,0-4.34-2.71A34.29,34.29,0,0,1,52,17.08c-.85-.56-2.12-1.43-1.17-2.1.73-.52,2.46.42,3.35.84,2.41,1.14,4.57,2.8,6.91,4.11.89.5,5,3.85,3.23.48A12.18,12.18,0,0,0,63,17.84c-3.21-3.4-5.82-2.58-8.8-4.27-1-.58-6.85-3.1-5.45-3.71,1.84-.8,13.31,5.59,13.78,5.51,1.41-.21-1.08-3.18-1.65-3.72C59.41,10.28,56,4.32,55.6,2.27c-1-5.06,2.2-.39,3.89,2A28.44,28.44,0,0,1,63.24,12c.29,1,1.29,5.88,3,1.55.19-.48,1.65-7.28,3-7.25,2,4-3.25,8.67-3.42,12,0,.66.4,4.32,1.64,4.42,1,.08,1.55-2.77,1.79-3.39.46-1.14,2.61-4.79,3.43-5.15,2.16-1-.24,4.75-.72,5.41a24.22,24.22,0,0,0-3.33,5.43c-.17.43-1.16,2.34,0,2.72s2.53-1.19,2.77-1.67A10.41,10.41,0,0,1,76,22.17C78.24,21.49,75.3,24.88,74.64,25.52Z"/><path class="cls-9" d="M75.87,25c-1.4,1.35-2.63,2.7-4.08,4-1.69,1.49-2,3-1.57,5.53.2,1.11.33,2.21.49,3.33.09.66,1.74,3.52.38,3.48-2.46.08-1.46-3.81-1.75-5.11l-.7-4c-.84-5.11-9.18-7.56-13-10.83-1.11-.95-1.65-2.07.2-1.47a19.17,19.17,0,0,1,3.26,2c1.52.9,6.63,5.8,7.66,4.61.48-.54-1.21-3.1-1.93-3.77A11.36,11.36,0,0,0,60.49,20a34.52,34.52,0,0,1-7.29-3.45c-.85-.56-2.12-1.42-1.17-2.1.73-.52,2.47.42,3.35.84,2.42,1.14,4.57,2.81,6.92,4.12.89.49,5,3.84,3.22.48a12.18,12.18,0,0,0-1.33-2.57c-3.21-3.4-5.82-2.59-8.8-4.27-1-.59-6.84-3.11-5.45-3.72,1.84-.8,13.31,5.59,13.79,5.52,1.4-.21-1.09-3.18-1.66-3.73-1.43-1.37-4.86-7.33-5.24-9.37-.95-5.07,2.21-.4,3.9,2a28.82,28.82,0,0,1,3.75,7.75c.28,1,1.28,5.89,3,1.56.2-.49,1.65-7.28,3-7.26,2,4-3.24,8.67-3.42,12,0,.66.4,4.31,1.64,4.41,1,.09,1.55-2.77,1.79-3.38.46-1.15,2.61-4.79,3.43-5.15,2.16-1-.24,4.74-.72,5.4a24.51,24.51,0,0,0-3.33,5.44c-.17.42-1.16,2.33,0,2.71s2.53-1.18,2.77-1.67a10.47,10.47,0,0,1,4.63-3.94C79.48,21,76.54,24.4,75.87,25Z"/><path class="cls-10" d="M70.09,40.72c-.3-.46-.16-1.61-.24-2.11-.1-.68.11-1.31,0-2-.27-1.45-.52-2.89-.79-4.33-.56-3-1.43-6-2.2-9-.73-2.84-1.53-5.66-2.53-8.47a83.31,83.31,0,0,0-3.65-8.46A37.66,37.66,0,0,0,57.74,1C57.65.89,57-.17,57.05-.21s.87,1,1,1.11a48.43,48.43,0,0,1,4.2,7.74,74.26,74.26,0,0,1,3.33,8.44c.91,2.83,1.63,5.69,2.35,8.54.37,1.5.79,3,1.14,4.49s.57,2.9.84,4.35c.18,1,.38,1.94.55,2.91.15.81.63,2.31.76,3.12C71.24,40.79,70.09,40.72,70.09,40.72Z"/><path class="cls-10" d="M69.17,32.22c-.33-.35-.06-.87.06-1.17.21-.54.5-1,.75-1.54a12.92,12.92,0,0,1,5.21-4.67c.27-.09-1.4,1.08-1.8,1.45a14.28,14.28,0,0,0-2.82,3.2c-.23.39-.44.82-.64,1.24-.11.22-.21.45-.31.68s-.23,1.06-.45.81Z"/><path class="cls-10" d="M68.45,29.08a16.82,16.82,0,0,1-2.21-1.27c-.27-.19-3-2.18-2.69-2,.68.46,4.27,2.5,5,2.84.29.14.21.57-.09.43Z"/><path class="cls-10" d="M66.86,23.76a19.77,19.77,0,0,0-1.56-1.32c-.25-.2-2.35-2.13-2.09-1.92.56.45,3.44,2.44,3.95,2.95.24.24-.07.52-.3.29Z"/><path class="cls-10" d="M67.45,25.68a7.6,7.6,0,0,1,3.21-4.24c.24-.13-.41.68-.72,1.07a7.66,7.66,0,0,0-2,3.35c0,.28-.52.1-.47-.18Z"/><path class="cls-10" d="M65.65,18.81A17.23,17.23,0,0,1,68,13.6c.16-.21-.31,1.16-.47,1.38a9.86,9.86,0,0,0-1.38,4c-.06.27-.52.1-.46-.18Z"/><path class="cls-10" d="M65,17c-.79-.42-1.41-1.12-2.21-1.48a10.35,10.35,0,0,1-1.73-1,10.12,10.12,0,0,1,1.73.66c.85.38,1.59,1,2.41,1.42A.21.21,0,1,1,65,17Z"/></g></svg>