<svg id="Layer_1" data-name="Layer 1" xmlns="http://www.w3.org/2000/svg" viewBox="0 0 40.06 23.61"><defs><style>.cls-1{fill:#2b3f1f;}.cls-2{fill:#698a46;stroke:#698a46;}.cls-2,.cls-3{stroke-miterlimit:10;}.cls-3{fill:#74b250;stroke:#74b250;}.cls-4{fill:#c1ea86;}</style></defs><path class="cls-1" d="M15.93,9.63c-.53,1.41-1.1,2.72-1.57,4.13A5.47,5.47,0,0,1,11,17.13c-.81.38-1.59.8-2.4,1.21-.47.24-2.24.69-2.34,1.2a.25.25,0,0,0-.12.13c1,.23,3-.86,4-1.28L13.07,17c3.7-1.8,7.69,1.87,11,2.6.95.21,2.73.65.94-.77a12.14,12.14,0,0,0-2.26-1c-1-.46-5.78-1.2-5.27-2.31.24-.52,2.44-.69,3.1-.59A6,6,0,0,1,23.6,16.2a15.12,15.12,0,0,0,4.08,2.64c.61.24,2.59.3,2.85-.09S28.75,17.34,28.22,17c-1.44-.87-3.17-1.36-4.72-2.12-.58-.29-4-1.12-1.22-1.63a9.47,9.47,0,0,1,2.11-.38c3.2.31,8.89,5.52,9.39,4.57.72-1.37-7.5-5.11-7.58-5.41-.25-.9,1.86-.54,2.39-.46a23.33,23.33,0,0,0,3.75.18,8.67,8.67,0,0,0,4.84-1.12c2.77-1.9-.94-2.26-2.79-1.8-1.43.35-7.25,2.29-8.71,1.84-.49-.15.07-.86.68-1.58.28-.33,5-5.21,3.73-5.16-2.45.49-4.62,5.93-6.83,7.52-.44.32-3,1.7-3.46,1s1.45-2.13,1.8-2.54c.65-.78,2.52-3.64,2.54-4.27C24.18,4.05,21,8,20.67,8.53a25.16,25.16,0,0,1-2.75,4.34c-.25.29-1.27,1.71-1.84,1.23s.1-2,.36-2.33a8.86,8.86,0,0,0,1.38-4.41C17.66,5.77,16.17,9,15.93,9.63Z"/><path class="cls-2" d="M15.93,8.77c-.53,1.4-1.1,2.71-1.57,4.12A5.47,5.47,0,0,1,11,16.26c-.81.38-1.59.8-2.4,1.21-.47.24-2.24.7-2.34,1.2a.24.24,0,0,0-.12.14c1,.22,3-.87,4-1.29l2.94-1.4c3.7-1.81,7.69,1.86,11,2.59.95.21,2.73.65.94-.77a11.49,11.49,0,0,0-2.26-1c-1-.47-5.78-1.2-5.27-2.32.24-.52,2.44-.69,3.1-.59a6,6,0,0,1,3.05,1.27A15.4,15.4,0,0,0,27.68,18c.61.23,2.59.29,2.85-.09s-1.78-1.42-2.31-1.74c-1.44-.87-3.17-1.36-4.72-2.12-.58-.28-4-1.12-1.22-1.62A9,9,0,0,1,24.39,12c3.2.31,8.89,5.53,9.39,4.58.72-1.38-7.5-5.12-7.58-5.42-.25-.9,1.86-.54,2.39-.46a24.54,24.54,0,0,0,3.75.19,8.76,8.76,0,0,0,4.84-1.13C40,7.88,36.24,7.53,34.39,8c-1.43.35-7.25,2.29-8.71,1.84-.49-.15.07-.85.68-1.58.28-.33,5-5.21,3.73-5.16-2.45.49-4.62,5.93-6.83,7.52-.44.32-3,1.7-3.46,1s1.45-2.13,1.8-2.54c.65-.77,2.52-3.63,2.54-4.27,0-1.65-3.15,2.27-3.47,2.83A24.79,24.79,0,0,1,17.92,12c-.25.29-1.27,1.71-1.84,1.23s.1-2,.36-2.33a8.83,8.83,0,0,0,1.38-4.41C17.66,4.9,16.17,8.1,15.93,8.77Z"/><path class="cls-1" d="M6.1,11.34c.27,1.33.44,2.59.77,3.91.38,1.52,0,2.54-1.27,3.79C5,19.6,4.54,20.18,4,20.76c-.32.34-2.38,1.34-1.59,1.85,1.38,1,2.34-1.61,3-2.25l2-2c2.49-2.61,8.24-.74,11.73-1.11,1-.11,1.76-.54.46-.93A13.72,13.72,0,0,0,17,16.15c-1.23-.08-6.09.72-6.22-.36-.06-.51,1.92-1.3,2.6-1.41a7.79,7.79,0,0,1,3.56.14,23.81,23.81,0,0,0,5.55.89c.71,0,1.78,0,1.49-.75-.21-.58-1.58-.72-2.25-.83-1.84-.3-3.73-.19-5.59-.36-.71-.06-4.37.26-2-1a8.2,8.2,0,0,1,1.77-1c3.18-.7,4.36.8,6.74,1,.82.07,5.15.91,4.59,0-.75-1.18-9.85-2-10.09-2.25-.73-.67,1.87-1.4,2.41-1.49a21.53,21.53,0,0,0,6.7-3.32c2.54-2.54-1.11-1.1-3-.38a19.48,19.48,0,0,0-5.21,3c-.55.44-3.06,2.87-2.34-.29.09-.35,1.92-4.83,1.14-5.34C14,3.94,15.2,8.7,14,10.69c-.24.39-1.93,2.32-2.68,1.89s.2-2.2.3-2.65c.19-.84.39-3.78.06-4.31C10.8,4.23,9.94,8.44,10,9a16.94,16.94,0,0,1-.22,4.44c-.07.31-.25,1.79-1.05,1.57s-1-1.68-.94-2A7.26,7.26,0,0,0,6.63,8.88C5.61,7.61,6,10.72,6.1,11.34Z"/><path class="cls-3" d="M5.58,10.58c.28,1.33.45,2.59.78,3.9C6.74,16,6.31,17,5.08,18.28c-.55.56-1,1.14-1.59,1.72-.31.34-2.38,1.34-1.59,1.85,1.39,1,2.34-1.62,3-2.25l2-2.05c2.49-2.61,8.25-.73,11.73-1.1,1-.11,1.76-.54.47-.93a13.86,13.86,0,0,0-2.67-.13c-1.23-.08-6.09.72-6.22-.37-.06-.5,1.92-1.3,2.6-1.41a7.92,7.92,0,0,1,3.56.15,23.36,23.36,0,0,0,5.55.88c.71,0,1.78,0,1.5-.74-.22-.59-1.58-.73-2.26-.84-1.83-.29-3.73-.18-5.59-.35-.71-.07-4.37.25-2-1a8.29,8.29,0,0,1,1.77-1c3.18-.69,4.36.81,6.74,1,.82.07,5.15.91,4.59,0-.74-1.18-9.85-2-10.09-2.25C15.82,8.85,18.42,8.13,19,8a21.72,21.72,0,0,0,6.71-3.33c2.54-2.54-1.11-1.1-3-.38a20.11,20.11,0,0,0-5.21,3c-.54.44-3,2.87-2.33-.29.08-.36,1.91-4.83,1.13-5.35-2.74,1.5-1.55,6.26-2.76,8.24-.24.4-1.93,2.33-2.68,1.9s.2-2.21.3-2.65c.19-.84.39-3.78.06-4.31-.87-1.4-1.73,2.82-1.71,3.39a17.3,17.3,0,0,1-.22,4.43c-.07.31-.26,1.8-1.06,1.57s-1-1.67-.93-2.05A7.23,7.23,0,0,0,6.12,8.12C5.09,6.84,5.45,10,5.58,10.58Z"/><path class="cls-4" d="M2.73,21.87c.36-.15.73-.87,1-1.12s.45-.8.79-1.14c.73-.72,1.44-1.45,2.16-2.17,1.51-1.51,3.2-2.91,4.82-4.33s3.1-2.65,4.78-3.87a57.82,57.82,0,0,1,5.43-3.42,26.13,26.13,0,0,1,3.77-1.91c.1,0,.91-.37.88-.44a4.56,4.56,0,0,0-1,.27,33.28,33.28,0,0,0-5.45,2.79,50.58,50.58,0,0,0-5.24,3.54c-1.64,1.27-3.18,2.62-4.71,4-.8.72-1.63,1.41-2.42,2.13S6,17.63,5.32,18.36c-.49.48-1,1-1.47,1.45S2.58,20.89,2.19,21.3C2.05,21.46,2.73,21.87,2.73,21.87Z"/><path class="cls-4" d="M6.61,17.35c.32-.08.37-.48.42-.7.09-.39.12-.79.18-1.18a9.13,9.13,0,0,0-1.16-4.74c-.12-.15.38,1.18.46,1.55a9.52,9.52,0,0,1,.36,2.94c0,.32-.07.65-.11,1,0,.17-.06.34-.1.51s-.28.7,0,.65Z"/><path class="cls-4" d="M8.25,15.82A11.63,11.63,0,0,0,10,16l2.33-.09c-.56,0-3.43-.24-4-.33-.22,0-.34.25-.12.28Z"/><path class="cls-4" d="M11.26,13.39a11.22,11.22,0,0,1,1.41-.14c.23,0,2.19-.3,2-.28-.5,0-2.94,0-3.43.14-.23,0-.16.33.06.28Z"/><path class="cls-4" d="M10.16,14.26A5.21,5.21,0,0,0,10,10.57c-.09-.17,0,.55,0,.89a5.39,5.39,0,0,1-.15,2.73c-.09.18.25.26.33.07Z"/><path class="cls-4" d="M13.91,11a12,12,0,0,0,.71-3.9c0-.19-.27.79-.26,1a7.09,7.09,0,0,1-.79,2.84c-.08.19.26.27.34.08Z"/><path class="cls-4" d="M15,10.26c.62.07,1.25-.09,1.86,0a7.62,7.62,0,0,0,1.37.12A6.68,6.68,0,0,0,17,10.1C16.32,10,15.66,10,15,10a.15.15,0,1,0,0,.29Z"/></svg>