<svg id="Layer_1" data-name="Layer 1" xmlns="http://www.w3.org/2000/svg" viewBox="0 0 93.26 48.09"><defs><style>.cls-1{fill:#fff;opacity:0.51;}.cls-1,.cls-2,.cls-3,.cls-5,.cls-6,.cls-7,.cls-8{fill-rule:evenodd;}.cls-2{fill:#f8f4f2;}.cls-3{fill:#e8e1de;}.cls-4{fill:#f7a900;}.cls-5{fill:#f49d00;}.cls-6{fill:#f18a00;}.cls-7{fill:#fcc200;}.cls-8{fill:#fbf7cc;}</style></defs><path class="cls-1" d="M89.59,29.66c-3.14-1.94-13.44-3.2-13.33-6.48q0-.32.06-.63a16.19,16.19,0,0,1,1.05-3.31c.89-2.23,1.74-4.42.23-5.9a3.08,3.08,0,0,0-.47-.37L77,12.86l-.47-.27-.21-.1a8.27,8.27,0,0,0-.78-.34l-.22-.08-.7-.25-.39-.12-.71-.21-.38-.11-1-.26.1,0c-12-2.89-38-3.76-37.06-.8.39,1.2,3.83,2.66,2.74,3.41S24.4,15,14.43,16.74h0L13.07,17l-.48.1-.9.19-.53.11-.83.19-.49.12-.9.24L8.59,18c-.39.11-.78.22-1.15.34l-.3.11q-.4.12-.78.27L6,18.89c-.22.08-.43.17-.63.26L5,19.3l-.61.3-.25.13a8.33,8.33,0,0,0-.73.46l-.11.08a5,5,0,0,0-.49.4l-.17.17a3.38,3.38,0,0,0-.31.35,1.27,1.27,0,0,0-.13.19,2.82,2.82,0,0,0-.21.38c0,.06,0,.11-.07.17a2,2,0,0,0-.13.58A5.44,5.44,0,0,0,4,26.67,13.65,13.65,0,0,0,5.69,28a18.9,18.9,0,0,0,5.77,2.57,18.05,18.05,0,0,0,2.49.29c1.73.13,3.89.2,5.75.29A6.58,6.58,0,0,1,24,32.55l.07.06c1.11,1,1.47,2.47,2.14,3.75l.22.41.32.49A5.54,5.54,0,0,0,31,39.36a14.06,14.06,0,0,0,1.68.1c1.24,0,2.93.08,4.8.19l3.34.24,1.72.14c3.42.31,6.73.71,8.62,1.1a7.87,7.87,0,0,1,1.13.29c.27.09.44.19.47.28a.1.1,0,0,1,0,.09,2.13,2.13,0,0,0-.29.59.32.32,0,0,0,0,.22c.14.25.68.42,2.11.43H55l.94,0,.61,0c.58,0,1.23-.07,2-.13l1.63-.15L62,42.5c3.37-.35,6.49-.78,9.34-1.26,1.13-.19,2.22-.39,3.26-.6l1.53-.31c1.49-.32,2.86-.66,4.11-1a36.43,36.43,0,0,0,5.16-1.79,14.1,14.1,0,0,0,2.25-1.28,11.76,11.76,0,0,0,1.25-1q.28-.27.54-.54a7.47,7.47,0,0,0,.84-1.1,5,5,0,0,0,.29-.56A3.22,3.22,0,0,0,90.88,32,2.35,2.35,0,0,0,89.59,29.66Z"/><path class="cls-2" d="M32.63,39.46c5.68,0,20.65,1.38,20.07,2.33s-1.46,1.84,9.32.71,19.11-3,23.4-5,7.32-5.94,4.17-7.88-13.44-3.2-13.33-6.48S80,15.7,77.6,13.34l-.24-.21h0a2.83,2.83,0,0,0-.28-.2h0l-.33-.19,0,0-.35-.18,0,0L76,12.34l-.07,0-.38-.16-.1,0L75,12l-.14-.05-.38-.12-.2-.07-.36-.11-.26-.07-.32-.1L73,11.37l-.31-.08-.39-.1-.28-.07c1.09.28,5,1.5,4.94,4.33-.12,3.27-7,6.36-7.49,9.06S77,27.72,82.73,29.23s4.1,7-8.31,10.14-18.25,2.8-19.29,2.45,3.9-1.45,1.45-1.73-13.91-.38-17.37-1.26S28,38.39,27.75,35.75s1.14-5.54-5-6.49-11.9-1.88-15.86-3.9-3-6.29,7.57-8.62l-.64.12-.19,0L13,17l-.14,0-.66.13-.12,0-.59.12-.13,0-.63.14-.11,0-.56.14-.14,0-.6.15-.09,0L8.71,18,8.6,18,8,18.19l-.09,0-.52.17-.1,0-.53.17,0,0c-.17.06-.35.12-.51.19l-.08,0L5.7,19l-.06,0-.46.2-.07,0-.42.2,0,0-.42.22-.05,0-.36.21,0,0c-.13.07-.24.15-.36.23l0,0-.31.24,0,0-.28.25,0,0L2.5,21l0,0c-.07.09-.15.18-.21.27h0a2.61,2.61,0,0,0-.17.28v0a1.85,1.85,0,0,0-.13.29H2a1.4,1.4,0,0,0-.09.29v0c0,.1,0,.2,0,.3-.25,4.06,6.64,7.41,9.65,8.06a76.6,76.6,0,0,0,8.24.58C28.59,31.54,22.72,39.41,32.63,39.46Z"/><path class="cls-3" d="M4.65,19.47c-1.71.85-2.77,1.86-2.84,3-.25,4.06,6.64,7.41,9.65,8.06a76.6,76.6,0,0,0,8.24.58c8.89.39,3,8.26,12.93,8.31h.82C25.06,38.13,26,34.15,26,33.12s-.21-1.55-2.27-2.17-7.9-.62-12.6-1.24-8.31-4.22-8.73-6.56S4.57,19.51,4.65,19.47Z"/><path class="cls-3" d="M32.63,39.46c.49,0,1,0,1.64,0-1.55-.08-2.66-.11-3-.1Q31.92,39.46,32.63,39.46Zm5.41.23c6.61.43,15.1,1.38,14.66,2.1-.57,1-1.46,1.84,9.32.71s19.11-3,23.4-5,7.32-5.94,4.17-7.88-13.44-3.2-13.33-6.48S80,15.7,77.6,13.34a3,3,0,0,0-.37-.31c.39.31,1.34,1.34.42,3.64-1.13,2.84-4.08,5.17-4.13,7s2.38,2,3.31,2.27,11.81,2.52,12.54,5.21-1.75,5-4.64,6.2-14.41,3.77-19.24,4.39-11.72,1.83-11.88.7.73-1-.51-1.55C52.3,40.59,44.16,40,38,39.69Z"/><ellipse class="cls-4" cx="52.21" cy="24.57" rx="13.59" ry="8.12"/><path class="cls-5" d="M55.41,16.68c6,.86,10.39,4.07,10.39,7.89,0,4.49-6.08,8.12-13.59,8.12s-13.6-3.63-13.6-8.12c0-2.88,2.52-5.41,6.31-6.85C31.05,23.57,48.77,33.9,60,27.53,65.48,24.44,63.32,18.32,55.41,16.68Z"/><path class="cls-6" d="M64.24,20.8a5.67,5.67,0,0,1,1.56,3.77c0,4.49-6.08,8.12-13.59,8.12s-13.6-3.63-13.6-8.12a5,5,0,0,1,.23-1.48c0,.08-.48,6.13,8.52,8.25S68.47,28.94,64.24,20.8Z"/><path class="cls-7" d="M49.5,17.37s-6.82,1.23-7.93,4.34,2.71,5.16,7.68,5.54,1.76-3.78,4.66-4.59C63.6,19.92,55.85,16.63,49.5,17.37Z"/><path class="cls-8" d="M47.64,18.2s-3.11.84-3.77,1.86.83,1.23,1.76.72a30.39,30.39,0,0,1,3.18-1.63C49.45,18.94,50.62,17.62,47.64,18.2Z"/><path class="cls-8" d="M49.11,19.65c-.66.44-1.58.77-1.14,1.23C49,22,52.73,17.6,49.11,19.65Z"/></svg>