<svg id="Layer_1" data-name="Layer 1" xmlns="http://www.w3.org/2000/svg" viewBox="0 0 93.26 48.09"><defs><style>.cls-1{fill:#efe4d6;}.cls-1,.cls-2,.cls-3,.cls-5,.cls-6{fill-rule:evenodd;}.cls-2{fill:#a8621a;opacity:0.43;}.cls-3{fill:#b6927a;}.cls-4{fill:#bf662c;}.cls-5{fill:#cf962e;}.cls-6{fill:#fbf7cc;}.cls-7{fill:#987450;}.cls-8{fill:#9b7654;}</style></defs><path class="cls-1" d="M89.59,29.59c-3.14-1.9-13.44-3.14-13.33-6.37,0-.2,0-.4.06-.61a15.71,15.71,0,0,1,1.05-3.25c.89-2.2,1.74-4.35.23-5.8a3.08,3.08,0,0,0-.47-.37l-.18-.1-.47-.27-.21-.1c-.24-.11-.49-.22-.78-.33l-.22-.08-.7-.24L74.18,12l-.71-.21-.38-.1-1-.26.1,0c-12-2.85-38-3.69-37.06-.79.39,1.18,3.83,2.61,2.74,3.35S24.4,15.18,14.43,16.9h0l-1.36.25-.48.09-.9.19-.53.11-.83.19-.49.11-.9.23-.35.1c-.39.1-.78.22-1.15.33l-.3.11-.78.26L6,19c-.22.08-.43.17-.63.26L5,19.42c-.22.09-.42.19-.61.29l-.25.13a8.29,8.29,0,0,0-.73.44l-.11.09a4.93,4.93,0,0,0-.49.39,1.37,1.37,0,0,0-.17.17,3.28,3.28,0,0,0-.31.34,1.27,1.27,0,0,0-.13.19,2.71,2.71,0,0,0-.21.37c0,.06,0,.11-.07.17a2,2,0,0,0-.13.57A5.29,5.29,0,0,0,4,26.65,13.53,13.53,0,0,0,5.69,28a19.42,19.42,0,0,0,5.77,2.53,20.11,20.11,0,0,0,2.49.28c1.73.13,3.89.2,5.75.28A6.7,6.7,0,0,1,24,32.43l.07.06c1.11,1,1.47,2.42,2.14,3.69.07.13.14.26.22.39s.21.33.32.49A5.59,5.59,0,0,0,31,39.13a16.71,16.71,0,0,0,1.68.09c1.24,0,2.93.07,4.8.19,1.07.06,2.2.14,3.34.23l1.72.14c3.42.31,6.73.69,8.62,1.08a9.76,9.76,0,0,1,1.13.28c.27.1.44.19.47.28a.1.1,0,0,1,0,.09,2,2,0,0,0-.29.58.33.33,0,0,0,0,.22c.14.24.68.41,2.11.42H55l.94,0,.61,0c.58,0,1.23-.07,2-.13l1.63-.14L62,42.21c3.37-.35,6.49-.77,9.34-1.24,1.13-.19,2.22-.38,3.26-.59l1.53-.31c1.49-.31,2.86-.64,4.11-1a36.78,36.78,0,0,0,5.16-1.76,14,14,0,0,0,2.25-1.26,10.53,10.53,0,0,0,1.25-1c.19-.17.37-.35.54-.52a8,8,0,0,0,.84-1.09,4.14,4.14,0,0,0,.29-.55,3.12,3.12,0,0,0,.29-1.06A2.31,2.31,0,0,0,89.59,29.59Z"/><path class="cls-2" d="M32.63,39.22c5.68,0,20.65,1.36,20.07,2.29s-1.46,1.81,9.32.7,19.11-3,23.4-4.88,7.32-5.84,4.17-7.74-13.44-3.14-13.33-6.37S80,15.88,77.6,13.56l-.24-.21h0l-.28-.2h0a2.59,2.59,0,0,0-.33-.19l0,0-.35-.17,0,0L76,12.58l-.07,0-.38-.16-.1,0L75,12.22l-.14-.05L74.49,12l-.2-.06-.36-.11-.26-.07-.32-.09L73,11.62l-.31-.08-.39-.09-.28-.07c1.09.28,5,1.47,4.94,4.25-.12,3.22-7,6.25-7.49,8.9S77,27.69,82.73,29.17s4.1,6.87-8.31,10-18.25,2.75-19.29,2.41,3.9-1.42,1.45-1.7-13.91-.37-17.37-1.24-11.21-.43-11.46-3,1.14-5.44-5-6.37-11.9-1.85-15.86-3.83-3-6.18,7.57-8.47l-.64.11-.19,0-.57.1-.14,0-.66.13-.12,0-.59.12-.13,0-.63.13-.11,0-.56.13-.14,0-.6.15-.09,0-.55.14-.11,0L8,18.32l-.09,0-.52.16-.1,0-.53.17,0,0-.51.18-.08,0-.47.18-.06,0-.46.2-.07,0-.42.2h0l-.42.22-.05,0L3.82,20l0,0c-.13.07-.24.15-.36.23l0,0a3.55,3.55,0,0,0-.31.23l0,0-.28.25h0l-.25.25,0,0a2.65,2.65,0,0,0-.21.26h0c-.06.09-.12.18-.17.27v0A1.85,1.85,0,0,0,2,22H2a1.9,1.9,0,0,0-.09.29v0c0,.1,0,.2,0,.3-.25,4,6.64,7.28,9.65,7.92a77.5,77.5,0,0,0,8.24.56C28.59,31.44,22.72,39.17,32.63,39.22Z"/><path class="cls-3" d="M4.65,19.58c-1.71.84-2.77,1.82-2.84,3-.25,4,6.64,7.28,9.65,7.92a77.5,77.5,0,0,0,8.24.56c8.89.39,3,8.12,12.93,8.17h.82C25.06,37.91,26,34,26,33s-.21-1.52-2.27-2.13-7.9-.61-12.6-1.22S2.86,25.49,2.44,23.2,4.57,19.62,4.65,19.58Z"/><path class="cls-3" d="M32.63,39.22c.49,0,1,0,1.64,0-1.55-.08-2.66-.11-3-.1Q31.92,39.22,32.63,39.22Zm5.41.23c6.61.42,15.1,1.35,14.66,2.06-.57.93-1.46,1.81,9.32.7s19.11-3,23.4-4.88,7.32-5.84,4.17-7.74-13.44-3.14-13.33-6.37S80,15.88,77.6,13.56a3,3,0,0,0-.37-.3c.39.3,1.34,1.31.42,3.57-1.13,2.79-4.08,5.08-4.13,6.9s2.38,2,3.31,2.24,11.81,2.47,12.54,5.12S87.62,36,84.73,37.18s-14.41,3.7-19.24,4.31-11.72,1.8-11.88.68.73-1-.51-1.52C52.3,40.33,44.16,39.78,38,39.45Z"/><ellipse class="cls-4" cx="52.21" cy="24.6" rx="13.59" ry="7.98"/><path class="cls-2" d="M55.41,16.84c6,.85,10.39,4,10.39,7.76,0,4.4-6.08,8-13.59,8s-13.6-3.57-13.6-8c0-2.84,2.52-5.32,6.31-6.74C31.05,23.61,48.77,33.76,60,27.5,65.48,24.46,63.32,18.46,55.41,16.84Z"/><path class="cls-5" d="M64.24,20.88A5.55,5.55,0,0,1,65.8,24.6c0,4.4-6.08,8-13.59,8s-13.6-3.57-13.6-8a4.91,4.91,0,0,1,.23-1.47c0,.09-.48,6,8.52,8.11S68.47,28.89,64.24,20.88Z"/><path class="cls-5" d="M49.5,17.52s-6.82,1.21-7.93,4.26,2.71,5.07,7.68,5.44,1.76-3.71,4.66-4.51C63.6,20,55.85,16.79,49.5,17.52Z"/><path class="cls-6" d="M47.64,18.34s-3.11.82-3.77,1.82.83,1.21,1.76.71a31.84,31.84,0,0,1,3.18-1.61C49.45,19.06,50.62,17.76,47.64,18.34Z"/><path class="cls-6" d="M49.11,19.76c-.66.43-1.58.76-1.14,1.2C49,22.05,52.73,17.74,49.11,19.76Z"/><path class="cls-7" d="M25.73,27.83,29.82,26c.59-.26.18-.78-.33-.68l-9,1.78.45.62a22.1,22.1,0,0,1,5.83-3c.63-.22.47-.87-.19-.73-3.44.68-6.87,1.35-10.36,1.72l.49.35c0-.15.74-.36.87-.42l1-.43,1.69-.76,3.62-1.62c.65-.3.08-.88-.47-.64l-4.47,2-2.17,1c-.48.22-.95.43-1.1,1-.07.26.31.38.49.36,3.57-.38,7.11-1.07,10.63-1.77L26.6,24a23.89,23.89,0,0,0-6.34,3.24c-.48.35,0,.69.45.62l9-1.79-.33-.68L25.27,27.2c-.66.29-.08.87.46.63Z"/><path class="cls-7" d="M15.46,19.94l-4,2c-.57.28-.2.81.33.68l8.82-2.06-.45-.61a22,22,0,0,1-5.79,3.26c-.59.23-.18.8.33.68,3.37-.79,6.75-1.57,10.18-2l-.48-.36c-.05.19-.68.39-.83.47l-.94.46L21,23.19l-3.53,1.75c-.64.32-.07.9.47.63l4.35-2.15c.71-.35,1.42-.69,2.12-1.05.47-.23.94-.45,1.07-1,.06-.26-.3-.38-.49-.36-3.53.49-7,1.29-10.46,2.1l.33.68a23.23,23.23,0,0,0,6-3.4c.45-.36,0-.71-.44-.62l-8.83,2.07.33.68,4-2c.64-.32.07-.9-.47-.64Z"/><path class="cls-7" d="M25.21,23.7,21.1,25.48c-.59.26-.18.78.33.69l9-1.72L30,23.83a22,22,0,0,1-5.87,3c-.64.22-.47.86.19.74,3.45-.66,6.9-1.31,10.39-1.65l-.46-.45c-.07.26-.69.42-.9.51l-1,.42-1.71.75L27,28.7c-.66.29-.08.87.47.64l4.37-1.92,2.07-.9c.46-.2,1.16-.42,1.32-1,.08-.3-.16-.48-.46-.45-3.59.35-7.13,1-10.67,1.69l.19.74a24.47,24.47,0,0,0,6.38-3.2c.48-.35-.06-.69-.45-.62l-9,1.72.33.69,4.11-1.79c.66-.29.08-.87-.47-.63Z"/><path class="cls-7" d="M35.45,31.63l4-1.92c.57-.27.19-.8-.33-.68l-8.87,2,.45.61a22.06,22.06,0,0,1,5.84-3.22c.59-.23.18-.8-.34-.68-3.38.77-6.77,1.52-10.22,2l.49.36c0-.18.69-.39.84-.46l.94-.46,1.66-.8,3.55-1.71c.64-.32.07-.9-.47-.64l-4.38,2.12-2.13,1c-.46.23-.94.45-1.07,1-.06.25.3.38.48.35,3.55-.46,7-1.23,10.51-2l-.33-.68A23.11,23.11,0,0,0,30,31.15c-.45.35,0,.7.45.61l8.86-2L39,29.08,35,31c-.64.31-.07.89.47.63Z"/><path class="cls-8" d="M76.16,32.48l1.59-3.87c.19-.45-.62-.47-.8-.19l-4.48,6.72.83.1a26.21,26.21,0,0,1,2.15-6c.22-.44-.62-.47-.8-.19-1.72,2.58-3.44,5.16-5.38,7.57l.82,0c-.09-.26.1-.58.19-.82l.37-.9.73-1.78,1.46-3.58c.2-.48-.71-.49-.86-.11L70.4,33.32l-.79,1.94c-.19.45-.6,1.12-.42,1.62.12.33.65.24.83,0,1.94-2.42,3.66-5,5.38-7.58l-.81-.19a27.19,27.19,0,0,0-2.2,6.17c-.09.42.69.33.83.11L77.7,28.7l-.81-.19L75.3,32.37c-.19.48.71.48.86.11Z"/><path class="cls-8" d="M66.31,32.33l-1.47,3.91c-.19.52.67.42.86.11L70,29.5l-.89,0a25.83,25.83,0,0,1-1.95,6.06c-.09.21.09.36.28.39a.59.59,0,0,0,.58-.28c1.62-2.6,3.24-5.2,5.08-7.65l-.82,0c.1.26-.07.59-.17.83l-.34.93-.66,1.78-1.35,3.62c-.18.49.72.5.86.11L72,31.32l.72-1.93c.17-.46.57-1.15.37-1.65-.12-.31-.64-.25-.82,0-1.89,2.5-3.54,5.16-5.19,7.81l.86.11a26.33,26.33,0,0,0,2-6.23c.09-.5-.74-.26-.88,0l-4.26,6.85.86.11,1.46-3.91c.19-.49-.71-.49-.85-.11Z"/></svg>