<svg id="Layer_1" data-name="Layer 1" xmlns="http://www.w3.org/2000/svg" viewBox="0 0 184.15 78.84"><defs><style>.cls-1{fill:#d9d9d9;}.cls-2{fill:#f3f3f3;}.cls-3{fill:#eae9e9;}.cls-4{fill:#995d24;}.cls-5{fill:#84491c;}.cls-6{fill:#e1924a;}.cls-7{fill:#d6a150;}.cls-8{fill:#cba669;}.cls-9{fill:#f5c97e;}.cls-10{fill:#e1b257;}.cls-11{fill:#fff;}.cls-11,.cls-12,.cls-13,.cls-15,.cls-16,.cls-17,.cls-18{fill-rule:evenodd;}.cls-12{fill:#f8f4f2;}.cls-13{fill:#e8e1de;}.cls-14{fill:#f7a900;}.cls-15{fill:#f49d00;}.cls-16{fill:#f18a00;}.cls-17{fill:#fcc200;}.cls-18{fill:#fbf7cc;}</style></defs><path class="cls-1" d="M184.15,41.39c0,19.72-40.33,35.71-90.09,35.71S4,61.11,4,41.39,44.31,5.68,94.06,5.68,184.15,21.67,184.15,41.39Z"/><ellipse class="cls-2" cx="94.06" cy="39.59" rx="90.09" ry="35.71"/><path class="cls-3" d="M155.5,35.92c0,13.45-27.5,24.35-61.44,24.35S32.62,49.37,32.62,35.92,60.13,11.56,94.06,11.56,155.5,22.46,155.5,35.92Z"/><path class="cls-2" d="M153.37,36.36c0,12.76-26.55,23.11-59.31,23.11s-59.3-10.35-59.3-23.11,26.55-23.11,59.3-23.11S153.37,23.6,153.37,36.36Z"/><path class="cls-4" d="M108,11.33c4.1,0,33.6,3.64,47.19,9.74,4.37,2,2.15,10.48,1.36,12.06-2.28,4.55-59.06,23-58.73,25.35S99,67.65,90.2,71.72c-8.26,3.81-26.08,6-49-11C30.54,52.78,23.6,30.17,34.87,24.53c9.5-4.74,17.83,6.47,22.57,4.78S100.18,11.33,108,11.33Z"/><path class="cls-5" d="M91.34,64c-.9-.71-2.38-.3-3.13-1.24-.88-1.12,0-2.06-1.24-3-2.44-1.87-5.24-1.47-8-1.62a12.69,12.69,0,0,1-9-4.08,47.56,47.56,0,0,0-11.51-8.93c-2.8-1.51-5.74-2.81-8.66-4-2.16-.9-4.59-1.52-6.71-2.52-3.44-1.61-4.25-6.08-6.29-8.94-1.36-1.9-2.51-3.1-4.05-3.69C24.29,33.13,31,53.42,41,60.84c22.92,17,40.73,14.82,49,11a19.8,19.8,0,0,0,1.85-1l0-.39C91.64,68.73,92.89,65.22,91.34,64Z"/><path class="cls-6" d="M105.11,2.44c6.15,0,53.25,14.92,50.88,19.67-2.28,4.55-61.39,25.1-61.05,27.47s4.41,7.8-4.41,11.87c-8.26,3.82-30.18,6.11-50.2-11.53-9.06-8-14.32-21.84-3-27.47,9.5-4.75,12.55-.34,17.3-2S97.31,2.44,105.11,2.44Z"/><path class="cls-7" d="M104.22,4.18c5.7,0,49.69,13.25,47.48,17.64C149.59,26,92,46.16,92.31,48.35S97,55.9,88.84,59.66C81.17,63.18,62.21,65.34,43.62,49c-8.42-7.38-15-20-4.52-25.26,8.82-4.39,13.34-.45,17.75-2S97,4.18,104.22,4.18Z"/><path class="cls-4" d="M131,35.86c-2.87,1-5.3,2.77-8.14,3.75-3.28,1.14-6.83,1.7-10,2.94-2.76,1.08-5.32,2.24-8.08,3.41-1.82.77-7,3.1-7.9,2.94l-.21.7c-.42.82.72,4,1.75,4.62,2.05,1.33,3-.25,4.46-1.51,3.69-3.21,7.69-4.57,12.48-6.34s9.63-3.8,14.46-5.24C134,39.91,137.44,33.68,131,35.86Z"/><path class="cls-8" d="M44.82,29.2a19.52,19.52,0,0,0,3.57-.48c.85-.17.49-1.46-.35-1.29a18.46,18.46,0,0,1-3.22.43.67.67,0,0,0,0,1.34Z"/><path class="cls-8" d="M42.8,34.63a12.45,12.45,0,0,0,.47,2.9.68.68,0,0,0,1.3-.36,11,11,0,0,1-.43-2.54.67.67,0,0,0-1.34,0Z"/><path class="cls-8" d="M45.78,44.55l4.07.68c.84.14,1.21-1.15.35-1.29l-4.07-.68c-.84-.14-1.21,1.15-.35,1.29Z"/><path class="cls-8" d="M58.62,47.06a.67.67,0,0,0,0-1.34.67.67,0,0,0,0,1.34Z"/><path class="cls-8" d="M58.62,47.06a12.74,12.74,0,0,0,2.89-.25c.84-.19.48-1.49-.36-1.29a11.28,11.28,0,0,1-2.53.2.67.67,0,0,0,0,1.34Z"/><path class="cls-8" d="M64.09,54.73a19.37,19.37,0,0,0,3.57.25.68.68,0,0,0,0-1.35,17.26,17.26,0,0,1-3.21-.2c-.85-.15-1.21,1.14-.36,1.3Z"/><path class="cls-8" d="M78.87,54.42a9,9,0,0,0,1.2-2,.69.69,0,0,0-.47-.83.7.7,0,0,0-.83.47,7.73,7.73,0,0,1-1.06,1.65c-.49.72.68,1.39,1.16.68Z"/><path class="cls-8" d="M69.24,43.22a11.75,11.75,0,0,0,4-.7c.8-.31.45-1.61-.36-1.3a10.64,10.64,0,0,1-3.67.66.67.67,0,0,0,0,1.34Z"/><path class="cls-8" d="M57.71,35.76a6.67,6.67,0,0,0,2-.25c.82-.26.47-1.56-.36-1.3a5,5,0,0,1-1.63.2.68.68,0,0,0,0,1.35Z"/><path class="cls-8" d="M58.39,26a.67.67,0,0,0,0-1.34.67.67,0,0,0,0,1.34Z"/><path class="cls-8" d="M58.62,26h3.84a.67.67,0,0,0,0-1.34H58.62a.67.67,0,0,0,0,1.34Z"/><path class="cls-8" d="M73.22,30.9l1.35-2c.48-.73-.68-1.4-1.16-.68l-1.35,2c-.48.73.68,1.4,1.16.68Z"/><path class="cls-8" d="M70.1,20.58c1.34-.43,2.73-.7,4.07-1.13.82-.26.47-1.56-.35-1.29-1.35.43-2.73.7-4.08,1.13-.82.26-.46,1.56.36,1.29Z"/><path class="cls-8" d="M83.92,19.73l1.13,1.13a.67.67,0,1,0,1-.95l-1.13-1.13a.67.67,0,0,0-1,.95Z"/><path class="cls-8" d="M87.66,51.25a3.48,3.48,0,0,1,.59,1.93.67.67,0,0,0,1.34,0,4.85,4.85,0,0,0-.77-2.6c-.47-.73-1.63-.06-1.16.67Z"/><path class="cls-8" d="M103.28,35.21a11.5,11.5,0,0,1,2.77-.83c.85-.18.49-1.47-.35-1.3a12.84,12.84,0,0,0-3.1,1c-.78.38-.1,1.54.68,1.16Z"/><path class="cls-8" d="M102.44,27.37c1.19-.48,2.39-.95,3.61-1.36.82-.28.47-1.57-.35-1.29-1.22.41-2.42.87-3.62,1.35-.79.32-.45,1.62.36,1.3Z"/><path class="cls-8" d="M94.07,14.25a14.26,14.26,0,0,0,3.33-1.2c.77-.38.09-1.54-.68-1.16a12.85,12.85,0,0,1-3,1.07c-.84.18-.48,1.47.36,1.29Z"/><path class="cls-8" d="M100.85,8.15a6.34,6.34,0,0,1,3.27.67c.8.32,1.15-1,.35-1.29a7.29,7.29,0,0,0-4-.68c-.85.17-.49,1.47.35,1.3Z"/><path class="cls-8" d="M112.55,12.37a9,9,0,0,0,3.73,1,.67.67,0,0,0,0-1.34,7.61,7.61,0,0,1-3.06-.81c-.77-.38-1.45.78-.67,1.15Z"/><path class="cls-8" d="M104.52,18.57a.67.67,0,0,0,0-1.34.67.67,0,0,0,0,1.34Z"/><path class="cls-8" d="M104.86,18.48a13.36,13.36,0,0,1,2.55-.84.67.67,0,0,0-.36-1.29,15.39,15.39,0,0,0-2.87,1c-.78.38-.1,1.53.68,1.16Z"/><path class="cls-8" d="M117.13,27.37c1.21-.24,2.42-.44,3.62-.68.85-.17.49-1.46-.35-1.3-1.21.24-2.42.44-3.62.68-.85.17-.49,1.46.35,1.3Z"/><path class="cls-8" d="M116.68,33.7a14.48,14.48,0,0,0,2.65-1c.78-.39.1-1.54-.68-1.16a11.47,11.47,0,0,1-2.32.83.67.67,0,0,0,.35,1.3Z"/><path class="cls-8" d="M122.28,20.5c.52-.76,1.07-1.5,1.59-2.26s-.68-1.39-1.16-.68-1.07,1.5-1.58,2.26.67,1.39,1.15.68Z"/><path class="cls-8" d="M132.51,23.3a23.23,23.23,0,0,1,5.25-.66.67.67,0,0,0,0-1.34,25.27,25.27,0,0,0-5.61.7c-.84.2-.48,1.5.36,1.3Z"/><path class="cls-9" d="M54.14,50.2a19.16,19.16,0,0,1,3.17.91c.8.32,1.15-1,.36-1.3a19.7,19.7,0,0,0-3.17-.9c-.85-.17-1.21,1.12-.36,1.29Z"/><path class="cls-9" d="M65.29,49.68a10.74,10.74,0,0,1,3.23-1.28c.84-.19.49-1.48-.36-1.3a11.76,11.76,0,0,0-3.55,1.43.67.67,0,0,0,.68,1.15Z"/><path class="cls-9" d="M62.94,39.18a8.81,8.81,0,0,1,3-2.38c.77-.4.09-1.55-.68-1.16A9.92,9.92,0,0,0,62,38.23c-.55.66.4,1.62.95,1Z"/><path class="cls-9" d="M49.46,38.15a9.2,9.2,0,0,0,2.65,1.2.67.67,0,0,0,.35-1.29A8,8,0,0,1,50.14,37c-.73-.47-1.4.69-.68,1.16Z"/><path class="cls-9" d="M51.33,33.25a16.66,16.66,0,0,0,2-.75.67.67,0,0,0,.24-.92.68.68,0,0,0-.91-.24A12.6,12.6,0,0,1,51,32c-.82.27-.47,1.57.35,1.3Z"/><path class="cls-9" d="M66.94,26.24c1-.27,1.93-.69,2.94-.91.84-.18.48-1.47-.36-1.29-1,.21-2,.64-2.94.9a.67.67,0,0,0,.36,1.3Z"/><path class="cls-9" d="M78.4,40.19a5.17,5.17,0,0,0,3.91.74c.85-.15.49-1.44-.35-1.29A3.81,3.81,0,0,1,79.08,39c-.71-.5-1.38.67-.68,1.16Z"/><path class="cls-9" d="M78.06,59.73a26.75,26.75,0,0,0,3.8-.25c.85-.14.49-1.43-.36-1.3a21.92,21.92,0,0,1-3.44.2.68.68,0,0,0,0,1.35Z"/><path class="cls-9" d="M84.75,48.77a5.48,5.48,0,0,1,1-1.23.66.66,0,0,0-.94-.94,6.31,6.31,0,0,0-1.24,1.49.67.67,0,0,0,1.16.68Z"/><path class="cls-9" d="M93.44,41.86a.67.67,0,0,0,0-1.34.67.67,0,0,0,0,1.34Z"/><path class="cls-9" d="M93.62,41.84l4.52-.68c.85-.12.49-1.42-.36-1.29-1.5.21-3,.46-4.52.67-.85.13-.49,1.42.36,1.3Z"/><path class="cls-9" d="M94.8,30.1h1.58a.67.67,0,0,0,0-1.34H94.8a.67.67,0,0,0,0,1.34Z"/><path class="cls-9" d="M79.82,28.72a12.28,12.28,0,0,0,3.1-1c.78-.38.1-1.53-.67-1.16a11.29,11.29,0,0,1-2.78.84c-.85.17-.49,1.46.35,1.29Z"/><path class="cls-9" d="M91.74,21l2.72-1.36c.77-.39.09-1.54-.68-1.16l-2.71,1.36c-.78.39-.1,1.54.67,1.16Z"/><path class="cls-9" d="M81.79,15.77A18.9,18.9,0,0,1,84.51,14c.77-.4.09-1.56-.68-1.16a18.81,18.81,0,0,0-2.71,1.81c-.69.51,0,1.68.67,1.16Z"/><path class="cls-9" d="M89.94,12.15a4.32,4.32,0,0,0,1.92.32.68.68,0,0,0,0-1.35A2.92,2.92,0,0,1,90.61,11a.67.67,0,1,0-.67,1.16Z"/><path class="cls-9" d="M95.47,9.07a4.46,4.46,0,0,1,1.41.21c.83.26,1.18-1,.36-1.3a5.87,5.87,0,0,0-1.77-.25.67.67,0,0,0,0,1.34Z"/><path class="cls-9" d="M104.52,13.82c.53,0,1,.21,1.58.23a.67.67,0,0,0,0-1.34c-.53,0-1-.21-1.58-.23a.67.67,0,0,0,0,1.34Z"/><path class="cls-9" d="M101.58,22.42a8.34,8.34,0,0,0,2.44-.25c.82-.26.47-1.55-.36-1.3a6.91,6.91,0,0,1-2.08.2.68.68,0,0,0,0,1.35Z"/><path class="cls-9" d="M112.21,22.64a.67.67,0,0,0,0-1.34.67.67,0,0,0,0,1.34Z"/><path class="cls-9" d="M112.55,22.55a7.57,7.57,0,0,1,2.1-1.29.67.67,0,0,0-.36-1.29,8.33,8.33,0,0,0-2.42,1.42c-.71.49,0,1.65.68,1.16Z"/><path class="cls-9" d="M109.61,30.69l2.71-2c.68-.52,0-1.68-.68-1.16l-2.71,2c-.68.51,0,1.68.68,1.16Z"/><path class="cls-9" d="M108.93,37.47a7.09,7.09,0,0,1,1.65-.83c.81-.28.46-1.58-.36-1.3a8.63,8.63,0,0,0-2,1c-.72.47,0,1.63.68,1.15Z"/><path class="cls-9" d="M125.32,28.29a30.8,30.8,0,0,0,4.7-.47c.86-.14.49-1.43-.35-1.3a27.63,27.63,0,0,1-4.35.43.67.67,0,0,0,0,1.34Z"/><path class="cls-9" d="M137.31,25.58a.67.67,0,0,0,0-1.34.67.67,0,0,0,0,1.34Z"/><path class="cls-9" d="M137.78,25.38a8.26,8.26,0,0,1,2.13-1.47c.77-.39.09-1.55-.68-1.16a9.56,9.56,0,0,0-2.4,1.69c-.62.6.33,1.55.95.94Z"/><path class="cls-9" d="M127.24,20.06a5.65,5.65,0,0,0,1.5-1c.62-.6-.33-1.55-1-.95a4.68,4.68,0,0,1-1.22.8.67.67,0,0,0,.67,1.16Z"/><path class="cls-9" d="M138.33,18.71A13.6,13.6,0,0,0,141,19.9a.67.67,0,0,0,.36-1.29A12.2,12.2,0,0,1,139,17.55c-.77-.39-1.45.76-.67,1.16Z"/><path class="cls-9" d="M119.67,12.24a11.35,11.35,0,0,1,2.53.43.67.67,0,0,0,.36-1.3,13.41,13.41,0,0,0-2.89-.47.67.67,0,0,0,0,1.34Z"/><path class="cls-9" d="M118.43,16.44l1.35-.67a.67.67,0,0,0-.67-1.16l-1.36.68a.66.66,0,0,0-.24.91.68.68,0,0,0,.92.24Z"/><path class="cls-9" d="M108,7.69a19.52,19.52,0,0,0,3.57.48.67.67,0,0,0,0-1.34,18.22,18.22,0,0,1-3.21-.43c-.85-.17-1.21,1.12-.36,1.29Z"/><path class="cls-10" d="M125.55,12.7c-3.71-1.32-7.35-2.18-11.08-3.67-4-1.6-6.85-3.06-11.31-2.89-3.27.13-7.47.88-10.35,2.55-3.58,2.07-6.7,4.82-10.67,6.21-3.48,1.21-7.6,1.6-10.63,3.91l-2,.22C69.37,22,55.37,20.21,58,27.35,59.32,31,66.61,30,69.52,29.61a32.25,32.25,0,0,0,13.07-4.2,39.59,39.59,0,0,1,26.05-5.71c7.31,1.05,17.29,7.16,23,0C135,15.39,129,13.92,125.55,12.7Z"/><path class="cls-11" d="M138.81,37.08c-3.49-2.14-14.89-3.54-14.77-7.18a5.76,5.76,0,0,1,.07-.69,17.94,17.94,0,0,1,1.16-3.66c1-2.48,1.93-4.9.26-6.54a3.89,3.89,0,0,0-.53-.41l-.19-.12-.53-.3-.23-.12c-.26-.12-.55-.25-.86-.37l-.25-.09-.78-.27-.42-.14L121,17l-.42-.12-1.14-.29.11,0c-13.27-3.21-42.11-4.17-41-.89.43,1.32,4.23,2.94,3,3.78s-14.89,1.35-25.93,3.3h0l-1.51.28-.53.1-1,.21-.58.13c-.31.06-.62.14-.92.21l-.55.13-1,.26-.39.1-1.27.38-.34.12c-.29.1-.58.19-.86.3l-.41.15-.7.29-.38.17-.67.34-.28.14a8.48,8.48,0,0,0-.8.5l-.12.09a6.64,6.64,0,0,0-.55.45l-.19.18c-.12.13-.24.26-.34.39l-.15.21a2.82,2.82,0,0,0-.22.42,1.76,1.76,0,0,0-.09.2,2.82,2.82,0,0,0-.14.64c-.1,1.68.9,3.25,2.38,4.6a15,15,0,0,0,1.92,1.47,20.59,20.59,0,0,0,6.39,2.85,22.71,22.71,0,0,0,2.76.33c1.91.14,4.3.22,6.37.31a7.35,7.35,0,0,1,4.77,1.55.46.46,0,0,0,.07.07c1.24,1.15,1.64,2.73,2.37,4.16.08.15.16.3.25.44a6.49,6.49,0,0,0,.36.55c.83,1.13,2.13,2,4.64,2.33a14.78,14.78,0,0,0,1.86.11c1.37,0,3.24.08,5.31.21,1.19.07,2.44.16,3.7.26l1.9.16c3.79.34,7.46.78,9.55,1.21a9.34,9.34,0,0,1,1.25.33c.31.1.49.21.53.31a.12.12,0,0,1,0,.1,2.39,2.39,0,0,0-.33.66.4.4,0,0,0,0,.24c.15.28.75.46,2.34.47h.47l1,0,.68,0,2.18-.15,1.81-.16,2.09-.21c3.73-.39,7.19-.86,10.34-1.4,1.26-.21,2.46-.43,3.62-.66l1.69-.35c1.64-.36,3.17-.73,4.55-1.11a40.68,40.68,0,0,0,5.71-2,14.66,14.66,0,0,0,2.49-1.42,13.46,13.46,0,0,0,1.4-1.12l.59-.6a8,8,0,0,0,.93-1.23,6,6,0,0,0,.32-.61,3.73,3.73,0,0,0,.33-1.2A2.64,2.64,0,0,0,138.81,37.08Z"/><path class="cls-12" d="M75.72,47.94C82,48,98.58,49.47,98,50.52s-1.62,2,10.32.79,21.16-3.35,25.91-5.5,8.11-6.58,4.63-8.73S123.92,33.54,124,29.9s4.17-8.27,1.49-10.89a2,2,0,0,0-.27-.23h0l-.32-.22h0l-.35-.21h0a3.55,3.55,0,0,0-.39-.2l0,0-.41-.19-.08,0-.42-.17-.11-.05-.43-.15-.16-.06-.42-.14-.22-.07-.4-.12-.29-.09-.35-.1-.34-.09-.35-.09-.43-.11-.31-.07c1.2.31,5.59,1.65,5.47,4.79-.14,3.62-7.81,7-8.29,10s8.29,3.56,14.63,5.23,4.54,7.75-9.2,11.22-20.21,3.11-21.36,2.72,4.32-1.6,1.6-1.91-15.4-.42-19.24-1.4-12.41-.49-12.69-3.41,1.26-6.14-5.57-7.18-13.18-2.1-17.57-4.33-3.28-7,8.39-9.54l-.71.12-.21,0-.63.12-.16,0-.72.15-.15,0-.64.14-.15,0-.7.15-.12,0-.62.15-.16,0-.66.16-.09,0-.62.17-.12,0-.61.18-.1,0-.58.18-.12,0-.58.2h0l-.58.21-.08,0-.52.21-.06,0-.52.23-.07,0-.47.22,0,0-.46.24-.06,0-.4.24-.05,0-.39.25,0,0c-.12.08-.23.17-.34.26l0,0-.32.28,0,0a3.5,3.5,0,0,0-.27.28l0,0a3.15,3.15,0,0,0-.24.3h0c-.07.1-.13.2-.19.3v0a1.87,1.87,0,0,0-.15.32h0a2,2,0,0,0-.09.33v0a1.86,1.86,0,0,0-.05.34c-.28,4.49,7.36,8.2,10.69,8.92a82.54,82.54,0,0,0,9.13.64C71.24,39.17,64.74,47.89,75.72,47.94Z"/><path class="cls-13" d="M44.72,25.8c-1.89.94-3.06,2.05-3.14,3.37-.28,4.49,7.36,8.2,10.69,8.92a82.54,82.54,0,0,0,9.13.64c9.84.44,3.34,9.16,14.32,9.21h.91c-9.29-1.48-8.27-5.89-8.21-7s-.23-1.72-2.52-2.41-8.75-.68-14-1.37-9.21-4.68-9.67-7.26S44.64,25.85,44.72,25.8Z"/><path class="cls-13" d="M75.72,47.94c.54,0,1.15,0,1.82,0-1.73-.08-3-.12-3.28-.11C74.71,47.91,75.19,47.94,75.72,47.94Zm6,.25C89,48.67,98.43,49.72,98,50.52c-.63,1-1.62,2,10.32.79s21.16-3.35,25.91-5.5,8.11-6.58,4.63-8.73S123.92,33.54,124,29.9s4.17-8.27,1.49-10.89a3,3,0,0,0-.42-.34c.44.34,1.49,1.48.47,4-1.26,3.15-4.52,5.72-4.57,7.78s2.63,2.23,3.66,2.52,13.08,2.78,13.89,5.77-1.94,5.55-5.14,6.87-16,4.17-21.31,4.86-13,2-13.15.77.8-1.15-.57-1.72C97.51,49.19,88.49,48.57,81.71,48.19Z"/><ellipse class="cls-14" cx="97.4" cy="31.45" rx="15.06" ry="8.99"/><path class="cls-15" d="M100.94,22.71c6.61.95,11.52,4.5,11.52,8.74,0,5-6.74,9-15.06,9s-15.06-4-15.06-9c0-3.19,2.79-6,7-7.59C74,30.34,93.59,41.78,106,34.73,112.1,31.3,109.71,24.53,100.94,22.71Z"/><path class="cls-16" d="M110.73,27.27a6.32,6.32,0,0,1,1.73,4.18c0,5-6.74,9-15.06,9s-15.06-4-15.06-9a5.47,5.47,0,0,1,.26-1.65c0,.1-.53,6.79,9.43,9.15S115.42,36.29,110.73,27.27Z"/><path class="cls-17" d="M94.4,23.47s-7.55,1.37-8.78,4.81,3,5.72,8.5,6.14,1.95-4.19,5.16-5.09C110,26.29,101.43,22.65,94.4,23.47Z"/><path class="cls-18" d="M92.34,24.39s-3.45.93-4.18,2.06.93,1.36,2,.8a37.55,37.55,0,0,1,3.52-1.81C94.35,25.21,95.64,23.75,92.34,24.39Z"/><path class="cls-18" d="M94,26c-.74.49-1.75.85-1.26,1.36C93.89,28.58,98,23.73,94,26Z"/></svg>