<svg xmlns="http://www.w3.org/2000/svg" xmlns:xlink="http://www.w3.org/1999/xlink" viewBox="0 0 759.85 170.4"><defs><style>.cls-1{isolation:isolate;}.cls-10,.cls-11,.cls-12,.cls-2,.cls-3,.cls-4,.cls-5,.cls-6,.cls-7,.cls-8,.cls-9{fill-rule:evenodd;}.cls-2{fill:url(#鍊踑臇蜸馯鳺艜_44);}.cls-3{fill:#3a1015;}.cls-4{fill:url(#鍊踑臇蜸馯鳺艜_44-2);}.cls-5{fill:#f7d2a3;mix-blend-mode:soft-light;}.cls-6{fill:url(#未命名漸層_29);}.cls-7{fill:url(#鍊踑臇蜸馯鳺艜_67);}.cls-8{fill:url(#鍊踑臇蜸馯鳺艜_62);}.cls-9{opacity:0.5;mix-blend-mode:screen;fill:url(#鍊踑臇蜸馯鳺艜_63);}.cls-10{fill:url(#鍊踑臇蜸馯鳺艜_50);}.cls-11{fill:url(#鍊踑臇蜸馯鳺艜_50-2);}.cls-12{fill:url(#鍊踑臇蜸馯鳺艜_50-3);}</style><linearGradient id="鍊踑臇蜸馯鳺艜_44" x1="-1523.94" y1="168.94" x2="-1523.94" y2="70.08" gradientTransform="matrix(-1, 0, 0, 1, -875.98, 1.88)" gradientUnits="userSpaceOnUse"><stop offset="0.02" stop-color="#561e2d"/><stop offset="0.99" stop-color="#6f2537"/></linearGradient><linearGradient id="鍊踑臇蜸馯鳺艜_44-2" x1="1283.43" y1="168.94" x2="1283.43" y2="70.08" gradientTransform="matrix(1, 0, 0, 1, -1146.67, 2.28)" xlink:href="#鍊踑臇蜸馯鳺艜_44"/><linearGradient id="未命名漸層_29" x1="8.32" y1="55.28" x2="768.76" y2="55.28" gradientTransform="matrix(1, 0, 0, 1, -0.99, 0.57)" gradientUnits="userSpaceOnUse"><stop offset="0.02" stop-color="#df904e"/><stop offset="0.99" stop-color="#bf5232"/></linearGradient><linearGradient id="鍊踑臇蜸馯鳺艜_67" x1="7.57" y1="115.14" x2="760.68" y2="115.14" gradientTransform="matrix(1, 0, 0, 1, -0.99, 0.57)" gradientUnits="userSpaceOnUse"><stop offset="0.01" stop-color="#6f2537"/><stop offset="0.98" stop-color="#561c18"/></linearGradient><linearGradient id="鍊踑臇蜸馯鳺艜_62" x1="7.57" y1="107.31" x2="760.68" y2="107.31" gradientTransform="matrix(1, 0, 0, 1, -0.99, 0.57)" gradientUnits="userSpaceOnUse"><stop offset="0.02" stop-color="#b5522f"/><stop offset="0.99" stop-color="#b75040"/></linearGradient><linearGradient id="鍊踑臇蜸馯鳺艜_63" x1="0.83" y1="101.51" x2="764.82" y2="101.51" gradientTransform="matrix(1, 0, 0, 1, -0.99, 0.57)" gradientUnits="userSpaceOnUse"><stop offset="0" stop-color="#be5a23"/><stop offset="1"/></linearGradient><linearGradient id="鍊踑臇蜸馯鳺艜_50" x1="44.81" y1="75.17" x2="731.4" y2="75.17" gradientTransform="matrix(1, 0, 0, 1, -0.99, 0.57)" gradientUnits="userSpaceOnUse"><stop offset="0.02" stop-color="#983c2a"/><stop offset="0.99" stop-color="#6f2537"/></linearGradient><linearGradient id="鍊踑臇蜸馯鳺艜_50-2" x1="85.74" y1="47.74" x2="705.84" y2="47.74" xlink:href="#鍊踑臇蜸馯鳺艜_50"/><linearGradient id="鍊踑臇蜸馯鳺艜_50-3" x1="117.98" y1="19.09" x2="738.08" y2="19.09" gradientTransform="matrix(0.9, 0, 0, 1, 11.24, 0.55)" xlink:href="#鍊踑臇蜸馯鳺艜_50"/></defs><g class="cls-1"><g id="Layer_1" data-name="Layer 1"><polygon class="cls-2" points="659.06 70.19 656.59 166.31 637.21 169.54 637.68 71.13 659.06 70.19"/><polygon class="cls-3" points="637.68 71.17 628.08 71.64 628.66 169.7 637.21 169.54 637.68 71.17"/><polygon class="cls-4" points="125.86 70.98 128.62 167.09 148.01 170.27 147.24 71.86 125.86 70.98"/><polygon class="cls-3" points="147.24 71.9 156.84 72.34 156.56 170.4 148.01 170.27 147.24 71.9"/><polygon class="cls-5" points="16.18 113.69 35.93 110 108.78 110.26 96.93 114.81 16.18 113.69"/><polygon class="cls-5" points="112.68 110.26 372.51 110 349.43 117.38 101.55 115.04 112.68 110.26"/><polygon class="cls-6" points="0 111.02 136.94 0 650.19 0 764 110.38 0 111.02"/><polygon class="cls-7" points="6.74 105.88 8.08 119.34 756.6 124.41 759.85 107.02 6.74 105.88"/><path class="cls-8" d="M759.85,107s-464.42,5.82-753.11-1.14Z"/><path class="cls-9" d="M0,111l764-.64S262.58,69,0,111Z"/><polygon class="cls-10" points="43.93 77.5 730.52 76.7 726.48 72.63 47.68 74.8 43.93 77.5"/><polygon class="cls-11" points="86.44 45.11 702.86 48.87 704.92 50.34 84.82 46.45 86.44 45.11"/><polygon class="cls-12" points="118.38 16.41 670.43 20.26 672.28 21.73 116.92 17.75 118.38 16.41"/></g></g></svg>