<svg id="Layer_1" data-name="Layer 1" xmlns="http://www.w3.org/2000/svg" viewBox="0 0 127.25 75.26"><defs><style>.cls-1{fill:#e5a143;}.cls-2{fill:#b67b3a;}.cls-3{fill:#e1924a;}.cls-4{fill:#e0ba71;}.cls-5{fill:#edc051;opacity:0.5;}.cls-6{fill:#cba669;}.cls-7{fill:#f5c97e;}.cls-8{fill:#f0e07a;opacity:0.4;}</style></defs><path class="cls-1" d="M76.62,10.26c3.86,0,31.61,3.43,44.4,9.16,4.11,1.84,2,9.86,1.27,11.34-2.14,4.29-55.56,21.62-55.24,23.85s1.14,8.63-7.16,12.46c-7.77,3.59-24.53,5.67-46.09-10.35-10-7.47-16.56-28.74-6-34,8.94-4.47,16.77,6.09,21.23,4.49S69.28,10.26,76.62,10.26Z"/><path class="cls-2" d="M61,59.82c-.85-.67-2.25-.28-2.95-1.16-.83-1.06,0-1.94-1.17-2.85-2.29-1.76-4.92-1.38-7.51-1.52a12,12,0,0,1-8.51-3.84A44.61,44.61,0,0,0,30,42.05c-2.63-1.42-5.39-2.64-8.15-3.79-2-.85-4.31-1.43-6.31-2.37-3.23-1.52-4-5.72-5.91-8.41C8.35,25.69,7.27,24.56,5.81,24-2.12,30.77,4.2,49.85,13.6,56.84c21.55,16,38.32,13.94,46.09,10.35a17.62,17.62,0,0,0,1.74-.91l0-.37C61.25,64.26,62.42,61,61,59.82Z"/><path class="cls-3" d="M73.92,1.89c5.78,0,50.1,14,47.87,18.51C119.65,24.68,64,44,64.35,46.24s4.15,7.34-4.15,11.17C52.43,61,31.8,63.16,13,46.56,4.45,39.05-.5,26,10.11,20.72c8.93-4.47,11.8-.32,16.27-1.92S66.58,1.89,73.92,1.89Z"/><path class="cls-4" d="M73.08,3.53c5.37,0,46.75,12.47,44.67,16.6-2,3.95-56.17,22.89-55.87,25s4.44,7.1-3.27,10.63c-7.22,3.32-25,5.35-42.54-10C8.15,38.79,2,26.87,11.81,22c8.3-4.13,12.56-.42,16.71-1.89S66.26,3.53,73.08,3.53Z"/><path class="cls-5" d="M98.31,33.34c-2.69.92-5,2.6-7.65,3.53-3.09,1.07-6.43,1.59-9.41,2.76-2.6,1-5,2.11-7.61,3.21-1.7.72-6.58,2.91-7.42,2.76l-.2.66c-.4.78.68,3.73,1.64,4.35,1.93,1.25,2.84-.23,4.2-1.42,3.47-3,7.23-4.3,11.74-6s9.06-3.57,13.61-4.93C101.05,37.15,104.34,31.29,98.31,33.34Z"/><path class="cls-6" d="M17.2,27.07a19,19,0,0,0,3.36-.45c.8-.16.46-1.37-.33-1.22a17.25,17.25,0,0,1-3,.41.63.63,0,0,0,0,1.26Z"/><path class="cls-6" d="M15.29,32.18a12.47,12.47,0,0,0,.45,2.72A.63.63,0,0,0,17,34.57a10.21,10.21,0,0,1-.4-2.39.64.64,0,0,0-1.27,0Z"/><path class="cls-6" d="M18.1,41.51l3.83.64c.79.13,1.13-1.08.33-1.22l-3.83-.63c-.79-.14-1.13,1.08-.33,1.21Z"/><path class="cls-6" d="M30.18,43.88a.64.64,0,0,0,0-1.27.64.64,0,0,0,0,1.27Z"/><path class="cls-6" d="M30.18,43.88a11.82,11.82,0,0,0,2.72-.24c.79-.18.46-1.4-.34-1.22a10,10,0,0,1-2.38.19.64.64,0,0,0,0,1.27Z"/><path class="cls-6" d="M35.33,51.09a18.86,18.86,0,0,0,3.36.23.63.63,0,0,0,0-1.26,16.91,16.91,0,0,1-3-.19c-.8-.15-1.14,1.07-.34,1.22Z"/><path class="cls-6" d="M49.23,50.8a8,8,0,0,0,1.13-1.86.62.62,0,0,0-.44-.77.64.64,0,0,0-.78.44,7.46,7.46,0,0,1-1,1.55c-.46.67.64,1.31,1.09.64Z"/><path class="cls-6" d="M40.18,40.26A11.06,11.06,0,0,0,44,39.6c.75-.29.43-1.51-.33-1.22a10.16,10.16,0,0,1-3.45.62.63.63,0,0,0,0,1.26Z"/><path class="cls-6" d="M29.33,33.24A5.93,5.93,0,0,0,31.2,33c.77-.24.44-1.46-.34-1.21a4.94,4.94,0,0,1-1.53.19.63.63,0,0,0,0,1.26Z"/><path class="cls-6" d="M30,24.09a.63.63,0,0,0,0-1.26.63.63,0,0,0,0,1.26Z"/><path class="cls-6" d="M30.18,24.09H33.8a.63.63,0,0,0,0-1.26H30.18a.63.63,0,0,0,0,1.26Z"/><path class="cls-6" d="M43.91,28.67l1.28-1.91c.45-.68-.64-1.31-1.09-.64S43.25,27.4,42.82,28s.64,1.32,1.09.64Z"/><path class="cls-6" d="M41,19c1.27-.4,2.57-.65,3.83-1.06.77-.25.44-1.47-.33-1.22-1.27.41-2.57.66-3.83,1.07-.77.24-.44,1.46.33,1.21Z"/><path class="cls-6" d="M54,18.16l1.07,1.07a.64.64,0,0,0,.89,0,.65.65,0,0,0,0-.9l-1.06-1.06a.65.65,0,0,0-.9,0,.64.64,0,0,0,0,.89Z"/><path class="cls-6" d="M58.71,28.73c.24.71.46,1.41.64,2.13a.63.63,0,0,0,1.22-.33c-.18-.72-.4-1.43-.64-2.13s-1.47-.44-1.22.33Z"/><path class="cls-6" d="M53.2,34.07a12.83,12.83,0,0,0,3.78.66.63.63,0,0,0,0-1.26,11.66,11.66,0,0,1-3.45-.62c-.77-.25-1.1,1-.33,1.22Z"/><path class="cls-6" d="M57.5,47.82a3.22,3.22,0,0,1,.55,1.81.64.64,0,0,0,1.27,0,4.62,4.62,0,0,0-.73-2.45c-.44-.68-1.53,0-1.09.64Z"/><path class="cls-6" d="M72.19,32.73a10.86,10.86,0,0,1,2.62-.79c.8-.16.46-1.38-.34-1.22a12.32,12.32,0,0,0-2.91.92c-.74.35-.1,1.44.63,1.09Z"/><path class="cls-6" d="M71.4,25.35c1.13-.45,2.26-.89,3.41-1.28.77-.26.44-1.48-.34-1.22-1.15.39-2.28.83-3.4,1.28-.75.3-.42,1.52.33,1.22Z"/><path class="cls-6" d="M63.53,13a13.94,13.94,0,0,0,3.13-1.13c.73-.36.09-1.45-.63-1.09a12.55,12.55,0,0,1-2.83,1c-.8.17-.46,1.39.33,1.22Z"/><path class="cls-6" d="M69.92,7.26A6,6,0,0,1,73,7.9c.76.3,1.09-.92.34-1.22a6.84,6.84,0,0,0-3.74-.63c-.8.16-.46,1.37.34,1.21Z"/><path class="cls-6" d="M80.92,11.24a8.57,8.57,0,0,0,3.51.94.63.63,0,0,0,0-1.26,7.26,7.26,0,0,1-2.88-.77c-.73-.35-1.37.74-.63,1.09Z"/><path class="cls-6" d="M73.36,17.07a.63.63,0,0,0,0-1.26.63.63,0,0,0,0,1.26Z"/><path class="cls-6" d="M73.68,17a12,12,0,0,1,2.4-.79A.63.63,0,0,0,75.75,15a13.44,13.44,0,0,0-2.7.92c-.74.35-.1,1.44.63,1.09Z"/><path class="cls-6" d="M85.23,25.35c1.13-.23,2.27-.42,3.41-.64.79-.16.46-1.38-.34-1.22-1.13.22-2.27.41-3.4.64-.8.16-.46,1.37.33,1.22Z"/><path class="cls-6" d="M84.81,31.3a13,13,0,0,0,2.49-.91c.73-.36.09-1.45-.64-1.09a11.19,11.19,0,0,1-2.19.78.63.63,0,0,0,.34,1.22Z"/><path class="cls-6" d="M90.08,18.89c.48-.72,1-1.41,1.49-2.13s-.64-1.31-1.09-.64-1,1.41-1.49,2.13.64,1.31,1.09.64Z"/><path class="cls-6" d="M99.7,21.52a21.63,21.63,0,0,1,4.94-.62.63.63,0,0,0,0-1.26,23.49,23.49,0,0,0-5.28.66c-.79.19-.45,1.41.34,1.22Z"/><path class="cls-7" d="M26,46.83a18.1,18.1,0,0,1,3,.85c.76.3,1.08-.92.33-1.21a18.13,18.13,0,0,0-3-.86c-.79-.16-1.13,1.06-.33,1.22Z"/><path class="cls-7" d="M36.45,46.34a10.23,10.23,0,0,1,3-1.21c.8-.17.46-1.39-.33-1.22a11.41,11.41,0,0,0-3.34,1.34.63.63,0,0,0,.63,1.09Z"/><path class="cls-7" d="M34.24,36.46a8.52,8.52,0,0,1,2.85-2.24c.73-.37.09-1.46-.63-1.09a9.24,9.24,0,0,0-3.11,2.44c-.51.62.38,1.52.89.89Z"/><path class="cls-7" d="M21.56,35.49a8.61,8.61,0,0,0,2.49,1.13.63.63,0,0,0,.34-1.22,7.37,7.37,0,0,1-2.19-1c-.68-.44-1.31.65-.64,1.09Z"/><path class="cls-7" d="M23.33,30.88a16,16,0,0,0,1.85-.71.63.63,0,0,0,.23-.86.66.66,0,0,0-.87-.23,12,12,0,0,1-1.55.58c-.77.26-.44,1.47.34,1.22Z"/><path class="cls-7" d="M38,24.28c.93-.25,1.81-.65,2.76-.85.8-.17.46-1.39-.34-1.22s-1.83.61-2.76.85A.63.63,0,0,0,38,24.28Z"/><path class="cls-7" d="M48.79,37.41a4.92,4.92,0,0,0,3.68.7c.8-.14.46-1.36-.33-1.22a3.6,3.6,0,0,1-2.71-.57c-.67-.47-1.3.62-.64,1.09Z"/><path class="cls-7" d="M48.47,55.79a22.59,22.59,0,0,0,3.58-.24c.8-.12.46-1.34-.34-1.21a20.58,20.58,0,0,1-3.24.19.63.63,0,0,0,0,1.26Z"/><path class="cls-7" d="M54.76,45.48a4.86,4.86,0,0,1,1-1.15c.57-.58-.32-1.47-.89-.89a6.05,6.05,0,0,0-1.17,1.4.63.63,0,0,0,1.09.64Z"/><path class="cls-7" d="M62.94,39a.63.63,0,0,0,0-1.26.63.63,0,0,0,0,1.26Z"/><path class="cls-7" d="M63.11,39c1.42-.2,2.83-.43,4.25-.64.81-.11.46-1.33-.33-1.22-1.42.21-2.84.44-4.26.64-.8.12-.46,1.34.34,1.22Z"/><path class="cls-7" d="M64.22,27.92h1.49a.63.63,0,0,0,0-1.26H64.22a.63.63,0,0,0,0,1.26Z"/><path class="cls-7" d="M50.13,26.62a11.93,11.93,0,0,0,2.92-.91c.73-.36.09-1.45-.64-1.09a10.89,10.89,0,0,1-2.61.78c-.8.17-.46,1.38.33,1.22Z"/><path class="cls-7" d="M61.34,19.33l2.56-1.28c.72-.37.09-1.45-.64-1.09l-2.55,1.28c-.73.36-.09,1.45.63,1.09Z"/><path class="cls-7" d="M52,14.43a18.34,18.34,0,0,1,2.56-1.7c.72-.37.08-1.46-.64-1.09a18.85,18.85,0,0,0-2.55,1.7c-.65.48,0,1.58.63,1.09Z"/><path class="cls-7" d="M59.64,11a4.14,4.14,0,0,0,1.81.3.63.63,0,0,0,0-1.26,2.88,2.88,0,0,1-1.17-.13.63.63,0,0,0-.86.23.62.62,0,0,0,.22.86Z"/><path class="cls-7" d="M64.85,8.14a4,4,0,0,1,1.33.19c.77.25,1.1-1,.33-1.22a5.47,5.47,0,0,0-1.66-.24.64.64,0,0,0,0,1.27Z"/><path class="cls-7" d="M73.36,12.6c.51,0,1,.2,1.49.22a.64.64,0,0,0,0-1.27c-.5,0-1-.19-1.49-.21a.63.63,0,0,0,0,1.26Z"/><path class="cls-7" d="M70.6,20.69a7.66,7.66,0,0,0,2.29-.24c.78-.24.45-1.45-.33-1.21a6.8,6.8,0,0,1-2,.19.63.63,0,0,0,0,1.26Z"/><path class="cls-7" d="M80.6,20.9a.63.63,0,0,0,0-1.26.63.63,0,0,0,0,1.26Z"/><path class="cls-7" d="M80.92,20.81a7,7,0,0,1,2-1.21.63.63,0,0,0-.33-1.22,8.05,8.05,0,0,0-2.28,1.34c-.67.46,0,1.55.64,1.09Z"/><path class="cls-7" d="M78.15,28.47l2.55-1.91c.65-.48,0-1.58-.63-1.09l-2.56,1.91c-.64.48,0,1.58.64,1.09Z"/><path class="cls-7" d="M77.51,34.85a6.83,6.83,0,0,1,1.55-.78c.77-.26.44-1.48-.33-1.22a8.44,8.44,0,0,0-1.86.91c-.67.45,0,1.54.64,1.09Z"/><path class="cls-7" d="M92.94,26.22a30,30,0,0,0,4.42-.45c.8-.13.46-1.35-.34-1.22a26.61,26.61,0,0,1-4.08.41.63.63,0,0,0,0,1.26Z"/><path class="cls-7" d="M104.21,23.67a.64.64,0,0,0,0-1.27.64.64,0,0,0,0,1.27Z"/><path class="cls-7" d="M104.66,23.48a8,8,0,0,1,2-1.39c.72-.37.08-1.46-.64-1.09a8.88,8.88,0,0,0-2.26,1.59c-.58.57.32,1.46.9.89Z"/><path class="cls-7" d="M94.74,18.47a5.15,5.15,0,0,0,1.41-.95c.58-.56-.31-1.46-.9-.89a4.1,4.1,0,0,1-1.14.75.63.63,0,1,0,.63,1.09Z"/><path class="cls-7" d="M105.17,17.2a13.3,13.3,0,0,0,2.49,1.13.63.63,0,0,0,.33-1.22,11.62,11.62,0,0,1-2.18-1c-.73-.37-1.37.72-.64,1.09Z"/><path class="cls-7" d="M87.62,11.11a10.79,10.79,0,0,1,2.38.41c.79.19,1.13-1,.34-1.22a12.67,12.67,0,0,0-2.72-.45.63.63,0,0,0,0,1.26Z"/><path class="cls-7" d="M86.45,15.07l1.27-.64a.63.63,0,0,0,.23-.86.64.64,0,0,0-.86-.23L85.81,14a.63.63,0,0,0-.23.86.64.64,0,0,0,.87.23Z"/><path class="cls-7" d="M76.6,6.84A19,19,0,0,0,80,7.29.64.64,0,0,0,80,6a16.12,16.12,0,0,1-3-.4c-.8-.16-1.14,1.06-.34,1.22Z"/><path class="cls-8" d="M93.15,11.55c-3.49-1.24-6.92-2.06-10.43-3.45-3.79-1.51-6.44-2.88-10.63-2.72a22.83,22.83,0,0,0-9.74,2.39c-3.37,2-6.31,4.54-10,5.85-3.28,1.14-7.15,1.5-10,3.67l-1.91.21c-.09,2.78-13.27,1.11-10.8,7.83,1.25,3.41,8.11,2.49,10.85,2.12a30.1,30.1,0,0,0,12.29-3.94,37.28,37.28,0,0,1,24.51-5.38c6.88,1,16.27,6.74,21.59,0C102,14.08,96.37,12.69,93.15,11.55Z"/></svg>