<svg id="Layer_1" data-name="Layer 1" xmlns="http://www.w3.org/2000/svg" viewBox="0 0 121.77 153.03"><defs><style>.cls-1{fill:#717373;}.cls-2{fill:#9db9c4;}.cls-3{fill:#2e3133;}.cls-4{fill:#98623d;}.cls-5{fill:#6c8341;}.cls-6{fill:#8ea8b2;}.cls-7{fill:#edf2f4;}.cls-8{fill:#c4dae3;}.cls-9{fill:#d3e79e;}.cls-10{fill:#462301;}.cls-11{fill:#88542a;}.cls-12{fill:#7a4322;}.cls-13{fill:#dfecf4;}.cls-14{fill:#985320;}.cls-15{fill:#4a4c4a;}.cls-16{fill:#bde267;}.cls-17{fill:#484a4e;}.cls-18{fill:#494a4d;}.cls-19{fill:#af7f45;}.cls-20{fill:#a46226;}.cls-21{fill:#a1a954;}.cls-22{fill:#686a6f;}.cls-23{fill:#859c55;}.cls-24{fill:#7c9250;}.cls-25{fill:#d1b041;}.cls-26{fill:#ceb341;}.cls-27{fill:#829954;}.cls-28{fill:#cbf273;}.cls-29{fill:#edc982;}.cls-30{fill:#eac177;}.cls-31{fill:#bde268;}.cls-32{fill:#995d24;}.cls-33{fill:#9f682e;}.cls-34{fill:#2d3033;}.cls-35{fill:#69522b;}.cls-36{fill:#edc37f;}.cls-37{fill:#edc47c;}.cls-38{fill:#ecc47e;}.cls-39{fill:#eec57d;}.cls-40{fill:#edc47b;}.cls-41{fill:#edc27a;}.cls-42{fill:#ebc378;}.cls-43{fill:#474a4e;}.cls-44{fill:#2e3333;}.cls-45{fill:#2e3234;}.cls-46{fill:#303134;}.cls-47{fill:#f1b43f;}.cls-48{fill:#ea9636;}.cls-49{fill:#ec9636;}.cls-50{fill:#e3b36f;}.cls-51{fill:#e1b576;}.cls-52{fill:#e0b36f;}.cls-53{fill:#e3b67a;}.cls-54{fill:#e1b677;}.cls-55{fill:#e5b878;}.cls-56{fill:#66696c;}.cls-57{fill:#161d0c;}.cls-58{fill:#ecc27d;}.cls-59{fill:#ebc37a;}.cls-60{fill:#f1c987;}.cls-61{fill:#eec680;}.cls-62{fill:#8e561d;}</style></defs><path class="cls-1" d="M119.5,104.62c-.24,0-.22.33-.42.39-.21-.26,0-.48.08-.7a13.64,13.64,0,0,0,1.68-7.85,18.06,18.06,0,0,0-.78-3.66c-.06-.24-.22-.48,0-.73l.16,0a13.67,13.67,0,0,1,1.06,7.49A12.47,12.47,0,0,1,119.5,104.62Z"/><path class="cls-2" d="M57.47,148.33a6.2,6.2,0,0,1-3.41.68c-.15.1-.31,0-.47,0s-.24-.05-.26-.18a.28.28,0,0,1,.17-.28,3.83,3.83,0,0,1,.93-.28c.71-.25.79-.45.63-1.19a11.64,11.64,0,0,1-.26-2.42c0-1.12,0-2.23,0-3.35,0-3.86.16-7.72.41-11.57.12-2,.32-4,.46-6s.45-3.92.75-5.87c.37-2.41.65-4.83,1.13-7.22a99.17,99.17,0,0,1,2.72-10.46,33.77,33.77,0,0,1,1.67-3.75,57.79,57.79,0,0,1,3.24-5.81,38.08,38.08,0,0,1,2.36-3.44c1.35-1.89,2.79-3.71,4.19-5.57,2.33-3.11,5-6,7.58-8.82,1.85-2,3.76-4,5.67-6,2.11-2.17,4.28-4.27,6.46-6.36S95.7,56.39,98,54.54c.44-.35.76-.81,1.18-1.18,2.7-2.34,5.4-4.7,8.17-7,1.13-.92,2.21-1.94,3.4-2.76,1.86-1.29,3.53-2.8,5.35-4.13a3.71,3.71,0,0,1,4.3.41,7.85,7.85,0,0,1,1,1.15,5.93,5.93,0,0,1,.3,2.61q-1,22.92-2,45.85A6,6,0,0,1,119.6,91c-.29-.16-.18-.44-.21-.67q.56-12.42,1.09-24.83c0-.14,0-.28,0-.42,0-.29-.11-.39-.39-.24a3.29,3.29,0,0,0-.49.26c-2.42,1.89-5.21,3.26-7.51,5.3a27.32,27.32,0,0,1-3.82,2.8,1.18,1.18,0,0,0-.27.22c-1.29,1.69-3.32,2.54-4.63,4.21a6.1,6.1,0,0,1-1.25,1,70.74,70.74,0,0,0-8.36,7.78s-.09.11-.14.15c-2.84,2.55-5,5.7-7.54,8.49-1.61,1.76-3.07,3.62-4.51,5.51A40.53,40.53,0,0,1,79,104.09a8.21,8.21,0,0,0-1.55,2.38,7.39,7.39,0,0,1-1.65,2.24c-1,1.05-1.56,2.46-2.47,3.61a45.33,45.33,0,0,0-4.06,7.06c-.35.66-.79,1.26-1.11,1.94-1.26,2.72-2.84,5.27-4,8-.7,1.64-1.69,3.16-2.32,4.84-1.19,3.18-2.64,6.26-3.68,9.5a5.85,5.85,0,0,1-.65,1.3,6.43,6.43,0,0,0-.59,2.55C56.87,147.91,57.29,148.06,57.47,148.33Z"/><path class="cls-3" d="M120,92.07c.21.87.5,1.72.76,2.56a10.13,10.13,0,0,1,.25,2.61,12.68,12.68,0,0,1-.29,3.74,11.57,11.57,0,0,1-1.5,3.53.72.72,0,0,0-.18.5h0a3.43,3.43,0,0,1-3.34,1.45,1.66,1.66,0,0,1-1.34-.62,8,8,0,0,1-2.25-5.11,19.21,19.21,0,0,1,.51-6.84,2.09,2.09,0,0,1,.3-.62,1.64,1.64,0,0,0,.3-.69,8.36,8.36,0,0,1,1.93-2.74c.27-.35.73-.21,1.1-.31a3.92,3.92,0,0,1,2.74,1,2.86,2.86,0,0,1,.63,1Z"/><path class="cls-4" d="M91.84,31c.14,1.8-.23,3.58-.26,5.37,0,.57,0,1.1.49,1.47a1.73,1.73,0,0,0-.38,1.08c0,1.48-.13,3-.19,4.43a1.54,1.54,0,0,0,.17.94.49.49,0,0,1-.23.62.85.85,0,0,1-.22.09c-.76.21-.86.14-.86-.63a27.6,27.6,0,0,1,.14-4c.17-1.15-.12-2.34,0-3.47.19-1.72,0-3.45.34-5.14.18-1,.14-1.93.4-2.89a11.31,11.31,0,0,1,1.26-2.7A10.28,10.28,0,0,0,94,21.47,34,34,0,0,0,94,16.32c-.16-1.63-1.5-3.05-3.62-2-2.48,1.24-5,2.49-7.32,3.92S78.5,21,76.32,22.56s-4.53,3.09-6.71,4.75c-1.26,1-2.52,1.92-3.7,3-.53.48-.83,1.17-1.41,1.63-.36.28-.21.83-.39,1.24a11.42,11.42,0,0,0-1,4.47A20.5,20.5,0,0,0,63.5,43a1,1,0,0,0,.9.83,2.89,2.89,0,0,1,2.06,2.45c.17,2.92.26,5.85.39,8.77.09,2,.25,4.08.27,6.13,0,1.78.2,3.56.23,5.35a1.93,1.93,0,0,1-.47,1.34,1.12,1.12,0,0,1-.41.4c-.16,0-.32.11-.41-.1-.13-3.09-.32-6.17-.45-9.26-.11-2.55-.2-5.11-.37-7.66-.09-1.34-.08-2.69-.19-4a2.36,2.36,0,0,0-1.61-2.36c-1.08-.36-1.17-1.37-1.37-2.26-.58-2.58-.25-5.18-.07-7.77a13.87,13.87,0,0,1,1-3.17,11.83,11.83,0,0,1,2.29-3.62,28.27,28.27,0,0,1,3.71-2.93c1.58-1.2,3.24-2.26,4.83-3.44C74.89,21,76,20.3,77,19.64q2.07-1.29,4.17-2.52,3.86-2.25,7.9-4.13c.54-.25,1.06-.57,1.63-.77.15-.06.28-.17.43-.22s.26,0,.37.07h0a4.37,4.37,0,0,1,2.23,1.18,4.85,4.85,0,0,1,1,2.67c.11,1.74,0,3.48,0,5.22a14.69,14.69,0,0,1-.69,3.95c-.11.36-.46.63-.5,1.05a16.84,16.84,0,0,0-1.27,2.28A6.68,6.68,0,0,0,91.84,31Z"/><path class="cls-5" d="M119.65,91.45a4,4,0,0,0-3.42-1.78,10.54,10.54,0,0,1-2.63-.13,23.74,23.74,0,0,0-3.67-.24,2.77,2.77,0,0,0-2.3,2.12,3.16,3.16,0,0,0-.74,1.83,1,1,0,0,1-.09.33c-.89,2.09-.76,4.31-.87,6.5a2.52,2.52,0,0,0,.22,1.08,8.27,8.27,0,0,0,1.53,4.59,2.53,2.53,0,0,0,2.3,1c1.94,0,3.86-.37,5.8-.46,1.38.31,2.28-.62,3.29-1.28l-.21,1.4c-1.09,0-2.13.38-3.22.46s-2.46.42-3.73.44c-.78,0-1.55.2-2.35.16a3.22,3.22,0,0,1-2.34-1.21,9.67,9.67,0,0,1-1.78-4.27,7.07,7.07,0,0,1-.16-2.63c.13-1.11,0-2.22.1-3.34a31,31,0,0,1,.78-3.23,7,7,0,0,1,1.33-2.72,3.63,3.63,0,0,1,3.37-1.57c2.27.22,4.52.49,6.76.92a6.29,6.29,0,0,1,1.93.94c0,.21,0,.41,0,.62S119.64,91.29,119.65,91.45Z"/><path class="cls-6" d="M86,129.86l1-.67a2.08,2.08,0,0,0,1.26-.78h0L94,124.6c.54-.33,1-.72,1.59-1l3.19-2,2.7-1.76c.32-.23.68-.42,1-.64,1.75-1.19,3.52-2.35,5.33-3.44a3.19,3.19,0,0,1,.88-.62L110.4,114c1.31-.85,2.65-1.68,3.94-2.57a28.8,28.8,0,0,0,2.44-1.7,8.69,8.69,0,0,0,2.08-3.29.69.69,0,0,0-1-.1.93.93,0,0,1-.59.17,20.82,20.82,0,0,0-3,.34,30.24,30.24,0,0,1-4.84.44,2.77,2.77,0,0,1-2-1.11,8.46,8.46,0,0,1-1.7-4,5.76,5.76,0,0,1-.27-2.12,18,18,0,0,0,.1-2.65,10.06,10.06,0,0,1,.75-4.24,1.29,1.29,0,0,0,.18-.45c0-1.19.74-2,1.4-2.79a3.24,3.24,0,0,1,2.57-1.28c1.8,0,3.53.47,5.31.6a5.37,5.37,0,0,1,3.43,1.12c.13.12.26,0,.39,0l.75-16.67q.2-4.36.38-8.72c0-.18.1-.4-.1-.52s-.32.1-.48.16a18.61,18.61,0,0,0-2.32,1.63,44.55,44.55,0,0,0-4.61,3.08A36.05,36.05,0,0,1,109,72.53a4.61,4.61,0,0,0-1.55,1.17,5.53,5.53,0,0,1-1.73,1.57,6.88,6.88,0,0,0-1.3,1,17.48,17.48,0,0,1-2.19,2,13.32,13.32,0,0,0-2,1.46c-1.74,1.62-3.45,3.25-5.11,4.94-1.19,1.21-2.35,2.45-3.62,3.57a1.39,1.39,0,0,0-.21.27,49.8,49.8,0,0,1-3.27,4c-1.15,1.42-2.45,2.72-3.6,4.14A67.22,67.22,0,0,0,80,102.52c-.9,1.41-2.3,2.49-2.84,4.16,0,.07-.08.11-.11.17-.9,1.48-2.18,2.66-3.06,4.19s-2,2.9-2.85,4.51c-1.36,2.68-2.92,5.25-4.24,8-1,2-2,4-3.08,6.06-1.4,2.69-2.46,5.51-3.68,8.26-1.07,2.43-1.65,5.07-3,7.37a.82.82,0,0,0-.1.4,6,6,0,0,1-.29,1.57c-.16.62.06,1,.73,1.15a9.14,9.14,0,0,0,1.72-1.06,3.31,3.31,0,0,0,1.3-.77h0l1.43-.93,1.12-.65h0l.62-.53a2.37,2.37,0,0,0,1-.52h0l.47-.41a5.15,5.15,0,0,0,1.59-1h0l5.46-3.55c.42-.32.94-.54,1.42-.91l11.26-7.35"/><path class="cls-6" d="M107.83,115.68a1,1,0,0,1,.88-.62A2.11,2.11,0,0,1,107.83,115.68Z"/><path class="cls-7" d="M67.55,87.09a12.45,12.45,0,0,0-2,2.67C64.74,91,64,92.4,63.18,93.71s-1.27,2.59-1.94,3.88a1.21,1.21,0,0,1-1.88.51,1.83,1.83,0,0,0-1.12-.49,6.28,6.28,0,0,1-2.38-.72,7.74,7.74,0,0,0-1.94-.52,12.19,12.19,0,0,1-3.15-1.06,28.59,28.59,0,0,0-5.62-1.5,2.49,2.49,0,0,1-.58-.2,6.32,6.32,0,0,0-2.43-.79c-.81,0-1.41-.64-2.19-.83a19.92,19.92,0,0,1-2.63-.58c-.42-.15-.89.18-1.38.12-.24,0-.14.39-.27.59-.26-.4.32-1.06-.43-1.27-.44-.17-.68-.6-1.06-.83a1.17,1.17,0,0,0-1-.35,11.65,11.65,0,0,1-1.81-.52c-.69.3-1.3-.17-1.93-.29a30.69,30.69,0,0,1-3.93-1.31,11.69,11.69,0,0,0-3.5-.78c-.31,0-.57,0-.64.41s-.41.51-.67.16c-1.26-1.69-3.19-2-5-2.57a37.68,37.68,0,0,1-4.23-1.57,2.66,2.66,0,0,0-1.19-.3,3,3,0,0,1-1.78-.5c-.42-.29-.94.1-1.41-.09,0,0-.15.13-.15.2-.06,1-.89,1.65-1.11,2.6-.09.42-.1.85-.17,1.27s.37.39.66.4c1.74.08,3.48.06,5.2.26a5.7,5.7,0,0,1,3.08.91c.41.33.5.62.14,1a1.65,1.65,0,0,0-.41.55c-.11.41-.16.84.43,1a.73.73,0,0,1,.57.9c-.05.51-.43.73-.88.45a3.9,3.9,0,0,0-2.07-.56,4.64,4.64,0,0,1-2.56-.75A1.87,1.87,0,0,0,8,90c-.21.08-.4-.06-.58-.16-.56-.3-.92-.92-1.66-1-.22,0-.23-.34-.25-.53-.1-.66-.32-.64-.67-.17a1.19,1.19,0,0,1-.23.16.41.41,0,0,1,0-.46c.51-1.18.5-2.53,1.18-3.65.14-.22,0-.5.18-.73,0,0,0-.09,0-.13a15.26,15.26,0,0,0,.93-2.06c.88-1.62,1.81-3.22,2.63-4.87a17.28,17.28,0,0,1,1.89-2.73c.93-1.24,1.63-2.63,2.61-3.83,1.34-1.65,2.62-3.33,3.93-5,.14.8.69,1,1.44,1.14A19.39,19.39,0,0,1,23,67.15c3.55,1.19,7.1,2.36,10.69,3.42.74.22,1.49.36,2.24.54a7.49,7.49,0,0,1,2.38.94,11.7,11.7,0,0,0,2.49.89c1.7.55,3.32,1.34,5.06,1.74a88.53,88.53,0,0,1,9.54,3,15.83,15.83,0,0,1,1.5.71c.82.3,1.71.24,2.53.6A29,29,0,0,0,63,80.33c2,.56,3.89,1.18,5.83,1.8a5.18,5.18,0,0,1,1.27.68c.33.23.1.53-.07.72-.89,1-1.55,2.22-2.36,3.3A.74.74,0,0,0,67.55,87.09Z"/><path class="cls-8" d="M5.9,83.54a2.47,2.47,0,0,1-.37,1.36,6.26,6.26,0,0,0-.6,2.25c0,.45-.46.76-.35,1.23a42.19,42.19,0,0,0-1.42,6c-.36,2-.88,4.07-1.1,6.14-.27,2.48-.67,5-1,7.42C1,109,.86,110.07.8,111.15c-.24,4.18-.45,8.36-.54,12.55a36.23,36.23,0,0,0,.1,5.41,7.9,7.9,0,0,0,2.27,4.77,3.68,3.68,0,0,1,.34.44,5.77,5.77,0,0,1-2.08-2.53,9.67,9.67,0,0,1-.85-4c-.15-2.19.17-4.36.12-6.54q-.06-3,.17-5.92c.17-2.13.18-4.27.44-6.39.28-2.36.61-4.72.9-7.08.28-2.18.73-4.32,1.07-6.49.23-1.46.6-2.9.93-4.34a6.58,6.58,0,0,0,.13-.89c.38-1.27.8-2.54,1.11-3.83A15,15,0,0,1,5.9,83.54Z"/><path class="cls-9" d="M6.84,81.35a4.08,4.08,0,0,1-.93,2.06A7.09,7.09,0,0,1,6.84,81.35Z"/><path class="cls-10" d="M56.32,5.35a18.36,18.36,0,0,0,2.8-1.5A5.37,5.37,0,0,1,62,3.1a27.1,27.1,0,0,1,6.53.81.88.88,0,0,0,.28,0l1,.07.13.15c.23.5-.19.61-.48.75-1.58.73-3,1.72-4.58,2.49-.12.06-.22.16-.34.23-2.36,1.31-4.65,2.72-6.9,4.2C53.7,14.4,50,17.28,46.26,20.12a9.77,9.77,0,0,0-1.62,1.53,2.71,2.71,0,0,1-.77.7,8.18,8.18,0,0,1-2.61-.29,26,26,0,0,0-2.78-.22,9.54,9.54,0,0,1-2.12-.32c-.6-.15-.69-.32-.35-.84a2.83,2.83,0,0,0,.2-.28l.12-.15c.46-.39.87-.83,1.33-1.22l1.49-1.41A7.32,7.32,0,0,0,40.9,16.3a133.73,133.73,0,0,1,12.2-9C54.15,6.64,55.25,6,56.32,5.35Z"/><path class="cls-11" d="M36.6,40.59a2.81,2.81,0,0,0-1.13-2.35c-.12-.07-.23-.21-.35-.21-1-.05-1.36-.86-1.49-1.6-.66-3.67-1-7.35,0-11,0,0,0-.07.08-.11a2.53,2.53,0,0,1,0,2.15,4.72,4.72,0,0,0-.22,3.05,4.83,4.83,0,0,1,.17,1.64,10.88,10.88,0,0,0,.46,4.39,1.41,1.41,0,0,0,1.21,1.17,1.6,1.6,0,0,1,1.19.78.59.59,0,0,0,.87.3,2,2,0,0,1,2.4.17c.29.24,1.18-.24,1.35-.67,0-.15,0-.33.17-.45a.28.28,0,0,1,.3.1A4.29,4.29,0,0,0,43,39c.86.41.91,1.3,1,2.15.17,1.39,0,2.79.08,4.18.15,2-.09,4,.08,6s-.09,4.09.06,6.13a1.71,1.71,0,0,1-.77,1.75A1.14,1.14,0,0,0,43,60.31a2.14,2.14,0,0,1,0,.62.82.82,0,0,1-1.39.59,6.72,6.72,0,0,1-1.09-1.17,2.63,2.63,0,0,0-1.05-.79c-.63-.2-1,.13-.91.78a1.29,1.29,0,0,0,.36.82c.76.59,1.28,1.42,2,2a3.64,3.64,0,0,1,.74.83.6.6,0,0,1-.21,1,.68.68,0,0,1-1-.14,2.58,2.58,0,0,1-.33-.69c-.13-.3-.23-.67-.66-.57s-.4.4-.42.72c0,.83-.25,1-1.15,1-.2-.06-.5,0-.54-.31.66-.13.73-.56.75-1.18,0-1.75-.28-3.47-.36-5.21a3.61,3.61,0,0,0-.24-.79,2.53,2.53,0,0,0,.21-1.87,32.28,32.28,0,0,1-.33-3.67c-.13-2-.26-3.92-.47-5.88a16.06,16.06,0,0,1-.06-2.5A26.85,26.85,0,0,0,36.6,40.59Z"/><path class="cls-12" d="M41.33,37.83c0,.28.11.72,0,.79a9,9,0,0,0-1.22.74c-.12.1-.31-.06-.42-.18a1.62,1.62,0,0,0-2.25-.2c-.55.29-.83.17-1.07-.38a1.23,1.23,0,0,0-1.17-.74A1.26,1.26,0,0,1,34,36.8,11.44,11.44,0,0,1,33.47,32a4.72,4.72,0,0,0-.17-1.48,4.36,4.36,0,0,1,.28-3.2c.34-.58.14-1.36.17-2.06a12.4,12.4,0,0,1,2.46-4.9c0,.24-.21.35-.26.55s-.1.37.15.37c.88,0,1.72.36,2.63.33a19.67,19.67,0,0,1,4.64.59,1,1,0,0,0,.61-.09c.17.3-.07.47-.22.65a7.65,7.65,0,0,0-1.34,2.5,9.31,9.31,0,0,1-.5,1.27,2.14,2.14,0,0,0-.4,1.51,1.72,1.72,0,0,1-.09.44,6.09,6.09,0,0,0-.41,3.1,8.79,8.79,0,0,0,0,2.29,4.71,4.71,0,0,0,.15,1.63C41.11,36.31,41.35,37.06,41.33,37.83Z"/><path class="cls-13" d="M37.31,49.06c.18,1.77.24,3.55.35,5.33A16.78,16.78,0,0,1,37.85,57a1.07,1.07,0,0,1-.34.8c0,.27-.2.41-.36.57-.82.88-1.62,1.77-2.45,2.65A3,3,0,0,0,34,62.13,1.41,1.41,0,0,0,34.8,64a8.62,8.62,0,0,0,1.51.5,1.68,1.68,0,0,1,1,.48c.15.15.36.11.55.15a3.68,3.68,0,0,0,1.44-.06,6.43,6.43,0,0,1,1.58,0c.41.08.7-.22,1-.37a5.72,5.72,0,0,0,2.3-1.52,11.24,11.24,0,0,1,1.1-1.19,36.92,36.92,0,0,0,2.93-3.07c1.25-1.32,2.65-2.49,3.8-3.88s2.43-2.36,3.63-3.56c.33-.33.61-.7.94-1,.7-.71,1.1-.65,1.63.2.34,1.63.45,3.3.63,5,.22,2,.41,4,.67,5.94a2.25,2.25,0,0,1-.1,1.23c-.12.26-.39.4-.55.63a3.64,3.64,0,0,1-.34.34c-.34.27-.61.61-1,.87a.11.11,0,0,1-.15-.06c.16-.74.87-1,1.3-1.57a1.29,1.29,0,0,0,.32-1.34,6.31,6.31,0,0,1-.25-1.91,22.34,22.34,0,0,0-.27-2.52c-.32-1.41-.13-2.85-.5-4.25a14.62,14.62,0,0,0-.29-2.24c-.15-.36-.33-.46-.57-.12-1,1.45-2.56,2.43-3.77,3.71-1.82,1.91-3.7,3.77-5.55,5.65C46.34,61.53,45,63.4,43,64.63a5.56,5.56,0,0,1-2.84.84,6.88,6.88,0,0,1-2.35,0c-1.06-.32-2.14-.6-3.21-.91a2.09,2.09,0,0,1-.83-3.11c.67-.85,1.46-1.61,2.2-2.41.48-.53,1-1.07,1.45-1.59a1,1,0,0,0,.16-1.16,4.29,4.29,0,0,1-.25-1.42c-.19-1.87-.13-3.77-.39-5.64a5.82,5.82,0,0,1-.08-1.1c.06-1-.4-2-.21-3"/><path class="cls-14" d="M37.66,19a3.47,3.47,0,0,1-1.33,1.22A3.8,3.8,0,0,1,37.66,19Z"/><path class="cls-4" d="M65.18,20l-.15.13a.2.2,0,0,1-.29,0c0-.5.44-.69.78-.91,2.26-1.42,4.4-3.05,6.7-4.4a1.34,1.34,0,0,0,.8-1.59,5.9,5.9,0,0,1,.17-1.44c.06-1,.11-2,.1-2.93a4.39,4.39,0,0,0-1-2.34.86.86,0,0,0-.69-.29A3.28,3.28,0,0,0,69.08,7a3.71,3.71,0,0,1-.82.53,91.1,91.1,0,0,0-11.14,6.91c-2.74,1.95-5.48,3.93-8.07,6.09a41.83,41.83,0,0,0-3.84,3.33,10.91,10.91,0,0,0-2.52,4.86,19.81,19.81,0,0,0-.39,7.19,6.36,6.36,0,0,0,.14.76,1.34,1.34,0,0,0,1,1.17,2,2,0,0,1,1.41,1.39c.6,1.4.38,2.85.41,4.27.06,2.39.12,4.79.11,7.18,0,1.8.05,3.61.08,5.42s0,3.48.12,5.22a1,1,0,0,1-.17.79l-1,1.08a1.18,1.18,0,0,1-.27-.84c-.07-1.07-.06-2.14-.07-3.2s0-1.85.08-2.77c.15-2.44-.06-4.87-.08-7.31,0-1.21.07-2.42,0-3.62-.11-1.51,0-3-.09-4.52a2.06,2.06,0,0,0-1.57-2.13,1.52,1.52,0,0,1-.94-1.06,5.94,5.94,0,0,1-.34-1.47A32.89,32.89,0,0,1,41,31.36a15.32,15.32,0,0,1,1.4-6c.13-.27.22-.56.33-.84A11.88,11.88,0,0,1,46.4,20c1.19-.94,2.39-1.85,3.58-2.77,3.21-2.45,6.53-4.75,9.92-6.94,1.54-1,3.15-1.86,4.71-2.81,1.76-.93,3.42-2,5.26-2.81.23-.09.44-.24.68-.32s.44,0,.64.11c1.74,0,2.6,1.45,2.78,3.45a45.46,45.46,0,0,1-.1,5.35c0,.5.13.76.65.72a17,17,0,0,0-2.65,1.53c-1.52.78-2.76,2-4.28,2.78a2.7,2.7,0,0,0-.54.53C66.43,19.22,65.84,19.66,65.18,20Z"/><path class="cls-15" d="M93.2,38.14l1,.38A1.75,1.75,0,0,1,95.58,40a2,2,0,0,1-.89,1.91c-1,.81-2.07,1.64-3,2.55-.34-.09-.4-.32-.38-.64.08-1.79.16-3.58.23-5.37,0-.38.12-.63.56-.59A1.8,1.8,0,0,0,93.2,38.14Z"/><path class="cls-16" d="M44.64,67.63A10.27,10.27,0,0,1,47,66c.95-.39,1.63-1,1.48-2.12a.88.88,0,0,1,.16-.59c.35,0,.56.07.46.54s.31.68.13,1.07a1.63,1.63,0,0,1-.21.44c-.18.21-.71.31-.29.72a.8.8,0,0,0,1.08.07c.61-.5,1.38-.92,1.19-2-.05-.24.12-.52.2-.83a2.55,2.55,0,0,1-.71,2.91,1,1,0,0,1-.56.26,2,2,0,0,0-1.1.37c-.19.13-.42.15-.47-.16-.09-.66-.62-.62-1-.53a2.43,2.43,0,0,0-1.2,1c-.18.23.1.37.29.44a2.14,2.14,0,0,0,1.25,0c-.25.26-.34.74-.89.56-.24-.09-.32.1-.44.23s-.34.41-.64.37c-.14,0-.36.09-.41-.12s.09-.26.24-.29.43-.25.35-.5-.31-.1-.48-.11S44.88,67.67,44.64,67.63Z"/><path class="cls-16" d="M42.29,73.26a15,15,0,0,1-2.87-1.05c.61-.59,1.22-.06,1.8-.12a2.36,2.36,0,0,0,1.46.35.49.49,0,0,1,.34,0c1.56,1.07,3.39,1.35,5.14,1.86a1.81,1.81,0,0,1,.27.06c.16.11.49.12.38.39s-.32,0-.48,0a28.84,28.84,0,0,1-5.56-1.47A2.42,2.42,0,0,0,42.29,73.26Z"/><path class="cls-16" d="M43.92,70.34A6.86,6.86,0,0,0,46,71.55c.16,0,.26.57-.06.85a.55.55,0,0,1-.86-.07,2.07,2.07,0,0,0-1.42-.82c-.35-.08-.61-.29-.52-.69S43.52,70.34,43.92,70.34Z"/><path class="cls-13" d="M80.83,55.37A7.86,7.86,0,0,1,83.46,53c-.07.44-.12.89-.19,1.33-.16,1-.68,1.32-1.63,1.05A2.19,2.19,0,0,0,80.83,55.37Z"/><path class="cls-13" d="M60.79,72.25c.57-.37,1,.21,1.53.21-.31.46-.78.42-1.24.34C60.79,72.75,60.78,72.49,60.79,72.25Z"/><path class="cls-13" d="M78.21,57.77c0-.61.17-1.06.89-1.08A1.07,1.07,0,0,1,78.21,57.77Z"/><path class="cls-16" d="M83.61,52.7l.87-.8C84.47,52.47,84.07,52.61,83.61,52.7Z"/><path class="cls-16" d="M86.52,50.17c.23-.23.29-.66.72-.67C87.07,49.8,87,50.15,86.52,50.17Z"/><path class="cls-17" d="M115.78,106.29a24.75,24.75,0,0,1-5,.59,8.48,8.48,0,0,1-1.52.06c-1.63-.25-2.13-1.58-2.71-2.79a12.24,12.24,0,0,1-.62-2.19.92.92,0,0,1,.16-.73,24.86,24.86,0,0,1,3.45-.2,8.48,8.48,0,0,0,1.67,0c.47-.06.63-.29.59-.75a17.5,17.5,0,0,1,.4-5.59,11.31,11.31,0,0,1,.46-1.39.52.52,0,0,1,.48-.43.34.34,0,0,1,0,.45,3.1,3.1,0,0,0-.59,1.6,22.7,22.7,0,0,0-.21,5.94,8,8,0,0,0,2.17,4.87A1.56,1.56,0,0,0,115.78,106.29Z"/><path class="cls-18" d="M113.15,93.29l0-.43c-.2-.6-.64-.75-1.24-.87a21.65,21.65,0,0,0-3.58-.38,1.11,1.11,0,0,1-.84-.25,2.88,2.88,0,0,1,2.39-2.28,47.9,47.9,0,0,1,6.33.59c-1.61.47-2.31,1.78-2.89,3.19C113.28,93,113.32,93.19,113.15,93.29Z"/><path class="cls-19" d="M91.22,44.79a19.24,19.24,0,0,1-3.76,2.9c-.27,0-.41-.28-.58-.45-.33-.33-.7-.51-1.08-.15s-.24.74,0,1.13c.12.23.48.32.39.67a2.64,2.64,0,0,1-1.31,1.2l-.14,0c-1.12-.45-1.4-.29-1.53.9a1,1,0,0,1-.47.87,1,1,0,0,0-.48.65,1.53,1.53,0,0,1-.66.79c-.73.4-1.17,1.12-2,1.5S78.42,56,77.79,56.67a19.76,19.76,0,0,1-2.88,2.68,3.8,3.8,0,0,0-.78.77c-1.32,1.62-3,2.92-4.28,4.54-.57.69-1.3,1.25-1.92,1.91-.41.44-.6,1.07-1.21,1.32a2.73,2.73,0,0,0,.39-1.8c0-2.71-.31-5.4-.34-8.11,0-2.5-.33-5-.3-7.49,0-1.47-.16-3-.21-4.43a2.57,2.57,0,0,0-2.07-2c-.53,0-.72-.34-.85-.77a22.09,22.09,0,0,1-.4-4.06A16.8,16.8,0,0,1,63.29,35a9.42,9.42,0,0,1,.6-1.84,2.3,2.3,0,0,0,.2-.8.74.74,0,0,1,.17-.59,46.45,46.45,0,0,1,3.64-3.35c1.15-.84,2.31-1.68,3.42-2.58,1.27-1.05,2.67-1.92,4-2.84,1.52-1,3-2.07,4.56-3.05a96.29,96.29,0,0,1,9.5-5.35,14.61,14.61,0,0,1,1.38-.67c1.87-.68,3.1.56,3.34,2.16a28.77,28.77,0,0,1,.11,5,10.24,10.24,0,0,1-1.67,5.3A9.2,9.2,0,0,0,91.1,31c-.07,1.32-.25,2.64-.27,4a33.9,33.9,0,0,0-.08,4.28,6.66,6.66,0,0,1-.15,1.93,21.64,21.64,0,0,0,0,3.51C90.55,45.41,91,44.6,91.22,44.79Z"/><path class="cls-11" d="M65,28.52c.13-.2.19-.45.44-.54.06-.05.11-.05.15,0a6.51,6.51,0,0,1-1.28,1.79,18.86,18.86,0,0,0-1.76,4c-.59,1.37-.33,2.84-.49,4.26a15.31,15.31,0,0,0,.25,4.63c.18,1,.42,1.92,1.66,2.22a1.92,1.92,0,0,1,1.3,2c.07,1.08.16,2.17.21,3.25.1,2.38.09,4.76.32,7.14.13,1.31.09,2.63.15,4,.08,1.66.11,3.32.28,5a5.46,5.46,0,0,1,0,2.13A4.25,4.25,0,0,1,64.6,69.9a7.86,7.86,0,0,1-4.21,1.44.24.24,0,0,1-.28-.15,3.66,3.66,0,0,0,0-1.77,34.79,34.79,0,0,0-.55-4.31c-.13-.53,0-1.1-.11-1.65a1.82,1.82,0,0,0-.2-.65,3.06,3.06,0,0,0,0-2c-.38-2.63-.58-5.27-.88-7.91-.09-.82-.21-1.64-.32-2.47a2,2,0,0,1-.32-1.05,20.23,20.23,0,0,0-.4-3.1,2.4,2.4,0,0,0-1.62-2.15,2.54,2.54,0,0,1-1.61-2,13.21,13.21,0,0,1-.5-3.5c0-1.34-.36-2.67-.23-4,0-.56.2-1.09.25-1.65,0-.17.07-.37.33-.36a1.08,1.08,0,0,1,.15.87,24.59,24.59,0,0,0,.15,5c.08.74,0,1.47.17,2.22a7.06,7.06,0,0,0,.89,2.18c0,.06.06.14.11.17a12.5,12.5,0,0,0,2.65,1.3,12.39,12.39,0,0,0,3,.11c.94,0,1.07-.21.83-1.12a10.22,10.22,0,0,1-.35-3.73c.11-1.13-.29-2.25-.13-3.4a16.15,16.15,0,0,1,2.55-7A3.1,3.1,0,0,1,65,28.52Z"/><path class="cls-20" d="M65.54,28h-.15a15.89,15.89,0,0,1,2.93-2.44c2-1.48,4.08-3,6.19-4.34s4.2-2.68,6.36-3.94c1.89-1.1,3.82-2.11,5.71-3.21.77-.45,1.64-.73,2.45-1.11.58-.27,1.1-.72,1.8-.62-2.07,1.06-4.17,2.06-6.23,3.14-2.41,1.27-4.71,2.7-7,4.1-2.73,1.65-5.29,3.54-7.9,5.37C68.26,25.91,66.89,26.94,65.54,28Z"/><path class="cls-21" d="M60.15,71.22a8.52,8.52,0,0,0,4.05-1.17,11.19,11.19,0,0,0,1.94-1.76l.3-.12a7,7,0,0,1-2.51,2.34,4.46,4.46,0,0,1-2,.71,5.75,5.75,0,0,1-2.32.26,22.59,22.59,0,0,1-4.48-1.32,2.05,2.05,0,0,1-.54-2.55,14.65,14.65,0,0,1,2-2.27c.31-.26.46-.71.91-.82l0,0a.55.55,0,0,1-.12.48c-.7.8-1.43,1.58-2.12,2.39A1.51,1.51,0,0,0,55.92,70c.41.15.84.26,1.24.44a8.18,8.18,0,0,0,2,.48l.2,0C59.62,71.08,59.94,71,60.15,71.22Z"/><path class="cls-22" d="M107.51,91.36a33.28,33.28,0,0,1,5.17.5c.73.11.45.61.49,1a2.53,2.53,0,0,0-.72,1.66,15.73,15.73,0,0,0-.51,3.63,13.89,13.89,0,0,0,.1,2.41c.07.42-.12.6-.45.61a9.63,9.63,0,0,1-1.52.1,10.27,10.27,0,0,0-3,.12,2.05,2.05,0,0,1-1-.16,1,1,0,0,1-.38-1c.07-1.39.13-2.78.18-4.16a5.62,5.62,0,0,1,.36-1.41,8,8,0,0,0,.5-1.93A1.94,1.94,0,0,1,107.51,91.36Z"/><path class="cls-23" d="M30.42,117.62q-.18,3.38-.5,6.73c-.15,1.65-.08,3.34-.17,5-.08,1.37,0,2.73,0,4.1a2.27,2.27,0,0,1-3,2.12c-.49-.17-1-.26-1.48-.39a2.17,2.17,0,0,1-1.7-2.21c0-2.68.07-5.35.23-8,.18-3,.43-5.93.68-8.88a16.6,16.6,0,0,1,.32-1.71c0-.23,0-.43-.3-.51a45.85,45.85,0,0,1-5-2.05c-1.95-.77-3.72-1.87-5.58-2.8-.53-.27-1.24-.5-1.35-1.27a.24.24,0,0,1,.2-.06A43.29,43.29,0,0,0,20,111.52c1.4.61,2.82,1.2,4.24,1.76.63.25,1,.6.93,1.34-.23,2.8-.57,5.59-.74,8.4s-.39,5.57-.3,8.36c0,.44,0,.88,0,1.33,0,1.21.26,1.64,1.41,2a4.68,4.68,0,0,1,.53.17,3.43,3.43,0,0,0,2.23.2,1.42,1.42,0,0,0,.92-.93,32.44,32.44,0,0,0,.12-4.41c0-.51,0-1,0-1.55.08-1.64.15-3.27.22-4.91a2,2,0,0,1,.08-.65,15.9,15.9,0,0,0,.21-2.66,8.93,8.93,0,0,1,.08-1,3.14,3.14,0,0,0,.15-.8C30.1,117.9,30.09,117.63,30.42,117.62Z"/><path class="cls-24" d="M30.42,117.62c-.37.35,0,.9-.33,1.25a1.38,1.38,0,0,1-.1-1.25,8,8,0,0,0,.15-1.37,1.18,1.18,0,0,1,.13-.61c.3-.43.71-.38,1.13-.28,1.65.38,3.33.67,5,1,1.4.23,2.82.28,4.23.44.68.07,1.37.38,2.06,0,1.64-.77,2.16-3.25,1.48-4.78a2.8,2.8,0,0,0-1.36-1.13,55.69,55.69,0,0,0-6.16-3.25,37,37,0,0,0-3.82-1.52c-1.07-.37-1.12-.41-1-1.52,0-.14,0-.28,0-.42.56-3.25,1.38-6.44,2.23-9.62.07-.28.1-.61.48-.68.19.42-.11.76-.18,1.14-.31,1.24-.64,2.48-.93,3.74s-.56,2.62-.81,3.93a11.47,11.47,0,0,0-.4,2.18c0,.33.08.51.4.63,1.24.48,2.47,1,3.72,1.48a32.35,32.35,0,0,1,3.36,1.61c1.36.7,2.63,1.58,4,2.3a2.11,2.11,0,0,1,1.08,1.44c.43,1.68-.12,4-1.85,4.87a2.92,2.92,0,0,1-1.77.18c-1.81-.2-3.64-.36-5.44-.66a30.62,30.62,0,0,1-4.34-.88c-.47-.15-.72-.21-.78.42C30.53,116.7,30.45,117.16,30.42,117.62Z"/><path class="cls-25" d="M9.63,126.89c1.7.39,3.33,1,3.91,2.87a2.62,2.62,0,0,1-.53,2.67,4,4,0,0,1-4.08,1.09A4.5,4.5,0,0,1,6,132.07a3.21,3.21,0,0,1-.74-2.71,2.51,2.51,0,0,1,1.39-1.66A4.24,4.24,0,0,1,9.63,126.89Z"/><path class="cls-26" d="M44.84,143.85a4.58,4.58,0,0,1-3.46-1.36,3,3,0,0,1,.52-4.89c1.21-.86,2.51-.65,3.81-.51a4.87,4.87,0,0,1,3.16,2.08,3.13,3.13,0,0,1-.75,4A5,5,0,0,1,44.84,143.85Z"/><path class="cls-27" d="M12.68,107.75h-.14c-.88-1.85.09-3.17,1.26-4.44a2.16,2.16,0,0,1,1.88-.75,76.11,76.11,0,0,1,10,1.12.69.69,0,0,0,.87-.75,26.27,26.27,0,0,1,.65-3.54,36.67,36.67,0,0,1,1.07-4c.23-.84.49-1.67.72-2.51a1.54,1.54,0,0,1,.42-.93.28.28,0,0,1,.14.18A4.35,4.35,0,0,1,29.14,94c-.9,3.11-1.61,6.27-2.3,9.43-.28.81-.42,1-1.26.79-2.45-.47-4.93-.66-7.39-1-1-.12-2-.12-2.93-.16a1,1,0,0,0-.65.2A4,4,0,0,0,12.8,107C12.83,107.23,12.91,107.52,12.68,107.75Z"/><path class="cls-28" d="M34.77,95.58a.68.68,0,0,1-.1-.71C34.88,95.13,34.88,95.13,34.77,95.58Z"/><path class="cls-29" d="M86.15,48.89c-.26-.36-.72-.57-.76-1.1a.9.9,0,0,1,.38-1,.81.81,0,0,1,1.07.12c.22.24.42.49.62.74C87.24,48.33,86.66,48.56,86.15,48.89Z"/><path class="cls-30" d="M82.22,52.49a.47.47,0,0,1,.18-.71c.61-.17.57-.61.61-1.07s.1-.9.55-1a1,1,0,0,1,1.28.41.59.59,0,0,1-.28.46Z"/><path class="cls-31" d="M47.41,61.74A.49.49,0,0,1,48,62a.75.75,0,0,1-.07.12c-.14.19-.23.6-.55.4S47.13,62,47.41,61.74Z"/><path class="cls-32" d="M64.62,7.54a31.1,31.1,0,0,1-2.7,1.67c-2.34,1.45-4.64,2.95-6.91,4.52-3,2.11-6,4.37-8.88,6.66a12.24,12.24,0,0,0-3.23,3.95c-.24.29,0,.88-.6.95a1.58,1.58,0,0,1,.18-.73A16.17,16.17,0,0,1,44,22.15a28.44,28.44,0,0,1,4.9-4.26c2-1.57,4.07-3,6.07-4.49,1.2-.93,2.53-1.69,3.79-2.55C60.42,9.7,62.23,8.77,64,7.7a3.2,3.2,0,0,1,.52-.18C64.53,7.47,64.58,7.47,64.62,7.54Z"/><path class="cls-14" d="M64.62,7.54l-.15,0a16.27,16.27,0,0,1,2.34-1.4c.91-.56,1.88-1,2.83-1.51.26-.13.27-.27.17-.49l.68.32c0,.11-.06.22-.2.25-1.53.37-2.75,1.39-4.13,2.05C65.64,7,65.13,7.27,64.62,7.54Z"/><path class="cls-33" d="M42.3,25.29c.43-.17.29-.7.6-.95A3.16,3.16,0,0,1,42.33,26a13.92,13.92,0,0,0-1.1,4.83,30.26,30.26,0,0,0,0,5.55,3.62,3.62,0,0,0,.53,1.77,1.07,1.07,0,0,0,.64.49,2.11,2.11,0,0,1,1.68,2.17c-.17,2,.11,3.89.07,5.83-.06,2.41.05,4.82.12,7.22,0,1.42-.05,2.82,0,4.24.06,1.69.09,3.39.11,5.09a5,5,0,0,1-3.59,1.93,9.67,9.67,0,0,1-2.28.19c-.22,0-.47,0-.65-.14.6,0,1.13-.08.9-1a.74.74,0,0,1,.6-.89c.49-.14.66.21.81.57l.23.66c.09.24.2.46.53.45a.82.82,0,0,0,.63-.39c.19-.28-.1-.43-.24-.58-.8-.82-1.57-1.67-2.42-2.43a2,2,0,0,1-.67-1.39c-.09-.72.52-1.1,1.25-.8a4,4,0,0,1,1.57,1.44,2.22,2.22,0,0,0,.53.53c.24.17.47.45.8.2a.91.91,0,0,0,.37-.92,1.41,1.41,0,0,1,.82-1.71c.5-.26.5-.87.45-1.29-.12-1.15.11-2.28,0-3.41-.22-3.21,0-6.43-.23-9.64-.1-1.08.09-2.17,0-3.26s-.21-2-1.49-2.37c-.46-.13-.71-.7-1-1.1A4.33,4.33,0,0,1,41,35.58c-.13-.55-.07-1.13-.21-1.68a5,5,0,0,1,.1-2.24,7.06,7.06,0,0,1,.42-3.19l0-.42c.15-.51,0-1.1.49-1.52A4.23,4.23,0,0,1,42.3,25.29Z"/><path class="cls-13" d="M119.59,39.21c-1.76-.56-3.55-1-5.34-1.52-1.6-.42-3.21-.86-4.79-1.34-1.81-.55-3.64-1.08-5.46-1.59s-3.76-1.16-5.66-1.62c-1.53-.37-3-.92-4.54-1.28-.69-.16-1.5-.15-2-.88a.4.4,0,0,0-.15.3c0,1.81-.29,3.6-.32,5.42a1.42,1.42,0,0,0,.56,1.2,1.65,1.65,0,0,0,1.22.39.76.76,0,0,1,.16,0,2.5,2.5,0,0,0,1,.5A1.56,1.56,0,0,1,95,41.31a3.78,3.78,0,0,1-.5.48c-.87.71-1.74,1.4-2.57,2.14-.15.13-.39.21-.27.49l-.29.38h-.15c-1.36.84-2.47,2-3.81,2.84a5.57,5.57,0,0,1-1.34,1.18,6.36,6.36,0,0,1-1.3,1.24c-.77.93-1.85,1.5-2.65,2.39a9.76,9.76,0,0,1-2.54,2.12,2.2,2.2,0,0,0-.7.66,16.26,16.26,0,0,1-3,3.11,38.35,38.35,0,0,0-4.27,4.18,41.88,41.88,0,0,0-4.92,5.38l-.28.28a14,14,0,0,1-2.5,2.11,8.5,8.5,0,0,1-4.32,1A8.4,8.4,0,0,1,58.2,71a6.48,6.48,0,0,1-2.75-.9c-1-.68-1.39-1.6-.62-2.54s1.83-2,2.75-3a2.79,2.79,0,0,1,.63-.74c.82-.76,1.49-1.57.92-2.79a1,1,0,0,1,0-.35c0-1.23-.38-2.42-.32-3.66a1.19,1.19,0,0,0-.14-.61,2.15,2.15,0,0,1-.15-1.09,5.34,5.34,0,0,0-.14-1.73,3.38,3.38,0,0,1-.14-1.38A3.31,3.31,0,0,0,58,50.65c-.19-.51-.48-.56-.88-.15-.25.25-.41.57-.67.8-2,1.76-3.85,3.64-5.73,5.52s-3.54,3.68-5.31,5.52C44.11,63.63,42.9,65,41,65.19a6.91,6.91,0,0,1-3.44-.06,6.42,6.42,0,0,0-1.2-.31,4.83,4.83,0,0,1-1.92-.71,1.89,1.89,0,0,1-.1-3.06q1.65-1.71,3.22-3.48a1.07,1.07,0,0,0,.29-1.16,9.37,9.37,0,0,1-.4-3.36c-.15-1.95-.27-3.93-.41-5.89a8,8,0,0,0-.34-2.1l-.14,0c-1.2,1.52-2.78,2.66-4.11,4.06-2,2-4,4-5.91,6.09Q22,59.9,17.9,64.92c-.18.63.05,1.15.77,1.22a18.48,18.48,0,0,1,2.58.69c1.53.39,3,.94,4.49,1.44,2.89,1,5.8,1.91,8.75,2.7a18.77,18.77,0,0,1,2.94.79,11.07,11.07,0,0,0,1.65.83c2,.54,4,1.31,6,1.9a15.79,15.79,0,0,0,1.82.51l.62.15c1.61.45,3.18,1.09,4.76,1.63l4.06,1.41a4,4,0,0,1,.41.31,1,1,0,0,0,.65.21,5.21,5.21,0,0,1,2,.48,68.91,68.91,0,0,0,7.14,2.42,14.1,14.1,0,0,1,2.81,1c.68.4.71.52.21,1.12a28,28,0,0,0-1.88,2.68c-.12.19-.3.37-.22.63a.13.13,0,0,0,.19,0c.72-1,1.46-1.9,2.16-2.88.93-1.3,1.9-2.57,2.91-3.79q3.6-4.34,7.48-8.42c2.48-2.64,5-5.28,7.56-7.79,2-1.87,3.79-3.89,5.91-5.6.55-.45,1-1.09,1.54-1.5a22.86,22.86,0,0,0,3.11-2.68c1.49-1.47,3.13-2.77,4.68-4.17.82-.75,1.64-1.52,2.53-2.19,2.32-1.77,4.42-3.81,6.87-5.43a31.07,31.07,0,0,0,3.41-2.75,3.57,3.57,0,0,1,4.86.42,6.38,6.38,0,0,0,.73.74A3.2,3.2,0,0,0,119.59,39.21ZM60.94,72.28a6.91,6.91,0,0,0,1.1.22C61.44,72.78,61.21,72.73,60.94,72.28ZM78.29,57.61a2.17,2.17,0,0,1,.73-.86A2.33,2.33,0,0,1,78.29,57.61Zm4.82-3.4c-.11.9-.37,1.11-1.29,1a2.71,2.71,0,0,0-.75-.05c.72-.68,1.47-1.31,2.18-2A9.44,9.44,0,0,0,83.11,54.21Z"/><path class="cls-34" d="M37.51,57.75c-.78.82-1.56,1.63-2.32,2.46a12.53,12.53,0,0,0-1.14,1.29,1.71,1.71,0,0,0,.79,2.7,25,25,0,0,0,2.51.77.88.88,0,0,1,.28,0c.55.06,1,0,.61-.71a.5.5,0,0,1,0-.21A26.17,26.17,0,0,0,38,59.28C37.94,58.8,38.23,58.08,37.51,57.75Z"/><path class="cls-32" d="M41.32,28.47a17.21,17.21,0,0,0-.42,3.19A4.48,4.48,0,0,1,41.32,28.47Z"/><path class="cls-32" d="M40.8,33.9A2.94,2.94,0,0,1,41,35.58,3,3,0,0,1,40.8,33.9Z"/><path class="cls-32" d="M41.83,26.53a15.83,15.83,0,0,0-.49,1.52C41.41,27.51,41.21,26.89,41.83,26.53Z"/><path class="cls-19" d="M54,32.65a8.58,8.58,0,0,0-.37,3.55c.13,1.29.23,2.58.32,3.87a8,8,0,0,0,.85,3.11,1.58,1.58,0,0,0,1.09.81,2.27,2.27,0,0,1,1.68,2.07c.29,1.45.37,2.93.54,4.39-.65-.54-.84-.56-1.39.12a19,19,0,0,1-2.57,2.51,25,25,0,0,0-2,2.11c-.91.94-1.84,1.86-2.76,2.8-1.12,1.13-2.22,2.28-3.25,3.5a4.75,4.75,0,0,1-.69.57c-.08-2.45-.17-4.9-.21-7.35,0-.86,0-1.73,0-2.6,0-1.55,0-3.11,0-4.66,0-2.27-.08-4.54-.1-6.81a5.94,5.94,0,0,0-.64-2c-.2-.48-.72-.55-1.17-.68a1.22,1.22,0,0,1-1-1,19.34,19.34,0,0,1,.16-8.19c.25-1.06.82-2,1-3.07.09-.54.76-1,1.15-1.44a24.8,24.8,0,0,1,4.06-3.66c1.6-1.22,3.17-2.49,4.8-3.68.79-.57,1.6-1.11,2.36-1.72,2.3-1.82,4.82-3.35,7.28-4.94,1.59-1,3.29-1.89,4.94-2.83a6.53,6.53,0,0,0,1.2-.82c.54-.48,2.49-.84,3-.32a4.1,4.1,0,0,1,1.2,2.59c.06.87-.09,1.76-.09,2.64a9.23,9.23,0,0,0-.14,2.41c.07.3-.15.58-.49.82-1.34.94-2.82,1.68-4.11,2.7-1,.78-2.12,1.4-3.19,2.09a2,2,0,0,0-.71.66c-.07.5-.59.51-.89.76-1.56,1.33-3.3,2.43-4.84,3.8a2.47,2.47,0,0,1-.36.19l-.58.53A9.76,9.76,0,0,0,55.3,29a17.63,17.63,0,0,0-1.08,3.19C54.17,32.38,54.15,32.55,54,32.65Z"/><path class="cls-34" d="M57.1,70.56c-.46-.15-.93-.29-1.39-.45a1.67,1.67,0,0,1-.77-2.56,28,28,0,0,1,2.37-2.62,11.45,11.45,0,0,0,1.18-1.33l.29-.27c.41-.33.68-.26.72.3.08,1.24.31,2.46.41,3.69a30.27,30.27,0,0,1,.3,3c0,.81,0,.89-.89.74h0C58.54,71,57.85,70.65,57.1,70.56Z"/><path class="cls-35" d="M59.32,71.08c.69.09.81-.16.76-.86-.16-2.18-.59-4.32-.71-6.5,0-.49-.21-.55-.59-.39,0-.3.32-.35.49-.52.24,0,.4.08.39.37a24.51,24.51,0,0,0,.44,4.19,15,15,0,0,0,.4,3.33c.11.34-.31.3-.35.52C59.87,71.21,59.57,71.3,59.32,71.08Z"/><path class="cls-35" d="M58.49,63.6a2.6,2.6,0,0,1-1.18,1.33l.2-.36Z"/><path class="cls-20" d="M58.67,24.88a33.13,33.13,0,0,1,4-3.12c.72-.53,1.42-1.09,2.13-1.63H65a26.69,26.69,0,0,1-3,2.34c-.89.67-1.76,1.35-2.62,2.06C59.21,24.72,59,25,58.67,24.88Z"/><path class="cls-20" d="M65.18,20a6.43,6.43,0,0,1,1.87-1.18A4,4,0,0,1,65.18,20Z"/><path class="cls-36" d="M77.48,30.83c-.09.84-.41,1.14-1.09,1.13a1.38,1.38,0,0,0-.8.17c-.19.13-.41.32-.6.06s-.33-.52-.12-.76a3.13,3.13,0,0,0,.56-1.74c0-.39.24-.84.67-.89s.61.35.83.65A5,5,0,0,1,77.48,30.83Z"/><path class="cls-37" d="M77.36,54.81a1.34,1.34,0,0,1-1.1,1c-.62.06-.73-.41-.89-.87a2.91,2.91,0,0,1,0-1.89c.14-.41.33-.81.87-.72s.91.36.77.94S77.45,54.18,77.36,54.81Z"/><path class="cls-38" d="M86.9,41.27a.83.83,0,0,1,1,.42c.36.68.81,1.33.26,2.11a.69.69,0,0,1-1.26,0,6.76,6.76,0,0,1-.58-2.05C86.16,41.23,86.74,41.3,86.9,41.27Z"/><path class="cls-39" d="M75.15,57.39c-.11.36-.23.83-.39,1.29s-.51.56-.9.23a1.22,1.22,0,0,1-.46-1.48A2.24,2.24,0,0,0,73.61,56c-.08-.32.13-.42.41-.33A2.78,2.78,0,0,1,75.15,57.39Z"/><path class="cls-40" d="M70.68,60.68c.12-.33.11-.86.67-1.07a1,1,0,0,1,1.21.17c.56.67-.22,1-.4,1.5a.66.66,0,0,1-1,.42A1,1,0,0,1,70.68,60.68Z"/><path class="cls-41" d="M74.25,49.38a3.87,3.87,0,0,1,0-.48.64.64,0,0,1,.56-.61c.35-.06.42.24.51.47a1.93,1.93,0,0,1,0,1.85c-.12.19-.27.41-.53.39s-.34-.24-.44-.47A2.07,2.07,0,0,1,74.25,49.38Z"/><path class="cls-42" d="M88.34,24.65a1.56,1.56,0,0,0-.09,1.11.29.29,0,0,1-.22.38.32.32,0,0,1-.42-.25.9.9,0,0,0-.44-.67c-.52-.25-.43-.66-.26-1.06s.46-.7.84-.56A1,1,0,0,1,88.34,24.65Z"/><path class="cls-42" d="M90.4,25c-.19.32-.42.73-.89.67s-1-.17-.89-.78a1,1,0,0,1,.85-1C89.81,23.87,90.42,24.57,90.4,25Z"/><path class="cls-36" d="M78.37,30.38c.2,0,.43,0,.37.29s-.07.61-.4.64a.56.56,0,0,1-.56-.51C77.76,30.46,78.14,30.47,78.37,30.38Z"/><path class="cls-35" d="M57.1,70.56a5.89,5.89,0,0,1,2.19.51A5.53,5.53,0,0,1,57.1,70.56Z"/><path class="cls-43" d="M12.68,107.75a5.74,5.74,0,0,1,.09-2.54,6.55,6.55,0,0,1,1.9-2.34.39.39,0,0,1,.27,0,32.32,32.32,0,0,1,3.67.25,24,24,0,0,0,2.69.26c1.35.1,2.65.38,4,.61,1,.16,1.14.12,1.44-.61.14.59.55.75,1.12.88a11.73,11.73,0,0,1,3.29.85c.24.14.37,0,.46-.23s0-.54.39-.56a4.7,4.7,0,0,1,0,.76c-.1.49.17.67.56.79a41.52,41.52,0,0,1,7,3c1.15.62,2.31,1.21,3.4,1.92a2.72,2.72,0,0,1-.72.54A2.66,2.66,0,0,0,41,113a12,12,0,0,1-.36,1.49,2.94,2.94,0,0,0,.29,1.81c.1.33.44.3.71.34s.89-.1,1.26.26a2.82,2.82,0,0,1-1.63.12c-1.14-.18-2.3-.26-3.45-.36a40.4,40.4,0,0,1-5.13-.87c-.56-.12-1.13-.23-1.69-.37-.28-.07-.43.13-.63.22a24.54,24.54,0,0,1-3.58-1.06,2.82,2.82,0,0,0-1.81-.17c.08-.46-.12-.7-.56-.88-2-.79-3.91-1.6-5.84-2.44-1.77-.78-3.46-1.72-5.14-2.67A4.16,4.16,0,0,1,12.68,107.75Z"/><path class="cls-44" d="M25,114.44c.1-.5.37-.31.71-.26,1.54.27,3,.92,4.46,1.34.08,0,.14.1.22.15s0,.37-.05.56a7.74,7.74,0,0,0-.28,1.91c-.11,1.49-.06,3-.25,4.49l-.05.56c-.21,1.42-.13,2.85-.26,4.28a2.49,2.49,0,0,0-.19,1c-.07,1.71-.14,3.42-.22,5.13a1.31,1.31,0,0,1-1.5,1.42,5.21,5.21,0,0,0-1.31,0l-.13,0-.4-.11c-1.78-.54-1.88-.75-1.87-2.59,0-1.66.08-3.3.12-4.95.07-2.86.34-5.71.54-8.56C24.63,117.39,24.9,115.92,25,114.44Z"/><path class="cls-44" d="M29.52,128.21l0,1.54a39.34,39.34,0,0,1-.21,4.6,1.38,1.38,0,0,1-.86.84l-.05-.12a3.12,3.12,0,0,0,.7-2.42c.08-1.46.05-2.92.25-4.37A.15.15,0,0,1,29.52,128.21Z"/><path class="cls-43" d="M29.79,122.63,30,117a.92.92,0,0,1,.29-.74c.05.89-.3,1.75-.23,2.64s-.1,2-.16,3C29.91,122.15,30,122.42,29.79,122.63Z"/><path class="cls-43" d="M29.52,128.21H29.4c-.21-.23-.12-.46,0-.69.06-1.2.11-2.4.18-3.6,0-.24-.07-.51.15-.72C29.67,124.87,29.59,126.54,29.52,128.21Z"/><path class="cls-43" d="M29.27,134.35l.21-4.6A19.17,19.17,0,0,1,29.27,134.35Z"/><path class="cls-44" d="M28.41,135.19a3,3,0,0,1-2.28-.11l.05,0a4.21,4.21,0,0,1,2.2.1Z"/><path class="cls-45" d="M32,104.28c-.28.34-.07,1-.48,1.12s-.73-.3-1.12-.45a13.67,13.67,0,0,0-2.88-.6c-.78-.11-.85-.42-.78-1,.46-2.55,1-5.09,1.74-7.58.36-1.25.68-2.5,1-3.74A4.21,4.21,0,0,0,30,90.83a1.76,1.76,0,0,1,2.11-1.3,9.67,9.67,0,0,1,2,.62A1.91,1.91,0,0,1,35,92.56c-.18.44-.27.88-.42,1.32a7.51,7.51,0,0,0-.72,2.3c-.6,2.49-1.31,5-1.68,7.5C32.1,103.88,32,104.08,32,104.28Z"/><path class="cls-46" d="M42.9,116.93l-1.53-.09c-.4,0-.53-.23-.72-.62-.63-1.26,0-2.38.23-3.51a2.6,2.6,0,0,1,2-2c1.55.45,2,2.09,1.68,3.54A3.73,3.73,0,0,1,42.9,116.93Z"/><path class="cls-47" d="M6,129.7a2.25,2.25,0,0,1,2.4-2,5.14,5.14,0,0,1,2.48.32,3.93,3.93,0,0,1,1.57,1.27.66.66,0,0,1,.26.79,1.79,1.79,0,0,1-1.39,1.5,5.24,5.24,0,0,1-5-1.26C6.15,130.15,5.9,130,6,129.7Z"/><path class="cls-48" d="M6,129.7c1.22,1.22,2.56,2.08,4.42,1.76.6-.1,1.18,0,1.64-.54a1.44,1.44,0,0,0,.39-1.64.56.56,0,0,1,.56.32,3.3,3.3,0,0,1-.4,2.56c-1,1.13-2.18,1.11-3.53,1a3.75,3.75,0,0,1-2.28-1,5,5,0,0,1-1.08-1.81A.46.46,0,0,1,6,129.7Z"/><path class="cls-47" d="M41.34,139.5c0-.94.51-1.37,1.38-1.78a3.24,3.24,0,0,1,2.76-.11,5.08,5.08,0,0,1,2.45,1.48,1.69,1.69,0,0,1-1.12,2.42,5.4,5.4,0,0,1-5.13-1.28A1,1,0,0,1,41.34,139.5Z"/><path class="cls-49" d="M41.34,139.5c1.11,1.83,2.92,2.07,4.78,2,1.28-.06,1.74-.68,1.79-2,0-.14,0-.28,0-.42a2,2,0,0,1,.91,2.07,2.15,2.15,0,0,1-.72,1.22,2.51,2.51,0,0,1-1.79,1,7,7,0,0,1-2.74-.18c-.92-.4-1.92-.82-2.23-2a2.11,2.11,0,0,0-.26-.49C40.74,140.26,40.77,139.83,41.34,139.5Z"/><path class="cls-50" d="M54.2,43.48a1.25,1.25,0,0,1-1,1.31c-.33.06-.4.25-.43.52a.57.57,0,0,1-.47.54.54.54,0,0,1-.58-.3,5.28,5.28,0,0,1-.5-.82c-.21-.51.08-1,.6-1s.75-.27.92-.71.11-.68.4-.94.88-.27,1,.26A8,8,0,0,1,54.2,43.48Z"/><path class="cls-51" d="M56.49,24a.9.9,0,0,1-.74,1,2,2,0,0,0-1.12.78c-.14.17-.29.33-.52.27s-.26-.33-.2-.52a12,12,0,0,1,1.14-3.2c.22-.33.5-.27.77,0A2.19,2.19,0,0,1,56.49,24Z"/><path class="cls-52" d="M53,36.65a1.93,1.93,0,0,1-1.49,2c-.48.13-.8-.11-.64-.54.32-.84.26-1.74.51-2.58.12-.39.29-.75.79-.74s.6.38.67.75S53,36.39,53,36.65Z"/><path class="cls-53" d="M53.76,47.78c0-.3,0-.51,0-.72,0-.44.24-.89.68-.92a1,1,0,0,1,1,.86c.07.38.16.76.24,1.14a1.57,1.57,0,0,1-1.19,1.72.52.52,0,0,1-.63-.51A5.7,5.7,0,0,1,53.76,47.78Z"/><path class="cls-54" d="M52,32.56a2.91,2.91,0,0,1,.91-2c.22-.19.43-.53.76-.35a.79.79,0,0,1,.33.86,14.66,14.66,0,0,1-.65,2.59.49.49,0,0,1-.49.3.65.65,0,0,1-.69-.36A2,2,0,0,1,52,32.56Z"/><path class="cls-55" d="M51.77,51.8c-.1-.54.34-.95.38-1.47,0-.23.25-.29.49-.19A1.28,1.28,0,0,1,53.33,52a3.36,3.36,0,0,1-.37.67c-.16.21-.31.52-.64.44a.77.77,0,0,1-.56-.72A3.47,3.47,0,0,1,51.77,51.8Z"/><path class="cls-56" d="M33.84,111c-2-.38-4-.69-6-1.15a57.44,57.44,0,0,1-10.21-3.56,2.31,2.31,0,0,1-.91-.84c-.19-.25.35-.74.86-.71,1,.08,2,.15,3,.3a45.1,45.1,0,0,1,6.07,1.36c1.68.49,3.32,1.11,5,1.67a14,14,0,0,1,2.87,1.23,4.83,4.83,0,0,1,1,.76c.14.15.38.26.27.5a.68.68,0,0,1-.61.4l-1.32-.06Z"/><path class="cls-57" d="M28.38,135.14l-2.2-.1c.12-.27.36-.25.59-.24a9.13,9.13,0,0,0,1,0,1,1,0,0,0,1.05-1.05c.09-1.83.16-3.66.25-5.49,0-.29-.06-.63.3-.79,0,.23,0,.46,0,.69-.07,1.67-.19,3.34-.21,5A2.16,2.16,0,0,1,28.38,135.14Z"/><path class="cls-8" d="M13,97.18c7.72,0,7.74-12,0-12s-7.73,12,0,12Z"/><path class="cls-8" d="M9.53,93.08c4.51,0,4.51-7,0-7s-4.51,7,0,7Z"/><path class="cls-8" d="M8.33,92.5c4.5,0,4.51-7,0-7s-4.51,7,0,7Z"/><path class="cls-8" d="M67.55,87.09c-.32-.08-.48.15-.61.36-.5.75-1,1.48-1.53,2.25A71.41,71.41,0,0,0,61,97.48a1,1,0,0,1-1.61.44,2.69,2.69,0,0,0-1.28-.51A4.29,4.29,0,0,1,56.54,97a10.61,10.61,0,0,0-2.86-.86,9.67,9.67,0,0,1-2.39-.77,11.66,11.66,0,0,0-3.3-1.1c-2.26-.28-4.28-1.4-6.5-1.81a1.27,1.27,0,0,1-.45-.19,4.67,4.67,0,0,0-1.71-.57,12.14,12.14,0,0,1-1.77-.38c-.53-.19-1.05.06-1.58.08a.28.28,0,0,0-.26.23c.09-.66,0-.74-.55-.74a14.5,14.5,0,0,1-1,4.15c-.12.62-.43,1.18-.53,1.8-.16,1-.42,2-.67,3-.36,1.46-.63,2.94-.9,4.42-.21,1.11,0,1.25,1,1.62,1.27.46,2.53.94,3.75,1.5a63.46,63.46,0,0,1,6.78,3.68,1.74,1.74,0,0,1,.76.87,4.51,4.51,0,0,1-.39,3.93,2.66,2.66,0,0,1-3,1.28,3.87,3.87,0,0,0-.68-.12,53,53,0,0,1-6.41-.85,18,18,0,0,1-2.72-.58c-.43-.16-.71,0-.82.48a7.69,7.69,0,0,0-.21,1.58c.05,2.65-.46,5.27-.5,7.92s-.29,5.2-.18,7.81a2.06,2.06,0,0,1-2.6,2c-.61-.15-1.22-.3-1.82-.47a1.92,1.92,0,0,1-1.33-1.71c0-1,0-1.9,0-2.85.05-3.66.4-7.3.61-10.94a3.7,3.7,0,0,1,.07-.48,42.31,42.31,0,0,1,.54-4.49c.11-.4-.1-.68-.56-.81a49.65,49.65,0,0,1-5.71-2.35,49.79,49.79,0,0,1-4.8-2.51c-.47-.25-1-.48-1.2-1.1a2.91,2.91,0,0,1,.09-2.79,9.46,9.46,0,0,1,1.33-1.68,1.58,1.58,0,0,1,1.31-.5,84.44,84.44,0,0,1,10,1.07c.73.09,1.2-.17,1.26-.91s.3-1.45.4-2.19c.18-1.21.53-2.39.81-3.58s.66-2.17.94-3.27a5.82,5.82,0,0,1,.6-1.76c.36-1.06.66-2.15,1.8-2.68a.19.19,0,0,0,0-.34,4.7,4.7,0,0,0-.75-.13,48.11,48.11,0,0,1-5.11-1.62,11.12,11.12,0,0,0-3.38-.74,1.08,1.08,0,0,0-.18,0,80,80,0,0,0-8.38-2.81L13,83.59a8.53,8.53,0,0,0-3.46-1A1,1,0,0,1,9,82.42a2.34,2.34,0,0,0-1.59-.28L7,82.06a.52.52,0,0,0-.62.35,26,26,0,0,1-1,3.09,2.82,2.82,0,0,0-.18.29,13.07,13.07,0,0,0-1.07,3.48,1.66,1.66,0,0,0-.11.38c-.17,1.31-.56,2.57-.83,3.86-.4,2-.79,4-1.11,5.95-.29,1.8-.46,3.63-.72,5.44-.5,3.47-.72,7-.92,10.47-.13,2.15-.19,4.31-.23,6.48s-.16,4.45,0,6.68A8,8,0,0,0,3,134.32l1.09.74a11,11,0,0,0,2.46.94c2.08.55,4.13,1.2,6.21,1.77,2.79.77,5.55,1.63,8.34,2.38,2.23.6,4.45,1.27,6.66,1.94,1.45.45,2.94.79,4.38,1.28,2,.68,4,1.12,6,1.76a11.94,11.94,0,0,0,1.79.54,34.09,34.09,0,0,1,4.35,1.19c1.21.36,2.45.64,3.64,1.1s2.16.52,3.2.91l.69,0a4.64,4.64,0,0,1,.83.06,1.93,1.93,0,0,0,1.4,0c-.2,0-.45,0-.65-.17a1.75,1.75,0,0,1,.88-.26,1.88,1.88,0,0,0,1.13-.65c.26-.32-.09-.59-.21-.87a1,1,0,0,1-.06-.34,55.49,55.49,0,0,1-.18-7.84c.09-3.65.19-7.29.55-10.93.27-2.67.36-5.34.76-8,.44-2.87.84-5.76,1.31-8.63.45-2.71,1.22-5.35,1.91-8a38.49,38.49,0,0,1,3.22-8.12c1-1.84,2-3.65,3.19-5.39.6-.89,1.19-1.79,1.79-2.69Z"/><path class="cls-38" d="M81.61,37.58c.29.78.81.73,1.41.53a7.15,7.15,0,0,1,.94-.22.8.8,0,0,0,.63-1.24c-.14-.29-.32-.57-.45-.86-.18-.45.07-.74.38-1s.53-.15.79.06.77.11,1.12,0,.28-.48.23-.78a1.68,1.68,0,0,1,.46-1.2.43.43,0,0,1,.71-.07,1.43,1.43,0,0,1-.41,2.48,1.8,1.8,0,0,0-.83,2c.16.94-.09,1.52-.76,1.82-.42.19-1,0-1.3.51s.2.88.15,1.34c0,.11,0,.28,0,.34-.88.82,0,1.59.1,2.37a.71.71,0,0,0,1,.54.56.56,0,0,1,.71.26c.13.28-.09.49-.33.6s-.44.47-.6.74-.48.6-.91.42-.93-.48-.76-1.07a1,1,0,0,0-.22-1,2.66,2.66,0,0,1-.37-1.8c0-.44-.12-.81-.51-1a1.83,1.83,0,0,1-1-1.95A15.75,15.75,0,0,1,81.61,37.58Z"/><path class="cls-58" d="M80.2,34.73a1.35,1.35,0,0,1-.18.76c-.32.51-.69.55-1.13.14a3,3,0,0,1-.45-3c.21-.4.4-.43.82-.19A2.13,2.13,0,0,1,80.2,34.73Z"/><path class="cls-59" d="M72.1,44.11c.41-.67.13-1.6.66-2.3s.79-.6,1.12.11a2.9,2.9,0,0,1-.28,2.64.92.92,0,0,1-1.08.42C72.21,44.9,72.11,44.52,72.1,44.11Z"/><path class="cls-60" d="M88.07,33.87c0,.38,0,.79-.51.75a.66.66,0,0,1-.58-.8c.06-.34.07-.92.55-.89S88.15,33.42,88.07,33.87Z"/><path class="cls-30" d="M80.25,51.93h0c-.25-.1-.6.36-.74,0a1.87,1.87,0,0,1-.12-1.34,2.12,2.12,0,0,0,.25-1.45c-.09-.33.25-.62.67-.63.23,0,.58,0,.55-.26-.11-1,.39-2-.14-3a5.86,5.86,0,0,1-.3-.55c-.26-.55-.14-.8.44-.78,1.54,0,2-.26,2.35,1.64a1.54,1.54,0,0,0,.24.5.74.74,0,0,1-.08,1.11,1.06,1.06,0,0,0-.3.67c-.15,1-.6,1.3-1.57,1.07-.52-.12-.52.29-.38.55a2.6,2.6,0,0,1,.15,1.8C81.22,51.84,81,52.14,80.25,51.93Z"/><path class="cls-38" d="M86.61,28.74A1.16,1.16,0,0,1,85.2,30c-.32,0-.6-.14-.9.12a.56.56,0,0,1-.76-.09,1,1,0,0,1-.28-1,.55.55,0,0,1,.59-.49c.4,0,.63-.06.74-.51a.89.89,0,0,1,.91-.65.93.93,0,0,1,.9.65C86.49,28.29,86.57,28.58,86.61,28.74Z"/><path class="cls-58" d="M83.37,32.34a.63.63,0,0,0,.29.81.66.66,0,0,1-.14,1.15,1.51,1.51,0,0,0-1,.92c-.16.41-.53.48-.9.13a2.28,2.28,0,0,1-.27-3,1.76,1.76,0,0,0,.44-1.21,1,1,0,0,1,.3-.82c.25-.22.54-.32.76.05A2.84,2.84,0,0,1,83.37,32.34Z"/><path class="cls-30" d="M76.79,48.41a2.14,2.14,0,0,0-.37-1.78,1.58,1.58,0,0,1,0-1.66c.17-.35.44-.38.59,0a4.62,4.62,0,0,0,1.21,1.8c.57.54.34,2.67-.23,3.21s-1,.17-1.18-.49A5.78,5.78,0,0,1,76.79,48.41Z"/><path class="cls-61" d="M75.28,38.26c-.27.69-.49,1.38-.8,2-.2.41-.74.34-1-.09A2.06,2.06,0,0,1,74,37.42c.26-.17.39-.68.74-.51s.4.65.45,1A2,2,0,0,0,75.28,38.26Z"/><path class="cls-41" d="M73.1,49.75c.64.18.73.73,1,1.17a.77.77,0,0,1-.14.91c-.2.24-.41.11-.62,0a1.58,1.58,0,0,1-.65-1.56A.68.68,0,0,1,73.1,49.75Z"/><path class="cls-62" d="M72.8,45l1.27,6.67c.13.66,1.46.38,1.46-.24l.11-13.07-1.47.24a43.26,43.26,0,0,1,2.44,10.22c.08.66,1.46.37,1.46-.24,0-5,.09-10,.57-15L77.35,34c.31.25.33.86.41,1.22.1.52.2,1,.29,1.55l.6,3.11,1.2,6.21c.14.72,1.59.34,1.45-.39L80,38.79l-.63-3.28c-.16-.8-.2-1.84-.89-2.39a.85.85,0,0,0-1.28.48c-.49,5-.53,10-.57,15l1.46-.24a43.26,43.26,0,0,0-2.44-10.22c-.22-.6-1.45-.42-1.46.24l-.1,13.07,1.46-.24-1.27-6.67c-.13-.71-1.59-.34-1.45.39Z"/><path class="cls-62" d="M86.39,36.83l-1.47-6.62c-.12-.52-1.47-.21-1.46.27l.31,13.07,1.45-.28a43.91,43.91,0,0,1-2.75-10.13c-.08-.53-1.47-.2-1.46.27.12,5,.24,10-.09,15l1.3-.45c-.33-.25-.38-.9-.47-1.27s-.23-1-.35-1.54l-.69-3.08-1.39-6.17c-.13-.56-1.58-.19-1.45.38l1.54,6.86.74,3.26c.18.79.24,1.78.93,2.31.3.23,1.27,0,1.3-.46.32-5,.21-10,.09-15L81,33.53a43.44,43.44,0,0,0,2.76,10.13c.19.48,1.46.24,1.45-.27l-.31-13.07-1.45.28,1.47,6.62c.13.55,1.58.18,1.45-.39Z"/><path class="cls-62" d="M86.37,36l2.54-6.29c.16-.4-1.22-.12-1.38.13L80.37,40.76l1.38-.14a43.07,43.07,0,0,1,3.48-9.91c.17-.35-1.2-.14-1.38.14-2.75,4.19-5.5,8.39-8.61,12.33L76.63,43a1.93,1.93,0,0,1,.23-1.3c.19-.48.39-1,.59-1.45l1.21-3,2.39-5.94c.14-.35-1.27-.2-1.44.22l-2.48,6.19-1.22,3c-.29.73-1,1.88-.73,2.68.15.42,1.21,0,1.39-.22,3.11-3.94,5.86-8.13,8.6-12.33l-1.38.13a43.54,43.54,0,0,0-3.48,9.91c-.1.48,1.23.1,1.39-.13l7.15-10.93-1.38.13L84.93,36.2c-.14.35,1.27.2,1.44-.22Z"/><path class="cls-62" d="M70.56,36l-2.34,6.36c-.3.82,1.08.64,1.38.16l6.81-11.16H75a42.8,42.8,0,0,1-3.13,9.87c-.35.79,1.09.65,1.39.16,2.58-4.24,5.17-8.48,8.12-12.47H80c.18.43-.1,1-.25,1.37l-.52,1.42-1.08,3L76,40.54c-.28.77,1.17.74,1.39.15l2.35-6.44,1.13-3.09c.27-.75.92-1.88.6-2.69-.19-.5-1-.38-1.32,0-3,4.07-5.67,8.4-8.31,12.72l1.39.16a44.2,44.2,0,0,0,3.2-10.15c.14-.77-1.2-.39-1.42,0L68.22,42.32l1.38.16,2.34-6.37c.28-.77-1.16-.74-1.38-.15Z"/><path class="cls-62" d="M50.67,37.24l1.27,6.66c.07.38,1.44,0,1.44-.39l.11-13.07L52,30.83a44.27,44.27,0,0,1,2.44,10.22c0,.36,1.44,0,1.45-.39,0-5,.07-10,.55-14.95l-1.39.37c.62.51.62,1.88.76,2.61L56.48,32l1.23,6.38c.07.37,1.53,0,1.45-.39l-1.29-6.72L57.24,28c-.15-.74-.16-1.88-.79-2.39-.25-.2-1.37,0-1.4.37-.49,5-.54,10.07-.57,15.11l1.45-.39a44.27,44.27,0,0,0-2.44-10.22c-.15-.39-1.45,0-1.45.39l-.1,13.07,1.44-.39-1.26-6.66c-.07-.37-1.53,0-1.45.39Z"/><path class="cls-62" d="M64.26,29.1l-1.48-6.62c-.12-.55-1.47-.25-1.45.27l.3,13.06,1.46-.26a43.39,43.39,0,0,1-2.76-10.14c-.09-.56-1.47-.24-1.45.27.12,5,.23,10-.09,15l1.29-.46c-.33-.25-.38-.88-.46-1.25s-.24-1-.35-1.55l-.7-3.08-1.39-6.17c-.13-.6-1.58-.22-1.45.39l1.55,6.85L58,38.71c.18.79.25,1.8.94,2.32.32.25,1.26,0,1.29-.45.33-5,.22-10,.1-15l-1.46.27a43.31,43.31,0,0,0,2.76,10.13c.21.51,1.47.29,1.45-.26l-.3-13.07-1.46.27,1.48,6.62c.13.6,1.58.22,1.45-.39Z"/><path class="cls-62" d="M64.23,28.23l2.54-6.29c.1-.26-1.25,0-1.43.26L58.18,33.14l1.43-.27A43.07,43.07,0,0,1,63.09,23c.1-.21-1.23,0-1.43.27-2.74,4.19-5.5,8.39-8.61,12.33l1.44-.33a2,2,0,0,1,.23-1.32l.58-1.45,1.22-3,2.39-5.94c.08-.22-1.28-.1-1.43.26L55,29.93l-1.22,3c-.28.71-1,1.86-.74,2.65.13.37,1.29-.14,1.44-.32,3.11-3.94,5.86-8.14,8.61-12.34l-1.43.27a43.54,43.54,0,0,0-3.48,9.91c-.07.34,1.27,0,1.43-.27l7.16-10.93-1.43.26L62.8,28.49c-.09.22,1.28.1,1.43-.26Z"/><path class="cls-62" d="M48.38,28.38,46,34.74c-.22.62,1.21.33,1.42,0l6.81-11.15-1.42,0a42.3,42.3,0,0,1-3.12,9.89c-.32.73,1.1.55,1.37.1C53.71,29.3,56.33,25,59.32,21l-1.41.14a2,2,0,0,1-.2,1.27c-.18.51-.38,1-.57,1.54l-1.08,3L53.85,33c-.21.57,1.26.4,1.46-.15l2.3-6.31,1.13-3.09c.27-.74.93-1.87.62-2.67-.23-.57-1.16-.2-1.41.14-3,4-5.6,8.32-8.22,12.6l1.37.1a43.92,43.92,0,0,0,3.21-10.13c.13-.7-1.21-.32-1.41,0L46.09,34.62l1.41,0,2.34-6.37c.21-.57-1.25-.4-1.46.15Z"/><path class="cls-10" d="M80.56,10.76a27.43,27.43,0,0,1,6.77.44c1.28.2,2.52.58,3.78.87,0,.19-.11.25-.28.25a9.28,9.28,0,0,0-2.08.88,39.89,39.89,0,0,0-4,2c-2.49,1.27-4.87,2.73-7.24,4.2-3.75,2.32-7.33,4.88-10.85,7.52A13.56,13.56,0,0,0,65.44,28c-.19.21-.3.49-.56.65a1.44,1.44,0,0,1-.89.14,54.38,54.38,0,0,1-6-.89,6.1,6.1,0,0,0-.83-.11c-.31,0-.62-.06-.74-.41a.85.85,0,0,1,.23-.83c.37-.42.83-.75,1.2-1.17a2.57,2.57,0,0,1,.74-.61,5.27,5.27,0,0,0,1.74-1.22c1.34-1,2.67-2.06,4-3a3.17,3.17,0,0,0,.5-.47.66.66,0,0,1,.24-.17,5.08,5.08,0,0,0,1.8-1.2,3.93,3.93,0,0,1,1.15-.87c1.57-1.12,3.16-2.2,4.83-3.17.51-.3.93-.75,1.59-.67a39.25,39.25,0,0,1,3.81-2.11C79.07,11.49,79.81,11.13,80.56,10.76Z"/><path class="cls-12" d="M54,32.65a12.85,12.85,0,0,1,1.34-4.09,8.83,8.83,0,0,1,2.17-2.79c.18-.14.32-.34.58-.36a7.68,7.68,0,0,1-1.18,1.17.79.79,0,0,0-.32.79c.11.36.46.22.72.26,1.61.26,3.22.61,4.84.76a6.45,6.45,0,0,0,2.8.13,7.77,7.77,0,0,0-2,2.9,9,9,0,0,0-1,3.09,10.58,10.58,0,0,0-.36,2.11c.24,2.17-.09,4.38.41,6.55.35,1.52.24,1.58-1.38,1.54a10.52,10.52,0,0,0-2.57,0,.71.71,0,0,1-.62-.26,2.49,2.49,0,0,0-1.18-.69c-1.38-.32-1.64-1.52-2-2.62s-.07-2.54-.31-3.76A27.46,27.46,0,0,1,54,32.65Z"/></svg>