<svg id="Layer_1" data-name="Layer 1" xmlns="http://www.w3.org/2000/svg" viewBox="0 0 93.26 48.09"><defs><style>.cls-1{fill:#7a4322;}.cls-2{fill:#462301;}.cls-3{fill:#af7f45;}.cls-4{fill:#c18647;}.cls-5{fill:#995d24;}.cls-6{fill:#cba669;}.cls-7{fill:#b3935e;}.cls-8{fill:#f5c97e;}.cls-9{fill:#d0a774;opacity:0.81;}.cls-10{fill:#8e561d;}</style></defs><path class="cls-1" d="M56.94,7.62c2.53,0,20.7,2.25,29.08,6,2.69,1.21,1.32,6.46.83,7.43-1.4,2.8-36.39,14.16-36.18,15.62s.75,5.65-4.69,8.16c-5.09,2.35-16.07,3.72-30.18-6.78C9.22,33.16,5,19.23,11.89,15.76c5.86-2.93,11,4,13.91,2.94S52.13,7.62,56.94,7.62Z"/><path class="cls-2" d="M46.69,40.08c-.56-.44-1.47-.18-1.93-.76s0-1.27-.77-1.86c-1.5-1.15-3.22-.91-4.92-1A7.85,7.85,0,0,1,33.5,34a28.79,28.79,0,0,0-7.09-5.51c-1.73-.93-3.54-1.73-5.34-2.48-1.33-.56-2.83-.94-4.13-1.55-2.12-1-2.62-3.75-3.88-5.51a5.64,5.64,0,0,0-2.49-2.27c-5.2,4.42-1.06,16.92,5.09,21.5,14.12,10.5,25.1,9.13,30.19,6.78a11,11,0,0,0,1.14-.6c0-.08,0-.16,0-.24C46.87,43,47.64,40.83,46.69,40.08Z"/><path class="cls-3" d="M55.18,2.14C59,2.14,88,11.34,86.52,14.26S48.7,29.73,48.91,31.19,51.62,36,46.19,38.5c-5.09,2.35-18.6,3.77-30.93-7.1-5.58-4.92-8.83-13.46-1.88-16.93,5.85-2.92,7.73-.21,10.66-1.25S50.37,2.14,55.18,2.14Z"/><path class="cls-4" d="M54.62,3.22c3.52,0,30.62,8.16,29.26,10.86s-36.79,15-36.6,16.35,2.92,4.65-2.13,7c-4.73,2.17-16.41,3.5-27.87-6.54C12.1,26.31,8,18.5,14.5,15.29c5.43-2.7,8.22-.27,10.94-1.24S50.16,3.22,54.62,3.22Z"/><path class="cls-5" d="M71.15,22.74c-1.77.6-3.26,1.7-5,2.31-2,.7-4.2,1-6.15,1.81-1.71.66-3.28,1.38-5,2.1-1.12.47-4.31,1.91-4.86,1.81L50,31.2a3.71,3.71,0,0,0,1.07,2.85c1.27.82,1.86-.15,2.75-.93,2.27-2,4.74-2.82,7.69-3.91s5.93-2.34,8.91-3.23C72.94,25.23,75.1,21.39,71.15,22.74Z"/><path class="cls-6" d="M18,18.63a12.38,12.38,0,0,0,2.2-.29c.53-.11.31-.9-.21-.8a11.07,11.07,0,0,1-2,.26.42.42,0,0,0,0,.83Z"/><path class="cls-6" d="M16.78,22a7.61,7.61,0,0,0,.29,1.78.42.42,0,0,0,.8-.22A6.89,6.89,0,0,1,17.6,22a.41.41,0,0,0-.82,0Z"/><path class="cls-6" d="M18.61,28.09l2.51.42c.52.09.74-.71.22-.8l-2.51-.42c-.52-.08-.74.71-.22.8Z"/><path class="cls-6" d="M26.52,29.64a.42.42,0,0,0,0-.83.42.42,0,0,0,0,.83Z"/><path class="cls-6" d="M26.52,29.64a7.7,7.7,0,0,0,1.79-.16c.52-.12.3-.91-.22-.79a6.89,6.89,0,0,1-1.57.12.42.42,0,0,0,0,.83Z"/><path class="cls-7" d="M29.9,34.36a12.46,12.46,0,0,0,2.2.16.42.42,0,0,0,0-.83,10.86,10.86,0,0,1-2-.13c-.52-.09-.75.7-.22.8Z"/><path class="cls-6" d="M39,34.17A5.38,5.38,0,0,0,39.74,33a.41.41,0,0,0-.29-.51.43.43,0,0,0-.51.29,4.47,4.47,0,0,1-.65,1c-.3.45.42.86.71.42Z"/><path class="cls-6" d="M33.07,27.27a7.19,7.19,0,0,0,2.48-.43c.49-.19.28-1-.22-.8a6.45,6.45,0,0,1-2.26.4.42.42,0,0,0,0,.83Z"/><path class="cls-6" d="M26,22.67a3.86,3.86,0,0,0,1.22-.15c.51-.16.29-1-.22-.8a3.35,3.35,0,0,1-1,.13.41.41,0,0,0,0,.82Z"/><path class="cls-6" d="M26.38,16.68a.42.42,0,0,0,0-.83.42.42,0,0,0,0,.83Z"/><path class="cls-6" d="M26.52,16.68h2.37a.42.42,0,0,0,0-.83H26.52a.42.42,0,0,0,0,.83Z"/><path class="cls-6" d="M35.52,19.68l.84-1.25c.29-.45-.42-.86-.72-.42l-.83,1.25c-.3.45.42.86.71.42Z"/><path class="cls-6" d="M33.6,13.32c.83-.26,1.68-.43,2.51-.69.5-.17.29-1-.22-.8-.83.26-1.68.43-2.51.69-.5.17-.29,1,.22.8Z"/><path class="cls-6" d="M42.12,12.8l.69.69a.42.42,0,0,0,.59,0,.41.41,0,0,0,0-.58l-.7-.7a.41.41,0,0,0-.58,0,.42.42,0,0,0,0,.59Z"/><path class="cls-6" d="M44.42,32.22a2.16,2.16,0,0,1,.36,1.19.42.42,0,0,0,.83,0,3,3,0,0,0-.48-1.61c-.28-.44-1,0-.71.42Z"/><path class="cls-6" d="M54,22.34a6.89,6.89,0,0,1,1.71-.52c.53-.1.31-.9-.22-.8a8.48,8.48,0,0,0-1.91.6c-.48.24-.06.95.42.72Z"/><path class="cls-6" d="M53.53,17.5c.73-.29,1.47-.58,2.22-.83.51-.17.29-1-.22-.8-.75.25-1.49.54-2.22.83-.49.2-.28,1,.22.8Z"/><path class="cls-6" d="M48.37,9.42a9,9,0,0,0,2.05-.74c.48-.23.06-.95-.42-.71a7.53,7.53,0,0,1-1.85.65c-.52.11-.3.91.22.8Z"/><path class="cls-6" d="M52.55,5.66a3.82,3.82,0,0,1,2,.42c.5.19.71-.61.22-.8a4.53,4.53,0,0,0-2.45-.42c-.52.11-.3.9.22.8Z"/><path class="cls-6" d="M59.76,8.26a5.55,5.55,0,0,0,2.29.62.42.42,0,0,0,0-.83,4.62,4.62,0,0,1-1.88-.5c-.48-.23-.89.48-.41.71Z"/><path class="cls-6" d="M54.81,12.08a.41.41,0,0,0,0-.82.41.41,0,0,0,0,.82Z"/><path class="cls-6" d="M55,12a7.81,7.81,0,0,1,1.57-.52.42.42,0,0,0-.22-.8,10,10,0,0,0-1.77.6c-.48.23-.06.95.42.72Z"/><path class="cls-6" d="M62.58,17.5c.74-.14,1.49-.27,2.23-.42.52-.1.3-.9-.22-.79l-2.23.41c-.52.11-.3.9.22.8Z"/><path class="cls-3" d="M62.3,21.4a7.77,7.77,0,0,0,1.63-.6c.48-.23.06-.94-.41-.71a7.28,7.28,0,0,1-1.44.52.41.41,0,0,0,.22.79Z"/><path class="cls-6" d="M65.75,13.27c.32-.47.66-.92,1-1.39s-.42-.86-.71-.42-.66.92-1,1.39.42.86.71.42Z"/><path class="cls-6" d="M72.06,15a14.57,14.57,0,0,1,3.23-.4.42.42,0,0,0,0-.83,15.38,15.38,0,0,0-3.45.44c-.52.12-.3.92.22.79Z"/><path class="cls-8" d="M23.77,31.57a12.35,12.35,0,0,1,1.95.56c.49.2.71-.6.22-.8a12.31,12.31,0,0,0-2-.55c-.52-.11-.75.69-.22.79Z"/><path class="cls-8" d="M30.63,31.25a6.79,6.79,0,0,1,2-.79c.52-.11.3-.91-.22-.8a7.45,7.45,0,0,0-2.19.88.41.41,0,0,0,.41.71Z"/><path class="cls-8" d="M29.19,24.78a5.67,5.67,0,0,1,1.86-1.47c.48-.24.06-.95-.42-.71a6.19,6.19,0,0,0-2,1.6c-.33.4.25,1,.59.58Z"/><path class="cls-8" d="M20.88,24.15a5.72,5.72,0,0,0,1.63.74.42.42,0,0,0,.22-.8,4.77,4.77,0,0,1-1.43-.66c-.45-.29-.86.43-.42.72Z"/><path class="cls-8" d="M22,21.12a8.85,8.85,0,0,0,1.21-.46.41.41,0,1,0-.42-.71,8.73,8.73,0,0,1-1,.38c-.51.17-.29,1,.22.79Z"/><path class="cls-8" d="M31.65,16.81c.61-.17,1.19-.43,1.81-.56s.3-.91-.22-.8-1.2.4-1.81.56a.42.42,0,0,0,.22.8Z"/><path class="cls-8" d="M38.72,25.4a3.17,3.17,0,0,0,2.4.46c.53-.09.31-.89-.22-.8a2.36,2.36,0,0,1-1.77-.37c-.43-.31-.85.41-.41.71Z"/><path class="cls-8" d="M38.51,37.44a15.33,15.33,0,0,0,2.34-.15c.52-.09.3-.88-.22-.8a13.71,13.71,0,0,1-2.12.12.42.42,0,0,0,0,.83Z"/><path class="cls-8" d="M42.63,30.69a3.22,3.22,0,0,1,.63-.75c.37-.38-.21-1-.59-.59a4.19,4.19,0,0,0-.76.92.43.43,0,0,0,.15.57.42.42,0,0,0,.57-.15Z"/><path class="cls-8" d="M48,26.43a.41.41,0,0,0,0-.82.41.41,0,0,0,0,.82Z"/><path class="cls-8" d="M48.09,26.42,50.88,26c.52-.07.3-.87-.22-.8l-2.79.42c-.52.08-.3.87.22.8Z"/><path class="cls-8" d="M48.82,19.19h1a.42.42,0,0,0,0-.83h-1a.42.42,0,0,0,0,.83Z"/><path class="cls-8" d="M39.59,18.34a8.48,8.48,0,0,0,1.91-.6c.48-.23.06-.95-.42-.72a6.77,6.77,0,0,1-1.71.52c-.52.11-.3.9.22.8Z"/><path class="cls-8" d="M46.94,13.56l1.67-.84c.47-.24.06-1-.42-.71l-1.67.83c-.48.24-.06,1,.42.72Z"/><path class="cls-8" d="M40.81,10.35a11.81,11.81,0,0,1,1.67-1.11c.47-.24.05-1-.42-.71a11,11,0,0,0-1.67,1.11c-.42.32,0,1,.42.71Z"/><path class="cls-8" d="M45.82,8.12a2.67,2.67,0,0,0,1.19.2.42.42,0,0,0,0-.83,1.81,1.81,0,0,1-.77-.08.43.43,0,0,0-.57.15.42.42,0,0,0,.15.56Z"/><path class="cls-8" d="M49.24,6.23a2.53,2.53,0,0,1,.86.13c.51.16.73-.64.22-.8a3.29,3.29,0,0,0-1.08-.16.42.42,0,0,0,0,.83Z"/><path class="cls-8" d="M54.81,9.16c.33,0,.64.13,1,.14a.42.42,0,0,0,0-.83c-.32,0-.64-.13-1-.14a.42.42,0,0,0,0,.83Z"/><path class="cls-8" d="M53,14.45a5,5,0,0,0,1.5-.15c.51-.16.29-1-.22-.8a4.25,4.25,0,0,1-1.28.12.42.42,0,0,0,0,.83Z"/><path class="cls-8" d="M59.55,14.59a.42.42,0,0,0,0-.83.42.42,0,0,0,0,.83Z"/><path class="cls-8" d="M59.75,14.53a4.82,4.82,0,0,1,1.3-.79.42.42,0,0,0-.22-.8,5.1,5.1,0,0,0-1.49.88c-.44.3,0,1,.41.71Z"/><path class="cls-8" d="M57.94,19.55l1.68-1.25c.42-.32,0-1-.42-.72l-1.67,1.26c-.43.31,0,1,.41.71Z"/><path class="cls-8" d="M57.53,23.73a4.59,4.59,0,0,1,1-.52c.5-.17.29-1-.22-.79a4.71,4.71,0,0,0-1.21.6c-.45.29,0,1,.42.71Z"/><path class="cls-8" d="M67.63,18.07a18.74,18.74,0,0,0,2.89-.29c.53-.09.31-.88-.22-.8a17,17,0,0,1-2.67.27.41.41,0,0,0,0,.82Z"/><path class="cls-8" d="M75,16.4a.41.41,0,0,0,0-.82.41.41,0,0,0,0,.82Z"/><path class="cls-8" d="M75.3,16.28a5.39,5.39,0,0,1,1.31-.91c.48-.24.06-.95-.41-.71a5.65,5.65,0,0,0-1.48,1c-.38.37.2.95.58.58Z"/><path class="cls-8" d="M68.81,13a3.63,3.63,0,0,0,.92-.62.41.41,0,0,0-.58-.58,3,3,0,0,1-.76.49.41.41,0,0,0,.42.71Z"/><path class="cls-8" d="M75.64,12.17a8.21,8.21,0,0,0,1.63.73.41.41,0,0,0,.22-.79,7.71,7.71,0,0,1-1.43-.66c-.48-.24-.9.47-.42.72Z"/><path class="cls-8" d="M64.14,8.18a7,7,0,0,1,1.57.27c.51.12.73-.67.22-.8a8.37,8.37,0,0,0-1.79-.3.42.42,0,0,0,0,.83Z"/><path class="cls-8" d="M63.38,10.77l.83-.42a.41.41,0,1,0-.41-.71l-.84.42a.41.41,0,0,0-.15.56.42.42,0,0,0,.57.15Z"/><path class="cls-8" d="M56.93,5.38a11.63,11.63,0,0,0,2.2.29.41.41,0,0,0,0-.82,11,11,0,0,1-2-.27c-.52-.1-.74.7-.22.8Z"/><path class="cls-9" d="M67.77,8.46c-2.29-.81-4.53-1.34-6.83-2.26-2.48-1-4.22-1.88-7-1.78A15,15,0,0,0,47.59,6C45.39,7.27,43.47,9,41,9.82c-2.15.75-4.69,1-6.55,2.41l-1.26.14c-.06,1.82-8.69.72-7.07,5.12.82,2.24,5.31,1.63,7.1,1.39A19.78,19.78,0,0,0,41.3,16.3a24.37,24.37,0,0,1,16.05-3.52c4.5.64,10.65,4.41,14.14,0C73.59,10.12,69.88,9.21,67.77,8.46Z"/><path class="cls-10" d="M43,27.65l6.3-2.53c.83-.33.24-1.07-.46-.94L36,26.59l.62.84a42.24,42.24,0,0,1,9.21-4.18c.89-.29.64-1.19-.27-1-4.86.92-9.73,1.82-14.66,2.3l.63.63c.16-.29.85-.46,1.13-.57L34.17,24,37,22.83l5.71-2.31c.92-.37.11-1.18-.64-.87l-6.73,2.71-3.2,1.29a3.51,3.51,0,0,0-2,1.33c-.23.42.3.66.63.63,5.06-.49,10.06-1.43,15.05-2.36l-.27-1a45.42,45.42,0,0,0-9.9,4.52c-.72.44.11.94.62.85l12.84-2.41-.46-.94-6.3,2.52c-.92.37-.11,1.18.65.88Z"/><path class="cls-10" d="M32.42,16.34l-6.21,2.72c-.81.36-.26,1.1.46,1L39.43,17.2l-.62-.85a42.56,42.56,0,0,1-9.07,4.49c-.86.31-.65,1.21.27,1,4.84-1.07,9.67-2.13,14.58-2.76L44,18.46c-.17.36-.92.54-1.25.68l-1.28.57L38.53,21,32.9,23.46c-.9.4-.1,1.2.65.87l6.59-2.9L43.36,20c.73-.33,1.61-.62,2-1.39.2-.4-.29-.67-.63-.62-5,.65-10,1.73-15,2.83l.27,1A45.07,45.07,0,0,0,39.78,17c.68-.45-.09-1-.62-.85L26.4,19l.46,1,6.21-2.72c.91-.4.11-1.21-.65-.88Z"/><path class="cls-10" d="M63.69,18.64,70,16.11c.84-.33.24-1.07-.46-.94l-12.84,2.4.62.85a41.81,41.81,0,0,1,9.21-4.18c.89-.29.63-1.19-.27-1-4.87.91-9.74,1.82-14.66,2.3l.63.63c.15-.29.85-.46,1.13-.57L54.86,15l2.86-1.16,5.72-2.3c.92-.37.11-1.18-.65-.88l-6.73,2.72-3.19,1.28a3.6,3.6,0,0,0-2,1.34c-.22.41.31.66.63.63,5.06-.49,10.06-1.43,15.06-2.36l-.27-1a45.71,45.71,0,0,0-9.91,4.52c-.71.44.12.94.62.85l12.85-2.41-.46-.94-6.3,2.52c-.92.37-.11,1.18.64.88Z"/><path class="cls-10" d="M53.12,7.33,46.9,10.05c-.8.35-.25,1.1.46.95L60.13,8.19l-.62-.85a42.06,42.06,0,0,1-9.07,4.48c-.86.31-.65,1.22.27,1,4.83-1.07,9.67-2.13,14.58-2.76l-.63-.63c-.18.35-.92.53-1.25.68l-1.29.57L59.23,12,53.6,14.45c-.91.4-.11,1.2.65.87l6.59-2.9L64.05,11c.73-.32,1.62-.61,2-1.38.21-.41-.29-.67-.63-.63-5,.66-10,1.74-15,2.83l.27,1A45.45,45.45,0,0,0,60.47,8c.68-.45-.09-1-.62-.85L47.09,10l.46.95,6.22-2.72c.9-.4.1-1.21-.65-.88Z"/><path class="cls-10" d="M32.08,16.44l-6.66-1.28c-.57-.11-1.47.7-.66,1l12.1,4.93.48-1a42.07,42.07,0,0,1-10-1.47c-.6-.16-1.73.63-.83,1,4.59,1.87,9.2,3.74,13.61,6l.23-.86c-.25.15-.87-.08-1.12-.12l-1.5-.29-3.13-.6-6.12-1.16c-.73-.14-1.46.88-.5,1.07L35,25l3.43.65a3.72,3.72,0,0,0,2.57,0c.24-.14.69-.63.24-.86-4.52-2.32-9.21-4.25-13.9-6.16l-.83,1a44.8,44.8,0,0,0,10.74,1.56c.54,0,1.19-.75.48-1L25.59,15.2l-.67,1,6.66,1.28c.73.14,1.46-.88.5-1.07Z"/><path class="cls-10" d="M34.29,31.66,41,32.73c.55.09,1.5-.72.66-1L29.4,27.16l-.48,1a43.11,43.11,0,0,1,10.25,1.18c.57.14,1.48-.73.67-1-4.7-1.74-9.41-3.49-13.94-5.64l.06.83c-.14.1.24.07.32.08s.44.06.66.09l1.54.25,3.09.49,6.17,1c.72.12,1.47-.91.5-1.07L31,23.2l-3.55-.57a3.36,3.36,0,0,0-2.44.22.46.46,0,0,0,.06.84c4.54,2.15,9.24,3.9,14,5.64l.66-1a44.7,44.7,0,0,0-10.62-1.19c-.51,0-1.22.77-.48,1l12.25,4.54.67-1-6.7-1.07c-.73-.12-1.47.91-.5,1.07Z"/></svg>