<svg id="Layer_1" data-name="Layer 1" xmlns="http://www.w3.org/2000/svg" viewBox="0 0 93.26 48.09"><defs><style>.cls-1{fill:#995d24;}.cls-2{fill:#84491c;}.cls-3{fill:#e1924a;}.cls-4{fill:#d6a150;}.cls-5{fill:#cba669;}.cls-6{fill:#f5c97e;}.cls-7{fill:#e1b257;}</style></defs><path class="cls-1" d="M58.69,6.37c2.53,0,20.71,2.24,29.08,6,2.7,1.2,1.33,6.45.84,7.43C87.21,22.6,52.22,34,52.42,35.42s.75,5.65-4.68,8.16c-5.09,2.35-16.07,3.71-30.19-6.78C11,31.91,6.7,18,13.65,14.5c5.85-2.92,11,4,13.91,2.94S53.89,6.37,58.69,6.37Z"/><path class="cls-2" d="M48.44,38.83c-.55-.44-1.47-.19-1.92-.76s0-1.27-.77-1.87c-1.5-1.15-3.23-.9-4.92-1a7.81,7.81,0,0,1-5.58-2.51,29,29,0,0,0-7.09-5.5,58.53,58.53,0,0,0-5.33-2.48c-1.34-.56-2.83-.94-4.14-1.56-2.12-1-2.62-3.74-3.87-5.5a5.68,5.68,0,0,0-2.5-2.28c-5.19,4.43-1.06,16.93,5.1,21.51C31.54,47.37,42.52,46,47.61,43.66a10.81,10.81,0,0,0,1.13-.6,1.94,1.94,0,0,0,0-.24C48.63,41.74,49.4,39.57,48.44,38.83Z"/><path class="cls-3" d="M56.93.89C60.71.89,89.74,10.08,88.28,13S50.45,28.47,50.66,29.94s2.72,4.8-2.72,7.31C42.85,39.6,29.34,41,17,30.15c-5.58-4.92-8.82-13.46-1.88-16.93C21,10.29,22.86,13,25.79,12S52.12.89,56.93.89Z"/><path class="cls-4" d="M56.38,2C59.89,2,87,10.13,85.64,12.83s-36.8,15-36.6,16.35,2.91,4.65-2.14,7C42.17,38.32,30.49,39.65,19,29.6,13.85,25.05,9.8,17.25,16.25,14c5.44-2.71,8.22-.28,10.94-1.24S51.91,2,56.38,2Z"/><path class="cls-1" d="M72.9,21.48c-1.76.6-3.26,1.71-5,2.32-2,.7-4.21,1-6.16,1.8-1.7.67-3.28,1.38-5,2.11-1.12.47-4.32,1.91-4.87,1.81l-.13.43a3.72,3.72,0,0,0,1.08,2.85c1.26.81,1.85-.16,2.75-.94,2.27-2,4.74-2.81,7.69-3.9s5.93-2.34,8.91-3.23C74.7,24,76.85,20.14,72.9,21.48Z"/><path class="cls-5" d="M19.78,17.38a11.76,11.76,0,0,0,2.2-.3c.52-.1.3-.9-.22-.79a11.07,11.07,0,0,1-2,.26.42.42,0,0,0,0,.83Z"/><path class="cls-5" d="M18.53,20.73a8.37,8.37,0,0,0,.29,1.78.42.42,0,0,0,.8-.22,7,7,0,0,1-.26-1.56.42.42,0,0,0-.83,0Z"/><path class="cls-5" d="M20.37,26.84l2.5.42c.53.08.75-.71.22-.8L20.59,26c-.53-.09-.75.71-.22.8Z"/><path class="cls-5" d="M28.28,28.39a.42.42,0,0,0,0-.83.42.42,0,0,0,0,.83Z"/><path class="cls-5" d="M28.28,28.39a8.19,8.19,0,0,0,1.78-.16c.52-.12.3-.92-.22-.8a6.81,6.81,0,0,1-1.56.13.42.42,0,0,0,0,.83Z"/><path class="cls-5" d="M31.65,33.11a12.46,12.46,0,0,0,2.2.15.42.42,0,0,0,0-.83,11,11,0,0,1-2-.12c-.52-.1-.74.7-.22.8Z"/><path class="cls-5" d="M40.76,32.92a5.84,5.84,0,0,0,.74-1.22.41.41,0,0,0-.8-.22,4.81,4.81,0,0,1-.66,1c-.3.44.42.86.72.42Z"/><path class="cls-5" d="M34.83,26a7.05,7.05,0,0,0,2.48-.44c.49-.18.28-1-.22-.79a6.68,6.68,0,0,1-2.26.4.42.42,0,0,0,0,.83Z"/><path class="cls-5" d="M27.72,21.42A4,4,0,0,0,29,21.26c.5-.16.29-1-.22-.79a3.45,3.45,0,0,1-1,.12.42.42,0,0,0,0,.83Z"/><path class="cls-5" d="M28.14,15.43a.42.42,0,0,0,0-.83.42.42,0,0,0,0,.83Z"/><path class="cls-5" d="M28.28,15.43h2.37a.42.42,0,0,0,0-.83H28.28a.42.42,0,0,0,0,.83Z"/><path class="cls-5" d="M37.27,18.43l.84-1.26c.3-.44-.42-.86-.71-.41L36.56,18c-.3.44.42.86.71.42Z"/><path class="cls-5" d="M35.35,12.07c.83-.27,1.69-.43,2.51-.7.51-.16.29-1-.22-.8-.82.27-1.68.44-2.5.7-.51.16-.29,1,.21.8Z"/><path class="cls-5" d="M43.87,11.54l.7.7a.41.41,0,0,0,.58-.58l-.7-.7a.41.41,0,1,0-.58.58Z"/><path class="cls-5" d="M46.17,31a2.17,2.17,0,0,1,.37,1.18.41.41,0,0,0,.82,0,3,3,0,0,0-.47-1.6c-.29-.45-1,0-.72.42Z"/><path class="cls-5" d="M55.8,21.08a7.18,7.18,0,0,1,1.71-.51c.52-.11.3-.9-.22-.8a7.57,7.57,0,0,0-1.91.6c-.48.23-.06.94.42.71Z"/><path class="cls-5" d="M55.28,16.25c.74-.3,1.48-.58,2.23-.84.5-.17.29-1-.22-.79-.75.25-1.49.54-2.23.83-.49.2-.28,1,.22.8Z"/><path class="cls-5" d="M50.12,8.17a8.66,8.66,0,0,0,2.05-.74c.48-.24.06-.95-.41-.71a8.21,8.21,0,0,1-1.86.65c-.52.11-.3.91.22.8Z"/><path class="cls-5" d="M54.3,4.41a3.82,3.82,0,0,1,2,.41c.5.2.71-.6.22-.79a4.42,4.42,0,0,0-2.45-.42c-.52.1-.3.9.22.8Z"/><path class="cls-5" d="M61.51,7a5.43,5.43,0,0,0,2.3.61c.53,0,.53-.81,0-.82a4.74,4.74,0,0,1-1.88-.5c-.48-.23-.9.48-.42.71Z"/><path class="cls-5" d="M56.56,10.83a.42.42,0,0,0,0-.83.42.42,0,0,0,0,.83Z"/><path class="cls-5" d="M56.77,10.77a8,8,0,0,1,1.57-.51.42.42,0,0,0-.22-.8,9.47,9.47,0,0,0-1.77.6c-.48.23-.06.94.42.71Z"/><path class="cls-5" d="M64.34,16.25c.74-.15,1.48-.27,2.23-.42.52-.1.3-.9-.22-.8-.75.15-1.49.27-2.23.42-.53.1-.3.9.22.8Z"/><path class="cls-5" d="M64.06,20.15a8.2,8.2,0,0,0,1.63-.6c.48-.23.06-.95-.42-.71a7.16,7.16,0,0,1-1.43.51.42.42,0,0,0,.22.8Z"/><path class="cls-5" d="M67.51,12c.32-.47.66-.92,1-1.4s-.41-.85-.71-.41-.66.92-1,1.39.41.86.71.42Z"/><path class="cls-5" d="M73.81,13.74a14.14,14.14,0,0,1,3.23-.4.42.42,0,0,0,0-.83,15.52,15.52,0,0,0-3.45.43.42.42,0,0,0,.22.8Z"/><path class="cls-6" d="M25.52,30.32a11.77,11.77,0,0,1,1.95.56c.5.19.71-.61.22-.8a11.77,11.77,0,0,0-2-.56c-.52-.1-.74.7-.22.8Z"/><path class="cls-6" d="M32.39,30a6.57,6.57,0,0,1,2-.79c.52-.11.3-.91-.22-.8a7.56,7.56,0,0,0-2.19.88.41.41,0,0,0,.42.71Z"/><path class="cls-6" d="M30.94,23.53a5.48,5.48,0,0,1,1.87-1.47c.47-.24,0-1-.42-.72a6.36,6.36,0,0,0-2,1.6c-.33.41.25,1,.59.59Z"/><path class="cls-6" d="M22.64,22.89a5.46,5.46,0,0,0,1.63.74.41.41,0,0,0,.22-.79,5.08,5.08,0,0,1-1.44-.66c-.44-.29-.86.42-.41.71Z"/><path class="cls-6" d="M23.79,19.87A10.38,10.38,0,0,0,25,19.41a.4.4,0,0,0,.15-.56.41.41,0,0,0-.56-.15,9.58,9.58,0,0,1-1,.37c-.5.17-.29,1,.22.8Z"/><path class="cls-6" d="M33.4,15.55c.62-.16,1.19-.42,1.82-.56s.3-.9-.22-.79-1.2.39-1.82.55a.42.42,0,0,0,.22.8Z"/><path class="cls-6" d="M40.47,24.15a3.24,3.24,0,0,0,2.41.46c.52-.09.3-.89-.22-.8a2.31,2.31,0,0,1-1.77-.38c-.44-.3-.85.42-.42.72Z"/><path class="cls-6" d="M40.26,36.19A14.09,14.09,0,0,0,42.6,36c.53-.08.3-.88-.22-.79a13.64,13.64,0,0,1-2.12.12.42.42,0,0,0,0,.83Z"/><path class="cls-6" d="M44.38,29.43a3.22,3.22,0,0,1,.63-.75.41.41,0,0,0-.58-.58,3.73,3.73,0,0,0-.76.92.4.4,0,0,0,.14.56.42.42,0,0,0,.57-.15Z"/><path class="cls-6" d="M49.74,25.18a.42.42,0,0,0,0-.83.42.42,0,0,0,0,.83Z"/><path class="cls-6" d="M49.85,25.17c.93-.14,1.85-.29,2.78-.42.53-.08.3-.87-.22-.8-.93.13-1.85.28-2.78.42-.53.07-.31.87.22.8Z"/><path class="cls-6" d="M50.57,17.94h1a.42.42,0,0,0,0-.83h-1a.42.42,0,0,0,0,.83Z"/><path class="cls-6" d="M41.35,17.08a8,8,0,0,0,1.91-.59c.48-.24.06-.95-.42-.72a7.34,7.34,0,0,1-1.71.52c-.53.1-.3.9.22.79Z"/><path class="cls-6" d="M48.69,12.31l1.67-.84c.48-.24.06-1-.42-.71l-1.67.83c-.47.24-.06.95.42.72Z"/><path class="cls-6" d="M42.56,9.1A11.53,11.53,0,0,1,44.23,8c.48-.25.06-1-.42-.72a12.17,12.17,0,0,0-1.67,1.12c-.42.31,0,1,.42.71Z"/><path class="cls-6" d="M47.58,6.87a2.65,2.65,0,0,0,1.18.2.42.42,0,0,0,0-.83A1.81,1.81,0,0,1,48,6.16a.41.41,0,0,0-.56.15.4.4,0,0,0,.15.56Z"/><path class="cls-6" d="M51,5a2.9,2.9,0,0,1,.87.12c.5.17.72-.63.21-.8A3.57,3.57,0,0,0,51,4.15.42.42,0,0,0,51,5Z"/><path class="cls-6" d="M56.56,7.9c.33,0,.65.13,1,.14.53,0,.53-.81,0-.82-.33,0-.65-.13-1-.14-.53,0-.53.81,0,.82Z"/><path class="cls-6" d="M54.75,13.2a5,5,0,0,0,1.5-.16.41.41,0,0,0-.22-.79,4.56,4.56,0,0,1-1.28.12.42.42,0,0,0,0,.83Z"/><path class="cls-6" d="M61.3,13.34a.42.42,0,0,0,0-.83.42.42,0,0,0,0,.83Z"/><path class="cls-6" d="M61.51,13.28a4.92,4.92,0,0,1,1.29-.79.41.41,0,0,0-.22-.8,5.23,5.23,0,0,0-1.49.88c-.44.3,0,1,.42.71Z"/><path class="cls-6" d="M59.7,18.3,61.37,17c.42-.31,0-1-.42-.71l-1.67,1.25c-.42.32,0,1,.42.72Z"/><path class="cls-6" d="M59.28,22.48a4.27,4.27,0,0,1,1-.52c.5-.17.28-1-.22-.8a5.32,5.32,0,0,0-1.22.6c-.44.3,0,1,.42.72Z"/><path class="cls-6" d="M69.38,16.82a18.75,18.75,0,0,0,2.9-.29c.52-.09.3-.89-.22-.8a17.25,17.25,0,0,1-2.68.26.42.42,0,0,0,0,.83Z"/><path class="cls-6" d="M76.77,15.15a.42.42,0,0,0,0-.83.42.42,0,0,0,0,.83Z"/><path class="cls-6" d="M77.06,15a5,5,0,0,1,1.31-.91c.47-.24,0-1-.42-.72a6.09,6.09,0,0,0-1.48,1c-.38.38.21,1,.59.59Z"/><path class="cls-6" d="M70.57,11.75a3.76,3.76,0,0,0,.91-.62c.39-.38-.2-1-.58-.59a2.62,2.62,0,0,1-.75.49.42.42,0,0,0-.15.57.43.43,0,0,0,.57.15Z"/><path class="cls-6" d="M77.39,10.91a9.18,9.18,0,0,0,1.63.74.41.41,0,0,0,.22-.8,7.66,7.66,0,0,1-1.43-.65c-.47-.24-.89.47-.42.71Z"/><path class="cls-6" d="M65.9,6.93a7,7,0,0,1,1.56.26.42.42,0,0,0,.22-.8A8.27,8.27,0,0,0,65.9,6.1a.42.42,0,0,0,0,.83Z"/><path class="cls-6" d="M65.13,9.52,66,9.1a.41.41,0,1,0-.42-.71l-.84.42a.41.41,0,0,0-.14.56.42.42,0,0,0,.56.15Z"/><path class="cls-6" d="M58.68,4.13a12.63,12.63,0,0,0,2.2.29.42.42,0,0,0,0-.83,11.07,11.07,0,0,1-2-.26c-.52-.1-.74.69-.22.8Z"/><path class="cls-7" d="M69.52,7.21C67.23,6.4,65,5.87,62.69,5c-2.48-1-4.22-1.89-7-1.78a14.83,14.83,0,0,0-6.38,1.57c-2.21,1.28-4.13,3-6.58,3.83-2.14.75-4.68,1-6.55,2.4L35,11.11c-.06,1.82-8.69.73-7.08,5.13.82,2.24,5.31,1.63,7.11,1.39a19.94,19.94,0,0,0,8-2.58A24.39,24.39,0,0,1,59.1,11.52c4.51.65,10.66,4.42,14.14,0C75.35,8.87,71.63,8,69.52,7.21Z"/></svg>