<svg id="Layer_1" data-name="Layer 1" xmlns="http://www.w3.org/2000/svg" viewBox="0 0 148.25 153.03"><defs><style>.cls-1{fill:#717373;}.cls-2{fill:#9db9c4;}.cls-3{fill:#2e3133;}.cls-4{fill:#6c8341;}.cls-5{fill:#8ea8b2;}.cls-6{fill:#edf2f4;}.cls-7{fill:#c4dae3;}.cls-8{fill:#d3e79e;}.cls-9{fill:#bde267;}.cls-10{fill:#dfecf4;}.cls-11{fill:#484a4e;}.cls-12{fill:#494a4d;}.cls-13{fill:#686a6f;}.cls-14{fill:#859c55;}.cls-15{fill:#7c9250;}.cls-16{fill:#d1b041;}.cls-17{fill:#ceb341;}.cls-18{fill:#829954;}.cls-19{fill:#cbf273;}.cls-20{fill:#474a4e;}.cls-21{fill:#2e3333;}.cls-22{fill:#2e3234;}.cls-23{fill:#303134;}.cls-24{fill:#f1b43f;}.cls-25{fill:#ea9636;}.cls-26{fill:#ec9636;}.cls-27{fill:#66696c;}.cls-28{fill:#161d0c;}.cls-29{fill:#2d3033;}</style></defs><g id="M1T6Ws"><path class="cls-1" d="M136.1,104.62c-.24,0-.22.33-.42.39-.21-.26,0-.48.08-.7a13.64,13.64,0,0,0,1.68-7.85,18.06,18.06,0,0,0-.78-3.66c-.06-.24-.22-.48,0-.73l.16,0a13.67,13.67,0,0,1,1.06,7.49A12.47,12.47,0,0,1,136.1,104.62Z"/><path class="cls-2" d="M74.06,148.33a6.15,6.15,0,0,1-3.4.68c-.15.1-.31,0-.47,0s-.24-.05-.26-.18a.28.28,0,0,1,.17-.28,3.83,3.83,0,0,1,.93-.28c.71-.25.79-.45.63-1.19a11.64,11.64,0,0,1-.26-2.42c0-1.12-.05-2.23-.05-3.35,0-3.86.16-7.72.41-11.57.12-2,.32-4,.46-6s.45-3.92.75-5.87c.37-2.41.65-4.83,1.13-7.22a99.17,99.17,0,0,1,2.72-10.46,33.77,33.77,0,0,1,1.67-3.75,57.79,57.79,0,0,1,3.24-5.81,38.08,38.08,0,0,1,2.36-3.44c1.35-1.89,2.79-3.71,4.19-5.57,2.33-3.11,5-6,7.58-8.82,1.85-2,3.76-4,5.67-6,2.11-2.17,4.28-4.27,6.46-6.36s4.31-4.09,6.65-5.94c.44-.35.76-.81,1.18-1.18,2.7-2.34,5.4-4.7,8.17-7,1.13-.92,2.21-1.94,3.4-2.76,1.86-1.29,3.53-2.8,5.35-4.13a3.71,3.71,0,0,1,4.3.41,7.85,7.85,0,0,1,1,1.15,5.93,5.93,0,0,1,.3,2.61q-1,22.92-2,45.85A6,6,0,0,1,136.2,91c-.29-.16-.18-.44-.21-.67q.56-12.42,1.09-24.83c0-.14,0-.28,0-.42,0-.29-.11-.39-.39-.24a3.29,3.29,0,0,0-.49.26c-2.42,1.89-5.21,3.26-7.51,5.3a27.32,27.32,0,0,1-3.82,2.8,1.18,1.18,0,0,0-.27.22c-1.29,1.69-3.32,2.54-4.63,4.21a6.1,6.1,0,0,1-1.25,1,70.74,70.74,0,0,0-8.36,7.78s-.09.11-.14.15c-2.84,2.55-5,5.7-7.54,8.49-1.61,1.76-3.07,3.62-4.51,5.51a40.53,40.53,0,0,1-2.57,3.55,8.21,8.21,0,0,0-1.55,2.38,7.39,7.39,0,0,1-1.65,2.24c-1,1.05-1.56,2.46-2.47,3.61a45.33,45.33,0,0,0-4.06,7.06c-.35.66-.79,1.26-1.11,1.94-1.26,2.72-2.84,5.27-4,8-.7,1.64-1.69,3.16-2.32,4.84-1.19,3.18-2.64,6.26-3.68,9.5a5.85,5.85,0,0,1-.65,1.3,6.43,6.43,0,0,0-.59,2.55C73.47,147.91,73.89,148.06,74.06,148.33Z"/><path class="cls-3" d="M136.64,92.07c.21.87.5,1.72.76,2.56a10.13,10.13,0,0,1,.25,2.61,12.68,12.68,0,0,1-.29,3.74,11.57,11.57,0,0,1-1.5,3.53.72.72,0,0,0-.18.5h0a3.43,3.43,0,0,1-3.34,1.45,1.66,1.66,0,0,1-1.34-.62,8,8,0,0,1-2.25-5.11,19.21,19.21,0,0,1,.51-6.84,2.09,2.09,0,0,1,.3-.62,1.64,1.64,0,0,0,.3-.69,8.36,8.36,0,0,1,1.93-2.74c.27-.35.73-.21,1.1-.31a3.92,3.92,0,0,1,2.74,1,2.86,2.86,0,0,1,.63,1Z"/><path class="cls-4" d="M136.25,91.45a4,4,0,0,0-3.42-1.78,10.54,10.54,0,0,1-2.63-.13,23.74,23.74,0,0,0-3.67-.24,2.77,2.77,0,0,0-2.3,2.12,3.16,3.16,0,0,0-.74,1.83,1,1,0,0,1-.09.33c-.89,2.09-.76,4.31-.87,6.5a2.38,2.38,0,0,0,.22,1.08,8.27,8.27,0,0,0,1.53,4.59,2.53,2.53,0,0,0,2.3,1c1.94,0,3.86-.37,5.8-.46,1.38.31,2.28-.62,3.29-1.28l-.21,1.4c-1.09,0-2.13.38-3.22.46-1.24.08-2.46.42-3.73.44-.78,0-1.55.2-2.35.16a3.22,3.22,0,0,1-2.34-1.21A9.67,9.67,0,0,1,122,102a7.07,7.07,0,0,1-.16-2.63c.13-1.11,0-2.22.1-3.34a31,31,0,0,1,.78-3.23,7,7,0,0,1,1.33-2.72,3.63,3.63,0,0,1,3.37-1.57c2.27.22,4.52.49,6.76.92a6.29,6.29,0,0,1,1.93.94c0,.21,0,.41,0,.62S136.24,91.29,136.25,91.45Z"/><path class="cls-5" d="M102.57,129.86l1-.67a2.08,2.08,0,0,0,1.26-.78h0l5.79-3.81c.54-.33,1-.72,1.59-1l3.19-2,2.7-1.76c.32-.23.68-.42,1-.64,1.75-1.19,3.52-2.35,5.33-3.44a3.19,3.19,0,0,1,.88-.62L127,114c1.31-.85,2.65-1.68,3.94-2.57a28.8,28.8,0,0,0,2.44-1.7,8.69,8.69,0,0,0,2.08-3.29.69.69,0,0,0-1-.1.93.93,0,0,1-.59.17,20.82,20.82,0,0,0-3,.34,30.24,30.24,0,0,1-4.84.44,2.77,2.77,0,0,1-2.05-1.11,8.46,8.46,0,0,1-1.7-4,5.76,5.76,0,0,1-.27-2.12,18,18,0,0,0,.1-2.65,10.06,10.06,0,0,1,.75-4.24,1.29,1.29,0,0,0,.18-.45c0-1.19.74-2,1.4-2.79A3.24,3.24,0,0,1,127,88.67c1.8,0,3.53.47,5.31.6a5.37,5.37,0,0,1,3.43,1.12c.13.12.26,0,.39,0l.75-16.67q.19-4.36.38-8.72c0-.18.1-.4-.1-.52s-.32.1-.48.16a18.61,18.61,0,0,0-2.32,1.63,44.55,44.55,0,0,0-4.61,3.08,36.05,36.05,0,0,1-4.19,3.21A4.61,4.61,0,0,0,124,73.7a5.53,5.53,0,0,1-1.73,1.57,6.88,6.88,0,0,0-1.3,1,17.48,17.48,0,0,1-2.19,2,13.32,13.32,0,0,0-2,1.46c-1.74,1.62-3.45,3.25-5.11,4.94-1.19,1.21-2.35,2.45-3.62,3.57a1.39,1.39,0,0,0-.21.27,49.8,49.8,0,0,1-3.27,4c-1.15,1.42-2.45,2.72-3.6,4.14a67.22,67.22,0,0,0-4.37,5.84c-.9,1.41-2.3,2.49-2.84,4.16,0,.07-.08.11-.11.17-.9,1.48-2.18,2.66-3.06,4.19s-2,2.9-2.85,4.51c-1.36,2.68-2.92,5.25-4.24,8-1,2-2,4-3.08,6.06-1.4,2.69-2.46,5.51-3.68,8.26-1.07,2.43-1.65,5.07-3,7.37a.82.82,0,0,0-.1.4,6,6,0,0,1-.29,1.57c-.16.62.06,1,.73,1.15a9.14,9.14,0,0,0,1.72-1.06,3.31,3.31,0,0,0,1.3-.77h0l1.43-.93,1.12-.65h0l.62-.53a2.37,2.37,0,0,0,1-.52h0l.47-.41a5.15,5.15,0,0,0,1.59-1h0l5.46-3.55c.42-.32.94-.54,1.42-.91l11.25-7.35"/><path class="cls-5" d="M124.43,115.68a1,1,0,0,1,.88-.62A2.11,2.11,0,0,1,124.43,115.68Z"/><path class="cls-6" d="M84.15,87.09a12.45,12.45,0,0,0-2,2.67c-.86,1.27-1.6,2.64-2.42,3.95s-1.27,2.59-1.94,3.88A1.21,1.21,0,0,1,76,98.1a1.83,1.83,0,0,0-1.12-.49,6.28,6.28,0,0,1-2.38-.72,7.74,7.74,0,0,0-1.94-.52,12.19,12.19,0,0,1-3.15-1.06,28.59,28.59,0,0,0-5.62-1.5,2.34,2.34,0,0,1-.58-.2,6.32,6.32,0,0,0-2.43-.79c-.81,0-1.41-.64-2.19-.83a19.92,19.92,0,0,1-2.63-.58c-.42-.15-.89.18-1.38.12-.24,0-.14.39-.27.59-.26-.4.32-1.06-.44-1.27-.43-.17-.67-.6-1-.83a1.17,1.17,0,0,0-1-.35A11.65,11.65,0,0,1,48,89.15c-.69.3-1.3-.17-1.93-.29a30.69,30.69,0,0,1-3.93-1.31,11.69,11.69,0,0,0-3.5-.78c-.31,0-.57,0-.64.41s-.41.51-.67.16c-1.26-1.69-3.19-2-5-2.57a37.68,37.68,0,0,1-4.23-1.57,2.66,2.66,0,0,0-1.19-.3,3,3,0,0,1-1.78-.5c-.42-.29-.94.1-1.41-.09,0,0-.15.13-.15.2-.06,1-.89,1.65-1.11,2.6-.09.42-.1.85-.17,1.27s.37.39.66.4c1.74.08,3.48.06,5.2.26a5.7,5.7,0,0,1,3.08.91c.41.33.5.62.14,1a1.65,1.65,0,0,0-.41.55c-.11.41-.16.84.43,1a.73.73,0,0,1,.57.9c-.05.51-.43.73-.88.45A3.9,3.9,0,0,0,29,91.31a4.64,4.64,0,0,1-2.56-.75A1.87,1.87,0,0,0,24.57,90c-.21.08-.4-.06-.58-.16-.56-.3-.92-.92-1.66-1-.22,0-.23-.34-.25-.53-.1-.66-.32-.64-.67-.17a1.19,1.19,0,0,1-.23.16.41.41,0,0,1,0-.46c.51-1.18.5-2.53,1.18-3.65.14-.22,0-.5.18-.73,0,0,0-.09,0-.13a14.06,14.06,0,0,0,.92-2.06c.89-1.62,1.82-3.22,2.64-4.87A17.28,17.28,0,0,1,28,73.75c.93-1.24,1.63-2.63,2.61-3.83,1.34-1.65,2.62-3.33,3.93-5,.14.8.69,1,1.44,1.14a19.39,19.39,0,0,1,3.65,1.09c3.55,1.19,7.1,2.36,10.69,3.42.74.22,1.49.36,2.24.54a7.49,7.49,0,0,1,2.38.94,11.7,11.7,0,0,0,2.49.89c1.7.55,3.32,1.34,5.06,1.74a88.53,88.53,0,0,1,9.54,3,15.83,15.83,0,0,1,1.5.71c.82.3,1.71.24,2.53.6a29,29,0,0,0,3.56,1.36c2,.56,3.89,1.18,5.83,1.8a5.18,5.18,0,0,1,1.27.68c.33.23.1.53-.07.72-.89,1-1.55,2.22-2.36,3.3A.74.74,0,0,0,84.15,87.09Z"/><path class="cls-7" d="M22.5,83.54a2.47,2.47,0,0,1-.37,1.36,6.26,6.26,0,0,0-.6,2.25c0,.45-.46.76-.35,1.23a42.19,42.19,0,0,0-1.42,6c-.36,2-.88,4.07-1.1,6.14-.27,2.48-.67,5-1,7.42-.13,1.08-.22,2.18-.28,3.26-.24,4.18-.45,8.36-.54,12.55a36.23,36.23,0,0,0,.1,5.41,7.9,7.9,0,0,0,2.27,4.77,3.68,3.68,0,0,1,.34.44,5.77,5.77,0,0,1-2.08-2.53,9.67,9.67,0,0,1-.85-4c-.15-2.19.17-4.36.12-6.54q-.06-3,.17-5.92c.17-2.13.18-4.27.44-6.39.28-2.36.61-4.72.9-7.08.28-2.18.73-4.32,1.07-6.49.23-1.46.6-2.9.93-4.34a6.58,6.58,0,0,0,.13-.89c.38-1.27.8-2.54,1.11-3.83A15,15,0,0,1,22.5,83.54Z"/><path class="cls-8" d="M23.43,81.35a4,4,0,0,1-.92,2.06A7.34,7.34,0,0,1,23.43,81.35Z"/><path class="cls-9" d="M58.89,73.26A15,15,0,0,1,56,72.21c.61-.59,1.22-.06,1.8-.12a2.36,2.36,0,0,0,1.46.35.49.49,0,0,1,.34,0c1.55,1.07,3.39,1.35,5.14,1.86a1.81,1.81,0,0,1,.27.06c.16.11.49.12.38.39s-.32,0-.48,0a28.84,28.84,0,0,1-5.56-1.47A2.42,2.42,0,0,0,58.89,73.26Z"/><path class="cls-10" d="M97.43,55.37a7.86,7.86,0,0,1,2.63-2.4c-.07.44-.12.89-.19,1.33-.16,1-.68,1.32-1.63,1.05A2.19,2.19,0,0,0,97.43,55.37Z"/><path class="cls-10" d="M77.39,72.25c.57-.37,1,.21,1.53.21-.31.46-.78.42-1.24.34C77.39,72.75,77.38,72.49,77.39,72.25Z"/><path class="cls-10" d="M94.81,57.77c0-.61.17-1.06.89-1.08A1.07,1.07,0,0,1,94.81,57.77Z"/><path class="cls-9" d="M100.21,52.7l.87-.8C101.07,52.47,100.67,52.61,100.21,52.7Z"/><path class="cls-9" d="M103.12,50.17c.23-.23.29-.66.72-.67C103.67,49.8,103.55,50.15,103.12,50.17Z"/><path class="cls-11" d="M132.38,106.29a24.75,24.75,0,0,1-5,.59,8.48,8.48,0,0,1-1.52.06c-1.63-.25-2.13-1.58-2.71-2.79a12.24,12.24,0,0,1-.62-2.19.92.92,0,0,1,.16-.73,24.86,24.86,0,0,1,3.45-.2,8.48,8.48,0,0,0,1.67,0c.47-.06.63-.29.59-.75a17.5,17.5,0,0,1,.4-5.59,11.31,11.31,0,0,1,.46-1.39.52.52,0,0,1,.48-.43.34.34,0,0,1,0,.45,3.1,3.1,0,0,0-.59,1.6,23.14,23.14,0,0,0-.22,5.94,8.12,8.12,0,0,0,2.18,4.87A1.56,1.56,0,0,0,132.38,106.29Z"/><path class="cls-12" d="M129.75,93.29l0-.43c-.2-.6-.64-.75-1.24-.87a21.65,21.65,0,0,0-3.58-.38,1.11,1.11,0,0,1-.84-.25,2.88,2.88,0,0,1,2.39-2.28,47.9,47.9,0,0,1,6.33.59c-1.61.47-2.31,1.78-2.89,3.19C129.88,93,129.92,93.19,129.75,93.29Z"/><path class="cls-13" d="M124.11,91.36a33.28,33.28,0,0,1,5.17.5c.73.11.45.61.49,1a2.53,2.53,0,0,0-.72,1.66,15.73,15.73,0,0,0-.51,3.63,13.89,13.89,0,0,0,.1,2.41c.07.42-.12.6-.45.61a9.63,9.63,0,0,1-1.52.1,10.27,10.27,0,0,0-3,.12,2.05,2.05,0,0,1-1-.16,1,1,0,0,1-.38-1c.07-1.39.13-2.78.18-4.16a5.62,5.62,0,0,1,.36-1.41,8,8,0,0,0,.5-1.93A1.94,1.94,0,0,1,124.11,91.36Z"/><path class="cls-14" d="M47,117.62q-.18,3.38-.5,6.73c-.15,1.65-.09,3.34-.17,5-.08,1.37,0,2.73,0,4.1a2.27,2.27,0,0,1-3,2.12c-.49-.17-1-.26-1.48-.39a2.17,2.17,0,0,1-1.7-2.21c0-2.68.07-5.35.23-8,.18-3,.43-5.93.68-8.88a16.6,16.6,0,0,1,.32-1.71c0-.23,0-.43-.3-.51a45.85,45.85,0,0,1-5-2.05c-2-.77-3.72-1.87-5.58-2.8-.53-.27-1.24-.5-1.35-1.27a.24.24,0,0,1,.2-.06,43.29,43.29,0,0,0,7.25,3.83c1.4.61,2.82,1.2,4.24,1.76.63.25,1,.6.93,1.34-.23,2.8-.57,5.59-.74,8.4s-.39,5.57-.3,8.36c0,.44,0,.88,0,1.33,0,1.21.26,1.64,1.41,2a4.68,4.68,0,0,1,.53.17,3.43,3.43,0,0,0,2.23.2,1.42,1.42,0,0,0,.92-.93,32.44,32.44,0,0,0,.12-4.41c0-.51,0-1,0-1.55.08-1.64.15-3.27.22-4.91a2,2,0,0,1,.08-.65,15.9,15.9,0,0,0,.21-2.66,8.93,8.93,0,0,1,.08-1,3.14,3.14,0,0,0,.15-.8C46.7,117.9,46.69,117.63,47,117.62Z"/><path class="cls-15" d="M47,117.62c-.37.35,0,.9-.33,1.25a1.38,1.38,0,0,1-.1-1.25,8,8,0,0,0,.15-1.37,1.18,1.18,0,0,1,.13-.61c.3-.43.71-.38,1.13-.28,1.65.38,3.33.67,5,1,1.4.23,2.82.28,4.23.44.68.07,1.37.38,2.06,0,1.64-.77,2.16-3.25,1.48-4.78a2.8,2.8,0,0,0-1.36-1.13,55.69,55.69,0,0,0-6.16-3.25,37,37,0,0,0-3.82-1.52c-1.07-.37-1.12-.41-1-1.52,0-.14,0-.28,0-.42.56-3.25,1.38-6.44,2.23-9.62.07-.28.1-.61.48-.68.19.42-.11.76-.18,1.14-.31,1.24-.64,2.48-.93,3.74s-.56,2.62-.81,3.93a11.47,11.47,0,0,0-.4,2.18c0,.33.08.51.4.63,1.24.48,2.47,1,3.72,1.48a32.35,32.35,0,0,1,3.36,1.61c1.36.7,2.63,1.58,4,2.3a2.11,2.11,0,0,1,1.08,1.44c.43,1.68-.12,4-1.85,4.87a2.92,2.92,0,0,1-1.77.18c-1.81-.2-3.64-.36-5.44-.66a30.62,30.62,0,0,1-4.34-.88c-.47-.15-.72-.21-.78.42C47.13,116.7,47.05,117.16,47,117.62Z"/><path class="cls-16" d="M26.23,126.89c1.7.39,3.33,1,3.91,2.87a2.62,2.62,0,0,1-.53,2.67,4,4,0,0,1-4.08,1.09,4.5,4.5,0,0,1-2.89-1.45,3.21,3.21,0,0,1-.74-2.71,2.51,2.51,0,0,1,1.39-1.66A4.24,4.24,0,0,1,26.23,126.89Z"/><path class="cls-17" d="M61.44,143.85A4.58,4.58,0,0,1,58,142.49a3,3,0,0,1,.52-4.89c1.21-.86,2.51-.65,3.81-.51a4.87,4.87,0,0,1,3.16,2.08,3.13,3.13,0,0,1-.75,4A5,5,0,0,1,61.44,143.85Z"/><path class="cls-18" d="M29.28,107.75h-.14c-.88-1.85.09-3.17,1.26-4.44a2.16,2.16,0,0,1,1.88-.75,76.11,76.11,0,0,1,10,1.12.69.69,0,0,0,.87-.75,26.27,26.27,0,0,1,.65-3.54,36.67,36.67,0,0,1,1.07-4c.23-.84.49-1.67.72-2.51A1.54,1.54,0,0,1,46,92a.28.28,0,0,1,.14.18A4.35,4.35,0,0,1,45.74,94c-.9,3.11-1.61,6.27-2.3,9.43-.28.81-.42,1-1.26.79-2.45-.47-4.93-.66-7.39-1-1-.12-1.95-.12-2.93-.16a1,1,0,0,0-.65.2A4,4,0,0,0,29.4,107C29.43,107.23,29.51,107.52,29.28,107.75Z"/><path class="cls-19" d="M51.37,95.58a.68.68,0,0,1-.1-.71C51.48,95.13,51.48,95.13,51.37,95.58Z"/><path class="cls-20" d="M29.28,107.75a5.74,5.74,0,0,1,.09-2.54,6.55,6.55,0,0,1,1.9-2.34.39.39,0,0,1,.27,0,32.32,32.32,0,0,1,3.67.25,24,24,0,0,0,2.69.26c1.35.1,2.65.38,4,.61,1,.16,1.14.12,1.44-.61.14.59.55.75,1.12.88a11.73,11.73,0,0,1,3.29.85c.24.14.37,0,.46-.23s0-.54.39-.56a4.7,4.7,0,0,1,0,.76c-.1.49.17.67.56.79a41.52,41.52,0,0,1,7,3c1.15.62,2.31,1.21,3.4,1.92a2.72,2.72,0,0,1-.72.54A2.66,2.66,0,0,0,57.6,113a12,12,0,0,1-.36,1.49,2.94,2.94,0,0,0,.29,1.81c.1.33.44.3.71.34s.89-.1,1.26.26a2.82,2.82,0,0,1-1.63.12c-1.14-.18-2.3-.26-3.45-.36a40.4,40.4,0,0,1-5.13-.87c-.56-.12-1.13-.23-1.69-.37-.28-.07-.43.13-.63.22a24.54,24.54,0,0,1-3.58-1.06,2.82,2.82,0,0,0-1.81-.17c.08-.46-.12-.7-.56-.88-2-.79-3.91-1.6-5.84-2.44-1.77-.78-3.46-1.72-5.14-2.67A4.16,4.16,0,0,1,29.28,107.75Z"/><path class="cls-21" d="M41.58,114.44c.1-.5.37-.31.71-.26,1.54.27,3,.92,4.46,1.34.08,0,.14.1.22.15s0,.37,0,.56a7.74,7.74,0,0,0-.28,1.91c-.11,1.49-.06,3-.25,4.49l0,.56c-.21,1.42-.13,2.85-.26,4.28a2.49,2.49,0,0,0-.19,1c-.07,1.71-.14,3.42-.22,5.13a1.31,1.31,0,0,1-1.5,1.42,5.21,5.21,0,0,0-1.31,0l-.13,0-.4-.11c-1.78-.54-1.88-.75-1.87-2.59,0-1.66.08-3.3.12-4.95.07-2.86.34-5.71.54-8.56C41.23,117.39,41.5,115.92,41.58,114.44Z"/><path class="cls-21" d="M46.12,128.21l0,1.54a39.34,39.34,0,0,1-.21,4.6,1.38,1.38,0,0,1-.86.84l0-.12a3.12,3.12,0,0,0,.7-2.42c.08-1.46.05-2.92.25-4.37A.15.15,0,0,1,46.12,128.21Z"/><path class="cls-20" d="M46.39,122.63l.24-5.66a.92.92,0,0,1,.29-.74c0,.89-.3,1.75-.23,2.64s-.1,2-.16,3C46.51,122.15,46.58,122.42,46.39,122.63Z"/><path class="cls-20" d="M46.12,128.21H46c-.21-.23-.12-.46,0-.69.06-1.2.11-2.4.18-3.6,0-.24-.07-.51.15-.72C46.27,124.87,46.19,126.54,46.12,128.21Z"/><path class="cls-20" d="M45.87,134.35l.21-4.6A19.17,19.17,0,0,1,45.87,134.35Z"/><path class="cls-21" d="M45,135.19a3,3,0,0,1-2.28-.11l.05,0a4.21,4.21,0,0,1,2.2.1Z"/><path class="cls-22" d="M48.57,104.28c-.28.34-.07,1-.48,1.12s-.73-.3-1.12-.45a13.67,13.67,0,0,0-2.88-.6c-.78-.11-.85-.42-.78-1,.46-2.55,1-5.09,1.74-7.58.36-1.25.68-2.5,1-3.74a4.21,4.21,0,0,0,.57-1.19,1.76,1.76,0,0,1,2.11-1.3,9.67,9.67,0,0,1,2,.62,1.91,1.91,0,0,1,.76,2.41c-.18.44-.27.88-.42,1.32a7.51,7.51,0,0,0-.72,2.3c-.6,2.49-1.31,5-1.68,7.5C48.7,103.88,48.62,104.08,48.57,104.28Z"/><path class="cls-23" d="M59.5,116.93,58,116.84c-.4,0-.53-.23-.72-.62-.63-1.26,0-2.38.23-3.51a2.6,2.6,0,0,1,2-2c1.55.45,2,2.09,1.68,3.54A3.73,3.73,0,0,1,59.5,116.93Z"/><path class="cls-24" d="M22.57,129.7a2.25,2.25,0,0,1,2.4-2,5.14,5.14,0,0,1,2.48.32A3.93,3.93,0,0,1,29,129.28a.66.66,0,0,1,.26.79,1.79,1.79,0,0,1-1.39,1.5,5.24,5.24,0,0,1-5-1.26C22.75,130.15,22.5,130,22.57,129.7Z"/><path class="cls-25" d="M22.57,129.7c1.22,1.22,2.56,2.08,4.42,1.76.6-.1,1.18,0,1.64-.54a1.44,1.44,0,0,0,.39-1.64.56.56,0,0,1,.56.32,3.3,3.3,0,0,1-.4,2.56c-1,1.13-2.18,1.11-3.53,1a3.75,3.75,0,0,1-2.28-1,5,5,0,0,1-1.08-1.81A.46.46,0,0,1,22.57,129.7Z"/><path class="cls-24" d="M57.94,139.5c0-.94.51-1.37,1.38-1.78a3.24,3.24,0,0,1,2.76-.11,5.08,5.08,0,0,1,2.45,1.48,1.69,1.69,0,0,1-1.12,2.42,5.4,5.4,0,0,1-5.13-1.28A1,1,0,0,1,57.94,139.5Z"/><path class="cls-26" d="M57.94,139.5c1.11,1.83,2.92,2.07,4.78,2,1.28-.06,1.74-.68,1.79-2,0-.14,0-.28,0-.42a2,2,0,0,1,.91,2.07,2.15,2.15,0,0,1-.72,1.22,2.51,2.51,0,0,1-1.79,1,7,7,0,0,1-2.74-.18c-.92-.4-1.92-.82-2.23-2a2.11,2.11,0,0,0-.26-.49C57.34,140.26,57.37,139.83,57.94,139.5Z"/><path class="cls-27" d="M50.44,111c-2-.38-4-.69-6-1.15a57.44,57.44,0,0,1-10.21-3.56,2.31,2.31,0,0,1-.91-.84c-.19-.25.35-.74.86-.71,1,.08,2,.15,3,.3a45.1,45.1,0,0,1,6.07,1.36c1.68.49,3.32,1.11,5,1.67a14,14,0,0,1,2.87,1.23,4.83,4.83,0,0,1,1,.76c.14.15.38.26.27.5a.68.68,0,0,1-.61.4l-1.32-.06Z"/><path class="cls-28" d="M45,135.14l-2.2-.1c.12-.27.36-.25.59-.24a9.13,9.13,0,0,0,1,0,1,1,0,0,0,1.05-1.05c.09-1.83.16-3.66.25-5.49,0-.29-.06-.63.3-.79,0,.23,0,.46,0,.69-.07,1.67-.19,3.34-.21,5A2.16,2.16,0,0,1,45,135.14Z"/></g><path class="cls-7" d="M84.15,87.09c-.32-.08-.48.15-.61.36-.5.75-1.05,1.48-1.53,2.25a71.41,71.41,0,0,0-4.37,7.78,1,1,0,0,1-1.61.44,2.69,2.69,0,0,0-1.28-.51A4.29,4.29,0,0,1,73.14,97a10.61,10.61,0,0,0-2.86-.86,9.67,9.67,0,0,1-2.39-.77,11.66,11.66,0,0,0-3.3-1.1c-2.26-.28-4.28-1.4-6.5-1.81a1.27,1.27,0,0,1-.45-.19,4.67,4.67,0,0,0-1.71-.57,12.14,12.14,0,0,1-1.77-.38c-.53-.19-1,.06-1.58.08a.28.28,0,0,0-.26.23c.09-.66,0-.74-.55-.74a14.5,14.5,0,0,1-1,4.15c-.12.62-.43,1.18-.53,1.8-.16,1-.42,2-.67,3-.36,1.46-.63,2.94-.9,4.42-.21,1.11,0,1.25,1,1.62,1.27.46,2.53.94,3.75,1.5a63.46,63.46,0,0,1,6.78,3.68A1.74,1.74,0,0,1,61,112a4.51,4.51,0,0,1-.39,3.93,2.66,2.66,0,0,1-3,1.28A3.87,3.87,0,0,0,57,117a52.78,52.78,0,0,1-6.41-.85,18,18,0,0,1-2.72-.58c-.43-.16-.71,0-.82.48a7.69,7.69,0,0,0-.21,1.58c0,2.65-.46,5.27-.5,7.92s-.29,5.2-.18,7.81a2.06,2.06,0,0,1-2.6,2c-.61-.15-1.22-.3-1.82-.47a1.92,1.92,0,0,1-1.33-1.71c0-1,0-1.9,0-2.85.05-3.66.4-7.3.61-10.94a3.7,3.7,0,0,1,.07-.48,42.31,42.31,0,0,1,.54-4.49c.11-.4-.1-.68-.56-.81a49.65,49.65,0,0,1-5.71-2.35,49.79,49.79,0,0,1-4.8-2.51c-.47-.25-1-.48-1.2-1.1a2.91,2.91,0,0,1,.09-2.79,9.46,9.46,0,0,1,1.33-1.68,1.58,1.58,0,0,1,1.31-.5,84.44,84.44,0,0,1,10,1.07c.73.09,1.2-.17,1.26-.91s.3-1.45.4-2.19c.18-1.21.53-2.39.81-3.58s.66-2.17.94-3.27a5.82,5.82,0,0,1,.6-1.76c.36-1.06.66-2.15,1.8-2.68a.19.19,0,0,0,0-.34,4.7,4.7,0,0,0-.75-.13,48.11,48.11,0,0,1-5.11-1.62,11.12,11.12,0,0,0-3.38-.74,1.08,1.08,0,0,0-.18,0,80,80,0,0,0-8.38-2.81l-.53-.19a8.53,8.53,0,0,0-3.46-1,1,1,0,0,1-.59-.21A2.34,2.34,0,0,0,24,82.14l-.32-.08a.52.52,0,0,0-.62.35,26,26,0,0,1-1,3.09,2.82,2.82,0,0,0-.18.29,13.07,13.07,0,0,0-1.07,3.48,1.66,1.66,0,0,0-.11.38c-.17,1.31-.56,2.57-.83,3.86-.4,2-.79,4-1.11,5.95-.29,1.8-.46,3.63-.72,5.44-.5,3.47-.72,7-.92,10.47-.13,2.15-.19,4.31-.23,6.48s-.16,4.45,0,6.68a8,8,0,0,0,2.76,5.79l1.09.74a11,11,0,0,0,2.46.94c2.08.55,4.13,1.2,6.21,1.77,2.78.77,5.55,1.63,8.34,2.38,2.23.6,4.45,1.27,6.66,1.94,1.45.45,2.94.79,4.38,1.28,2,.68,4,1.12,6,1.76a11.94,11.94,0,0,0,1.79.54,34.09,34.09,0,0,1,4.35,1.19c1.21.36,2.45.64,3.64,1.1,1,.39,2.16.52,3.2.91l.69,0a4.64,4.64,0,0,1,.83.06,1.93,1.93,0,0,0,1.4,0c-.2,0-.45,0-.65-.17a1.75,1.75,0,0,1,.88-.26,1.88,1.88,0,0,0,1.13-.65c.26-.32-.09-.59-.22-.87a1.33,1.33,0,0,1,0-.34,55.49,55.49,0,0,1-.18-7.84c.09-3.65.19-7.29.55-10.93.27-2.67.36-5.34.76-8,.44-2.87.84-5.76,1.31-8.63.45-2.71,1.22-5.35,1.91-8a38.49,38.49,0,0,1,3.22-8.12c1-1.84,2-3.65,3.19-5.39.6-.89,1.19-1.79,1.79-2.69Z"/><path class="cls-10" d="M136.19,39.21c-1.76-.56-3.55-1-5.34-1.52-1.6-.42-3.21-.86-4.79-1.34-1.81-.55-3.64-1.08-5.46-1.59s-3.76-1.16-5.66-1.62l-2.08-.51.15,0S91.3,28,84.42,25.28s-11.66,0-11.66,0L53.15,45h0l-.12.13-2.28,2.3h0c-.58.53-1.17,1.06-1.71,1.63-2,2-4,4-5.91,6.09q-4.48,4.71-8.62,9.73c-.18.63,0,1.15.77,1.22a18.48,18.48,0,0,1,2.58.69c1.53.39,3,.94,4.49,1.44,2.89,1,5.8,1.91,8.75,2.7a18.77,18.77,0,0,1,2.94.79,11.07,11.07,0,0,0,1.65.83c2,.54,4,1.31,6,1.9a15.79,15.79,0,0,0,1.82.51l.62.15c1.61.45,3.18,1.09,4.76,1.63L73,78.19a4,4,0,0,1,.41.31,1,1,0,0,0,.65.21,5.21,5.21,0,0,1,2,.48,68.91,68.91,0,0,0,7.14,2.42,14.1,14.1,0,0,1,2.81,1c.68.4.71.52.21,1.12a28,28,0,0,0-1.88,2.68c-.12.19-.3.37-.22.63a.13.13,0,0,0,.19,0c.72-1,1.46-1.9,2.16-2.88.93-1.3,1.9-2.57,2.91-3.79Q93,76.1,96.85,72c2.48-2.64,5-5.28,7.56-7.79,2-1.87,3.79-3.89,5.91-5.6.55-.45,1-1.09,1.54-1.5A22.86,22.86,0,0,0,115,54.44c1.49-1.47,3.13-2.77,4.68-4.17.82-.75,1.64-1.52,2.53-2.19,2.32-1.77,4.42-3.81,6.87-5.43a31.07,31.07,0,0,0,3.41-2.75,3.57,3.57,0,0,1,4.86.42,6.38,6.38,0,0,0,.73.74A3.2,3.2,0,0,0,136.19,39.21Z"/><path class="cls-29" d="M89.39,32.87l-25.83,28c-1.49,2-4.24,3.79-6.08,3.8l-6.32-.52c-1.72-.29-1.85-2.32-.33-4.4L77.06,30.72c.92-.61,3-.64,4.63-.18l6.09,1.1C89.55,31.8,90.29,32.3,89.39,32.87Z"/><path class="cls-29" d="M111.38,39.6l-25.83,28c-1.5,2-4.24,3.79-6.08,3.79l-6.33-.51c-1.72-.3-1.84-2.32-.33-4.41L99.05,37.46c.92-.62,3-.65,4.62-.19l6.1,1.11C111.54,38.54,112.28,39,111.38,39.6Z"/></svg>