<svg id="Layer_1" data-name="Layer 1" xmlns="http://www.w3.org/2000/svg" viewBox="0 0 148.25 153.03"><defs><style>.cls-1{fill:#2c282d;}.cls-2{fill:#e6e8e2;}.cls-3{fill:#b3b7a5;}</style></defs><rect class="cls-1" x="29.52" y="126.69" width="11.18" height="14.01" rx="4.87"/><rect class="cls-1" x="104.61" y="126.69" width="11.18" height="14.01" rx="4.87"/><path class="cls-2" d="M107.77,48.43h-.27s-12-5.59-35.39-5.59-35.39,5.59-35.39,5.59h0L25.48,55.66h92Z"/><path class="cls-2" d="M117.52,55.66,111.2,139.3c-.19,2.51-2.89,4.48-6.16,4.48H40.42c-3.21,0-5.88-1.9-6.14-4.37l-8.8-83.75Z"/><path class="cls-3" d="M27.47,55.63S42.39,50,71.38,50s43.91,5.59,43.91,5.59Z"/><path class="cls-3" d="M53.63,143.78H40.42c-3.21,0-5.88-1.9-6.14-4.37l-8.8-83.75h7.07C33.32,67.68,29.52,143.15,53.63,143.78Z"/><path class="cls-3" d="M52.1,129.85H49.73a3,3,0,0,1-3-2.9L44.53,71.43c-.07-1.6,1.88-2.9,4.33-2.9H52.5c2.46,0,4.42,1.3,4.36,2.9L55.09,127A3,3,0,0,1,52.1,129.85Z"/><path class="cls-3" d="M75.48,129.85H73.11a3,3,0,0,1-3-2.9L67.91,71.43c-.07-1.6,1.88-2.9,4.34-2.9h3.64c2.46,0,4.41,1.3,4.36,2.9L78.47,127A3,3,0,0,1,75.48,129.85Z"/><path class="cls-3" d="M96.83,129.85H94.47a3,3,0,0,1-3-2.9L89.26,71.43c-.06-1.6,1.88-2.9,4.34-2.9h3.64c2.46,0,4.41,1.3,4.36,2.9L99.82,127A3,3,0,0,1,96.83,129.85Z"/></svg>