<svg id="Layer_1" data-name="Layer 1" xmlns="http://www.w3.org/2000/svg" viewBox="0 0 148.25 153.03"><defs><style>.cls-1{fill:#2c282d;}.cls-2{fill:#e6e8e2;}.cls-3{fill:#9c9e8f;}.cls-4{fill:#b3b7a5;}</style></defs><rect class="cls-1" x="29.99" y="126.77" width="11.12" height="13.94" rx="4.84"/><rect class="cls-1" x="104.7" y="126.77" width="11.12" height="13.94" rx="4.84"/><path class="cls-2" d="M117.54,56.11l-6.29,83.22c-.19,2.49-2.87,4.45-6.12,4.45H40.84c-3.19,0-5.85-1.89-6.11-4.35L26,56.11Z"/><polygon class="cls-3" points="117.55 56.11 25.97 56.11 37.11 48.92 107.84 48.92 117.55 56.11"/><rect class="cls-1" x="44.31" y="47.14" width="11.81" height="1.88"/><rect class="cls-1" x="87.83" y="47.14" width="11.81" height="1.88"/><polygon class="cls-4" points="37.11 47.14 27.95 14.81 115.33 14.81 107.57 47.14 37.11 47.14"/><path class="cls-2" d="M28,14.81S42.8,9.25,71.64,9.25s43.69,5.56,43.69,5.56Z"/><path class="cls-4" d="M54,143.78H40.84c-3.19,0-5.85-1.89-6.11-4.35L26,56.11h7C33.77,68.06,30,143.16,54,143.78Z"/><path class="cls-4" d="M52,129.85H49.64a3,3,0,0,1-3-2.9L44.44,71.43c-.07-1.6,1.87-2.9,4.33-2.9h3.64c2.46,0,4.42,1.3,4.36,2.9L55,127A3,3,0,0,1,52,129.85Z"/><path class="cls-4" d="M75.39,129.85H73a3,3,0,0,1-3-2.9L67.82,71.43c-.07-1.6,1.88-2.9,4.34-2.9H75.8c2.46,0,4.41,1.3,4.36,2.9L78.38,127A3,3,0,0,1,75.39,129.85Z"/><path class="cls-4" d="M96.74,129.85H94.38a3,3,0,0,1-3-2.9L89.17,71.43c-.06-1.6,1.88-2.9,4.34-2.9h3.64c2.46,0,4.41,1.3,4.36,2.9L99.73,127A3,3,0,0,1,96.74,129.85Z"/></svg>