<svg xmlns="http://www.w3.org/2000/svg" xmlns:xlink="http://www.w3.org/1999/xlink" viewBox="0 0 758.34 205.29"><defs><style>.cls-1{isolation:isolate;}.cls-2,.cls-3,.cls-4,.cls-5,.cls-6{fill-rule:evenodd;}.cls-2{fill:url(#鍊踑臇蜸馯鳺艜_467);}.cls-3{fill:url(#鍊踑臇蜸馯鳺艜_461);}.cls-4{fill:url(#鍊踑臇蜸馯鳺艜_466);}.cls-5{fill:#ffffed;}.cls-6{fill:#8c2a45;opacity:0.4;mix-blend-mode:multiply;}</style><linearGradient id="鍊踑臇蜸馯鳺艜_467" x1="378.54" y1="199.67" x2="378.54" y2="4.83" gradientUnits="userSpaceOnUse"><stop offset="0.02" stop-color="#d06a36"/><stop offset="0.99" stop-color="#b75040"/></linearGradient><linearGradient id="鍊踑臇蜸馯鳺艜_461" x1="377.58" y1="190.87" x2="377.58" y2="16.31" gradientUnits="userSpaceOnUse"><stop offset="0" stop-color="#e48936"/><stop offset="1" stop-color="#f09a48"/></linearGradient><linearGradient id="鍊踑臇蜸馯鳺艜_466" x1="26.74" y1="106.27" x2="736.31" y2="106.27" gradientUnits="userSpaceOnUse"><stop offset="0.01" stop-color="#b75040"/><stop offset="0.98" stop-color="#d06a36"/></linearGradient></defs><g class="cls-1"><g id="Layer_1" data-name="Layer 1"><polygon class="cls-2" points="7.56 200.96 2.74 5.84 754.34 7.78 751.72 201.59 7.56 200.96"/><polygon class="cls-3" points="25.3 189.15 715.37 190.87 736.31 16.31 18.86 16.31 25.3 189.15"/><polygon class="cls-4" points="26.74 189.11 26.74 21.67 736.31 21.67 736.31 190.87 26.74 189.11"/><polygon class="cls-5" points="38.93 185.21 736.31 185.93 736.31 27.03 38.93 27.37 38.93 185.21"/><polyline class="cls-6" points="38.93 27.37 736.31 27.08 735.67 21.73 736.31 16.38 18.86 16.38"/></g></g></svg>